solid OpenSCAD_Model
  facet normal 0.316578 0.316578 0.89418
    outer loop
      vertex 40.1478 44.5887 1
      vertex 40.873 36.8022 3.5
      vertex 44.5887 40.1478 1
    endloop
  endfacet
  facet normal 0.316578 0.316578 0.89418
    outer loop
      vertex 40.873 36.8022 3.5
      vertex 40.1478 44.5887 1
      vertex 36.8022 40.873 3.5
    endloop
  endfacet
  facet normal 0.417967 0.160441 0.894182
    outer loop
      vertex 57.0634 18.541 1
      vertex 50.245 22.3705 3.5
      vertex 52.3081 16.9959 3.5
    endloop
  endfacet
  facet normal 0.442188 0.0700317 0.894184
    outer loop
      vertex 58.6889 12.4747 1
      vertex 53.7981 11.4351 3.5
      vertex 59.6713 6.27171 1
    endloop
  endfacet
  facet normal 0.83867 0.54464 0
    outer loop
      vertex 51.9615 30 1
      vertex 48.541 35.2671 0
      vertex 48.541 35.2671 1
    endloop
  endfacet
  facet normal 0.83867 0.54464 0
    outer loop
      vertex 48.541 35.2671 0
      vertex 51.9615 30 1
      vertex 51.9615 30 0
    endloop
  endfacet
  facet normal 0.375477 0.24384 0.894181
    outer loop
      vertex 51.9615 30 1
      vertex 44.4959 32.3282 3.5
      vertex 47.6314 27.5 3.5
    endloop
  endfacet
  facet normal 0.358372 -0.933579 0
    outer loop
      vertex 18.541 -57.0634 0
      vertex 24.4042 -54.8127 1
      vertex 18.541 -57.0634 1
    endloop
  endfacet
  facet normal 0.358372 -0.933579 0
    outer loop
      vertex 24.4042 -54.8127 1
      vertex 18.541 -57.0634 0
      vertex 24.4042 -54.8127 0
    endloop
  endfacet
  facet normal 0.432444 -0.115876 0.894184
    outer loop
      vertex 58.6889 -12.4747 1
      vertex 53.7981 -11.4351 3.5
      vertex 57.0634 -18.541 1
    endloop
  endfacet
  facet normal 0.160445 0.417969 0.894181
    outer loop
      vertex 24.4042 54.8127 1
      vertex 18.541 57.0634 1
      vertex 22.3705 50.245 3.5
    endloop
  endfacet
  facet normal -0.023432 0.447091 0.894182
    outer loop
      vertex 0 60 1
      vertex -6.27171 59.6713 1
      vertex 0 55 3.5
    endloop
  endfacet
  facet normal 0.347935 0.281746 0.894182
    outer loop
      vertex 48.541 35.2671 1
      vertex 40.873 36.8022 3.5
      vertex 44.4959 32.3282 3.5
    endloop
  endfacet
  facet normal 0.45399 0.891007 -0
    outer loop
      vertex 30 51.9615 0
      vertex 24.4042 54.8127 1
      vertex 30 51.9615 1
    endloop
  endfacet
  facet normal 0.45399 0.891007 0
    outer loop
      vertex 24.4042 54.8127 1
      vertex 30 51.9615 0
      vertex 24.4042 54.8127 0
    endloop
  endfacet
  facet normal 0.375476 0.243838 0.894182
    outer loop
      vertex 48.541 35.2671 1
      vertex 44.4959 32.3282 3.5
      vertex 51.9615 30 1
    endloop
  endfacet
  facet normal -0.0234314 -0.447091 0.894181
    outer loop
      vertex -5.74907 -54.6987 3.5
      vertex -6.27171 -59.6713 1
      vertex 0 -55 3.5
    endloop
  endfacet
  facet normal -0.347935 -0.281751 0.89418
    outer loop
      vertex -40.873 -36.8022 3.5
      vertex -48.541 -35.2671 1
      vertex -44.5887 -40.1478 1
    endloop
  endfacet
  facet normal 0.447091 0.0234314 0.894181
    outer loop
      vertex 59.6713 6.27171 1
      vertex 54.6987 5.74907 3.5
      vertex 55 0 3.5
    endloop
  endfacet
  facet normal -0.447091 0.023432 0.894182
    outer loop
      vertex -59.6713 6.27171 1
      vertex -60 0 1
      vertex -55 0 3.5
    endloop
  endfacet
  facet normal -0.98769 -0.156426 0
    outer loop
      vertex -58.6889 -12.4747 0
      vertex -59.6713 -6.27171 1
      vertex -59.6713 -6.27171 0
    endloop
  endfacet
  facet normal -0.98769 -0.156426 0
    outer loop
      vertex -59.6713 -6.27171 1
      vertex -58.6889 -12.4747 0
      vertex -58.6889 -12.4747 1
    endloop
  endfacet
  facet normal 0.398909 0.203254 0.894181
    outer loop
      vertex 51.9615 30 1
      vertex 47.6314 27.5 3.5
      vertex 50.245 22.3705 3.5
    endloop
  endfacet
  facet normal 0.933579 0.358372 0
    outer loop
      vertex 57.0634 18.541 1
      vertex 54.8127 24.4042 0
      vertex 54.8127 24.4042 1
    endloop
  endfacet
  facet normal 0.933579 0.358372 0
    outer loop
      vertex 54.8127 24.4042 0
      vertex 57.0634 18.541 1
      vertex 57.0634 18.541 0
    endloop
  endfacet
  facet normal 0.998629 0.0523381 0
    outer loop
      vertex 60 0 1
      vertex 59.6713 6.27171 0
      vertex 59.6713 6.27171 1
    endloop
  endfacet
  facet normal 0.998629 0.0523381 0
    outer loop
      vertex 59.6713 6.27171 0
      vertex 60 0 1
      vertex 60 0 0
    endloop
  endfacet
  facet normal 0.347935 -0.281746 0.894182
    outer loop
      vertex 44.4959 -32.3282 3.5
      vertex 40.873 -36.8022 3.5
      vertex 48.541 -35.2671 1
    endloop
  endfacet
  facet normal 0.24384 -0.375477 0.894181
    outer loop
      vertex 32.3282 -44.4959 3.5
      vertex 27.5 -47.6314 3.5
      vertex 30 -51.9615 1
    endloop
  endfacet
  facet normal 0.398909 -0.203254 0.894181
    outer loop
      vertex 50.245 -22.3705 3.5
      vertex 47.6314 -27.5 3.5
      vertex 51.9615 -30 1
    endloop
  endfacet
  facet normal 0.707107 -0.707107 0
    outer loop
      vertex 40.1478 -44.5887 1
      vertex 44.5887 -40.1478 0
      vertex 44.5887 -40.1478 1
    endloop
  endfacet
  facet normal 0.707107 -0.707107 0
    outer loop
      vertex 44.5887 -40.1478 0
      vertex 40.1478 -44.5887 1
      vertex 40.1478 -44.5887 0
    endloop
  endfacet
  facet normal -0.156426 -0.98769 0
    outer loop
      vertex -12.4747 -58.6889 0
      vertex -6.27171 -59.6713 1
      vertex -12.4747 -58.6889 1
    endloop
  endfacet
  facet normal -0.156426 -0.98769 -0
    outer loop
      vertex -6.27171 -59.6713 1
      vertex -12.4747 -58.6889 0
      vertex -6.27171 -59.6713 0
    endloop
  endfacet
  facet normal -0.777147 -0.629319 0
    outer loop
      vertex -44.5887 -40.1478 0
      vertex -48.541 -35.2671 1
      vertex -48.541 -35.2671 0
    endloop
  endfacet
  facet normal -0.777147 -0.629319 0
    outer loop
      vertex -48.541 -35.2671 1
      vertex -44.5887 -40.1478 0
      vertex -44.5887 -40.1478 1
    endloop
  endfacet
  facet normal -0.115876 -0.432444 0.894184
    outer loop
      vertex -11.4351 -53.7981 3.5
      vertex -18.541 -57.0634 1
      vertex -12.4747 -58.6889 1
    endloop
  endfacet
  facet normal 0.432444 0.115876 0.894184
    outer loop
      vertex 57.0634 18.541 1
      vertex 53.7981 11.4351 3.5
      vertex 58.6889 12.4747 1
    endloop
  endfacet
  facet normal 0.432448 0.115873 0.894182
    outer loop
      vertex 57.0634 18.541 1
      vertex 52.3081 16.9959 3.5
      vertex 53.7981 11.4351 3.5
    endloop
  endfacet
  facet normal 0.023432 0.447091 0.894182
    outer loop
      vertex 0 60 1
      vertex 0 55 3.5
      vertex 6.27171 59.6713 1
    endloop
  endfacet
  facet normal -0.629319 0.777147 0
    outer loop
      vertex -35.2671 48.541 0
      vertex -40.1478 44.5887 1
      vertex -35.2671 48.541 1
    endloop
  endfacet
  facet normal -0.629319 0.777147 0
    outer loop
      vertex -40.1478 44.5887 1
      vertex -35.2671 48.541 0
      vertex -40.1478 44.5887 0
    endloop
  endfacet
  facet normal -0.398909 0.203254 0.894181
    outer loop
      vertex -51.9615 30 1
      vertex -54.8127 24.4042 1
      vertex -50.245 22.3705 3.5
    endloop
  endfacet
  facet normal 0.398909 0.203254 0.894181
    outer loop
      vertex 51.9615 30 1
      vertex 50.245 22.3705 3.5
      vertex 54.8127 24.4042 1
    endloop
  endfacet
  facet normal 0.417969 0.160445 0.894181
    outer loop
      vertex 54.8127 24.4042 1
      vertex 50.245 22.3705 3.5
      vertex 57.0634 18.541 1
    endloop
  endfacet
  facet normal 0.965924 0.258825 0
    outer loop
      vertex 58.6889 12.4747 1
      vertex 57.0634 18.541 0
      vertex 57.0634 18.541 1
    endloop
  endfacet
  facet normal 0.965924 0.258825 0
    outer loop
      vertex 57.0634 18.541 0
      vertex 58.6889 12.4747 1
      vertex 58.6889 12.4747 0
    endloop
  endfacet
  facet normal 0.98769 0.156426 0
    outer loop
      vertex 59.6713 6.27171 1
      vertex 58.6889 12.4747 0
      vertex 58.6889 12.4747 1
    endloop
  endfacet
  facet normal 0.98769 0.156426 0
    outer loop
      vertex 58.6889 12.4747 0
      vertex 59.6713 6.27171 1
      vertex 59.6713 6.27171 0
    endloop
  endfacet
  facet normal 0.447091 -0.023432 0.894182
    outer loop
      vertex 60 0 1
      vertex 55 0 3.5
      vertex 59.6713 -6.27171 1
    endloop
  endfacet
  facet normal 0.998629 -0.0523381 0
    outer loop
      vertex 59.6713 -6.27171 1
      vertex 60 0 0
      vertex 60 0 1
    endloop
  endfacet
  facet normal 0.998629 -0.0523381 0
    outer loop
      vertex 60 0 0
      vertex 59.6713 -6.27171 1
      vertex 59.6713 -6.27171 0
    endloop
  endfacet
  facet normal 0.54464 -0.83867 0
    outer loop
      vertex 30 -51.9615 0
      vertex 35.2671 -48.541 1
      vertex 30 -51.9615 1
    endloop
  endfacet
  facet normal 0.54464 -0.83867 0
    outer loop
      vertex 35.2671 -48.541 1
      vertex 30 -51.9615 0
      vertex 35.2671 -48.541 0
    endloop
  endfacet
  facet normal 0.243838 -0.375476 0.894182
    outer loop
      vertex 32.3282 -44.4959 3.5
      vertex 30 -51.9615 1
      vertex 35.2671 -48.541 1
    endloop
  endfacet
  facet normal 0.316578 -0.316578 0.89418
    outer loop
      vertex 40.873 -36.8022 3.5
      vertex 40.1478 -44.5887 1
      vertex 44.5887 -40.1478 1
    endloop
  endfacet
  facet normal 0.316578 -0.316578 0.89418
    outer loop
      vertex 40.1478 -44.5887 1
      vertex 40.873 -36.8022 3.5
      vertex 36.8022 -40.873 3.5
    endloop
  endfacet
  facet normal 0.375476 -0.243838 0.894182
    outer loop
      vertex 51.9615 -30 1
      vertex 44.4959 -32.3282 3.5
      vertex 48.541 -35.2671 1
    endloop
  endfacet
  facet normal 0.432448 -0.115873 0.894182
    outer loop
      vertex 53.7981 -11.4351 3.5
      vertex 52.3081 -16.9959 3.5
      vertex 57.0634 -18.541 1
    endloop
  endfacet
  facet normal -0.375476 -0.243838 0.894182
    outer loop
      vertex -44.4959 -32.3282 3.5
      vertex -51.9615 -30 1
      vertex -48.541 -35.2671 1
    endloop
  endfacet
  facet normal -0.358372 -0.933579 0
    outer loop
      vertex -24.4042 -54.8127 0
      vertex -18.541 -57.0634 1
      vertex -24.4042 -54.8127 1
    endloop
  endfacet
  facet normal -0.358372 -0.933579 -0
    outer loop
      vertex -18.541 -57.0634 1
      vertex -24.4042 -54.8127 0
      vertex -18.541 -57.0634 0
    endloop
  endfacet
  facet normal -0.160445 -0.417969 0.894181
    outer loop
      vertex -22.3705 -50.245 3.5
      vertex -24.4042 -54.8127 1
      vertex -18.541 -57.0634 1
    endloop
  endfacet
  facet normal 0.023432 -0.447091 0.894182
    outer loop
      vertex 0 -55 3.5
      vertex 0 -60 1
      vertex 6.27171 -59.6713 1
    endloop
  endfacet
  facet normal -0.160441 -0.417967 0.894182
    outer loop
      vertex -16.9959 -52.3081 3.5
      vertex -22.3705 -50.245 3.5
      vertex -18.541 -57.0634 1
    endloop
  endfacet
  facet normal -0.258825 -0.965924 0
    outer loop
      vertex -18.541 -57.0634 0
      vertex -12.4747 -58.6889 1
      vertex -18.541 -57.0634 1
    endloop
  endfacet
  facet normal -0.258825 -0.965924 -0
    outer loop
      vertex -12.4747 -58.6889 1
      vertex -18.541 -57.0634 0
      vertex -12.4747 -58.6889 0
    endloop
  endfacet
  facet normal -0.24384 -0.375477 0.894181
    outer loop
      vertex -27.5 -47.6314 3.5
      vertex -32.3282 -44.4959 3.5
      vertex -30 -51.9615 1
    endloop
  endfacet
  facet normal -0.629319 -0.777147 0
    outer loop
      vertex -40.1478 -44.5887 0
      vertex -35.2671 -48.541 1
      vertex -40.1478 -44.5887 1
    endloop
  endfacet
  facet normal -0.629319 -0.777147 -0
    outer loop
      vertex -35.2671 -48.541 1
      vertex -40.1478 -44.5887 0
      vertex -35.2671 -48.541 0
    endloop
  endfacet
  facet normal -0.115873 -0.432448 0.894182
    outer loop
      vertex -16.9959 -52.3081 3.5
      vertex -18.541 -57.0634 1
      vertex -11.4351 -53.7981 3.5
    endloop
  endfacet
  facet normal 0.347935 0.281751 0.89418
    outer loop
      vertex 44.5887 40.1478 1
      vertex 40.873 36.8022 3.5
      vertex 48.541 35.2671 1
    endloop
  endfacet
  facet normal 0.281751 0.347935 0.89418
    outer loop
      vertex 40.1478 44.5887 1
      vertex 35.2671 48.541 1
      vertex 36.8022 40.873 3.5
    endloop
  endfacet
  facet normal 0.54464 0.83867 -0
    outer loop
      vertex 35.2671 48.541 0
      vertex 30 51.9615 1
      vertex 35.2671 48.541 1
    endloop
  endfacet
  facet normal 0.54464 0.83867 0
    outer loop
      vertex 30 51.9615 1
      vertex 35.2671 48.541 0
      vertex 30 51.9615 0
    endloop
  endfacet
  facet normal 0.203254 0.398909 0.894181
    outer loop
      vertex 30 51.9615 1
      vertex 22.3705 50.245 3.5
      vertex 27.5 47.6314 3.5
    endloop
  endfacet
  facet normal 0.203254 0.398909 0.894181
    outer loop
      vertex 24.4042 54.8127 1
      vertex 22.3705 50.245 3.5
      vertex 30 51.9615 1
    endloop
  endfacet
  facet normal 0.358372 0.933579 -0
    outer loop
      vertex 24.4042 54.8127 0
      vertex 18.541 57.0634 1
      vertex 24.4042 54.8127 1
    endloop
  endfacet
  facet normal 0.358372 0.933579 0
    outer loop
      vertex 18.541 57.0634 1
      vertex 24.4042 54.8127 0
      vertex 18.541 57.0634 0
    endloop
  endfacet
  facet normal -0.0523381 0.998629 0
    outer loop
      vertex 0 60 0
      vertex -6.27171 59.6713 1
      vertex 0 60 1
    endloop
  endfacet
  facet normal -0.0523381 0.998629 0
    outer loop
      vertex -6.27171 59.6713 1
      vertex 0 60 0
      vertex -6.27171 59.6713 0
    endloop
  endfacet
  facet normal -0.281746 0.347935 0.894182
    outer loop
      vertex -35.2671 48.541 1
      vertex -36.8022 40.873 3.5
      vertex -32.3282 44.4959 3.5
    endloop
  endfacet
  facet normal -0.45399 0.891007 0
    outer loop
      vertex -24.4042 54.8127 0
      vertex -30 51.9615 1
      vertex -24.4042 54.8127 1
    endloop
  endfacet
  facet normal -0.45399 0.891007 0
    outer loop
      vertex -30 51.9615 1
      vertex -24.4042 54.8127 0
      vertex -30 51.9615 0
    endloop
  endfacet
  facet normal -0.375477 0.24384 0.894181
    outer loop
      vertex -44.4959 32.3282 3.5
      vertex -51.9615 30 1
      vertex -47.6314 27.5 3.5
    endloop
  endfacet
  facet normal -0.417967 -0.160441 0.894182
    outer loop
      vertex -52.3081 -16.9959 3.5
      vertex -57.0634 -18.541 1
      vertex -50.245 -22.3705 3.5
    endloop
  endfacet
  facet normal 0.891007 0.45399 0
    outer loop
      vertex 54.8127 24.4042 1
      vertex 51.9615 30 0
      vertex 51.9615 30 1
    endloop
  endfacet
  facet normal 0.891007 0.45399 0
    outer loop
      vertex 51.9615 30 0
      vertex 54.8127 24.4042 1
      vertex 54.8127 24.4042 0
    endloop
  endfacet
  facet normal 0.447091 0.023432 0.894182
    outer loop
      vertex 59.6713 6.27171 1
      vertex 55 0 3.5
      vertex 60 0 1
    endloop
  endfacet
  facet normal 0.442193 -0.0700381 0.894181
    outer loop
      vertex 54.6987 -5.74907 3.5
      vertex 53.7981 -11.4351 3.5
      vertex 59.6713 -6.27171 1
    endloop
  endfacet
  facet normal 0.447091 -0.0234314 0.894181
    outer loop
      vertex 55 0 3.5
      vertex 54.6987 -5.74907 3.5
      vertex 59.6713 -6.27171 1
    endloop
  endfacet
  facet normal 0.965924 -0.258825 0
    outer loop
      vertex 57.0634 -18.541 1
      vertex 58.6889 -12.4747 0
      vertex 58.6889 -12.4747 1
    endloop
  endfacet
  facet normal 0.965924 -0.258825 0
    outer loop
      vertex 58.6889 -12.4747 0
      vertex 57.0634 -18.541 1
      vertex 57.0634 -18.541 0
    endloop
  endfacet
  facet normal 0.160445 -0.417969 0.894181
    outer loop
      vertex 22.3705 -50.245 3.5
      vertex 18.541 -57.0634 1
      vertex 24.4042 -54.8127 1
    endloop
  endfacet
  facet normal 0.281746 -0.347935 0.894182
    outer loop
      vertex 36.8022 -40.873 3.5
      vertex 32.3282 -44.4959 3.5
      vertex 35.2671 -48.541 1
    endloop
  endfacet
  facet normal 0.375477 -0.24384 0.894181
    outer loop
      vertex 47.6314 -27.5 3.5
      vertex 44.4959 -32.3282 3.5
      vertex 51.9615 -30 1
    endloop
  endfacet
  facet normal 0.417969 -0.160445 0.894181
    outer loop
      vertex 57.0634 -18.541 1
      vertex 50.245 -22.3705 3.5
      vertex 54.8127 -24.4042 1
    endloop
  endfacet
  facet normal 0.417967 -0.160441 0.894182
    outer loop
      vertex 52.3081 -16.9959 3.5
      vertex 50.245 -22.3705 3.5
      vertex 57.0634 -18.541 1
    endloop
  endfacet
  facet normal 0.347935 -0.281751 0.89418
    outer loop
      vertex 48.541 -35.2671 1
      vertex 40.873 -36.8022 3.5
      vertex 44.5887 -40.1478 1
    endloop
  endfacet
  facet normal 0.777147 -0.629319 0
    outer loop
      vertex 44.5887 -40.1478 1
      vertex 48.541 -35.2671 0
      vertex 48.541 -35.2671 1
    endloop
  endfacet
  facet normal 0.777147 -0.629319 0
    outer loop
      vertex 48.541 -35.2671 0
      vertex 44.5887 -40.1478 1
      vertex 44.5887 -40.1478 0
    endloop
  endfacet
  facet normal 0.281751 -0.347935 0.89418
    outer loop
      vertex 36.8022 -40.873 3.5
      vertex 35.2671 -48.541 1
      vertex 40.1478 -44.5887 1
    endloop
  endfacet
  facet normal 0.629319 -0.777147 0
    outer loop
      vertex 35.2671 -48.541 0
      vertex 40.1478 -44.5887 1
      vertex 35.2671 -48.541 1
    endloop
  endfacet
  facet normal 0.629319 -0.777147 0
    outer loop
      vertex 40.1478 -44.5887 1
      vertex 35.2671 -48.541 0
      vertex 40.1478 -44.5887 0
    endloop
  endfacet
  facet normal 0.398909 -0.203254 0.894181
    outer loop
      vertex 54.8127 -24.4042 1
      vertex 50.245 -22.3705 3.5
      vertex 51.9615 -30 1
    endloop
  endfacet
  facet normal 0.891007 -0.45399 0
    outer loop
      vertex 51.9615 -30 1
      vertex 54.8127 -24.4042 0
      vertex 54.8127 -24.4042 1
    endloop
  endfacet
  facet normal 0.891007 -0.45399 0
    outer loop
      vertex 54.8127 -24.4042 0
      vertex 51.9615 -30 1
      vertex 51.9615 -30 0
    endloop
  endfacet
  facet normal -0.933579 -0.358372 0
    outer loop
      vertex -54.8127 -24.4042 0
      vertex -57.0634 -18.541 1
      vertex -57.0634 -18.541 0
    endloop
  endfacet
  facet normal -0.933579 -0.358372 0
    outer loop
      vertex -57.0634 -18.541 1
      vertex -54.8127 -24.4042 0
      vertex -54.8127 -24.4042 1
    endloop
  endfacet
  facet normal 0.156426 -0.98769 0
    outer loop
      vertex 6.27171 -59.6713 0
      vertex 12.4747 -58.6889 1
      vertex 6.27171 -59.6713 1
    endloop
  endfacet
  facet normal 0.156426 -0.98769 0
    outer loop
      vertex 12.4747 -58.6889 1
      vertex 6.27171 -59.6713 0
      vertex 12.4747 -58.6889 0
    endloop
  endfacet
  facet normal 0.0700381 -0.442193 0.894181
    outer loop
      vertex 11.4351 -53.7981 3.5
      vertex 5.74907 -54.6987 3.5
      vertex 6.27171 -59.6713 1
    endloop
  endfacet
  facet normal -0.316578 -0.316578 0.89418
    outer loop
      vertex -40.873 -36.8022 3.5
      vertex -40.1478 -44.5887 1
      vertex -36.8022 -40.873 3.5
    endloop
  endfacet
  facet normal -0.316578 -0.316578 0.89418
    outer loop
      vertex -40.1478 -44.5887 1
      vertex -40.873 -36.8022 3.5
      vertex -44.5887 -40.1478 1
    endloop
  endfacet
  facet normal -0.243838 -0.375476 0.894182
    outer loop
      vertex -32.3282 -44.4959 3.5
      vertex -35.2671 -48.541 1
      vertex -30 -51.9615 1
    endloop
  endfacet
  facet normal -0.0700317 -0.442188 0.894184
    outer loop
      vertex -11.4351 -53.7981 3.5
      vertex -12.4747 -58.6889 1
      vertex -6.27171 -59.6713 1
    endloop
  endfacet
  facet normal -0.0700381 -0.442193 0.894181
    outer loop
      vertex -5.74907 -54.6987 3.5
      vertex -11.4351 -53.7981 3.5
      vertex -6.27171 -59.6713 1
    endloop
  endfacet
  facet normal 0.281746 0.347935 0.894182
    outer loop
      vertex 35.2671 48.541 1
      vertex 32.3282 44.4959 3.5
      vertex 36.8022 40.873 3.5
    endloop
  endfacet
  facet normal 0.243838 0.375476 0.894182
    outer loop
      vertex 35.2671 48.541 1
      vertex 30 51.9615 1
      vertex 32.3282 44.4959 3.5
    endloop
  endfacet
  facet normal 0.160441 0.417967 0.894182
    outer loop
      vertex 18.541 57.0634 1
      vertex 16.9959 52.3081 3.5
      vertex 22.3705 50.245 3.5
    endloop
  endfacet
  facet normal -0.258825 0.965924 0
    outer loop
      vertex -12.4747 58.6889 0
      vertex -18.541 57.0634 1
      vertex -12.4747 58.6889 1
    endloop
  endfacet
  facet normal -0.258825 0.965924 0
    outer loop
      vertex -18.541 57.0634 1
      vertex -12.4747 58.6889 0
      vertex -18.541 57.0634 0
    endloop
  endfacet
  facet normal -0.156426 0.98769 0
    outer loop
      vertex -6.27171 59.6713 0
      vertex -12.4747 58.6889 1
      vertex -6.27171 59.6713 1
    endloop
  endfacet
  facet normal -0.156426 0.98769 0
    outer loop
      vertex -12.4747 58.6889 1
      vertex -6.27171 59.6713 0
      vertex -12.4747 58.6889 0
    endloop
  endfacet
  facet normal -0.160441 0.417967 0.894182
    outer loop
      vertex -18.541 57.0634 1
      vertex -22.3705 50.245 3.5
      vertex -16.9959 52.3081 3.5
    endloop
  endfacet
  facet normal -0.54464 0.83867 0
    outer loop
      vertex -30 51.9615 0
      vertex -35.2671 48.541 1
      vertex -30 51.9615 1
    endloop
  endfacet
  facet normal -0.54464 0.83867 0
    outer loop
      vertex -35.2671 48.541 1
      vertex -30 51.9615 0
      vertex -35.2671 48.541 0
    endloop
  endfacet
  facet normal -0.358372 0.933579 0
    outer loop
      vertex -18.541 57.0634 0
      vertex -24.4042 54.8127 1
      vertex -18.541 57.0634 1
    endloop
  endfacet
  facet normal -0.358372 0.933579 0
    outer loop
      vertex -24.4042 54.8127 1
      vertex -18.541 57.0634 0
      vertex -24.4042 54.8127 0
    endloop
  endfacet
  facet normal -0.442193 0.0700381 0.894181
    outer loop
      vertex -53.7981 11.4351 3.5
      vertex -59.6713 6.27171 1
      vertex -54.6987 5.74907 3.5
    endloop
  endfacet
  facet normal -0.83867 0.54464 0
    outer loop
      vertex -51.9615 30 0
      vertex -48.541 35.2671 1
      vertex -48.541 35.2671 0
    endloop
  endfacet
  facet normal -0.83867 0.54464 0
    outer loop
      vertex -48.541 35.2671 1
      vertex -51.9615 30 0
      vertex -51.9615 30 1
    endloop
  endfacet
  facet normal -0.375476 0.243838 0.894182
    outer loop
      vertex -48.541 35.2671 1
      vertex -51.9615 30 1
      vertex -44.4959 32.3282 3.5
    endloop
  endfacet
  facet normal -0.398909 0.203254 0.894181
    outer loop
      vertex -47.6314 27.5 3.5
      vertex -51.9615 30 1
      vertex -50.245 22.3705 3.5
    endloop
  endfacet
  facet normal -0.316578 0.316578 0.89418
    outer loop
      vertex -40.1478 44.5887 1
      vertex -40.873 36.8022 3.5
      vertex -36.8022 40.873 3.5
    endloop
  endfacet
  facet normal -0.316578 0.316578 0.89418
    outer loop
      vertex -40.873 36.8022 3.5
      vertex -40.1478 44.5887 1
      vertex -44.5887 40.1478 1
    endloop
  endfacet
  facet normal -0.432444 -0.115876 0.894184
    outer loop
      vertex -53.7981 -11.4351 3.5
      vertex -58.6889 -12.4747 1
      vertex -57.0634 -18.541 1
    endloop
  endfacet
  facet normal -0.442193 -0.0700381 0.894181
    outer loop
      vertex -54.6987 -5.74907 3.5
      vertex -59.6713 -6.27171 1
      vertex -53.7981 -11.4351 3.5
    endloop
  endfacet
  facet normal -0.375477 -0.24384 0.894181
    outer loop
      vertex -47.6314 -27.5 3.5
      vertex -51.9615 -30 1
      vertex -44.4959 -32.3282 3.5
    endloop
  endfacet
  facet normal -0.417969 -0.160445 0.894181
    outer loop
      vertex -50.245 -22.3705 3.5
      vertex -57.0634 -18.541 1
      vertex -54.8127 -24.4042 1
    endloop
  endfacet
  facet normal 0.442193 0.0700381 0.894181
    outer loop
      vertex 59.6713 6.27171 1
      vertex 53.7981 11.4351 3.5
      vertex 54.6987 5.74907 3.5
    endloop
  endfacet
  facet normal 0.98769 -0.156426 0
    outer loop
      vertex 58.6889 -12.4747 1
      vertex 59.6713 -6.27171 0
      vertex 59.6713 -6.27171 1
    endloop
  endfacet
  facet normal 0.98769 -0.156426 0
    outer loop
      vertex 59.6713 -6.27171 0
      vertex 58.6889 -12.4747 1
      vertex 58.6889 -12.4747 0
    endloop
  endfacet
  facet normal 0.442188 -0.0700317 0.894184
    outer loop
      vertex 59.6713 -6.27171 1
      vertex 53.7981 -11.4351 3.5
      vertex 58.6889 -12.4747 1
    endloop
  endfacet
  facet normal 0.45399 -0.891007 0
    outer loop
      vertex 24.4042 -54.8127 0
      vertex 30 -51.9615 1
      vertex 24.4042 -54.8127 1
    endloop
  endfacet
  facet normal 0.45399 -0.891007 0
    outer loop
      vertex 30 -51.9615 1
      vertex 24.4042 -54.8127 0
      vertex 30 -51.9615 0
    endloop
  endfacet
  facet normal 0.933579 -0.358372 0
    outer loop
      vertex 54.8127 -24.4042 1
      vertex 57.0634 -18.541 0
      vertex 57.0634 -18.541 1
    endloop
  endfacet
  facet normal 0.933579 -0.358372 0
    outer loop
      vertex 57.0634 -18.541 0
      vertex 54.8127 -24.4042 1
      vertex 54.8127 -24.4042 0
    endloop
  endfacet
  facet normal 0.83867 -0.54464 0
    outer loop
      vertex 48.541 -35.2671 1
      vertex 51.9615 -30 0
      vertex 51.9615 -30 1
    endloop
  endfacet
  facet normal 0.83867 -0.54464 0
    outer loop
      vertex 51.9615 -30 0
      vertex 48.541 -35.2671 1
      vertex 48.541 -35.2671 0
    endloop
  endfacet
  facet normal -0.398909 -0.203254 0.894181
    outer loop
      vertex -50.245 -22.3705 3.5
      vertex -54.8127 -24.4042 1
      vertex -51.9615 -30 1
    endloop
  endfacet
  facet normal -0.347935 -0.281746 0.894182
    outer loop
      vertex -44.4959 -32.3282 3.5
      vertex -48.541 -35.2671 1
      vertex -40.873 -36.8022 3.5
    endloop
  endfacet
  facet normal 0.160441 -0.417967 0.894182
    outer loop
      vertex 22.3705 -50.245 3.5
      vertex 16.9959 -52.3081 3.5
      vertex 18.541 -57.0634 1
    endloop
  endfacet
  facet normal -0.023432 -0.447091 0.894182
    outer loop
      vertex 0 -55 3.5
      vertex -6.27171 -59.6713 1
      vertex 0 -60 1
    endloop
  endfacet
  facet normal -0.0523381 -0.998629 0
    outer loop
      vertex -6.27171 -59.6713 0
      vertex 0 -60 1
      vertex -6.27171 -59.6713 1
    endloop
  endfacet
  facet normal -0.0523381 -0.998629 -0
    outer loop
      vertex 0 -60 1
      vertex -6.27171 -59.6713 0
      vertex 0 -60 0
    endloop
  endfacet
  facet normal 0.0523381 -0.998629 0
    outer loop
      vertex 0 -60 0
      vertex 6.27171 -59.6713 1
      vertex 0 -60 1
    endloop
  endfacet
  facet normal 0.0523381 -0.998629 0
    outer loop
      vertex 6.27171 -59.6713 1
      vertex 0 -60 0
      vertex 6.27171 -59.6713 0
    endloop
  endfacet
  facet normal 0.0234314 -0.447091 0.894181
    outer loop
      vertex 5.74907 -54.6987 3.5
      vertex 0 -55 3.5
      vertex 6.27171 -59.6713 1
    endloop
  endfacet
  facet normal -0.707107 -0.707107 0
    outer loop
      vertex -40.1478 -44.5887 0
      vertex -44.5887 -40.1478 1
      vertex -44.5887 -40.1478 0
    endloop
  endfacet
  facet normal -0.707107 -0.707107 0
    outer loop
      vertex -44.5887 -40.1478 1
      vertex -40.1478 -44.5887 0
      vertex -40.1478 -44.5887 1
    endloop
  endfacet
  facet normal -0.281751 -0.347935 0.89418
    outer loop
      vertex -36.8022 -40.873 3.5
      vertex -40.1478 -44.5887 1
      vertex -35.2671 -48.541 1
    endloop
  endfacet
  facet normal -0.45399 -0.891007 0
    outer loop
      vertex -30 -51.9615 0
      vertex -24.4042 -54.8127 1
      vertex -30 -51.9615 1
    endloop
  endfacet
  facet normal -0.45399 -0.891007 -0
    outer loop
      vertex -24.4042 -54.8127 1
      vertex -30 -51.9615 0
      vertex -24.4042 -54.8127 0
    endloop
  endfacet
  facet normal -0.54464 -0.83867 0
    outer loop
      vertex -35.2671 -48.541 0
      vertex -30 -51.9615 1
      vertex -35.2671 -48.541 1
    endloop
  endfacet
  facet normal -0.54464 -0.83867 -0
    outer loop
      vertex -30 -51.9615 1
      vertex -35.2671 -48.541 0
      vertex -30 -51.9615 0
    endloop
  endfacet
  facet normal 0.777147 0.629319 0
    outer loop
      vertex 48.541 35.2671 1
      vertex 44.5887 40.1478 0
      vertex 44.5887 40.1478 1
    endloop
  endfacet
  facet normal 0.777147 0.629319 0
    outer loop
      vertex 44.5887 40.1478 0
      vertex 48.541 35.2671 1
      vertex 48.541 35.2671 0
    endloop
  endfacet
  facet normal 0.707107 0.707107 0
    outer loop
      vertex 44.5887 40.1478 1
      vertex 40.1478 44.5887 0
      vertex 40.1478 44.5887 1
    endloop
  endfacet
  facet normal 0.707107 0.707107 0
    outer loop
      vertex 40.1478 44.5887 0
      vertex 44.5887 40.1478 1
      vertex 44.5887 40.1478 0
    endloop
  endfacet
  facet normal 0.24384 0.375477 0.894181
    outer loop
      vertex 30 51.9615 1
      vertex 27.5 47.6314 3.5
      vertex 32.3282 44.4959 3.5
    endloop
  endfacet
  facet normal 0.156426 0.98769 -0
    outer loop
      vertex 12.4747 58.6889 0
      vertex 6.27171 59.6713 1
      vertex 12.4747 58.6889 1
    endloop
  endfacet
  facet normal 0.156426 0.98769 0
    outer loop
      vertex 6.27171 59.6713 1
      vertex 12.4747 58.6889 0
      vertex 6.27171 59.6713 0
    endloop
  endfacet
  facet normal 0.258825 0.965924 -0
    outer loop
      vertex 18.541 57.0634 0
      vertex 12.4747 58.6889 1
      vertex 18.541 57.0634 1
    endloop
  endfacet
  facet normal 0.258825 0.965924 0
    outer loop
      vertex 12.4747 58.6889 1
      vertex 18.541 57.0634 0
      vertex 12.4747 58.6889 0
    endloop
  endfacet
  facet normal 0.115873 0.432448 0.894182
    outer loop
      vertex 18.541 57.0634 1
      vertex 11.4351 53.7981 3.5
      vertex 16.9959 52.3081 3.5
    endloop
  endfacet
  facet normal -0.243838 0.375476 0.894182
    outer loop
      vertex -30 51.9615 1
      vertex -35.2671 48.541 1
      vertex -32.3282 44.4959 3.5
    endloop
  endfacet
  facet normal -0.432448 0.115873 0.894182
    outer loop
      vertex -52.3081 16.9959 3.5
      vertex -57.0634 18.541 1
      vertex -53.7981 11.4351 3.5
    endloop
  endfacet
  facet normal -0.891007 0.45399 0
    outer loop
      vertex -54.8127 24.4042 0
      vertex -51.9615 30 1
      vertex -51.9615 30 0
    endloop
  endfacet
  facet normal -0.891007 0.45399 0
    outer loop
      vertex -51.9615 30 1
      vertex -54.8127 24.4042 0
      vertex -54.8127 24.4042 1
    endloop
  endfacet
  facet normal -0.347935 0.281746 0.894182
    outer loop
      vertex -40.873 36.8022 3.5
      vertex -48.541 35.2671 1
      vertex -44.4959 32.3282 3.5
    endloop
  endfacet
  facet normal -0.777147 0.629319 0
    outer loop
      vertex -48.541 35.2671 0
      vertex -44.5887 40.1478 1
      vertex -44.5887 40.1478 0
    endloop
  endfacet
  facet normal -0.777147 0.629319 0
    outer loop
      vertex -44.5887 40.1478 1
      vertex -48.541 35.2671 0
      vertex -48.541 35.2671 1
    endloop
  endfacet
  facet normal -0.707107 0.707107 0
    outer loop
      vertex -44.5887 40.1478 0
      vertex -40.1478 44.5887 1
      vertex -40.1478 44.5887 0
    endloop
  endfacet
  facet normal -0.707107 0.707107 0
    outer loop
      vertex -40.1478 44.5887 1
      vertex -44.5887 40.1478 0
      vertex -44.5887 40.1478 1
    endloop
  endfacet
  facet normal -0.281751 0.347935 0.89418
    outer loop
      vertex -35.2671 48.541 1
      vertex -40.1478 44.5887 1
      vertex -36.8022 40.873 3.5
    endloop
  endfacet
  facet normal -0.442188 -0.0700317 0.894184
    outer loop
      vertex -53.7981 -11.4351 3.5
      vertex -59.6713 -6.27171 1
      vertex -58.6889 -12.4747 1
    endloop
  endfacet
  facet normal -0.432448 -0.115873 0.894182
    outer loop
      vertex -53.7981 -11.4351 3.5
      vertex -57.0634 -18.541 1
      vertex -52.3081 -16.9959 3.5
    endloop
  endfacet
  facet normal -0.447091 -0.023432 0.894182
    outer loop
      vertex -55 0 3.5
      vertex -60 0 1
      vertex -59.6713 -6.27171 1
    endloop
  endfacet
  facet normal -0.398909 -0.203254 0.894181
    outer loop
      vertex -50.245 -22.3705 3.5
      vertex -51.9615 -30 1
      vertex -47.6314 -27.5 3.5
    endloop
  endfacet
  facet normal -0.83867 -0.54464 0
    outer loop
      vertex -48.541 -35.2671 0
      vertex -51.9615 -30 1
      vertex -51.9615 -30 0
    endloop
  endfacet
  facet normal -0.83867 -0.54464 0
    outer loop
      vertex -51.9615 -30 1
      vertex -48.541 -35.2671 0
      vertex -48.541 -35.2671 1
    endloop
  endfacet
  facet normal 0.115873 -0.432448 0.894182
    outer loop
      vertex 16.9959 -52.3081 3.5
      vertex 11.4351 -53.7981 3.5
      vertex 18.541 -57.0634 1
    endloop
  endfacet
  facet normal 0.258825 -0.965924 0
    outer loop
      vertex 12.4747 -58.6889 0
      vertex 18.541 -57.0634 1
      vertex 12.4747 -58.6889 1
    endloop
  endfacet
  facet normal 0.258825 -0.965924 0
    outer loop
      vertex 18.541 -57.0634 1
      vertex 12.4747 -58.6889 0
      vertex 18.541 -57.0634 0
    endloop
  endfacet
  facet normal 0.203254 -0.398909 0.894181
    outer loop
      vertex 30 -51.9615 1
      vertex 22.3705 -50.245 3.5
      vertex 24.4042 -54.8127 1
    endloop
  endfacet
  facet normal 0.203254 -0.398909 0.894181
    outer loop
      vertex 27.5 -47.6314 3.5
      vertex 22.3705 -50.245 3.5
      vertex 30 -51.9615 1
    endloop
  endfacet
  facet normal -0.281746 -0.347935 0.894182
    outer loop
      vertex -32.3282 -44.4959 3.5
      vertex -36.8022 -40.873 3.5
      vertex -35.2671 -48.541 1
    endloop
  endfacet
  facet normal -0.203254 -0.398909 0.894181
    outer loop
      vertex -22.3705 -50.245 3.5
      vertex -30 -51.9615 1
      vertex -24.4042 -54.8127 1
    endloop
  endfacet
  facet normal -0.203254 -0.398909 0.894181
    outer loop
      vertex -27.5 -47.6314 3.5
      vertex -30 -51.9615 1
      vertex -22.3705 -50.245 3.5
    endloop
  endfacet
  facet normal 0.629319 0.777147 -0
    outer loop
      vertex 40.1478 44.5887 0
      vertex 35.2671 48.541 1
      vertex 40.1478 44.5887 1
    endloop
  endfacet
  facet normal 0.629319 0.777147 0
    outer loop
      vertex 35.2671 48.541 1
      vertex 40.1478 44.5887 0
      vertex 35.2671 48.541 0
    endloop
  endfacet
  facet normal 0.0700317 0.442188 0.894184
    outer loop
      vertex 12.4747 58.6889 1
      vertex 6.27171 59.6713 1
      vertex 11.4351 53.7981 3.5
    endloop
  endfacet
  facet normal 0.115876 0.432444 0.894184
    outer loop
      vertex 12.4747 58.6889 1
      vertex 11.4351 53.7981 3.5
      vertex 18.541 57.0634 1
    endloop
  endfacet
  facet normal 0.0523381 0.998629 -0
    outer loop
      vertex 6.27171 59.6713 0
      vertex 0 60 1
      vertex 6.27171 59.6713 1
    endloop
  endfacet
  facet normal 0.0523381 0.998629 0
    outer loop
      vertex 0 60 1
      vertex 6.27171 59.6713 0
      vertex 0 60 0
    endloop
  endfacet
  facet normal -0.0234314 0.447091 0.894181
    outer loop
      vertex 0 55 3.5
      vertex -6.27171 59.6713 1
      vertex -5.74907 54.6987 3.5
    endloop
  endfacet
  facet normal 0.0700381 0.442193 0.894181
    outer loop
      vertex 6.27171 59.6713 1
      vertex 5.74907 54.6987 3.5
      vertex 11.4351 53.7981 3.5
    endloop
  endfacet
  facet normal 0.0234314 0.447091 0.894181
    outer loop
      vertex 6.27171 59.6713 1
      vertex 0 55 3.5
      vertex 5.74907 54.6987 3.5
    endloop
  endfacet
  facet normal -0.160445 0.417969 0.894181
    outer loop
      vertex -18.541 57.0634 1
      vertex -24.4042 54.8127 1
      vertex -22.3705 50.245 3.5
    endloop
  endfacet
  facet normal -0.933579 0.358372 0
    outer loop
      vertex -57.0634 18.541 0
      vertex -54.8127 24.4042 1
      vertex -54.8127 24.4042 0
    endloop
  endfacet
  facet normal -0.933579 0.358372 0
    outer loop
      vertex -54.8127 24.4042 1
      vertex -57.0634 18.541 0
      vertex -57.0634 18.541 1
    endloop
  endfacet
  facet normal -0.347935 0.281751 0.89418
    outer loop
      vertex -44.5887 40.1478 1
      vertex -48.541 35.2671 1
      vertex -40.873 36.8022 3.5
    endloop
  endfacet
  facet normal -0.447091 -0.0234314 0.894181
    outer loop
      vertex -55 0 3.5
      vertex -59.6713 -6.27171 1
      vertex -54.6987 -5.74907 3.5
    endloop
  endfacet
  facet normal -0.417967 0.160441 0.894182
    outer loop
      vertex -50.245 22.3705 3.5
      vertex -57.0634 18.541 1
      vertex -52.3081 16.9959 3.5
    endloop
  endfacet
  facet normal -0.417969 0.160445 0.894181
    outer loop
      vertex -54.8127 24.4042 1
      vertex -57.0634 18.541 1
      vertex -50.245 22.3705 3.5
    endloop
  endfacet
  facet normal -0.447091 0.0234314 0.894181
    outer loop
      vertex -54.6987 5.74907 3.5
      vertex -59.6713 6.27171 1
      vertex -55 0 3.5
    endloop
  endfacet
  facet normal 0 0 1
    outer loop
      vertex 50 0 3.5
      vertex 55 0 3.5
      vertex 54.6987 5.74907 3.5
    endloop
  endfacet
  facet normal 0 0 1
    outer loop
      vertex 49.7261 5.22642 3.5
      vertex 54.6987 5.74907 3.5
      vertex 53.7981 11.4351 3.5
    endloop
  endfacet
  facet normal 0 0 1
    outer loop
      vertex 55 0 3.5
      vertex 50 0 3.5
      vertex 54.6987 -5.74907 3.5
    endloop
  endfacet
  facet normal 0 0 1
    outer loop
      vertex 48.9074 10.3956 3.5
      vertex 53.7981 11.4351 3.5
      vertex 52.3081 16.9959 3.5
    endloop
  endfacet
  facet normal -0 0 1
    outer loop
      vertex 49.7261 -5.22642 3.5
      vertex 54.6987 -5.74907 3.5
      vertex 50 0 3.5
    endloop
  endfacet
  facet normal 0 0 1
    outer loop
      vertex 47.5528 15.4508 3.5
      vertex 52.3081 16.9959 3.5
      vertex 50.245 22.3705 3.5
    endloop
  endfacet
  facet normal 0 0 1
    outer loop
      vertex 54.6987 -5.74907 3.5
      vertex 49.7261 -5.22642 3.5
      vertex 53.7981 -11.4351 3.5
    endloop
  endfacet
  facet normal -0 0 1
    outer loop
      vertex 48.9074 -10.3956 3.5
      vertex 53.7981 -11.4351 3.5
      vertex 49.7261 -5.22642 3.5
    endloop
  endfacet
  facet normal 0 0 1
    outer loop
      vertex 54.6987 5.74907 3.5
      vertex 49.7261 5.22642 3.5
      vertex 50 0 3.5
    endloop
  endfacet
  facet normal 0 0 1
    outer loop
      vertex 53.7981 11.4351 3.5
      vertex 48.9074 10.3956 3.5
      vertex 49.7261 5.22642 3.5
    endloop
  endfacet
  facet normal 0 0 1
    outer loop
      vertex 45.6773 20.3368 3.5
      vertex 50.245 22.3705 3.5
      vertex 47.6314 27.5 3.5
    endloop
  endfacet
  facet normal 0 0 1
    outer loop
      vertex 52.3081 16.9959 3.5
      vertex 47.5528 15.4508 3.5
      vertex 48.9074 10.3956 3.5
    endloop
  endfacet
  facet normal 0 0 1
    outer loop
      vertex 50.245 22.3705 3.5
      vertex 45.6773 20.3368 3.5
      vertex 47.5528 15.4508 3.5
    endloop
  endfacet
  facet normal 0 0 1
    outer loop
      vertex 43.3013 25 3.5
      vertex 47.6314 27.5 3.5
      vertex 44.4959 32.3282 3.5
    endloop
  endfacet
  facet normal 0 0 1
    outer loop
      vertex 47.6314 27.5 3.5
      vertex 43.3013 25 3.5
      vertex 45.6773 20.3368 3.5
    endloop
  endfacet
  facet normal 0 0 1
    outer loop
      vertex 40.4509 29.3893 3.5
      vertex 44.4959 32.3282 3.5
      vertex 40.873 36.8022 3.5
    endloop
  endfacet
  facet normal 0 0 1
    outer loop
      vertex 44.4959 32.3282 3.5
      vertex 40.4509 29.3893 3.5
      vertex 43.3013 25 3.5
    endloop
  endfacet
  facet normal 0 0 1
    outer loop
      vertex 40.873 36.8022 3.5
      vertex 37.1572 33.4565 3.5
      vertex 40.4509 29.3893 3.5
    endloop
  endfacet
  facet normal 0 0 1
    outer loop
      vertex 36.8022 40.873 3.5
      vertex 37.1572 33.4565 3.5
      vertex 40.873 36.8022 3.5
    endloop
  endfacet
  facet normal 0 0 1
    outer loop
      vertex 36.8022 40.873 3.5
      vertex 33.4565 37.1572 3.5
      vertex 37.1572 33.4565 3.5
    endloop
  endfacet
  facet normal 0 0 1
    outer loop
      vertex 32.3282 44.4959 3.5
      vertex 33.4565 37.1572 3.5
      vertex 36.8022 40.873 3.5
    endloop
  endfacet
  facet normal 0 0 1
    outer loop
      vertex 32.3282 44.4959 3.5
      vertex 29.3893 40.4509 3.5
      vertex 33.4565 37.1572 3.5
    endloop
  endfacet
  facet normal 0 0 1
    outer loop
      vertex 27.5 47.6314 3.5
      vertex 29.3893 40.4509 3.5
      vertex 32.3282 44.4959 3.5
    endloop
  endfacet
  facet normal 0 0 1
    outer loop
      vertex 27.5 47.6314 3.5
      vertex 25 43.3013 3.5
      vertex 29.3893 40.4509 3.5
    endloop
  endfacet
  facet normal 0 0 1
    outer loop
      vertex 22.3705 50.245 3.5
      vertex 25 43.3013 3.5
      vertex 27.5 47.6314 3.5
    endloop
  endfacet
  facet normal 0 0 1
    outer loop
      vertex 22.3705 50.245 3.5
      vertex 20.3368 45.6773 3.5
      vertex 25 43.3013 3.5
    endloop
  endfacet
  facet normal 0 0 1
    outer loop
      vertex 16.9959 52.3081 3.5
      vertex 20.3368 45.6773 3.5
      vertex 22.3705 50.245 3.5
    endloop
  endfacet
  facet normal 0 0 1
    outer loop
      vertex 16.9959 52.3081 3.5
      vertex 15.4508 47.5528 3.5
      vertex 20.3368 45.6773 3.5
    endloop
  endfacet
  facet normal 0 0 1
    outer loop
      vertex 11.4351 53.7981 3.5
      vertex 15.4508 47.5528 3.5
      vertex 16.9959 52.3081 3.5
    endloop
  endfacet
  facet normal 0 0 1
    outer loop
      vertex 11.4351 53.7981 3.5
      vertex 10.3956 48.9074 3.5
      vertex 15.4508 47.5528 3.5
    endloop
  endfacet
  facet normal 0 0 1
    outer loop
      vertex 5.74907 54.6987 3.5
      vertex 10.3956 48.9074 3.5
      vertex 11.4351 53.7981 3.5
    endloop
  endfacet
  facet normal 0 0 1
    outer loop
      vertex 5.74907 54.6987 3.5
      vertex 5.22642 49.7261 3.5
      vertex 10.3956 48.9074 3.5
    endloop
  endfacet
  facet normal 0 0 1
    outer loop
      vertex 0 55 3.5
      vertex 5.22642 49.7261 3.5
      vertex 5.74907 54.6987 3.5
    endloop
  endfacet
  facet normal 0 0 1
    outer loop
      vertex 0 55 3.5
      vertex 0 50 3.5
      vertex 5.22642 49.7261 3.5
    endloop
  endfacet
  facet normal 0 0 1
    outer loop
      vertex 0 55 3.5
      vertex -5.22642 49.7261 3.5
      vertex 0 50 3.5
    endloop
  endfacet
  facet normal -0 0 1
    outer loop
      vertex -5.74907 54.6987 3.5
      vertex -5.22642 49.7261 3.5
      vertex 0 55 3.5
    endloop
  endfacet
  facet normal 0 0 1
    outer loop
      vertex -5.74907 54.6987 3.5
      vertex -10.3956 48.9074 3.5
      vertex -5.22642 49.7261 3.5
    endloop
  endfacet
  facet normal -0 0 1
    outer loop
      vertex -11.4351 53.7981 3.5
      vertex -10.3956 48.9074 3.5
      vertex -5.74907 54.6987 3.5
    endloop
  endfacet
  facet normal 0 0 1
    outer loop
      vertex -11.4351 53.7981 3.5
      vertex -15.4508 47.5528 3.5
      vertex -10.3956 48.9074 3.5
    endloop
  endfacet
  facet normal -0 0 1
    outer loop
      vertex -16.9959 52.3081 3.5
      vertex -15.4508 47.5528 3.5
      vertex -11.4351 53.7981 3.5
    endloop
  endfacet
  facet normal 0 0 1
    outer loop
      vertex -16.9959 52.3081 3.5
      vertex -20.3368 45.6773 3.5
      vertex -15.4508 47.5528 3.5
    endloop
  endfacet
  facet normal -0 0 1
    outer loop
      vertex -22.3705 50.245 3.5
      vertex -20.3368 45.6773 3.5
      vertex -16.9959 52.3081 3.5
    endloop
  endfacet
  facet normal 0 0 1
    outer loop
      vertex -22.3705 50.245 3.5
      vertex -25 43.3013 3.5
      vertex -20.3368 45.6773 3.5
    endloop
  endfacet
  facet normal -0 0 1
    outer loop
      vertex -27.5 47.6314 3.5
      vertex -25 43.3013 3.5
      vertex -22.3705 50.245 3.5
    endloop
  endfacet
  facet normal 0 0 1
    outer loop
      vertex -27.5 47.6314 3.5
      vertex -29.3893 40.4509 3.5
      vertex -25 43.3013 3.5
    endloop
  endfacet
  facet normal -0 0 1
    outer loop
      vertex -32.3282 44.4959 3.5
      vertex -29.3893 40.4509 3.5
      vertex -27.5 47.6314 3.5
    endloop
  endfacet
  facet normal 0 0 1
    outer loop
      vertex -32.3282 44.4959 3.5
      vertex -33.4565 37.1572 3.5
      vertex -29.3893 40.4509 3.5
    endloop
  endfacet
  facet normal -0 0 1
    outer loop
      vertex -36.8022 40.873 3.5
      vertex -33.4565 37.1572 3.5
      vertex -32.3282 44.4959 3.5
    endloop
  endfacet
  facet normal 0 0 1
    outer loop
      vertex -36.8022 40.873 3.5
      vertex -37.1572 33.4565 3.5
      vertex -33.4565 37.1572 3.5
    endloop
  endfacet
  facet normal -0 0 1
    outer loop
      vertex -40.873 36.8022 3.5
      vertex -37.1572 33.4565 3.5
      vertex -36.8022 40.873 3.5
    endloop
  endfacet
  facet normal 0 0 1
    outer loop
      vertex -37.1572 33.4565 3.5
      vertex -40.873 36.8022 3.5
      vertex -40.4509 29.3893 3.5
    endloop
  endfacet
  facet normal -0 0 1
    outer loop
      vertex -44.4959 32.3282 3.5
      vertex -40.4509 29.3893 3.5
      vertex -40.873 36.8022 3.5
    endloop
  endfacet
  facet normal 0 0 1
    outer loop
      vertex -40.4509 29.3893 3.5
      vertex -44.4959 32.3282 3.5
      vertex -43.3013 25 3.5
    endloop
  endfacet
  facet normal -0 0 1
    outer loop
      vertex -47.6314 27.5 3.5
      vertex -43.3013 25 3.5
      vertex -44.4959 32.3282 3.5
    endloop
  endfacet
  facet normal 0 0 1
    outer loop
      vertex -43.3013 25 3.5
      vertex -47.6314 27.5 3.5
      vertex -45.6773 20.3368 3.5
    endloop
  endfacet
  facet normal -0 0 1
    outer loop
      vertex -50.245 22.3705 3.5
      vertex -45.6773 20.3368 3.5
      vertex -47.6314 27.5 3.5
    endloop
  endfacet
  facet normal 0 0 1
    outer loop
      vertex -45.6773 20.3368 3.5
      vertex -50.245 22.3705 3.5
      vertex -47.5528 15.4508 3.5
    endloop
  endfacet
  facet normal -0 0 1
    outer loop
      vertex -52.3081 16.9959 3.5
      vertex -47.5528 15.4508 3.5
      vertex -50.245 22.3705 3.5
    endloop
  endfacet
  facet normal -0 0 1
    outer loop
      vertex -53.7981 11.4351 3.5
      vertex -48.9074 10.3956 3.5
      vertex -52.3081 16.9959 3.5
    endloop
  endfacet
  facet normal 0 0 1
    outer loop
      vertex -47.5528 15.4508 3.5
      vertex -52.3081 16.9959 3.5
      vertex -48.9074 10.3956 3.5
    endloop
  endfacet
  facet normal 0 0 1
    outer loop
      vertex 53.7981 -11.4351 3.5
      vertex 48.9074 -10.3956 3.5
      vertex 52.3081 -16.9959 3.5
    endloop
  endfacet
  facet normal -0 0 1
    outer loop
      vertex 47.5528 -15.4508 3.5
      vertex 52.3081 -16.9959 3.5
      vertex 48.9074 -10.3956 3.5
    endloop
  endfacet
  facet normal 0 0 1
    outer loop
      vertex 52.3081 -16.9959 3.5
      vertex 47.5528 -15.4508 3.5
      vertex 50.245 -22.3705 3.5
    endloop
  endfacet
  facet normal -0 0 1
    outer loop
      vertex 45.6773 -20.3368 3.5
      vertex 50.245 -22.3705 3.5
      vertex 47.5528 -15.4508 3.5
    endloop
  endfacet
  facet normal 0 0 1
    outer loop
      vertex 50.245 -22.3705 3.5
      vertex 45.6773 -20.3368 3.5
      vertex 47.6314 -27.5 3.5
    endloop
  endfacet
  facet normal -0 0 1
    outer loop
      vertex 43.3013 -25 3.5
      vertex 47.6314 -27.5 3.5
      vertex 45.6773 -20.3368 3.5
    endloop
  endfacet
  facet normal 0 0 1
    outer loop
      vertex 47.6314 -27.5 3.5
      vertex 43.3013 -25 3.5
      vertex 44.4959 -32.3282 3.5
    endloop
  endfacet
  facet normal -0 0 1
    outer loop
      vertex 40.4509 -29.3893 3.5
      vertex 44.4959 -32.3282 3.5
      vertex 43.3013 -25 3.5
    endloop
  endfacet
  facet normal 0 0 1
    outer loop
      vertex 44.4959 -32.3282 3.5
      vertex 40.4509 -29.3893 3.5
      vertex 40.873 -36.8022 3.5
    endloop
  endfacet
  facet normal -0 0 1
    outer loop
      vertex 37.1572 -33.4565 3.5
      vertex 40.873 -36.8022 3.5
      vertex 40.4509 -29.3893 3.5
    endloop
  endfacet
  facet normal 0 0 1
    outer loop
      vertex 37.1572 -33.4565 3.5
      vertex 36.8022 -40.873 3.5
      vertex 40.873 -36.8022 3.5
    endloop
  endfacet
  facet normal -0 0 1
    outer loop
      vertex 33.4565 -37.1572 3.5
      vertex 36.8022 -40.873 3.5
      vertex 37.1572 -33.4565 3.5
    endloop
  endfacet
  facet normal 0 0 1
    outer loop
      vertex 33.4565 -37.1572 3.5
      vertex 32.3282 -44.4959 3.5
      vertex 36.8022 -40.873 3.5
    endloop
  endfacet
  facet normal -0 0 1
    outer loop
      vertex 29.3893 -40.4509 3.5
      vertex 32.3282 -44.4959 3.5
      vertex 33.4565 -37.1572 3.5
    endloop
  endfacet
  facet normal 0 0 1
    outer loop
      vertex 29.3893 -40.4509 3.5
      vertex 27.5 -47.6314 3.5
      vertex 32.3282 -44.4959 3.5
    endloop
  endfacet
  facet normal -0 0 1
    outer loop
      vertex 25 -43.3013 3.5
      vertex 27.5 -47.6314 3.5
      vertex 29.3893 -40.4509 3.5
    endloop
  endfacet
  facet normal 0 0 1
    outer loop
      vertex 25 -43.3013 3.5
      vertex 22.3705 -50.245 3.5
      vertex 27.5 -47.6314 3.5
    endloop
  endfacet
  facet normal -0 0 1
    outer loop
      vertex 20.3368 -45.6773 3.5
      vertex 22.3705 -50.245 3.5
      vertex 25 -43.3013 3.5
    endloop
  endfacet
  facet normal 0 0 1
    outer loop
      vertex 20.3368 -45.6773 3.5
      vertex 16.9959 -52.3081 3.5
      vertex 22.3705 -50.245 3.5
    endloop
  endfacet
  facet normal -0 0 1
    outer loop
      vertex 15.4508 -47.5528 3.5
      vertex 16.9959 -52.3081 3.5
      vertex 20.3368 -45.6773 3.5
    endloop
  endfacet
  facet normal 0 0 1
    outer loop
      vertex 15.4508 -47.5528 3.5
      vertex 11.4351 -53.7981 3.5
      vertex 16.9959 -52.3081 3.5
    endloop
  endfacet
  facet normal -0 0 1
    outer loop
      vertex 10.3956 -48.9074 3.5
      vertex 11.4351 -53.7981 3.5
      vertex 15.4508 -47.5528 3.5
    endloop
  endfacet
  facet normal 0 0 1
    outer loop
      vertex 10.3956 -48.9074 3.5
      vertex 5.74907 -54.6987 3.5
      vertex 11.4351 -53.7981 3.5
    endloop
  endfacet
  facet normal -0 0 1
    outer loop
      vertex 5.22642 -49.7261 3.5
      vertex 5.74907 -54.6987 3.5
      vertex 10.3956 -48.9074 3.5
    endloop
  endfacet
  facet normal -0 0 1
    outer loop
      vertex 0 -50 3.5
      vertex 5.74907 -54.6987 3.5
      vertex 5.22642 -49.7261 3.5
    endloop
  endfacet
  facet normal 0 0 1
    outer loop
      vertex 0 -50 3.5
      vertex 0 -55 3.5
      vertex 5.74907 -54.6987 3.5
    endloop
  endfacet
  facet normal 0 0 1
    outer loop
      vertex -5.22642 -49.7261 3.5
      vertex 0 -55 3.5
      vertex 0 -50 3.5
    endloop
  endfacet
  facet normal 0 0 1
    outer loop
      vertex -5.22642 -49.7261 3.5
      vertex -5.74907 -54.6987 3.5
      vertex 0 -55 3.5
    endloop
  endfacet
  facet normal 0 0 1
    outer loop
      vertex -10.3956 -48.9074 3.5
      vertex -5.74907 -54.6987 3.5
      vertex -5.22642 -49.7261 3.5
    endloop
  endfacet
  facet normal 0 0 1
    outer loop
      vertex -10.3956 -48.9074 3.5
      vertex -11.4351 -53.7981 3.5
      vertex -5.74907 -54.6987 3.5
    endloop
  endfacet
  facet normal 0 0 1
    outer loop
      vertex -15.4508 -47.5528 3.5
      vertex -11.4351 -53.7981 3.5
      vertex -10.3956 -48.9074 3.5
    endloop
  endfacet
  facet normal 0 0 1
    outer loop
      vertex -15.4508 -47.5528 3.5
      vertex -16.9959 -52.3081 3.5
      vertex -11.4351 -53.7981 3.5
    endloop
  endfacet
  facet normal 0 0 1
    outer loop
      vertex -20.3368 -45.6773 3.5
      vertex -16.9959 -52.3081 3.5
      vertex -15.4508 -47.5528 3.5
    endloop
  endfacet
  facet normal 0 0 1
    outer loop
      vertex -20.3368 -45.6773 3.5
      vertex -22.3705 -50.245 3.5
      vertex -16.9959 -52.3081 3.5
    endloop
  endfacet
  facet normal 0 0 1
    outer loop
      vertex -25 -43.3013 3.5
      vertex -22.3705 -50.245 3.5
      vertex -20.3368 -45.6773 3.5
    endloop
  endfacet
  facet normal 0 0 1
    outer loop
      vertex -25 -43.3013 3.5
      vertex -27.5 -47.6314 3.5
      vertex -22.3705 -50.245 3.5
    endloop
  endfacet
  facet normal 0 0 1
    outer loop
      vertex -29.3893 -40.4509 3.5
      vertex -27.5 -47.6314 3.5
      vertex -25 -43.3013 3.5
    endloop
  endfacet
  facet normal 0 0 1
    outer loop
      vertex -29.3893 -40.4509 3.5
      vertex -32.3282 -44.4959 3.5
      vertex -27.5 -47.6314 3.5
    endloop
  endfacet
  facet normal 0 0 1
    outer loop
      vertex -33.4565 -37.1572 3.5
      vertex -32.3282 -44.4959 3.5
      vertex -29.3893 -40.4509 3.5
    endloop
  endfacet
  facet normal 0 0 1
    outer loop
      vertex -33.4565 -37.1572 3.5
      vertex -36.8022 -40.873 3.5
      vertex -32.3282 -44.4959 3.5
    endloop
  endfacet
  facet normal 0 0 1
    outer loop
      vertex -37.1572 -33.4565 3.5
      vertex -36.8022 -40.873 3.5
      vertex -33.4565 -37.1572 3.5
    endloop
  endfacet
  facet normal 0 0 1
    outer loop
      vertex -40.873 -36.8022 3.5
      vertex -37.1572 -33.4565 3.5
      vertex -40.4509 -29.3893 3.5
    endloop
  endfacet
  facet normal 0 0 1
    outer loop
      vertex -37.1572 -33.4565 3.5
      vertex -40.873 -36.8022 3.5
      vertex -36.8022 -40.873 3.5
    endloop
  endfacet
  facet normal 0 0 1
    outer loop
      vertex -44.4959 -32.3282 3.5
      vertex -40.4509 -29.3893 3.5
      vertex -43.3013 -25 3.5
    endloop
  endfacet
  facet normal 0 0 1
    outer loop
      vertex -40.4509 -29.3893 3.5
      vertex -44.4959 -32.3282 3.5
      vertex -40.873 -36.8022 3.5
    endloop
  endfacet
  facet normal 0 0 1
    outer loop
      vertex -47.6314 -27.5 3.5
      vertex -43.3013 -25 3.5
      vertex -45.6773 -20.3368 3.5
    endloop
  endfacet
  facet normal 0 0 1
    outer loop
      vertex -50.245 -22.3705 3.5
      vertex -45.6773 -20.3368 3.5
      vertex -47.5528 -15.4508 3.5
    endloop
  endfacet
  facet normal 0 0 1
    outer loop
      vertex -43.3013 -25 3.5
      vertex -47.6314 -27.5 3.5
      vertex -44.4959 -32.3282 3.5
    endloop
  endfacet
  facet normal 0 0 1
    outer loop
      vertex -52.3081 -16.9959 3.5
      vertex -47.5528 -15.4508 3.5
      vertex -48.9074 -10.3956 3.5
    endloop
  endfacet
  facet normal 0 0 1
    outer loop
      vertex -53.7981 -11.4351 3.5
      vertex -48.9074 -10.3956 3.5
      vertex -49.7261 -5.22642 3.5
    endloop
  endfacet
  facet normal 0 0 1
    outer loop
      vertex -45.6773 -20.3368 3.5
      vertex -50.245 -22.3705 3.5
      vertex -47.6314 -27.5 3.5
    endloop
  endfacet
  facet normal 0 0 1
    outer loop
      vertex -54.6987 -5.74907 3.5
      vertex -49.7261 -5.22642 3.5
      vertex -50 0 3.5
    endloop
  endfacet
  facet normal 0 0 1
    outer loop
      vertex -48.9074 10.3956 3.5
      vertex -53.7981 11.4351 3.5
      vertex -49.7261 5.22642 3.5
    endloop
  endfacet
  facet normal -0 0 1
    outer loop
      vertex -54.6987 5.74907 3.5
      vertex -49.7261 5.22642 3.5
      vertex -53.7981 11.4351 3.5
    endloop
  endfacet
  facet normal 0 0 1
    outer loop
      vertex -47.5528 -15.4508 3.5
      vertex -52.3081 -16.9959 3.5
      vertex -50.245 -22.3705 3.5
    endloop
  endfacet
  facet normal 0 0 1
    outer loop
      vertex -49.7261 5.22642 3.5
      vertex -54.6987 5.74907 3.5
      vertex -50 0 3.5
    endloop
  endfacet
  facet normal 0 0 1
    outer loop
      vertex -48.9074 -10.3956 3.5
      vertex -53.7981 -11.4351 3.5
      vertex -52.3081 -16.9959 3.5
    endloop
  endfacet
  facet normal 0 0 1
    outer loop
      vertex -55 0 3.5
      vertex -50 0 3.5
      vertex -54.6987 5.74907 3.5
    endloop
  endfacet
  facet normal 0 0 1
    outer loop
      vertex -49.7261 -5.22642 3.5
      vertex -54.6987 -5.74907 3.5
      vertex -53.7981 -11.4351 3.5
    endloop
  endfacet
  facet normal 0 0 1
    outer loop
      vertex -50 0 3.5
      vertex -55 0 3.5
      vertex -54.6987 -5.74907 3.5
    endloop
  endfacet
  facet normal -0.998629 0.0523381 0
    outer loop
      vertex -60 0 0
      vertex -59.6713 6.27171 1
      vertex -59.6713 6.27171 0
    endloop
  endfacet
  facet normal -0.998629 0.0523381 0
    outer loop
      vertex -59.6713 6.27171 1
      vertex -60 0 0
      vertex -60 0 1
    endloop
  endfacet
  facet normal -0.442188 0.0700317 0.894184
    outer loop
      vertex -58.6889 12.4747 1
      vertex -59.6713 6.27171 1
      vertex -53.7981 11.4351 3.5
    endloop
  endfacet
  facet normal -0.965924 -0.258825 0
    outer loop
      vertex -57.0634 -18.541 0
      vertex -58.6889 -12.4747 1
      vertex -58.6889 -12.4747 0
    endloop
  endfacet
  facet normal -0.965924 -0.258825 0
    outer loop
      vertex -58.6889 -12.4747 1
      vertex -57.0634 -18.541 0
      vertex -57.0634 -18.541 1
    endloop
  endfacet
  facet normal -0.891007 -0.45399 0
    outer loop
      vertex -51.9615 -30 0
      vertex -54.8127 -24.4042 1
      vertex -54.8127 -24.4042 0
    endloop
  endfacet
  facet normal -0.891007 -0.45399 0
    outer loop
      vertex -54.8127 -24.4042 1
      vertex -51.9615 -30 0
      vertex -51.9615 -30 1
    endloop
  endfacet
  facet normal 0.115876 -0.432444 0.894184
    outer loop
      vertex 18.541 -57.0634 1
      vertex 11.4351 -53.7981 3.5
      vertex 12.4747 -58.6889 1
    endloop
  endfacet
  facet normal 0.0700317 -0.442188 0.894184
    outer loop
      vertex 11.4351 -53.7981 3.5
      vertex 6.27171 -59.6713 1
      vertex 12.4747 -58.6889 1
    endloop
  endfacet
  facet normal -0.0700317 0.442188 0.894184
    outer loop
      vertex -6.27171 59.6713 1
      vertex -12.4747 58.6889 1
      vertex -11.4351 53.7981 3.5
    endloop
  endfacet
  facet normal -0.115873 0.432448 0.894182
    outer loop
      vertex -11.4351 53.7981 3.5
      vertex -18.541 57.0634 1
      vertex -16.9959 52.3081 3.5
    endloop
  endfacet
  facet normal -0.115876 0.432444 0.894184
    outer loop
      vertex -12.4747 58.6889 1
      vertex -18.541 57.0634 1
      vertex -11.4351 53.7981 3.5
    endloop
  endfacet
  facet normal -0.203254 0.398909 0.894181
    outer loop
      vertex -24.4042 54.8127 1
      vertex -30 51.9615 1
      vertex -22.3705 50.245 3.5
    endloop
  endfacet
  facet normal -0.203254 0.398909 0.894181
    outer loop
      vertex -22.3705 50.245 3.5
      vertex -30 51.9615 1
      vertex -27.5 47.6314 3.5
    endloop
  endfacet
  facet normal -0.24384 0.375477 0.894181
    outer loop
      vertex -30 51.9615 1
      vertex -32.3282 44.4959 3.5
      vertex -27.5 47.6314 3.5
    endloop
  endfacet
  facet normal -0.432444 0.115876 0.894184
    outer loop
      vertex -57.0634 18.541 1
      vertex -58.6889 12.4747 1
      vertex -53.7981 11.4351 3.5
    endloop
  endfacet
  facet normal 0 0 -1
    outer loop
      vertex 50 0 0
      vertex 60 0 0
      vertex 59.6713 -6.27171 0
    endloop
  endfacet
  facet normal 0 0 -1
    outer loop
      vertex 49.7261 -5.22642 0
      vertex 59.6713 -6.27171 0
      vertex 58.6889 -12.4747 0
    endloop
  endfacet
  facet normal 0 0 -1
    outer loop
      vertex 60 0 0
      vertex 50 0 0
      vertex 59.6713 6.27171 0
    endloop
  endfacet
  facet normal 0 0 -1
    outer loop
      vertex 48.9074 -10.3956 0
      vertex 58.6889 -12.4747 0
      vertex 57.0634 -18.541 0
    endloop
  endfacet
  facet normal 0 0 -1
    outer loop
      vertex 49.7261 5.22642 0
      vertex 59.6713 6.27171 0
      vertex 50 0 0
    endloop
  endfacet
  facet normal 0 0 -1
    outer loop
      vertex 47.5528 -15.4508 0
      vertex 57.0634 -18.541 0
      vertex 54.8127 -24.4042 0
    endloop
  endfacet
  facet normal -0 0 -1
    outer loop
      vertex 59.6713 6.27171 0
      vertex 49.7261 5.22642 0
      vertex 58.6889 12.4747 0
    endloop
  endfacet
  facet normal 0 0 -1
    outer loop
      vertex 45.6773 -20.3368 0
      vertex 54.8127 -24.4042 0
      vertex 51.9615 -30 0
    endloop
  endfacet
  facet normal 0 0 -1
    outer loop
      vertex 48.9074 10.3956 0
      vertex 58.6889 12.4747 0
      vertex 49.7261 5.22642 0
    endloop
  endfacet
  facet normal -0 0 -1
    outer loop
      vertex 58.6889 12.4747 0
      vertex 48.9074 10.3956 0
      vertex 57.0634 18.541 0
    endloop
  endfacet
  facet normal 0 0 -1
    outer loop
      vertex 59.6713 -6.27171 0
      vertex 49.7261 -5.22642 0
      vertex 50 0 0
    endloop
  endfacet
  facet normal 0 0 -1
    outer loop
      vertex 58.6889 -12.4747 0
      vertex 48.9074 -10.3956 0
      vertex 49.7261 -5.22642 0
    endloop
  endfacet
  facet normal 0 0 -1
    outer loop
      vertex 43.3013 -25 0
      vertex 51.9615 -30 0
      vertex 48.541 -35.2671 0
    endloop
  endfacet
  facet normal 0 0 -1
    outer loop
      vertex 57.0634 -18.541 0
      vertex 47.5528 -15.4508 0
      vertex 48.9074 -10.3956 0
    endloop
  endfacet
  facet normal 0 0 -1
    outer loop
      vertex 54.8127 -24.4042 0
      vertex 45.6773 -20.3368 0
      vertex 47.5528 -15.4508 0
    endloop
  endfacet
  facet normal 0 0 -1
    outer loop
      vertex 40.4509 -29.3893 0
      vertex 48.541 -35.2671 0
      vertex 44.5887 -40.1478 0
    endloop
  endfacet
  facet normal 0 0 -1
    outer loop
      vertex 51.9615 -30 0
      vertex 43.3013 -25 0
      vertex 45.6773 -20.3368 0
    endloop
  endfacet
  facet normal 0 0 -1
    outer loop
      vertex 48.541 -35.2671 0
      vertex 40.4509 -29.3893 0
      vertex 43.3013 -25 0
    endloop
  endfacet
  facet normal 0 0 -1
    outer loop
      vertex 37.1572 -33.4565 0
      vertex 44.5887 -40.1478 0
      vertex 40.1478 -44.5887 0
    endloop
  endfacet
  facet normal 0 0 -1
    outer loop
      vertex 44.5887 -40.1478 0
      vertex 37.1572 -33.4565 0
      vertex 40.4509 -29.3893 0
    endloop
  endfacet
  facet normal 0 0 -1
    outer loop
      vertex 33.4565 -37.1572 0
      vertex 40.1478 -44.5887 0
      vertex 35.2671 -48.541 0
    endloop
  endfacet
  facet normal 0 0 -1
    outer loop
      vertex 40.1478 -44.5887 0
      vertex 33.4565 -37.1572 0
      vertex 37.1572 -33.4565 0
    endloop
  endfacet
  facet normal 0 0 -1
    outer loop
      vertex 29.3893 -40.4509 0
      vertex 35.2671 -48.541 0
      vertex 30 -51.9615 0
    endloop
  endfacet
  facet normal 0 0 -1
    outer loop
      vertex 35.2671 -48.541 0
      vertex 29.3893 -40.4509 0
      vertex 33.4565 -37.1572 0
    endloop
  endfacet
  facet normal 0 0 -1
    outer loop
      vertex 30 -51.9615 0
      vertex 25 -43.3013 0
      vertex 29.3893 -40.4509 0
    endloop
  endfacet
  facet normal 0 0 -1
    outer loop
      vertex 24.4042 -54.8127 0
      vertex 25 -43.3013 0
      vertex 30 -51.9615 0
    endloop
  endfacet
  facet normal 0 0 -1
    outer loop
      vertex 24.4042 -54.8127 0
      vertex 20.3368 -45.6773 0
      vertex 25 -43.3013 0
    endloop
  endfacet
  facet normal 0 0 -1
    outer loop
      vertex 18.541 -57.0634 0
      vertex 20.3368 -45.6773 0
      vertex 24.4042 -54.8127 0
    endloop
  endfacet
  facet normal 0 0 -1
    outer loop
      vertex 18.541 -57.0634 0
      vertex 15.4508 -47.5528 0
      vertex 20.3368 -45.6773 0
    endloop
  endfacet
  facet normal 0 0 -1
    outer loop
      vertex 12.4747 -58.6889 0
      vertex 15.4508 -47.5528 0
      vertex 18.541 -57.0634 0
    endloop
  endfacet
  facet normal 0 0 -1
    outer loop
      vertex 12.4747 -58.6889 0
      vertex 10.3956 -48.9074 0
      vertex 15.4508 -47.5528 0
    endloop
  endfacet
  facet normal 0 0 -1
    outer loop
      vertex 6.27171 -59.6713 0
      vertex 10.3956 -48.9074 0
      vertex 12.4747 -58.6889 0
    endloop
  endfacet
  facet normal 0 0 -1
    outer loop
      vertex 6.27171 -59.6713 0
      vertex 5.22642 -49.7261 0
      vertex 10.3956 -48.9074 0
    endloop
  endfacet
  facet normal 0 0 -1
    outer loop
      vertex 0 -60 0
      vertex 5.22642 -49.7261 0
      vertex 6.27171 -59.6713 0
    endloop
  endfacet
  facet normal 0 0 -1
    outer loop
      vertex 0 -60 0
      vertex 0 -50 0
      vertex 5.22642 -49.7261 0
    endloop
  endfacet
  facet normal 0 0 -1
    outer loop
      vertex 0 -60 0
      vertex -5.22642 -49.7261 0
      vertex 0 -50 0
    endloop
  endfacet
  facet normal 0 0 -1
    outer loop
      vertex -6.27171 -59.6713 0
      vertex -5.22642 -49.7261 0
      vertex 0 -60 0
    endloop
  endfacet
  facet normal 0 0 -1
    outer loop
      vertex -6.27171 -59.6713 0
      vertex -10.3956 -48.9074 0
      vertex -5.22642 -49.7261 0
    endloop
  endfacet
  facet normal 0 0 -1
    outer loop
      vertex -12.4747 -58.6889 0
      vertex -10.3956 -48.9074 0
      vertex -6.27171 -59.6713 0
    endloop
  endfacet
  facet normal 0 0 -1
    outer loop
      vertex -12.4747 -58.6889 0
      vertex -15.4508 -47.5528 0
      vertex -10.3956 -48.9074 0
    endloop
  endfacet
  facet normal 0 0 -1
    outer loop
      vertex -18.541 -57.0634 0
      vertex -15.4508 -47.5528 0
      vertex -12.4747 -58.6889 0
    endloop
  endfacet
  facet normal 0 0 -1
    outer loop
      vertex -18.541 -57.0634 0
      vertex -20.3368 -45.6773 0
      vertex -15.4508 -47.5528 0
    endloop
  endfacet
  facet normal 0 0 -1
    outer loop
      vertex -24.4042 -54.8127 0
      vertex -20.3368 -45.6773 0
      vertex -18.541 -57.0634 0
    endloop
  endfacet
  facet normal 0 0 -1
    outer loop
      vertex -24.4042 -54.8127 0
      vertex -25 -43.3013 0
      vertex -20.3368 -45.6773 0
    endloop
  endfacet
  facet normal 0 0 -1
    outer loop
      vertex -30 -51.9615 0
      vertex -25 -43.3013 0
      vertex -24.4042 -54.8127 0
    endloop
  endfacet
  facet normal -0 0 -1
    outer loop
      vertex -25 -43.3013 0
      vertex -30 -51.9615 0
      vertex -29.3893 -40.4509 0
    endloop
  endfacet
  facet normal 0 0 -1
    outer loop
      vertex -35.2671 -48.541 0
      vertex -29.3893 -40.4509 0
      vertex -30 -51.9615 0
    endloop
  endfacet
  facet normal -0 0 -1
    outer loop
      vertex -29.3893 -40.4509 0
      vertex -35.2671 -48.541 0
      vertex -33.4565 -37.1572 0
    endloop
  endfacet
  facet normal 0 0 -1
    outer loop
      vertex -40.1478 -44.5887 0
      vertex -33.4565 -37.1572 0
      vertex -35.2671 -48.541 0
    endloop
  endfacet
  facet normal -0 0 -1
    outer loop
      vertex -33.4565 -37.1572 0
      vertex -40.1478 -44.5887 0
      vertex -37.1572 -33.4565 0
    endloop
  endfacet
  facet normal 0 0 -1
    outer loop
      vertex -44.5887 -40.1478 0
      vertex -37.1572 -33.4565 0
      vertex -40.1478 -44.5887 0
    endloop
  endfacet
  facet normal -0 0 -1
    outer loop
      vertex -37.1572 -33.4565 0
      vertex -44.5887 -40.1478 0
      vertex -40.4509 -29.3893 0
    endloop
  endfacet
  facet normal 0 0 -1
    outer loop
      vertex -48.541 -35.2671 0
      vertex -40.4509 -29.3893 0
      vertex -44.5887 -40.1478 0
    endloop
  endfacet
  facet normal -0 0 -1
    outer loop
      vertex -40.4509 -29.3893 0
      vertex -48.541 -35.2671 0
      vertex -43.3013 -25 0
    endloop
  endfacet
  facet normal 0 0 -1
    outer loop
      vertex -51.9615 -30 0
      vertex -43.3013 -25 0
      vertex -48.541 -35.2671 0
    endloop
  endfacet
  facet normal -0 0 -1
    outer loop
      vertex -43.3013 -25 0
      vertex -51.9615 -30 0
      vertex -45.6773 -20.3368 0
    endloop
  endfacet
  facet normal 0 0 -1
    outer loop
      vertex -54.8127 -24.4042 0
      vertex -45.6773 -20.3368 0
      vertex -51.9615 -30 0
    endloop
  endfacet
  facet normal -0 0 -1
    outer loop
      vertex -45.6773 -20.3368 0
      vertex -54.8127 -24.4042 0
      vertex -47.5528 -15.4508 0
    endloop
  endfacet
  facet normal 0 0 -1
    outer loop
      vertex -57.0634 -18.541 0
      vertex -47.5528 -15.4508 0
      vertex -54.8127 -24.4042 0
    endloop
  endfacet
  facet normal -0 0 -1
    outer loop
      vertex -47.5528 -15.4508 0
      vertex -57.0634 -18.541 0
      vertex -48.9074 -10.3956 0
    endloop
  endfacet
  facet normal 0 0 -1
    outer loop
      vertex 47.5528 15.4508 0
      vertex 57.0634 18.541 0
      vertex 48.9074 10.3956 0
    endloop
  endfacet
  facet normal -0 0 -1
    outer loop
      vertex 57.0634 18.541 0
      vertex 47.5528 15.4508 0
      vertex 54.8127 24.4042 0
    endloop
  endfacet
  facet normal 0 0 -1
    outer loop
      vertex 45.6773 20.3368 0
      vertex 54.8127 24.4042 0
      vertex 47.5528 15.4508 0
    endloop
  endfacet
  facet normal -0 0 -1
    outer loop
      vertex 54.8127 24.4042 0
      vertex 45.6773 20.3368 0
      vertex 51.9615 30 0
    endloop
  endfacet
  facet normal 0 0 -1
    outer loop
      vertex 43.3013 25 0
      vertex 51.9615 30 0
      vertex 45.6773 20.3368 0
    endloop
  endfacet
  facet normal -0 0 -1
    outer loop
      vertex 51.9615 30 0
      vertex 43.3013 25 0
      vertex 48.541 35.2671 0
    endloop
  endfacet
  facet normal 0 0 -1
    outer loop
      vertex 40.4509 29.3893 0
      vertex 48.541 35.2671 0
      vertex 43.3013 25 0
    endloop
  endfacet
  facet normal -0 0 -1
    outer loop
      vertex 48.541 35.2671 0
      vertex 40.4509 29.3893 0
      vertex 44.5887 40.1478 0
    endloop
  endfacet
  facet normal 0 0 -1
    outer loop
      vertex 37.1572 33.4565 0
      vertex 44.5887 40.1478 0
      vertex 40.4509 29.3893 0
    endloop
  endfacet
  facet normal -0 0 -1
    outer loop
      vertex 44.5887 40.1478 0
      vertex 37.1572 33.4565 0
      vertex 40.1478 44.5887 0
    endloop
  endfacet
  facet normal 0 0 -1
    outer loop
      vertex 33.4565 37.1572 0
      vertex 40.1478 44.5887 0
      vertex 37.1572 33.4565 0
    endloop
  endfacet
  facet normal -0 0 -1
    outer loop
      vertex 40.1478 44.5887 0
      vertex 33.4565 37.1572 0
      vertex 35.2671 48.541 0
    endloop
  endfacet
  facet normal 0 0 -1
    outer loop
      vertex 29.3893 40.4509 0
      vertex 35.2671 48.541 0
      vertex 33.4565 37.1572 0
    endloop
  endfacet
  facet normal -0 0 -1
    outer loop
      vertex 35.2671 48.541 0
      vertex 29.3893 40.4509 0
      vertex 30 51.9615 0
    endloop
  endfacet
  facet normal 0 0 -1
    outer loop
      vertex 25 43.3013 0
      vertex 30 51.9615 0
      vertex 29.3893 40.4509 0
    endloop
  endfacet
  facet normal 0 0 -1
    outer loop
      vertex 25 43.3013 0
      vertex 24.4042 54.8127 0
      vertex 30 51.9615 0
    endloop
  endfacet
  facet normal 0 0 -1
    outer loop
      vertex 20.3368 45.6773 0
      vertex 24.4042 54.8127 0
      vertex 25 43.3013 0
    endloop
  endfacet
  facet normal 0 0 -1
    outer loop
      vertex 20.3368 45.6773 0
      vertex 18.541 57.0634 0
      vertex 24.4042 54.8127 0
    endloop
  endfacet
  facet normal 0 0 -1
    outer loop
      vertex 15.4508 47.5528 0
      vertex 18.541 57.0634 0
      vertex 20.3368 45.6773 0
    endloop
  endfacet
  facet normal 0 0 -1
    outer loop
      vertex 15.4508 47.5528 0
      vertex 12.4747 58.6889 0
      vertex 18.541 57.0634 0
    endloop
  endfacet
  facet normal 0 0 -1
    outer loop
      vertex 10.3956 48.9074 0
      vertex 12.4747 58.6889 0
      vertex 15.4508 47.5528 0
    endloop
  endfacet
  facet normal 0 0 -1
    outer loop
      vertex 10.3956 48.9074 0
      vertex 6.27171 59.6713 0
      vertex 12.4747 58.6889 0
    endloop
  endfacet
  facet normal 0 0 -1
    outer loop
      vertex 5.22642 49.7261 0
      vertex 6.27171 59.6713 0
      vertex 10.3956 48.9074 0
    endloop
  endfacet
  facet normal 0 0 -1
    outer loop
      vertex 0 50 0
      vertex 6.27171 59.6713 0
      vertex 5.22642 49.7261 0
    endloop
  endfacet
  facet normal 0 0 -1
    outer loop
      vertex 0 50 0
      vertex 0 60 0
      vertex 6.27171 59.6713 0
    endloop
  endfacet
  facet normal 0 0 -1
    outer loop
      vertex -5.22642 49.7261 0
      vertex 0 60 0
      vertex 0 50 0
    endloop
  endfacet
  facet normal 0 0 -1
    outer loop
      vertex -5.22642 49.7261 0
      vertex -6.27171 59.6713 0
      vertex 0 60 0
    endloop
  endfacet
  facet normal 0 0 -1
    outer loop
      vertex -10.3956 48.9074 0
      vertex -6.27171 59.6713 0
      vertex -5.22642 49.7261 0
    endloop
  endfacet
  facet normal 0 0 -1
    outer loop
      vertex -10.3956 48.9074 0
      vertex -12.4747 58.6889 0
      vertex -6.27171 59.6713 0
    endloop
  endfacet
  facet normal 0 0 -1
    outer loop
      vertex -15.4508 47.5528 0
      vertex -12.4747 58.6889 0
      vertex -10.3956 48.9074 0
    endloop
  endfacet
  facet normal 0 0 -1
    outer loop
      vertex -15.4508 47.5528 0
      vertex -18.541 57.0634 0
      vertex -12.4747 58.6889 0
    endloop
  endfacet
  facet normal 0 0 -1
    outer loop
      vertex -20.3368 45.6773 0
      vertex -18.541 57.0634 0
      vertex -15.4508 47.5528 0
    endloop
  endfacet
  facet normal 0 0 -1
    outer loop
      vertex -20.3368 45.6773 0
      vertex -24.4042 54.8127 0
      vertex -18.541 57.0634 0
    endloop
  endfacet
  facet normal 0 0 -1
    outer loop
      vertex -25 43.3013 0
      vertex -24.4042 54.8127 0
      vertex -20.3368 45.6773 0
    endloop
  endfacet
  facet normal 0 0 -1
    outer loop
      vertex -30 51.9615 0
      vertex -25 43.3013 0
      vertex -29.3893 40.4509 0
    endloop
  endfacet
  facet normal 0 0 -1
    outer loop
      vertex -25 43.3013 0
      vertex -30 51.9615 0
      vertex -24.4042 54.8127 0
    endloop
  endfacet
  facet normal 0 0 -1
    outer loop
      vertex -35.2671 48.541 0
      vertex -29.3893 40.4509 0
      vertex -33.4565 37.1572 0
    endloop
  endfacet
  facet normal 0 0 -1
    outer loop
      vertex -29.3893 40.4509 0
      vertex -35.2671 48.541 0
      vertex -30 51.9615 0
    endloop
  endfacet
  facet normal 0 0 -1
    outer loop
      vertex -40.1478 44.5887 0
      vertex -33.4565 37.1572 0
      vertex -37.1572 33.4565 0
    endloop
  endfacet
  facet normal 0 0 -1
    outer loop
      vertex -33.4565 37.1572 0
      vertex -40.1478 44.5887 0
      vertex -35.2671 48.541 0
    endloop
  endfacet
  facet normal 0 0 -1
    outer loop
      vertex -44.5887 40.1478 0
      vertex -37.1572 33.4565 0
      vertex -40.4509 29.3893 0
    endloop
  endfacet
  facet normal 0 0 -1
    outer loop
      vertex -48.541 35.2671 0
      vertex -40.4509 29.3893 0
      vertex -43.3013 25 0
    endloop
  endfacet
  facet normal 0 0 -1
    outer loop
      vertex -37.1572 33.4565 0
      vertex -44.5887 40.1478 0
      vertex -40.1478 44.5887 0
    endloop
  endfacet
  facet normal 0 0 -1
    outer loop
      vertex -51.9615 30 0
      vertex -43.3013 25 0
      vertex -45.6773 20.3368 0
    endloop
  endfacet
  facet normal 0 0 -1
    outer loop
      vertex -54.8127 24.4042 0
      vertex -45.6773 20.3368 0
      vertex -47.5528 15.4508 0
    endloop
  endfacet
  facet normal 0 0 -1
    outer loop
      vertex -40.4509 29.3893 0
      vertex -48.541 35.2671 0
      vertex -44.5887 40.1478 0
    endloop
  endfacet
  facet normal 0 0 -1
    outer loop
      vertex -57.0634 18.541 0
      vertex -47.5528 15.4508 0
      vertex -48.9074 10.3956 0
    endloop
  endfacet
  facet normal 0 0 -1
    outer loop
      vertex -58.6889 12.4747 0
      vertex -48.9074 10.3956 0
      vertex -49.7261 5.22642 0
    endloop
  endfacet
  facet normal 0 0 -1
    outer loop
      vertex -59.6713 6.27171 0
      vertex -49.7261 5.22642 0
      vertex -50 0 0
    endloop
  endfacet
  facet normal 0 0 -1
    outer loop
      vertex -58.6889 -12.4747 0
      vertex -48.9074 -10.3956 0
      vertex -57.0634 -18.541 0
    endloop
  endfacet
  facet normal 0 0 -1
    outer loop
      vertex -43.3013 25 0
      vertex -51.9615 30 0
      vertex -48.541 35.2671 0
    endloop
  endfacet
  facet normal -0 0 -1
    outer loop
      vertex -48.9074 -10.3956 0
      vertex -58.6889 -12.4747 0
      vertex -49.7261 -5.22642 0
    endloop
  endfacet
  facet normal 0 0 -1
    outer loop
      vertex -45.6773 20.3368 0
      vertex -54.8127 24.4042 0
      vertex -51.9615 30 0
    endloop
  endfacet
  facet normal 0 0 -1
    outer loop
      vertex -59.6713 -6.27171 0
      vertex -49.7261 -5.22642 0
      vertex -58.6889 -12.4747 0
    endloop
  endfacet
  facet normal 0 0 -1
    outer loop
      vertex -47.5528 15.4508 0
      vertex -57.0634 18.541 0
      vertex -54.8127 24.4042 0
    endloop
  endfacet
  facet normal -0 0 -1
    outer loop
      vertex -49.7261 -5.22642 0
      vertex -59.6713 -6.27171 0
      vertex -50 0 0
    endloop
  endfacet
  facet normal 0 0 -1
    outer loop
      vertex -48.9074 10.3956 0
      vertex -58.6889 12.4747 0
      vertex -57.0634 18.541 0
    endloop
  endfacet
  facet normal 0 0 -1
    outer loop
      vertex -60 0 0
      vertex -50 0 0
      vertex -59.6713 -6.27171 0
    endloop
  endfacet
  facet normal 0 0 -1
    outer loop
      vertex -49.7261 5.22642 0
      vertex -59.6713 6.27171 0
      vertex -58.6889 12.4747 0
    endloop
  endfacet
  facet normal 0 0 -1
    outer loop
      vertex -50 0 0
      vertex -60 0 0
      vertex -59.6713 6.27171 0
    endloop
  endfacet
  facet normal -0.998629 -0.0523381 0
    outer loop
      vertex -59.6713 -6.27171 0
      vertex -60 0 1
      vertex -60 0 0
    endloop
  endfacet
  facet normal -0.998629 -0.0523381 0
    outer loop
      vertex -60 0 1
      vertex -59.6713 -6.27171 0
      vertex -59.6713 -6.27171 1
    endloop
  endfacet
  facet normal -0.0700381 0.442193 0.894181
    outer loop
      vertex -6.27171 59.6713 1
      vertex -11.4351 53.7981 3.5
      vertex -5.74907 54.6987 3.5
    endloop
  endfacet
  facet normal -0.98769 0.156426 0
    outer loop
      vertex -59.6713 6.27171 0
      vertex -58.6889 12.4747 1
      vertex -58.6889 12.4747 0
    endloop
  endfacet
  facet normal -0.98769 0.156426 0
    outer loop
      vertex -58.6889 12.4747 1
      vertex -59.6713 6.27171 0
      vertex -59.6713 6.27171 1
    endloop
  endfacet
  facet normal -0.965924 0.258825 0
    outer loop
      vertex -58.6889 12.4747 0
      vertex -57.0634 18.541 1
      vertex -57.0634 18.541 0
    endloop
  endfacet
  facet normal -0.965924 0.258825 0
    outer loop
      vertex -57.0634 18.541 1
      vertex -58.6889 12.4747 0
      vertex -58.6889 12.4747 1
    endloop
  endfacet
  facet normal -0.99863 -0.052335 0
    outer loop
      vertex 50 0 0
      vertex 49.7261 5.22642 3.5
      vertex 49.7261 5.22642 0
    endloop
  endfacet
  facet normal -0.99863 -0.052335 0
    outer loop
      vertex 49.7261 5.22642 3.5
      vertex 50 0 0
      vertex 50 0 3.5
    endloop
  endfacet
  facet normal 0.99863 -0.052335 0
    outer loop
      vertex -50 0 3.5
      vertex -49.7261 5.22642 0
      vertex -49.7261 5.22642 3.5
    endloop
  endfacet
  facet normal 0.99863 -0.052335 0
    outer loop
      vertex -49.7261 5.22642 0
      vertex -50 0 3.5
      vertex -50 0 0
    endloop
  endfacet
  facet normal -0.052335 -0.99863 0
    outer loop
      vertex 0 50 0
      vertex 5.22642 49.7261 3.5
      vertex 0 50 3.5
    endloop
  endfacet
  facet normal -0.052335 -0.99863 -0
    outer loop
      vertex 5.22642 49.7261 3.5
      vertex 0 50 0
      vertex 5.22642 49.7261 0
    endloop
  endfacet
  facet normal -0.707107 -0.707107 0
    outer loop
      vertex 37.1572 33.4565 0
      vertex 33.4565 37.1572 3.5
      vertex 33.4565 37.1572 0
    endloop
  endfacet
  facet normal -0.707107 -0.707107 0
    outer loop
      vertex 33.4565 37.1572 3.5
      vertex 37.1572 33.4565 0
      vertex 37.1572 33.4565 3.5
    endloop
  endfacet
  facet normal 0.629337 -0.777132 0
    outer loop
      vertex -33.4565 37.1572 0
      vertex -29.3893 40.4509 3.5
      vertex -33.4565 37.1572 3.5
    endloop
  endfacet
  facet normal 0.629337 -0.777132 0
    outer loop
      vertex -29.3893 40.4509 3.5
      vertex -33.4565 37.1572 0
      vertex -29.3893 40.4509 0
    endloop
  endfacet
  facet normal 0.358358 -0.933584 0
    outer loop
      vertex -20.3368 45.6773 0
      vertex -15.4508 47.5528 3.5
      vertex -20.3368 45.6773 3.5
    endloop
  endfacet
  facet normal 0.358358 -0.933584 0
    outer loop
      vertex -15.4508 47.5528 3.5
      vertex -20.3368 45.6773 0
      vertex -15.4508 47.5528 0
    endloop
  endfacet
  facet normal 0.777132 0.629337 0
    outer loop
      vertex -37.1572 -33.4565 3.5
      vertex -40.4509 -29.3893 0
      vertex -40.4509 -29.3893 3.5
    endloop
  endfacet
  facet normal 0.777132 0.629337 0
    outer loop
      vertex -40.4509 -29.3893 0
      vertex -37.1572 -33.4565 3.5
      vertex -37.1572 -33.4565 0
    endloop
  endfacet
  facet normal -0.965923 -0.25883 0
    outer loop
      vertex 48.9074 10.3956 0
      vertex 47.5528 15.4508 3.5
      vertex 47.5528 15.4508 0
    endloop
  endfacet
  facet normal -0.965923 -0.25883 0
    outer loop
      vertex 47.5528 15.4508 3.5
      vertex 48.9074 10.3956 0
      vertex 48.9074 10.3956 3.5
    endloop
  endfacet
  facet normal -0.987689 -0.156431 0
    outer loop
      vertex 49.7261 5.22642 0
      vertex 48.9074 10.3956 3.5
      vertex 48.9074 10.3956 0
    endloop
  endfacet
  facet normal -0.987689 -0.156431 0
    outer loop
      vertex 48.9074 10.3956 3.5
      vertex 49.7261 5.22642 0
      vertex 49.7261 5.22642 3.5
    endloop
  endfacet
  facet normal -0.453988 -0.891008 0
    outer loop
      vertex 20.3368 45.6773 0
      vertex 25 43.3013 3.5
      vertex 20.3368 45.6773 3.5
    endloop
  endfacet
  facet normal -0.453988 -0.891008 -0
    outer loop
      vertex 25 43.3013 3.5
      vertex 20.3368 45.6773 0
      vertex 25 43.3013 0
    endloop
  endfacet
  facet normal -0.629337 -0.777132 0
    outer loop
      vertex 29.3893 40.4509 0
      vertex 33.4565 37.1572 3.5
      vertex 29.3893 40.4509 3.5
    endloop
  endfacet
  facet normal -0.629337 -0.777132 -0
    outer loop
      vertex 33.4565 37.1572 3.5
      vertex 29.3893 40.4509 0
      vertex 33.4565 37.1572 0
    endloop
  endfacet
  facet normal 0.838674 -0.544633 0
    outer loop
      vertex -43.3013 25 3.5
      vertex -40.4509 29.3893 0
      vertex -40.4509 29.3893 3.5
    endloop
  endfacet
  facet normal 0.838674 -0.544633 0
    outer loop
      vertex -40.4509 29.3893 0
      vertex -43.3013 25 3.5
      vertex -43.3013 25 0
    endloop
  endfacet
  facet normal 0.777132 -0.629337 0
    outer loop
      vertex -40.4509 29.3893 3.5
      vertex -37.1572 33.4565 0
      vertex -37.1572 33.4565 3.5
    endloop
  endfacet
  facet normal 0.777132 -0.629337 0
    outer loop
      vertex -37.1572 33.4565 0
      vertex -40.4509 29.3893 3.5
      vertex -40.4509 29.3893 0
    endloop
  endfacet
  facet normal 0.544633 -0.838674 0
    outer loop
      vertex -29.3893 40.4509 0
      vertex -25 43.3013 3.5
      vertex -29.3893 40.4509 3.5
    endloop
  endfacet
  facet normal 0.544633 -0.838674 0
    outer loop
      vertex -25 43.3013 3.5
      vertex -29.3893 40.4509 0
      vertex -25 43.3013 0
    endloop
  endfacet
  facet normal -0.891008 0.453988 0
    outer loop
      vertex 43.3013 -25 0
      vertex 45.6773 -20.3368 3.5
      vertex 45.6773 -20.3368 0
    endloop
  endfacet
  facet normal -0.891008 0.453988 0
    outer loop
      vertex 45.6773 -20.3368 3.5
      vertex 43.3013 -25 0
      vertex 43.3013 -25 3.5
    endloop
  endfacet
  facet normal -0.25883 0.965923 0
    outer loop
      vertex 15.4508 -47.5528 0
      vertex 10.3956 -48.9074 3.5
      vertex 15.4508 -47.5528 3.5
    endloop
  endfacet
  facet normal -0.25883 0.965923 0
    outer loop
      vertex 10.3956 -48.9074 3.5
      vertex 15.4508 -47.5528 0
      vertex 10.3956 -48.9074 0
    endloop
  endfacet
  facet normal -0.707107 0.707107 0
    outer loop
      vertex 33.4565 -37.1572 0
      vertex 37.1572 -33.4565 3.5
      vertex 37.1572 -33.4565 0
    endloop
  endfacet
  facet normal -0.707107 0.707107 0
    outer loop
      vertex 37.1572 -33.4565 3.5
      vertex 33.4565 -37.1572 0
      vertex 33.4565 -37.1572 3.5
    endloop
  endfacet
  facet normal -0.965923 0.25883 0
    outer loop
      vertex 47.5528 -15.4508 0
      vertex 48.9074 -10.3956 3.5
      vertex 48.9074 -10.3956 0
    endloop
  endfacet
  facet normal -0.965923 0.25883 0
    outer loop
      vertex 48.9074 -10.3956 3.5
      vertex 47.5528 -15.4508 0
      vertex 47.5528 -15.4508 3.5
    endloop
  endfacet
  facet normal 0.358358 0.933584 -0
    outer loop
      vertex -15.4508 -47.5528 0
      vertex -20.3368 -45.6773 3.5
      vertex -15.4508 -47.5528 3.5
    endloop
  endfacet
  facet normal 0.358358 0.933584 0
    outer loop
      vertex -20.3368 -45.6773 3.5
      vertex -15.4508 -47.5528 0
      vertex -20.3368 -45.6773 0
    endloop
  endfacet
  facet normal 0.544633 0.838674 -0
    outer loop
      vertex -25 -43.3013 0
      vertex -29.3893 -40.4509 3.5
      vertex -25 -43.3013 3.5
    endloop
  endfacet
  facet normal 0.544633 0.838674 0
    outer loop
      vertex -29.3893 -40.4509 3.5
      vertex -25 -43.3013 0
      vertex -29.3893 -40.4509 0
    endloop
  endfacet
  facet normal 0.933584 0.358358 0
    outer loop
      vertex -45.6773 -20.3368 3.5
      vertex -47.5528 -15.4508 0
      vertex -47.5528 -15.4508 3.5
    endloop
  endfacet
  facet normal 0.933584 0.358358 0
    outer loop
      vertex -47.5528 -15.4508 0
      vertex -45.6773 -20.3368 3.5
      vertex -45.6773 -20.3368 0
    endloop
  endfacet
  facet normal -0.933584 -0.358358 0
    outer loop
      vertex 47.5528 15.4508 0
      vertex 45.6773 20.3368 3.5
      vertex 45.6773 20.3368 0
    endloop
  endfacet
  facet normal -0.933584 -0.358358 0
    outer loop
      vertex 45.6773 20.3368 3.5
      vertex 47.5528 15.4508 0
      vertex 47.5528 15.4508 3.5
    endloop
  endfacet
  facet normal -0.891008 -0.453988 0
    outer loop
      vertex 45.6773 20.3368 0
      vertex 43.3013 25 3.5
      vertex 43.3013 25 0
    endloop
  endfacet
  facet normal -0.891008 -0.453988 0
    outer loop
      vertex 43.3013 25 3.5
      vertex 45.6773 20.3368 0
      vertex 45.6773 20.3368 3.5
    endloop
  endfacet
  facet normal -0.838674 -0.544633 0
    outer loop
      vertex 43.3013 25 0
      vertex 40.4509 29.3893 3.5
      vertex 40.4509 29.3893 0
    endloop
  endfacet
  facet normal -0.838674 -0.544633 0
    outer loop
      vertex 40.4509 29.3893 3.5
      vertex 43.3013 25 0
      vertex 43.3013 25 3.5
    endloop
  endfacet
  facet normal -0.358358 -0.933584 0
    outer loop
      vertex 15.4508 47.5528 0
      vertex 20.3368 45.6773 3.5
      vertex 15.4508 47.5528 3.5
    endloop
  endfacet
  facet normal -0.358358 -0.933584 -0
    outer loop
      vertex 20.3368 45.6773 3.5
      vertex 15.4508 47.5528 0
      vertex 20.3368 45.6773 0
    endloop
  endfacet
  facet normal -0.25883 -0.965923 0
    outer loop
      vertex 10.3956 48.9074 0
      vertex 15.4508 47.5528 3.5
      vertex 10.3956 48.9074 3.5
    endloop
  endfacet
  facet normal -0.25883 -0.965923 -0
    outer loop
      vertex 15.4508 47.5528 3.5
      vertex 10.3956 48.9074 0
      vertex 15.4508 47.5528 0
    endloop
  endfacet
  facet normal -0.156431 -0.987689 0
    outer loop
      vertex 5.22642 49.7261 0
      vertex 10.3956 48.9074 3.5
      vertex 5.22642 49.7261 3.5
    endloop
  endfacet
  facet normal -0.156431 -0.987689 -0
    outer loop
      vertex 10.3956 48.9074 3.5
      vertex 5.22642 49.7261 0
      vertex 10.3956 48.9074 0
    endloop
  endfacet
  facet normal -0.544633 -0.838674 0
    outer loop
      vertex 25 43.3013 0
      vertex 29.3893 40.4509 3.5
      vertex 25 43.3013 3.5
    endloop
  endfacet
  facet normal -0.544633 -0.838674 -0
    outer loop
      vertex 29.3893 40.4509 3.5
      vertex 25 43.3013 0
      vertex 29.3893 40.4509 0
    endloop
  endfacet
  facet normal 0.707107 -0.707107 0
    outer loop
      vertex -37.1572 33.4565 3.5
      vertex -33.4565 37.1572 0
      vertex -33.4565 37.1572 3.5
    endloop
  endfacet
  facet normal 0.707107 -0.707107 0
    outer loop
      vertex -33.4565 37.1572 0
      vertex -37.1572 33.4565 3.5
      vertex -37.1572 33.4565 0
    endloop
  endfacet
  facet normal 0.891008 -0.453988 0
    outer loop
      vertex -45.6773 20.3368 3.5
      vertex -43.3013 25 0
      vertex -43.3013 25 3.5
    endloop
  endfacet
  facet normal 0.891008 -0.453988 0
    outer loop
      vertex -43.3013 25 0
      vertex -45.6773 20.3368 3.5
      vertex -45.6773 20.3368 0
    endloop
  endfacet
  facet normal 0.965923 -0.25883 0
    outer loop
      vertex -48.9074 10.3956 3.5
      vertex -47.5528 15.4508 0
      vertex -47.5528 15.4508 3.5
    endloop
  endfacet
  facet normal 0.965923 -0.25883 0
    outer loop
      vertex -47.5528 15.4508 0
      vertex -48.9074 10.3956 3.5
      vertex -48.9074 10.3956 0
    endloop
  endfacet
  facet normal 0.987689 -0.156431 0
    outer loop
      vertex -49.7261 5.22642 3.5
      vertex -48.9074 10.3956 0
      vertex -48.9074 10.3956 3.5
    endloop
  endfacet
  facet normal 0.987689 -0.156431 0
    outer loop
      vertex -48.9074 10.3956 0
      vertex -49.7261 5.22642 3.5
      vertex -49.7261 5.22642 0
    endloop
  endfacet
  facet normal 0.453988 -0.891008 0
    outer loop
      vertex -25 43.3013 0
      vertex -20.3368 45.6773 3.5
      vertex -25 43.3013 3.5
    endloop
  endfacet
  facet normal 0.453988 -0.891008 0
    outer loop
      vertex -20.3368 45.6773 3.5
      vertex -25 43.3013 0
      vertex -20.3368 45.6773 0
    endloop
  endfacet
  facet normal 0.052335 -0.99863 0
    outer loop
      vertex -5.22642 49.7261 0
      vertex 0 50 3.5
      vertex -5.22642 49.7261 3.5
    endloop
  endfacet
  facet normal 0.052335 -0.99863 0
    outer loop
      vertex 0 50 3.5
      vertex -5.22642 49.7261 0
      vertex 0 50 0
    endloop
  endfacet
  facet normal 0.25883 -0.965923 0
    outer loop
      vertex -15.4508 47.5528 0
      vertex -10.3956 48.9074 3.5
      vertex -15.4508 47.5528 3.5
    endloop
  endfacet
  facet normal 0.25883 -0.965923 0
    outer loop
      vertex -10.3956 48.9074 3.5
      vertex -15.4508 47.5528 0
      vertex -10.3956 48.9074 0
    endloop
  endfacet
  facet normal 0.156431 -0.987689 0
    outer loop
      vertex -10.3956 48.9074 0
      vertex -5.22642 49.7261 3.5
      vertex -10.3956 48.9074 3.5
    endloop
  endfacet
  facet normal 0.156431 -0.987689 0
    outer loop
      vertex -5.22642 49.7261 3.5
      vertex -10.3956 48.9074 0
      vertex -5.22642 49.7261 0
    endloop
  endfacet
  facet normal -0.052335 0.99863 0
    outer loop
      vertex 5.22642 -49.7261 0
      vertex 0 -50 3.5
      vertex 5.22642 -49.7261 3.5
    endloop
  endfacet
  facet normal -0.052335 0.99863 0
    outer loop
      vertex 0 -50 3.5
      vertex 5.22642 -49.7261 0
      vertex 0 -50 0
    endloop
  endfacet
  facet normal -0.156431 0.987689 0
    outer loop
      vertex 10.3956 -48.9074 0
      vertex 5.22642 -49.7261 3.5
      vertex 10.3956 -48.9074 3.5
    endloop
  endfacet
  facet normal -0.156431 0.987689 0
    outer loop
      vertex 5.22642 -49.7261 3.5
      vertex 10.3956 -48.9074 0
      vertex 5.22642 -49.7261 0
    endloop
  endfacet
  facet normal -0.453988 0.891008 0
    outer loop
      vertex 25 -43.3013 0
      vertex 20.3368 -45.6773 3.5
      vertex 25 -43.3013 3.5
    endloop
  endfacet
  facet normal -0.453988 0.891008 0
    outer loop
      vertex 20.3368 -45.6773 3.5
      vertex 25 -43.3013 0
      vertex 20.3368 -45.6773 0
    endloop
  endfacet
  facet normal -0.629337 0.777132 0
    outer loop
      vertex 33.4565 -37.1572 0
      vertex 29.3893 -40.4509 3.5
      vertex 33.4565 -37.1572 3.5
    endloop
  endfacet
  facet normal -0.629337 0.777132 0
    outer loop
      vertex 29.3893 -40.4509 3.5
      vertex 33.4565 -37.1572 0
      vertex 29.3893 -40.4509 0
    endloop
  endfacet
  facet normal -0.777132 0.629337 0
    outer loop
      vertex 37.1572 -33.4565 0
      vertex 40.4509 -29.3893 3.5
      vertex 40.4509 -29.3893 0
    endloop
  endfacet
  facet normal -0.777132 0.629337 0
    outer loop
      vertex 40.4509 -29.3893 3.5
      vertex 37.1572 -33.4565 0
      vertex 37.1572 -33.4565 3.5
    endloop
  endfacet
  facet normal -0.838674 0.544633 0
    outer loop
      vertex 40.4509 -29.3893 0
      vertex 43.3013 -25 3.5
      vertex 43.3013 -25 0
    endloop
  endfacet
  facet normal -0.838674 0.544633 0
    outer loop
      vertex 43.3013 -25 3.5
      vertex 40.4509 -29.3893 0
      vertex 40.4509 -29.3893 3.5
    endloop
  endfacet
  facet normal 0.156431 0.987689 -0
    outer loop
      vertex -5.22642 -49.7261 0
      vertex -10.3956 -48.9074 3.5
      vertex -5.22642 -49.7261 3.5
    endloop
  endfacet
  facet normal 0.156431 0.987689 0
    outer loop
      vertex -10.3956 -48.9074 3.5
      vertex -5.22642 -49.7261 0
      vertex -10.3956 -48.9074 0
    endloop
  endfacet
  facet normal 0.707107 0.707107 0
    outer loop
      vertex -33.4565 -37.1572 3.5
      vertex -37.1572 -33.4565 0
      vertex -37.1572 -33.4565 3.5
    endloop
  endfacet
  facet normal 0.707107 0.707107 0
    outer loop
      vertex -37.1572 -33.4565 0
      vertex -33.4565 -37.1572 3.5
      vertex -33.4565 -37.1572 0
    endloop
  endfacet
  facet normal 0.453988 0.891008 -0
    outer loop
      vertex -20.3368 -45.6773 0
      vertex -25 -43.3013 3.5
      vertex -20.3368 -45.6773 3.5
    endloop
  endfacet
  facet normal 0.453988 0.891008 0
    outer loop
      vertex -25 -43.3013 3.5
      vertex -20.3368 -45.6773 0
      vertex -25 -43.3013 0
    endloop
  endfacet
  facet normal 0.052335 0.99863 -0
    outer loop
      vertex 0 -50 0
      vertex -5.22642 -49.7261 3.5
      vertex 0 -50 3.5
    endloop
  endfacet
  facet normal 0.052335 0.99863 0
    outer loop
      vertex -5.22642 -49.7261 3.5
      vertex 0 -50 0
      vertex -5.22642 -49.7261 0
    endloop
  endfacet
  facet normal 0.629337 0.777132 -0
    outer loop
      vertex -29.3893 -40.4509 0
      vertex -33.4565 -37.1572 3.5
      vertex -29.3893 -40.4509 3.5
    endloop
  endfacet
  facet normal 0.629337 0.777132 0
    outer loop
      vertex -33.4565 -37.1572 3.5
      vertex -29.3893 -40.4509 0
      vertex -33.4565 -37.1572 0
    endloop
  endfacet
  facet normal 0.891008 0.453988 0
    outer loop
      vertex -43.3013 -25 3.5
      vertex -45.6773 -20.3368 0
      vertex -45.6773 -20.3368 3.5
    endloop
  endfacet
  facet normal 0.891008 0.453988 0
    outer loop
      vertex -45.6773 -20.3368 0
      vertex -43.3013 -25 3.5
      vertex -43.3013 -25 0
    endloop
  endfacet
  facet normal 0.987689 0.156431 0
    outer loop
      vertex -48.9074 -10.3956 3.5
      vertex -49.7261 -5.22642 0
      vertex -49.7261 -5.22642 3.5
    endloop
  endfacet
  facet normal 0.987689 0.156431 0
    outer loop
      vertex -49.7261 -5.22642 0
      vertex -48.9074 -10.3956 3.5
      vertex -48.9074 -10.3956 0
    endloop
  endfacet
  facet normal 0.965923 0.25883 0
    outer loop
      vertex -47.5528 -15.4508 3.5
      vertex -48.9074 -10.3956 0
      vertex -48.9074 -10.3956 3.5
    endloop
  endfacet
  facet normal 0.965923 0.25883 0
    outer loop
      vertex -48.9074 -10.3956 0
      vertex -47.5528 -15.4508 3.5
      vertex -47.5528 -15.4508 0
    endloop
  endfacet
  facet normal 0.99863 0.052335 0
    outer loop
      vertex -49.7261 -5.22642 3.5
      vertex -50 0 0
      vertex -50 0 3.5
    endloop
  endfacet
  facet normal 0.99863 0.052335 0
    outer loop
      vertex -50 0 0
      vertex -49.7261 -5.22642 3.5
      vertex -49.7261 -5.22642 0
    endloop
  endfacet
  facet normal -0.777132 -0.629337 0
    outer loop
      vertex 40.4509 29.3893 0
      vertex 37.1572 33.4565 3.5
      vertex 37.1572 33.4565 0
    endloop
  endfacet
  facet normal -0.777132 -0.629337 0
    outer loop
      vertex 37.1572 33.4565 3.5
      vertex 40.4509 29.3893 0
      vertex 40.4509 29.3893 3.5
    endloop
  endfacet
  facet normal 0.933584 -0.358358 0
    outer loop
      vertex -47.5528 15.4508 3.5
      vertex -45.6773 20.3368 0
      vertex -45.6773 20.3368 3.5
    endloop
  endfacet
  facet normal 0.933584 -0.358358 0
    outer loop
      vertex -45.6773 20.3368 0
      vertex -47.5528 15.4508 3.5
      vertex -47.5528 15.4508 0
    endloop
  endfacet
  facet normal -0.358358 0.933584 0
    outer loop
      vertex 20.3368 -45.6773 0
      vertex 15.4508 -47.5528 3.5
      vertex 20.3368 -45.6773 3.5
    endloop
  endfacet
  facet normal -0.358358 0.933584 0
    outer loop
      vertex 15.4508 -47.5528 3.5
      vertex 20.3368 -45.6773 0
      vertex 15.4508 -47.5528 0
    endloop
  endfacet
  facet normal -0.544633 0.838674 0
    outer loop
      vertex 29.3893 -40.4509 0
      vertex 25 -43.3013 3.5
      vertex 29.3893 -40.4509 3.5
    endloop
  endfacet
  facet normal -0.544633 0.838674 0
    outer loop
      vertex 25 -43.3013 3.5
      vertex 29.3893 -40.4509 0
      vertex 25 -43.3013 0
    endloop
  endfacet
  facet normal -0.933584 0.358358 0
    outer loop
      vertex 45.6773 -20.3368 0
      vertex 47.5528 -15.4508 3.5
      vertex 47.5528 -15.4508 0
    endloop
  endfacet
  facet normal -0.933584 0.358358 0
    outer loop
      vertex 47.5528 -15.4508 3.5
      vertex 45.6773 -20.3368 0
      vertex 45.6773 -20.3368 3.5
    endloop
  endfacet
  facet normal -0.987689 0.156431 0
    outer loop
      vertex 48.9074 -10.3956 0
      vertex 49.7261 -5.22642 3.5
      vertex 49.7261 -5.22642 0
    endloop
  endfacet
  facet normal -0.987689 0.156431 0
    outer loop
      vertex 49.7261 -5.22642 3.5
      vertex 48.9074 -10.3956 0
      vertex 48.9074 -10.3956 3.5
    endloop
  endfacet
  facet normal -0.99863 0.052335 0
    outer loop
      vertex 49.7261 -5.22642 0
      vertex 50 0 3.5
      vertex 50 0 0
    endloop
  endfacet
  facet normal -0.99863 0.052335 0
    outer loop
      vertex 50 0 3.5
      vertex 49.7261 -5.22642 0
      vertex 49.7261 -5.22642 3.5
    endloop
  endfacet
  facet normal 0.25883 0.965923 -0
    outer loop
      vertex -10.3956 -48.9074 0
      vertex -15.4508 -47.5528 3.5
      vertex -10.3956 -48.9074 3.5
    endloop
  endfacet
  facet normal 0.25883 0.965923 0
    outer loop
      vertex -15.4508 -47.5528 3.5
      vertex -10.3956 -48.9074 0
      vertex -15.4508 -47.5528 0
    endloop
  endfacet
  facet normal 0.838674 0.544633 0
    outer loop
      vertex -40.4509 -29.3893 3.5
      vertex -43.3013 -25 0
      vertex -43.3013 -25 3.5
    endloop
  endfacet
  facet normal 0.838674 0.544633 0
    outer loop
      vertex -43.3013 -25 0
      vertex -40.4509 -29.3893 3.5
      vertex -40.4509 -29.3893 0
    endloop
  endfacet
endsolid OpenSCAD_Model
