solid OpenSCAD_Model
  facet normal -0.998629 0.0523391 0
    outer loop
      vertex -76.5 0 0
      vertex -76.0809 7.99643 5
      vertex -76.0809 7.99643 0
    endloop
  endfacet
  facet normal -0.998629 0.0523391 0
    outer loop
      vertex -76.0809 7.99643 5
      vertex -76.5 0 0
      vertex -76.5 0 5
    endloop
  endfacet
  facet normal -0.0523391 -0.998629 0
    outer loop
      vertex -7.99643 -76.0809 0
      vertex 0 -76.5 5
      vertex -7.99643 -76.0809 5
    endloop
  endfacet
  facet normal -0.0523391 -0.998629 -0
    outer loop
      vertex 0 -76.5 5
      vertex -7.99643 -76.0809 0
      vertex 0 -76.5 0
    endloop
  endfacet
  facet normal -0.62932 0.777146 0
    outer loop
      vertex -44.9656 61.8898 0
      vertex -51.1885 56.8506 5
      vertex -44.9656 61.8898 5
    endloop
  endfacet
  facet normal -0.62932 0.777146 0
    outer loop
      vertex -51.1885 56.8506 5
      vertex -44.9656 61.8898 0
      vertex -51.1885 56.8506 0
    endloop
  endfacet
  facet normal -0.258821 0.965925 0
    outer loop
      vertex -15.9052 74.8283 0
      vertex -23.6398 72.7558 5
      vertex -15.9052 74.8283 5
    endloop
  endfacet
  facet normal -0.258821 0.965925 0
    outer loop
      vertex -23.6398 72.7558 5
      vertex -15.9052 74.8283 0
      vertex -23.6398 72.7558 0
    endloop
  endfacet
  facet normal -0.987689 -0.156431 0
    outer loop
      vertex -74.8283 -15.9052 0
      vertex -76.0809 -7.99643 5
      vertex -76.0809 -7.99643 0
    endloop
  endfacet
  facet normal -0.987689 -0.156431 0
    outer loop
      vertex -76.0809 -7.99643 5
      vertex -74.8283 -15.9052 0
      vertex -74.8283 -15.9052 5
    endloop
  endfacet
  facet normal 0 0 -1
    outer loop
      vertex 0 -76.5 0
      vertex -4.70378 -44.7535 0
      vertex 0 -45 0
    endloop
  endfacet
  facet normal 0 0 -1
    outer loop
      vertex -7.99643 -76.0809 0
      vertex -4.70378 -44.7535 0
      vertex 0 -76.5 0
    endloop
  endfacet
  facet normal 0 0 -1
    outer loop
      vertex -7.99643 -76.0809 0
      vertex -9.35603 -44.0166 0
      vertex -4.70378 -44.7535 0
    endloop
  endfacet
  facet normal 0 0 -1
    outer loop
      vertex -15.9052 -74.8283 0
      vertex -9.35603 -44.0166 0
      vertex -7.99643 -76.0809 0
    endloop
  endfacet
  facet normal -0 0 -1
    outer loop
      vertex -9.35603 -44.0166 0
      vertex -15.9052 -74.8283 0
      vertex -13.9058 -42.7975 0
    endloop
  endfacet
  facet normal 0 0 -1
    outer loop
      vertex -23.6398 -72.7558 0
      vertex -13.9058 -42.7975 0
      vertex -15.9052 -74.8283 0
    endloop
  endfacet
  facet normal -0 0 -1
    outer loop
      vertex -13.9058 -42.7975 0
      vertex -23.6398 -72.7558 0
      vertex -18.3031 -41.1095 0
    endloop
  endfacet
  facet normal 0 0 -1
    outer loop
      vertex -31.1154 -69.8862 0
      vertex -18.3031 -41.1095 0
      vertex -23.6398 -72.7558 0
    endloop
  endfacet
  facet normal -0 0 -1
    outer loop
      vertex -18.3031 -41.1095 0
      vertex -31.1154 -69.8862 0
      vertex -22.5 -38.9711 0
    endloop
  endfacet
  facet normal 0 0 -1
    outer loop
      vertex -38.25 -66.2509 0
      vertex -22.5 -38.9711 0
      vertex -31.1154 -69.8862 0
    endloop
  endfacet
  facet normal -0 0 -1
    outer loop
      vertex -22.5 -38.9711 0
      vertex -38.25 -66.2509 0
      vertex -26.4503 -36.4058 0
    endloop
  endfacet
  facet normal 0 0 -1
    outer loop
      vertex -44.9656 -61.8898 0
      vertex -26.4503 -36.4058 0
      vertex -38.25 -66.2509 0
    endloop
  endfacet
  facet normal -0 0 -1
    outer loop
      vertex -26.4503 -36.4058 0
      vertex -44.9656 -61.8898 0
      vertex -30.1109 -33.4415 0
    endloop
  endfacet
  facet normal 0 0 -1
    outer loop
      vertex -51.1885 -56.8506 0
      vertex -30.1109 -33.4415 0
      vertex -44.9656 -61.8898 0
    endloop
  endfacet
  facet normal -0 0 -1
    outer loop
      vertex -30.1109 -33.4415 0
      vertex -51.1885 -56.8506 0
      vertex -33.4415 -30.1109 0
    endloop
  endfacet
  facet normal 0 0 -1
    outer loop
      vertex -56.8506 -51.1885 0
      vertex -33.4415 -30.1109 0
      vertex -51.1885 -56.8506 0
    endloop
  endfacet
  facet normal -0 0 -1
    outer loop
      vertex -33.4415 -30.1109 0
      vertex -56.8506 -51.1885 0
      vertex -36.4058 -26.4503 0
    endloop
  endfacet
  facet normal 0 0 -1
    outer loop
      vertex -61.8898 -44.9656 0
      vertex -36.4058 -26.4503 0
      vertex -56.8506 -51.1885 0
    endloop
  endfacet
  facet normal -0 0 -1
    outer loop
      vertex -36.4058 -26.4503 0
      vertex -61.8898 -44.9656 0
      vertex -38.9711 -22.5 0
    endloop
  endfacet
  facet normal 0 0 -1
    outer loop
      vertex -66.2509 -38.25 0
      vertex -38.9711 -22.5 0
      vertex -61.8898 -44.9656 0
    endloop
  endfacet
  facet normal -0 0 -1
    outer loop
      vertex -38.9711 -22.5 0
      vertex -66.2509 -38.25 0
      vertex -41.1095 -18.3031 0
    endloop
  endfacet
  facet normal 0 0 -1
    outer loop
      vertex -69.8862 -31.1154 0
      vertex -41.1095 -18.3031 0
      vertex -66.2509 -38.25 0
    endloop
  endfacet
  facet normal 0 0 -1
    outer loop
      vertex -4.70378 44.7535 0
      vertex 0 76.5 0
      vertex 0 45 0
    endloop
  endfacet
  facet normal 0 0 -1
    outer loop
      vertex -4.70378 44.7535 0
      vertex -7.99643 76.0809 0
      vertex 0 76.5 0
    endloop
  endfacet
  facet normal 0 0 -1
    outer loop
      vertex -9.35603 44.0166 0
      vertex -7.99643 76.0809 0
      vertex -4.70378 44.7535 0
    endloop
  endfacet
  facet normal 0 0 -1
    outer loop
      vertex -15.9052 74.8283 0
      vertex -9.35603 44.0166 0
      vertex -13.9058 42.7975 0
    endloop
  endfacet
  facet normal 0 0 -1
    outer loop
      vertex -9.35603 44.0166 0
      vertex -15.9052 74.8283 0
      vertex -7.99643 76.0809 0
    endloop
  endfacet
  facet normal 0 0 -1
    outer loop
      vertex -23.6398 72.7558 0
      vertex -13.9058 42.7975 0
      vertex -18.3031 41.1095 0
    endloop
  endfacet
  facet normal 0 0 -1
    outer loop
      vertex -31.1154 69.8862 0
      vertex -18.3031 41.1095 0
      vertex -22.5 38.9711 0
    endloop
  endfacet
  facet normal 0 0 -1
    outer loop
      vertex -13.9058 42.7975 0
      vertex -23.6398 72.7558 0
      vertex -15.9052 74.8283 0
    endloop
  endfacet
  facet normal 0 0 -1
    outer loop
      vertex -38.25 66.2509 0
      vertex -22.5 38.9711 0
      vertex -26.4503 36.4058 0
    endloop
  endfacet
  facet normal 0 0 -1
    outer loop
      vertex -44.9656 61.8898 0
      vertex -26.4503 36.4058 0
      vertex -30.1109 33.4415 0
    endloop
  endfacet
  facet normal 0 0 -1
    outer loop
      vertex -18.3031 41.1095 0
      vertex -31.1154 69.8862 0
      vertex -23.6398 72.7558 0
    endloop
  endfacet
  facet normal 0 0 -1
    outer loop
      vertex -51.1885 56.8506 0
      vertex -30.1109 33.4415 0
      vertex -33.4415 30.1109 0
    endloop
  endfacet
  facet normal 0 0 -1
    outer loop
      vertex -56.8506 51.1885 0
      vertex -33.4415 30.1109 0
      vertex -36.4058 26.4503 0
    endloop
  endfacet
  facet normal 0 0 -1
    outer loop
      vertex -22.5 38.9711 0
      vertex -38.25 66.2509 0
      vertex -31.1154 69.8862 0
    endloop
  endfacet
  facet normal 0 0 -1
    outer loop
      vertex -61.8898 44.9656 0
      vertex -36.4058 26.4503 0
      vertex -38.9711 22.5 0
    endloop
  endfacet
  facet normal 0 0 -1
    outer loop
      vertex -66.2509 38.25 0
      vertex -38.9711 22.5 0
      vertex -41.1095 18.3031 0
    endloop
  endfacet
  facet normal 0 0 -1
    outer loop
      vertex -69.8862 31.1154 0
      vertex -41.1095 18.3031 0
      vertex -42.7975 13.9058 0
    endloop
  endfacet
  facet normal 0 0 -1
    outer loop
      vertex -72.7558 23.6398 0
      vertex -42.7975 13.9058 0
      vertex -44.0166 9.35603 0
    endloop
  endfacet
  facet normal 0 0 -1
    outer loop
      vertex -74.8283 15.9052 0
      vertex -44.0166 9.35603 0
      vertex -44.7535 4.70378 0
    endloop
  endfacet
  facet normal 0 0 -1
    outer loop
      vertex -26.4503 36.4058 0
      vertex -44.9656 61.8898 0
      vertex -38.25 66.2509 0
    endloop
  endfacet
  facet normal 0 0 -1
    outer loop
      vertex -76.0809 7.99643 0
      vertex -44.7535 4.70378 0
      vertex -45 0 0
    endloop
  endfacet
  facet normal -0 0 -1
    outer loop
      vertex -41.1095 -18.3031 0
      vertex -69.8862 -31.1154 0
      vertex -42.7975 -13.9058 0
    endloop
  endfacet
  facet normal 0 0 -1
    outer loop
      vertex -30.1109 33.4415 0
      vertex -51.1885 56.8506 0
      vertex -44.9656 61.8898 0
    endloop
  endfacet
  facet normal 0 0 -1
    outer loop
      vertex -72.7558 -23.6398 0
      vertex -42.7975 -13.9058 0
      vertex -69.8862 -31.1154 0
    endloop
  endfacet
  facet normal 0 0 -1
    outer loop
      vertex -33.4415 30.1109 0
      vertex -56.8506 51.1885 0
      vertex -51.1885 56.8506 0
    endloop
  endfacet
  facet normal -0 0 -1
    outer loop
      vertex -42.7975 -13.9058 0
      vertex -72.7558 -23.6398 0
      vertex -44.0166 -9.35603 0
    endloop
  endfacet
  facet normal 0 0 -1
    outer loop
      vertex -36.4058 26.4503 0
      vertex -61.8898 44.9656 0
      vertex -56.8506 51.1885 0
    endloop
  endfacet
  facet normal 0 0 -1
    outer loop
      vertex -74.8283 -15.9052 0
      vertex -44.0166 -9.35603 0
      vertex -72.7558 -23.6398 0
    endloop
  endfacet
  facet normal 0 0 -1
    outer loop
      vertex -38.9711 22.5 0
      vertex -66.2509 38.25 0
      vertex -61.8898 44.9656 0
    endloop
  endfacet
  facet normal -0 0 -1
    outer loop
      vertex -44.0166 -9.35603 0
      vertex -74.8283 -15.9052 0
      vertex -44.7535 -4.70378 0
    endloop
  endfacet
  facet normal 0 0 -1
    outer loop
      vertex -41.1095 18.3031 0
      vertex -69.8862 31.1154 0
      vertex -66.2509 38.25 0
    endloop
  endfacet
  facet normal 0 0 -1
    outer loop
      vertex -76.0809 -7.99643 0
      vertex -44.7535 -4.70378 0
      vertex -74.8283 -15.9052 0
    endloop
  endfacet
  facet normal 0 0 -1
    outer loop
      vertex -42.7975 13.9058 0
      vertex -72.7558 23.6398 0
      vertex -69.8862 31.1154 0
    endloop
  endfacet
  facet normal -0 0 -1
    outer loop
      vertex -44.7535 -4.70378 0
      vertex -76.0809 -7.99643 0
      vertex -45 0 0
    endloop
  endfacet
  facet normal 0 0 -1
    outer loop
      vertex -44.0166 9.35603 0
      vertex -74.8283 15.9052 0
      vertex -72.7558 23.6398 0
    endloop
  endfacet
  facet normal 0 0 -1
    outer loop
      vertex -76.5 0 0
      vertex -45 0 0
      vertex -76.0809 -7.99643 0
    endloop
  endfacet
  facet normal 0 0 -1
    outer loop
      vertex -44.7535 4.70378 0
      vertex -76.0809 7.99643 0
      vertex -74.8283 15.9052 0
    endloop
  endfacet
  facet normal 0 0 -1
    outer loop
      vertex -45 0 0
      vertex -76.5 0 0
      vertex -76.0809 7.99643 0
    endloop
  endfacet
  facet normal -0.838674 0.544634 0
    outer loop
      vertex -66.2509 38.25 0
      vertex -61.8898 44.9656 5
      vertex -61.8898 44.9656 0
    endloop
  endfacet
  facet normal -0.838674 0.544634 0
    outer loop
      vertex -61.8898 44.9656 5
      vertex -66.2509 38.25 0
      vertex -66.2509 38.25 5
    endloop
  endfacet
  facet normal -0.777146 0.62932 0
    outer loop
      vertex -61.8898 44.9656 0
      vertex -56.8506 51.1885 5
      vertex -56.8506 51.1885 0
    endloop
  endfacet
  facet normal -0.777146 0.62932 0
    outer loop
      vertex -56.8506 51.1885 5
      vertex -61.8898 44.9656 0
      vertex -61.8898 44.9656 5
    endloop
  endfacet
  facet normal -0.0523391 0.998629 0
    outer loop
      vertex 0 76.5 0
      vertex -7.99643 76.0809 5
      vertex 0 76.5 5
    endloop
  endfacet
  facet normal -0.0523391 0.998629 0
    outer loop
      vertex -7.99643 76.0809 5
      vertex 0 76.5 0
      vertex -7.99643 76.0809 0
    endloop
  endfacet
  facet normal -0.358366 -0.933581 0
    outer loop
      vertex -31.1154 -69.8862 0
      vertex -23.6398 -72.7558 5
      vertex -31.1154 -69.8862 5
    endloop
  endfacet
  facet normal -0.358366 -0.933581 -0
    outer loop
      vertex -23.6398 -72.7558 5
      vertex -31.1154 -69.8862 0
      vertex -23.6398 -72.7558 0
    endloop
  endfacet
  facet normal -0.777146 -0.62932 0
    outer loop
      vertex -56.8506 -51.1885 0
      vertex -61.8898 -44.9656 5
      vertex -61.8898 -44.9656 0
    endloop
  endfacet
  facet normal -0.777146 -0.62932 0
    outer loop
      vertex -61.8898 -44.9656 5
      vertex -56.8506 -51.1885 0
      vertex -56.8506 -51.1885 5
    endloop
  endfacet
  facet normal -0.838674 -0.544634 0
    outer loop
      vertex -61.8898 -44.9656 0
      vertex -66.2509 -38.25 5
      vertex -66.2509 -38.25 0
    endloop
  endfacet
  facet normal -0.838674 -0.544634 0
    outer loop
      vertex -66.2509 -38.25 5
      vertex -61.8898 -44.9656 0
      vertex -61.8898 -44.9656 5
    endloop
  endfacet
  facet normal -0.998629 -0.0523391 0
    outer loop
      vertex -76.0809 -7.99643 0
      vertex -76.5 0 5
      vertex -76.5 0 0
    endloop
  endfacet
  facet normal -0.998629 -0.0523391 0
    outer loop
      vertex -76.5 0 5
      vertex -76.0809 -7.99643 0
      vertex -76.0809 -7.99643 5
    endloop
  endfacet
  facet normal -0.965925 0.258821 0
    outer loop
      vertex -74.8283 15.9052 0
      vertex -72.7558 23.6398 5
      vertex -72.7558 23.6398 0
    endloop
  endfacet
  facet normal -0.965925 0.258821 0
    outer loop
      vertex -72.7558 23.6398 5
      vertex -74.8283 15.9052 0
      vertex -74.8283 15.9052 5
    endloop
  endfacet
  facet normal -0.707107 0.707107 0
    outer loop
      vertex -56.8506 51.1885 0
      vertex -51.1885 56.8506 5
      vertex -51.1885 56.8506 0
    endloop
  endfacet
  facet normal -0.707107 0.707107 0
    outer loop
      vertex -51.1885 56.8506 5
      vertex -56.8506 51.1885 0
      vertex -56.8506 51.1885 5
    endloop
  endfacet
  facet normal -0.891005 0.453994 0
    outer loop
      vertex -69.8862 31.1154 0
      vertex -66.2509 38.25 5
      vertex -66.2509 38.25 0
    endloop
  endfacet
  facet normal -0.891005 0.453994 0
    outer loop
      vertex -66.2509 38.25 5
      vertex -69.8862 31.1154 0
      vertex -69.8862 31.1154 5
    endloop
  endfacet
  facet normal -0.987689 0.156431 0
    outer loop
      vertex -76.0809 7.99643 0
      vertex -74.8283 15.9052 5
      vertex -74.8283 15.9052 0
    endloop
  endfacet
  facet normal -0.987689 0.156431 0
    outer loop
      vertex -74.8283 15.9052 5
      vertex -76.0809 7.99643 0
      vertex -76.0809 7.99643 5
    endloop
  endfacet
  facet normal 0 0 1
    outer loop
      vertex 0 75 2
      vertex -4.70378 44.7535 2
      vertex 0 45 2
    endloop
  endfacet
  facet normal -0 0 1
    outer loop
      vertex -7.83963 74.5891 2
      vertex -4.70378 44.7535 2
      vertex 0 75 2
    endloop
  endfacet
  facet normal 0 0 1
    outer loop
      vertex -7.83963 74.5891 2
      vertex -9.35603 44.0166 2
      vertex -4.70378 44.7535 2
    endloop
  endfacet
  facet normal -0 0 1
    outer loop
      vertex -15.5934 73.3611 2
      vertex -9.35603 44.0166 2
      vertex -7.83963 74.5891 2
    endloop
  endfacet
  facet normal 0 0 1
    outer loop
      vertex -9.35603 44.0166 2
      vertex -15.5934 73.3611 2
      vertex -13.9058 42.7975 2
    endloop
  endfacet
  facet normal -0 0 1
    outer loop
      vertex -23.1763 71.3292 2
      vertex -13.9058 42.7975 2
      vertex -15.5934 73.3611 2
    endloop
  endfacet
  facet normal 0 0 1
    outer loop
      vertex -13.9058 42.7975 2
      vertex -23.1763 71.3292 2
      vertex -18.3031 41.1095 2
    endloop
  endfacet
  facet normal -0 0 1
    outer loop
      vertex -30.5052 68.5159 2
      vertex -18.3031 41.1095 2
      vertex -23.1763 71.3292 2
    endloop
  endfacet
  facet normal 0 0 1
    outer loop
      vertex -18.3031 41.1095 2
      vertex -30.5052 68.5159 2
      vertex -22.5 38.9711 2
    endloop
  endfacet
  facet normal -0 0 1
    outer loop
      vertex -37.5 64.9519 2
      vertex -22.5 38.9711 2
      vertex -30.5052 68.5159 2
    endloop
  endfacet
  facet normal 0 0 1
    outer loop
      vertex -22.5 38.9711 2
      vertex -37.5 64.9519 2
      vertex -26.4503 36.4058 2
    endloop
  endfacet
  facet normal -0 0 1
    outer loop
      vertex -44.0839 60.6763 2
      vertex -26.4503 36.4058 2
      vertex -37.5 64.9519 2
    endloop
  endfacet
  facet normal 0 0 1
    outer loop
      vertex -26.4503 36.4058 2
      vertex -44.0839 60.6763 2
      vertex -30.1109 33.4415 2
    endloop
  endfacet
  facet normal -0 0 1
    outer loop
      vertex -50.1848 55.7359 2
      vertex -30.1109 33.4415 2
      vertex -44.0839 60.6763 2
    endloop
  endfacet
  facet normal 0 0 1
    outer loop
      vertex -30.1109 33.4415 2
      vertex -50.1848 55.7359 2
      vertex -33.4415 30.1109 2
    endloop
  endfacet
  facet normal -0 0 1
    outer loop
      vertex -55.7359 50.1848 2
      vertex -33.4415 30.1109 2
      vertex -50.1848 55.7359 2
    endloop
  endfacet
  facet normal 0 0 1
    outer loop
      vertex -33.4415 30.1109 2
      vertex -55.7359 50.1848 2
      vertex -36.4058 26.4503 2
    endloop
  endfacet
  facet normal -0 0 1
    outer loop
      vertex -60.6763 44.0839 2
      vertex -36.4058 26.4503 2
      vertex -55.7359 50.1848 2
    endloop
  endfacet
  facet normal 0 0 1
    outer loop
      vertex -36.4058 26.4503 2
      vertex -60.6763 44.0839 2
      vertex -38.9711 22.5 2
    endloop
  endfacet
  facet normal -0 0 1
    outer loop
      vertex -64.9519 37.5 2
      vertex -38.9711 22.5 2
      vertex -60.6763 44.0839 2
    endloop
  endfacet
  facet normal 0 0 1
    outer loop
      vertex -38.9711 22.5 2
      vertex -64.9519 37.5 2
      vertex -41.1095 18.3031 2
    endloop
  endfacet
  facet normal -0 0 1
    outer loop
      vertex -68.5159 30.5052 2
      vertex -41.1095 18.3031 2
      vertex -64.9519 37.5 2
    endloop
  endfacet
  facet normal 0 0 1
    outer loop
      vertex -4.70378 -44.7535 2
      vertex 0 -75 2
      vertex 0 -45 2
    endloop
  endfacet
  facet normal 0 0 1
    outer loop
      vertex -4.70378 -44.7535 2
      vertex -7.83963 -74.5891 2
      vertex 0 -75 2
    endloop
  endfacet
  facet normal 0 0 1
    outer loop
      vertex -9.35603 -44.0166 2
      vertex -7.83963 -74.5891 2
      vertex -4.70378 -44.7535 2
    endloop
  endfacet
  facet normal 0 0 1
    outer loop
      vertex -15.5934 -73.3611 2
      vertex -9.35603 -44.0166 2
      vertex -13.9058 -42.7975 2
    endloop
  endfacet
  facet normal 0 0 1
    outer loop
      vertex -9.35603 -44.0166 2
      vertex -15.5934 -73.3611 2
      vertex -7.83963 -74.5891 2
    endloop
  endfacet
  facet normal 0 0 1
    outer loop
      vertex -23.1763 -71.3292 2
      vertex -13.9058 -42.7975 2
      vertex -18.3031 -41.1095 2
    endloop
  endfacet
  facet normal 0 0 1
    outer loop
      vertex -30.5052 -68.5159 2
      vertex -18.3031 -41.1095 2
      vertex -22.5 -38.9711 2
    endloop
  endfacet
  facet normal 0 0 1
    outer loop
      vertex -13.9058 -42.7975 2
      vertex -23.1763 -71.3292 2
      vertex -15.5934 -73.3611 2
    endloop
  endfacet
  facet normal 0 0 1
    outer loop
      vertex -37.5 -64.9519 2
      vertex -22.5 -38.9711 2
      vertex -26.4503 -36.4058 2
    endloop
  endfacet
  facet normal 0 0 1
    outer loop
      vertex -44.0839 -60.6763 2
      vertex -26.4503 -36.4058 2
      vertex -30.1109 -33.4415 2
    endloop
  endfacet
  facet normal 0 0 1
    outer loop
      vertex -18.3031 -41.1095 2
      vertex -30.5052 -68.5159 2
      vertex -23.1763 -71.3292 2
    endloop
  endfacet
  facet normal 0 0 1
    outer loop
      vertex -50.1848 -55.7359 2
      vertex -30.1109 -33.4415 2
      vertex -33.4415 -30.1109 2
    endloop
  endfacet
  facet normal 0 0 1
    outer loop
      vertex -55.7359 -50.1848 2
      vertex -33.4415 -30.1109 2
      vertex -36.4058 -26.4503 2
    endloop
  endfacet
  facet normal 0 0 1
    outer loop
      vertex -22.5 -38.9711 2
      vertex -37.5 -64.9519 2
      vertex -30.5052 -68.5159 2
    endloop
  endfacet
  facet normal 0 0 1
    outer loop
      vertex -60.6763 -44.0839 2
      vertex -36.4058 -26.4503 2
      vertex -38.9711 -22.5 2
    endloop
  endfacet
  facet normal 0 0 1
    outer loop
      vertex -64.9519 -37.5 2
      vertex -38.9711 -22.5 2
      vertex -41.1095 -18.3031 2
    endloop
  endfacet
  facet normal 0 0 1
    outer loop
      vertex -68.5159 -30.5052 2
      vertex -41.1095 -18.3031 2
      vertex -42.7975 -13.9058 2
    endloop
  endfacet
  facet normal 0 0 1
    outer loop
      vertex -71.3292 -23.1763 2
      vertex -42.7975 -13.9058 2
      vertex -44.0166 -9.35603 2
    endloop
  endfacet
  facet normal 0 0 1
    outer loop
      vertex -26.4503 -36.4058 2
      vertex -44.0839 -60.6763 2
      vertex -37.5 -64.9519 2
    endloop
  endfacet
  facet normal 0 0 1
    outer loop
      vertex -73.3611 -15.5934 2
      vertex -44.0166 -9.35603 2
      vertex -44.7535 -4.70378 2
    endloop
  endfacet
  facet normal 0 0 1
    outer loop
      vertex -74.5891 -7.83963 2
      vertex -44.7535 -4.70378 2
      vertex -45 0 2
    endloop
  endfacet
  facet normal 0 0 1
    outer loop
      vertex -41.1095 18.3031 2
      vertex -68.5159 30.5052 2
      vertex -42.7975 13.9058 2
    endloop
  endfacet
  facet normal 0 0 1
    outer loop
      vertex -30.1109 -33.4415 2
      vertex -50.1848 -55.7359 2
      vertex -44.0839 -60.6763 2
    endloop
  endfacet
  facet normal -0 0 1
    outer loop
      vertex -71.3292 23.1763 2
      vertex -42.7975 13.9058 2
      vertex -68.5159 30.5052 2
    endloop
  endfacet
  facet normal 0 0 1
    outer loop
      vertex -33.4415 -30.1109 2
      vertex -55.7359 -50.1848 2
      vertex -50.1848 -55.7359 2
    endloop
  endfacet
  facet normal 0 0 1
    outer loop
      vertex -42.7975 13.9058 2
      vertex -71.3292 23.1763 2
      vertex -44.0166 9.35603 2
    endloop
  endfacet
  facet normal 0 0 1
    outer loop
      vertex -36.4058 -26.4503 2
      vertex -60.6763 -44.0839 2
      vertex -55.7359 -50.1848 2
    endloop
  endfacet
  facet normal -0 0 1
    outer loop
      vertex -73.3611 15.5934 2
      vertex -44.0166 9.35603 2
      vertex -71.3292 23.1763 2
    endloop
  endfacet
  facet normal 0 0 1
    outer loop
      vertex -38.9711 -22.5 2
      vertex -64.9519 -37.5 2
      vertex -60.6763 -44.0839 2
    endloop
  endfacet
  facet normal 0 0 1
    outer loop
      vertex -44.0166 9.35603 2
      vertex -73.3611 15.5934 2
      vertex -44.7535 4.70378 2
    endloop
  endfacet
  facet normal 0 0 1
    outer loop
      vertex -41.1095 -18.3031 2
      vertex -68.5159 -30.5052 2
      vertex -64.9519 -37.5 2
    endloop
  endfacet
  facet normal -0 0 1
    outer loop
      vertex -74.5891 7.83963 2
      vertex -44.7535 4.70378 2
      vertex -73.3611 15.5934 2
    endloop
  endfacet
  facet normal 0 0 1
    outer loop
      vertex -42.7975 -13.9058 2
      vertex -71.3292 -23.1763 2
      vertex -68.5159 -30.5052 2
    endloop
  endfacet
  facet normal 0 0 1
    outer loop
      vertex -44.7535 4.70378 2
      vertex -74.5891 7.83963 2
      vertex -45 0 2
    endloop
  endfacet
  facet normal 0 0 1
    outer loop
      vertex -44.0166 -9.35603 2
      vertex -73.3611 -15.5934 2
      vertex -71.3292 -23.1763 2
    endloop
  endfacet
  facet normal 0 0 1
    outer loop
      vertex -75 0 2
      vertex -45 0 2
      vertex -74.5891 7.83963 2
    endloop
  endfacet
  facet normal 0 0 1
    outer loop
      vertex -44.7535 -4.70378 2
      vertex -74.5891 -7.83963 2
      vertex -73.3611 -15.5934 2
    endloop
  endfacet
  facet normal 0 0 1
    outer loop
      vertex -45 0 2
      vertex -75 0 2
      vertex -74.5891 -7.83963 2
    endloop
  endfacet
  facet normal -0.453994 0.891005 0
    outer loop
      vertex -31.1154 69.8862 0
      vertex -38.25 66.2509 5
      vertex -31.1154 69.8862 5
    endloop
  endfacet
  facet normal -0.453994 0.891005 0
    outer loop
      vertex -38.25 66.2509 5
      vertex -31.1154 69.8862 0
      vertex -38.25 66.2509 0
    endloop
  endfacet
  facet normal -0.544634 0.838674 0
    outer loop
      vertex -38.25 66.2509 0
      vertex -44.9656 61.8898 5
      vertex -38.25 66.2509 5
    endloop
  endfacet
  facet normal -0.544634 0.838674 0
    outer loop
      vertex -44.9656 61.8898 5
      vertex -38.25 66.2509 0
      vertex -44.9656 61.8898 0
    endloop
  endfacet
  facet normal -0.156431 0.987689 0
    outer loop
      vertex -7.99643 76.0809 0
      vertex -15.9052 74.8283 5
      vertex -7.99643 76.0809 5
    endloop
  endfacet
  facet normal -0.156431 0.987689 0
    outer loop
      vertex -15.9052 74.8283 5
      vertex -7.99643 76.0809 0
      vertex -15.9052 74.8283 0
    endloop
  endfacet
  facet normal -0.707107 -0.707107 0
    outer loop
      vertex -51.1885 -56.8506 0
      vertex -56.8506 -51.1885 5
      vertex -56.8506 -51.1885 0
    endloop
  endfacet
  facet normal -0.707107 -0.707107 0
    outer loop
      vertex -56.8506 -51.1885 5
      vertex -51.1885 -56.8506 0
      vertex -51.1885 -56.8506 5
    endloop
  endfacet
  facet normal -0.62932 -0.777146 0
    outer loop
      vertex -51.1885 -56.8506 0
      vertex -44.9656 -61.8898 5
      vertex -51.1885 -56.8506 5
    endloop
  endfacet
  facet normal -0.62932 -0.777146 -0
    outer loop
      vertex -44.9656 -61.8898 5
      vertex -51.1885 -56.8506 0
      vertex -44.9656 -61.8898 0
    endloop
  endfacet
  facet normal -0.544634 -0.838674 0
    outer loop
      vertex -44.9656 -61.8898 0
      vertex -38.25 -66.2509 5
      vertex -44.9656 -61.8898 5
    endloop
  endfacet
  facet normal -0.544634 -0.838674 -0
    outer loop
      vertex -38.25 -66.2509 5
      vertex -44.9656 -61.8898 0
      vertex -38.25 -66.2509 0
    endloop
  endfacet
  facet normal -0.156431 -0.987689 0
    outer loop
      vertex -15.9052 -74.8283 0
      vertex -7.99643 -76.0809 5
      vertex -15.9052 -74.8283 5
    endloop
  endfacet
  facet normal -0.156431 -0.987689 -0
    outer loop
      vertex -7.99643 -76.0809 5
      vertex -15.9052 -74.8283 0
      vertex -7.99643 -76.0809 0
    endloop
  endfacet
  facet normal -0.933581 -0.358366 0
    outer loop
      vertex -69.8862 -31.1154 0
      vertex -72.7558 -23.6398 5
      vertex -72.7558 -23.6398 0
    endloop
  endfacet
  facet normal -0.933581 -0.358366 0
    outer loop
      vertex -72.7558 -23.6398 5
      vertex -69.8862 -31.1154 0
      vertex -69.8862 -31.1154 5
    endloop
  endfacet
  facet normal -0.933581 0.358366 0
    outer loop
      vertex -72.7558 23.6398 0
      vertex -69.8862 31.1154 5
      vertex -69.8862 31.1154 0
    endloop
  endfacet
  facet normal -0.933581 0.358366 0
    outer loop
      vertex -69.8862 31.1154 5
      vertex -72.7558 23.6398 0
      vertex -72.7558 23.6398 5
    endloop
  endfacet
  facet normal -0.358366 0.933581 0
    outer loop
      vertex -23.6398 72.7558 0
      vertex -31.1154 69.8862 5
      vertex -23.6398 72.7558 5
    endloop
  endfacet
  facet normal -0.358366 0.933581 0
    outer loop
      vertex -31.1154 69.8862 5
      vertex -23.6398 72.7558 0
      vertex -31.1154 69.8862 0
    endloop
  endfacet
  facet normal -0.453994 -0.891005 0
    outer loop
      vertex -38.25 -66.2509 0
      vertex -31.1154 -69.8862 5
      vertex -38.25 -66.2509 5
    endloop
  endfacet
  facet normal -0.453994 -0.891005 -0
    outer loop
      vertex -31.1154 -69.8862 5
      vertex -38.25 -66.2509 0
      vertex -31.1154 -69.8862 0
    endloop
  endfacet
  facet normal -0.258821 -0.965925 0
    outer loop
      vertex -23.6398 -72.7558 0
      vertex -15.9052 -74.8283 5
      vertex -23.6398 -72.7558 5
    endloop
  endfacet
  facet normal -0.258821 -0.965925 -0
    outer loop
      vertex -15.9052 -74.8283 5
      vertex -23.6398 -72.7558 0
      vertex -15.9052 -74.8283 0
    endloop
  endfacet
  facet normal -0.891005 -0.453994 0
    outer loop
      vertex -66.2509 -38.25 0
      vertex -69.8862 -31.1154 5
      vertex -69.8862 -31.1154 0
    endloop
  endfacet
  facet normal -0.891005 -0.453994 0
    outer loop
      vertex -69.8862 -31.1154 5
      vertex -66.2509 -38.25 0
      vertex -66.2509 -38.25 5
    endloop
  endfacet
  facet normal -0.965925 -0.258821 0
    outer loop
      vertex -72.7558 -23.6398 0
      vertex -74.8283 -15.9052 5
      vertex -74.8283 -15.9052 0
    endloop
  endfacet
  facet normal -0.965925 -0.258821 0
    outer loop
      vertex -74.8283 -15.9052 5
      vertex -72.7558 -23.6398 0
      vertex -72.7558 -23.6398 5
    endloop
  endfacet
  facet normal 0.99863 -0.0523329 0
    outer loop
      vertex -45 0 2
      vertex -44.7535 4.70378 0
      vertex -44.7535 4.70378 2
    endloop
  endfacet
  facet normal 0.99863 -0.0523329 0
    outer loop
      vertex -44.7535 4.70378 0
      vertex -45 0 2
      vertex -45 0 0
    endloop
  endfacet
  facet normal 0.629321 -0.777145 0
    outer loop
      vertex -30.1109 33.4415 0
      vertex -26.4503 36.4058 2
      vertex -30.1109 33.4415 2
    endloop
  endfacet
  facet normal 0.629321 -0.777145 0
    outer loop
      vertex -26.4503 36.4058 2
      vertex -30.1109 33.4415 0
      vertex -26.4503 36.4058 0
    endloop
  endfacet
  facet normal 0.258818 -0.965926 0
    outer loop
      vertex -13.9058 42.7975 0
      vertex -9.35603 44.0166 2
      vertex -13.9058 42.7975 2
    endloop
  endfacet
  facet normal 0.258818 -0.965926 0
    outer loop
      vertex -9.35603 44.0166 2
      vertex -13.9058 42.7975 0
      vertex -9.35603 44.0166 0
    endloop
  endfacet
  facet normal 0.891009 -0.453986 0
    outer loop
      vertex -41.1095 18.3031 2
      vertex -38.9711 22.5 0
      vertex -38.9711 22.5 2
    endloop
  endfacet
  facet normal 0.891009 -0.453986 0
    outer loop
      vertex -38.9711 22.5 0
      vertex -41.1095 18.3031 2
      vertex -41.1095 18.3031 0
    endloop
  endfacet
  facet normal 0.156446 -0.987687 0
    outer loop
      vertex -9.35603 44.0166 0
      vertex -4.70378 44.7535 2
      vertex -9.35603 44.0166 2
    endloop
  endfacet
  facet normal 0.156446 -0.987687 0
    outer loop
      vertex -4.70378 44.7535 2
      vertex -9.35603 44.0166 0
      vertex -4.70378 44.7535 0
    endloop
  endfacet
  facet normal 0.965926 -0.258818 0
    outer loop
      vertex -44.0166 9.35603 2
      vertex -42.7975 13.9058 0
      vertex -42.7975 13.9058 2
    endloop
  endfacet
  facet normal 0.965926 -0.258818 0
    outer loop
      vertex -42.7975 13.9058 0
      vertex -44.0166 9.35603 2
      vertex -44.0166 9.35603 0
    endloop
  endfacet
  facet normal 0.777145 -0.629321 0
    outer loop
      vertex -36.4058 26.4503 2
      vertex -33.4415 30.1109 0
      vertex -33.4415 30.1109 2
    endloop
  endfacet
  facet normal 0.777145 -0.629321 0
    outer loop
      vertex -33.4415 30.1109 0
      vertex -36.4058 26.4503 2
      vertex -36.4058 26.4503 0
    endloop
  endfacet
  facet normal 0.707107 -0.707107 0
    outer loop
      vertex -33.4415 30.1109 2
      vertex -30.1109 33.4415 0
      vertex -30.1109 33.4415 2
    endloop
  endfacet
  facet normal 0.707107 -0.707107 0
    outer loop
      vertex -30.1109 33.4415 0
      vertex -33.4415 30.1109 2
      vertex -33.4415 30.1109 0
    endloop
  endfacet
  facet normal 0.838676 -0.544631 0
    outer loop
      vertex -38.9711 22.5 2
      vertex -36.4058 26.4503 0
      vertex -36.4058 26.4503 2
    endloop
  endfacet
  facet normal 0.838676 -0.544631 0
    outer loop
      vertex -36.4058 26.4503 0
      vertex -38.9711 22.5 2
      vertex -38.9711 22.5 0
    endloop
  endfacet
  facet normal 0.933578 -0.358374 0
    outer loop
      vertex -42.7975 13.9058 2
      vertex -41.1095 18.3031 0
      vertex -41.1095 18.3031 2
    endloop
  endfacet
  facet normal 0.933578 -0.358374 0
    outer loop
      vertex -41.1095 18.3031 0
      vertex -42.7975 13.9058 2
      vertex -42.7975 13.9058 0
    endloop
  endfacet
  facet normal 0.987687 -0.156446 0
    outer loop
      vertex -44.7535 4.70378 2
      vertex -44.0166 9.35603 0
      vertex -44.0166 9.35603 2
    endloop
  endfacet
  facet normal 0.987687 -0.156446 0
    outer loop
      vertex -44.0166 9.35603 0
      vertex -44.7535 4.70378 2
      vertex -44.7535 4.70378 0
    endloop
  endfacet
  facet normal 0.453986 -0.891009 0
    outer loop
      vertex -22.5 38.9711 0
      vertex -18.3031 41.1095 2
      vertex -22.5 38.9711 2
    endloop
  endfacet
  facet normal 0.453986 -0.891009 0
    outer loop
      vertex -18.3031 41.1095 2
      vertex -22.5 38.9711 0
      vertex -18.3031 41.1095 0
    endloop
  endfacet
  facet normal 0.358374 -0.933578 0
    outer loop
      vertex -18.3031 41.1095 0
      vertex -13.9058 42.7975 2
      vertex -18.3031 41.1095 2
    endloop
  endfacet
  facet normal 0.358374 -0.933578 0
    outer loop
      vertex -13.9058 42.7975 2
      vertex -18.3031 41.1095 0
      vertex -13.9058 42.7975 0
    endloop
  endfacet
  facet normal 0.544631 -0.838676 0
    outer loop
      vertex -26.4503 36.4058 0
      vertex -22.5 38.9711 2
      vertex -26.4503 36.4058 2
    endloop
  endfacet
  facet normal 0.544631 -0.838676 0
    outer loop
      vertex -22.5 38.9711 2
      vertex -26.4503 36.4058 0
      vertex -22.5 38.9711 0
    endloop
  endfacet
  facet normal 0.0523329 -0.99863 0
    outer loop
      vertex -4.70378 44.7535 0
      vertex 0 45 2
      vertex -4.70378 44.7535 2
    endloop
  endfacet
  facet normal 0.0523329 -0.99863 0
    outer loop
      vertex 0 45 2
      vertex -4.70378 44.7535 0
      vertex 0 45 0
    endloop
  endfacet
  facet normal 0.707107 0.707107 0
    outer loop
      vertex -30.1109 -33.4415 2
      vertex -33.4415 -30.1109 0
      vertex -33.4415 -30.1109 2
    endloop
  endfacet
  facet normal 0.707107 0.707107 0
    outer loop
      vertex -33.4415 -30.1109 0
      vertex -30.1109 -33.4415 2
      vertex -30.1109 -33.4415 0
    endloop
  endfacet
  facet normal 0.544631 0.838676 -0
    outer loop
      vertex -22.5 -38.9711 0
      vertex -26.4503 -36.4058 2
      vertex -22.5 -38.9711 2
    endloop
  endfacet
  facet normal 0.544631 0.838676 0
    outer loop
      vertex -26.4503 -36.4058 2
      vertex -22.5 -38.9711 0
      vertex -26.4503 -36.4058 0
    endloop
  endfacet
  facet normal 0.358374 0.933578 -0
    outer loop
      vertex -13.9058 -42.7975 0
      vertex -18.3031 -41.1095 2
      vertex -13.9058 -42.7975 2
    endloop
  endfacet
  facet normal 0.358374 0.933578 0
    outer loop
      vertex -18.3031 -41.1095 2
      vertex -13.9058 -42.7975 0
      vertex -18.3031 -41.1095 0
    endloop
  endfacet
  facet normal 0.156446 0.987687 -0
    outer loop
      vertex -4.70378 -44.7535 0
      vertex -9.35603 -44.0166 2
      vertex -4.70378 -44.7535 2
    endloop
  endfacet
  facet normal 0.156446 0.987687 0
    outer loop
      vertex -9.35603 -44.0166 2
      vertex -4.70378 -44.7535 0
      vertex -9.35603 -44.0166 0
    endloop
  endfacet
  facet normal 0.933578 0.358374 0
    outer loop
      vertex -41.1095 -18.3031 2
      vertex -42.7975 -13.9058 0
      vertex -42.7975 -13.9058 2
    endloop
  endfacet
  facet normal 0.933578 0.358374 0
    outer loop
      vertex -42.7975 -13.9058 0
      vertex -41.1095 -18.3031 2
      vertex -41.1095 -18.3031 0
    endloop
  endfacet
  facet normal 0.838676 0.544631 0
    outer loop
      vertex -36.4058 -26.4503 2
      vertex -38.9711 -22.5 0
      vertex -38.9711 -22.5 2
    endloop
  endfacet
  facet normal 0.838676 0.544631 0
    outer loop
      vertex -38.9711 -22.5 0
      vertex -36.4058 -26.4503 2
      vertex -36.4058 -26.4503 0
    endloop
  endfacet
  facet normal 0.965926 0.258818 0
    outer loop
      vertex -42.7975 -13.9058 2
      vertex -44.0166 -9.35603 0
      vertex -44.0166 -9.35603 2
    endloop
  endfacet
  facet normal 0.965926 0.258818 0
    outer loop
      vertex -44.0166 -9.35603 0
      vertex -42.7975 -13.9058 2
      vertex -42.7975 -13.9058 0
    endloop
  endfacet
  facet normal 0.99863 0.0523329 0
    outer loop
      vertex -44.7535 -4.70378 2
      vertex -45 0 0
      vertex -45 0 2
    endloop
  endfacet
  facet normal 0.99863 0.0523329 0
    outer loop
      vertex -45 0 0
      vertex -44.7535 -4.70378 2
      vertex -44.7535 -4.70378 0
    endloop
  endfacet
  facet normal 0.629321 0.777145 -0
    outer loop
      vertex -26.4503 -36.4058 0
      vertex -30.1109 -33.4415 2
      vertex -26.4503 -36.4058 2
    endloop
  endfacet
  facet normal 0.629321 0.777145 0
    outer loop
      vertex -30.1109 -33.4415 2
      vertex -26.4503 -36.4058 0
      vertex -30.1109 -33.4415 0
    endloop
  endfacet
  facet normal 0.453986 0.891009 -0
    outer loop
      vertex -18.3031 -41.1095 0
      vertex -22.5 -38.9711 2
      vertex -18.3031 -41.1095 2
    endloop
  endfacet
  facet normal 0.453986 0.891009 0
    outer loop
      vertex -22.5 -38.9711 2
      vertex -18.3031 -41.1095 0
      vertex -22.5 -38.9711 0
    endloop
  endfacet
  facet normal 0.258818 0.965926 -0
    outer loop
      vertex -9.35603 -44.0166 0
      vertex -13.9058 -42.7975 2
      vertex -9.35603 -44.0166 2
    endloop
  endfacet
  facet normal 0.258818 0.965926 0
    outer loop
      vertex -13.9058 -42.7975 2
      vertex -9.35603 -44.0166 0
      vertex -13.9058 -42.7975 0
    endloop
  endfacet
  facet normal 0.0523329 0.99863 -0
    outer loop
      vertex 0 -45 0
      vertex -4.70378 -44.7535 2
      vertex 0 -45 2
    endloop
  endfacet
  facet normal 0.0523329 0.99863 0
    outer loop
      vertex -4.70378 -44.7535 2
      vertex 0 -45 0
      vertex -4.70378 -44.7535 0
    endloop
  endfacet
  facet normal 0.891009 0.453986 0
    outer loop
      vertex -38.9711 -22.5 2
      vertex -41.1095 -18.3031 0
      vertex -41.1095 -18.3031 2
    endloop
  endfacet
  facet normal 0.891009 0.453986 0
    outer loop
      vertex -41.1095 -18.3031 0
      vertex -38.9711 -22.5 2
      vertex -38.9711 -22.5 0
    endloop
  endfacet
  facet normal 0.777145 0.629321 0
    outer loop
      vertex -33.4415 -30.1109 2
      vertex -36.4058 -26.4503 0
      vertex -36.4058 -26.4503 2
    endloop
  endfacet
  facet normal 0.777145 0.629321 0
    outer loop
      vertex -36.4058 -26.4503 0
      vertex -33.4415 -30.1109 2
      vertex -33.4415 -30.1109 0
    endloop
  endfacet
  facet normal 0.987687 0.156446 0
    outer loop
      vertex -44.0166 -9.35603 2
      vertex -44.7535 -4.70378 0
      vertex -44.7535 -4.70378 2
    endloop
  endfacet
  facet normal 0.987687 0.156446 0
    outer loop
      vertex -44.7535 -4.70378 0
      vertex -44.0166 -9.35603 2
      vertex -44.0166 -9.35603 0
    endloop
  endfacet
  facet normal 0 0 1
    outer loop
      vertex 0 76.5 5
      vertex -7.83963 74.5891 5
      vertex 0 75 5
    endloop
  endfacet
  facet normal -0 0 1
    outer loop
      vertex -7.99643 76.0809 5
      vertex -7.83963 74.5891 5
      vertex 0 76.5 5
    endloop
  endfacet
  facet normal 0 0 1
    outer loop
      vertex -7.99643 76.0809 5
      vertex -15.5934 73.3611 5
      vertex -7.83963 74.5891 5
    endloop
  endfacet
  facet normal -0 0 1
    outer loop
      vertex -15.9052 74.8283 5
      vertex -15.5934 73.3611 5
      vertex -7.99643 76.0809 5
    endloop
  endfacet
  facet normal 0 0 1
    outer loop
      vertex -15.9052 74.8283 5
      vertex -23.1763 71.3292 5
      vertex -15.5934 73.3611 5
    endloop
  endfacet
  facet normal -0 0 1
    outer loop
      vertex -23.6398 72.7558 5
      vertex -23.1763 71.3292 5
      vertex -15.9052 74.8283 5
    endloop
  endfacet
  facet normal 0 0 1
    outer loop
      vertex -23.6398 72.7558 5
      vertex -30.5052 68.5159 5
      vertex -23.1763 71.3292 5
    endloop
  endfacet
  facet normal -0 0 1
    outer loop
      vertex -31.1154 69.8862 5
      vertex -30.5052 68.5159 5
      vertex -23.6398 72.7558 5
    endloop
  endfacet
  facet normal 0 0 1
    outer loop
      vertex -31.1154 69.8862 5
      vertex -37.5 64.9519 5
      vertex -30.5052 68.5159 5
    endloop
  endfacet
  facet normal -0 0 1
    outer loop
      vertex -38.25 66.2509 5
      vertex -37.5 64.9519 5
      vertex -31.1154 69.8862 5
    endloop
  endfacet
  facet normal 0 0 1
    outer loop
      vertex -38.25 66.2509 5
      vertex -44.0839 60.6763 5
      vertex -37.5 64.9519 5
    endloop
  endfacet
  facet normal -0 0 1
    outer loop
      vertex -44.9656 61.8898 5
      vertex -44.0839 60.6763 5
      vertex -38.25 66.2509 5
    endloop
  endfacet
  facet normal 0 0 1
    outer loop
      vertex -44.9656 61.8898 5
      vertex -50.1848 55.7359 5
      vertex -44.0839 60.6763 5
    endloop
  endfacet
  facet normal -0 0 1
    outer loop
      vertex -51.1885 56.8506 5
      vertex -50.1848 55.7359 5
      vertex -44.9656 61.8898 5
    endloop
  endfacet
  facet normal 0 0 1
    outer loop
      vertex -51.1885 56.8506 5
      vertex -55.7359 50.1848 5
      vertex -50.1848 55.7359 5
    endloop
  endfacet
  facet normal -0 0 1
    outer loop
      vertex -56.8506 51.1885 5
      vertex -55.7359 50.1848 5
      vertex -51.1885 56.8506 5
    endloop
  endfacet
  facet normal 0 0 1
    outer loop
      vertex -56.8506 51.1885 5
      vertex -60.6763 44.0839 5
      vertex -55.7359 50.1848 5
    endloop
  endfacet
  facet normal -0 0 1
    outer loop
      vertex -61.8898 44.9656 5
      vertex -60.6763 44.0839 5
      vertex -56.8506 51.1885 5
    endloop
  endfacet
  facet normal 0 0 1
    outer loop
      vertex -61.8898 44.9656 5
      vertex -64.9519 37.5 5
      vertex -60.6763 44.0839 5
    endloop
  endfacet
  facet normal -0 0 1
    outer loop
      vertex -66.2509 38.25 5
      vertex -64.9519 37.5 5
      vertex -61.8898 44.9656 5
    endloop
  endfacet
  facet normal 0 0 1
    outer loop
      vertex -66.2509 38.25 5
      vertex -68.5159 30.5052 5
      vertex -64.9519 37.5 5
    endloop
  endfacet
  facet normal -0 0 1
    outer loop
      vertex -69.8862 31.1154 5
      vertex -68.5159 30.5052 5
      vertex -66.2509 38.25 5
    endloop
  endfacet
  facet normal 0 0 1
    outer loop
      vertex -69.8862 31.1154 5
      vertex -71.3292 23.1763 5
      vertex -68.5159 30.5052 5
    endloop
  endfacet
  facet normal -0 0 1
    outer loop
      vertex -72.7558 23.6398 5
      vertex -71.3292 23.1763 5
      vertex -69.8862 31.1154 5
    endloop
  endfacet
  facet normal 0 0 1
    outer loop
      vertex -72.7558 23.6398 5
      vertex -73.3611 15.5934 5
      vertex -71.3292 23.1763 5
    endloop
  endfacet
  facet normal -0 0 1
    outer loop
      vertex -74.8283 15.9052 5
      vertex -73.3611 15.5934 5
      vertex -72.7558 23.6398 5
    endloop
  endfacet
  facet normal 0 0 1
    outer loop
      vertex -73.3611 15.5934 5
      vertex -74.8283 15.9052 5
      vertex -74.5891 7.83963 5
    endloop
  endfacet
  facet normal -0 0 1
    outer loop
      vertex -76.0809 7.99643 5
      vertex -74.5891 7.83963 5
      vertex -74.8283 15.9052 5
    endloop
  endfacet
  facet normal 0 0 1
    outer loop
      vertex -74.5891 7.83963 5
      vertex -76.0809 7.99643 5
      vertex -75 0 5
    endloop
  endfacet
  facet normal 0 0 1
    outer loop
      vertex -7.83963 -74.5891 5
      vertex 0 -76.5 5
      vertex 0 -75 5
    endloop
  endfacet
  facet normal 0 0 1
    outer loop
      vertex -7.83963 -74.5891 5
      vertex -7.99643 -76.0809 5
      vertex 0 -76.5 5
    endloop
  endfacet
  facet normal 0 0 1
    outer loop
      vertex -15.5934 -73.3611 5
      vertex -7.99643 -76.0809 5
      vertex -7.83963 -74.5891 5
    endloop
  endfacet
  facet normal 0 0 1
    outer loop
      vertex -15.5934 -73.3611 5
      vertex -15.9052 -74.8283 5
      vertex -7.99643 -76.0809 5
    endloop
  endfacet
  facet normal 0 0 1
    outer loop
      vertex -23.1763 -71.3292 5
      vertex -15.9052 -74.8283 5
      vertex -15.5934 -73.3611 5
    endloop
  endfacet
  facet normal 0 0 1
    outer loop
      vertex -23.1763 -71.3292 5
      vertex -23.6398 -72.7558 5
      vertex -15.9052 -74.8283 5
    endloop
  endfacet
  facet normal 0 0 1
    outer loop
      vertex -30.5052 -68.5159 5
      vertex -23.6398 -72.7558 5
      vertex -23.1763 -71.3292 5
    endloop
  endfacet
  facet normal 0 0 1
    outer loop
      vertex -30.5052 -68.5159 5
      vertex -31.1154 -69.8862 5
      vertex -23.6398 -72.7558 5
    endloop
  endfacet
  facet normal 0 0 1
    outer loop
      vertex -37.5 -64.9519 5
      vertex -31.1154 -69.8862 5
      vertex -30.5052 -68.5159 5
    endloop
  endfacet
  facet normal 0 0 1
    outer loop
      vertex -37.5 -64.9519 5
      vertex -38.25 -66.2509 5
      vertex -31.1154 -69.8862 5
    endloop
  endfacet
  facet normal 0 0 1
    outer loop
      vertex -44.0839 -60.6763 5
      vertex -38.25 -66.2509 5
      vertex -37.5 -64.9519 5
    endloop
  endfacet
  facet normal 0 0 1
    outer loop
      vertex -44.0839 -60.6763 5
      vertex -44.9656 -61.8898 5
      vertex -38.25 -66.2509 5
    endloop
  endfacet
  facet normal 0 0 1
    outer loop
      vertex -50.1848 -55.7359 5
      vertex -44.9656 -61.8898 5
      vertex -44.0839 -60.6763 5
    endloop
  endfacet
  facet normal 0 0 1
    outer loop
      vertex -50.1848 -55.7359 5
      vertex -51.1885 -56.8506 5
      vertex -44.9656 -61.8898 5
    endloop
  endfacet
  facet normal 0 0 1
    outer loop
      vertex -55.7359 -50.1848 5
      vertex -51.1885 -56.8506 5
      vertex -50.1848 -55.7359 5
    endloop
  endfacet
  facet normal 0 0 1
    outer loop
      vertex -55.7359 -50.1848 5
      vertex -56.8506 -51.1885 5
      vertex -51.1885 -56.8506 5
    endloop
  endfacet
  facet normal 0 0 1
    outer loop
      vertex -60.6763 -44.0839 5
      vertex -56.8506 -51.1885 5
      vertex -55.7359 -50.1848 5
    endloop
  endfacet
  facet normal 0 0 1
    outer loop
      vertex -60.6763 -44.0839 5
      vertex -61.8898 -44.9656 5
      vertex -56.8506 -51.1885 5
    endloop
  endfacet
  facet normal 0 0 1
    outer loop
      vertex -64.9519 -37.5 5
      vertex -61.8898 -44.9656 5
      vertex -60.6763 -44.0839 5
    endloop
  endfacet
  facet normal 0 0 1
    outer loop
      vertex -64.9519 -37.5 5
      vertex -66.2509 -38.25 5
      vertex -61.8898 -44.9656 5
    endloop
  endfacet
  facet normal 0 0 1
    outer loop
      vertex -68.5159 -30.5052 5
      vertex -66.2509 -38.25 5
      vertex -64.9519 -37.5 5
    endloop
  endfacet
  facet normal 0 0 1
    outer loop
      vertex -68.5159 -30.5052 5
      vertex -69.8862 -31.1154 5
      vertex -66.2509 -38.25 5
    endloop
  endfacet
  facet normal 0 0 1
    outer loop
      vertex -71.3292 -23.1763 5
      vertex -69.8862 -31.1154 5
      vertex -68.5159 -30.5052 5
    endloop
  endfacet
  facet normal 0 0 1
    outer loop
      vertex -71.3292 -23.1763 5
      vertex -72.7558 -23.6398 5
      vertex -69.8862 -31.1154 5
    endloop
  endfacet
  facet normal 0 0 1
    outer loop
      vertex -73.3611 -15.5934 5
      vertex -72.7558 -23.6398 5
      vertex -71.3292 -23.1763 5
    endloop
  endfacet
  facet normal 0 0 1
    outer loop
      vertex -74.8283 -15.9052 5
      vertex -73.3611 -15.5934 5
      vertex -74.5891 -7.83963 5
    endloop
  endfacet
  facet normal 0 0 1
    outer loop
      vertex -73.3611 -15.5934 5
      vertex -74.8283 -15.9052 5
      vertex -72.7558 -23.6398 5
    endloop
  endfacet
  facet normal 0 0 1
    outer loop
      vertex -76.0809 -7.99643 5
      vertex -74.5891 -7.83963 5
      vertex -75 0 5
    endloop
  endfacet
  facet normal 0 0 1
    outer loop
      vertex -76.5 0 5
      vertex -75 0 5
      vertex -76.0809 7.99643 5
    endloop
  endfacet
  facet normal 0 0 1
    outer loop
      vertex -74.5891 -7.83963 5
      vertex -76.0809 -7.99643 5
      vertex -74.8283 -15.9052 5
    endloop
  endfacet
  facet normal 0 0 1
    outer loop
      vertex -75 0 5
      vertex -76.5 0 5
      vertex -76.0809 -7.99643 5
    endloop
  endfacet
  facet normal 0.998629 -0.0523413 0
    outer loop
      vertex -75 0 5
      vertex -74.5891 7.83963 2
      vertex -74.5891 7.83963 5
    endloop
  endfacet
  facet normal 0.998629 -0.0523413 0
    outer loop
      vertex -74.5891 7.83963 2
      vertex -75 0 5
      vertex -75 0 2
    endloop
  endfacet
  facet normal 0.0523413 0.998629 -0
    outer loop
      vertex 0 -75 2
      vertex -7.83963 -74.5891 5
      vertex 0 -75 5
    endloop
  endfacet
  facet normal 0.0523413 0.998629 0
    outer loop
      vertex -7.83963 -74.5891 5
      vertex 0 -75 2
      vertex -7.83963 -74.5891 2
    endloop
  endfacet
  facet normal 0.62932 -0.777147 0
    outer loop
      vertex -50.1848 55.7359 2
      vertex -44.0839 60.6763 5
      vertex -50.1848 55.7359 5
    endloop
  endfacet
  facet normal 0.62932 -0.777147 0
    outer loop
      vertex -44.0839 60.6763 5
      vertex -50.1848 55.7359 2
      vertex -44.0839 60.6763 2
    endloop
  endfacet
  facet normal 0.358368 -0.93358 0
    outer loop
      vertex -30.5052 68.5159 2
      vertex -23.1763 71.3292 5
      vertex -30.5052 68.5159 5
    endloop
  endfacet
  facet normal 0.358368 -0.93358 0
    outer loop
      vertex -23.1763 71.3292 5
      vertex -30.5052 68.5159 2
      vertex -23.1763 71.3292 2
    endloop
  endfacet
  facet normal 0.891008 -0.453988 0
    outer loop
      vertex -68.5159 30.5052 5
      vertex -64.9519 37.5 2
      vertex -64.9519 37.5 5
    endloop
  endfacet
  facet normal 0.891008 -0.453988 0
    outer loop
      vertex -64.9519 37.5 2
      vertex -68.5159 30.5052 5
      vertex -68.5159 30.5052 2
    endloop
  endfacet
  facet normal 0.156425 -0.98769 0
    outer loop
      vertex -15.5934 73.3611 2
      vertex -7.83963 74.5891 5
      vertex -15.5934 73.3611 5
    endloop
  endfacet
  facet normal 0.156425 -0.98769 0
    outer loop
      vertex -7.83963 74.5891 5
      vertex -15.5934 73.3611 2
      vertex -7.83963 74.5891 2
    endloop
  endfacet
  facet normal 0.965924 -0.258827 0
    outer loop
      vertex -73.3611 15.5934 5
      vertex -71.3292 23.1763 2
      vertex -71.3292 23.1763 5
    endloop
  endfacet
  facet normal 0.965924 -0.258827 0
    outer loop
      vertex -71.3292 23.1763 2
      vertex -73.3611 15.5934 5
      vertex -73.3611 15.5934 2
    endloop
  endfacet
  facet normal 0.777147 -0.62932 0
    outer loop
      vertex -60.6763 44.0839 5
      vertex -55.7359 50.1848 2
      vertex -55.7359 50.1848 5
    endloop
  endfacet
  facet normal 0.777147 -0.62932 0
    outer loop
      vertex -55.7359 50.1848 2
      vertex -60.6763 44.0839 5
      vertex -60.6763 44.0839 2
    endloop
  endfacet
  facet normal 0.707107 -0.707107 0
    outer loop
      vertex -55.7359 50.1848 5
      vertex -50.1848 55.7359 2
      vertex -50.1848 55.7359 5
    endloop
  endfacet
  facet normal 0.707107 -0.707107 0
    outer loop
      vertex -50.1848 55.7359 2
      vertex -55.7359 50.1848 5
      vertex -55.7359 50.1848 2
    endloop
  endfacet
  facet normal 0.838673 -0.544636 0
    outer loop
      vertex -64.9519 37.5 5
      vertex -60.6763 44.0839 2
      vertex -60.6763 44.0839 5
    endloop
  endfacet
  facet normal 0.838673 -0.544636 0
    outer loop
      vertex -60.6763 44.0839 2
      vertex -64.9519 37.5 5
      vertex -64.9519 37.5 2
    endloop
  endfacet
  facet normal 0.93358 -0.358368 0
    outer loop
      vertex -71.3292 23.1763 5
      vertex -68.5159 30.5052 2
      vertex -68.5159 30.5052 5
    endloop
  endfacet
  facet normal 0.93358 -0.358368 0
    outer loop
      vertex -68.5159 30.5052 2
      vertex -71.3292 23.1763 5
      vertex -71.3292 23.1763 2
    endloop
  endfacet
  facet normal 0.98769 -0.156425 0
    outer loop
      vertex -74.5891 7.83963 5
      vertex -73.3611 15.5934 2
      vertex -73.3611 15.5934 5
    endloop
  endfacet
  facet normal 0.98769 -0.156425 0
    outer loop
      vertex -73.3611 15.5934 2
      vertex -74.5891 7.83963 5
      vertex -74.5891 7.83963 2
    endloop
  endfacet
  facet normal 0.453988 -0.891008 0
    outer loop
      vertex -37.5 64.9519 2
      vertex -30.5052 68.5159 5
      vertex -37.5 64.9519 5
    endloop
  endfacet
  facet normal 0.453988 -0.891008 0
    outer loop
      vertex -30.5052 68.5159 5
      vertex -37.5 64.9519 2
      vertex -30.5052 68.5159 2
    endloop
  endfacet
  facet normal 0.544636 -0.838673 0
    outer loop
      vertex -44.0839 60.6763 2
      vertex -37.5 64.9519 5
      vertex -44.0839 60.6763 5
    endloop
  endfacet
  facet normal 0.544636 -0.838673 0
    outer loop
      vertex -37.5 64.9519 5
      vertex -44.0839 60.6763 2
      vertex -37.5 64.9519 2
    endloop
  endfacet
  facet normal 0.258827 -0.965924 0
    outer loop
      vertex -23.1763 71.3292 2
      vertex -15.5934 73.3611 5
      vertex -23.1763 71.3292 5
    endloop
  endfacet
  facet normal 0.258827 -0.965924 0
    outer loop
      vertex -15.5934 73.3611 5
      vertex -23.1763 71.3292 2
      vertex -15.5934 73.3611 2
    endloop
  endfacet
  facet normal 0.0523413 -0.998629 0
    outer loop
      vertex -7.83963 74.5891 2
      vertex 0 75 5
      vertex -7.83963 74.5891 5
    endloop
  endfacet
  facet normal 0.0523413 -0.998629 0
    outer loop
      vertex 0 75 5
      vertex -7.83963 74.5891 2
      vertex 0 75 2
    endloop
  endfacet
  facet normal 0.707107 0.707107 0
    outer loop
      vertex -50.1848 -55.7359 5
      vertex -55.7359 -50.1848 2
      vertex -55.7359 -50.1848 5
    endloop
  endfacet
  facet normal 0.707107 0.707107 0
    outer loop
      vertex -55.7359 -50.1848 2
      vertex -50.1848 -55.7359 5
      vertex -50.1848 -55.7359 2
    endloop
  endfacet
  facet normal 0.544636 0.838673 -0
    outer loop
      vertex -37.5 -64.9519 2
      vertex -44.0839 -60.6763 5
      vertex -37.5 -64.9519 5
    endloop
  endfacet
  facet normal 0.544636 0.838673 0
    outer loop
      vertex -44.0839 -60.6763 5
      vertex -37.5 -64.9519 2
      vertex -44.0839 -60.6763 2
    endloop
  endfacet
  facet normal 0.358368 0.93358 -0
    outer loop
      vertex -23.1763 -71.3292 2
      vertex -30.5052 -68.5159 5
      vertex -23.1763 -71.3292 5
    endloop
  endfacet
  facet normal 0.358368 0.93358 0
    outer loop
      vertex -30.5052 -68.5159 5
      vertex -23.1763 -71.3292 2
      vertex -30.5052 -68.5159 2
    endloop
  endfacet
  facet normal 0.156425 0.98769 -0
    outer loop
      vertex -7.83963 -74.5891 2
      vertex -15.5934 -73.3611 5
      vertex -7.83963 -74.5891 5
    endloop
  endfacet
  facet normal 0.156425 0.98769 0
    outer loop
      vertex -15.5934 -73.3611 5
      vertex -7.83963 -74.5891 2
      vertex -15.5934 -73.3611 2
    endloop
  endfacet
  facet normal 0.891008 0.453988 0
    outer loop
      vertex -64.9519 -37.5 5
      vertex -68.5159 -30.5052 2
      vertex -68.5159 -30.5052 5
    endloop
  endfacet
  facet normal 0.891008 0.453988 0
    outer loop
      vertex -68.5159 -30.5052 2
      vertex -64.9519 -37.5 5
      vertex -64.9519 -37.5 2
    endloop
  endfacet
  facet normal 0.777147 0.62932 0
    outer loop
      vertex -55.7359 -50.1848 5
      vertex -60.6763 -44.0839 2
      vertex -60.6763 -44.0839 5
    endloop
  endfacet
  facet normal 0.777147 0.62932 0
    outer loop
      vertex -60.6763 -44.0839 2
      vertex -55.7359 -50.1848 5
      vertex -55.7359 -50.1848 2
    endloop
  endfacet
  facet normal 0.965924 0.258827 0
    outer loop
      vertex -71.3292 -23.1763 5
      vertex -73.3611 -15.5934 2
      vertex -73.3611 -15.5934 5
    endloop
  endfacet
  facet normal 0.965924 0.258827 0
    outer loop
      vertex -73.3611 -15.5934 2
      vertex -71.3292 -23.1763 5
      vertex -71.3292 -23.1763 2
    endloop
  endfacet
  facet normal 0.998629 0.0523413 0
    outer loop
      vertex -74.5891 -7.83963 5
      vertex -75 0 2
      vertex -75 0 5
    endloop
  endfacet
  facet normal 0.998629 0.0523413 0
    outer loop
      vertex -75 0 2
      vertex -74.5891 -7.83963 5
      vertex -74.5891 -7.83963 2
    endloop
  endfacet
  facet normal 0.62932 0.777147 -0
    outer loop
      vertex -44.0839 -60.6763 2
      vertex -50.1848 -55.7359 5
      vertex -44.0839 -60.6763 5
    endloop
  endfacet
  facet normal 0.62932 0.777147 0
    outer loop
      vertex -50.1848 -55.7359 5
      vertex -44.0839 -60.6763 2
      vertex -50.1848 -55.7359 2
    endloop
  endfacet
  facet normal 0.453988 0.891008 -0
    outer loop
      vertex -30.5052 -68.5159 2
      vertex -37.5 -64.9519 5
      vertex -30.5052 -68.5159 5
    endloop
  endfacet
  facet normal 0.453988 0.891008 0
    outer loop
      vertex -37.5 -64.9519 5
      vertex -30.5052 -68.5159 2
      vertex -37.5 -64.9519 2
    endloop
  endfacet
  facet normal 0.258827 0.965924 -0
    outer loop
      vertex -15.5934 -73.3611 2
      vertex -23.1763 -71.3292 5
      vertex -15.5934 -73.3611 5
    endloop
  endfacet
  facet normal 0.258827 0.965924 0
    outer loop
      vertex -23.1763 -71.3292 5
      vertex -15.5934 -73.3611 2
      vertex -23.1763 -71.3292 2
    endloop
  endfacet
  facet normal 0.838673 0.544636 0
    outer loop
      vertex -60.6763 -44.0839 5
      vertex -64.9519 -37.5 2
      vertex -64.9519 -37.5 5
    endloop
  endfacet
  facet normal 0.838673 0.544636 0
    outer loop
      vertex -64.9519 -37.5 2
      vertex -60.6763 -44.0839 5
      vertex -60.6763 -44.0839 2
    endloop
  endfacet
  facet normal 0.93358 0.358368 0
    outer loop
      vertex -68.5159 -30.5052 5
      vertex -71.3292 -23.1763 2
      vertex -71.3292 -23.1763 5
    endloop
  endfacet
  facet normal 0.93358 0.358368 0
    outer loop
      vertex -71.3292 -23.1763 2
      vertex -68.5159 -30.5052 5
      vertex -68.5159 -30.5052 2
    endloop
  endfacet
  facet normal 0.98769 0.156425 0
    outer loop
      vertex -73.3611 -15.5934 5
      vertex -74.5891 -7.83963 2
      vertex -74.5891 -7.83963 5
    endloop
  endfacet
  facet normal 0.98769 0.156425 0
    outer loop
      vertex -74.5891 -7.83963 2
      vertex -73.3611 -15.5934 5
      vertex -73.3611 -15.5934 2
    endloop
  endfacet
  facet normal 1 0 0
    outer loop
      vertex 0 75 2
      vertex 0 76.5 5
      vertex 0 75 5
    endloop
  endfacet
  facet normal 1 0 0
    outer loop
      vertex 0 76.5 5
      vertex 0 75 2
      vertex 0 76.5 0
    endloop
  endfacet
  facet normal 1 0 0
    outer loop
      vertex 0 45 0
      vertex 0 75 2
      vertex 0 45 2
    endloop
  endfacet
  facet normal 1 0 0
    outer loop
      vertex 0 75 2
      vertex 0 45 0
      vertex 0 76.5 0
    endloop
  endfacet
  facet normal 1 0 0
    outer loop
      vertex 0 -75 5
      vertex 0 -76.5 5
      vertex 0 -75 2
    endloop
  endfacet
  facet normal 1 -0 0
    outer loop
      vertex 0 -75 2
      vertex 0 -45 0
      vertex 0 -45 2
    endloop
  endfacet
  facet normal 1 0 0
    outer loop
      vertex 0 -75 2
      vertex 0 -76.5 0
      vertex 0 -45 0
    endloop
  endfacet
  facet normal 1 0 0
    outer loop
      vertex 0 -76.5 0
      vertex 0 -75 2
      vertex 0 -76.5 5
    endloop
  endfacet
endsolid OpenSCAD_Model
