solid OpenSCAD_Model
  facet normal -0.980786 -0.195088 0
    outer loop
      vertex 1.75 75 -25
      vertex 1.61679 75.6697 -22
      vertex 1.61679 75.6697 -25
    endloop
  endfacet
  facet normal -0.980786 -0.195088 0
    outer loop
      vertex 1.61679 75.6697 -22
      vertex 1.75 75 -25
      vertex 1.75 75 -22
    endloop
  endfacet
  facet normal 0.980786 -0.195088 0
    outer loop
      vertex -1.75 75 -22
      vertex -1.61679 75.6697 -25
      vertex -1.61679 75.6697 -22
    endloop
  endfacet
  facet normal 0.980786 -0.195088 0
    outer loop
      vertex -1.61679 75.6697 -25
      vertex -1.75 75 -22
      vertex -1.75 75 -25
    endloop
  endfacet
  facet normal -0.195075 -0.980788 0
    outer loop
      vertex 0 76.75 -25
      vertex 0.669696 76.6168 -22
      vertex 0 76.75 -22
    endloop
  endfacet
  facet normal -0.195075 -0.980788 -0
    outer loop
      vertex 0.669696 76.6168 -22
      vertex 0 76.75 -25
      vertex 0.669696 76.6168 -25
    endloop
  endfacet
  facet normal -0.195075 0.980788 0
    outer loop
      vertex 0.669696 73.3832 -25
      vertex 0 73.25 -22
      vertex 0.669696 73.3832 -22
    endloop
  endfacet
  facet normal -0.195075 0.980788 0
    outer loop
      vertex 0 73.25 -22
      vertex 0.669696 73.3832 -25
      vertex 0 73.25 -25
    endloop
  endfacet
  facet normal 0 0 -1
    outer loop
      vertex 20 70 -25
      vertex 16.7369 78.7409 -25
      vertex 20 77.9575 -25
    endloop
  endfacet
  facet normal 0 0 -1
    outer loop
      vertex 20 70 -25
      vertex 12.593 79.5089 -25
      vertex 16.7369 78.7409 -25
    endloop
  endfacet
  facet normal 0 0 -1
    outer loop
      vertex 1.61679 74.3303 -25
      vertex 12.593 79.5089 -25
      vertex 20 70 -25
    endloop
  endfacet
  facet normal -0 0 -1
    outer loop
      vertex 12.593 79.5089 -25
      vertex 1.61679 74.3303 -25
      vertex 8.41454 80.059 -25
    endloop
  endfacet
  facet normal 0 0 -1
    outer loop
      vertex 1.61679 75.6697 -25
      vertex 8.41454 80.059 -25
      vertex 1.75 75 -25
    endloop
  endfacet
  facet normal 0 0 -1
    outer loop
      vertex 8.41454 80.059 -25
      vertex 1.61679 74.3303 -25
      vertex 1.75 75 -25
    endloop
  endfacet
  facet normal 0 0 -1
    outer loop
      vertex 20 70 -25
      vertex 1.23744 73.7626 -25
      vertex 1.61679 74.3303 -25
    endloop
  endfacet
  facet normal 0 0 -1
    outer loop
      vertex 20 70 -25
      vertex 0.669696 73.3832 -25
      vertex 1.23744 73.7626 -25
    endloop
  endfacet
  facet normal 0 0 -1
    outer loop
      vertex 20 70 -25
      vertex 0 73.25 -25
      vertex 0.669696 73.3832 -25
    endloop
  endfacet
  facet normal 0 0 -1
    outer loop
      vertex -8.41454 80.059 -25
      vertex -1.75 75 -25
      vertex -1.61679 74.3303 -25
    endloop
  endfacet
  facet normal 0 0 -1
    outer loop
      vertex -1.75 75 -25
      vertex -8.41454 80.059 -25
      vertex -4.21304 80.3897 -25
    endloop
  endfacet
  facet normal 0 0 -1
    outer loop
      vertex -20 70 -25
      vertex -1.61679 74.3303 -25
      vertex -1.23744 73.7626 -25
    endloop
  endfacet
  facet normal 0 0 -1
    outer loop
      vertex -1.61679 74.3303 -25
      vertex -12.593 79.5089 -25
      vertex -8.41454 80.059 -25
    endloop
  endfacet
  facet normal 0 0 -1
    outer loop
      vertex -20 70 -25
      vertex -1.23744 73.7626 -25
      vertex -0.669696 73.3832 -25
    endloop
  endfacet
  facet normal -0 0 -1
    outer loop
      vertex -1.61679 74.3303 -25
      vertex -20 70 -25
      vertex -12.593 79.5089 -25
    endloop
  endfacet
  facet normal 0 0 -1
    outer loop
      vertex -20 70 -25
      vertex 0 73.25 -25
      vertex 20 70 -25
    endloop
  endfacet
  facet normal 0 0 -1
    outer loop
      vertex -20 70 -25
      vertex -0.669696 73.3832 -25
      vertex 0 73.25 -25
    endloop
  endfacet
  facet normal 0 0 -1
    outer loop
      vertex -12.593 79.5089 -25
      vertex -20 70 -25
      vertex -16.7369 78.7409 -25
    endloop
  endfacet
  facet normal 0 0 -1
    outer loop
      vertex -16.7369 78.7409 -25
      vertex -20 70 -25
      vertex -20 77.9575 -25
    endloop
  endfacet
  facet normal -0 0 -1
    outer loop
      vertex 8.41454 80.059 -25
      vertex 1.61679 75.6697 -25
      vertex 4.21304 80.3897 -25
    endloop
  endfacet
  facet normal 0 0 -1
    outer loop
      vertex 1.23744 76.2374 -25
      vertex 4.21304 80.3897 -25
      vertex 1.61679 75.6697 -25
    endloop
  endfacet
  facet normal 0 0 -1
    outer loop
      vertex 0.669696 76.6168 -25
      vertex 4.21304 80.3897 -25
      vertex 1.23744 76.2374 -25
    endloop
  endfacet
  facet normal 0 0 -1
    outer loop
      vertex 0 80.5 -25
      vertex 0.669696 76.6168 -25
      vertex 0 76.75 -25
    endloop
  endfacet
  facet normal 0 0 -1
    outer loop
      vertex 0.669696 76.6168 -25
      vertex 0 80.5 -25
      vertex 4.21304 80.3897 -25
    endloop
  endfacet
  facet normal 0 0 -1
    outer loop
      vertex -0.669696 76.6168 -25
      vertex 0 80.5 -25
      vertex 0 76.75 -25
    endloop
  endfacet
  facet normal 0 0 -1
    outer loop
      vertex -4.21304 80.3897 -25
      vertex -0.669696 76.6168 -25
      vertex -1.23744 76.2374 -25
    endloop
  endfacet
  facet normal 0 0 -1
    outer loop
      vertex -4.21304 80.3897 -25
      vertex -1.23744 76.2374 -25
      vertex -1.61679 75.6697 -25
    endloop
  endfacet
  facet normal 0 0 -1
    outer loop
      vertex -0.669696 76.6168 -25
      vertex -4.21304 80.3897 -25
      vertex 0 80.5 -25
    endloop
  endfacet
  facet normal 0 0 -1
    outer loop
      vertex -4.21304 80.3897 -25
      vertex -1.61679 75.6697 -25
      vertex -1.75 75 -25
    endloop
  endfacet
  facet normal -0.555616 -0.831439 0
    outer loop
      vertex 0.669696 76.6168 -25
      vertex 1.23744 76.2374 -22
      vertex 0.669696 76.6168 -22
    endloop
  endfacet
  facet normal -0.555616 -0.831439 -0
    outer loop
      vertex 1.23744 76.2374 -22
      vertex 0.669696 76.6168 -25
      vertex 1.23744 76.2374 -25
    endloop
  endfacet
  facet normal -0.831453 -0.555596 0
    outer loop
      vertex 1.61679 75.6697 -25
      vertex 1.23744 76.2374 -22
      vertex 1.23744 76.2374 -25
    endloop
  endfacet
  facet normal -0.831453 -0.555596 0
    outer loop
      vertex 1.23744 76.2374 -22
      vertex 1.61679 75.6697 -25
      vertex 1.61679 75.6697 -22
    endloop
  endfacet
  facet normal 0.555616 -0.831439 0
    outer loop
      vertex -1.23744 76.2374 -25
      vertex -0.669696 76.6168 -22
      vertex -1.23744 76.2374 -22
    endloop
  endfacet
  facet normal 0.555616 -0.831439 0
    outer loop
      vertex -0.669696 76.6168 -22
      vertex -1.23744 76.2374 -25
      vertex -0.669696 76.6168 -25
    endloop
  endfacet
  facet normal 0.831453 -0.555596 0
    outer loop
      vertex -1.61679 75.6697 -22
      vertex -1.23744 76.2374 -25
      vertex -1.23744 76.2374 -22
    endloop
  endfacet
  facet normal 0.831453 -0.555596 0
    outer loop
      vertex -1.23744 76.2374 -25
      vertex -1.61679 75.6697 -22
      vertex -1.61679 75.6697 -25
    endloop
  endfacet
  facet normal 0.195075 -0.980788 0
    outer loop
      vertex -0.669696 76.6168 -25
      vertex 0 76.75 -22
      vertex -0.669696 76.6168 -22
    endloop
  endfacet
  facet normal 0.195075 -0.980788 0
    outer loop
      vertex 0 76.75 -22
      vertex -0.669696 76.6168 -25
      vertex 0 76.75 -25
    endloop
  endfacet
  facet normal 0.555616 0.831439 -0
    outer loop
      vertex -0.669696 73.3832 -25
      vertex -1.23744 73.7626 -22
      vertex -0.669696 73.3832 -22
    endloop
  endfacet
  facet normal 0.555616 0.831439 0
    outer loop
      vertex -1.23744 73.7626 -22
      vertex -0.669696 73.3832 -25
      vertex -1.23744 73.7626 -25
    endloop
  endfacet
  facet normal 0.980786 0.195088 0
    outer loop
      vertex -1.61679 74.3303 -22
      vertex -1.75 75 -25
      vertex -1.75 75 -22
    endloop
  endfacet
  facet normal 0.980786 0.195088 0
    outer loop
      vertex -1.75 75 -25
      vertex -1.61679 74.3303 -22
      vertex -1.61679 74.3303 -25
    endloop
  endfacet
  facet normal -0.980786 0.195088 0
    outer loop
      vertex 1.61679 74.3303 -25
      vertex 1.75 75 -22
      vertex 1.75 75 -25
    endloop
  endfacet
  facet normal -0.980786 0.195088 0
    outer loop
      vertex 1.75 75 -22
      vertex 1.61679 74.3303 -25
      vertex 1.61679 74.3303 -22
    endloop
  endfacet
  facet normal 0.195075 0.980788 -0
    outer loop
      vertex 0 73.25 -25
      vertex -0.669696 73.3832 -22
      vertex 0 73.25 -22
    endloop
  endfacet
  facet normal 0.195075 0.980788 0
    outer loop
      vertex -0.669696 73.3832 -22
      vertex 0 73.25 -25
      vertex -0.669696 73.3832 -25
    endloop
  endfacet
  facet normal 0.831453 0.555596 0
    outer loop
      vertex -1.23744 73.7626 -22
      vertex -1.61679 74.3303 -25
      vertex -1.61679 74.3303 -22
    endloop
  endfacet
  facet normal 0.831453 0.555596 0
    outer loop
      vertex -1.61679 74.3303 -25
      vertex -1.23744 73.7626 -22
      vertex -1.23744 73.7626 -25
    endloop
  endfacet
  facet normal -0.555616 0.831439 0
    outer loop
      vertex 1.23744 73.7626 -25
      vertex 0.669696 73.3832 -22
      vertex 1.23744 73.7626 -22
    endloop
  endfacet
  facet normal -0.555616 0.831439 0
    outer loop
      vertex 0.669696 73.3832 -22
      vertex 1.23744 73.7626 -25
      vertex 0.669696 73.3832 -25
    endloop
  endfacet
  facet normal -0.831453 0.555596 0
    outer loop
      vertex 1.23744 73.7626 -25
      vertex 1.61679 74.3303 -22
      vertex 1.61679 74.3303 -25
    endloop
  endfacet
  facet normal -0.831453 0.555596 0
    outer loop
      vertex 1.61679 74.3303 -22
      vertex 1.23744 73.7626 -25
      vertex 1.23744 73.7626 -22
    endloop
  endfacet
  facet normal -0.980785 -0.195092 0
    outer loop
      vertex 3.25 75 -22
      vertex 3.00261 76.2437 0
      vertex 3.00261 76.2437 -22
    endloop
  endfacet
  facet normal -0.980785 -0.195092 0
    outer loop
      vertex 3.00261 76.2437 0
      vertex 3.25 75 -22
      vertex 3.25 75 0
    endloop
  endfacet
  facet normal 0.980785 -0.195092 0
    outer loop
      vertex -3.25 75 0
      vertex -3.00261 76.2437 -22
      vertex -3.00261 76.2437 0
    endloop
  endfacet
  facet normal 0.980785 -0.195092 0
    outer loop
      vertex -3.00261 76.2437 -22
      vertex -3.25 75 0
      vertex -3.25 75 -22
    endloop
  endfacet
  facet normal -0.195097 -0.980784 0
    outer loop
      vertex 0 78.25 -22
      vertex 1.24372 78.0026 0
      vertex 0 78.25 0
    endloop
  endfacet
  facet normal -0.195097 -0.980784 -0
    outer loop
      vertex 1.24372 78.0026 0
      vertex 0 78.25 -22
      vertex 1.24372 78.0026 -22
    endloop
  endfacet
  facet normal 0.195097 0.980784 -0
    outer loop
      vertex 0 71.75 -22
      vertex -1.24372 71.9974 0
      vertex 0 71.75 0
    endloop
  endfacet
  facet normal 0.195097 0.980784 0
    outer loop
      vertex -1.24372 71.9974 0
      vertex 0 71.75 -22
      vertex -1.24372 71.9974 -22
    endloop
  endfacet
  facet normal -0.195097 0.980784 0
    outer loop
      vertex 1.24372 71.9974 -22
      vertex 0 71.75 0
      vertex 1.24372 71.9974 0
    endloop
  endfacet
  facet normal -0.195097 0.980784 0
    outer loop
      vertex 0 71.75 0
      vertex 1.24372 71.9974 -22
      vertex 0 71.75 -22
    endloop
  endfacet
  facet normal 0 0 1
    outer loop
      vertex 1.75 75 -22
      vertex 3.25 75 -22
      vertex 3.00261 76.2437 -22
    endloop
  endfacet
  facet normal 0 0 1
    outer loop
      vertex 1.61679 75.6697 -22
      vertex 3.00261 76.2437 -22
      vertex 2.2981 77.2981 -22
    endloop
  endfacet
  facet normal 0 0 1
    outer loop
      vertex 3.25 75 -22
      vertex 1.75 75 -22
      vertex 3.00261 73.7563 -22
    endloop
  endfacet
  facet normal -0 0 1
    outer loop
      vertex 1.61679 74.3303 -22
      vertex 3.00261 73.7563 -22
      vertex 1.75 75 -22
    endloop
  endfacet
  facet normal 0 0 1
    outer loop
      vertex 3.00261 76.2437 -22
      vertex 1.61679 75.6697 -22
      vertex 1.75 75 -22
    endloop
  endfacet
  facet normal 0 0 1
    outer loop
      vertex 1.23744 76.2374 -22
      vertex 2.2981 77.2981 -22
      vertex 1.24372 78.0026 -22
    endloop
  endfacet
  facet normal 0 0 1
    outer loop
      vertex 2.2981 77.2981 -22
      vertex 1.23744 76.2374 -22
      vertex 1.61679 75.6697 -22
    endloop
  endfacet
  facet normal 0 0 1
    outer loop
      vertex 1.24372 78.0026 -22
      vertex 0.669696 76.6168 -22
      vertex 1.23744 76.2374 -22
    endloop
  endfacet
  facet normal 0 0 1
    outer loop
      vertex 0 78.25 -22
      vertex 0.669696 76.6168 -22
      vertex 1.24372 78.0026 -22
    endloop
  endfacet
  facet normal 0 0 1
    outer loop
      vertex 0 78.25 -22
      vertex 0 76.75 -22
      vertex 0.669696 76.6168 -22
    endloop
  endfacet
  facet normal 0 0 1
    outer loop
      vertex 0 78.25 -22
      vertex -0.669696 76.6168 -22
      vertex 0 76.75 -22
    endloop
  endfacet
  facet normal -0 0 1
    outer loop
      vertex -1.24372 78.0026 -22
      vertex -0.669696 76.6168 -22
      vertex 0 78.25 -22
    endloop
  endfacet
  facet normal 0 0 1
    outer loop
      vertex -0.669696 76.6168 -22
      vertex -1.24372 78.0026 -22
      vertex -1.23744 76.2374 -22
    endloop
  endfacet
  facet normal -0 0 1
    outer loop
      vertex -2.2981 77.2981 -22
      vertex -1.23744 76.2374 -22
      vertex -1.24372 78.0026 -22
    endloop
  endfacet
  facet normal 0 0 1
    outer loop
      vertex -1.23744 76.2374 -22
      vertex -2.2981 77.2981 -22
      vertex -1.61679 75.6697 -22
    endloop
  endfacet
  facet normal -0 0 1
    outer loop
      vertex -3.00261 76.2437 -22
      vertex -1.61679 75.6697 -22
      vertex -2.2981 77.2981 -22
    endloop
  endfacet
  facet normal 0 0 1
    outer loop
      vertex 3.00261 73.7563 -22
      vertex 1.61679 74.3303 -22
      vertex 2.2981 72.7019 -22
    endloop
  endfacet
  facet normal -0 0 1
    outer loop
      vertex 1.23744 73.7626 -22
      vertex 2.2981 72.7019 -22
      vertex 1.61679 74.3303 -22
    endloop
  endfacet
  facet normal 0 0 1
    outer loop
      vertex 2.2981 72.7019 -22
      vertex 1.23744 73.7626 -22
      vertex 1.24372 71.9974 -22
    endloop
  endfacet
  facet normal -0 0 1
    outer loop
      vertex 0.669696 73.3832 -22
      vertex 1.24372 71.9974 -22
      vertex 1.23744 73.7626 -22
    endloop
  endfacet
  facet normal -0 0 1
    outer loop
      vertex 0 73.25 -22
      vertex 1.24372 71.9974 -22
      vertex 0.669696 73.3832 -22
    endloop
  endfacet
  facet normal 0 0 1
    outer loop
      vertex 0 73.25 -22
      vertex 0 71.75 -22
      vertex 1.24372 71.9974 -22
    endloop
  endfacet
  facet normal 0 0 1
    outer loop
      vertex -0.669696 73.3832 -22
      vertex 0 71.75 -22
      vertex 0 73.25 -22
    endloop
  endfacet
  facet normal 0 0 1
    outer loop
      vertex -1.24372 71.9974 -22
      vertex -0.669696 73.3832 -22
      vertex -1.23744 73.7626 -22
    endloop
  endfacet
  facet normal 0 0 1
    outer loop
      vertex -0.669696 73.3832 -22
      vertex -1.24372 71.9974 -22
      vertex 0 71.75 -22
    endloop
  endfacet
  facet normal 0 0 1
    outer loop
      vertex -2.2981 72.7019 -22
      vertex -1.23744 73.7626 -22
      vertex -1.61679 74.3303 -22
    endloop
  endfacet
  facet normal 0 0 1
    outer loop
      vertex -3.00261 73.7563 -22
      vertex -1.61679 74.3303 -22
      vertex -1.75 75 -22
    endloop
  endfacet
  facet normal 0 0 1
    outer loop
      vertex -1.61679 75.6697 -22
      vertex -3.00261 76.2437 -22
      vertex -1.75 75 -22
    endloop
  endfacet
  facet normal 0 0 1
    outer loop
      vertex -1.23744 73.7626 -22
      vertex -2.2981 72.7019 -22
      vertex -1.24372 71.9974 -22
    endloop
  endfacet
  facet normal 0 0 1
    outer loop
      vertex -3.25 75 -22
      vertex -1.75 75 -22
      vertex -3.00261 76.2437 -22
    endloop
  endfacet
  facet normal 0 0 1
    outer loop
      vertex -1.61679 74.3303 -22
      vertex -3.00261 73.7563 -22
      vertex -2.2981 72.7019 -22
    endloop
  endfacet
  facet normal 0 0 1
    outer loop
      vertex -1.75 75 -22
      vertex -3.25 75 -22
      vertex -3.00261 73.7563 -22
    endloop
  endfacet
  facet normal -0.555562 -0.831475 0
    outer loop
      vertex 1.24372 78.0026 -22
      vertex 2.2981 77.2981 0
      vertex 1.24372 78.0026 0
    endloop
  endfacet
  facet normal -0.555562 -0.831475 -0
    outer loop
      vertex 2.2981 77.2981 0
      vertex 1.24372 78.0026 -22
      vertex 2.2981 77.2981 -22
    endloop
  endfacet
  facet normal -0.831476 -0.555561 0
    outer loop
      vertex 3.00261 76.2437 -22
      vertex 2.2981 77.2981 0
      vertex 2.2981 77.2981 -22
    endloop
  endfacet
  facet normal -0.831476 -0.555561 0
    outer loop
      vertex 2.2981 77.2981 0
      vertex 3.00261 76.2437 -22
      vertex 3.00261 76.2437 0
    endloop
  endfacet
  facet normal 0.555562 -0.831475 0
    outer loop
      vertex -2.2981 77.2981 -22
      vertex -1.24372 78.0026 0
      vertex -2.2981 77.2981 0
    endloop
  endfacet
  facet normal 0.555562 -0.831475 0
    outer loop
      vertex -1.24372 78.0026 0
      vertex -2.2981 77.2981 -22
      vertex -1.24372 78.0026 -22
    endloop
  endfacet
  facet normal 0.831476 -0.555561 0
    outer loop
      vertex -3.00261 76.2437 0
      vertex -2.2981 77.2981 -22
      vertex -2.2981 77.2981 0
    endloop
  endfacet
  facet normal 0.831476 -0.555561 0
    outer loop
      vertex -2.2981 77.2981 -22
      vertex -3.00261 76.2437 0
      vertex -3.00261 76.2437 -22
    endloop
  endfacet
  facet normal 0 0 1
    outer loop
      vertex 0 78.25 0
      vertex 4 80.3953 0
      vertex 4 85 0
    endloop
  endfacet
  facet normal 0 0 1
    outer loop
      vertex 4 80.3953 0
      vertex 3.00261 76.2437 0
      vertex 3.25 75 0
    endloop
  endfacet
  facet normal 0 0 1
    outer loop
      vertex 4 80.3953 0
      vertex 2.2981 77.2981 0
      vertex 3.00261 76.2437 0
    endloop
  endfacet
  facet normal 0 0 1
    outer loop
      vertex 4 80.3953 0
      vertex 1.24372 78.0026 0
      vertex 2.2981 77.2981 0
    endloop
  endfacet
  facet normal 0 0 1
    outer loop
      vertex 4 80.3953 0
      vertex 0 78.25 0
      vertex 1.24372 78.0026 0
    endloop
  endfacet
  facet normal -0 0 1
    outer loop
      vertex -4 85 0
      vertex 0 78.25 0
      vertex 4 85 0
    endloop
  endfacet
  facet normal 0 0 1
    outer loop
      vertex 0 78.25 0
      vertex -4 80.3953 0
      vertex -1.24372 78.0026 0
    endloop
  endfacet
  facet normal -0 0 1
    outer loop
      vertex -4.21304 80.3897 0
      vertex -2.2981 77.2981 0
      vertex -4 80.3953 0
    endloop
  endfacet
  facet normal 0 0 1
    outer loop
      vertex -1.24372 78.0026 0
      vertex -4 80.3953 0
      vertex -2.2981 77.2981 0
    endloop
  endfacet
  facet normal 0 0 1
    outer loop
      vertex 0 78.25 0
      vertex -4 85 0
      vertex -4 80.3953 0
    endloop
  endfacet
  facet normal 0 0 1
    outer loop
      vertex 16.7369 78.7409 0
      vertex 20 70 0
      vertex 20 77.9575 0
    endloop
  endfacet
  facet normal 0 0 1
    outer loop
      vertex 12.593 79.5089 0
      vertex 20 70 0
      vertex 16.7369 78.7409 0
    endloop
  endfacet
  facet normal 0 0 1
    outer loop
      vertex 3.25 75 0
      vertex 12.593 79.5089 0
      vertex 8.41454 80.059 0
    endloop
  endfacet
  facet normal 0 0 1
    outer loop
      vertex 3.25 75 0
      vertex 8.41454 80.059 0
      vertex 4.21304 80.3897 0
    endloop
  endfacet
  facet normal 0 0 1
    outer loop
      vertex 3.25 75 0
      vertex 4.21304 80.3897 0
      vertex 4 80.3953 0
    endloop
  endfacet
  facet normal 0 0 1
    outer loop
      vertex 12.593 79.5089 0
      vertex 3.25 75 0
      vertex 3.00261 73.7563 0
    endloop
  endfacet
  facet normal 0 0 1
    outer loop
      vertex 12.593 79.5089 0
      vertex 3.00261 73.7563 0
      vertex 20 70 0
    endloop
  endfacet
  facet normal -0 0 1
    outer loop
      vertex 2.2981 72.7019 0
      vertex 20 70 0
      vertex 3.00261 73.7563 0
    endloop
  endfacet
  facet normal -0 0 1
    outer loop
      vertex 1.24372 71.9974 0
      vertex 20 70 0
      vertex 2.2981 72.7019 0
    endloop
  endfacet
  facet normal -0 0 1
    outer loop
      vertex 0 71.75 0
      vertex 20 70 0
      vertex 1.24372 71.9974 0
    endloop
  endfacet
  facet normal 0 0 1
    outer loop
      vertex -2.2981 77.2981 0
      vertex -4.21304 80.3897 0
      vertex -3.00261 76.2437 0
    endloop
  endfacet
  facet normal -0 0 1
    outer loop
      vertex -8.41454 80.059 0
      vertex -3.00261 76.2437 0
      vertex -4.21304 80.3897 0
    endloop
  endfacet
  facet normal 0 0 1
    outer loop
      vertex -3.00261 76.2437 0
      vertex -8.41454 80.059 0
      vertex -3.25 75 0
    endloop
  endfacet
  facet normal -0 0 1
    outer loop
      vertex -12.593 79.5089 0
      vertex -3.25 75 0
      vertex -8.41454 80.059 0
    endloop
  endfacet
  facet normal 0 0 1
    outer loop
      vertex -3.25 75 0
      vertex -12.593 79.5089 0
      vertex -3.00261 73.7563 0
    endloop
  endfacet
  facet normal 0 0 1
    outer loop
      vertex -20 70 0
      vertex -3.00261 73.7563 0
      vertex -12.593 79.5089 0
    endloop
  endfacet
  facet normal 0 0 1
    outer loop
      vertex -3.00261 73.7563 0
      vertex -20 70 0
      vertex -2.2981 72.7019 0
    endloop
  endfacet
  facet normal 0 0 1
    outer loop
      vertex -20 70 0
      vertex -12.593 79.5089 0
      vertex -16.7369 78.7409 0
    endloop
  endfacet
  facet normal 0 0 1
    outer loop
      vertex -20 70 0
      vertex -16.7369 78.7409 0
      vertex -20 77.9575 0
    endloop
  endfacet
  facet normal 0 0 1
    outer loop
      vertex 0 71.75 0
      vertex -20 70 0
      vertex 20 70 0
    endloop
  endfacet
  facet normal 0 0 1
    outer loop
      vertex -1.24372 71.9974 0
      vertex -20 70 0
      vertex 0 71.75 0
    endloop
  endfacet
  facet normal 0 0 1
    outer loop
      vertex -2.2981 72.7019 0
      vertex -20 70 0
      vertex -1.24372 71.9974 0
    endloop
  endfacet
  facet normal 0.195097 -0.980784 0
    outer loop
      vertex -1.24372 78.0026 -22
      vertex 0 78.25 0
      vertex -1.24372 78.0026 0
    endloop
  endfacet
  facet normal 0.195097 -0.980784 0
    outer loop
      vertex 0 78.25 0
      vertex -1.24372 78.0026 -22
      vertex 0 78.25 -22
    endloop
  endfacet
  facet normal 0.555562 0.831475 -0
    outer loop
      vertex -1.24372 71.9974 -22
      vertex -2.2981 72.7019 0
      vertex -1.24372 71.9974 0
    endloop
  endfacet
  facet normal 0.555562 0.831475 0
    outer loop
      vertex -2.2981 72.7019 0
      vertex -1.24372 71.9974 -22
      vertex -2.2981 72.7019 -22
    endloop
  endfacet
  facet normal 0.980785 0.195092 0
    outer loop
      vertex -3.00261 73.7563 0
      vertex -3.25 75 -22
      vertex -3.25 75 0
    endloop
  endfacet
  facet normal 0.980785 0.195092 0
    outer loop
      vertex -3.25 75 -22
      vertex -3.00261 73.7563 0
      vertex -3.00261 73.7563 -22
    endloop
  endfacet
  facet normal -0.980785 0.195092 0
    outer loop
      vertex 3.00261 73.7563 -22
      vertex 3.25 75 0
      vertex 3.25 75 -22
    endloop
  endfacet
  facet normal -0.980785 0.195092 0
    outer loop
      vertex 3.25 75 0
      vertex 3.00261 73.7563 -22
      vertex 3.00261 73.7563 0
    endloop
  endfacet
  facet normal 0.831476 0.555561 0
    outer loop
      vertex -2.2981 72.7019 0
      vertex -3.00261 73.7563 -22
      vertex -3.00261 73.7563 0
    endloop
  endfacet
  facet normal 0.831476 0.555561 0
    outer loop
      vertex -3.00261 73.7563 -22
      vertex -2.2981 72.7019 0
      vertex -2.2981 72.7019 -22
    endloop
  endfacet
  facet normal -0.555562 0.831475 0
    outer loop
      vertex 2.2981 72.7019 -22
      vertex 1.24372 71.9974 0
      vertex 2.2981 72.7019 0
    endloop
  endfacet
  facet normal -0.555562 0.831475 0
    outer loop
      vertex 1.24372 71.9974 0
      vertex 2.2981 72.7019 -22
      vertex 1.24372 71.9974 -22
    endloop
  endfacet
  facet normal -0.831476 0.555561 0
    outer loop
      vertex 2.2981 72.7019 -22
      vertex 3.00261 73.7563 0
      vertex 3.00261 73.7563 -22
    endloop
  endfacet
  facet normal -0.831476 0.555561 0
    outer loop
      vertex 3.00261 73.7563 0
      vertex 2.2981 72.7019 -22
      vertex 2.2981 72.7019 0
    endloop
  endfacet
  facet normal 0.0262771 0.999655 0
    outer loop
      vertex 4.21304 80.3897 0
      vertex 4 80.3953 -7
      vertex 4 80.3953 0
    endloop
  endfacet
  facet normal 0.0262771 0.999655 -0
    outer loop
      vertex 4.21304 80.3897 -25
      vertex 4 80.3953 -7
      vertex 4.21304 80.3897 0
    endloop
  endfacet
  facet normal 0.0261717 0.999657 -1.2485e-06
    outer loop
      vertex 0 80.5 -25
      vertex 4 80.3953 -7
      vertex 4.21304 80.3897 -25
    endloop
  endfacet
  facet normal 0.026166 0.999658 0
    outer loop
      vertex 4 80.3953 -7
      vertex 0 80.5 -25
      vertex 0 80.5 -7
    endloop
  endfacet
  facet normal -0.130525 0.991445 0
    outer loop
      vertex -8.41454 80.059 -25
      vertex -12.593 79.5089 0
      vertex -8.41454 80.059 0
    endloop
  endfacet
  facet normal -0.130525 0.991445 0
    outer loop
      vertex -12.593 79.5089 0
      vertex -8.41454 80.059 -25
      vertex -12.593 79.5089 -25
    endloop
  endfacet
  facet normal 0.233445 0.97237 -0
    outer loop
      vertex 20 77.9575 -25
      vertex 16.7369 78.7409 0
      vertex 20 77.9575 0
    endloop
  endfacet
  facet normal 0.233445 0.97237 0
    outer loop
      vertex 16.7369 78.7409 0
      vertex 20 77.9575 -25
      vertex 16.7369 78.7409 -25
    endloop
  endfacet
  facet normal 0.130525 0.991445 -0
    outer loop
      vertex 12.593 79.5089 -25
      vertex 8.41454 80.059 0
      vertex 12.593 79.5089 0
    endloop
  endfacet
  facet normal 0.130525 0.991445 0
    outer loop
      vertex 8.41454 80.059 0
      vertex 12.593 79.5089 -25
      vertex 8.41454 80.059 -25
    endloop
  endfacet
  facet normal -0.0784673 0.996917 0
    outer loop
      vertex -4.21304 80.3897 -25
      vertex -8.41454 80.059 0
      vertex -4.21304 80.3897 0
    endloop
  endfacet
  facet normal -0.0784673 0.996917 0
    outer loop
      vertex -8.41454 80.059 0
      vertex -4.21304 80.3897 -25
      vertex -8.41454 80.059 -25
    endloop
  endfacet
  facet normal 0.182229 0.983256 -0
    outer loop
      vertex 16.7369 78.7409 -25
      vertex 12.593 79.5089 0
      vertex 16.7369 78.7409 0
    endloop
  endfacet
  facet normal 0.182229 0.983256 0
    outer loop
      vertex 12.593 79.5089 0
      vertex 16.7369 78.7409 -25
      vertex 12.593 79.5089 -25
    endloop
  endfacet
  facet normal 0.0784673 0.996917 -0
    outer loop
      vertex 8.41454 80.059 -25
      vertex 4.21304 80.3897 0
      vertex 8.41454 80.059 0
    endloop
  endfacet
  facet normal 0.0784673 0.996917 0
    outer loop
      vertex 4.21304 80.3897 0
      vertex 8.41454 80.059 -25
      vertex 4.21304 80.3897 -25
    endloop
  endfacet
  facet normal -0.233445 0.97237 0
    outer loop
      vertex -16.7369 78.7409 -25
      vertex -20 77.9575 0
      vertex -16.7369 78.7409 0
    endloop
  endfacet
  facet normal -0.233445 0.97237 0
    outer loop
      vertex -20 77.9575 0
      vertex -16.7369 78.7409 -25
      vertex -20 77.9575 -25
    endloop
  endfacet
  facet normal -0.182229 0.983256 0
    outer loop
      vertex -12.593 79.5089 -25
      vertex -16.7369 78.7409 0
      vertex -12.593 79.5089 0
    endloop
  endfacet
  facet normal -0.182229 0.983256 0
    outer loop
      vertex -16.7369 78.7409 0
      vertex -12.593 79.5089 -25
      vertex -16.7369 78.7409 -25
    endloop
  endfacet
  facet normal -0.026166 0.999658 0
    outer loop
      vertex 0 80.5 -7
      vertex 0 80.5 -25
      vertex -4 80.3953 -7
    endloop
  endfacet
  facet normal -0.0262771 0.999655 0
    outer loop
      vertex -4 80.3953 -7
      vertex -4.21304 80.3897 0
      vertex -4 80.3953 0
    endloop
  endfacet
  facet normal -0.0262771 0.999655 0
    outer loop
      vertex -4 80.3953 -7
      vertex -4.21304 80.3897 -25
      vertex -4.21304 80.3897 0
    endloop
  endfacet
  facet normal -0.0261717 0.999657 -1.2485e-06
    outer loop
      vertex -4.21304 80.3897 -25
      vertex -4 80.3953 -7
      vertex 0 80.5 -25
    endloop
  endfacet
  facet normal -1 0 0
    outer loop
      vertex -20 70 -25
      vertex -20 77.9575 0
      vertex -20 77.9575 -25
    endloop
  endfacet
  facet normal -1 -0 0
    outer loop
      vertex -20 77.9575 0
      vertex -20 70 -25
      vertex -20 70 0
    endloop
  endfacet
  facet normal 1 -0 0
    outer loop
      vertex 20 70 0
      vertex 20 77.9575 -25
      vertex 20 77.9575 0
    endloop
  endfacet
  facet normal 1 0 0
    outer loop
      vertex 20 77.9575 -25
      vertex 20 70 0
      vertex 20 70 -25
    endloop
  endfacet
  facet normal 0 -1 0
    outer loop
      vertex -20 70 -25
      vertex 20 70 0
      vertex -20 70 0
    endloop
  endfacet
  facet normal 0 -1 -0
    outer loop
      vertex 20 70 0
      vertex -20 70 -25
      vertex 20 70 -25
    endloop
  endfacet
  facet normal -1 0 0
    outer loop
      vertex -4 80.3953 -7
      vertex -4 85 0
      vertex -4 85 -7
    endloop
  endfacet
  facet normal -1 -0 0
    outer loop
      vertex -4 85 0
      vertex -4 80.3953 -7
      vertex -4 80.3953 0
    endloop
  endfacet
  facet normal 1 -0 0
    outer loop
      vertex 4 80.3953 0
      vertex 4 85 -7
      vertex 4 85 0
    endloop
  endfacet
  facet normal 1 0 0
    outer loop
      vertex 4 85 -7
      vertex 4 80.3953 0
      vertex 4 80.3953 -7
    endloop
  endfacet
  facet normal 0 1 -0
    outer loop
      vertex 4 85 -7
      vertex -4 85 0
      vertex 4 85 0
    endloop
  endfacet
  facet normal 0 1 0
    outer loop
      vertex -4 85 0
      vertex 4 85 -7
      vertex -4 85 -7
    endloop
  endfacet
  facet normal 0 0 -1
    outer loop
      vertex 0 80.5 -7
      vertex 4 85 -7
      vertex 4 80.3953 -7
    endloop
  endfacet
  facet normal 0 0 -1
    outer loop
      vertex -4 85 -7
      vertex 0 80.5 -7
      vertex -4 80.3953 -7
    endloop
  endfacet
  facet normal 0 0 -1
    outer loop
      vertex 0 80.5 -7
      vertex -4 85 -7
      vertex 4 85 -7
    endloop
  endfacet
endsolid OpenSCAD_Model
