solid ASCII
  facet normal 0.000000e+00 1.000000e+00 -0.000000e+00
    outer loop
      vertex   -1.450000e+01 -5.200000e+00 2.000000e+00
      vertex   -2.550000e+01 -5.200000e+00 2.000000e+00
      vertex   -1.450000e+01 -5.200000e+00 1.300000e+01
    endloop
  endfacet
  facet normal 0.000000e+00 1.000000e+00 0.000000e+00
    outer loop
      vertex   -1.450000e+01 -5.200000e+00 1.300000e+01
      vertex   -2.550000e+01 -5.200000e+00 2.000000e+00
      vertex   -2.550000e+01 -5.200000e+00 1.300000e+01
    endloop
  endfacet
  facet normal 1.000000e+00 -0.000000e+00 0.000000e+00
    outer loop
      vertex   -2.550000e+01 -5.200000e+00 1.300000e+01
      vertex   -2.550000e+01 -5.200000e+00 2.000000e+00
      vertex   -2.550000e+01 -3.000000e-01 1.300000e+01
    endloop
  endfacet
  facet normal 1.000000e+00 0.000000e+00 0.000000e+00
    outer loop
      vertex   -2.550000e+01 -3.000000e-01 1.300000e+01
      vertex   -2.550000e+01 -5.200000e+00 2.000000e+00
      vertex   -2.550000e+01 -3.000000e-01 2.000000e+00
    endloop
  endfacet
  facet normal 0.000000e+00 0.000000e+00 1.000000e+00
    outer loop
      vertex   -2.550000e+01 -5.200000e+00 2.000000e+00
      vertex   -1.450000e+01 -5.200000e+00 2.000000e+00
      vertex   -2.550000e+01 -3.000000e-01 2.000000e+00
    endloop
  endfacet
  facet normal -0.000000e+00 0.000000e+00 1.000000e+00
    outer loop
      vertex   -2.550000e+01 -3.000000e-01 2.000000e+00
      vertex   -1.450000e+01 -5.200000e+00 2.000000e+00
      vertex   -1.450000e+01 -3.000000e-01 2.000000e+00
    endloop
  endfacet
  facet normal 0.000000e+00 -1.000000e+00 0.000000e+00
    outer loop
      vertex   -2.550000e+01 -3.000000e-01 2.000000e+00
      vertex   -1.450000e+01 -3.000000e-01 2.000000e+00
      vertex   -2.550000e+01 -3.000000e-01 1.300000e+01
    endloop
  endfacet
  facet normal 0.000000e+00 -1.000000e+00 0.000000e+00
    outer loop
      vertex   -2.550000e+01 -3.000000e-01 1.300000e+01
      vertex   -1.450000e+01 -3.000000e-01 2.000000e+00
      vertex   -1.450000e+01 -3.000000e-01 1.300000e+01
    endloop
  endfacet
  facet normal -1.000000e+00 0.000000e+00 0.000000e+00
    outer loop
      vertex   -1.450000e+01 -5.200000e+00 2.000000e+00
      vertex   -1.450000e+01 -5.200000e+00 1.300000e+01
      vertex   -1.450000e+01 -3.000000e-01 2.000000e+00
    endloop
  endfacet
  facet normal -1.000000e+00 0.000000e+00 0.000000e+00
    outer loop
      vertex   -1.450000e+01 -3.000000e-01 2.000000e+00
      vertex   -1.450000e+01 -5.200000e+00 1.300000e+01
      vertex   -1.450000e+01 -3.000000e-01 1.300000e+01
    endloop
  endfacet
  facet normal 0.000000e+00 0.000000e+00 -1.000000e+00
    outer loop
      vertex   -1.450000e+01 -5.200000e+00 1.300000e+01
      vertex   -2.550000e+01 -5.200000e+00 1.300000e+01
      vertex   -1.450000e+01 -3.000000e-01 1.300000e+01
    endloop
  endfacet
  facet normal -0.000000e+00 0.000000e+00 -1.000000e+00
    outer loop
      vertex   -1.450000e+01 -3.000000e-01 1.300000e+01
      vertex   -2.550000e+01 -5.200000e+00 1.300000e+01
      vertex   -2.550000e+01 -3.000000e-01 1.300000e+01
    endloop
  endfacet
  facet normal 0.000000e+00 1.000000e+00 -0.000000e+00
    outer loop
      vertex   2.550000e+01 -5.200000e+00 2.000000e+00
      vertex   1.450000e+01 -5.200000e+00 2.000000e+00
      vertex   2.550000e+01 -5.200000e+00 1.300000e+01
    endloop
  endfacet
  facet normal 0.000000e+00 1.000000e+00 0.000000e+00
    outer loop
      vertex   2.550000e+01 -5.200000e+00 1.300000e+01
      vertex   1.450000e+01 -5.200000e+00 2.000000e+00
      vertex   1.450000e+01 -5.200000e+00 1.300000e+01
    endloop
  endfacet
  facet normal 1.000000e+00 -0.000000e+00 0.000000e+00
    outer loop
      vertex   1.450000e+01 -5.200000e+00 1.300000e+01
      vertex   1.450000e+01 -5.200000e+00 2.000000e+00
      vertex   1.450000e+01 -3.000000e-01 1.300000e+01
    endloop
  endfacet
  facet normal 1.000000e+00 0.000000e+00 0.000000e+00
    outer loop
      vertex   1.450000e+01 -3.000000e-01 1.300000e+01
      vertex   1.450000e+01 -5.200000e+00 2.000000e+00
      vertex   1.450000e+01 -3.000000e-01 2.000000e+00
    endloop
  endfacet
  facet normal 0.000000e+00 0.000000e+00 1.000000e+00
    outer loop
      vertex   1.450000e+01 -5.200000e+00 2.000000e+00
      vertex   2.550000e+01 -5.200000e+00 2.000000e+00
      vertex   1.450000e+01 -3.000000e-01 2.000000e+00
    endloop
  endfacet
  facet normal -0.000000e+00 0.000000e+00 1.000000e+00
    outer loop
      vertex   1.450000e+01 -3.000000e-01 2.000000e+00
      vertex   2.550000e+01 -5.200000e+00 2.000000e+00
      vertex   2.550000e+01 -3.000000e-01 2.000000e+00
    endloop
  endfacet
  facet normal 0.000000e+00 -1.000000e+00 0.000000e+00
    outer loop
      vertex   1.450000e+01 -3.000000e-01 2.000000e+00
      vertex   2.550000e+01 -3.000000e-01 2.000000e+00
      vertex   1.450000e+01 -3.000000e-01 1.300000e+01
    endloop
  endfacet
  facet normal 0.000000e+00 -1.000000e+00 0.000000e+00
    outer loop
      vertex   1.450000e+01 -3.000000e-01 1.300000e+01
      vertex   2.550000e+01 -3.000000e-01 2.000000e+00
      vertex   2.550000e+01 -3.000000e-01 1.300000e+01
    endloop
  endfacet
  facet normal -1.000000e+00 0.000000e+00 0.000000e+00
    outer loop
      vertex   2.550000e+01 -5.200000e+00 2.000000e+00
      vertex   2.550000e+01 -5.200000e+00 1.300000e+01
      vertex   2.550000e+01 -3.000000e-01 2.000000e+00
    endloop
  endfacet
  facet normal -1.000000e+00 0.000000e+00 0.000000e+00
    outer loop
      vertex   2.550000e+01 -3.000000e-01 2.000000e+00
      vertex   2.550000e+01 -5.200000e+00 1.300000e+01
      vertex   2.550000e+01 -3.000000e-01 1.300000e+01
    endloop
  endfacet
  facet normal 0.000000e+00 0.000000e+00 -1.000000e+00
    outer loop
      vertex   2.550000e+01 -5.200000e+00 1.300000e+01
      vertex   1.450000e+01 -5.200000e+00 1.300000e+01
      vertex   2.550000e+01 -3.000000e-01 1.300000e+01
    endloop
  endfacet
  facet normal -0.000000e+00 0.000000e+00 -1.000000e+00
    outer loop
      vertex   2.550000e+01 -3.000000e-01 1.300000e+01
      vertex   1.450000e+01 -5.200000e+00 1.300000e+01
      vertex   1.450000e+01 -3.000000e-01 1.300000e+01
    endloop
  endfacet
  facet normal -2.235174e-08 -1.000000e+00 -0.000000e+00
    outer loop
      vertex   -4.150000e+01 -3.000000e+00 6.000000e+00
      vertex   -4.150000e+01 -3.000000e+00 0.000000e+00
      vertex   -3.950000e+01 -3.000000e+00 6.000000e+00
    endloop
  endfacet
  facet normal 0.000000e+00 -1.000000e+00 -7.450581e-09
    outer loop
      vertex   -3.950000e+01 -3.000000e+00 6.000000e+00
      vertex   -4.150000e+01 -3.000000e+00 0.000000e+00
      vertex   -2.750000e+01 -3.000000e+00 0.000000e+00
    endloop
  endfacet
  facet normal 3.725290e-09 -1.000000e+00 0.000000e+00
    outer loop
      vertex   -3.950000e+01 -3.000000e+00 6.000000e+00
      vertex   -2.750000e+01 -3.000000e+00 0.000000e+00
      vertex   -2.750000e+01 -3.000000e+00 1.500000e+01
    endloop
  endfacet
  facet normal 3.725290e-09 -1.000000e+00 0.000000e+00
    outer loop
      vertex   -2.750000e+01 -3.000000e+00 1.500000e+01
      vertex   -3.950000e+01 -3.000000e+00 1.500000e+01
      vertex   -3.950000e+01 -3.000000e+00 6.000000e+00
    endloop
  endfacet
  facet normal -1.000000e+00 0.000000e+00 0.000000e+00
    outer loop
      vertex   -2.750000e+01 -5.500000e+00 1.500000e+01
      vertex   -2.750000e+01 -3.000000e+00 1.500000e+01
      vertex   -2.750000e+01 -5.500000e+00 0.000000e+00
    endloop
  endfacet
  facet normal -1.000000e+00 0.000000e+00 0.000000e+00
    outer loop
      vertex   -2.750000e+01 -5.500000e+00 0.000000e+00
      vertex   -2.750000e+01 -3.000000e+00 1.500000e+01
      vertex   -2.750000e+01 -3.000000e+00 0.000000e+00
    endloop
  endfacet
  facet normal 0.000000e+00 -1.000000e+00 0.000000e+00
    outer loop
      vertex   -2.750000e+01 -5.500000e+00 0.000000e+00
      vertex   2.750000e+01 -5.500000e+00 0.000000e+00
      vertex   -2.750000e+01 -5.500000e+00 1.500000e+01
    endloop
  endfacet
  facet normal 0.000000e+00 -1.000000e+00 0.000000e+00
    outer loop
      vertex   -2.750000e+01 -5.500000e+00 1.500000e+01
      vertex   2.750000e+01 -5.500000e+00 0.000000e+00
      vertex   2.750000e+01 -5.500000e+00 1.500000e+01
    endloop
  endfacet
  facet normal -3.725290e-09 -1.000000e+00 -0.000000e+00
    outer loop
      vertex   2.750000e+01 -3.000000e+00 1.500000e+01
      vertex   2.750000e+01 -3.000000e+00 0.000000e+00
      vertex   3.950000e+01 -3.000000e+00 6.000000e+00
    endloop
  endfacet
  facet normal 0.000000e+00 -1.000000e+00 -7.450581e-09
    outer loop
      vertex   3.950000e+01 -3.000000e+00 6.000000e+00
      vertex   2.750000e+01 -3.000000e+00 0.000000e+00
      vertex   4.150000e+01 -3.000000e+00 0.000000e+00
    endloop
  endfacet
  facet normal 2.235174e-08 -1.000000e+00 0.000000e+00
    outer loop
      vertex   3.950000e+01 -3.000000e+00 6.000000e+00
      vertex   4.150000e+01 -3.000000e+00 0.000000e+00
      vertex   4.150000e+01 -3.000000e+00 6.000000e+00
    endloop
  endfacet
  facet normal -3.725290e-09 -1.000000e+00 0.000000e+00
    outer loop
      vertex   3.950000e+01 -3.000000e+00 6.000000e+00
      vertex   3.950000e+01 -3.000000e+00 1.500000e+01
      vertex   2.750000e+01 -3.000000e+00 1.500000e+01
    endloop
  endfacet
  facet normal 1.000000e+00 0.000000e+00 -0.000000e+00
    outer loop
      vertex   3.950000e+01 0.000000e+00 0.000000e+00
      vertex   3.950000e+01 0.000000e+00 1.500000e+01
      vertex   3.950000e+01 -2.000000e+00 6.000000e+00
    endloop
  endfacet
  facet normal 1.000000e+00 0.000000e+00 -0.000000e+00
    outer loop
      vertex   3.950000e+01 -2.000000e+00 6.000000e+00
      vertex   3.950000e+01 0.000000e+00 1.500000e+01
      vertex   3.950000e+01 -3.000000e+00 1.500000e+01
    endloop
  endfacet
  facet normal 1.000000e+00 0.000000e+00 0.000000e+00
    outer loop
      vertex   3.950000e+01 -2.000000e+00 6.000000e+00
      vertex   3.950000e+01 -3.000000e+00 1.500000e+01
      vertex   3.950000e+01 -3.000000e+00 6.000000e+00
    endloop
  endfacet
  facet normal 1.000000e+00 0.000000e+00 0.000000e+00
    outer loop
      vertex   3.950000e+01 -2.000000e+00 6.000000e+00
      vertex   3.950000e+01 -2.000000e+00 0.000000e+00
      vertex   3.950000e+01 0.000000e+00 0.000000e+00
    endloop
  endfacet
  facet normal 0.000000e+00 1.000000e+00 -0.000000e+00
    outer loop
      vertex   3.950000e+01 0.000000e+00 0.000000e+00
      vertex   -3.950000e+01 0.000000e+00 0.000000e+00
      vertex   3.950000e+01 0.000000e+00 1.500000e+01
    endloop
  endfacet
  facet normal 0.000000e+00 1.000000e+00 0.000000e+00
    outer loop
      vertex   3.950000e+01 0.000000e+00 1.500000e+01
      vertex   -3.950000e+01 0.000000e+00 0.000000e+00
      vertex   -3.950000e+01 0.000000e+00 1.500000e+01
    endloop
  endfacet
  facet normal -0.000000e+00 0.000000e+00 1.000000e+00
    outer loop
      vertex   -4.150000e+01 -2.000000e+00 6.000000e+00
      vertex   -4.150000e+01 -3.000000e+00 6.000000e+00
      vertex   -3.950000e+01 -2.000000e+00 6.000000e+00
    endloop
  endfacet
  facet normal 0.000000e+00 0.000000e+00 1.000000e+00
    outer loop
      vertex   -3.950000e+01 -2.000000e+00 6.000000e+00
      vertex   -4.150000e+01 -3.000000e+00 6.000000e+00
      vertex   -3.950000e+01 -3.000000e+00 6.000000e+00
    endloop
  endfacet
  facet normal -1.000000e+00 0.000000e+00 0.000000e+00
    outer loop
      vertex   -4.150000e+01 -2.000000e+00 0.000000e+00
      vertex   -4.150000e+01 -3.000000e+00 0.000000e+00
      vertex   -4.150000e+01 -2.000000e+00 6.000000e+00
    endloop
  endfacet
  facet normal -1.000000e+00 -0.000000e+00 0.000000e+00
    outer loop
      vertex   -4.150000e+01 -2.000000e+00 6.000000e+00
      vertex   -4.150000e+01 -3.000000e+00 0.000000e+00
      vertex   -4.150000e+01 -3.000000e+00 6.000000e+00
    endloop
  endfacet
  facet normal 0.000000e+00 1.000000e+00 -0.000000e+00
    outer loop
      vertex   -3.950000e+01 -2.000000e+00 0.000000e+00
      vertex   -4.150000e+01 -2.000000e+00 0.000000e+00
      vertex   -3.950000e+01 -2.000000e+00 6.000000e+00
    endloop
  endfacet
  facet normal 0.000000e+00 1.000000e+00 0.000000e+00
    outer loop
      vertex   -3.950000e+01 -2.000000e+00 6.000000e+00
      vertex   -4.150000e+01 -2.000000e+00 0.000000e+00
      vertex   -4.150000e+01 -2.000000e+00 6.000000e+00
    endloop
  endfacet
  facet normal 0.000000e+00 0.000000e+00 1.000000e+00
    outer loop
      vertex   4.150000e+01 -2.000000e+00 6.000000e+00
      vertex   3.950000e+01 -2.000000e+00 6.000000e+00
      vertex   4.150000e+01 -3.000000e+00 6.000000e+00
    endloop
  endfacet
  facet normal 0.000000e+00 0.000000e+00 1.000000e+00
    outer loop
      vertex   4.150000e+01 -3.000000e+00 6.000000e+00
      vertex   3.950000e+01 -2.000000e+00 6.000000e+00
      vertex   3.950000e+01 -3.000000e+00 6.000000e+00
    endloop
  endfacet
  facet normal 0.000000e+00 1.000000e+00 -0.000000e+00
    outer loop
      vertex   4.150000e+01 -2.000000e+00 0.000000e+00
      vertex   3.950000e+01 -2.000000e+00 0.000000e+00
      vertex   4.150000e+01 -2.000000e+00 6.000000e+00
    endloop
  endfacet
  facet normal 0.000000e+00 1.000000e+00 0.000000e+00
    outer loop
      vertex   4.150000e+01 -2.000000e+00 6.000000e+00
      vertex   3.950000e+01 -2.000000e+00 0.000000e+00
      vertex   3.950000e+01 -2.000000e+00 6.000000e+00
    endloop
  endfacet
  facet normal 1.000000e+00 0.000000e+00 0.000000e+00
    outer loop
      vertex   4.150000e+01 -3.000000e+00 0.000000e+00
      vertex   4.150000e+01 -2.000000e+00 0.000000e+00
      vertex   4.150000e+01 -3.000000e+00 6.000000e+00
    endloop
  endfacet
  facet normal 1.000000e+00 -0.000000e+00 0.000000e+00
    outer loop
      vertex   4.150000e+01 -3.000000e+00 6.000000e+00
      vertex   4.150000e+01 -2.000000e+00 0.000000e+00
      vertex   4.150000e+01 -2.000000e+00 6.000000e+00
    endloop
  endfacet
  facet normal 0.000000e+00 0.000000e+00 -1.000000e+00
    outer loop
      vertex   2.750000e+01 -5.500000e+00 0.000000e+00
      vertex   -2.750000e+01 -5.500000e+00 0.000000e+00
      vertex   2.750000e+01 -3.000000e+00 0.000000e+00
    endloop
  endfacet
  facet normal -0.000000e+00 0.000000e+00 -1.000000e+00
    outer loop
      vertex   2.750000e+01 -3.000000e+00 0.000000e+00
      vertex   -2.750000e+01 -5.500000e+00 0.000000e+00
      vertex   -2.750000e+01 -3.000000e+00 0.000000e+00
    endloop
  endfacet
  facet normal 0.000000e+00 0.000000e+00 -1.000000e+00
    outer loop
      vertex   2.750000e+01 -3.000000e+00 0.000000e+00
      vertex   -2.750000e+01 -3.000000e+00 0.000000e+00
      vertex   3.950000e+01 0.000000e+00 0.000000e+00
    endloop
  endfacet
  facet normal 0.000000e+00 0.000000e+00 -1.000000e+00
    outer loop
      vertex   3.950000e+01 0.000000e+00 0.000000e+00
      vertex   -2.750000e+01 -3.000000e+00 0.000000e+00
      vertex   -3.950000e+01 -2.000000e+00 0.000000e+00
    endloop
  endfacet
  facet normal -0.000000e+00 0.000000e+00 -1.000000e+00
    outer loop
      vertex   3.950000e+01 0.000000e+00 0.000000e+00
      vertex   -3.950000e+01 -2.000000e+00 0.000000e+00
      vertex   -3.950000e+01 0.000000e+00 0.000000e+00
    endloop
  endfacet
  facet normal 0.000000e+00 0.000000e+00 -1.000000e+00
    outer loop
      vertex   -2.750000e+01 -3.000000e+00 0.000000e+00
      vertex   -4.150000e+01 -3.000000e+00 0.000000e+00
      vertex   -3.950000e+01 -2.000000e+00 0.000000e+00
    endloop
  endfacet
  facet normal -0.000000e+00 0.000000e+00 -1.000000e+00
    outer loop
      vertex   -3.950000e+01 -2.000000e+00 0.000000e+00
      vertex   -4.150000e+01 -3.000000e+00 0.000000e+00
      vertex   -4.150000e+01 -2.000000e+00 0.000000e+00
    endloop
  endfacet
  facet normal 0.000000e+00 -0.000000e+00 -1.000000e+00
    outer loop
      vertex   3.950000e+01 0.000000e+00 0.000000e+00
      vertex   3.950000e+01 -2.000000e+00 0.000000e+00
      vertex   2.750000e+01 -3.000000e+00 0.000000e+00
    endloop
  endfacet
  facet normal 0.000000e+00 0.000000e+00 -1.000000e+00
    outer loop
      vertex   2.750000e+01 -3.000000e+00 0.000000e+00
      vertex   3.950000e+01 -2.000000e+00 0.000000e+00
      vertex   4.150000e+01 -3.000000e+00 0.000000e+00
    endloop
  endfacet
  facet normal 0.000000e+00 0.000000e+00 -1.000000e+00
    outer loop
      vertex   4.150000e+01 -3.000000e+00 0.000000e+00
      vertex   3.950000e+01 -2.000000e+00 0.000000e+00
      vertex   4.150000e+01 -2.000000e+00 0.000000e+00
    endloop
  endfacet
  facet normal -1.000000e+00 0.000000e+00 0.000000e+00
    outer loop
      vertex   -3.950000e+01 -2.000000e+00 0.000000e+00
      vertex   -3.950000e+01 -2.000000e+00 6.000000e+00
      vertex   -3.950000e+01 0.000000e+00 0.000000e+00
    endloop
  endfacet
  facet normal -1.000000e+00 0.000000e+00 0.000000e+00
    outer loop
      vertex   -3.950000e+01 0.000000e+00 0.000000e+00
      vertex   -3.950000e+01 -2.000000e+00 6.000000e+00
      vertex   -3.950000e+01 0.000000e+00 1.500000e+01
    endloop
  endfacet
  facet normal -1.000000e+00 -0.000000e+00 0.000000e+00
    outer loop
      vertex   -3.950000e+01 0.000000e+00 1.500000e+01
      vertex   -3.950000e+01 -2.000000e+00 6.000000e+00
      vertex   -3.950000e+01 -3.000000e+00 1.500000e+01
    endloop
  endfacet
  facet normal -1.000000e+00 0.000000e+00 0.000000e+00
    outer loop
      vertex   -3.950000e+01 -3.000000e+00 1.500000e+01
      vertex   -3.950000e+01 -2.000000e+00 6.000000e+00
      vertex   -3.950000e+01 -3.000000e+00 6.000000e+00
    endloop
  endfacet
  facet normal 1.000000e+00 0.000000e+00 0.000000e+00
    outer loop
      vertex   2.750000e+01 -5.500000e+00 0.000000e+00
      vertex   2.750000e+01 -3.000000e+00 0.000000e+00
      vertex   2.750000e+01 -5.500000e+00 1.500000e+01
    endloop
  endfacet
  facet normal 1.000000e+00 -0.000000e+00 0.000000e+00
    outer loop
      vertex   2.750000e+01 -5.500000e+00 1.500000e+01
      vertex   2.750000e+01 -3.000000e+00 0.000000e+00
      vertex   2.750000e+01 -3.000000e+00 1.500000e+01
    endloop
  endfacet
  facet normal 0.000000e+00 0.000000e+00 1.000000e+00
    outer loop
      vertex   -2.750000e+01 -5.500000e+00 1.500000e+01
      vertex   2.750000e+01 -5.500000e+00 1.500000e+01
      vertex   -2.750000e+01 -3.000000e+00 1.500000e+01
    endloop
  endfacet
  facet normal -0.000000e+00 0.000000e+00 1.000000e+00
    outer loop
      vertex   -2.750000e+01 -3.000000e+00 1.500000e+01
      vertex   2.750000e+01 -5.500000e+00 1.500000e+01
      vertex   2.750000e+01 -3.000000e+00 1.500000e+01
    endloop
  endfacet
  facet normal 0.000000e+00 -0.000000e+00 1.000000e+00
    outer loop
      vertex   -2.750000e+01 -3.000000e+00 1.500000e+01
      vertex   2.750000e+01 -3.000000e+00 1.500000e+01
      vertex   -3.950000e+01 0.000000e+00 1.500000e+01
    endloop
  endfacet
  facet normal -0.000000e+00 0.000000e+00 1.000000e+00
    outer loop
      vertex   -3.950000e+01 0.000000e+00 1.500000e+01
      vertex   2.750000e+01 -3.000000e+00 1.500000e+01
      vertex   3.950000e+01 0.000000e+00 1.500000e+01
    endloop
  endfacet
  facet normal 0.000000e+00 0.000000e+00 1.000000e+00
    outer loop
      vertex   3.950000e+01 0.000000e+00 1.500000e+01
      vertex   2.750000e+01 -3.000000e+00 1.500000e+01
      vertex   3.950000e+01 -3.000000e+00 1.500000e+01
    endloop
  endfacet
  facet normal 0.000000e+00 0.000000e+00 1.000000e+00
    outer loop
      vertex   -3.950000e+01 0.000000e+00 1.500000e+01
      vertex   -3.950000e+01 -3.000000e+00 1.500000e+01
      vertex   -2.750000e+01 -3.000000e+00 1.500000e+01
    endloop
  endfacet
endsolid
