solid Retraction
facet normal -0.0 1.0 -0.0
outer loop
vertex 3.66655366412381 26.6360398746253 6.86652771130627
vertex 4.6400055861906 26.6360398746253 1.46652771130627
vertex 3.66655366412381 26.6360398746253 1.46652771130627
endloop
endfacet
facet normal -0.0 1.0 -0.0
outer loop
vertex 4.6400055861906 26.6360398746253 1.46652771130627
vertex 3.66655366412381 26.6360398746253 6.86652771130627
vertex 4.6400055861906 26.6360398746253 6.86652771130627
endloop
endfacet
facet normal 0.0 0.0 -1.0
outer loop
vertex 3.66655366412381 41.4135041108087 -1.40998324127395e-014
vertex 4.6400055861906 40.4400521887419 -1.76247905159244e-014
vertex 3.66655366412381 1.41350411080866 -1.40998324127395e-014
endloop
endfacet
facet normal 0.0 0.0 -1.0
outer loop
vertex 4.6400055861906 40.4400521887419 -1.76247905159244e-014
vertex 3.66655366412381 41.4135041108087 -1.40998324127395e-014
vertex 43.6665536641238 41.4135041108087 -1.40998324127395e-014
endloop
endfacet
facet normal 0.0 0.0 -1.0
outer loop
vertex 4.6400055861906 40.4400521887419 -1.76247905159244e-014
vertex 43.6665536641238 41.4135041108087 -1.40998324127395e-014
vertex 42.693101742057 40.4400521887419 -1.76247905159244e-014
endloop
endfacet
facet normal 0.0 0.0 -1.0
outer loop
vertex 42.693101742057 40.4400521887419 -1.76247905159244e-014
vertex 43.6665536641238 41.4135041108087 -1.40998324127395e-014
vertex 42.693101742057 2.38695603287545 -1.76247905159244e-014
endloop
endfacet
facet normal 0.0 0.0 -1.0
outer loop
vertex 3.66655366412381 1.41350411080866 -1.40998324127395e-014
vertex 4.6400055861906 2.38695603287545 -1.76247905159244e-014
vertex 43.6665536641238 1.41350411080866 -1.40998324127395e-014
endloop
endfacet
facet normal 0.0 0.0 -1.0
outer loop
vertex 4.6400055861906 2.38695603287545 -1.76247905159244e-014
vertex 3.66655366412381 1.41350411080866 -1.40998324127395e-014
vertex 4.6400055861906 40.4400521887419 -1.76247905159244e-014
endloop
endfacet
facet normal 0.0 0.0 -1.0
outer loop
vertex 43.6665536641238 1.41350411080866 -1.40998324127395e-014
vertex 4.6400055861906 2.38695603287545 -1.76247905159244e-014
vertex 42.693101742057 2.38695603287545 -1.76247905159244e-014
endloop
endfacet
facet normal 0.0 0.0 -1.0
outer loop
vertex 43.6665536641238 1.41350411080866 -1.40998324127395e-014
vertex 42.693101742057 2.38695603287545 -1.76247905159244e-014
vertex 43.6665536641238 41.4135041108087 -1.40998324127395e-014
endloop
endfacet
facet normal -0.989996760428691 0.0 -0.14109009299273
outer loop
vertex 35.4206966082129 2.38695603287549 4.63469888160511
vertex 35.5238259427635 1.41350411080866 3.91106403989102
vertex 35.4206966082129 1.41350411080866 4.63469888160511
endloop
endfacet
facet normal -0.989996760428691 0.0 -0.14109009299273
outer loop
vertex 35.5238259427635 1.41350411080866 3.91106403989102
vertex 35.4206966082129 2.38695603287549 4.63469888160511
vertex 35.5238259427635 2.38695603287549 3.91106403989102
endloop
endfacet
facet normal -0.0 -0.0 1.0
outer loop
vertex 4.6400055861906 26.6360398746253 1.46652771130627
vertex 3.66655366412381 34.8360398746253 1.46652771130627
vertex 3.66655366412381 26.6360398746253 1.46652771130627
endloop
endfacet
facet normal -0.0 -0.0 1.0
outer loop
vertex 3.66655366412381 34.8360398746253 1.46652771130627
vertex 4.6400055861906 26.6360398746253 1.46652771130627
vertex 4.6400055861906 34.8360398746253 1.46652771130627
endloop
endfacet
facet normal 0.0 -1.0 0.0
outer loop
vertex 4.6400055861906 34.8360398746253 6.86652771130627
vertex 3.66655366412381 34.8360398746253 1.46652771130627
vertex 4.6400055861906 34.8360398746253 1.46652771130627
endloop
endfacet
facet normal 0.0 -1.0 0.0
outer loop
vertex 3.66655366412381 34.8360398746253 1.46652771130627
vertex 4.6400055861906 34.8360398746253 6.86652771130627
vertex 3.66655366412381 34.8360398746253 6.86652771130627
endloop
endfacet
facet normal -0.0 -0.0 1.0
outer loop
vertex 3.66655366412381 1.41350411080866 7.99999999999998
vertex 4.6400055861906 2.38695603287545 7.99999999999998
vertex 3.66655366412381 41.4135041108087 7.99999999999998
endloop
endfacet
facet normal -0.0 -0.0 1.0
outer loop
vertex 4.6400055861906 2.38695603287545 7.99999999999998
vertex 3.66655366412381 1.41350411080866 7.99999999999998
vertex 43.6665536641238 1.41350411080866 7.99999999999998
endloop
endfacet
facet normal -0.0 -0.0 1.0
outer loop
vertex 4.6400055861906 2.38695603287545 7.99999999999998
vertex 43.6665536641238 1.41350411080866 7.99999999999998
vertex 42.693101742057 2.38695603287545 7.99999999999998
endloop
endfacet
facet normal -0.0 -0.0 1.0
outer loop
vertex 42.693101742057 2.38695603287545 7.99999999999998
vertex 43.6665536641238 1.41350411080866 7.99999999999998
vertex 42.693101742057 40.4400521887419 7.99999999999998
endloop
endfacet
facet normal -0.0 -0.0 1.0
outer loop
vertex 3.66655366412381 41.4135041108087 7.99999999999998
vertex 4.6400055861906 40.4400521887419 7.99999999999998
vertex 43.6665536641238 41.4135041108087 7.99999999999998
endloop
endfacet
facet normal -0.0 -0.0 1.0
outer loop
vertex 4.6400055861906 40.4400521887419 7.99999999999998
vertex 3.66655366412381 41.4135041108087 7.99999999999998
vertex 4.6400055861906 2.38695603287545 7.99999999999998
endloop
endfacet
facet normal -0.0 -0.0 1.0
outer loop
vertex 43.6665536641238 41.4135041108087 7.99999999999998
vertex 4.6400055861906 40.4400521887419 7.99999999999998
vertex 42.693101742057 40.4400521887419 7.99999999999998
endloop
endfacet
facet normal -0.0 -0.0 1.0
outer loop
vertex 43.6665536641238 41.4135041108087 7.99999999999998
vertex 42.693101742057 40.4400521887419 7.99999999999998
vertex 43.6665536641238 1.41350411080866 7.99999999999998
endloop
endfacet
facet normal -0.0 1.0 -0.0
outer loop
vertex 3.66655366412381 41.4135041108087 -1.40998324127395e-014
vertex 7.08736308967508 41.4135041108087 1.45919073494125
vertex 43.6665536641238 41.4135041108087 -1.40998324127395e-014
endloop
endfacet
facet normal -0.0 1.0 -0.0
outer loop
vertex 7.08736308967508 41.4135041108087 1.45919073494125
vertex 3.66655366412381 41.4135041108087 -1.40998324127395e-014
vertex 3.66655366412381 41.4135041108087 7.99999999999998
endloop
endfacet
facet normal -0.0 1.0 -0.0
outer loop
vertex 7.08736308967508 41.4135041108087 1.45919073494125
vertex 3.66655366412381 41.4135041108087 7.99999999999998
vertex 19.5873630896751 41.4135041108087 6.65919073494125
endloop
endfacet
facet normal -0.0 1.0 -0.0
outer loop
vertex 19.5873630896751 41.4135041108087 6.65919073494125
vertex 3.66655366412381 41.4135041108087 7.99999999999998
vertex 37.5873630896751 41.4135041108087 6.65919073494125
endloop
endfacet
facet normal -0.0 1.0 -0.0
outer loop
vertex 43.6665536641238 41.4135041108087 -1.40998324127395e-014
vertex 37.5873630896751 41.4135041108087 1.45919073494125
vertex 43.6665536641238 41.4135041108087 7.99999999999998
endloop
endfacet
facet normal -0.0 1.0 -0.0
outer loop
vertex 37.5873630896751 41.4135041108087 1.45919073494125
vertex 43.6665536641238 41.4135041108087 -1.40998324127395e-014
vertex 7.08736308967508 41.4135041108087 1.45919073494125
endloop
endfacet
facet normal -0.0 1.0 -0.0
outer loop
vertex 43.6665536641238 41.4135041108087 7.99999999999998
vertex 37.5873630896751 41.4135041108087 1.45919073494125
vertex 37.5873630896751 41.4135041108087 6.65919073494125
endloop
endfacet
facet normal -0.0 1.0 -0.0
outer loop
vertex 43.6665536641238 41.4135041108087 7.99999999999998
vertex 37.5873630896751 41.4135041108087 6.65919073494125
vertex 3.66655366412381 41.4135041108087 7.99999999999998
endloop
endfacet
facet normal 0.0 -1.0 0.0
outer loop
vertex 31.3499199840603 1.41350411080866 1.44154808572069
vertex 14.9736467651023 1.41350411080866 1.27069848892233
vertex 32.0281708073235 1.41350411080866 1.1690432884598
endloop
endfacet
facet normal 0.0 -1.0 0.0
outer loop
vertex 14.9736467651023 1.41350411080866 1.27069848892233
vertex 31.3499199840603 1.41350411080866 1.44154808572069
vertex 15.6460730175682 1.41350411080866 1.36303355033702
endloop
endfacet
facet normal 0.0 -1.0 0.0
outer loop
vertex 15.6460730175682 1.41350411080866 1.36303355033702
vertex 31.3499199840603 1.41350411080866 1.44154808572069
vertex 16.271688828675 1.41350411080866 1.62625909139455
endloop
endfacet
facet normal 0.0 -1.0 0.0
outer loop
vertex 16.271688828675 1.41350411080866 1.62625909139455
vertex 31.3499199840603 1.41350411080866 1.44154808572069
vertex 30.7653094285814 1.41350411080866 1.88031173759963
endloop
endfacet
facet normal 0.0 -1.0 0.0
outer loop
vertex 16.271688828675 1.41350411080866 1.62625909139455
vertex 30.7653094285814 1.41350411080866 1.88031173759963
vertex 16.8078595147747 1.41350411080866 2.04243672647262
endloop
endfacet
facet normal 0.0 -1.0 0.0
outer loop
vertex 16.8078595147747 1.41350411080866 2.04243672647262
vertex 30.7653094285814 1.41350411080866 1.88031173759963
vertex 30.3141793841282 1.41350411080866 2.45543322631228
endloop
endfacet
facet normal 0.0 -1.0 0.0
outer loop
vertex 16.8078595147747 1.41350411080866 2.04243672647262
vertex 30.3141793841282 1.41350411080866 2.45543322631228
vertex 17.2180459296736 1.41350411080866 2.58320463750673
endloop
endfacet
facet normal 0.0 -1.0 0.0
outer loop
vertex 17.2180459296736 1.41350411080866 2.58320463750673
vertex 30.3141793841282 1.41350411080866 2.45543322631228
vertex 30.0272736177025 1.41350411080866 3.12771897283609
endloop
endfacet
facet normal 0.0 -1.0 0.0
outer loop
vertex 17.2180459296736 1.41350411080866 2.58320463750673
vertex 30.0272736177025 1.41350411080866 3.12771897283609
vertex 17.4742945470614 1.41350411080866 3.21171038502112
endloop
endfacet
facet normal 0.0 -1.0 0.0
outer loop
vertex 17.4742945470614 1.41350411080866 3.21171038502112
vertex 30.0272736177025 1.41350411080866 3.12771897283609
vertex 29.9241442831519 1.41350411080866 3.85135381455018
endloop
endfacet
facet normal 0.0 -1.0 0.0
outer loop
vertex 17.4742945470614 1.41350411080866 3.21171038502112
vertex 29.9241442831519 1.41350411080866 3.85135381455018
vertex 17.5591424471341 1.41350411080866 3.88512234097755
endloop
endfacet
facet normal 0.0 -1.0 0.0
outer loop
vertex 17.5591424471341 1.41350411080866 3.88512234097755
vertex 29.9241442831519 1.41350411080866 3.85135381455018
vertex 30.0118194741969 1.41350411080866 4.57702323285485
endloop
endfacet
facet normal 0.0 -1.0 0.0
outer loop
vertex 17.5591424471341 1.41350411080866 3.88512234097755
vertex 30.0118194741969 1.41350411080866 4.57702323285485
vertex 17.4668073857194 1.41350411080866 4.55754859344346
endloop
endfacet
facet normal 0.0 -1.0 0.0
outer loop
vertex 17.4668073857194 1.41350411080866 4.55754859344346
vertex 30.0118194741969 1.41350411080866 4.57702323285485
vertex 17.2035818446618 1.41350411080866 5.18316440455022
endloop
endfacet
facet normal 0.0 -1.0 0.0
outer loop
vertex 17.2035818446618 1.41350411080866 5.18316440455022
vertex 30.0118194741969 1.41350411080866 4.57702323285485
vertex 30.2843242714578 1.41350411080866 5.25527405611805
endloop
endfacet
facet normal 0.0 -1.0 0.0
outer loop
vertex 17.2035818446618 1.41350411080866 5.18316440455022
vertex 30.2843242714578 1.41350411080866 5.25527405611805
vertex 16.7874042095838 1.41350411080866 5.71933509064992
endloop
endfacet
facet normal 0.0 -1.0 0.0
outer loop
vertex 16.7874042095838 1.41350411080866 5.71933509064992
vertex 30.2843242714578 1.41350411080866 5.25527405611805
vertex 30.7230879233367 1.41350411080866 5.83988461159689
endloop
endfacet
facet normal 0.0 -1.0 0.0
outer loop
vertex 16.7874042095838 1.41350411080866 5.71933509064992
vertex 30.7230879233367 1.41350411080866 5.83988461159689
vertex 16.2466362985496 1.41350411080866 6.12952150554882
endloop
endfacet
facet normal 0.0 -1.0 0.0
outer loop
vertex 16.2466362985496 1.41350411080866 6.12952150554882
vertex 30.7230879233367 1.41350411080866 5.83988461159689
vertex 31.2982094120494 1.41350411080866 6.29101465605009
endloop
endfacet
facet normal 0.0 -1.0 0.0
outer loop
vertex 16.2466362985496 1.41350411080866 6.12952150554882
vertex 31.2982094120494 1.41350411080866 6.29101465605009
vertex 15.6181305510353 1.41350411080866 6.38577012293665
endloop
endfacet
facet normal 0.0 -1.0 0.0
outer loop
vertex 15.6181305510353 1.41350411080866 6.38577012293665
vertex 31.2982094120494 1.41350411080866 6.29101465605009
vertex 31.9704951585732 1.41350411080866 6.57792042247582
endloop
endfacet
facet normal 0.0 -1.0 0.0
outer loop
vertex 15.6181305510353 1.41350411080866 6.38577012293665
vertex 31.9704951585732 1.41350411080866 6.57792042247582
vertex 14.9447185950788 1.41350411080866 6.47061802300931
endloop
endfacet
facet normal 0.0 -1.0 0.0
outer loop
vertex 43.6665536641238 1.41350411080866 -1.40998324127395e-014
vertex 32.7538402256281 1.41350411080866 1.08136809741483
vertex 3.66655366412381 1.41350411080866 -1.40998324127395e-014
endloop
endfacet
facet normal 0.0 -1.0 0.0
outer loop
vertex 32.7538402256281 1.41350411080866 1.08136809741483
vertex 43.6665536641238 1.41350411080866 -1.40998324127395e-014
vertex 33.4774750673422 1.41350411080866 1.18449743196538
endloop
endfacet
facet normal 0.0 -1.0 0.0
outer loop
vertex 33.4774750673422 1.41350411080866 1.18449743196538
vertex 43.6665536641238 1.41350411080866 -1.40998324127395e-014
vertex 34.149760813866 1.41350411080866 1.47140319839111
endloop
endfacet
facet normal 0.0 -1.0 0.0
outer loop
vertex 34.149760813866 1.41350411080866 1.47140319839111
vertex 43.6665536641238 1.41350411080866 -1.40998324127395e-014
vertex 43.6665536641238 1.41350411080866 7.99999999999998
endloop
endfacet
facet normal 0.0 -1.0 0.0
outer loop
vertex 34.149760813866 1.41350411080866 1.47140319839111
vertex 43.6665536641238 1.41350411080866 7.99999999999998
vertex 34.7248823025787 1.41350411080866 1.92253324284431
endloop
endfacet
facet normal 0.0 -1.0 0.0
outer loop
vertex 34.7248823025787 1.41350411080866 1.92253324284431
vertex 43.6665536641238 1.41350411080866 7.99999999999998
vertex 35.1636459544576 1.41350411080866 2.50714379832314
endloop
endfacet
facet normal 0.0 -1.0 0.0
outer loop
vertex 35.1636459544576 1.41350411080866 2.50714379832314
vertex 43.6665536641238 1.41350411080866 7.99999999999998
vertex 35.4361507517185 1.41350411080866 3.18539462158635
endloop
endfacet
facet normal 0.0 -1.0 0.0
outer loop
vertex 35.4361507517185 1.41350411080866 3.18539462158635
vertex 43.6665536641238 1.41350411080866 7.99999999999998
vertex 35.5238259427635 1.41350411080866 3.91106403989102
endloop
endfacet
facet normal 0.0 -1.0 0.0
outer loop
vertex 35.5238259427635 1.41350411080866 3.91106403989102
vertex 43.6665536641238 1.41350411080866 7.99999999999998
vertex 35.4206966082129 1.41350411080866 4.63469888160511
endloop
endfacet
facet normal 0.0 -1.0 0.0
outer loop
vertex 35.4206966082129 1.41350411080866 4.63469888160511
vertex 43.6665536641238 1.41350411080866 7.99999999999998
vertex 35.1337908417872 1.41350411080866 5.30698462812892
endloop
endfacet
facet normal 0.0 -1.0 0.0
outer loop
vertex 35.1337908417872 1.41350411080866 5.30698462812892
vertex 43.6665536641238 1.41350411080866 7.99999999999998
vertex 34.682660797334 1.41350411080866 5.88210611684158
endloop
endfacet
facet normal 0.0 -1.0 0.0
outer loop
vertex 34.682660797334 1.41350411080866 5.88210611684158
vertex 43.6665536641238 1.41350411080866 7.99999999999998
vertex 34.0980502418551 1.41350411080866 6.32086976872051
endloop
endfacet
facet normal 0.0 -1.0 0.0
outer loop
vertex 34.0980502418551 1.41350411080866 6.32086976872051
vertex 43.6665536641238 1.41350411080866 7.99999999999998
vertex 33.4197994185919 1.41350411080866 6.5933745659814
endloop
endfacet
facet normal 0.0 -1.0 0.0
outer loop
vertex 33.4197994185919 1.41350411080866 6.5933745659814
vertex 43.6665536641238 1.41350411080866 7.99999999999998
vertex 32.6941300002873 1.41350411080866 6.68104975702637
endloop
endfacet
facet normal 0.0 -1.0 0.0
outer loop
vertex 3.66655366412381 1.41350411080866 -1.40998324127395e-014
vertex 13.6717290616315 1.41350411080866 1.61179500638283
vertex 3.66655366412381 1.41350411080866 7.99999999999998
endloop
endfacet
facet normal 0.0 -1.0 0.0
outer loop
vertex 13.6717290616315 1.41350411080866 1.61179500638283
vertex 3.66655366412381 1.41350411080866 -1.40998324127395e-014
vertex 14.3002348091459 1.41350411080866 1.35554638899499
endloop
endfacet
facet normal 0.0 -1.0 0.0
outer loop
vertex 14.3002348091459 1.41350411080866 1.35554638899499
vertex 3.66655366412381 1.41350411080866 -1.40998324127395e-014
vertex 14.9736467651023 1.41350411080866 1.27069848892233
endloop
endfacet
facet normal 0.0 -1.0 0.0
outer loop
vertex 14.9736467651023 1.41350411080866 1.27069848892233
vertex 3.66655366412381 1.41350411080866 -1.40998324127395e-014
vertex 32.7538402256281 1.41350411080866 1.08136809741483
endloop
endfacet
facet normal 0.0 -1.0 0.0
outer loop
vertex 14.9736467651023 1.41350411080866 1.27069848892233
vertex 32.7538402256281 1.41350411080866 1.08136809741483
vertex 32.0281708073235 1.41350411080866 1.1690432884598
endloop
endfacet
facet normal 0.0 -1.0 0.0
outer loop
vertex 3.66655366412381 1.41350411080866 7.99999999999998
vertex 13.6717290616315 1.41350411080866 1.61179500638283
vertex 13.1309611505973 1.41350411080866 2.02198142128173
endloop
endfacet
facet normal 0.0 -1.0 0.0
outer loop
vertex 3.66655366412381 1.41350411080866 7.99999999999998
vertex 13.1309611505973 1.41350411080866 2.02198142128173
vertex 12.7147835155193 1.41350411080866 2.55815210738143
endloop
endfacet
facet normal 0.0 -1.0 0.0
outer loop
vertex 3.66655366412381 1.41350411080866 7.99999999999998
vertex 12.7147835155193 1.41350411080866 2.55815210738143
vertex 12.4515579744618 1.41350411080866 3.18376791848819
endloop
endfacet
facet normal 0.0 -1.0 0.0
outer loop
vertex 3.66655366412381 1.41350411080866 7.99999999999998
vertex 12.4515579744618 1.41350411080866 3.18376791848819
vertex 12.3592229130471 1.41350411080866 3.8561941709541
endloop
endfacet
facet normal 0.0 -1.0 0.0
outer loop
vertex 3.66655366412381 1.41350411080866 7.99999999999998
vertex 12.3592229130471 1.41350411080866 3.8561941709541
vertex 12.4440708131197 1.41350411080866 4.52960612691052
endloop
endfacet
facet normal 0.0 -1.0 0.0
outer loop
vertex 3.66655366412381 1.41350411080866 7.99999999999998
vertex 12.4440708131197 1.41350411080866 4.52960612691052
vertex 12.7003194305076 1.41350411080866 5.15811187442491
endloop
endfacet
facet normal 0.0 -1.0 0.0
outer loop
vertex 3.66655366412381 1.41350411080866 7.99999999999998
vertex 12.7003194305076 1.41350411080866 5.15811187442491
vertex 13.1105058454065 1.41350411080866 5.69887978545902
endloop
endfacet
facet normal 0.0 -1.0 0.0
outer loop
vertex 3.66655366412381 1.41350411080866 7.99999999999998
vertex 13.1105058454065 1.41350411080866 5.69887978545902
vertex 13.6466765315061 1.41350411080866 6.11505742053709
endloop
endfacet
facet normal 0.0 -1.0 0.0
outer loop
vertex 3.66655366412381 1.41350411080866 7.99999999999998
vertex 13.6466765315061 1.41350411080866 6.11505742053709
vertex 14.2722923426129 1.41350411080866 6.37828296159462
endloop
endfacet
facet normal 0.0 -1.0 0.0
outer loop
vertex 3.66655366412381 1.41350411080866 7.99999999999998
vertex 14.2722923426129 1.41350411080866 6.37828296159462
vertex 14.9447185950788 1.41350411080866 6.47061802300931
endloop
endfacet
facet normal 0.0 -1.0 0.0
outer loop
vertex 3.66655366412381 1.41350411080866 7.99999999999998
vertex 14.9447185950788 1.41350411080866 6.47061802300931
vertex 31.9704951585732 1.41350411080866 6.57792042247582
endloop
endfacet
facet normal 0.0 -1.0 0.0
outer loop
vertex 3.66655366412381 1.41350411080866 7.99999999999998
vertex 31.9704951585732 1.41350411080866 6.57792042247582
vertex 32.6941300002873 1.41350411080866 6.68104975702637
endloop
endfacet
facet normal 0.0 -1.0 0.0
outer loop
vertex 3.66655366412381 1.41350411080866 7.99999999999998
vertex 32.6941300002873 1.41350411080866 6.68104975702637
vertex 43.6665536641238 1.41350411080866 7.99999999999998
endloop
endfacet
facet normal -1.0 0.0 0.0
outer loop
vertex 3.66655366412381 1.41350411080866 7.99999999999998
vertex 3.66655366412381 4.6464553681605 6.66276596940194
vertex 3.66655366412381 1.41350411080866 -1.40998324127395e-014
endloop
endfacet
facet normal -1.0 0.0 0.0
outer loop
vertex 3.66655366412381 4.6464553681605 6.66276596940194
vertex 3.66655366412381 1.41350411080866 7.99999999999998
vertex 3.66655366412381 41.4135041108087 7.99999999999998
endloop
endfacet
facet normal -1.0 0.0 0.0
outer loop
vertex 3.66655366412381 4.6464553681605 6.66276596940194
vertex 3.66655366412381 41.4135041108087 7.99999999999998
vertex 3.66655366412381 21.4464553681605 6.66276596940194
endloop
endfacet
facet normal -1.0 0.0 0.0
outer loop
vertex 3.66655366412381 21.4464553681605 6.66276596940194
vertex 3.66655366412381 41.4135041108087 7.99999999999998
vertex 3.66655366412381 26.6360398746253 6.86652771130627
endloop
endfacet
facet normal -1.0 0.0 0.0
outer loop
vertex 3.66655366412381 26.6360398746253 6.86652771130627
vertex 3.66655366412381 41.4135041108087 7.99999999999998
vertex 3.66655366412381 34.8360398746253 6.86652771130627
endloop
endfacet
facet normal -1.0 0.0 0.0
outer loop
vertex 3.66655366412381 34.8360398746253 6.86652771130627
vertex 3.66655366412381 41.4135041108087 7.99999999999998
vertex 3.66655366412381 34.8360398746253 1.46652771130627
endloop
endfacet
facet normal -1.0 0.0 0.0
outer loop
vertex 3.66655366412381 1.41350411080866 -1.40998324127395e-014
vertex 3.66655366412381 4.6464553681605 1.46276596940194
vertex 3.66655366412381 41.4135041108087 -1.40998324127395e-014
endloop
endfacet
facet normal -1.0 0.0 0.0
outer loop
vertex 3.66655366412381 4.6464553681605 1.46276596940194
vertex 3.66655366412381 1.41350411080866 -1.40998324127395e-014
vertex 3.66655366412381 4.6464553681605 6.66276596940194
endloop
endfacet
facet normal -1.0 0.0 0.0
outer loop
vertex 3.66655366412381 41.4135041108087 -1.40998324127395e-014
vertex 3.66655366412381 4.6464553681605 1.46276596940194
vertex 3.66655366412381 17.9464553681605 1.46276596940194
endloop
endfacet
facet normal -1.0 0.0 0.0
outer loop
vertex 3.66655366412381 41.4135041108087 -1.40998324127395e-014
vertex 3.66655366412381 17.9464553681605 1.46276596940194
vertex 3.66655366412381 26.6360398746253 1.46652771130627
endloop
endfacet
facet normal -1.0 0.0 0.0
outer loop
vertex 3.66655366412381 26.6360398746253 1.46652771130627
vertex 3.66655366412381 17.9464553681605 1.46276596940194
vertex 3.66655366412381 21.4464553681605 6.66276596940194
endloop
endfacet
facet normal -1.0 0.0 0.0
outer loop
vertex 3.66655366412381 26.6360398746253 1.46652771130627
vertex 3.66655366412381 21.4464553681605 6.66276596940194
vertex 3.66655366412381 26.6360398746253 6.86652771130627
endloop
endfacet
facet normal -1.0 0.0 0.0
outer loop
vertex 3.66655366412381 41.4135041108087 -1.40998324127395e-014
vertex 3.66655366412381 26.6360398746253 1.46652771130627
vertex 3.66655366412381 34.8360398746253 1.46652771130627
endloop
endfacet
facet normal -1.0 0.0 0.0
outer loop
vertex 3.66655366412381 41.4135041108087 -1.40998324127395e-014
vertex 3.66655366412381 34.8360398746253 1.46652771130627
vertex 3.66655366412381 41.4135041108087 7.99999999999998
endloop
endfacet
facet normal -0.0 1.0 -0.0
outer loop
vertex 4.6400055861906 2.38695603287545 -1.76247905159244e-014
vertex 14.9736467651023 2.38695603287545 1.27069848892233
vertex 42.693101742057 2.38695603287545 -1.76247905159244e-014
endloop
endfacet
facet normal -0.0 1.0 -0.0
outer loop
vertex 14.9736467651023 2.38695603287545 1.27069848892233
vertex 4.6400055861906 2.38695603287545 -1.76247905159244e-014
vertex 14.3002348091459 2.38695603287545 1.35554638899499
endloop
endfacet
facet normal -0.0 1.0 -0.0
outer loop
vertex 14.3002348091459 2.38695603287545 1.35554638899499
vertex 4.6400055861906 2.38695603287545 -1.76247905159244e-014
vertex 13.6717290616315 2.38695603287545 1.61179500638283
endloop
endfacet
facet normal -0.0 1.0 -0.0
outer loop
vertex 13.6717290616315 2.38695603287545 1.61179500638283
vertex 4.6400055861906 2.38695603287545 -1.76247905159244e-014
vertex 4.6400055861906 2.38695603287545 7.99999999999998
endloop
endfacet
facet normal -0.0 1.0 -0.0
outer loop
vertex 42.693101742057 2.38695603287545 -1.76247905159244e-014
vertex 14.9736467651023 2.38695603287545 1.27069848892233
vertex 32.7538402256281 2.38695603287549 1.08136809741483
endloop
endfacet
facet normal -0.0 1.0 -0.0
outer loop
vertex 32.7538402256281 2.38695603287549 1.08136809741483
vertex 14.9736467651023 2.38695603287545 1.27069848892233
vertex 32.0281708073235 2.38695603287549 1.1690432884598
endloop
endfacet
facet normal -0.0 1.0 -0.0
outer loop
vertex 13.6717290616315 2.38695603287545 1.61179500638283
vertex 4.6400055861906 2.38695603287545 7.99999999999998
vertex 13.1309611505973 2.38695603287545 2.02198142128173
endloop
endfacet
facet normal -0.0 1.0 -0.0
outer loop
vertex 13.1309611505973 2.38695603287545 2.02198142128173
vertex 4.6400055861906 2.38695603287545 7.99999999999998
vertex 12.7147835155193 2.38695603287545 2.55815210738143
endloop
endfacet
facet normal -0.0 1.0 -0.0
outer loop
vertex 12.7147835155193 2.38695603287545 2.55815210738143
vertex 4.6400055861906 2.38695603287545 7.99999999999998
vertex 12.4515579744618 2.38695603287545 3.18376791848819
endloop
endfacet
facet normal -0.0 1.0 -0.0
outer loop
vertex 12.4515579744618 2.38695603287545 3.18376791848819
vertex 4.6400055861906 2.38695603287545 7.99999999999998
vertex 12.3592229130471 2.38695603287545 3.8561941709541
endloop
endfacet
facet normal -0.0 1.0 -0.0
outer loop
vertex 12.3592229130471 2.38695603287545 3.8561941709541
vertex 4.6400055861906 2.38695603287545 7.99999999999998
vertex 12.4440708131197 2.38695603287545 4.52960612691052
endloop
endfacet
facet normal -0.0 1.0 -0.0
outer loop
vertex 12.4440708131197 2.38695603287545 4.52960612691052
vertex 4.6400055861906 2.38695603287545 7.99999999999998
vertex 12.7003194305076 2.38695603287545 5.15811187442491
endloop
endfacet
facet normal -0.0 1.0 -0.0
outer loop
vertex 12.7003194305076 2.38695603287545 5.15811187442491
vertex 4.6400055861906 2.38695603287545 7.99999999999998
vertex 13.1105058454065 2.38695603287545 5.69887978545902
endloop
endfacet
facet normal -0.0 1.0 -0.0
outer loop
vertex 13.1105058454065 2.38695603287545 5.69887978545902
vertex 4.6400055861906 2.38695603287545 7.99999999999998
vertex 13.6466765315061 2.38695603287545 6.11505742053709
endloop
endfacet
facet normal -0.0 1.0 -0.0
outer loop
vertex 13.6466765315061 2.38695603287545 6.11505742053709
vertex 4.6400055861906 2.38695603287545 7.99999999999998
vertex 14.2722923426129 2.38695603287545 6.37828296159462
endloop
endfacet
facet normal -0.0 1.0 -0.0
outer loop
vertex 14.2722923426129 2.38695603287545 6.37828296159462
vertex 4.6400055861906 2.38695603287545 7.99999999999998
vertex 14.9447185950788 2.38695603287545 6.47061802300931
endloop
endfacet
facet normal -0.0 1.0 -0.0
outer loop
vertex 14.9447185950788 2.38695603287545 6.47061802300931
vertex 4.6400055861906 2.38695603287545 7.99999999999998
vertex 31.9704951585732 2.38695603287549 6.57792042247582
endloop
endfacet
facet normal -0.0 1.0 -0.0
outer loop
vertex 31.9704951585732 2.38695603287549 6.57792042247582
vertex 4.6400055861906 2.38695603287545 7.99999999999998
vertex 32.6941300002873 2.38695603287549 6.68104975702637
endloop
endfacet
facet normal -0.0 1.0 -0.0
outer loop
vertex 42.693101742057 2.38695603287545 -1.76247905159244e-014
vertex 34.149760813866 2.38695603287549 1.47140319839111
vertex 42.693101742057 2.38695603287545 7.99999999999998
endloop
endfacet
facet normal -0.0 1.0 -0.0
outer loop
vertex 34.149760813866 2.38695603287549 1.47140319839111
vertex 42.693101742057 2.38695603287545 -1.76247905159244e-014
vertex 33.4774750673422 2.38695603287549 1.18449743196538
endloop
endfacet
facet normal -0.0 1.0 -0.0
outer loop
vertex 33.4774750673422 2.38695603287549 1.18449743196538
vertex 42.693101742057 2.38695603287545 -1.76247905159244e-014
vertex 32.7538402256281 2.38695603287549 1.08136809741483
endloop
endfacet
facet normal -0.0 1.0 -0.0
outer loop
vertex 42.693101742057 2.38695603287545 7.99999999999998
vertex 34.149760813866 2.38695603287549 1.47140319839111
vertex 34.7248823025787 2.38695603287549 1.92253324284431
endloop
endfacet
facet normal -0.0 1.0 -0.0
outer loop
vertex 42.693101742057 2.38695603287545 7.99999999999998
vertex 34.7248823025787 2.38695603287549 1.92253324284431
vertex 35.1636459544576 2.38695603287549 2.50714379832314
endloop
endfacet
facet normal -0.0 1.0 -0.0
outer loop
vertex 42.693101742057 2.38695603287545 7.99999999999998
vertex 35.1636459544576 2.38695603287549 2.50714379832314
vertex 35.4361507517185 2.38695603287549 3.18539462158635
endloop
endfacet
facet normal -0.0 1.0 -0.0
outer loop
vertex 42.693101742057 2.38695603287545 7.99999999999998
vertex 35.4361507517185 2.38695603287549 3.18539462158635
vertex 35.5238259427635 2.38695603287549 3.91106403989102
endloop
endfacet
facet normal -0.0 1.0 -0.0
outer loop
vertex 42.693101742057 2.38695603287545 7.99999999999998
vertex 35.5238259427635 2.38695603287549 3.91106403989102
vertex 35.4206966082129 2.38695603287549 4.63469888160511
endloop
endfacet
facet normal -0.0 1.0 -0.0
outer loop
vertex 42.693101742057 2.38695603287545 7.99999999999998
vertex 35.4206966082129 2.38695603287549 4.63469888160511
vertex 35.1337908417872 2.38695603287549 5.30698462812892
endloop
endfacet
facet normal -0.0 1.0 -0.0
outer loop
vertex 42.693101742057 2.38695603287545 7.99999999999998
vertex 35.1337908417872 2.38695603287549 5.30698462812892
vertex 34.682660797334 2.38695603287549 5.88210611684158
endloop
endfacet
facet normal -0.0 1.0 -0.0
outer loop
vertex 42.693101742057 2.38695603287545 7.99999999999998
vertex 34.682660797334 2.38695603287549 5.88210611684158
vertex 34.0980502418551 2.38695603287549 6.32086976872051
endloop
endfacet
facet normal -0.0 1.0 -0.0
outer loop
vertex 42.693101742057 2.38695603287545 7.99999999999998
vertex 34.0980502418551 2.38695603287549 6.32086976872051
vertex 33.4197994185919 2.38695603287549 6.5933745659814
endloop
endfacet
facet normal -0.0 1.0 -0.0
outer loop
vertex 42.693101742057 2.38695603287545 7.99999999999998
vertex 33.4197994185919 2.38695603287549 6.5933745659814
vertex 32.6941300002873 2.38695603287549 6.68104975702637
endloop
endfacet
facet normal -0.0 1.0 -0.0
outer loop
vertex 42.693101742057 2.38695603287545 7.99999999999998
vertex 32.6941300002873 2.38695603287549 6.68104975702637
vertex 4.6400055861906 2.38695603287545 7.99999999999998
endloop
endfacet
facet normal -0.0 1.0 -0.0
outer loop
vertex 14.9736467651023 2.38695603287545 1.27069848892233
vertex 31.3499199840603 2.38695603287549 1.44154808572069
vertex 32.0281708073235 2.38695603287549 1.1690432884598
endloop
endfacet
facet normal -0.0 1.0 -0.0
outer loop
vertex 31.3499199840603 2.38695603287549 1.44154808572069
vertex 14.9736467651023 2.38695603287545 1.27069848892233
vertex 15.6460730175682 2.38695603287545 1.36303355033702
endloop
endfacet
facet normal -0.0 1.0 -0.0
outer loop
vertex 31.3499199840603 2.38695603287549 1.44154808572069
vertex 15.6460730175682 2.38695603287545 1.36303355033702
vertex 16.271688828675 2.38695603287545 1.62625909139455
endloop
endfacet
facet normal -0.0 1.0 -0.0
outer loop
vertex 31.3499199840603 2.38695603287549 1.44154808572069
vertex 16.271688828675 2.38695603287545 1.62625909139455
vertex 30.7653094285814 2.38695603287549 1.88031173759963
endloop
endfacet
facet normal -0.0 1.0 -0.0
outer loop
vertex 30.7653094285814 2.38695603287549 1.88031173759963
vertex 16.271688828675 2.38695603287545 1.62625909139455
vertex 16.8078595147747 2.38695603287545 2.04243672647262
endloop
endfacet
facet normal -0.0 1.0 -0.0
outer loop
vertex 30.7653094285814 2.38695603287549 1.88031173759963
vertex 16.8078595147747 2.38695603287545 2.04243672647262
vertex 30.3141793841282 2.38695603287549 2.45543322631228
endloop
endfacet
facet normal -0.0 1.0 -0.0
outer loop
vertex 30.3141793841282 2.38695603287549 2.45543322631228
vertex 16.8078595147747 2.38695603287545 2.04243672647262
vertex 17.2180459296736 2.38695603287545 2.58320463750673
endloop
endfacet
facet normal -0.0 1.0 -0.0
outer loop
vertex 30.3141793841282 2.38695603287549 2.45543322631228
vertex 17.2180459296736 2.38695603287545 2.58320463750673
vertex 30.0272736177025 2.38695603287549 3.12771897283609
endloop
endfacet
facet normal -0.0 1.0 -0.0
outer loop
vertex 30.0272736177025 2.38695603287549 3.12771897283609
vertex 17.2180459296736 2.38695603287545 2.58320463750673
vertex 17.4742945470614 2.38695603287545 3.21171038502112
endloop
endfacet
facet normal -0.0 1.0 -0.0
outer loop
vertex 30.0272736177025 2.38695603287549 3.12771897283609
vertex 17.4742945470614 2.38695603287545 3.21171038502112
vertex 29.9241442831519 2.38695603287549 3.85135381455018
endloop
endfacet
facet normal -0.0 1.0 -0.0
outer loop
vertex 29.9241442831519 2.38695603287549 3.85135381455018
vertex 17.4742945470614 2.38695603287545 3.21171038502112
vertex 17.5591424471341 2.38695603287545 3.88512234097755
endloop
endfacet
facet normal -0.0 1.0 -0.0
outer loop
vertex 29.9241442831519 2.38695603287549 3.85135381455018
vertex 17.5591424471341 2.38695603287545 3.88512234097755
vertex 30.0118194741969 2.38695603287549 4.57702323285485
endloop
endfacet
facet normal -0.0 1.0 -0.0
outer loop
vertex 30.0118194741969 2.38695603287549 4.57702323285485
vertex 17.5591424471341 2.38695603287545 3.88512234097755
vertex 17.4668073857194 2.38695603287545 4.55754859344346
endloop
endfacet
facet normal -0.0 1.0 -0.0
outer loop
vertex 30.0118194741969 2.38695603287549 4.57702323285485
vertex 17.4668073857194 2.38695603287545 4.55754859344346
vertex 17.2035818446618 2.38695603287545 5.18316440455022
endloop
endfacet
facet normal -0.0 1.0 -0.0
outer loop
vertex 30.0118194741969 2.38695603287549 4.57702323285485
vertex 17.2035818446618 2.38695603287545 5.18316440455022
vertex 30.2843242714578 2.38695603287549 5.25527405611805
endloop
endfacet
facet normal -0.0 1.0 -0.0
outer loop
vertex 30.2843242714578 2.38695603287549 5.25527405611805
vertex 17.2035818446618 2.38695603287545 5.18316440455022
vertex 16.7874042095838 2.38695603287545 5.71933509064992
endloop
endfacet
facet normal -0.0 1.0 -0.0
outer loop
vertex 30.2843242714578 2.38695603287549 5.25527405611805
vertex 16.7874042095838 2.38695603287545 5.71933509064992
vertex 30.7230879233367 2.38695603287549 5.83988461159689
endloop
endfacet
facet normal -0.0 1.0 -0.0
outer loop
vertex 30.7230879233367 2.38695603287549 5.83988461159689
vertex 16.7874042095838 2.38695603287545 5.71933509064992
vertex 16.2466362985496 2.38695603287545 6.12952150554882
endloop
endfacet
facet normal -0.0 1.0 -0.0
outer loop
vertex 30.7230879233367 2.38695603287549 5.83988461159689
vertex 16.2466362985496 2.38695603287545 6.12952150554882
vertex 31.2982094120494 2.38695603287549 6.29101465605009
endloop
endfacet
facet normal -0.0 1.0 -0.0
outer loop
vertex 31.2982094120494 2.38695603287549 6.29101465605009
vertex 16.2466362985496 2.38695603287545 6.12952150554882
vertex 15.6181305510353 2.38695603287545 6.38577012293665
endloop
endfacet
facet normal -0.0 1.0 -0.0
outer loop
vertex 31.2982094120494 2.38695603287549 6.29101465605009
vertex 15.6181305510353 2.38695603287545 6.38577012293665
vertex 31.9704951585732 2.38695603287549 6.57792042247582
endloop
endfacet
facet normal -0.0 1.0 -0.0
outer loop
vertex 31.9704951585732 2.38695603287549 6.57792042247582
vertex 15.6181305510353 2.38695603287545 6.38577012293665
vertex 14.9447185950788 2.38695603287545 6.47061802300931
endloop
endfacet
facet normal -1.0 0.0 0.0
outer loop
vertex 42.693101742057 2.38695603287545 7.99999999999998
vertex 42.6931017420569 5.21970850266938 6.68929186907863
vertex 42.693101742057 2.38695603287545 -1.76247905159244e-014
endloop
endfacet
facet normal -1.0 0.0 0.0
outer loop
vertex 42.6931017420569 5.21970850266938 6.68929186907863
vertex 42.693101742057 2.38695603287545 7.99999999999998
vertex 42.693101742057 40.4400521887419 7.99999999999998
endloop
endfacet
facet normal -1.0 0.0 0.0
outer loop
vertex 42.6931017420569 5.21970850266938 6.68929186907863
vertex 42.693101742057 40.4400521887419 7.99999999999998
vertex 42.6931017420569 26.8197085026694 6.68929186907863
endloop
endfacet
facet normal -1.0 0.0 0.0
outer loop
vertex 42.6931017420569 26.8197085026694 6.68929186907863
vertex 42.693101742057 40.4400521887419 7.99999999999998
vertex 42.693101742057 28.7421798487913 6.57915093151368
endloop
endfacet
facet normal -1.0 0.0 0.0
outer loop
vertex 42.6931017420569 26.8197085026694 6.68929186907863
vertex 42.693101742057 28.7421798487913 6.57915093151368
vertex 42.6931017420569 26.8197085026694 1.18929186907863
endloop
endfacet
facet normal -1.0 0.0 0.0
outer loop
vertex 42.693101742057 28.7421798487913 6.57915093151368
vertex 42.693101742057 40.4400521887419 7.99999999999998
vertex 42.693101742057 40.0421798487913 6.57915093151368
endloop
endfacet
facet normal -1.0 0.0 0.0
outer loop
vertex 42.693101742057 40.0421798487913 6.57915093151368
vertex 42.693101742057 40.4400521887419 7.99999999999998
vertex 42.693101742057 40.0421798487913 1.17915093151368
endloop
endfacet
facet normal -1.0 0.0 0.0
outer loop
vertex 42.693101742057 2.38695603287545 -1.76247905159244e-014
vertex 42.6931017420569 5.21970850266938 1.18929186907863
vertex 42.693101742057 40.4400521887419 -1.76247905159244e-014
endloop
endfacet
facet normal -1.0 0.0 0.0
outer loop
vertex 42.6931017420569 5.21970850266938 1.18929186907863
vertex 42.693101742057 2.38695603287545 -1.76247905159244e-014
vertex 42.6931017420569 5.21970850266938 6.68929186907863
endloop
endfacet
facet normal -1.0 0.0 0.0
outer loop
vertex 42.693101742057 40.4400521887419 -1.76247905159244e-014
vertex 42.6931017420569 5.21970850266938 1.18929186907863
vertex 42.6931017420569 26.8197085026694 1.18929186907863
endloop
endfacet
facet normal -1.0 0.0 0.0
outer loop
vertex 42.693101742057 40.4400521887419 -1.76247905159244e-014
vertex 42.6931017420569 26.8197085026694 1.18929186907863
vertex 42.693101742057 28.7421798487913 1.17915093151368
endloop
endfacet
facet normal -1.0 0.0 0.0
outer loop
vertex 42.693101742057 28.7421798487913 1.17915093151368
vertex 42.6931017420569 26.8197085026694 1.18929186907863
vertex 42.693101742057 28.7421798487913 6.57915093151368
endloop
endfacet
facet normal -1.0 0.0 0.0
outer loop
vertex 42.693101742057 40.4400521887419 -1.76247905159244e-014
vertex 42.693101742057 28.7421798487913 1.17915093151368
vertex 42.693101742057 40.0421798487913 1.17915093151368
endloop
endfacet
facet normal -1.0 0.0 0.0
outer loop
vertex 42.693101742057 40.4400521887419 -1.76247905159244e-014
vertex 42.693101742057 40.0421798487913 1.17915093151368
vertex 42.693101742057 40.4400521887419 7.99999999999998
endloop
endfacet
facet normal 0.0 -1.0 0.0
outer loop
vertex 42.693101742057 40.4400521887419 -1.76247905159244e-014
vertex 37.5873630896751 40.4400521887419 1.45919073494125
vertex 4.6400055861906 40.4400521887419 -1.76247905159244e-014
endloop
endfacet
facet normal 0.0 -1.0 0.0
outer loop
vertex 37.5873630896751 40.4400521887419 1.45919073494125
vertex 42.693101742057 40.4400521887419 -1.76247905159244e-014
vertex 42.693101742057 40.4400521887419 7.99999999999998
endloop
endfacet
facet normal 0.0 -1.0 0.0
outer loop
vertex 37.5873630896751 40.4400521887419 1.45919073494125
vertex 42.693101742057 40.4400521887419 7.99999999999998
vertex 37.5873630896751 40.4400521887419 6.65919073494125
endloop
endfacet
facet normal 0.0 -1.0 0.0
outer loop
vertex 37.5873630896751 40.4400521887419 6.65919073494125
vertex 42.693101742057 40.4400521887419 7.99999999999998
vertex 19.5873630896751 40.4400521887419 6.65919073494125
endloop
endfacet
facet normal 0.0 -1.0 0.0
outer loop
vertex 4.6400055861906 40.4400521887419 -1.76247905159244e-014
vertex 7.08736308967508 40.4400521887419 1.45919073494125
vertex 4.6400055861906 40.4400521887419 7.99999999999998
endloop
endfacet
facet normal 0.0 -1.0 0.0
outer loop
vertex 7.08736308967508 40.4400521887419 1.45919073494125
vertex 4.6400055861906 40.4400521887419 -1.76247905159244e-014
vertex 37.5873630896751 40.4400521887419 1.45919073494125
endloop
endfacet
facet normal 0.0 -1.0 0.0
outer loop
vertex 4.6400055861906 40.4400521887419 7.99999999999998
vertex 7.08736308967508 40.4400521887419 1.45919073494125
vertex 19.5873630896751 40.4400521887419 6.65919073494125
endloop
endfacet
facet normal 0.0 -1.0 0.0
outer loop
vertex 4.6400055861906 40.4400521887419 7.99999999999998
vertex 19.5873630896751 40.4400521887419 6.65919073494125
vertex 42.693101742057 40.4400521887419 7.99999999999998
endloop
endfacet
facet normal 1.0 -0.0 -0.0
outer loop
vertex 4.6400055861906 2.38695603287545 -1.76247905159244e-014
vertex 4.64000558619064 4.6464553681605 1.46276596940194
vertex 4.6400055861906 2.38695603287545 7.99999999999998
endloop
endfacet
facet normal 1.0 -0.0 -0.0
outer loop
vertex 4.64000558619064 4.6464553681605 1.46276596940194
vertex 4.6400055861906 2.38695603287545 -1.76247905159244e-014
vertex 4.6400055861906 40.4400521887419 -1.76247905159244e-014
endloop
endfacet
facet normal 1.0 -0.0 -0.0
outer loop
vertex 4.64000558619064 4.6464553681605 1.46276596940194
vertex 4.6400055861906 40.4400521887419 -1.76247905159244e-014
vertex 4.64000558619064 17.9464553681605 1.46276596940194
endloop
endfacet
facet normal 1.0 -0.0 -0.0
outer loop
vertex 4.64000558619064 17.9464553681605 1.46276596940194
vertex 4.6400055861906 40.4400521887419 -1.76247905159244e-014
vertex 4.6400055861906 26.6360398746253 1.46652771130627
endloop
endfacet
facet normal 1.0 -0.0 -0.0
outer loop
vertex 4.64000558619064 17.9464553681605 1.46276596940194
vertex 4.6400055861906 26.6360398746253 1.46652771130627
vertex 4.64000558619064 21.4464553681605 6.66276596940194
endloop
endfacet
facet normal 1.0 -0.0 -0.0
outer loop
vertex 4.6400055861906 26.6360398746253 1.46652771130627
vertex 4.6400055861906 40.4400521887419 -1.76247905159244e-014
vertex 4.6400055861906 34.8360398746253 1.46652771130627
endloop
endfacet
facet normal 1.0 -0.0 -0.0
outer loop
vertex 4.6400055861906 34.8360398746253 1.46652771130627
vertex 4.6400055861906 40.4400521887419 -1.76247905159244e-014
vertex 4.6400055861906 34.8360398746253 6.86652771130627
endloop
endfacet
facet normal 1.0 -0.0 -0.0
outer loop
vertex 4.6400055861906 2.38695603287545 7.99999999999998
vertex 4.64000558619064 4.6464553681605 6.66276596940194
vertex 4.6400055861906 40.4400521887419 7.99999999999998
endloop
endfacet
facet normal 1.0 -0.0 -0.0
outer loop
vertex 4.64000558619064 4.6464553681605 6.66276596940194
vertex 4.6400055861906 2.38695603287545 7.99999999999998
vertex 4.64000558619064 4.6464553681605 1.46276596940194
endloop
endfacet
facet normal 1.0 -0.0 -0.0
outer loop
vertex 4.6400055861906 40.4400521887419 7.99999999999998
vertex 4.64000558619064 4.6464553681605 6.66276596940194
vertex 4.64000558619064 21.4464553681605 6.66276596940194
endloop
endfacet
facet normal 1.0 -0.0 -0.0
outer loop
vertex 4.6400055861906 40.4400521887419 7.99999999999998
vertex 4.64000558619064 21.4464553681605 6.66276596940194
vertex 4.6400055861906 26.6360398746253 6.86652771130627
endloop
endfacet
facet normal 1.0 -0.0 -0.0
outer loop
vertex 4.6400055861906 26.6360398746253 6.86652771130627
vertex 4.64000558619064 21.4464553681605 6.66276596940194
vertex 4.6400055861906 26.6360398746253 1.46652771130627
endloop
endfacet
facet normal 1.0 -0.0 -0.0
outer loop
vertex 4.6400055861906 40.4400521887419 7.99999999999998
vertex 4.6400055861906 26.6360398746253 6.86652771130627
vertex 4.6400055861906 34.8360398746253 6.86652771130627
endloop
endfacet
facet normal 1.0 -0.0 -0.0
outer loop
vertex 4.6400055861906 40.4400521887419 7.99999999999998
vertex 4.6400055861906 34.8360398746253 6.86652771130627
vertex 4.6400055861906 40.4400521887419 -1.76247905159244e-014
endloop
endfacet
facet normal -1.0 0.0 0.0
outer loop
vertex 37.5873630896751 41.4135041108087 6.65919073494125
vertex 37.5873630896751 40.4400521887419 1.45919073494125
vertex 37.5873630896751 40.4400521887419 6.65919073494125
endloop
endfacet
facet normal -1.0 0.0 0.0
outer loop
vertex 37.5873630896751 40.4400521887419 1.45919073494125
vertex 37.5873630896751 41.4135041108087 6.65919073494125
vertex 37.5873630896751 41.4135041108087 1.45919073494125
endloop
endfacet
facet normal -0.0 -0.0 1.0
outer loop
vertex 37.5873630896751 40.4400521887419 1.45919073494125
vertex 7.08736308967508 41.4135041108087 1.45919073494125
vertex 7.08736308967508 40.4400521887419 1.45919073494125
endloop
endfacet
facet normal -0.0 -0.0 1.0
outer loop
vertex 7.08736308967508 41.4135041108087 1.45919073494125
vertex 37.5873630896751 40.4400521887419 1.45919073494125
vertex 37.5873630896751 41.4135041108087 1.45919073494125
endloop
endfacet
facet normal 0.384090847092779 0.0 -0.923295305511488
outer loop
vertex 19.5873630896751 41.4135041108087 6.65919073494125
vertex 7.08736308967508 40.4400521887419 1.45919073494125
vertex 7.08736308967508 41.4135041108087 1.45919073494125
endloop
endfacet
facet normal 0.384090847092779 0.0 -0.923295305511488
outer loop
vertex 7.08736308967508 40.4400521887419 1.45919073494125
vertex 19.5873630896751 41.4135041108087 6.65919073494125
vertex 19.5873630896751 40.4400521887419 6.65919073494125
endloop
endfacet
facet normal 0.0 0.0 -1.0
outer loop
vertex 37.5873630896751 41.4135041108087 6.65919073494125
vertex 19.5873630896751 40.4400521887419 6.65919073494125
vertex 19.5873630896751 41.4135041108087 6.65919073494125
endloop
endfacet
facet normal 0.0 0.0 -1.0
outer loop
vertex 19.5873630896751 40.4400521887419 6.65919073494125
vertex 37.5873630896751 41.4135041108087 6.65919073494125
vertex 37.5873630896751 40.4400521887419 6.65919073494125
endloop
endfacet
facet normal 0.0 0.0 -1.0
outer loop
vertex 4.6400055861906 34.8360398746253 6.86652771130627
vertex 3.66655366412381 26.6360398746253 6.86652771130627
vertex 3.66655366412381 34.8360398746253 6.86652771130627
endloop
endfacet
facet normal 0.0 0.0 -1.0
outer loop
vertex 3.66655366412381 26.6360398746253 6.86652771130627
vertex 4.6400055861906 34.8360398746253 6.86652771130627
vertex 4.6400055861906 26.6360398746253 6.86652771130627
endloop
endfacet
facet normal -0.992780241982389 0.0 0.119947451533533
outer loop
vertex 35.5238259427635 2.38695603287549 3.91106403989102
vertex 35.4361507517185 1.41350411080866 3.18539462158635
vertex 35.5238259427635 1.41350411080866 3.91106403989102
endloop
endfacet
facet normal -0.992780241982389 0.0 0.119947451533533
outer loop
vertex 35.4361507517185 1.41350411080866 3.18539462158635
vertex 35.5238259427635 2.38695603287549 3.91106403989102
vertex 35.4361507517185 2.38695603287549 3.18539462158635
endloop
endfacet
facet normal -0.927907390691904 0.0 0.372810775460342
outer loop
vertex 35.4361507517185 2.38695603287549 3.18539462158635
vertex 35.1636459544576 1.41350411080866 2.50714379832314
vertex 35.4361507517185 1.41350411080866 3.18539462158635
endloop
endfacet
facet normal -0.927907390691904 0.0 0.372810775460342
outer loop
vertex 35.1636459544576 1.41350411080866 2.50714379832314
vertex 35.4361507517185 2.38695603287549 3.18539462158635
vertex 35.1636459544576 2.38695603287549 2.50714379832314
endloop
endfacet
facet normal 0.0 -0.829587747619414 0.558376368589993
outer loop
vertex 4.64000558619064 21.4464553681605 6.66276596940194
vertex 3.66655366412381 17.9464553681605 1.46276596940194
vertex 4.64000558619064 17.9464553681605 1.46276596940194
endloop
endfacet
facet normal 0.0 -0.829587747619414 0.558376368589993
outer loop
vertex 3.66655366412381 17.9464553681605 1.46276596940194
vertex 4.64000558619064 21.4464553681605 6.66276596940194
vertex 3.66655366412381 21.4464553681605 6.66276596940194
endloop
endfacet
facet normal -0.0 -0.0 1.0
outer loop
vertex 4.64000558619064 4.6464553681605 1.46276596940194
vertex 3.66655366412381 17.9464553681605 1.46276596940194
vertex 3.66655366412381 4.6464553681605 1.46276596940194
endloop
endfacet
facet normal -0.0 -0.0 1.0
outer loop
vertex 3.66655366412381 17.9464553681605 1.46276596940194
vertex 4.64000558619064 4.6464553681605 1.46276596940194
vertex 4.64000558619064 17.9464553681605 1.46276596940194
endloop
endfacet
facet normal -0.0 1.0 -0.0
outer loop
vertex 3.66655366412381 4.6464553681605 6.66276596940194
vertex 4.64000558619064 4.6464553681605 1.46276596940194
vertex 3.66655366412381 4.6464553681605 1.46276596940194
endloop
endfacet
facet normal -0.0 1.0 -0.0
outer loop
vertex 4.64000558619064 4.6464553681605 1.46276596940194
vertex 3.66655366412381 4.6464553681605 6.66276596940194
vertex 4.64000558619064 4.6464553681605 6.66276596940194
endloop
endfacet
facet normal 0.0 0.0 -1.0
outer loop
vertex 4.64000558619064 21.4464553681605 6.66276596940194
vertex 3.66655366412381 4.6464553681605 6.66276596940194
vertex 3.66655366412381 21.4464553681605 6.66276596940194
endloop
endfacet
facet normal 0.0 0.0 -1.0
outer loop
vertex 3.66655366412381 4.6464553681605 6.66276596940194
vertex 4.64000558619064 21.4464553681605 6.66276596940194
vertex 4.64000558619064 4.6464553681605 6.66276596940194
endloop
endfacet
facet normal -0.377537867524807 0.0 -0.925994146085612
outer loop
vertex 16.2466362985496 2.38695603287545 6.12952150554882
vertex 15.6181305510353 1.41350411080866 6.38577012293665
vertex 15.6181305510353 2.38695603287545 6.38577012293665
endloop
endfacet
facet normal -0.377537867524807 0.0 -0.925994146085612
outer loop
vertex 15.6181305510353 1.41350411080866 6.38577012293665
vertex 16.2466362985496 2.38695603287545 6.12952150554882
vertex 16.2466362985496 1.41350411080866 6.12952150554882
endloop
endfacet
facet normal -0.125008655983911 0.0 -0.992155651059397
outer loop
vertex 15.6181305510353 2.38695603287545 6.38577012293665
vertex 14.9447185950788 1.41350411080866 6.47061802300931
vertex 14.9447185950788 2.38695603287545 6.47061802300931
endloop
endfacet
facet normal -0.125008655983911 0.0 -0.992155651059397
outer loop
vertex 14.9447185950788 1.41350411080866 6.47061802300931
vertex 15.6181305510353 2.38695603287545 6.38577012293665
vertex 15.6181305510353 1.41350411080866 6.38577012293665
endloop
endfacet
facet normal 0.136039688875721 0.0 -0.990703388028222
outer loop
vertex 14.9447185950788 2.38695603287545 6.47061802300931
vertex 14.2722923426129 1.41350411080866 6.37828296159462
vertex 14.2722923426129 2.38695603287545 6.37828296159462
endloop
endfacet
facet normal 0.136039688875721 0.0 -0.990703388028222
outer loop
vertex 14.2722923426129 1.41350411080866 6.37828296159462
vertex 14.9447185950788 2.38695603287545 6.47061802300931
vertex 14.9447185950788 1.41350411080866 6.47061802300931
endloop
endfacet
facet normal 0.387817153754669 0.0 -0.921736326317688
outer loop
vertex 14.2722923426129 2.38695603287545 6.37828296159462
vertex 13.6466765315061 1.41350411080866 6.11505742053709
vertex 13.6466765315061 2.38695603287545 6.11505742053709
endloop
endfacet
facet normal 0.387817153754669 0.0 -0.921736326317688
outer loop
vertex 13.6466765315061 1.41350411080866 6.11505742053709
vertex 14.2722923426129 2.38695603287545 6.37828296159462
vertex 14.2722923426129 1.41350411080866 6.37828296159462
endloop
endfacet
facet normal 0.613165520503421 0.0 -0.789954457209888
outer loop
vertex 13.6466765315061 2.38695603287545 6.11505742053709
vertex 13.1105058454065 1.41350411080866 5.69887978545902
vertex 13.1105058454065 2.38695603287545 5.69887978545902
endloop
endfacet
facet normal 0.613165520503421 0.0 -0.789954457209888
outer loop
vertex 13.1105058454065 1.41350411080866 5.69887978545902
vertex 13.6466765315061 2.38695603287545 6.11505742053709
vertex 13.6466765315061 1.41350411080866 6.11505742053709
endloop
endfacet
facet normal 0.79672767033377 -0.0 -0.604338497304717
outer loop
vertex 12.7003194305076 2.38695603287545 5.15811187442491
vertex 13.1105058454065 1.41350411080866 5.69887978545902
vertex 12.7003194305076 1.41350411080866 5.15811187442491
endloop
endfacet
facet normal 0.79672767033377 -0.0 -0.604338497304717
outer loop
vertex 13.1105058454065 1.41350411080866 5.69887978545902
vertex 12.7003194305076 2.38695603287545 5.15811187442491
vertex 13.1105058454065 2.38695603287545 5.69887978545902
endloop
endfacet
facet normal 0.925994146085611 -0.0 -0.377537867524808
outer loop
vertex 12.4440708131197 2.38695603287545 4.52960612691052
vertex 12.7003194305076 1.41350411080866 5.15811187442491
vertex 12.4440708131197 1.41350411080866 4.52960612691052
endloop
endfacet
facet normal 0.925994146085611 -0.0 -0.377537867524808
outer loop
vertex 12.7003194305076 1.41350411080866 5.15811187442491
vertex 12.4440708131197 2.38695603287545 4.52960612691052
vertex 12.7003194305076 2.38695603287545 5.15811187442491
endloop
endfacet
facet normal 0.992155651059397 -0.0 -0.12500865598391
outer loop
vertex 12.3592229130471 2.38695603287545 3.8561941709541
vertex 12.4440708131197 1.41350411080866 4.52960612691052
vertex 12.3592229130471 1.41350411080866 3.8561941709541
endloop
endfacet
facet normal 0.992155651059397 -0.0 -0.12500865598391
outer loop
vertex 12.4440708131197 1.41350411080866 4.52960612691052
vertex 12.3592229130471 2.38695603287545 3.8561941709541
vertex 12.4440708131197 2.38695603287545 4.52960612691052
endloop
endfacet
facet normal 0.99070338802822 -0.0 0.136039688875732
outer loop
vertex 12.4515579744618 2.38695603287545 3.18376791848819
vertex 12.3592229130471 1.41350411080866 3.8561941709541
vertex 12.4515579744618 1.41350411080866 3.18376791848819
endloop
endfacet
facet normal 0.99070338802822 -0.0 0.136039688875732
outer loop
vertex 12.3592229130471 1.41350411080866 3.8561941709541
vertex 12.4515579744618 2.38695603287545 3.18376791848819
vertex 12.3592229130471 2.38695603287545 3.8561941709541
endloop
endfacet
facet normal 0.921736326317682 -0.0 0.387817153754682
outer loop
vertex 12.7147835155193 2.38695603287545 2.55815210738143
vertex 12.4515579744618 1.41350411080866 3.18376791848819
vertex 12.7147835155193 1.41350411080866 2.55815210738143
endloop
endfacet
facet normal 0.921736326317682 -0.0 0.387817153754682
outer loop
vertex 12.4515579744618 1.41350411080866 3.18376791848819
vertex 12.7147835155193 2.38695603287545 2.55815210738143
vertex 12.4515579744618 2.38695603287545 3.18376791848819
endloop
endfacet
facet normal 0.789954457209906 -0.0 0.613165520503398
outer loop
vertex 13.1309611505973 2.38695603287545 2.02198142128173
vertex 12.7147835155193 1.41350411080866 2.55815210738143
vertex 13.1309611505973 1.41350411080866 2.02198142128173
endloop
endfacet
facet normal 0.789954457209906 -0.0 0.613165520503398
outer loop
vertex 12.7147835155193 1.41350411080866 2.55815210738143
vertex 13.1309611505973 2.38695603287545 2.02198142128173
vertex 12.7147835155193 2.38695603287545 2.55815210738143
endloop
endfacet
facet normal 0.992780241982389 -0.0 -0.119947451533533
outer loop
vertex 29.9241442831519 2.38695603287549 3.85135381455018
vertex 30.0118194741969 1.41350411080866 4.57702323285485
vertex 29.9241442831519 1.41350411080866 3.85135381455018
endloop
endfacet
facet normal 0.992780241982389 -0.0 -0.119947451533533
outer loop
vertex 30.0118194741969 1.41350411080866 4.57702323285485
vertex 29.9241442831519 2.38695603287549 3.85135381455018
vertex 30.0118194741969 2.38695603287549 4.57702323285485
endloop
endfacet
facet normal -0.136039688875721 -0.0 0.990703388028222
outer loop
vertex 15.6460730175682 1.41350411080866 1.36303355033702
vertex 14.9736467651023 2.38695603287545 1.27069848892233
vertex 14.9736467651023 1.41350411080866 1.27069848892233
endloop
endfacet
facet normal -0.136039688875721 -0.0 0.990703388028222
outer loop
vertex 14.9736467651023 2.38695603287545 1.27069848892233
vertex 15.6460730175682 1.41350411080866 1.36303355033702
vertex 15.6460730175682 2.38695603287545 1.36303355033702
endloop
endfacet
facet normal -0.387817153754668 -0.0 0.921736326317688
outer loop
vertex 16.271688828675 1.41350411080866 1.62625909139455
vertex 15.6460730175682 2.38695603287545 1.36303355033702
vertex 15.6460730175682 1.41350411080866 1.36303355033702
endloop
endfacet
facet normal -0.387817153754668 -0.0 0.921736326317688
outer loop
vertex 15.6460730175682 2.38695603287545 1.36303355033702
vertex 16.271688828675 1.41350411080866 1.62625909139455
vertex 16.271688828675 2.38695603287545 1.62625909139455
endloop
endfacet
facet normal -0.61316552050342 -0.0 0.789954457209888
outer loop
vertex 16.8078595147747 1.41350411080866 2.04243672647262
vertex 16.271688828675 2.38695603287545 1.62625909139455
vertex 16.271688828675 1.41350411080866 1.62625909139455
endloop
endfacet
facet normal -0.61316552050342 -0.0 0.789954457209888
outer loop
vertex 16.271688828675 2.38695603287545 1.62625909139455
vertex 16.8078595147747 1.41350411080866 2.04243672647262
vertex 16.8078595147747 2.38695603287545 2.04243672647262
endloop
endfacet
facet normal -0.79672767033377 0.0 0.604338497304718
outer loop
vertex 17.2180459296736 2.38695603287545 2.58320463750673
vertex 16.8078595147747 1.41350411080866 2.04243672647262
vertex 17.2180459296736 1.41350411080866 2.58320463750673
endloop
endfacet
facet normal -0.79672767033377 0.0 0.604338497304718
outer loop
vertex 16.8078595147747 1.41350411080866 2.04243672647262
vertex 17.2180459296736 2.38695603287545 2.58320463750673
vertex 16.8078595147747 2.38695603287545 2.04243672647262
endloop
endfacet
facet normal -0.925994146085611 0.0 0.377537867524808
outer loop
vertex 17.4742945470614 2.38695603287545 3.21171038502112
vertex 17.2180459296736 1.41350411080866 2.58320463750673
vertex 17.4742945470614 1.41350411080866 3.21171038502112
endloop
endfacet
facet normal -0.925994146085611 0.0 0.377537867524808
outer loop
vertex 17.2180459296736 1.41350411080866 2.58320463750673
vertex 17.4742945470614 2.38695603287545 3.21171038502112
vertex 17.2180459296736 2.38695603287545 2.58320463750673
endloop
endfacet
facet normal -0.992155651059397 0.0 0.12500865598391
outer loop
vertex 17.5591424471341 2.38695603287545 3.88512234097755
vertex 17.4742945470614 1.41350411080866 3.21171038502112
vertex 17.5591424471341 1.41350411080866 3.88512234097755
endloop
endfacet
facet normal -0.992155651059397 0.0 0.12500865598391
outer loop
vertex 17.4742945470614 1.41350411080866 3.21171038502112
vertex 17.5591424471341 2.38695603287545 3.88512234097755
vertex 17.4742945470614 2.38695603287545 3.21171038502112
endloop
endfacet
facet normal -0.99070338802822 0.0 -0.136039688875732
outer loop
vertex 17.4668073857194 2.38695603287545 4.55754859344346
vertex 17.5591424471341 1.41350411080866 3.88512234097755
vertex 17.4668073857194 1.41350411080866 4.55754859344346
endloop
endfacet
facet normal -0.99070338802822 0.0 -0.136039688875732
outer loop
vertex 17.5591424471341 1.41350411080866 3.88512234097755
vertex 17.4668073857194 2.38695603287545 4.55754859344346
vertex 17.5591424471341 2.38695603287545 3.88512234097755
endloop
endfacet
facet normal -0.921736326317683 0.0 -0.387817153754682
outer loop
vertex 17.2035818446618 2.38695603287545 5.18316440455022
vertex 17.4668073857194 1.41350411080866 4.55754859344346
vertex 17.2035818446618 1.41350411080866 5.18316440455022
endloop
endfacet
facet normal -0.921736326317683 0.0 -0.387817153754682
outer loop
vertex 17.4668073857194 1.41350411080866 4.55754859344346
vertex 17.2035818446618 2.38695603287545 5.18316440455022
vertex 17.4668073857194 2.38695603287545 4.55754859344346
endloop
endfacet
facet normal -0.789954457209907 0.0 -0.613165520503396
outer loop
vertex 16.7874042095838 2.38695603287545 5.71933509064992
vertex 17.2035818446618 1.41350411080866 5.18316440455022
vertex 16.7874042095838 1.41350411080866 5.71933509064992
endloop
endfacet
facet normal -0.789954457209907 0.0 -0.613165520503396
outer loop
vertex 17.2035818446618 1.41350411080866 5.18316440455022
vertex 16.7874042095838 2.38695603287545 5.71933509064992
vertex 17.2035818446618 2.38695603287545 5.18316440455022
endloop
endfacet
facet normal -0.604338497304696 0.0 -0.796727670333786
outer loop
vertex 16.7874042095838 2.38695603287545 5.71933509064992
vertex 16.2466362985496 1.41350411080866 6.12952150554882
vertex 16.2466362985496 2.38695603287545 6.12952150554882
endloop
endfacet
facet normal -0.604338497304696 0.0 -0.796727670333786
outer loop
vertex 16.2466362985496 1.41350411080866 6.12952150554882
vertex 16.7874042095838 2.38695603287545 5.71933509064992
vertex 16.7874042095838 1.41350411080866 5.71933509064992
endloop
endfacet
facet normal 0.604338497304697 -0.0 0.796727670333786
outer loop
vertex 13.6717290616315 1.41350411080866 1.61179500638283
vertex 13.1309611505973 2.38695603287545 2.02198142128173
vertex 13.1309611505973 1.41350411080866 2.02198142128173
endloop
endfacet
facet normal 0.604338497304697 -0.0 0.796727670333786
outer loop
vertex 13.1309611505973 2.38695603287545 2.02198142128173
vertex 13.6717290616315 1.41350411080866 1.61179500638283
vertex 13.6717290616315 2.38695603287545 1.61179500638283
endloop
endfacet
facet normal 0.377537867524807 -0.0 0.925994146085612
outer loop
vertex 14.3002348091459 1.41350411080866 1.35554638899499
vertex 13.6717290616315 2.38695603287545 1.61179500638283
vertex 13.6717290616315 1.41350411080866 1.61179500638283
endloop
endfacet
facet normal 0.377537867524807 -0.0 0.925994146085612
outer loop
vertex 13.6717290616315 2.38695603287545 1.61179500638283
vertex 14.3002348091459 1.41350411080866 1.35554638899499
vertex 14.3002348091459 2.38695603287545 1.35554638899499
endloop
endfacet
facet normal 0.125008655983911 -0.0 0.992155651059397
outer loop
vertex 14.9736467651023 1.41350411080866 1.27069848892233
vertex 14.3002348091459 2.38695603287545 1.35554638899499
vertex 14.3002348091459 1.41350411080866 1.35554638899499
endloop
endfacet
facet normal 0.125008655983911 -0.0 0.992155651059397
outer loop
vertex 14.3002348091459 2.38695603287545 1.35554638899499
vertex 14.9736467651023 1.41350411080866 1.27069848892233
vertex 14.9736467651023 2.38695603287545 1.27069848892233
endloop
endfacet
facet normal 0.989996760428691 -0.0 0.14109009299273
outer loop
vertex 30.0272736177025 2.38695603287549 3.12771897283609
vertex 29.9241442831519 1.41350411080866 3.85135381455018
vertex 30.0272736177025 1.41350411080866 3.12771897283609
endloop
endfacet
facet normal 0.989996760428691 -0.0 0.14109009299273
outer loop
vertex 29.9241442831519 1.41350411080866 3.85135381455018
vertex 30.0272736177025 2.38695603287549 3.12771897283609
vertex 29.9241442831519 2.38695603287549 3.85135381455018
endloop
endfacet
facet normal 0.919746635698796 -0.0 0.392512580843909
outer loop
vertex 30.3141793841282 2.38695603287549 2.45543322631228
vertex 30.0272736177025 1.41350411080866 3.12771897283609
vertex 30.3141793841282 1.41350411080866 2.45543322631228
endloop
endfacet
facet normal 0.919746635698796 -0.0 0.392512580843909
outer loop
vertex 30.0272736177025 1.41350411080866 3.12771897283609
vertex 30.3141793841282 2.38695603287549 2.45543322631228
vertex 30.0272736177025 2.38695603287549 3.12771897283609
endloop
endfacet
facet normal 0.786817297699179 -0.0 0.617185984968357
outer loop
vertex 30.7653094285814 2.38695603287549 1.88031173759963
vertex 30.3141793841282 1.41350411080866 2.45543322631228
vertex 30.7653094285814 1.41350411080866 1.88031173759963
endloop
endfacet
facet normal 0.786817297699179 -0.0 0.617185984968357
outer loop
vertex 30.3141793841282 1.41350411080866 2.45543322631228
vertex 30.7653094285814 2.38695603287549 1.88031173759963
vertex 30.3141793841282 2.38695603287549 2.45543322631228
endloop
endfacet
facet normal 0.600267661138454 -0.0 0.799799184165232
outer loop
vertex 31.3499199840603 1.41350411080866 1.44154808572069
vertex 30.7653094285814 2.38695603287549 1.88031173759963
vertex 30.7653094285814 1.41350411080866 1.88031173759963
endloop
endfacet
facet normal 0.600267661138454 -0.0 0.799799184165232
outer loop
vertex 30.7653094285814 2.38695603287549 1.88031173759963
vertex 31.3499199840603 1.41350411080866 1.44154808572069
vertex 31.3499199840603 2.38695603287549 1.44154808572069
endloop
endfacet
facet normal 0.372810775460348 -0.0 0.927907390691902
outer loop
vertex 32.0281708073235 1.41350411080866 1.1690432884598
vertex 31.3499199840603 2.38695603287549 1.44154808572069
vertex 31.3499199840603 1.41350411080866 1.44154808572069
endloop
endfacet
facet normal 0.372810775460348 -0.0 0.927907390691902
outer loop
vertex 31.3499199840603 2.38695603287549 1.44154808572069
vertex 32.0281708073235 1.41350411080866 1.1690432884598
vertex 32.0281708073235 2.38695603287549 1.1690432884598
endloop
endfacet
facet normal 0.119947451533555 -0.0 0.992780241982386
outer loop
vertex 32.7538402256281 1.41350411080866 1.08136809741483
vertex 32.0281708073235 2.38695603287549 1.1690432884598
vertex 32.0281708073235 1.41350411080866 1.1690432884598
endloop
endfacet
facet normal 0.119947451533555 -0.0 0.992780241982386
outer loop
vertex 32.0281708073235 2.38695603287549 1.1690432884598
vertex 32.7538402256281 1.41350411080866 1.08136809741483
vertex 32.7538402256281 2.38695603287549 1.08136809741483
endloop
endfacet
facet normal -0.141090092992713 -0.0 0.989996760428693
outer loop
vertex 33.4774750673422 1.41350411080866 1.18449743196538
vertex 32.7538402256281 2.38695603287549 1.08136809741483
vertex 32.7538402256281 1.41350411080866 1.08136809741483
endloop
endfacet
facet normal -0.141090092992713 -0.0 0.989996760428693
outer loop
vertex 32.7538402256281 2.38695603287549 1.08136809741483
vertex 33.4774750673422 1.41350411080866 1.18449743196538
vertex 33.4774750673422 2.38695603287549 1.18449743196538
endloop
endfacet
facet normal -0.392512580843939 -0.0 0.919746635698783
outer loop
vertex 34.149760813866 1.41350411080866 1.47140319839111
vertex 33.4774750673422 2.38695603287549 1.18449743196538
vertex 33.4774750673422 1.41350411080866 1.18449743196538
endloop
endfacet
facet normal -0.392512580843939 -0.0 0.919746635698783
outer loop
vertex 33.4774750673422 2.38695603287549 1.18449743196538
vertex 34.149760813866 1.41350411080866 1.47140319839111
vertex 34.149760813866 2.38695603287549 1.47140319839111
endloop
endfacet
facet normal -0.617185984968357 -0.0 0.78681729769918
outer loop
vertex 34.7248823025787 1.41350411080866 1.92253324284431
vertex 34.149760813866 2.38695603287549 1.47140319839111
vertex 34.149760813866 1.41350411080866 1.47140319839111
endloop
endfacet
facet normal -0.617185984968357 -0.0 0.78681729769918
outer loop
vertex 34.149760813866 2.38695603287549 1.47140319839111
vertex 34.7248823025787 1.41350411080866 1.92253324284431
vertex 34.7248823025787 2.38695603287549 1.92253324284431
endloop
endfacet
facet normal -0.799799184165217 0.0 0.600267661138473
outer loop
vertex 35.1636459544576 2.38695603287549 2.50714379832314
vertex 34.7248823025787 1.41350411080866 1.92253324284431
vertex 35.1636459544576 1.41350411080866 2.50714379832314
endloop
endfacet
facet normal -0.799799184165217 0.0 0.600267661138473
outer loop
vertex 34.7248823025787 1.41350411080866 1.92253324284431
vertex 35.1636459544576 2.38695603287549 2.50714379832314
vertex 34.7248823025787 2.38695603287549 1.92253324284431
endloop
endfacet
facet normal -0.919746635698796 0.0 -0.392512580843908
outer loop
vertex 35.1337908417872 2.38695603287549 5.30698462812892
vertex 35.4206966082129 1.41350411080866 4.63469888160511
vertex 35.1337908417872 1.41350411080866 5.30698462812892
endloop
endfacet
facet normal -0.919746635698796 0.0 -0.392512580843908
outer loop
vertex 35.4206966082129 1.41350411080866 4.63469888160511
vertex 35.1337908417872 2.38695603287549 5.30698462812892
vertex 35.4206966082129 2.38695603287549 4.63469888160511
endloop
endfacet
facet normal -0.78681729769918 0.0 -0.617185984968356
outer loop
vertex 34.682660797334 2.38695603287549 5.88210611684158
vertex 35.1337908417872 1.41350411080866 5.30698462812892
vertex 34.682660797334 1.41350411080866 5.88210611684158
endloop
endfacet
facet normal -0.78681729769918 0.0 -0.617185984968356
outer loop
vertex 35.1337908417872 1.41350411080866 5.30698462812892
vertex 34.682660797334 2.38695603287549 5.88210611684158
vertex 35.1337908417872 2.38695603287549 5.30698462812892
endloop
endfacet
facet normal -0.600267661138452 0.0 -0.799799184165233
outer loop
vertex 34.682660797334 2.38695603287549 5.88210611684158
vertex 34.0980502418551 1.41350411080866 6.32086976872051
vertex 34.0980502418551 2.38695603287549 6.32086976872051
endloop
endfacet
facet normal -0.600267661138452 0.0 -0.799799184165233
outer loop
vertex 34.0980502418551 1.41350411080866 6.32086976872051
vertex 34.682660797334 2.38695603287549 5.88210611684158
vertex 34.682660797334 1.41350411080866 5.88210611684158
endloop
endfacet
facet normal -0.372810775460348 0.0 -0.927907390691902
outer loop
vertex 34.0980502418551 2.38695603287549 6.32086976872051
vertex 33.4197994185919 1.41350411080866 6.5933745659814
vertex 33.4197994185919 2.38695603287549 6.5933745659814
endloop
endfacet
facet normal -0.372810775460348 0.0 -0.927907390691902
outer loop
vertex 33.4197994185919 1.41350411080866 6.5933745659814
vertex 34.0980502418551 2.38695603287549 6.32086976872051
vertex 34.0980502418551 1.41350411080866 6.32086976872051
endloop
endfacet
facet normal -0.119947451533554 0.0 -0.992780241982386
outer loop
vertex 33.4197994185919 2.38695603287549 6.5933745659814
vertex 32.6941300002873 1.41350411080866 6.68104975702637
vertex 32.6941300002873 2.38695603287549 6.68104975702637
endloop
endfacet
facet normal -0.119947451533554 0.0 -0.992780241982386
outer loop
vertex 32.6941300002873 1.41350411080866 6.68104975702637
vertex 33.4197994185919 2.38695603287549 6.5933745659814
vertex 33.4197994185919 1.41350411080866 6.5933745659814
endloop
endfacet
facet normal 0.141090092992713 0.0 -0.989996760428693
outer loop
vertex 32.6941300002873 2.38695603287549 6.68104975702637
vertex 31.9704951585732 1.41350411080866 6.57792042247582
vertex 31.9704951585732 2.38695603287549 6.57792042247582
endloop
endfacet
facet normal 0.141090092992713 0.0 -0.989996760428693
outer loop
vertex 31.9704951585732 1.41350411080866 6.57792042247582
vertex 32.6941300002873 2.38695603287549 6.68104975702637
vertex 32.6941300002873 1.41350411080866 6.68104975702637
endloop
endfacet
facet normal 0.392512580843938 0.0 -0.919746635698783
outer loop
vertex 31.9704951585732 2.38695603287549 6.57792042247582
vertex 31.2982094120494 1.41350411080866 6.29101465605009
vertex 31.2982094120494 2.38695603287549 6.29101465605009
endloop
endfacet
facet normal 0.392512580843938 0.0 -0.919746635698783
outer loop
vertex 31.2982094120494 1.41350411080866 6.29101465605009
vertex 31.9704951585732 2.38695603287549 6.57792042247582
vertex 31.9704951585732 1.41350411080866 6.57792042247582
endloop
endfacet
facet normal 0.617185984968358 0.0 -0.786817297699179
outer loop
vertex 31.2982094120494 2.38695603287549 6.29101465605009
vertex 30.7230879233367 1.41350411080866 5.83988461159689
vertex 30.7230879233367 2.38695603287549 5.83988461159689
endloop
endfacet
facet normal 0.617185984968358 0.0 -0.786817297699179
outer loop
vertex 30.7230879233367 1.41350411080866 5.83988461159689
vertex 31.2982094120494 2.38695603287549 6.29101465605009
vertex 31.2982094120494 1.41350411080866 6.29101465605009
endloop
endfacet
facet normal 0.799799184165217 -0.0 -0.600267661138473
outer loop
vertex 30.2843242714578 2.38695603287549 5.25527405611805
vertex 30.7230879233367 1.41350411080866 5.83988461159689
vertex 30.2843242714578 1.41350411080866 5.25527405611805
endloop
endfacet
facet normal 0.799799184165217 -0.0 -0.600267661138473
outer loop
vertex 30.7230879233367 1.41350411080866 5.83988461159689
vertex 30.2843242714578 2.38695603287549 5.25527405611805
vertex 30.7230879233367 2.38695603287549 5.83988461159689
endloop
endfacet
facet normal 0.927907390691904 -0.0 -0.372810775460342
outer loop
vertex 30.0118194741969 2.38695603287549 4.57702323285485
vertex 30.2843242714578 1.41350411080866 5.25527405611805
vertex 30.0118194741969 1.41350411080866 4.57702323285485
endloop
endfacet
facet normal 0.927907390691904 -0.0 -0.372810775460342
outer loop
vertex 30.2843242714578 1.41350411080866 5.25527405611805
vertex 30.0118194741969 2.38695603287549 4.57702323285485
vertex 30.2843242714578 2.38695603287549 5.25527405611805
endloop
endfacet
facet normal -0.0 1.0 -0.0
outer loop
vertex 42.6931017420569 5.21970850266938 6.68929186907863
vertex 43.6665536641238 5.21970850266938 1.18929186907863
vertex 42.6931017420569 5.21970850266938 1.18929186907863
endloop
endfacet
facet normal -0.0 1.0 -0.0
outer loop
vertex 43.6665536641238 5.21970850266938 1.18929186907863
vertex 42.6931017420569 5.21970850266938 6.68929186907863
vertex 43.6665536641238 5.21970850266938 6.68929186907863
endloop
endfacet
facet normal -0.0 -0.0 1.0
outer loop
vertex 43.6665536641238 5.21970850266938 1.18929186907863
vertex 42.6931017420569 26.8197085026694 1.18929186907863
vertex 42.6931017420569 5.21970850266938 1.18929186907863
endloop
endfacet
facet normal -0.0 -0.0 1.0
outer loop
vertex 42.6931017420569 26.8197085026694 1.18929186907863
vertex 43.6665536641238 5.21970850266938 1.18929186907863
vertex 43.6665536641238 26.8197085026694 1.18929186907863
endloop
endfacet
facet normal 0.0 -1.0 0.0
outer loop
vertex 43.6665536641238 26.8197085026694 6.68929186907863
vertex 42.6931017420569 26.8197085026694 1.18929186907863
vertex 43.6665536641238 26.8197085026694 1.18929186907863
endloop
endfacet
facet normal 0.0 -1.0 0.0
outer loop
vertex 42.6931017420569 26.8197085026694 1.18929186907863
vertex 43.6665536641238 26.8197085026694 6.68929186907863
vertex 42.6931017420569 26.8197085026694 6.68929186907863
endloop
endfacet
facet normal 0.0 0.0 -1.0
outer loop
vertex 43.6665536641238 26.8197085026694 6.68929186907863
vertex 42.6931017420569 5.21970850266938 6.68929186907863
vertex 42.6931017420569 26.8197085026694 6.68929186907863
endloop
endfacet
facet normal 0.0 0.0 -1.0
outer loop
vertex 42.6931017420569 5.21970850266938 6.68929186907863
vertex 43.6665536641238 26.8197085026694 6.68929186907863
vertex 43.6665536641238 5.21970850266938 6.68929186907863
endloop
endfacet
facet normal -0.0 -0.0 1.0
outer loop
vertex 43.6665536641238 28.7421798487913 1.17915093151368
vertex 42.693101742057 40.0421798487913 1.17915093151368
vertex 42.693101742057 28.7421798487913 1.17915093151368
endloop
endfacet
facet normal -0.0 -0.0 1.0
outer loop
vertex 42.693101742057 40.0421798487913 1.17915093151368
vertex 43.6665536641238 28.7421798487913 1.17915093151368
vertex 43.6665536641238 40.0421798487913 1.17915093151368
endloop
endfacet
facet normal -0.0 1.0 -0.0
outer loop
vertex 42.693101742057 28.7421798487913 6.57915093151368
vertex 43.6665536641238 28.7421798487913 1.17915093151368
vertex 42.693101742057 28.7421798487913 1.17915093151368
endloop
endfacet
facet normal -0.0 1.0 -0.0
outer loop
vertex 43.6665536641238 28.7421798487913 1.17915093151368
vertex 42.693101742057 28.7421798487913 6.57915093151368
vertex 43.6665536641238 28.7421798487913 6.57915093151368
endloop
endfacet
facet normal 1.0 -0.0 -0.0
outer loop
vertex 43.6665536641238 1.41350411080866 -1.40998324127395e-014
vertex 43.6665536641238 5.21970850266938 1.18929186907863
vertex 43.6665536641238 1.41350411080866 7.99999999999998
endloop
endfacet
facet normal 1.0 -0.0 -0.0
outer loop
vertex 43.6665536641238 5.21970850266938 1.18929186907863
vertex 43.6665536641238 1.41350411080866 -1.40998324127395e-014
vertex 43.6665536641238 41.4135041108087 -1.40998324127395e-014
endloop
endfacet
facet normal 1.0 -0.0 -0.0
outer loop
vertex 43.6665536641238 5.21970850266938 1.18929186907863
vertex 43.6665536641238 41.4135041108087 -1.40998324127395e-014
vertex 43.6665536641238 26.8197085026694 1.18929186907863
endloop
endfacet
facet normal 1.0 -0.0 -0.0
outer loop
vertex 43.6665536641238 26.8197085026694 1.18929186907863
vertex 43.6665536641238 41.4135041108087 -1.40998324127395e-014
vertex 43.6665536641238 28.7421798487913 1.17915093151368
endloop
endfacet
facet normal 1.0 -0.0 -0.0
outer loop
vertex 43.6665536641238 26.8197085026694 1.18929186907863
vertex 43.6665536641238 28.7421798487913 1.17915093151368
vertex 43.6665536641238 26.8197085026694 6.68929186907863
endloop
endfacet
facet normal 1.0 -0.0 -0.0
outer loop
vertex 43.6665536641238 28.7421798487913 1.17915093151368
vertex 43.6665536641238 41.4135041108087 -1.40998324127395e-014
vertex 43.6665536641238 40.0421798487913 1.17915093151368
endloop
endfacet
facet normal 1.0 -0.0 -0.0
outer loop
vertex 43.6665536641238 1.41350411080866 7.99999999999998
vertex 43.6665536641238 5.21970850266938 6.68929186907863
vertex 43.6665536641238 41.4135041108087 7.99999999999998
endloop
endfacet
facet normal 1.0 -0.0 -0.0
outer loop
vertex 43.6665536641238 5.21970850266938 6.68929186907863
vertex 43.6665536641238 1.41350411080866 7.99999999999998
vertex 43.6665536641238 5.21970850266938 1.18929186907863
endloop
endfacet
facet normal 1.0 -0.0 -0.0
outer loop
vertex 43.6665536641238 41.4135041108087 7.99999999999998
vertex 43.6665536641238 5.21970850266938 6.68929186907863
vertex 43.6665536641238 26.8197085026694 6.68929186907863
endloop
endfacet
facet normal 1.0 -0.0 -0.0
outer loop
vertex 43.6665536641238 41.4135041108087 7.99999999999998
vertex 43.6665536641238 26.8197085026694 6.68929186907863
vertex 43.6665536641238 28.7421798487913 6.57915093151368
endloop
endfacet
facet normal 1.0 -0.0 -0.0
outer loop
vertex 43.6665536641238 28.7421798487913 6.57915093151368
vertex 43.6665536641238 26.8197085026694 6.68929186907863
vertex 43.6665536641238 28.7421798487913 1.17915093151368
endloop
endfacet
facet normal 1.0 -0.0 -0.0
outer loop
vertex 43.6665536641238 41.4135041108087 7.99999999999998
vertex 43.6665536641238 28.7421798487913 6.57915093151368
vertex 43.6665536641238 35.0421798487913 6.57915093151368
endloop
endfacet
facet normal 1.0 -0.0 -0.0
outer loop
vertex 43.6665536641238 41.4135041108087 7.99999999999998
vertex 43.6665536641238 35.0421798487913 6.57915093151368
vertex 43.6665536641238 40.0421798487913 1.17915093151368
endloop
endfacet
facet normal 1.0 -0.0 -0.0
outer loop
vertex 43.6665536641238 41.4135041108087 7.99999999999998
vertex 43.6665536641238 40.0421798487913 1.17915093151368
vertex 43.6665536641238 41.4135041108087 -1.40998324127395e-014
endloop
endfacet
facet normal -0.981570131887071 -0.191102266305763 0.0
outer loop
vertex 42.693101742057 40.0421798487913 1.17915093151368
vertex 43.6665536641238 35.0421798487913 6.57915093151368
vertex 42.693101742057 40.0421798487913 6.57915093151368
endloop
endfacet
facet normal 0.0 -0.73376067401817 -0.679408031498304
outer loop
vertex 43.6665536641238 35.0421798487913 6.57915093151368
vertex 42.693101742057 40.0421798487913 1.17915093151368
vertex 43.6665536641238 40.0421798487913 1.17915093151368
endloop
endfacet
facet normal 0.0 0.0 -1.0
outer loop
vertex 43.6665536641238 35.0421798487913 6.57915093151368
vertex 42.693101742057 28.7421798487913 6.57915093151368
vertex 42.693101742057 40.0421798487913 6.57915093151368
endloop
endfacet
facet normal 0.0 0.0 -1.0
outer loop
vertex 42.693101742057 28.7421798487913 6.57915093151368
vertex 43.6665536641238 35.0421798487913 6.57915093151368
vertex 43.6665536641238 28.7421798487913 6.57915093151368
endloop
endfacet
endsolid Retraction
