solid OpenSCAD_Model
  facet normal 0 0 -1
    outer loop
      vertex 13 -67 0
      vertex 9 -67 0
      vertex 13 -62 0
    endloop
  endfacet
  facet normal 0 0 -1
    outer loop
      vertex 36 -67 0
      vertex 32 -67 0
      vertex 36 -62 0
    endloop
  endfacet
  facet normal 0 0 -1
    outer loop
      vertex 59 -67 0
      vertex 55 -67 0
      vertex 59 -62 0
    endloop
  endfacet
  facet normal 0 0 -1
    outer loop
      vertex 82 -67 0
      vertex 78 -67 0
      vertex 82 -62 0
    endloop
  endfacet
  facet normal 0 0 -1
    outer loop
      vertex 90 -62 0
      vertex 89 -60 0
      vertex 90 62 0
    endloop
  endfacet
  facet normal 0 0 -1
    outer loop
      vertex 82 -62 0
      vertex 89 -60 0
      vertex 90 -62 0
    endloop
  endfacet
  facet normal 0 0 -1
    outer loop
      vertex 78 -62 0
      vertex 82 -62 0
      vertex 78 -67 0
    endloop
  endfacet
  facet normal 0 0 -1
    outer loop
      vertex 78 -62 0
      vertex 89 -60 0
      vertex 82 -62 0
    endloop
  endfacet
  facet normal 0 0 -1
    outer loop
      vertex 78 -62 0
      vertex 61.15 -60 0
      vertex 89 -60 0
    endloop
  endfacet
  facet normal 0 0 -1
    outer loop
      vertex 59 -62 0
      vertex 61.15 -60 0
      vertex 78 -62 0
    endloop
  endfacet
  facet normal -0 0 -1
    outer loop
      vertex 61.15 -60 0
      vertex 59 -62 0
      vertex 60 -60 0
    endloop
  endfacet
  facet normal -0 0 -1
    outer loop
      vertex 90 62 0
      vertex 89 -60 0
      vertex 89 62 0
    endloop
  endfacet
  facet normal 0 0 -1
    outer loop
      vertex 60 -60 0
      vertex 61.15 -45.3 0
      vertex 61.15 -60 0
    endloop
  endfacet
  facet normal 0 0 -1
    outer loop
      vertex 55 -62 0
      vertex 60 -60 0
      vertex 59 -62 0
    endloop
  endfacet
  facet normal 0 0 -1
    outer loop
      vertex 55 -62 0
      vertex 59 -62 0
      vertex 55 -67 0
    endloop
  endfacet
  facet normal -0 0 -1
    outer loop
      vertex 60 -60 0
      vertex 55 -62 0
      vertex 61.15 -45.3 0
    endloop
  endfacet
  facet normal 0 0 -1
    outer loop
      vertex 44.15 -57 0
      vertex 61.15 -45.3 0
      vertex 55 -62 0
    endloop
  endfacet
  facet normal -0 0 -1
    outer loop
      vertex 61.15 -45.3 0
      vertex 44.15 -57 0
      vertex 44.15 -45.3 0
    endloop
  endfacet
  facet normal 0 0 -1
    outer loop
      vertex 36 -62 0
      vertex 44.15 -57 0
      vertex 55 -62 0
    endloop
  endfacet
  facet normal 0 0 -1
    outer loop
      vertex 32 -62 0
      vertex 36 -62 0
      vertex 32 -67 0
    endloop
  endfacet
  facet normal 0 0 -1
    outer loop
      vertex 32 -62 0
      vertex 44.15 -57 0
      vertex 36 -62 0
    endloop
  endfacet
  facet normal 0 0 -1
    outer loop
      vertex 13 -62 0
      vertex 44.15 -57 0
      vertex 32 -62 0
    endloop
  endfacet
  facet normal 0 0 -1
    outer loop
      vertex 9 -62 0
      vertex 13 -62 0
      vertex 9 -67 0
    endloop
  endfacet
  facet normal 0 0 -1
    outer loop
      vertex 0 -57 0
      vertex 13 -62 0
      vertex 9 -62 0
    endloop
  endfacet
  facet normal 0 0 -1
    outer loop
      vertex 0 -57 0
      vertex 9 -62 0
      vertex 0 -62 0
    endloop
  endfacet
  facet normal 0 0 -1
    outer loop
      vertex 13 -62 0
      vertex 0 -57 0
      vertex 44.15 -57 0
    endloop
  endfacet
  facet normal 0 0 0
    outer loop
      vertex 89 -60 0
      vertex 61.15 -60 0
      vertex 60 -60 0
    endloop
  endfacet
  facet normal 0 0 -1
    outer loop
      vertex 61.15 45.3 0
      vertex 60 60 0
      vertex 61.15 60 0
    endloop
  endfacet
  facet normal 0 0 -1
    outer loop
      vertex 60 60 0
      vertex 57.8 64.2 0
      vertex 60 72 0
    endloop
  endfacet
  facet normal 0 0 -1
    outer loop
      vertex 44.15 57 0
      vertex 60 60 0
      vertex 61.15 45.3 0
    endloop
  endfacet
  facet normal 0 -0 -1
    outer loop
      vertex 52.2 64.2 0
      vertex 60 60 0
      vertex 50 62 0
    endloop
  endfacet
  facet normal -0 0 -1
    outer loop
      vertex 52.2 64.2 0
      vertex 50 62 0
      vertex 52.2 69.8 0
    endloop
  endfacet
  facet normal 0 0 -1
    outer loop
      vertex 60 60 0
      vertex 52.2 64.2 0
      vertex 57.8 64.2 0
    endloop
  endfacet
  facet normal 0 0 -1
    outer loop
      vertex 44.15 57 0
      vertex 61.15 45.3 0
      vertex 44.15 45.3 0
    endloop
  endfacet
  facet normal -0 0 -1
    outer loop
      vertex 60 60 0
      vertex 44.15 57 0
      vertex 50 62 0
    endloop
  endfacet
  facet normal 0 0 -1
    outer loop
      vertex 0 62 0
      vertex 44.15 57 0
      vertex 0 57 0
    endloop
  endfacet
  facet normal 0 0 -1
    outer loop
      vertex 44.15 57 0
      vertex 0 62 0
      vertex 50 62 0
    endloop
  endfacet
  facet normal 0 0 -1
    outer loop
      vertex 57.8 69.8 0
      vertex 60 72 0
      vertex 57.8 64.2 0
    endloop
  endfacet
  facet normal 0 0 -1
    outer loop
      vertex 52.2 69.8 0
      vertex 60 72 0
      vertex 57.8 69.8 0
    endloop
  endfacet
  facet normal 0 0 -1
    outer loop
      vertex 52.2 69.8 0
      vertex 50 72 0
      vertex 60 72 0
    endloop
  endfacet
  facet normal 0 0 -1
    outer loop
      vertex 50 72 0
      vertex 52.2 69.8 0
      vertex 50 62 0
    endloop
  endfacet
  facet normal -0.994582 0.103954 0
    outer loop
      vertex 50.65 -52.65 6
      vertex 50.6937 -52.2319 16
      vertex 50.6937 -52.2319 6
    endloop
  endfacet
  facet normal -0.994582 0.103954 0
    outer loop
      vertex 50.6937 -52.2319 16
      vertex 50.65 -52.65 6
      vertex 50.65 -52.65 16
    endloop
  endfacet
  facet normal 0.994582 0.103954 0
    outer loop
      vertex 54.65 -52.65 16
      vertex 54.6063 -52.2319 6
      vertex 54.6063 -52.2319 16
    endloop
  endfacet
  facet normal 0.994582 0.103954 0
    outer loop
      vertex 54.6063 -52.2319 6
      vertex 54.65 -52.65 16
      vertex 54.65 -52.65 6
    endloop
  endfacet
  facet normal 0 1 -0
    outer loop
      vertex 52.8591 -50.65 6
      vertex 52.4409 -50.65 16
      vertex 52.8591 -50.65 16
    endloop
  endfacet
  facet normal 0 1 0
    outer loop
      vertex 52.4409 -50.65 16
      vertex 52.8591 -50.65 6
      vertex 52.4409 -50.65 6
    endloop
  endfacet
  facet normal 0 -1 0
    outer loop
      vertex 52.4409 -54.65 6
      vertex 52.8591 -54.65 16
      vertex 52.4409 -54.65 16
    endloop
  endfacet
  facet normal 0 -1 -0
    outer loop
      vertex 52.8591 -54.65 16
      vertex 52.4409 -54.65 6
      vertex 52.8591 -54.65 6
    endloop
  endfacet
  facet normal -0.745129 0.66692 0
    outer loop
      vertex 51.032 -51.468 6
      vertex 51.3117 -51.1555 16
      vertex 51.3117 -51.1555 6
    endloop
  endfacet
  facet normal -0.745129 0.66692 0
    outer loop
      vertex 51.3117 -51.1555 16
      vertex 51.032 -51.468 6
      vertex 51.032 -51.468 16
    endloop
  endfacet
  facet normal -0.951569 0.307434 0
    outer loop
      vertex 50.6937 -52.2319 6
      vertex 50.8229 -51.832 16
      vertex 50.8229 -51.832 6
    endloop
  endfacet
  facet normal -0.951569 0.307434 0
    outer loop
      vertex 50.8229 -51.832 16
      vertex 50.6937 -52.2319 6
      vertex 50.6937 -52.2319 16
    endloop
  endfacet
  facet normal 0.589831 0.807527 -0
    outer loop
      vertex 53.9883 -51.1555 6
      vertex 53.65 -50.9084 16
      vertex 53.9883 -51.1555 16
    endloop
  endfacet
  facet normal 0.589831 0.807527 0
    outer loop
      vertex 53.65 -50.9084 16
      vertex 53.9883 -51.1555 6
      vertex 53.65 -50.9084 6
    endloop
  endfacet
  facet normal 0.209023 0.977911 -0
    outer loop
      vertex 53.268 -50.7374 6
      vertex 52.8591 -50.65 16
      vertex 53.268 -50.7374 16
    endloop
  endfacet
  facet normal 0.209023 0.977911 0
    outer loop
      vertex 52.8591 -50.65 16
      vertex 53.268 -50.7374 6
      vertex 52.8591 -50.65 6
    endloop
  endfacet
  facet normal -0.951569 -0.307434 0
    outer loop
      vertex 50.8229 -53.468 6
      vertex 50.6937 -53.0681 16
      vertex 50.6937 -53.0681 6
    endloop
  endfacet
  facet normal -0.951569 -0.307434 0
    outer loop
      vertex 50.6937 -53.0681 16
      vertex 50.8229 -53.468 6
      vertex 50.8229 -53.468 16
    endloop
  endfacet
  facet normal -0.867112 0.498113 0
    outer loop
      vertex 50.8229 -51.832 6
      vertex 51.032 -51.468 16
      vertex 51.032 -51.468 6
    endloop
  endfacet
  facet normal -0.867112 0.498113 0
    outer loop
      vertex 51.032 -51.468 16
      vertex 50.8229 -51.832 6
      vertex 50.8229 -51.832 16
    endloop
  endfacet
  facet normal -0.408576 0.912724 0
    outer loop
      vertex 52.032 -50.7374 6
      vertex 51.65 -50.9084 16
      vertex 52.032 -50.7374 16
    endloop
  endfacet
  facet normal -0.408576 0.912724 0
    outer loop
      vertex 51.65 -50.9084 16
      vertex 52.032 -50.7374 6
      vertex 51.65 -50.9084 6
    endloop
  endfacet
  facet normal -0.209023 0.977911 0
    outer loop
      vertex 52.4409 -50.65 6
      vertex 52.032 -50.7374 16
      vertex 52.4409 -50.65 16
    endloop
  endfacet
  facet normal -0.209023 0.977911 0
    outer loop
      vertex 52.032 -50.7374 16
      vertex 52.4409 -50.65 6
      vertex 52.032 -50.7374 6
    endloop
  endfacet
  facet normal -0.589831 0.807527 0
    outer loop
      vertex 51.65 -50.9084 6
      vertex 51.3117 -51.1555 16
      vertex 51.65 -50.9084 16
    endloop
  endfacet
  facet normal -0.589831 0.807527 0
    outer loop
      vertex 51.3117 -51.1555 16
      vertex 51.65 -50.9084 6
      vertex 51.3117 -51.1555 6
    endloop
  endfacet
  facet normal 0.867112 0.498113 0
    outer loop
      vertex 54.4771 -51.832 16
      vertex 54.268 -51.468 6
      vertex 54.268 -51.468 16
    endloop
  endfacet
  facet normal 0.867112 0.498113 0
    outer loop
      vertex 54.268 -51.468 6
      vertex 54.4771 -51.832 16
      vertex 54.4771 -51.832 6
    endloop
  endfacet
  facet normal 0.745129 0.66692 0
    outer loop
      vertex 54.268 -51.468 16
      vertex 53.9883 -51.1555 6
      vertex 53.9883 -51.1555 16
    endloop
  endfacet
  facet normal 0.745129 0.66692 0
    outer loop
      vertex 53.9883 -51.1555 6
      vertex 54.268 -51.468 16
      vertex 54.268 -51.468 6
    endloop
  endfacet
  facet normal 0.951569 0.307434 0
    outer loop
      vertex 54.6063 -52.2319 16
      vertex 54.4771 -51.832 6
      vertex 54.4771 -51.832 16
    endloop
  endfacet
  facet normal 0.951569 0.307434 0
    outer loop
      vertex 54.4771 -51.832 6
      vertex 54.6063 -52.2319 16
      vertex 54.6063 -52.2319 6
    endloop
  endfacet
  facet normal 0 0 1
    outer loop
      vertex 54.6063 -52.2319 16
      vertex 54.6063 -53.0681 16
      vertex 54.65 -52.65 16
    endloop
  endfacet
  facet normal 0 0 1
    outer loop
      vertex 54.4771 -51.832 16
      vertex 54.6063 -53.0681 16
      vertex 54.6063 -52.2319 16
    endloop
  endfacet
  facet normal 0 0 1
    outer loop
      vertex 54.4771 -51.832 16
      vertex 54.4771 -53.468 16
      vertex 54.6063 -53.0681 16
    endloop
  endfacet
  facet normal 0 0 1
    outer loop
      vertex 54.268 -51.468 16
      vertex 54.4771 -53.468 16
      vertex 54.4771 -51.832 16
    endloop
  endfacet
  facet normal 0 0 1
    outer loop
      vertex 54.268 -51.468 16
      vertex 54.268 -53.832 16
      vertex 54.4771 -53.468 16
    endloop
  endfacet
  facet normal 0 0 1
    outer loop
      vertex 53.9883 -51.1555 16
      vertex 54.268 -53.832 16
      vertex 54.268 -51.468 16
    endloop
  endfacet
  facet normal 0 0 1
    outer loop
      vertex 53.9883 -51.1555 16
      vertex 53.9883 -54.1445 16
      vertex 54.268 -53.832 16
    endloop
  endfacet
  facet normal 0 0 1
    outer loop
      vertex 53.9883 -51.1555 16
      vertex 53.65 -54.3916 16
      vertex 53.9883 -54.1445 16
    endloop
  endfacet
  facet normal 0 0 1
    outer loop
      vertex 53.65 -50.9084 16
      vertex 53.65 -54.3916 16
      vertex 53.9883 -51.1555 16
    endloop
  endfacet
  facet normal 0 0 1
    outer loop
      vertex 53.268 -50.7374 16
      vertex 53.65 -54.3916 16
      vertex 53.65 -50.9084 16
    endloop
  endfacet
  facet normal 0 0 1
    outer loop
      vertex 53.268 -50.7374 16
      vertex 53.268 -54.5626 16
      vertex 53.65 -54.3916 16
    endloop
  endfacet
  facet normal 0 0 1
    outer loop
      vertex 52.8591 -50.65 16
      vertex 53.268 -54.5626 16
      vertex 53.268 -50.7374 16
    endloop
  endfacet
  facet normal 0 0 1
    outer loop
      vertex 52.8591 -50.65 16
      vertex 52.8591 -54.65 16
      vertex 53.268 -54.5626 16
    endloop
  endfacet
  facet normal -0 0 1
    outer loop
      vertex 52.4409 -50.65 16
      vertex 52.8591 -54.65 16
      vertex 52.8591 -50.65 16
    endloop
  endfacet
  facet normal 0 0 1
    outer loop
      vertex 52.4409 -50.65 16
      vertex 52.4409 -54.65 16
      vertex 52.8591 -54.65 16
    endloop
  endfacet
  facet normal -0 0 1
    outer loop
      vertex 52.032 -50.7374 16
      vertex 52.4409 -54.65 16
      vertex 52.4409 -50.65 16
    endloop
  endfacet
  facet normal 0 0 1
    outer loop
      vertex 52.032 -50.7374 16
      vertex 52.032 -54.5626 16
      vertex 52.4409 -54.65 16
    endloop
  endfacet
  facet normal -0 0 1
    outer loop
      vertex 51.65 -50.9084 16
      vertex 52.032 -54.5626 16
      vertex 52.032 -50.7374 16
    endloop
  endfacet
  facet normal 0 0 1
    outer loop
      vertex 51.65 -50.9084 16
      vertex 51.65 -54.3916 16
      vertex 52.032 -54.5626 16
    endloop
  endfacet
  facet normal -0 0 1
    outer loop
      vertex 51.3117 -51.1555 16
      vertex 51.65 -54.3916 16
      vertex 51.65 -50.9084 16
    endloop
  endfacet
  facet normal 0 0 1
    outer loop
      vertex 51.3117 -51.1555 16
      vertex 51.3117 -54.1445 16
      vertex 51.65 -54.3916 16
    endloop
  endfacet
  facet normal -0 0 1
    outer loop
      vertex 51.032 -51.468 16
      vertex 51.3117 -54.1445 16
      vertex 51.3117 -51.1555 16
    endloop
  endfacet
  facet normal 0 0 1
    outer loop
      vertex 51.032 -51.468 16
      vertex 51.032 -53.832 16
      vertex 51.3117 -54.1445 16
    endloop
  endfacet
  facet normal -0 0 1
    outer loop
      vertex 50.8229 -51.832 16
      vertex 51.032 -53.832 16
      vertex 51.032 -51.468 16
    endloop
  endfacet
  facet normal 0 0 1
    outer loop
      vertex 50.8229 -51.832 16
      vertex 50.8229 -53.468 16
      vertex 51.032 -53.832 16
    endloop
  endfacet
  facet normal -0 0 1
    outer loop
      vertex 50.6937 -52.2319 16
      vertex 50.8229 -53.468 16
      vertex 50.8229 -51.832 16
    endloop
  endfacet
  facet normal 0 0 1
    outer loop
      vertex 50.6937 -52.2319 16
      vertex 50.6937 -53.0681 16
      vertex 50.8229 -53.468 16
    endloop
  endfacet
  facet normal 0 -0 1
    outer loop
      vertex 50.6937 -53.0681 16
      vertex 50.6937 -52.2319 16
      vertex 50.65 -52.65 16
    endloop
  endfacet
  facet normal 0.408576 0.912724 -0
    outer loop
      vertex 53.65 -50.9084 6
      vertex 53.268 -50.7374 16
      vertex 53.65 -50.9084 16
    endloop
  endfacet
  facet normal 0.408576 0.912724 0
    outer loop
      vertex 53.268 -50.7374 16
      vertex 53.65 -50.9084 6
      vertex 53.268 -50.7374 6
    endloop
  endfacet
  facet normal -0.994582 -0.103954 0
    outer loop
      vertex 50.6937 -53.0681 6
      vertex 50.65 -52.65 16
      vertex 50.65 -52.65 6
    endloop
  endfacet
  facet normal -0.994582 -0.103954 0
    outer loop
      vertex 50.65 -52.65 16
      vertex 50.6937 -53.0681 6
      vertex 50.6937 -53.0681 16
    endloop
  endfacet
  facet normal -0.867112 -0.498113 0
    outer loop
      vertex 51.032 -53.832 6
      vertex 50.8229 -53.468 16
      vertex 50.8229 -53.468 6
    endloop
  endfacet
  facet normal -0.867112 -0.498113 0
    outer loop
      vertex 50.8229 -53.468 16
      vertex 51.032 -53.832 6
      vertex 51.032 -53.832 16
    endloop
  endfacet
  facet normal 0.589831 -0.807527 0
    outer loop
      vertex 53.65 -54.3916 6
      vertex 53.9883 -54.1445 16
      vertex 53.65 -54.3916 16
    endloop
  endfacet
  facet normal 0.589831 -0.807527 0
    outer loop
      vertex 53.9883 -54.1445 16
      vertex 53.65 -54.3916 6
      vertex 53.9883 -54.1445 6
    endloop
  endfacet
  facet normal 0.867112 -0.498113 0
    outer loop
      vertex 54.268 -53.832 16
      vertex 54.4771 -53.468 6
      vertex 54.4771 -53.468 16
    endloop
  endfacet
  facet normal 0.867112 -0.498113 0
    outer loop
      vertex 54.4771 -53.468 6
      vertex 54.268 -53.832 16
      vertex 54.268 -53.832 6
    endloop
  endfacet
  facet normal 0.745129 -0.66692 0
    outer loop
      vertex 53.9883 -54.1445 16
      vertex 54.268 -53.832 6
      vertex 54.268 -53.832 16
    endloop
  endfacet
  facet normal 0.745129 -0.66692 0
    outer loop
      vertex 54.268 -53.832 6
      vertex 53.9883 -54.1445 16
      vertex 53.9883 -54.1445 6
    endloop
  endfacet
  facet normal 0.994582 -0.103954 0
    outer loop
      vertex 54.6063 -53.0681 16
      vertex 54.65 -52.65 6
      vertex 54.65 -52.65 16
    endloop
  endfacet
  facet normal 0.994582 -0.103954 0
    outer loop
      vertex 54.65 -52.65 6
      vertex 54.6063 -53.0681 16
      vertex 54.6063 -53.0681 6
    endloop
  endfacet
  facet normal -0.209023 -0.977911 0
    outer loop
      vertex 52.032 -54.5626 6
      vertex 52.4409 -54.65 16
      vertex 52.032 -54.5626 16
    endloop
  endfacet
  facet normal -0.209023 -0.977911 -0
    outer loop
      vertex 52.4409 -54.65 16
      vertex 52.032 -54.5626 6
      vertex 52.4409 -54.65 6
    endloop
  endfacet
  facet normal -0.589831 -0.807527 0
    outer loop
      vertex 51.3117 -54.1445 6
      vertex 51.65 -54.3916 16
      vertex 51.3117 -54.1445 16
    endloop
  endfacet
  facet normal -0.589831 -0.807527 -0
    outer loop
      vertex 51.65 -54.3916 16
      vertex 51.3117 -54.1445 6
      vertex 51.65 -54.3916 6
    endloop
  endfacet
  facet normal 0.209023 -0.977911 0
    outer loop
      vertex 52.8591 -54.65 6
      vertex 53.268 -54.5626 16
      vertex 52.8591 -54.65 16
    endloop
  endfacet
  facet normal 0.209023 -0.977911 0
    outer loop
      vertex 53.268 -54.5626 16
      vertex 52.8591 -54.65 6
      vertex 53.268 -54.5626 6
    endloop
  endfacet
  facet normal 0.951569 -0.307434 0
    outer loop
      vertex 54.4771 -53.468 16
      vertex 54.6063 -53.0681 6
      vertex 54.6063 -53.0681 16
    endloop
  endfacet
  facet normal 0.951569 -0.307434 0
    outer loop
      vertex 54.6063 -53.0681 6
      vertex 54.4771 -53.468 16
      vertex 54.4771 -53.468 6
    endloop
  endfacet
  facet normal -0.408576 -0.912724 0
    outer loop
      vertex 51.65 -54.3916 6
      vertex 52.032 -54.5626 16
      vertex 51.65 -54.3916 16
    endloop
  endfacet
  facet normal -0.408576 -0.912724 -0
    outer loop
      vertex 52.032 -54.5626 16
      vertex 51.65 -54.3916 6
      vertex 52.032 -54.5626 6
    endloop
  endfacet
  facet normal -0.745129 -0.66692 0
    outer loop
      vertex 51.3117 -54.1445 6
      vertex 51.032 -53.832 16
      vertex 51.032 -53.832 6
    endloop
  endfacet
  facet normal -0.745129 -0.66692 0
    outer loop
      vertex 51.032 -53.832 16
      vertex 51.3117 -54.1445 6
      vertex 51.3117 -54.1445 16
    endloop
  endfacet
  facet normal 0.408576 -0.912724 0
    outer loop
      vertex 53.268 -54.5626 6
      vertex 53.65 -54.3916 16
      vertex 53.268 -54.5626 16
    endloop
  endfacet
  facet normal 0.408576 -0.912724 0
    outer loop
      vertex 53.65 -54.3916 16
      vertex 53.268 -54.5626 6
      vertex 53.65 -54.3916 6
    endloop
  endfacet
  facet normal 1 -0 0
    outer loop
      vertex 61.15 -60 6
      vertex 61.15 -45.3 0
      vertex 61.15 -45.3 6
    endloop
  endfacet
  facet normal 1 0 0
    outer loop
      vertex 61.15 -45.3 0
      vertex 61.15 -60 6
      vertex 61.15 -60 0
    endloop
  endfacet
  facet normal 0 0 -1
    outer loop
      vertex 60 60 6
      vertex 61 62 6
      vertex 61 60 6
    endloop
  endfacet
  facet normal -0 0 -1
    outer loop
      vertex 61 62 6
      vertex 60 60 6
      vertex 60 62 6
    endloop
  endfacet
  facet normal 0 0 1
    outer loop
      vertex 60 -45.3 6
      vertex 54.65 -52.65 6
      vertex 60 -60 6
    endloop
  endfacet
  facet normal 0 0 1
    outer loop
      vertex 60 -45.3 6
      vertex 54.6063 -52.2319 6
      vertex 54.65 -52.65 6
    endloop
  endfacet
  facet normal 0 0 1
    outer loop
      vertex 60 -45.3 6
      vertex 54.4771 -51.832 6
      vertex 54.6063 -52.2319 6
    endloop
  endfacet
  facet normal 0 0 1
    outer loop
      vertex 60 -45.3 6
      vertex 54.268 -51.468 6
      vertex 54.4771 -51.832 6
    endloop
  endfacet
  facet normal 0 0 1
    outer loop
      vertex 60 -45.3 6
      vertex 53.9883 -51.1555 6
      vertex 54.268 -51.468 6
    endloop
  endfacet
  facet normal 0 0 1
    outer loop
      vertex 60 -45.3 6
      vertex 53.65 -50.9084 6
      vertex 53.9883 -51.1555 6
    endloop
  endfacet
  facet normal 0 0 1
    outer loop
      vertex 60 -45.3 6
      vertex 53.268 -50.7374 6
      vertex 53.65 -50.9084 6
    endloop
  endfacet
  facet normal 0 0 1
    outer loop
      vertex 60 -45.3 6
      vertex 52.8591 -50.65 6
      vertex 53.268 -50.7374 6
    endloop
  endfacet
  facet normal 0 0 1
    outer loop
      vertex 60 -45.3 6
      vertex 52.4409 -50.65 6
      vertex 52.8591 -50.65 6
    endloop
  endfacet
  facet normal -0 0 1
    outer loop
      vertex 44.15 -45.3 6
      vertex 52.4409 -50.65 6
      vertex 60 -45.3 6
    endloop
  endfacet
  facet normal 0 0 1
    outer loop
      vertex 52.4409 -50.65 6
      vertex 44.15 -45.3 6
      vertex 52.032 -50.7374 6
    endloop
  endfacet
  facet normal 0 0 1
    outer loop
      vertex 50.6937 -52.2319 6
      vertex 44.15 -45.3 6
      vertex 50.65 -52.65 6
    endloop
  endfacet
  facet normal 0 0 1
    outer loop
      vertex 50.8229 -51.832 6
      vertex 44.15 -45.3 6
      vertex 50.6937 -52.2319 6
    endloop
  endfacet
  facet normal 0 0 1
    outer loop
      vertex 51.032 -51.468 6
      vertex 44.15 -45.3 6
      vertex 50.8229 -51.832 6
    endloop
  endfacet
  facet normal 0 0 1
    outer loop
      vertex 51.3117 -51.1555 6
      vertex 44.15 -45.3 6
      vertex 51.032 -51.468 6
    endloop
  endfacet
  facet normal 0 0 1
    outer loop
      vertex 51.65 -50.9084 6
      vertex 44.15 -45.3 6
      vertex 51.3117 -51.1555 6
    endloop
  endfacet
  facet normal 0 0 1
    outer loop
      vertex 52.032 -50.7374 6
      vertex 44.15 -45.3 6
      vertex 51.65 -50.9084 6
    endloop
  endfacet
  facet normal -0 0 1
    outer loop
      vertex 54.6063 -53.0681 6
      vertex 60 -60 6
      vertex 54.65 -52.65 6
    endloop
  endfacet
  facet normal -0 0 1
    outer loop
      vertex 54.4771 -53.468 6
      vertex 60 -60 6
      vertex 54.6063 -53.0681 6
    endloop
  endfacet
  facet normal -0 0 1
    outer loop
      vertex 54.268 -53.832 6
      vertex 60 -60 6
      vertex 54.4771 -53.468 6
    endloop
  endfacet
  facet normal -0 0 1
    outer loop
      vertex 53.9883 -54.1445 6
      vertex 60 -60 6
      vertex 54.268 -53.832 6
    endloop
  endfacet
  facet normal -0 0 1
    outer loop
      vertex 53.65 -54.3916 6
      vertex 60 -60 6
      vertex 53.9883 -54.1445 6
    endloop
  endfacet
  facet normal -0 0 1
    outer loop
      vertex 53.268 -54.5626 6
      vertex 60 -60 6
      vertex 53.65 -54.3916 6
    endloop
  endfacet
  facet normal -0 0 1
    outer loop
      vertex 52.8591 -54.65 6
      vertex 60 -60 6
      vertex 53.268 -54.5626 6
    endloop
  endfacet
  facet normal -0 0 1
    outer loop
      vertex 52.4409 -54.65 6
      vertex 60 -60 6
      vertex 52.8591 -54.65 6
    endloop
  endfacet
  facet normal 0 0 1
    outer loop
      vertex 44.15 -60 6
      vertex 52.4409 -54.65 6
      vertex 52.032 -54.5626 6
    endloop
  endfacet
  facet normal 0 0 1
    outer loop
      vertex 44.15 -60 6
      vertex 52.032 -54.5626 6
      vertex 51.65 -54.3916 6
    endloop
  endfacet
  facet normal 0 0 1
    outer loop
      vertex 44.15 -60 6
      vertex 50.65 -52.65 6
      vertex 44.15 -45.3 6
    endloop
  endfacet
  facet normal 0 0 1
    outer loop
      vertex 50.65 -52.65 6
      vertex 44.15 -60 6
      vertex 50.6937 -53.0681 6
    endloop
  endfacet
  facet normal 0 0 1
    outer loop
      vertex 50.6937 -53.0681 6
      vertex 44.15 -60 6
      vertex 50.8229 -53.468 6
    endloop
  endfacet
  facet normal 0 0 1
    outer loop
      vertex 52.4409 -54.65 6
      vertex 44.15 -60 6
      vertex 60 -60 6
    endloop
  endfacet
  facet normal 0 0 1
    outer loop
      vertex 51.3117 -54.1445 6
      vertex 44.15 -60 6
      vertex 51.65 -54.3916 6
    endloop
  endfacet
  facet normal 0 0 1
    outer loop
      vertex 51.032 -53.832 6
      vertex 44.15 -60 6
      vertex 51.3117 -54.1445 6
    endloop
  endfacet
  facet normal 0 0 1
    outer loop
      vertex 50.8229 -53.468 6
      vertex 44.15 -60 6
      vertex 51.032 -53.832 6
    endloop
  endfacet
  facet normal -0 0 1
    outer loop
      vertex 61 -45.3 6
      vertex 61.15 -60 6
      vertex 61.15 -45.3 6
    endloop
  endfacet
  facet normal 0 0 1
    outer loop
      vertex 61.15 -60 6
      vertex 61 -45.3 6
      vertex 61 -60 6
    endloop
  endfacet
  facet normal 0 0 1
    outer loop
      vertex 60 60 6
      vertex 54.65 52.65 6
      vertex 60 45.3 6
    endloop
  endfacet
  facet normal 0 0 1
    outer loop
      vertex 60 60 6
      vertex 54.6063 53.0681 6
      vertex 54.65 52.65 6
    endloop
  endfacet
  facet normal 0 0 1
    outer loop
      vertex 60 60 6
      vertex 54.4771 53.468 6
      vertex 54.6063 53.0681 6
    endloop
  endfacet
  facet normal 0 0 1
    outer loop
      vertex 60 60 6
      vertex 54.268 53.832 6
      vertex 54.4771 53.468 6
    endloop
  endfacet
  facet normal 0 0 1
    outer loop
      vertex 60 60 6
      vertex 53.9883 54.1445 6
      vertex 54.268 53.832 6
    endloop
  endfacet
  facet normal 0 0 1
    outer loop
      vertex 60 60 6
      vertex 53.65 54.3916 6
      vertex 53.9883 54.1445 6
    endloop
  endfacet
  facet normal 0 0 1
    outer loop
      vertex 60 60 6
      vertex 53.268 54.5626 6
      vertex 53.65 54.3916 6
    endloop
  endfacet
  facet normal 0 0 1
    outer loop
      vertex 60 60 6
      vertex 52.8591 54.65 6
      vertex 53.268 54.5626 6
    endloop
  endfacet
  facet normal 0 0 1
    outer loop
      vertex 60 60 6
      vertex 52.4409 54.65 6
      vertex 52.8591 54.65 6
    endloop
  endfacet
  facet normal -0 0 1
    outer loop
      vertex 44.15 60 6
      vertex 52.4409 54.65 6
      vertex 60 60 6
    endloop
  endfacet
  facet normal 0 0 1
    outer loop
      vertex 52.4409 54.65 6
      vertex 44.15 60 6
      vertex 52.032 54.5626 6
    endloop
  endfacet
  facet normal 0 0 1
    outer loop
      vertex 50.6937 53.0681 6
      vertex 44.15 60 6
      vertex 50.65 52.65 6
    endloop
  endfacet
  facet normal 0 0 1
    outer loop
      vertex 50.8229 53.468 6
      vertex 44.15 60 6
      vertex 50.6937 53.0681 6
    endloop
  endfacet
  facet normal 0 0 1
    outer loop
      vertex 51.032 53.832 6
      vertex 44.15 60 6
      vertex 50.8229 53.468 6
    endloop
  endfacet
  facet normal 0 0 1
    outer loop
      vertex 51.3117 54.1445 6
      vertex 44.15 60 6
      vertex 51.032 53.832 6
    endloop
  endfacet
  facet normal 0 0 1
    outer loop
      vertex 51.65 54.3916 6
      vertex 44.15 60 6
      vertex 51.3117 54.1445 6
    endloop
  endfacet
  facet normal 0 0 1
    outer loop
      vertex 52.032 54.5626 6
      vertex 44.15 60 6
      vertex 51.65 54.3916 6
    endloop
  endfacet
  facet normal -0 0 1
    outer loop
      vertex 54.6063 52.2319 6
      vertex 60 45.3 6
      vertex 54.65 52.65 6
    endloop
  endfacet
  facet normal -0 0 1
    outer loop
      vertex 54.4771 51.832 6
      vertex 60 45.3 6
      vertex 54.6063 52.2319 6
    endloop
  endfacet
  facet normal -0 0 1
    outer loop
      vertex 54.268 51.468 6
      vertex 60 45.3 6
      vertex 54.4771 51.832 6
    endloop
  endfacet
  facet normal -0 0 1
    outer loop
      vertex 53.9883 51.1555 6
      vertex 60 45.3 6
      vertex 54.268 51.468 6
    endloop
  endfacet
  facet normal -0 0 1
    outer loop
      vertex 53.65 50.9084 6
      vertex 60 45.3 6
      vertex 53.9883 51.1555 6
    endloop
  endfacet
  facet normal -0 0 1
    outer loop
      vertex 53.268 50.7374 6
      vertex 60 45.3 6
      vertex 53.65 50.9084 6
    endloop
  endfacet
  facet normal -0 0 1
    outer loop
      vertex 52.8591 50.65 6
      vertex 60 45.3 6
      vertex 53.268 50.7374 6
    endloop
  endfacet
  facet normal -0 0 1
    outer loop
      vertex 52.4409 50.65 6
      vertex 60 45.3 6
      vertex 52.8591 50.65 6
    endloop
  endfacet
  facet normal 0 0 1
    outer loop
      vertex 44.15 45.3 6
      vertex 52.4409 50.65 6
      vertex 52.032 50.7374 6
    endloop
  endfacet
  facet normal 0 0 1
    outer loop
      vertex 44.15 45.3 6
      vertex 52.032 50.7374 6
      vertex 51.65 50.9084 6
    endloop
  endfacet
  facet normal 0 0 1
    outer loop
      vertex 44.15 45.3 6
      vertex 50.65 52.65 6
      vertex 44.15 60 6
    endloop
  endfacet
  facet normal 0 0 1
    outer loop
      vertex 50.65 52.65 6
      vertex 44.15 45.3 6
      vertex 50.6937 52.2319 6
    endloop
  endfacet
  facet normal 0 0 1
    outer loop
      vertex 50.6937 52.2319 6
      vertex 44.15 45.3 6
      vertex 50.8229 51.832 6
    endloop
  endfacet
  facet normal 0 0 1
    outer loop
      vertex 52.4409 50.65 6
      vertex 44.15 45.3 6
      vertex 60 45.3 6
    endloop
  endfacet
  facet normal 0 0 1
    outer loop
      vertex 51.3117 51.1555 6
      vertex 44.15 45.3 6
      vertex 51.65 50.9084 6
    endloop
  endfacet
  facet normal 0 0 1
    outer loop
      vertex 51.032 51.468 6
      vertex 44.15 45.3 6
      vertex 51.3117 51.1555 6
    endloop
  endfacet
  facet normal 0 0 1
    outer loop
      vertex 50.8229 51.832 6
      vertex 44.15 45.3 6
      vertex 51.032 51.468 6
    endloop
  endfacet
  facet normal -0 0 1
    outer loop
      vertex 61 60 6
      vertex 61.15 45.3 6
      vertex 61.15 60 6
    endloop
  endfacet
  facet normal 0 0 1
    outer loop
      vertex 61.15 45.3 6
      vertex 61 60 6
      vertex 61 45.3 6
    endloop
  endfacet
  facet normal 0 0 -1
    outer loop
      vertex 60 -45.3 6
      vertex 61 45.3 6
      vertex 61 -45.3 6
    endloop
  endfacet
  facet normal -0 0 -1
    outer loop
      vertex 61 45.3 6
      vertex 60 -45.3 6
      vertex 60 45.3 6
    endloop
  endfacet
  facet normal -1 0 0
    outer loop
      vertex 44.15 -57 2
      vertex 44.15 -45.3 0
      vertex 44.15 -57 0
    endloop
  endfacet
  facet normal -1 0 0
    outer loop
      vertex 44.15 -45.3 0
      vertex 44.15 -57 2
      vertex 44.15 -45.3 6
    endloop
  endfacet
  facet normal -1 0 0
    outer loop
      vertex 44.15 -60 6
      vertex 44.15 -57 2
      vertex 44.15 -60 2
    endloop
  endfacet
  facet normal -1 0 0
    outer loop
      vertex 44.15 -57 2
      vertex 44.15 -60 6
      vertex 44.15 -45.3 6
    endloop
  endfacet
  facet normal 0 -1 0
    outer loop
      vertex 60 -60 2
      vertex 60 -60 6
      vertex 44.15 -60 6
    endloop
  endfacet
  facet normal 0 -1 0
    outer loop
      vertex 60 -60 6
      vertex 60 -60 2
      vertex 61 -60 6
    endloop
  endfacet
  facet normal 0 -1 0
    outer loop
      vertex 60 -60 2
      vertex 44.15 -60 6
      vertex 44.15 -60 2
    endloop
  endfacet
  facet normal 0 -1 -0
    outer loop
      vertex 61 -60 6
      vertex 60 -60 2
      vertex 61.15 -60 6
    endloop
  endfacet
  facet normal 0 -1 0
    outer loop
      vertex 61.15 -60 0
      vertex 60 -60 2
      vertex 60 -60 0
    endloop
  endfacet
  facet normal 0 -1 0
    outer loop
      vertex 60 -60 2
      vertex 61.15 -60 0
      vertex 61.15 -60 6
    endloop
  endfacet
  facet normal 0 1 -0
    outer loop
      vertex 61.15 -45.3 0
      vertex 61 -45.3 6
      vertex 61.15 -45.3 6
    endloop
  endfacet
  facet normal 0 1 0
    outer loop
      vertex 61 -45.3 6
      vertex 61.15 -45.3 0
      vertex 60 -45.3 6
    endloop
  endfacet
  facet normal 0 1 0
    outer loop
      vertex 44.15 -45.3 0
      vertex 60 -45.3 6
      vertex 61.15 -45.3 0
    endloop
  endfacet
  facet normal 0 1 0
    outer loop
      vertex 60 -45.3 6
      vertex 44.15 -45.3 0
      vertex 44.15 -45.3 6
    endloop
  endfacet
  facet normal -0.994582 -0.103954 0
    outer loop
      vertex 50.6937 52.2319 6
      vertex 50.65 52.65 16
      vertex 50.65 52.65 6
    endloop
  endfacet
  facet normal -0.994582 -0.103954 0
    outer loop
      vertex 50.65 52.65 16
      vertex 50.6937 52.2319 6
      vertex 50.6937 52.2319 16
    endloop
  endfacet
  facet normal 0.994582 -0.103954 0
    outer loop
      vertex 54.6063 52.2319 16
      vertex 54.65 52.65 6
      vertex 54.65 52.65 16
    endloop
  endfacet
  facet normal 0.994582 -0.103954 0
    outer loop
      vertex 54.65 52.65 6
      vertex 54.6063 52.2319 16
      vertex 54.6063 52.2319 6
    endloop
  endfacet
  facet normal 0 -1 0
    outer loop
      vertex 52.4409 50.65 6
      vertex 52.8591 50.65 16
      vertex 52.4409 50.65 16
    endloop
  endfacet
  facet normal 0 -1 -0
    outer loop
      vertex 52.8591 50.65 16
      vertex 52.4409 50.65 6
      vertex 52.8591 50.65 6
    endloop
  endfacet
  facet normal 0 1 -0
    outer loop
      vertex 52.8591 54.65 6
      vertex 52.4409 54.65 16
      vertex 52.8591 54.65 16
    endloop
  endfacet
  facet normal 0 1 0
    outer loop
      vertex 52.4409 54.65 16
      vertex 52.8591 54.65 6
      vertex 52.4409 54.65 6
    endloop
  endfacet
  facet normal -0.745129 -0.66692 0
    outer loop
      vertex 51.3117 51.1555 6
      vertex 51.032 51.468 16
      vertex 51.032 51.468 6
    endloop
  endfacet
  facet normal -0.745129 -0.66692 0
    outer loop
      vertex 51.032 51.468 16
      vertex 51.3117 51.1555 6
      vertex 51.3117 51.1555 16
    endloop
  endfacet
  facet normal -0.951569 -0.307434 0
    outer loop
      vertex 50.8229 51.832 6
      vertex 50.6937 52.2319 16
      vertex 50.6937 52.2319 6
    endloop
  endfacet
  facet normal -0.951569 -0.307434 0
    outer loop
      vertex 50.6937 52.2319 16
      vertex 50.8229 51.832 6
      vertex 50.8229 51.832 16
    endloop
  endfacet
  facet normal 0.589831 -0.807527 0
    outer loop
      vertex 53.65 50.9084 6
      vertex 53.9883 51.1555 16
      vertex 53.65 50.9084 16
    endloop
  endfacet
  facet normal 0.589831 -0.807527 0
    outer loop
      vertex 53.9883 51.1555 16
      vertex 53.65 50.9084 6
      vertex 53.9883 51.1555 6
    endloop
  endfacet
  facet normal 0.209023 -0.977911 0
    outer loop
      vertex 52.8591 50.65 6
      vertex 53.268 50.7374 16
      vertex 52.8591 50.65 16
    endloop
  endfacet
  facet normal 0.209023 -0.977911 0
    outer loop
      vertex 53.268 50.7374 16
      vertex 52.8591 50.65 6
      vertex 53.268 50.7374 6
    endloop
  endfacet
  facet normal -0.951569 0.307434 0
    outer loop
      vertex 50.6937 53.0681 6
      vertex 50.8229 53.468 16
      vertex 50.8229 53.468 6
    endloop
  endfacet
  facet normal -0.951569 0.307434 0
    outer loop
      vertex 50.8229 53.468 16
      vertex 50.6937 53.0681 6
      vertex 50.6937 53.0681 16
    endloop
  endfacet
  facet normal -0.867112 -0.498113 0
    outer loop
      vertex 51.032 51.468 6
      vertex 50.8229 51.832 16
      vertex 50.8229 51.832 6
    endloop
  endfacet
  facet normal -0.867112 -0.498113 0
    outer loop
      vertex 50.8229 51.832 16
      vertex 51.032 51.468 6
      vertex 51.032 51.468 16
    endloop
  endfacet
  facet normal -0.408576 -0.912724 0
    outer loop
      vertex 51.65 50.9084 6
      vertex 52.032 50.7374 16
      vertex 51.65 50.9084 16
    endloop
  endfacet
  facet normal -0.408576 -0.912724 -0
    outer loop
      vertex 52.032 50.7374 16
      vertex 51.65 50.9084 6
      vertex 52.032 50.7374 6
    endloop
  endfacet
  facet normal -0.209023 -0.977911 0
    outer loop
      vertex 52.032 50.7374 6
      vertex 52.4409 50.65 16
      vertex 52.032 50.7374 16
    endloop
  endfacet
  facet normal -0.209023 -0.977911 -0
    outer loop
      vertex 52.4409 50.65 16
      vertex 52.032 50.7374 6
      vertex 52.4409 50.65 6
    endloop
  endfacet
  facet normal -0.589831 -0.807527 0
    outer loop
      vertex 51.3117 51.1555 6
      vertex 51.65 50.9084 16
      vertex 51.3117 51.1555 16
    endloop
  endfacet
  facet normal -0.589831 -0.807527 -0
    outer loop
      vertex 51.65 50.9084 16
      vertex 51.3117 51.1555 6
      vertex 51.65 50.9084 6
    endloop
  endfacet
  facet normal 0.867112 -0.498113 0
    outer loop
      vertex 54.268 51.468 16
      vertex 54.4771 51.832 6
      vertex 54.4771 51.832 16
    endloop
  endfacet
  facet normal 0.867112 -0.498113 0
    outer loop
      vertex 54.4771 51.832 6
      vertex 54.268 51.468 16
      vertex 54.268 51.468 6
    endloop
  endfacet
  facet normal 0.745129 -0.66692 0
    outer loop
      vertex 53.9883 51.1555 16
      vertex 54.268 51.468 6
      vertex 54.268 51.468 16
    endloop
  endfacet
  facet normal 0.745129 -0.66692 0
    outer loop
      vertex 54.268 51.468 6
      vertex 53.9883 51.1555 16
      vertex 53.9883 51.1555 6
    endloop
  endfacet
  facet normal 0.951569 -0.307434 0
    outer loop
      vertex 54.4771 51.832 16
      vertex 54.6063 52.2319 6
      vertex 54.6063 52.2319 16
    endloop
  endfacet
  facet normal 0.951569 -0.307434 0
    outer loop
      vertex 54.6063 52.2319 6
      vertex 54.4771 51.832 16
      vertex 54.4771 51.832 6
    endloop
  endfacet
  facet normal 0 0 1
    outer loop
      vertex 54.6063 53.0681 16
      vertex 54.6063 52.2319 16
      vertex 54.65 52.65 16
    endloop
  endfacet
  facet normal 0 0 1
    outer loop
      vertex 54.4771 53.468 16
      vertex 54.6063 52.2319 16
      vertex 54.6063 53.0681 16
    endloop
  endfacet
  facet normal 0 0 1
    outer loop
      vertex 54.4771 53.468 16
      vertex 54.4771 51.832 16
      vertex 54.6063 52.2319 16
    endloop
  endfacet
  facet normal 0 0 1
    outer loop
      vertex 54.268 53.832 16
      vertex 54.4771 51.832 16
      vertex 54.4771 53.468 16
    endloop
  endfacet
  facet normal 0 0 1
    outer loop
      vertex 54.268 53.832 16
      vertex 54.268 51.468 16
      vertex 54.4771 51.832 16
    endloop
  endfacet
  facet normal 0 0 1
    outer loop
      vertex 53.9883 54.1445 16
      vertex 54.268 51.468 16
      vertex 54.268 53.832 16
    endloop
  endfacet
  facet normal 0 0 1
    outer loop
      vertex 53.9883 54.1445 16
      vertex 53.9883 51.1555 16
      vertex 54.268 51.468 16
    endloop
  endfacet
  facet normal 0 0 1
    outer loop
      vertex 53.65 54.3916 16
      vertex 53.9883 51.1555 16
      vertex 53.9883 54.1445 16
    endloop
  endfacet
  facet normal 0 0 1
    outer loop
      vertex 53.65 54.3916 16
      vertex 53.65 50.9084 16
      vertex 53.9883 51.1555 16
    endloop
  endfacet
  facet normal 0 0 1
    outer loop
      vertex 53.268 54.5626 16
      vertex 53.65 50.9084 16
      vertex 53.65 54.3916 16
    endloop
  endfacet
  facet normal 0 0 1
    outer loop
      vertex 53.268 54.5626 16
      vertex 53.268 50.7374 16
      vertex 53.65 50.9084 16
    endloop
  endfacet
  facet normal 0 0 1
    outer loop
      vertex 52.8591 54.65 16
      vertex 53.268 50.7374 16
      vertex 53.268 54.5626 16
    endloop
  endfacet
  facet normal 0 0 1
    outer loop
      vertex 52.8591 54.65 16
      vertex 52.8591 50.65 16
      vertex 53.268 50.7374 16
    endloop
  endfacet
  facet normal -0 0 1
    outer loop
      vertex 52.4409 54.65 16
      vertex 52.8591 50.65 16
      vertex 52.8591 54.65 16
    endloop
  endfacet
  facet normal 0 0 1
    outer loop
      vertex 52.4409 54.65 16
      vertex 52.4409 50.65 16
      vertex 52.8591 50.65 16
    endloop
  endfacet
  facet normal -0 0 1
    outer loop
      vertex 52.032 54.5626 16
      vertex 52.4409 50.65 16
      vertex 52.4409 54.65 16
    endloop
  endfacet
  facet normal 0 0 1
    outer loop
      vertex 52.032 54.5626 16
      vertex 52.032 50.7374 16
      vertex 52.4409 50.65 16
    endloop
  endfacet
  facet normal -0 0 1
    outer loop
      vertex 51.65 54.3916 16
      vertex 52.032 50.7374 16
      vertex 52.032 54.5626 16
    endloop
  endfacet
  facet normal 0 0 1
    outer loop
      vertex 51.65 54.3916 16
      vertex 51.65 50.9084 16
      vertex 52.032 50.7374 16
    endloop
  endfacet
  facet normal -0 0 1
    outer loop
      vertex 51.3117 54.1445 16
      vertex 51.65 50.9084 16
      vertex 51.65 54.3916 16
    endloop
  endfacet
  facet normal 0 0 1
    outer loop
      vertex 51.3117 54.1445 16
      vertex 51.3117 51.1555 16
      vertex 51.65 50.9084 16
    endloop
  endfacet
  facet normal -0 0 1
    outer loop
      vertex 51.032 53.832 16
      vertex 51.3117 51.1555 16
      vertex 51.3117 54.1445 16
    endloop
  endfacet
  facet normal 0 0 1
    outer loop
      vertex 51.032 53.832 16
      vertex 51.032 51.468 16
      vertex 51.3117 51.1555 16
    endloop
  endfacet
  facet normal -0 0 1
    outer loop
      vertex 50.8229 53.468 16
      vertex 51.032 51.468 16
      vertex 51.032 53.832 16
    endloop
  endfacet
  facet normal 0 0 1
    outer loop
      vertex 50.8229 53.468 16
      vertex 50.8229 51.832 16
      vertex 51.032 51.468 16
    endloop
  endfacet
  facet normal -0 0 1
    outer loop
      vertex 50.6937 53.0681 16
      vertex 50.8229 51.832 16
      vertex 50.8229 53.468 16
    endloop
  endfacet
  facet normal 0 0 1
    outer loop
      vertex 50.6937 53.0681 16
      vertex 50.6937 52.2319 16
      vertex 50.8229 51.832 16
    endloop
  endfacet
  facet normal 0 -0 1
    outer loop
      vertex 50.6937 52.2319 16
      vertex 50.6937 53.0681 16
      vertex 50.65 52.65 16
    endloop
  endfacet
  facet normal 0.408576 -0.912724 0
    outer loop
      vertex 53.268 50.7374 6
      vertex 53.65 50.9084 16
      vertex 53.268 50.7374 16
    endloop
  endfacet
  facet normal 0.408576 -0.912724 0
    outer loop
      vertex 53.65 50.9084 16
      vertex 53.268 50.7374 6
      vertex 53.65 50.9084 6
    endloop
  endfacet
  facet normal -0.994582 0.103954 0
    outer loop
      vertex 50.65 52.65 6
      vertex 50.6937 53.0681 16
      vertex 50.6937 53.0681 6
    endloop
  endfacet
  facet normal -0.994582 0.103954 0
    outer loop
      vertex 50.6937 53.0681 16
      vertex 50.65 52.65 6
      vertex 50.65 52.65 16
    endloop
  endfacet
  facet normal -0.867112 0.498113 0
    outer loop
      vertex 50.8229 53.468 6
      vertex 51.032 53.832 16
      vertex 51.032 53.832 6
    endloop
  endfacet
  facet normal -0.867112 0.498113 0
    outer loop
      vertex 51.032 53.832 16
      vertex 50.8229 53.468 6
      vertex 50.8229 53.468 16
    endloop
  endfacet
  facet normal 0.589831 0.807527 -0
    outer loop
      vertex 53.9883 54.1445 6
      vertex 53.65 54.3916 16
      vertex 53.9883 54.1445 16
    endloop
  endfacet
  facet normal 0.589831 0.807527 0
    outer loop
      vertex 53.65 54.3916 16
      vertex 53.9883 54.1445 6
      vertex 53.65 54.3916 6
    endloop
  endfacet
  facet normal 0.867112 0.498113 0
    outer loop
      vertex 54.4771 53.468 16
      vertex 54.268 53.832 6
      vertex 54.268 53.832 16
    endloop
  endfacet
  facet normal 0.867112 0.498113 0
    outer loop
      vertex 54.268 53.832 6
      vertex 54.4771 53.468 16
      vertex 54.4771 53.468 6
    endloop
  endfacet
  facet normal 0.745129 0.66692 0
    outer loop
      vertex 54.268 53.832 16
      vertex 53.9883 54.1445 6
      vertex 53.9883 54.1445 16
    endloop
  endfacet
  facet normal 0.745129 0.66692 0
    outer loop
      vertex 53.9883 54.1445 6
      vertex 54.268 53.832 16
      vertex 54.268 53.832 6
    endloop
  endfacet
  facet normal 0.994582 0.103954 0
    outer loop
      vertex 54.65 52.65 16
      vertex 54.6063 53.0681 6
      vertex 54.6063 53.0681 16
    endloop
  endfacet
  facet normal 0.994582 0.103954 0
    outer loop
      vertex 54.6063 53.0681 6
      vertex 54.65 52.65 16
      vertex 54.65 52.65 6
    endloop
  endfacet
  facet normal -0.209023 0.977911 0
    outer loop
      vertex 52.4409 54.65 6
      vertex 52.032 54.5626 16
      vertex 52.4409 54.65 16
    endloop
  endfacet
  facet normal -0.209023 0.977911 0
    outer loop
      vertex 52.032 54.5626 16
      vertex 52.4409 54.65 6
      vertex 52.032 54.5626 6
    endloop
  endfacet
  facet normal -0.589831 0.807527 0
    outer loop
      vertex 51.65 54.3916 6
      vertex 51.3117 54.1445 16
      vertex 51.65 54.3916 16
    endloop
  endfacet
  facet normal -0.589831 0.807527 0
    outer loop
      vertex 51.3117 54.1445 16
      vertex 51.65 54.3916 6
      vertex 51.3117 54.1445 6
    endloop
  endfacet
  facet normal 0.209023 0.977911 -0
    outer loop
      vertex 53.268 54.5626 6
      vertex 52.8591 54.65 16
      vertex 53.268 54.5626 16
    endloop
  endfacet
  facet normal 0.209023 0.977911 0
    outer loop
      vertex 52.8591 54.65 16
      vertex 53.268 54.5626 6
      vertex 52.8591 54.65 6
    endloop
  endfacet
  facet normal 0.951569 0.307434 0
    outer loop
      vertex 54.6063 53.0681 16
      vertex 54.4771 53.468 6
      vertex 54.4771 53.468 16
    endloop
  endfacet
  facet normal 0.951569 0.307434 0
    outer loop
      vertex 54.4771 53.468 6
      vertex 54.6063 53.0681 16
      vertex 54.6063 53.0681 6
    endloop
  endfacet
  facet normal -0.408576 0.912724 0
    outer loop
      vertex 52.032 54.5626 6
      vertex 51.65 54.3916 16
      vertex 52.032 54.5626 16
    endloop
  endfacet
  facet normal -0.408576 0.912724 0
    outer loop
      vertex 51.65 54.3916 16
      vertex 52.032 54.5626 6
      vertex 51.65 54.3916 6
    endloop
  endfacet
  facet normal -0.745129 0.66692 0
    outer loop
      vertex 51.032 53.832 6
      vertex 51.3117 54.1445 16
      vertex 51.3117 54.1445 6
    endloop
  endfacet
  facet normal -0.745129 0.66692 0
    outer loop
      vertex 51.3117 54.1445 16
      vertex 51.032 53.832 6
      vertex 51.032 53.832 16
    endloop
  endfacet
  facet normal 0.408576 0.912724 -0
    outer loop
      vertex 53.65 54.3916 6
      vertex 53.268 54.5626 16
      vertex 53.65 54.3916 16
    endloop
  endfacet
  facet normal 0.408576 0.912724 0
    outer loop
      vertex 53.268 54.5626 16
      vertex 53.65 54.3916 6
      vertex 53.268 54.5626 6
    endloop
  endfacet
  facet normal 1 -0 0
    outer loop
      vertex 61.15 45.3 6
      vertex 61.15 60 0
      vertex 61.15 60 6
    endloop
  endfacet
  facet normal 1 0 0
    outer loop
      vertex 61.15 60 0
      vertex 61.15 45.3 6
      vertex 61.15 45.3 0
    endloop
  endfacet
  facet normal -1 0 0
    outer loop
      vertex 44.15 57 0
      vertex 44.15 45.3 0
      vertex 44.15 57 2
    endloop
  endfacet
  facet normal -1 0 0
    outer loop
      vertex 44.15 57 2
      vertex 44.15 60 6
      vertex 44.15 60 2
    endloop
  endfacet
  facet normal -1 0 0
    outer loop
      vertex 44.15 45.3 6
      vertex 44.15 57 2
      vertex 44.15 45.3 0
    endloop
  endfacet
  facet normal -1 0 0
    outer loop
      vertex 44.15 57 2
      vertex 44.15 45.3 6
      vertex 44.15 60 6
    endloop
  endfacet
  facet normal 0 1 0
    outer loop
      vertex 60 60 2
      vertex 61 60 6
      vertex 61.15 60 6
    endloop
  endfacet
  facet normal 0 1 0
    outer loop
      vertex 61 60 6
      vertex 60 60 2
      vertex 60 60 6
    endloop
  endfacet
  facet normal 0 1 0
    outer loop
      vertex 60 60 6
      vertex 60 60 2
      vertex 44.15 60 6
    endloop
  endfacet
  facet normal 0 1 -0
    outer loop
      vertex 61.15 60 0
      vertex 60 60 2
      vertex 61.15 60 6
    endloop
  endfacet
  facet normal 0 1 0
    outer loop
      vertex 60 60 2
      vertex 61.15 60 0
      vertex 60 60 0
    endloop
  endfacet
  facet normal 0 1 0
    outer loop
      vertex 44.15 60 6
      vertex 60 60 2
      vertex 44.15 60 2
    endloop
  endfacet
  facet normal 0 -1 0
    outer loop
      vertex 44.15 45.3 0
      vertex 60 45.3 6
      vertex 44.15 45.3 6
    endloop
  endfacet
  facet normal 0 -1 0
    outer loop
      vertex 61.15 45.3 0
      vertex 60 45.3 6
      vertex 44.15 45.3 0
    endloop
  endfacet
  facet normal 0 -1 0
    outer loop
      vertex 60 45.3 6
      vertex 61.15 45.3 0
      vertex 61 45.3 6
    endloop
  endfacet
  facet normal 0 -1 0
    outer loop
      vertex 61 45.3 6
      vertex 61.15 45.3 0
      vertex 61.15 45.3 6
    endloop
  endfacet
  facet normal 0 0 1
    outer loop
      vertex 90 62 18
      vertex 60 60 18
      vertex 90 -60 18
    endloop
  endfacet
  facet normal -0 0 1
    outer loop
      vertex 0 62 18
      vertex 60 60 18
      vertex 90 62 18
    endloop
  endfacet
  facet normal 0 0 1
    outer loop
      vertex 60 60 18
      vertex 0 62 18
      vertex 0 60 18
    endloop
  endfacet
  facet normal 0 0 1
    outer loop
      vertex 90 -60 18
      vertex 60 60 18
      vertex 60 -60 18
    endloop
  endfacet
  facet normal 0 1 0
    outer loop
      vertex 61 62 17
      vertex 90 62 18
      vertex 89 62 17
    endloop
  endfacet
  facet normal 0 1 -0
    outer loop
      vertex 90 62 0
      vertex 89 62 17
      vertex 90 62 18
    endloop
  endfacet
  facet normal 0 1 0
    outer loop
      vertex 89 62 17
      vertex 90 62 0
      vertex 89 62 0
    endloop
  endfacet
  facet normal 0 1 0
    outer loop
      vertex 90 62 18
      vertex 61 62 17
      vertex 0 62 18
    endloop
  endfacet
  facet normal 0 1 0
    outer loop
      vertex 60 62 6
      vertex 61 62 17
      vertex 61 62 6
    endloop
  endfacet
  facet normal 0 1 0
    outer loop
      vertex 50 62 6
      vertex 61 62 17
      vertex 60 62 6
    endloop
  endfacet
  facet normal 0 1 0
    outer loop
      vertex 61 62 17
      vertex 50 62 6
      vertex 0 62 18
    endloop
  endfacet
  facet normal 0 1 0
    outer loop
      vertex 0 62 0
      vertex 50 62 6
      vertex 50 62 0
    endloop
  endfacet
  facet normal 0 1 0
    outer loop
      vertex 50 62 6
      vertex 0 62 0
      vertex 0 62 18
    endloop
  endfacet
  facet normal 0 1 0
    outer loop
      vertex 89 -60 17
      vertex 61 -60 6
      vertex 61 -60 17
    endloop
  endfacet
  facet normal 0 1 0
    outer loop
      vertex 61 -60 6
      vertex 60 -60 2
      vertex 60 -60 6
    endloop
  endfacet
  facet normal 0 1 -0
    outer loop
      vertex 89 -60 0
      vertex 61 -60 6
      vertex 89 -60 17
    endloop
  endfacet
  facet normal 0 1 0
    outer loop
      vertex 60 -60 0
      vertex 61 -60 6
      vertex 89 -60 0
    endloop
  endfacet
  facet normal 0 1 0
    outer loop
      vertex 61 -60 6
      vertex 60 -60 0
      vertex 60 -60 2
    endloop
  endfacet
  facet normal 0 1 0
    outer loop
      vertex 60 -60 18
      vertex 90 -60 32
      vertex 90 -60 18
    endloop
  endfacet
  facet normal 0 1 0
    outer loop
      vertex 90 -60 32
      vertex 60 -60 18
      vertex 0 -60 32
    endloop
  endfacet
  facet normal 0 1 0
    outer loop
      vertex 0 -60 2
      vertex 60 -60 18
      vertex 60 -60 6
    endloop
  endfacet
  facet normal 0 1 0
    outer loop
      vertex 0 -60 2
      vertex 60 -60 6
      vertex 60 -60 2
    endloop
  endfacet
  facet normal 0 1 0
    outer loop
      vertex 60 -60 18
      vertex 0 -60 2
      vertex 0 -60 32
    endloop
  endfacet
  facet normal 0 -1 0
    outer loop
      vertex 0 60 18
      vertex 60 60 6
      vertex 60 60 18
    endloop
  endfacet
  facet normal 0 -1 0
    outer loop
      vertex 0 60 2
      vertex 60 60 6
      vertex 0 60 18
    endloop
  endfacet
  facet normal 0 -1 -0
    outer loop
      vertex 60 60 6
      vertex 0 60 2
      vertex 60 60 2
    endloop
  endfacet
  facet normal -1 0 0
    outer loop
      vertex 50 62 0
      vertex 50 72 6
      vertex 50 72 0
    endloop
  endfacet
  facet normal -1 -0 0
    outer loop
      vertex 50 72 6
      vertex 50 62 0
      vertex 50 62 6
    endloop
  endfacet
  facet normal 0 0 1
    outer loop
      vertex 60 72 6
      vertex 57.8 69.8 6
      vertex 60 62 6
    endloop
  endfacet
  facet normal 0 0 1
    outer loop
      vertex 60 72 6
      vertex 52.2 69.8 6
      vertex 57.8 69.8 6
    endloop
  endfacet
  facet normal 0 0 1
    outer loop
      vertex 52.2 69.8 6
      vertex 50 72 6
      vertex 52.2 64.2 6
    endloop
  endfacet
  facet normal -0 0 1
    outer loop
      vertex 50 72 6
      vertex 52.2 69.8 6
      vertex 60 72 6
    endloop
  endfacet
  facet normal -0 0 1
    outer loop
      vertex 57.8 64.2 6
      vertex 60 62 6
      vertex 57.8 69.8 6
    endloop
  endfacet
  facet normal -0 0 1
    outer loop
      vertex 52.2 64.2 6
      vertex 60 62 6
      vertex 57.8 64.2 6
    endloop
  endfacet
  facet normal 0 0 1
    outer loop
      vertex 52.2 64.2 6
      vertex 50 62 6
      vertex 60 62 6
    endloop
  endfacet
  facet normal 0 0 1
    outer loop
      vertex 50 62 6
      vertex 52.2 64.2 6
      vertex 50 72 6
    endloop
  endfacet
  facet normal 1 -0 0
    outer loop
      vertex 60 62 6
      vertex 60 72 0
      vertex 60 72 6
    endloop
  endfacet
  facet normal 1 0 0
    outer loop
      vertex 60 60 2
      vertex 60 62 6
      vertex 60 60 6
    endloop
  endfacet
  facet normal 1 0 0
    outer loop
      vertex 60 62 6
      vertex 60 60 2
      vertex 60 72 0
    endloop
  endfacet
  facet normal 1 0 0
    outer loop
      vertex 60 72 0
      vertex 60 60 2
      vertex 60 60 0
    endloop
  endfacet
  facet normal -1 0 0
    outer loop
      vertex 60 45.3 6
      vertex 60 60 18
      vertex 60 60 6
    endloop
  endfacet
  facet normal -1 0 0
    outer loop
      vertex 60 -45.3 6
      vertex 60 60 18
      vertex 60 45.3 6
    endloop
  endfacet
  facet normal -1 0 0
    outer loop
      vertex 60 -60 18
      vertex 60 -45.3 6
      vertex 60 -60 6
    endloop
  endfacet
  facet normal -1 0 0
    outer loop
      vertex 60 -45.3 6
      vertex 60 -60 18
      vertex 60 60 18
    endloop
  endfacet
  facet normal 0 1 -0
    outer loop
      vertex 60 72 0
      vertex 50 72 6
      vertex 60 72 6
    endloop
  endfacet
  facet normal 0 1 0
    outer loop
      vertex 50 72 6
      vertex 60 72 0
      vertex 50 72 0
    endloop
  endfacet
  facet normal 1 -0 0
    outer loop
      vertex 52.2 64.2 6
      vertex 52.2 69.8 0
      vertex 52.2 69.8 6
    endloop
  endfacet
  facet normal 1 0 0
    outer loop
      vertex 52.2 69.8 0
      vertex 52.2 64.2 6
      vertex 52.2 64.2 0
    endloop
  endfacet
  facet normal -1 0 0
    outer loop
      vertex 57.8 64.2 0
      vertex 57.8 69.8 6
      vertex 57.8 69.8 0
    endloop
  endfacet
  facet normal -1 -0 0
    outer loop
      vertex 57.8 69.8 6
      vertex 57.8 64.2 0
      vertex 57.8 64.2 6
    endloop
  endfacet
  facet normal 0 -1 0
    outer loop
      vertex 52.2 69.8 0
      vertex 57.8 69.8 6
      vertex 52.2 69.8 6
    endloop
  endfacet
  facet normal 0 -1 -0
    outer loop
      vertex 57.8 69.8 6
      vertex 52.2 69.8 0
      vertex 57.8 69.8 0
    endloop
  endfacet
  facet normal 0 1 -0
    outer loop
      vertex 57.8 64.2 0
      vertex 52.2 64.2 6
      vertex 57.8 64.2 6
    endloop
  endfacet
  facet normal 0 1 0
    outer loop
      vertex 52.2 64.2 6
      vertex 57.8 64.2 0
      vertex 52.2 64.2 0
    endloop
  endfacet
  facet normal -1 0 0
    outer loop
      vertex 89 -60 0
      vertex 89 62 17
      vertex 89 62 0
    endloop
  endfacet
  facet normal -1 -0 0
    outer loop
      vertex 89 62 17
      vertex 89 -60 0
      vertex 89 -60 17
    endloop
  endfacet
  facet normal 1 0 0
    outer loop
      vertex 90 -60 32
      vertex 90 -62 32
      vertex 90 -60 18
    endloop
  endfacet
  facet normal 1 -0 0
    outer loop
      vertex 90 -60 18
      vertex 90 62 0
      vertex 90 62 18
    endloop
  endfacet
  facet normal 1 0 0
    outer loop
      vertex 90 -60 18
      vertex 90 -62 0
      vertex 90 62 0
    endloop
  endfacet
  facet normal 1 0 0
    outer loop
      vertex 90 -62 0
      vertex 90 -60 18
      vertex 90 -62 32
    endloop
  endfacet
  facet normal 0 -1 0
    outer loop
      vertex 82 -62 0
      vertex 90 -62 32
      vertex 82 -62 32
    endloop
  endfacet
  facet normal 0 -1 -0
    outer loop
      vertex 90 -62 32
      vertex 82 -62 0
      vertex 90 -62 0
    endloop
  endfacet
  facet normal 0 -1 0
    outer loop
      vertex 59 -62 0
      vertex 78 -62 32
      vertex 59 -62 32
    endloop
  endfacet
  facet normal 0 -1 -0
    outer loop
      vertex 78 -62 32
      vertex 59 -62 0
      vertex 78 -62 0
    endloop
  endfacet
  facet normal 1 0 0
    outer loop
      vertex 61 62 17
      vertex 61 60 6
      vertex 61 62 6
    endloop
  endfacet
  facet normal 1 0 0
    outer loop
      vertex 61 62 17
      vertex 61 45.3 6
      vertex 61 60 6
    endloop
  endfacet
  facet normal 1 -0 0
    outer loop
      vertex 61 -60 17
      vertex 61 45.3 6
      vertex 61 62 17
    endloop
  endfacet
  facet normal 1 0 0
    outer loop
      vertex 61 45.3 6
      vertex 61 -60 17
      vertex 61 -45.3 6
    endloop
  endfacet
  facet normal 1 0 0
    outer loop
      vertex 61 -45.3 6
      vertex 61 -60 17
      vertex 61 -60 6
    endloop
  endfacet
  facet normal 0 0 -1
    outer loop
      vertex 61 -60 17
      vertex 89 62 17
      vertex 89 -60 17
    endloop
  endfacet
  facet normal -0 0 -1
    outer loop
      vertex 89 62 17
      vertex 61 -60 17
      vertex 61 62 17
    endloop
  endfacet
  facet normal 0 0 1
    outer loop
      vertex 90 -60 32
      vertex 82 -62 32
      vertex 90 -62 32
    endloop
  endfacet
  facet normal 0 0 1
    outer loop
      vertex 82 -62 32
      vertex 78 -62 32
      vertex 82 -67 32
    endloop
  endfacet
  facet normal 0 0 1
    outer loop
      vertex 90 -60 32
      vertex 78 -62 32
      vertex 82 -62 32
    endloop
  endfacet
  facet normal 0 0 1
    outer loop
      vertex 90 -60 32
      vertex 59 -62 32
      vertex 78 -62 32
    endloop
  endfacet
  facet normal 0 0 1
    outer loop
      vertex 59 -62 32
      vertex 55 -62 32
      vertex 59 -67 32
    endloop
  endfacet
  facet normal 0 0 1
    outer loop
      vertex 90 -60 32
      vertex 55 -62 32
      vertex 59 -62 32
    endloop
  endfacet
  facet normal 0 0 1
    outer loop
      vertex 90 -60 32
      vertex 36 -62 32
      vertex 55 -62 32
    endloop
  endfacet
  facet normal 0 0 1
    outer loop
      vertex 36 -62 32
      vertex 32 -62 32
      vertex 36 -67 32
    endloop
  endfacet
  facet normal -0 0 1
    outer loop
      vertex 0 -60 32
      vertex 36 -62 32
      vertex 90 -60 32
    endloop
  endfacet
  facet normal 0 0 1
    outer loop
      vertex 36 -62 32
      vertex 0 -60 32
      vertex 32 -62 32
    endloop
  endfacet
  facet normal 0 0 1
    outer loop
      vertex 13 -62 32
      vertex 9 -62 32
      vertex 13 -67 32
    endloop
  endfacet
  facet normal 0 0 1
    outer loop
      vertex 32 -62 32
      vertex 0 -60 32
      vertex 13 -62 32
    endloop
  endfacet
  facet normal 0 0 1
    outer loop
      vertex 13 -62 32
      vertex 0 -60 32
      vertex 9 -62 32
    endloop
  endfacet
  facet normal 0 0 1
    outer loop
      vertex 9 -62 32
      vertex 0 -60 32
      vertex 0 -62 32
    endloop
  endfacet
  facet normal 0 0 1
    outer loop
      vertex 82 -67 32
      vertex 78 -62 32
      vertex 78 -67 32
    endloop
  endfacet
  facet normal 0 0 1
    outer loop
      vertex 59 -67 32
      vertex 55 -62 32
      vertex 55 -67 32
    endloop
  endfacet
  facet normal 0 0 1
    outer loop
      vertex 36 -67 32
      vertex 32 -62 32
      vertex 32 -67 32
    endloop
  endfacet
  facet normal 0 0 1
    outer loop
      vertex 13 -67 32
      vertex 9 -62 32
      vertex 9 -67 32
    endloop
  endfacet
  facet normal -0 0 1
    outer loop
      vertex 0 -57 2
      vertex 44.15 -60 2
      vertex 44.15 -57 2
    endloop
  endfacet
  facet normal 0 0 1
    outer loop
      vertex 44.15 -60 2
      vertex 0 -57 2
      vertex 0 -60 2
    endloop
  endfacet
  facet normal 0 0 -0
    outer loop
      vertex 44.15 -60 2
      vertex 0 -60 2
      vertex 60 -60 2
    endloop
  endfacet
  facet normal 0 1 -0
    outer loop
      vertex 44.15 -57 0
      vertex 0 -57 2
      vertex 44.15 -57 2
    endloop
  endfacet
  facet normal 0 1 0
    outer loop
      vertex 0 -57 2
      vertex 44.15 -57 0
      vertex 0 -57 0
    endloop
  endfacet
  facet normal -0 0 1
    outer loop
      vertex 0 60 2
      vertex 44.15 57 2
      vertex 44.15 60 2
    endloop
  endfacet
  facet normal 0 0 1
    outer loop
      vertex 44.15 57 2
      vertex 0 60 2
      vertex 0 57 2
    endloop
  endfacet
  facet normal 0 0 0
    outer loop
      vertex 0 60 2
      vertex 44.15 60 2
      vertex 60 60 2
    endloop
  endfacet
  facet normal 0 -1 0
    outer loop
      vertex 0 57 0
      vertex 44.15 57 2
      vertex 0 57 2
    endloop
  endfacet
  facet normal 0 -1 -0
    outer loop
      vertex 44.15 57 2
      vertex 0 57 0
      vertex 44.15 57 0
    endloop
  endfacet
  facet normal 0 -1 0
    outer loop
      vertex 36 -62 0
      vertex 55 -62 32
      vertex 36 -62 32
    endloop
  endfacet
  facet normal 0 -1 -0
    outer loop
      vertex 55 -62 32
      vertex 36 -62 0
      vertex 55 -62 0
    endloop
  endfacet
  facet normal 0 -1 0
    outer loop
      vertex 13 -62 0
      vertex 32 -62 32
      vertex 13 -62 32
    endloop
  endfacet
  facet normal 0 -1 -0
    outer loop
      vertex 32 -62 32
      vertex 13 -62 0
      vertex 32 -62 0
    endloop
  endfacet
  facet normal 0 -1 0
    outer loop
      vertex 0 -62 0
      vertex 9 -62 32
      vertex 0 -62 32
    endloop
  endfacet
  facet normal 0 -1 -0
    outer loop
      vertex 9 -62 32
      vertex 0 -62 0
      vertex 9 -62 0
    endloop
  endfacet
  facet normal -1 0 0
    outer loop
      vertex 9 -67 0
      vertex 9 -62 32
      vertex 9 -62 0
    endloop
  endfacet
  facet normal -1 -0 0
    outer loop
      vertex 9 -62 32
      vertex 9 -67 0
      vertex 9 -67 32
    endloop
  endfacet
  facet normal 1 -0 0
    outer loop
      vertex 13 -67 32
      vertex 13 -62 0
      vertex 13 -62 32
    endloop
  endfacet
  facet normal 1 0 0
    outer loop
      vertex 13 -62 0
      vertex 13 -67 32
      vertex 13 -67 0
    endloop
  endfacet
  facet normal 0 -1 0
    outer loop
      vertex 9 -67 0
      vertex 13 -67 32
      vertex 9 -67 32
    endloop
  endfacet
  facet normal 0 -1 -0
    outer loop
      vertex 13 -67 32
      vertex 9 -67 0
      vertex 13 -67 0
    endloop
  endfacet
  facet normal -1 0 0
    outer loop
      vertex 32 -67 0
      vertex 32 -62 32
      vertex 32 -62 0
    endloop
  endfacet
  facet normal -1 -0 0
    outer loop
      vertex 32 -62 32
      vertex 32 -67 0
      vertex 32 -67 32
    endloop
  endfacet
  facet normal 1 -0 0
    outer loop
      vertex 36 -67 32
      vertex 36 -62 0
      vertex 36 -62 32
    endloop
  endfacet
  facet normal 1 0 0
    outer loop
      vertex 36 -62 0
      vertex 36 -67 32
      vertex 36 -67 0
    endloop
  endfacet
  facet normal 0 -1 0
    outer loop
      vertex 32 -67 0
      vertex 36 -67 32
      vertex 32 -67 32
    endloop
  endfacet
  facet normal 0 -1 -0
    outer loop
      vertex 36 -67 32
      vertex 32 -67 0
      vertex 36 -67 0
    endloop
  endfacet
  facet normal -1 0 0
    outer loop
      vertex 55 -67 0
      vertex 55 -62 32
      vertex 55 -62 0
    endloop
  endfacet
  facet normal -1 -0 0
    outer loop
      vertex 55 -62 32
      vertex 55 -67 0
      vertex 55 -67 32
    endloop
  endfacet
  facet normal 1 -0 0
    outer loop
      vertex 59 -67 32
      vertex 59 -62 0
      vertex 59 -62 32
    endloop
  endfacet
  facet normal 1 0 0
    outer loop
      vertex 59 -62 0
      vertex 59 -67 32
      vertex 59 -67 0
    endloop
  endfacet
  facet normal 0 -1 0
    outer loop
      vertex 55 -67 0
      vertex 59 -67 32
      vertex 55 -67 32
    endloop
  endfacet
  facet normal 0 -1 -0
    outer loop
      vertex 59 -67 32
      vertex 55 -67 0
      vertex 59 -67 0
    endloop
  endfacet
  facet normal -1 0 0
    outer loop
      vertex 78 -67 0
      vertex 78 -62 32
      vertex 78 -62 0
    endloop
  endfacet
  facet normal -1 -0 0
    outer loop
      vertex 78 -62 32
      vertex 78 -67 0
      vertex 78 -67 32
    endloop
  endfacet
  facet normal 1 -0 0
    outer loop
      vertex 82 -67 32
      vertex 82 -62 0
      vertex 82 -62 32
    endloop
  endfacet
  facet normal 1 0 0
    outer loop
      vertex 82 -62 0
      vertex 82 -67 32
      vertex 82 -67 0
    endloop
  endfacet
  facet normal 0 -1 0
    outer loop
      vertex 78 -67 0
      vertex 82 -67 32
      vertex 78 -67 32
    endloop
  endfacet
  facet normal 0 -1 -0
    outer loop
      vertex 82 -67 32
      vertex 78 -67 0
      vertex 82 -67 0
    endloop
  endfacet
  facet normal -1 0 0
    outer loop
      vertex 0 62 0
      vertex 0 60 2
      vertex 0 62 18
    endloop
  endfacet
  facet normal -1 0 0
    outer loop
      vertex 0 57 0
      vertex 0 60 2
      vertex 0 62 0
    endloop
  endfacet
  facet normal -1 -0 0
    outer loop
      vertex 0 60 2
      vertex 0 57 0
      vertex 0 57 2
    endloop
  endfacet
  facet normal -1 -0 0
    outer loop
      vertex 0 62 18
      vertex 0 60 2
      vertex 0 60 18
    endloop
  endfacet
  facet normal -1 0 0
    outer loop
      vertex 0 -57 0
      vertex 0 -60 2
      vertex 0 -57 2
    endloop
  endfacet
  facet normal -1 0 0
    outer loop
      vertex 0 -62 0
      vertex 0 -60 2
      vertex 0 -57 0
    endloop
  endfacet
  facet normal -1 0 0
    outer loop
      vertex 0 -62 32
      vertex 0 -60 2
      vertex 0 -62 0
    endloop
  endfacet
  facet normal -1 0 0
    outer loop
      vertex 0 -60 2
      vertex 0 -62 32
      vertex 0 -60 32
    endloop
  endfacet
endsolid OpenSCAD_Model
