solid OpenSCAD_Model
  facet normal 0.994582 0.103954 0
    outer loop
      vertex -50.65 -52.65 16
      vertex -50.6937 -52.2319 6
      vertex -50.6937 -52.2319 16
    endloop
  endfacet
  facet normal 0.994582 0.103954 0
    outer loop
      vertex -50.6937 -52.2319 6
      vertex -50.65 -52.65 16
      vertex -50.65 -52.65 6
    endloop
  endfacet
  facet normal -0.994582 0.103954 0
    outer loop
      vertex -54.65 -52.65 6
      vertex -54.6063 -52.2319 16
      vertex -54.6063 -52.2319 6
    endloop
  endfacet
  facet normal -0.994582 0.103954 0
    outer loop
      vertex -54.6063 -52.2319 16
      vertex -54.65 -52.65 6
      vertex -54.65 -52.65 16
    endloop
  endfacet
  facet normal 0 1 -0
    outer loop
      vertex -52.4409 -50.65 6
      vertex -52.8591 -50.65 16
      vertex -52.4409 -50.65 16
    endloop
  endfacet
  facet normal 0 1 0
    outer loop
      vertex -52.8591 -50.65 16
      vertex -52.4409 -50.65 6
      vertex -52.8591 -50.65 6
    endloop
  endfacet
  facet normal 0 -1 0
    outer loop
      vertex -52.8591 -54.65 6
      vertex -52.4409 -54.65 16
      vertex -52.8591 -54.65 16
    endloop
  endfacet
  facet normal 0 -1 -0
    outer loop
      vertex -52.4409 -54.65 16
      vertex -52.8591 -54.65 6
      vertex -52.4409 -54.65 6
    endloop
  endfacet
  facet normal 0.745129 0.66692 0
    outer loop
      vertex -51.032 -51.468 16
      vertex -51.3117 -51.1555 6
      vertex -51.3117 -51.1555 16
    endloop
  endfacet
  facet normal 0.745129 0.66692 0
    outer loop
      vertex -51.3117 -51.1555 6
      vertex -51.032 -51.468 16
      vertex -51.032 -51.468 6
    endloop
  endfacet
  facet normal 0.951569 0.307434 0
    outer loop
      vertex -50.6937 -52.2319 16
      vertex -50.8229 -51.832 6
      vertex -50.8229 -51.832 16
    endloop
  endfacet
  facet normal 0.951569 0.307434 0
    outer loop
      vertex -50.8229 -51.832 6
      vertex -50.6937 -52.2319 16
      vertex -50.6937 -52.2319 6
    endloop
  endfacet
  facet normal -0.589831 0.807527 0
    outer loop
      vertex -53.65 -50.9084 6
      vertex -53.9883 -51.1555 16
      vertex -53.65 -50.9084 16
    endloop
  endfacet
  facet normal -0.589831 0.807527 0
    outer loop
      vertex -53.9883 -51.1555 16
      vertex -53.65 -50.9084 6
      vertex -53.9883 -51.1555 6
    endloop
  endfacet
  facet normal -0.209023 0.977911 0
    outer loop
      vertex -52.8591 -50.65 6
      vertex -53.268 -50.7374 16
      vertex -52.8591 -50.65 16
    endloop
  endfacet
  facet normal -0.209023 0.977911 0
    outer loop
      vertex -53.268 -50.7374 16
      vertex -52.8591 -50.65 6
      vertex -53.268 -50.7374 6
    endloop
  endfacet
  facet normal 0.951569 -0.307434 0
    outer loop
      vertex -50.8229 -53.468 16
      vertex -50.6937 -53.0681 6
      vertex -50.6937 -53.0681 16
    endloop
  endfacet
  facet normal 0.951569 -0.307434 0
    outer loop
      vertex -50.6937 -53.0681 6
      vertex -50.8229 -53.468 16
      vertex -50.8229 -53.468 6
    endloop
  endfacet
  facet normal 0.867112 0.498113 0
    outer loop
      vertex -50.8229 -51.832 16
      vertex -51.032 -51.468 6
      vertex -51.032 -51.468 16
    endloop
  endfacet
  facet normal 0.867112 0.498113 0
    outer loop
      vertex -51.032 -51.468 6
      vertex -50.8229 -51.832 16
      vertex -50.8229 -51.832 6
    endloop
  endfacet
  facet normal 0.408576 0.912724 -0
    outer loop
      vertex -51.65 -50.9084 6
      vertex -52.032 -50.7374 16
      vertex -51.65 -50.9084 16
    endloop
  endfacet
  facet normal 0.408576 0.912724 0
    outer loop
      vertex -52.032 -50.7374 16
      vertex -51.65 -50.9084 6
      vertex -52.032 -50.7374 6
    endloop
  endfacet
  facet normal 0.209023 0.977911 -0
    outer loop
      vertex -52.032 -50.7374 6
      vertex -52.4409 -50.65 16
      vertex -52.032 -50.7374 16
    endloop
  endfacet
  facet normal 0.209023 0.977911 0
    outer loop
      vertex -52.4409 -50.65 16
      vertex -52.032 -50.7374 6
      vertex -52.4409 -50.65 6
    endloop
  endfacet
  facet normal 0.589831 0.807527 -0
    outer loop
      vertex -51.3117 -51.1555 6
      vertex -51.65 -50.9084 16
      vertex -51.3117 -51.1555 16
    endloop
  endfacet
  facet normal 0.589831 0.807527 0
    outer loop
      vertex -51.65 -50.9084 16
      vertex -51.3117 -51.1555 6
      vertex -51.65 -50.9084 6
    endloop
  endfacet
  facet normal -0.867112 0.498113 0
    outer loop
      vertex -54.4771 -51.832 6
      vertex -54.268 -51.468 16
      vertex -54.268 -51.468 6
    endloop
  endfacet
  facet normal -0.867112 0.498113 0
    outer loop
      vertex -54.268 -51.468 16
      vertex -54.4771 -51.832 6
      vertex -54.4771 -51.832 16
    endloop
  endfacet
  facet normal -0.745129 0.66692 0
    outer loop
      vertex -54.268 -51.468 6
      vertex -53.9883 -51.1555 16
      vertex -53.9883 -51.1555 6
    endloop
  endfacet
  facet normal -0.745129 0.66692 0
    outer loop
      vertex -53.9883 -51.1555 16
      vertex -54.268 -51.468 6
      vertex -54.268 -51.468 16
    endloop
  endfacet
  facet normal -0.951569 0.307434 0
    outer loop
      vertex -54.6063 -52.2319 6
      vertex -54.4771 -51.832 16
      vertex -54.4771 -51.832 6
    endloop
  endfacet
  facet normal -0.951569 0.307434 0
    outer loop
      vertex -54.4771 -51.832 16
      vertex -54.6063 -52.2319 6
      vertex -54.6063 -52.2319 16
    endloop
  endfacet
  facet normal 0 0 1
    outer loop
      vertex -50.6937 -52.2319 16
      vertex -50.6937 -53.0681 16
      vertex -50.65 -52.65 16
    endloop
  endfacet
  facet normal 0 0 1
    outer loop
      vertex -50.8229 -51.832 16
      vertex -50.6937 -53.0681 16
      vertex -50.6937 -52.2319 16
    endloop
  endfacet
  facet normal 0 0 1
    outer loop
      vertex -50.8229 -51.832 16
      vertex -50.8229 -53.468 16
      vertex -50.6937 -53.0681 16
    endloop
  endfacet
  facet normal 0 0 1
    outer loop
      vertex -51.032 -51.468 16
      vertex -50.8229 -53.468 16
      vertex -50.8229 -51.832 16
    endloop
  endfacet
  facet normal 0 0 1
    outer loop
      vertex -51.032 -51.468 16
      vertex -51.032 -53.832 16
      vertex -50.8229 -53.468 16
    endloop
  endfacet
  facet normal 0 0 1
    outer loop
      vertex -51.3117 -51.1555 16
      vertex -51.032 -53.832 16
      vertex -51.032 -51.468 16
    endloop
  endfacet
  facet normal 0 0 1
    outer loop
      vertex -51.3117 -51.1555 16
      vertex -51.3117 -54.1445 16
      vertex -51.032 -53.832 16
    endloop
  endfacet
  facet normal 0 0 1
    outer loop
      vertex -51.65 -50.9084 16
      vertex -51.3117 -54.1445 16
      vertex -51.3117 -51.1555 16
    endloop
  endfacet
  facet normal 0 0 1
    outer loop
      vertex -51.65 -50.9084 16
      vertex -51.65 -54.3916 16
      vertex -51.3117 -54.1445 16
    endloop
  endfacet
  facet normal 0 0 1
    outer loop
      vertex -52.032 -50.7374 16
      vertex -51.65 -54.3916 16
      vertex -51.65 -50.9084 16
    endloop
  endfacet
  facet normal 0 0 1
    outer loop
      vertex -52.032 -50.7374 16
      vertex -52.032 -54.5626 16
      vertex -51.65 -54.3916 16
    endloop
  endfacet
  facet normal 0 0 1
    outer loop
      vertex -52.4409 -50.65 16
      vertex -52.032 -54.5626 16
      vertex -52.032 -50.7374 16
    endloop
  endfacet
  facet normal 0 0 1
    outer loop
      vertex -52.4409 -50.65 16
      vertex -52.4409 -54.65 16
      vertex -52.032 -54.5626 16
    endloop
  endfacet
  facet normal -0 0 1
    outer loop
      vertex -52.8591 -50.65 16
      vertex -52.4409 -54.65 16
      vertex -52.4409 -50.65 16
    endloop
  endfacet
  facet normal 0 0 1
    outer loop
      vertex -52.8591 -50.65 16
      vertex -52.8591 -54.65 16
      vertex -52.4409 -54.65 16
    endloop
  endfacet
  facet normal -0 0 1
    outer loop
      vertex -53.268 -50.7374 16
      vertex -52.8591 -54.65 16
      vertex -52.8591 -50.65 16
    endloop
  endfacet
  facet normal 0 0 1
    outer loop
      vertex -53.268 -50.7374 16
      vertex -53.268 -54.5626 16
      vertex -52.8591 -54.65 16
    endloop
  endfacet
  facet normal -0 0 1
    outer loop
      vertex -53.65 -50.9084 16
      vertex -53.268 -54.5626 16
      vertex -53.268 -50.7374 16
    endloop
  endfacet
  facet normal 0 0 1
    outer loop
      vertex -53.65 -50.9084 16
      vertex -53.65 -54.3916 16
      vertex -53.268 -54.5626 16
    endloop
  endfacet
  facet normal -0 0 1
    outer loop
      vertex -53.9883 -51.1555 16
      vertex -53.65 -54.3916 16
      vertex -53.65 -50.9084 16
    endloop
  endfacet
  facet normal 0 0 1
    outer loop
      vertex -53.9883 -51.1555 16
      vertex -53.9883 -54.1445 16
      vertex -53.65 -54.3916 16
    endloop
  endfacet
  facet normal -0 0 1
    outer loop
      vertex -54.268 -51.468 16
      vertex -53.9883 -54.1445 16
      vertex -53.9883 -51.1555 16
    endloop
  endfacet
  facet normal 0 0 1
    outer loop
      vertex -54.268 -51.468 16
      vertex -54.268 -53.832 16
      vertex -53.9883 -54.1445 16
    endloop
  endfacet
  facet normal -0 0 1
    outer loop
      vertex -54.4771 -51.832 16
      vertex -54.268 -53.832 16
      vertex -54.268 -51.468 16
    endloop
  endfacet
  facet normal 0 0 1
    outer loop
      vertex -54.4771 -51.832 16
      vertex -54.4771 -53.468 16
      vertex -54.268 -53.832 16
    endloop
  endfacet
  facet normal -0 0 1
    outer loop
      vertex -54.6063 -52.2319 16
      vertex -54.4771 -53.468 16
      vertex -54.4771 -51.832 16
    endloop
  endfacet
  facet normal 0 0 1
    outer loop
      vertex -54.6063 -52.2319 16
      vertex -54.6063 -53.0681 16
      vertex -54.4771 -53.468 16
    endloop
  endfacet
  facet normal 0 -0 1
    outer loop
      vertex -54.6063 -53.0681 16
      vertex -54.6063 -52.2319 16
      vertex -54.65 -52.65 16
    endloop
  endfacet
  facet normal -0.408576 0.912724 0
    outer loop
      vertex -53.268 -50.7374 6
      vertex -53.65 -50.9084 16
      vertex -53.268 -50.7374 16
    endloop
  endfacet
  facet normal -0.408576 0.912724 0
    outer loop
      vertex -53.65 -50.9084 16
      vertex -53.268 -50.7374 6
      vertex -53.65 -50.9084 6
    endloop
  endfacet
  facet normal 0.994582 -0.103954 0
    outer loop
      vertex -50.6937 -53.0681 16
      vertex -50.65 -52.65 6
      vertex -50.65 -52.65 16
    endloop
  endfacet
  facet normal 0.994582 -0.103954 0
    outer loop
      vertex -50.65 -52.65 6
      vertex -50.6937 -53.0681 16
      vertex -50.6937 -53.0681 6
    endloop
  endfacet
  facet normal 0 0 -1
    outer loop
      vertex -56 -67 0
      vertex -60 -67 0
      vertex -56 -62 0
    endloop
  endfacet
  facet normal 0 0 -1
    outer loop
      vertex -33 -67 0
      vertex -37 -67 0
      vertex -33 -62 0
    endloop
  endfacet
  facet normal 0 0 -1
    outer loop
      vertex -10 -67 0
      vertex -14 -67 0
      vertex -10 -62 0
    endloop
  endfacet
  facet normal 0 0 -1
    outer loop
      vertex -10 -62 0
      vertex 0 -57 0
      vertex 0 -62 0
    endloop
  endfacet
  facet normal 0 0 -1
    outer loop
      vertex -14 -62 0
      vertex -10 -62 0
      vertex -14 -67 0
    endloop
  endfacet
  facet normal 0 0 -1
    outer loop
      vertex -14 -62 0
      vertex 0 -57 0
      vertex -10 -62 0
    endloop
  endfacet
  facet normal 0 0 -1
    outer loop
      vertex -44.15 -57 0
      vertex -14 -62 0
      vertex -33 -62 0
    endloop
  endfacet
  facet normal 0 0 -1
    outer loop
      vertex -37 -62 0
      vertex -33 -62 0
      vertex -37 -67 0
    endloop
  endfacet
  facet normal 0 0 -1
    outer loop
      vertex -44.15 -57 0
      vertex -33 -62 0
      vertex -37 -62 0
    endloop
  endfacet
  facet normal 0 0 -1
    outer loop
      vertex -14 -62 0
      vertex -44.15 -57 0
      vertex 0 -57 0
    endloop
  endfacet
  facet normal 0 0 -1
    outer loop
      vertex -56 -62 0
      vertex -44.15 -57 0
      vertex -37 -62 0
    endloop
  endfacet
  facet normal 0 0 -1
    outer loop
      vertex -61.15 -45.3 0
      vertex -44.15 -57 0
      vertex -56 -62 0
    endloop
  endfacet
  facet normal 0 0 -1
    outer loop
      vertex -60 -62 0
      vertex -56 -62 0
      vertex -60 -67 0
    endloop
  endfacet
  facet normal 0 0 -1
    outer loop
      vertex -60 -60 0
      vertex -56 -62 0
      vertex -60 -62 0
    endloop
  endfacet
  facet normal 0 0 -1
    outer loop
      vertex -61.15 -45.3 0
      vertex -56 -62 0
      vertex -60 -60 0
    endloop
  endfacet
  facet normal 0 0 -1
    outer loop
      vertex -61.15 -45.3 0
      vertex -60 -60 0
      vertex -61.15 -60 0
    endloop
  endfacet
  facet normal 0 0 -1
    outer loop
      vertex -44.15 -57 0
      vertex -61.15 -45.3 0
      vertex -44.15 -45.3 0
    endloop
  endfacet
  facet normal 0 0 -1
    outer loop
      vertex -60 -62 0
      vertex -61.15 -60 0
      vertex -60 -60 0
    endloop
  endfacet
  facet normal 0 0 -1
    outer loop
      vertex -105 -62 0
      vertex -61.15 -60 0
      vertex -60 -62 0
    endloop
  endfacet
  facet normal -0 0 -1
    outer loop
      vertex -61.15 -60 0
      vertex -105 -62 0
      vertex -105 -60 0
    endloop
  endfacet
  facet normal 0 0 -0
    outer loop
      vertex -61.15 -60 0
      vertex -105 -60 0
      vertex -60 -60 0
    endloop
  endfacet
  facet normal 0.867112 -0.498113 0
    outer loop
      vertex -51.032 -53.832 16
      vertex -50.8229 -53.468 6
      vertex -50.8229 -53.468 16
    endloop
  endfacet
  facet normal 0.867112 -0.498113 0
    outer loop
      vertex -50.8229 -53.468 6
      vertex -51.032 -53.832 16
      vertex -51.032 -53.832 6
    endloop
  endfacet
  facet normal -0.589831 -0.807527 0
    outer loop
      vertex -53.9883 -54.1445 6
      vertex -53.65 -54.3916 16
      vertex -53.9883 -54.1445 16
    endloop
  endfacet
  facet normal -0.589831 -0.807527 -0
    outer loop
      vertex -53.65 -54.3916 16
      vertex -53.9883 -54.1445 6
      vertex -53.65 -54.3916 6
    endloop
  endfacet
  facet normal -0.867112 -0.498113 0
    outer loop
      vertex -54.268 -53.832 6
      vertex -54.4771 -53.468 16
      vertex -54.4771 -53.468 6
    endloop
  endfacet
  facet normal -0.867112 -0.498113 0
    outer loop
      vertex -54.4771 -53.468 16
      vertex -54.268 -53.832 6
      vertex -54.268 -53.832 16
    endloop
  endfacet
  facet normal -0.745129 -0.66692 0
    outer loop
      vertex -53.9883 -54.1445 6
      vertex -54.268 -53.832 16
      vertex -54.268 -53.832 6
    endloop
  endfacet
  facet normal -0.745129 -0.66692 0
    outer loop
      vertex -54.268 -53.832 16
      vertex -53.9883 -54.1445 6
      vertex -53.9883 -54.1445 16
    endloop
  endfacet
  facet normal -0.994582 -0.103954 0
    outer loop
      vertex -54.6063 -53.0681 6
      vertex -54.65 -52.65 16
      vertex -54.65 -52.65 6
    endloop
  endfacet
  facet normal -0.994582 -0.103954 0
    outer loop
      vertex -54.65 -52.65 16
      vertex -54.6063 -53.0681 6
      vertex -54.6063 -53.0681 16
    endloop
  endfacet
  facet normal 0.209023 -0.977911 0
    outer loop
      vertex -52.4409 -54.65 6
      vertex -52.032 -54.5626 16
      vertex -52.4409 -54.65 16
    endloop
  endfacet
  facet normal 0.209023 -0.977911 0
    outer loop
      vertex -52.032 -54.5626 16
      vertex -52.4409 -54.65 6
      vertex -52.032 -54.5626 6
    endloop
  endfacet
  facet normal 0.589831 -0.807527 0
    outer loop
      vertex -51.65 -54.3916 6
      vertex -51.3117 -54.1445 16
      vertex -51.65 -54.3916 16
    endloop
  endfacet
  facet normal 0.589831 -0.807527 0
    outer loop
      vertex -51.3117 -54.1445 16
      vertex -51.65 -54.3916 6
      vertex -51.3117 -54.1445 6
    endloop
  endfacet
  facet normal -0.209023 -0.977911 0
    outer loop
      vertex -53.268 -54.5626 6
      vertex -52.8591 -54.65 16
      vertex -53.268 -54.5626 16
    endloop
  endfacet
  facet normal -0.209023 -0.977911 -0
    outer loop
      vertex -52.8591 -54.65 16
      vertex -53.268 -54.5626 6
      vertex -52.8591 -54.65 6
    endloop
  endfacet
  facet normal -0.951569 -0.307434 0
    outer loop
      vertex -54.4771 -53.468 6
      vertex -54.6063 -53.0681 16
      vertex -54.6063 -53.0681 6
    endloop
  endfacet
  facet normal -0.951569 -0.307434 0
    outer loop
      vertex -54.6063 -53.0681 16
      vertex -54.4771 -53.468 6
      vertex -54.4771 -53.468 16
    endloop
  endfacet
  facet normal 0.408576 -0.912724 0
    outer loop
      vertex -52.032 -54.5626 6
      vertex -51.65 -54.3916 16
      vertex -52.032 -54.5626 16
    endloop
  endfacet
  facet normal 0.408576 -0.912724 0
    outer loop
      vertex -51.65 -54.3916 16
      vertex -52.032 -54.5626 6
      vertex -51.65 -54.3916 6
    endloop
  endfacet
  facet normal 0.745129 -0.66692 0
    outer loop
      vertex -51.3117 -54.1445 16
      vertex -51.032 -53.832 6
      vertex -51.032 -53.832 16
    endloop
  endfacet
  facet normal 0.745129 -0.66692 0
    outer loop
      vertex -51.032 -53.832 6
      vertex -51.3117 -54.1445 16
      vertex -51.3117 -54.1445 6
    endloop
  endfacet
  facet normal -0.408576 -0.912724 0
    outer loop
      vertex -53.65 -54.3916 6
      vertex -53.268 -54.5626 16
      vertex -53.65 -54.3916 16
    endloop
  endfacet
  facet normal -0.408576 -0.912724 -0
    outer loop
      vertex -53.268 -54.5626 16
      vertex -53.65 -54.3916 6
      vertex -53.268 -54.5626 6
    endloop
  endfacet
  facet normal -1 0 0
    outer loop
      vertex -61.15 -60 0
      vertex -61.15 -45.3 6
      vertex -61.15 -45.3 0
    endloop
  endfacet
  facet normal -1 -0 0
    outer loop
      vertex -61.15 -45.3 6
      vertex -61.15 -60 0
      vertex -61.15 -60 6
    endloop
  endfacet
  facet normal 0 0 -1
    outer loop
      vertex -102.8 -52.5 6
      vertex -97.8 52.5 6
      vertex -97.8 -52.5 6
    endloop
  endfacet
  facet normal -0 0 -1
    outer loop
      vertex -97.8 52.5 6
      vertex -102.8 -52.5 6
      vertex -102.8 52.5 6
    endloop
  endfacet
  facet normal 0 0 -1
    outer loop
      vertex -97.8 -52.5 6
      vertex -61.15 -45.3 6
      vertex -61.15 -60 6
    endloop
  endfacet
  facet normal -0 0 -1
    outer loop
      vertex -61.15 -45.3 6
      vertex -97.8 -52.5 6
      vertex -61.15 45.3 6
    endloop
  endfacet
  facet normal 0 0 -1
    outer loop
      vertex -97.8 -52.5 6
      vertex -61.15 -60 6
      vertex -97.8 -57.5 6
    endloop
  endfacet
  facet normal 0 0 -1
    outer loop
      vertex -105 -60 6
      vertex -97.8 -57.5 6
      vertex -61.15 -60 6
    endloop
  endfacet
  facet normal 0 0 -1
    outer loop
      vertex -105 -60 6
      vertex -102.8 -52.5 6
      vertex -102.8 -57.5 6
    endloop
  endfacet
  facet normal -0 0 -1
    outer loop
      vertex -102.8 -52.5 6
      vertex -105 -60 6
      vertex -102.8 52.5 6
    endloop
  endfacet
  facet normal 0 0 -1
    outer loop
      vertex -105 60 6
      vertex -102.8 52.5 6
      vertex -105 -60 6
    endloop
  endfacet
  facet normal -0 0 -1
    outer loop
      vertex -97.8 -57.5 6
      vertex -105 -60 6
      vertex -102.8 -57.5 6
    endloop
  endfacet
  facet normal 0 0 -1
    outer loop
      vertex -61.15 -45.3 6
      vertex -60 45.3 6
      vertex -60 -45.3 6
    endloop
  endfacet
  facet normal -0 0 -1
    outer loop
      vertex -60 45.3 6
      vertex -61.15 -45.3 6
      vertex -61.15 45.3 6
    endloop
  endfacet
  facet normal 0 0 -1
    outer loop
      vertex -97.8 52.5 6
      vertex -61.15 45.3 6
      vertex -97.8 -52.5 6
    endloop
  endfacet
  facet normal 0 0 -1
    outer loop
      vertex -61.15 45.3 6
      vertex -97.8 52.5 6
      vertex -61.15 60 6
    endloop
  endfacet
  facet normal 0 0 -1
    outer loop
      vertex -97.8 57.5 6
      vertex -61.15 60 6
      vertex -97.8 52.5 6
    endloop
  endfacet
  facet normal 0 0 -1
    outer loop
      vertex -105 60 6
      vertex -97.8 57.5 6
      vertex -102.8 57.5 6
    endloop
  endfacet
  facet normal 0 0 -1
    outer loop
      vertex -97.8 57.5 6
      vertex -105 60 6
      vertex -61.15 60 6
    endloop
  endfacet
  facet normal 0 0 -1
    outer loop
      vertex -102.8 52.5 6
      vertex -105 60 6
      vertex -102.8 57.5 6
    endloop
  endfacet
  facet normal 0 0 -0
    outer loop
      vertex -61.15 60 6
      vertex -105 60 6
      vertex -60 60 6
    endloop
  endfacet
  facet normal 0 0 0
    outer loop
      vertex -105 -60 6
      vertex -61.15 -60 6
      vertex -60 -60 6
    endloop
  endfacet
  facet normal 0 0 1
    outer loop
      vertex -44.15 -45.3 6
      vertex -50.65 -52.65 6
      vertex -44.15 -60 6
    endloop
  endfacet
  facet normal 0 0 1
    outer loop
      vertex -44.15 -45.3 6
      vertex -50.6937 -52.2319 6
      vertex -50.65 -52.65 6
    endloop
  endfacet
  facet normal 0 0 1
    outer loop
      vertex -44.15 -45.3 6
      vertex -50.8229 -51.832 6
      vertex -50.6937 -52.2319 6
    endloop
  endfacet
  facet normal 0 0 1
    outer loop
      vertex -44.15 -45.3 6
      vertex -51.032 -51.468 6
      vertex -50.8229 -51.832 6
    endloop
  endfacet
  facet normal 0 0 1
    outer loop
      vertex -44.15 -45.3 6
      vertex -51.3117 -51.1555 6
      vertex -51.032 -51.468 6
    endloop
  endfacet
  facet normal 0 0 1
    outer loop
      vertex -44.15 -45.3 6
      vertex -51.65 -50.9084 6
      vertex -51.3117 -51.1555 6
    endloop
  endfacet
  facet normal 0 0 1
    outer loop
      vertex -44.15 -45.3 6
      vertex -52.032 -50.7374 6
      vertex -51.65 -50.9084 6
    endloop
  endfacet
  facet normal 0 0 1
    outer loop
      vertex -44.15 -45.3 6
      vertex -52.4409 -50.65 6
      vertex -52.032 -50.7374 6
    endloop
  endfacet
  facet normal -0 0 1
    outer loop
      vertex -60 -45.3 6
      vertex -52.4409 -50.65 6
      vertex -44.15 -45.3 6
    endloop
  endfacet
  facet normal 0 0 1
    outer loop
      vertex -52.4409 -50.65 6
      vertex -60 -45.3 6
      vertex -52.8591 -50.65 6
    endloop
  endfacet
  facet normal 0 0 1
    outer loop
      vertex -52.8591 -50.65 6
      vertex -60 -45.3 6
      vertex -53.268 -50.7374 6
    endloop
  endfacet
  facet normal 0 0 1
    outer loop
      vertex -54.6063 -52.2319 6
      vertex -60 -45.3 6
      vertex -54.65 -52.65 6
    endloop
  endfacet
  facet normal 0 0 1
    outer loop
      vertex -54.4771 -51.832 6
      vertex -60 -45.3 6
      vertex -54.6063 -52.2319 6
    endloop
  endfacet
  facet normal 0 0 1
    outer loop
      vertex -54.268 -51.468 6
      vertex -60 -45.3 6
      vertex -54.4771 -51.832 6
    endloop
  endfacet
  facet normal 0 0 1
    outer loop
      vertex -53.9883 -51.1555 6
      vertex -60 -45.3 6
      vertex -54.268 -51.468 6
    endloop
  endfacet
  facet normal 0 0 1
    outer loop
      vertex -53.65 -50.9084 6
      vertex -60 -45.3 6
      vertex -53.9883 -51.1555 6
    endloop
  endfacet
  facet normal 0 0 1
    outer loop
      vertex -53.268 -50.7374 6
      vertex -60 -45.3 6
      vertex -53.65 -50.9084 6
    endloop
  endfacet
  facet normal -0 0 1
    outer loop
      vertex -50.6937 -53.0681 6
      vertex -44.15 -60 6
      vertex -50.65 -52.65 6
    endloop
  endfacet
  facet normal -0 0 1
    outer loop
      vertex -50.8229 -53.468 6
      vertex -44.15 -60 6
      vertex -50.6937 -53.0681 6
    endloop
  endfacet
  facet normal -0 0 1
    outer loop
      vertex -51.032 -53.832 6
      vertex -44.15 -60 6
      vertex -50.8229 -53.468 6
    endloop
  endfacet
  facet normal -0 0 1
    outer loop
      vertex -51.3117 -54.1445 6
      vertex -44.15 -60 6
      vertex -51.032 -53.832 6
    endloop
  endfacet
  facet normal -0 0 1
    outer loop
      vertex -51.65 -54.3916 6
      vertex -44.15 -60 6
      vertex -51.3117 -54.1445 6
    endloop
  endfacet
  facet normal -0 0 1
    outer loop
      vertex -52.032 -54.5626 6
      vertex -44.15 -60 6
      vertex -51.65 -54.3916 6
    endloop
  endfacet
  facet normal -0 0 1
    outer loop
      vertex -52.4409 -54.65 6
      vertex -44.15 -60 6
      vertex -52.032 -54.5626 6
    endloop
  endfacet
  facet normal 0 0 1
    outer loop
      vertex -60 -60 6
      vertex -52.4409 -54.65 6
      vertex -52.8591 -54.65 6
    endloop
  endfacet
  facet normal 0 0 1
    outer loop
      vertex -60 -60 6
      vertex -52.8591 -54.65 6
      vertex -53.268 -54.5626 6
    endloop
  endfacet
  facet normal 0 0 1
    outer loop
      vertex -60 -60 6
      vertex -53.268 -54.5626 6
      vertex -53.65 -54.3916 6
    endloop
  endfacet
  facet normal 0 0 1
    outer loop
      vertex -60 -60 6
      vertex -54.65 -52.65 6
      vertex -60 -45.3 6
    endloop
  endfacet
  facet normal 0 0 1
    outer loop
      vertex -54.65 -52.65 6
      vertex -60 -60 6
      vertex -54.6063 -53.0681 6
    endloop
  endfacet
  facet normal 0 0 1
    outer loop
      vertex -54.6063 -53.0681 6
      vertex -60 -60 6
      vertex -54.4771 -53.468 6
    endloop
  endfacet
  facet normal 0 0 1
    outer loop
      vertex -52.4409 -54.65 6
      vertex -60 -60 6
      vertex -44.15 -60 6
    endloop
  endfacet
  facet normal 0 0 1
    outer loop
      vertex -53.9883 -54.1445 6
      vertex -60 -60 6
      vertex -53.65 -54.3916 6
    endloop
  endfacet
  facet normal 0 0 1
    outer loop
      vertex -54.268 -53.832 6
      vertex -60 -60 6
      vertex -53.9883 -54.1445 6
    endloop
  endfacet
  facet normal 0 0 1
    outer loop
      vertex -54.4771 -53.468 6
      vertex -60 -60 6
      vertex -54.268 -53.832 6
    endloop
  endfacet
  facet normal 0 0 1
    outer loop
      vertex -44.15 60 6
      vertex -50.65 52.65 6
      vertex -44.15 45.3 6
    endloop
  endfacet
  facet normal 0 0 1
    outer loop
      vertex -44.15 60 6
      vertex -50.6937 53.0681 6
      vertex -50.65 52.65 6
    endloop
  endfacet
  facet normal 0 0 1
    outer loop
      vertex -44.15 60 6
      vertex -50.8229 53.468 6
      vertex -50.6937 53.0681 6
    endloop
  endfacet
  facet normal 0 0 1
    outer loop
      vertex -44.15 60 6
      vertex -51.032 53.832 6
      vertex -50.8229 53.468 6
    endloop
  endfacet
  facet normal 0 0 1
    outer loop
      vertex -44.15 60 6
      vertex -51.3117 54.1445 6
      vertex -51.032 53.832 6
    endloop
  endfacet
  facet normal 0 0 1
    outer loop
      vertex -44.15 60 6
      vertex -51.65 54.3916 6
      vertex -51.3117 54.1445 6
    endloop
  endfacet
  facet normal 0 0 1
    outer loop
      vertex -44.15 60 6
      vertex -52.032 54.5626 6
      vertex -51.65 54.3916 6
    endloop
  endfacet
  facet normal 0 0 1
    outer loop
      vertex -44.15 60 6
      vertex -52.4409 54.65 6
      vertex -52.032 54.5626 6
    endloop
  endfacet
  facet normal -0 0 1
    outer loop
      vertex -60 60 6
      vertex -52.4409 54.65 6
      vertex -44.15 60 6
    endloop
  endfacet
  facet normal 0 0 1
    outer loop
      vertex -52.4409 54.65 6
      vertex -60 60 6
      vertex -52.8591 54.65 6
    endloop
  endfacet
  facet normal 0 0 1
    outer loop
      vertex -52.8591 54.65 6
      vertex -60 60 6
      vertex -53.268 54.5626 6
    endloop
  endfacet
  facet normal 0 0 1
    outer loop
      vertex -54.6063 53.0681 6
      vertex -60 60 6
      vertex -54.65 52.65 6
    endloop
  endfacet
  facet normal 0 0 1
    outer loop
      vertex -54.4771 53.468 6
      vertex -60 60 6
      vertex -54.6063 53.0681 6
    endloop
  endfacet
  facet normal 0 0 1
    outer loop
      vertex -54.268 53.832 6
      vertex -60 60 6
      vertex -54.4771 53.468 6
    endloop
  endfacet
  facet normal 0 0 1
    outer loop
      vertex -53.9883 54.1445 6
      vertex -60 60 6
      vertex -54.268 53.832 6
    endloop
  endfacet
  facet normal 0 0 1
    outer loop
      vertex -53.65 54.3916 6
      vertex -60 60 6
      vertex -53.9883 54.1445 6
    endloop
  endfacet
  facet normal 0 0 1
    outer loop
      vertex -53.268 54.5626 6
      vertex -60 60 6
      vertex -53.65 54.3916 6
    endloop
  endfacet
  facet normal -0 0 1
    outer loop
      vertex -50.6937 52.2319 6
      vertex -44.15 45.3 6
      vertex -50.65 52.65 6
    endloop
  endfacet
  facet normal -0 0 1
    outer loop
      vertex -50.8229 51.832 6
      vertex -44.15 45.3 6
      vertex -50.6937 52.2319 6
    endloop
  endfacet
  facet normal -0 0 1
    outer loop
      vertex -51.032 51.468 6
      vertex -44.15 45.3 6
      vertex -50.8229 51.832 6
    endloop
  endfacet
  facet normal -0 0 1
    outer loop
      vertex -51.3117 51.1555 6
      vertex -44.15 45.3 6
      vertex -51.032 51.468 6
    endloop
  endfacet
  facet normal -0 0 1
    outer loop
      vertex -51.65 50.9084 6
      vertex -44.15 45.3 6
      vertex -51.3117 51.1555 6
    endloop
  endfacet
  facet normal -0 0 1
    outer loop
      vertex -52.032 50.7374 6
      vertex -44.15 45.3 6
      vertex -51.65 50.9084 6
    endloop
  endfacet
  facet normal -0 0 1
    outer loop
      vertex -52.4409 50.65 6
      vertex -44.15 45.3 6
      vertex -52.032 50.7374 6
    endloop
  endfacet
  facet normal 0 0 1
    outer loop
      vertex -60 45.3 6
      vertex -52.4409 50.65 6
      vertex -52.8591 50.65 6
    endloop
  endfacet
  facet normal 0 0 1
    outer loop
      vertex -60 45.3 6
      vertex -52.8591 50.65 6
      vertex -53.268 50.7374 6
    endloop
  endfacet
  facet normal 0 0 1
    outer loop
      vertex -60 45.3 6
      vertex -53.268 50.7374 6
      vertex -53.65 50.9084 6
    endloop
  endfacet
  facet normal 0 0 1
    outer loop
      vertex -60 45.3 6
      vertex -54.65 52.65 6
      vertex -60 60 6
    endloop
  endfacet
  facet normal 0 0 1
    outer loop
      vertex -54.65 52.65 6
      vertex -60 45.3 6
      vertex -54.6063 52.2319 6
    endloop
  endfacet
  facet normal 0 0 1
    outer loop
      vertex -54.6063 52.2319 6
      vertex -60 45.3 6
      vertex -54.4771 51.832 6
    endloop
  endfacet
  facet normal 0 0 1
    outer loop
      vertex -52.4409 50.65 6
      vertex -60 45.3 6
      vertex -44.15 45.3 6
    endloop
  endfacet
  facet normal 0 0 1
    outer loop
      vertex -53.9883 51.1555 6
      vertex -60 45.3 6
      vertex -53.65 50.9084 6
    endloop
  endfacet
  facet normal 0 0 1
    outer loop
      vertex -54.268 51.468 6
      vertex -60 45.3 6
      vertex -53.9883 51.1555 6
    endloop
  endfacet
  facet normal 0 0 1
    outer loop
      vertex -54.4771 51.832 6
      vertex -60 45.3 6
      vertex -54.268 51.468 6
    endloop
  endfacet
  facet normal 1 0 0
    outer loop
      vertex -44.15 -45.3 6
      vertex -44.15 -57 2
      vertex -44.15 -45.3 0
    endloop
  endfacet
  facet normal 1 -0 0
    outer loop
      vertex -44.15 -60 6
      vertex -44.15 -57 2
      vertex -44.15 -45.3 6
    endloop
  endfacet
  facet normal 1 0 0
    outer loop
      vertex -44.15 -57 2
      vertex -44.15 -60 6
      vertex -44.15 -60 2
    endloop
  endfacet
  facet normal 1 0 0
    outer loop
      vertex -44.15 -45.3 0
      vertex -44.15 -57 2
      vertex -44.15 -57 0
    endloop
  endfacet
  facet normal 0 -1 0
    outer loop
      vertex -60 -60 2
      vertex -60 -60 6
      vertex -61.15 -60 6
    endloop
  endfacet
  facet normal 0 -1 0
    outer loop
      vertex -60 -60 6
      vertex -60 -60 2
      vertex -44.15 -60 6
    endloop
  endfacet
  facet normal 0 -1 0
    outer loop
      vertex -61.15 -60 0
      vertex -60 -60 2
      vertex -61.15 -60 6
    endloop
  endfacet
  facet normal 0 -1 -0
    outer loop
      vertex -60 -60 2
      vertex -61.15 -60 0
      vertex -60 -60 0
    endloop
  endfacet
  facet normal 0 -1 -0
    outer loop
      vertex -44.15 -60 6
      vertex -60 -60 2
      vertex -44.15 -60 2
    endloop
  endfacet
  facet normal 0 1 -0
    outer loop
      vertex -44.15 -45.3 0
      vertex -60 -45.3 6
      vertex -44.15 -45.3 6
    endloop
  endfacet
  facet normal 0 1 0
    outer loop
      vertex -61.15 -45.3 0
      vertex -60 -45.3 6
      vertex -44.15 -45.3 0
    endloop
  endfacet
  facet normal 0 1 0
    outer loop
      vertex -60 -45.3 6
      vertex -61.15 -45.3 0
      vertex -61.15 -45.3 6
    endloop
  endfacet
  facet normal 0.994582 -0.103954 0
    outer loop
      vertex -50.6937 52.2319 16
      vertex -50.65 52.65 6
      vertex -50.65 52.65 16
    endloop
  endfacet
  facet normal 0.994582 -0.103954 0
    outer loop
      vertex -50.65 52.65 6
      vertex -50.6937 52.2319 16
      vertex -50.6937 52.2319 6
    endloop
  endfacet
  facet normal -0.994582 -0.103954 0
    outer loop
      vertex -54.6063 52.2319 6
      vertex -54.65 52.65 16
      vertex -54.65 52.65 6
    endloop
  endfacet
  facet normal -0.994582 -0.103954 0
    outer loop
      vertex -54.65 52.65 16
      vertex -54.6063 52.2319 6
      vertex -54.6063 52.2319 16
    endloop
  endfacet
  facet normal 0 -1 0
    outer loop
      vertex -52.8591 50.65 6
      vertex -52.4409 50.65 16
      vertex -52.8591 50.65 16
    endloop
  endfacet
  facet normal 0 -1 -0
    outer loop
      vertex -52.4409 50.65 16
      vertex -52.8591 50.65 6
      vertex -52.4409 50.65 6
    endloop
  endfacet
  facet normal 0 1 -0
    outer loop
      vertex -52.4409 54.65 6
      vertex -52.8591 54.65 16
      vertex -52.4409 54.65 16
    endloop
  endfacet
  facet normal 0 1 0
    outer loop
      vertex -52.8591 54.65 16
      vertex -52.4409 54.65 6
      vertex -52.8591 54.65 6
    endloop
  endfacet
  facet normal 0.745129 -0.66692 0
    outer loop
      vertex -51.3117 51.1555 16
      vertex -51.032 51.468 6
      vertex -51.032 51.468 16
    endloop
  endfacet
  facet normal 0.745129 -0.66692 0
    outer loop
      vertex -51.032 51.468 6
      vertex -51.3117 51.1555 16
      vertex -51.3117 51.1555 6
    endloop
  endfacet
  facet normal 0.951569 -0.307434 0
    outer loop
      vertex -50.8229 51.832 16
      vertex -50.6937 52.2319 6
      vertex -50.6937 52.2319 16
    endloop
  endfacet
  facet normal 0.951569 -0.307434 0
    outer loop
      vertex -50.6937 52.2319 6
      vertex -50.8229 51.832 16
      vertex -50.8229 51.832 6
    endloop
  endfacet
  facet normal -0.589831 -0.807527 0
    outer loop
      vertex -53.9883 51.1555 6
      vertex -53.65 50.9084 16
      vertex -53.9883 51.1555 16
    endloop
  endfacet
  facet normal -0.589831 -0.807527 -0
    outer loop
      vertex -53.65 50.9084 16
      vertex -53.9883 51.1555 6
      vertex -53.65 50.9084 6
    endloop
  endfacet
  facet normal -0.209023 -0.977911 0
    outer loop
      vertex -53.268 50.7374 6
      vertex -52.8591 50.65 16
      vertex -53.268 50.7374 16
    endloop
  endfacet
  facet normal -0.209023 -0.977911 -0
    outer loop
      vertex -52.8591 50.65 16
      vertex -53.268 50.7374 6
      vertex -52.8591 50.65 6
    endloop
  endfacet
  facet normal 0.951569 0.307434 0
    outer loop
      vertex -50.6937 53.0681 16
      vertex -50.8229 53.468 6
      vertex -50.8229 53.468 16
    endloop
  endfacet
  facet normal 0.951569 0.307434 0
    outer loop
      vertex -50.8229 53.468 6
      vertex -50.6937 53.0681 16
      vertex -50.6937 53.0681 6
    endloop
  endfacet
  facet normal 0.867112 -0.498113 0
    outer loop
      vertex -51.032 51.468 16
      vertex -50.8229 51.832 6
      vertex -50.8229 51.832 16
    endloop
  endfacet
  facet normal 0.867112 -0.498113 0
    outer loop
      vertex -50.8229 51.832 6
      vertex -51.032 51.468 16
      vertex -51.032 51.468 6
    endloop
  endfacet
  facet normal 0.408576 -0.912724 0
    outer loop
      vertex -52.032 50.7374 6
      vertex -51.65 50.9084 16
      vertex -52.032 50.7374 16
    endloop
  endfacet
  facet normal 0.408576 -0.912724 0
    outer loop
      vertex -51.65 50.9084 16
      vertex -52.032 50.7374 6
      vertex -51.65 50.9084 6
    endloop
  endfacet
  facet normal 0.209023 -0.977911 0
    outer loop
      vertex -52.4409 50.65 6
      vertex -52.032 50.7374 16
      vertex -52.4409 50.65 16
    endloop
  endfacet
  facet normal 0.209023 -0.977911 0
    outer loop
      vertex -52.032 50.7374 16
      vertex -52.4409 50.65 6
      vertex -52.032 50.7374 6
    endloop
  endfacet
  facet normal 0.589831 -0.807527 0
    outer loop
      vertex -51.65 50.9084 6
      vertex -51.3117 51.1555 16
      vertex -51.65 50.9084 16
    endloop
  endfacet
  facet normal 0.589831 -0.807527 0
    outer loop
      vertex -51.3117 51.1555 16
      vertex -51.65 50.9084 6
      vertex -51.3117 51.1555 6
    endloop
  endfacet
  facet normal -0.867112 -0.498113 0
    outer loop
      vertex -54.268 51.468 6
      vertex -54.4771 51.832 16
      vertex -54.4771 51.832 6
    endloop
  endfacet
  facet normal -0.867112 -0.498113 0
    outer loop
      vertex -54.4771 51.832 16
      vertex -54.268 51.468 6
      vertex -54.268 51.468 16
    endloop
  endfacet
  facet normal -0.745129 -0.66692 0
    outer loop
      vertex -53.9883 51.1555 6
      vertex -54.268 51.468 16
      vertex -54.268 51.468 6
    endloop
  endfacet
  facet normal -0.745129 -0.66692 0
    outer loop
      vertex -54.268 51.468 16
      vertex -53.9883 51.1555 6
      vertex -53.9883 51.1555 16
    endloop
  endfacet
  facet normal -0.951569 -0.307434 0
    outer loop
      vertex -54.4771 51.832 6
      vertex -54.6063 52.2319 16
      vertex -54.6063 52.2319 6
    endloop
  endfacet
  facet normal -0.951569 -0.307434 0
    outer loop
      vertex -54.6063 52.2319 16
      vertex -54.4771 51.832 6
      vertex -54.4771 51.832 16
    endloop
  endfacet
  facet normal 0 0 1
    outer loop
      vertex -50.6937 53.0681 16
      vertex -50.6937 52.2319 16
      vertex -50.65 52.65 16
    endloop
  endfacet
  facet normal 0 0 1
    outer loop
      vertex -50.8229 53.468 16
      vertex -50.6937 52.2319 16
      vertex -50.6937 53.0681 16
    endloop
  endfacet
  facet normal 0 0 1
    outer loop
      vertex -50.8229 53.468 16
      vertex -50.8229 51.832 16
      vertex -50.6937 52.2319 16
    endloop
  endfacet
  facet normal 0 0 1
    outer loop
      vertex -51.032 53.832 16
      vertex -50.8229 51.832 16
      vertex -50.8229 53.468 16
    endloop
  endfacet
  facet normal 0 0 1
    outer loop
      vertex -51.032 53.832 16
      vertex -51.032 51.468 16
      vertex -50.8229 51.832 16
    endloop
  endfacet
  facet normal 0 0 1
    outer loop
      vertex -51.3117 54.1445 16
      vertex -51.032 51.468 16
      vertex -51.032 53.832 16
    endloop
  endfacet
  facet normal 0 0 1
    outer loop
      vertex -51.3117 54.1445 16
      vertex -51.3117 51.1555 16
      vertex -51.032 51.468 16
    endloop
  endfacet
  facet normal 0 0 1
    outer loop
      vertex -51.65 54.3916 16
      vertex -51.3117 51.1555 16
      vertex -51.3117 54.1445 16
    endloop
  endfacet
  facet normal 0 0 1
    outer loop
      vertex -51.65 54.3916 16
      vertex -51.65 50.9084 16
      vertex -51.3117 51.1555 16
    endloop
  endfacet
  facet normal 0 0 1
    outer loop
      vertex -52.032 54.5626 16
      vertex -51.65 50.9084 16
      vertex -51.65 54.3916 16
    endloop
  endfacet
  facet normal 0 0 1
    outer loop
      vertex -52.032 54.5626 16
      vertex -52.032 50.7374 16
      vertex -51.65 50.9084 16
    endloop
  endfacet
  facet normal 0 0 1
    outer loop
      vertex -52.4409 54.65 16
      vertex -52.032 50.7374 16
      vertex -52.032 54.5626 16
    endloop
  endfacet
  facet normal 0 0 1
    outer loop
      vertex -52.4409 54.65 16
      vertex -52.4409 50.65 16
      vertex -52.032 50.7374 16
    endloop
  endfacet
  facet normal -0 0 1
    outer loop
      vertex -52.8591 54.65 16
      vertex -52.4409 50.65 16
      vertex -52.4409 54.65 16
    endloop
  endfacet
  facet normal 0 0 1
    outer loop
      vertex -52.8591 54.65 16
      vertex -52.8591 50.65 16
      vertex -52.4409 50.65 16
    endloop
  endfacet
  facet normal -0 0 1
    outer loop
      vertex -53.268 54.5626 16
      vertex -52.8591 50.65 16
      vertex -52.8591 54.65 16
    endloop
  endfacet
  facet normal 0 0 1
    outer loop
      vertex -53.268 54.5626 16
      vertex -53.268 50.7374 16
      vertex -52.8591 50.65 16
    endloop
  endfacet
  facet normal 0 0 1
    outer loop
      vertex -53.268 54.5626 16
      vertex -53.65 50.9084 16
      vertex -53.268 50.7374 16
    endloop
  endfacet
  facet normal -0 0 1
    outer loop
      vertex -53.65 54.3916 16
      vertex -53.65 50.9084 16
      vertex -53.268 54.5626 16
    endloop
  endfacet
  facet normal -0 0 1
    outer loop
      vertex -53.9883 54.1445 16
      vertex -53.65 50.9084 16
      vertex -53.65 54.3916 16
    endloop
  endfacet
  facet normal 0 0 1
    outer loop
      vertex -53.9883 54.1445 16
      vertex -53.9883 51.1555 16
      vertex -53.65 50.9084 16
    endloop
  endfacet
  facet normal -0 0 1
    outer loop
      vertex -54.268 53.832 16
      vertex -53.9883 51.1555 16
      vertex -53.9883 54.1445 16
    endloop
  endfacet
  facet normal 0 0 1
    outer loop
      vertex -54.268 53.832 16
      vertex -54.268 51.468 16
      vertex -53.9883 51.1555 16
    endloop
  endfacet
  facet normal -0 0 1
    outer loop
      vertex -54.4771 53.468 16
      vertex -54.268 51.468 16
      vertex -54.268 53.832 16
    endloop
  endfacet
  facet normal 0 0 1
    outer loop
      vertex -54.4771 53.468 16
      vertex -54.4771 51.832 16
      vertex -54.268 51.468 16
    endloop
  endfacet
  facet normal -0 0 1
    outer loop
      vertex -54.6063 53.0681 16
      vertex -54.4771 51.832 16
      vertex -54.4771 53.468 16
    endloop
  endfacet
  facet normal 0 0 1
    outer loop
      vertex -54.6063 53.0681 16
      vertex -54.6063 52.2319 16
      vertex -54.4771 51.832 16
    endloop
  endfacet
  facet normal 0 -0 1
    outer loop
      vertex -54.6063 52.2319 16
      vertex -54.6063 53.0681 16
      vertex -54.65 52.65 16
    endloop
  endfacet
  facet normal -0.408576 -0.912724 0
    outer loop
      vertex -53.65 50.9084 6
      vertex -53.268 50.7374 16
      vertex -53.65 50.9084 16
    endloop
  endfacet
  facet normal -0.408576 -0.912724 -0
    outer loop
      vertex -53.268 50.7374 16
      vertex -53.65 50.9084 6
      vertex -53.268 50.7374 6
    endloop
  endfacet
  facet normal 0.994582 0.103954 0
    outer loop
      vertex -50.65 52.65 16
      vertex -50.6937 53.0681 6
      vertex -50.6937 53.0681 16
    endloop
  endfacet
  facet normal 0.994582 0.103954 0
    outer loop
      vertex -50.6937 53.0681 6
      vertex -50.65 52.65 16
      vertex -50.65 52.65 6
    endloop
  endfacet
  facet normal 0 0 -1
    outer loop
      vertex -61.15 45.3 0
      vertex -44.15 57 0
      vertex -44.15 45.3 0
    endloop
  endfacet
  facet normal -0 0 -1
    outer loop
      vertex -44.15 57 0
      vertex -61.15 45.3 0
      vertex -60 60 0
    endloop
  endfacet
  facet normal -0 0 -1
    outer loop
      vertex -60 60 0
      vertex -61.15 45.3 0
      vertex -61.15 60 0
    endloop
  endfacet
  facet normal 0 0 -1
    outer loop
      vertex -44.15 57 0
      vertex 0 62 0
      vertex 0 57 0
    endloop
  endfacet
  facet normal 0 0 -1
    outer loop
      vertex -60 60 0
      vertex 0 62 0
      vertex -44.15 57 0
    endloop
  endfacet
  facet normal 0 0 -1
    outer loop
      vertex -105 62 0
      vertex -60 60 0
      vertex -61.15 60 0
    endloop
  endfacet
  facet normal 0 0 -1
    outer loop
      vertex -105 62 0
      vertex -61.15 60 0
      vertex -105 60 0
    endloop
  endfacet
  facet normal 0 0 -1
    outer loop
      vertex -60 60 0
      vertex -105 62 0
      vertex 0 62 0
    endloop
  endfacet
  facet normal 0 -0 0
    outer loop
      vertex -61.15 60 0
      vertex -60 60 0
      vertex -105 60 0
    endloop
  endfacet
  facet normal 0.867112 0.498113 0
    outer loop
      vertex -50.8229 53.468 16
      vertex -51.032 53.832 6
      vertex -51.032 53.832 16
    endloop
  endfacet
  facet normal 0.867112 0.498113 0
    outer loop
      vertex -51.032 53.832 6
      vertex -50.8229 53.468 16
      vertex -50.8229 53.468 6
    endloop
  endfacet
  facet normal -0.589831 0.807527 0
    outer loop
      vertex -53.65 54.3916 6
      vertex -53.9883 54.1445 16
      vertex -53.65 54.3916 16
    endloop
  endfacet
  facet normal -0.589831 0.807527 0
    outer loop
      vertex -53.9883 54.1445 16
      vertex -53.65 54.3916 6
      vertex -53.9883 54.1445 6
    endloop
  endfacet
  facet normal -0.867112 0.498113 0
    outer loop
      vertex -54.4771 53.468 6
      vertex -54.268 53.832 16
      vertex -54.268 53.832 6
    endloop
  endfacet
  facet normal -0.867112 0.498113 0
    outer loop
      vertex -54.268 53.832 16
      vertex -54.4771 53.468 6
      vertex -54.4771 53.468 16
    endloop
  endfacet
  facet normal -0.745129 0.66692 0
    outer loop
      vertex -54.268 53.832 6
      vertex -53.9883 54.1445 16
      vertex -53.9883 54.1445 6
    endloop
  endfacet
  facet normal -0.745129 0.66692 0
    outer loop
      vertex -53.9883 54.1445 16
      vertex -54.268 53.832 6
      vertex -54.268 53.832 16
    endloop
  endfacet
  facet normal -0.994582 0.103954 0
    outer loop
      vertex -54.65 52.65 6
      vertex -54.6063 53.0681 16
      vertex -54.6063 53.0681 6
    endloop
  endfacet
  facet normal -0.994582 0.103954 0
    outer loop
      vertex -54.6063 53.0681 16
      vertex -54.65 52.65 6
      vertex -54.65 52.65 16
    endloop
  endfacet
  facet normal 0.209023 0.977911 -0
    outer loop
      vertex -52.032 54.5626 6
      vertex -52.4409 54.65 16
      vertex -52.032 54.5626 16
    endloop
  endfacet
  facet normal 0.209023 0.977911 0
    outer loop
      vertex -52.4409 54.65 16
      vertex -52.032 54.5626 6
      vertex -52.4409 54.65 6
    endloop
  endfacet
  facet normal 0.589831 0.807527 -0
    outer loop
      vertex -51.3117 54.1445 6
      vertex -51.65 54.3916 16
      vertex -51.3117 54.1445 16
    endloop
  endfacet
  facet normal 0.589831 0.807527 0
    outer loop
      vertex -51.65 54.3916 16
      vertex -51.3117 54.1445 6
      vertex -51.65 54.3916 6
    endloop
  endfacet
  facet normal -0.209023 0.977911 0
    outer loop
      vertex -52.8591 54.65 6
      vertex -53.268 54.5626 16
      vertex -52.8591 54.65 16
    endloop
  endfacet
  facet normal -0.209023 0.977911 0
    outer loop
      vertex -53.268 54.5626 16
      vertex -52.8591 54.65 6
      vertex -53.268 54.5626 6
    endloop
  endfacet
  facet normal -0.951569 0.307434 0
    outer loop
      vertex -54.6063 53.0681 6
      vertex -54.4771 53.468 16
      vertex -54.4771 53.468 6
    endloop
  endfacet
  facet normal -0.951569 0.307434 0
    outer loop
      vertex -54.4771 53.468 16
      vertex -54.6063 53.0681 6
      vertex -54.6063 53.0681 16
    endloop
  endfacet
  facet normal 0.408576 0.912724 -0
    outer loop
      vertex -51.65 54.3916 6
      vertex -52.032 54.5626 16
      vertex -51.65 54.3916 16
    endloop
  endfacet
  facet normal 0.408576 0.912724 0
    outer loop
      vertex -52.032 54.5626 16
      vertex -51.65 54.3916 6
      vertex -52.032 54.5626 6
    endloop
  endfacet
  facet normal 0.745129 0.66692 0
    outer loop
      vertex -51.032 53.832 16
      vertex -51.3117 54.1445 6
      vertex -51.3117 54.1445 16
    endloop
  endfacet
  facet normal 0.745129 0.66692 0
    outer loop
      vertex -51.3117 54.1445 6
      vertex -51.032 53.832 16
      vertex -51.032 53.832 6
    endloop
  endfacet
  facet normal -0.408576 0.912724 0
    outer loop
      vertex -53.268 54.5626 6
      vertex -53.65 54.3916 16
      vertex -53.268 54.5626 16
    endloop
  endfacet
  facet normal -0.408576 0.912724 0
    outer loop
      vertex -53.65 54.3916 16
      vertex -53.268 54.5626 6
      vertex -53.65 54.3916 6
    endloop
  endfacet
  facet normal -1 0 0
    outer loop
      vertex -61.15 45.3 0
      vertex -61.15 60 6
      vertex -61.15 60 0
    endloop
  endfacet
  facet normal -1 -0 0
    outer loop
      vertex -61.15 60 6
      vertex -61.15 45.3 0
      vertex -61.15 45.3 6
    endloop
  endfacet
  facet normal 1 0 0
    outer loop
      vertex -44.15 60 6
      vertex -44.15 57 2
      vertex -44.15 60 2
    endloop
  endfacet
  facet normal 1 -0 0
    outer loop
      vertex -44.15 45.3 6
      vertex -44.15 57 2
      vertex -44.15 60 6
    endloop
  endfacet
  facet normal 1 0 0
    outer loop
      vertex -44.15 45.3 0
      vertex -44.15 57 2
      vertex -44.15 45.3 6
    endloop
  endfacet
  facet normal 1 0 0
    outer loop
      vertex -44.15 57 2
      vertex -44.15 45.3 0
      vertex -44.15 57 0
    endloop
  endfacet
  facet normal 0 1 0
    outer loop
      vertex -60 60 2
      vertex -60 60 6
      vertex -44.15 60 6
    endloop
  endfacet
  facet normal 0 1 0
    outer loop
      vertex -60 60 2
      vertex -44.15 60 6
      vertex -44.15 60 2
    endloop
  endfacet
  facet normal 0 1 0
    outer loop
      vertex -60 60 6
      vertex -60 60 2
      vertex -61.15 60 6
    endloop
  endfacet
  facet normal 0 1 0
    outer loop
      vertex -61.15 60 0
      vertex -60 60 2
      vertex -60 60 0
    endloop
  endfacet
  facet normal 0 1 0
    outer loop
      vertex -60 60 2
      vertex -61.15 60 0
      vertex -61.15 60 6
    endloop
  endfacet
  facet normal 0 -1 0
    outer loop
      vertex -61.15 45.3 0
      vertex -60 45.3 6
      vertex -61.15 45.3 6
    endloop
  endfacet
  facet normal 0 -1 0
    outer loop
      vertex -44.15 45.3 0
      vertex -60 45.3 6
      vertex -61.15 45.3 0
    endloop
  endfacet
  facet normal 0 -1 0
    outer loop
      vertex -60 45.3 6
      vertex -44.15 45.3 0
      vertex -44.15 45.3 6
    endloop
  endfacet
  facet normal -1 0 0
    outer loop
      vertex -61 -62 7
      vertex -61 60 18
      vertex -61 60 7
    endloop
  endfacet
  facet normal -1 -0 0
    outer loop
      vertex -61 60 18
      vertex -61 -62 7
      vertex -61 -62 18
    endloop
  endfacet
  facet normal 0 0 1
    outer loop
      vertex 0 62 18
      vertex -60 60 18
      vertex 0 60 18
    endloop
  endfacet
  facet normal -0 0 1
    outer loop
      vertex -61 60 18
      vertex -60 -60 18
      vertex -60 60 18
    endloop
  endfacet
  facet normal 0 0 1
    outer loop
      vertex -61 -62 18
      vertex -60 -60 18
      vertex -61 60 18
    endloop
  endfacet
  facet normal -0 0 1
    outer loop
      vertex -103 62 18
      vertex -60 60 18
      vertex 0 62 18
    endloop
  endfacet
  facet normal 0 0 1
    outer loop
      vertex -60 60 18
      vertex -103 62 18
      vertex -61 60 18
    endloop
  endfacet
  facet normal 0 0 1
    outer loop
      vertex -61 60 18
      vertex -103 62 18
      vertex -103 60 18
    endloop
  endfacet
  facet normal 0 0 1
    outer loop
      vertex -60 -60 18
      vertex -61 -62 18
      vertex -60 -62 18
    endloop
  endfacet
  facet normal -1 0 0
    outer loop
      vertex -60 -62 0
      vertex -60 -67 0
      vertex -60 -62 18
    endloop
  endfacet
  facet normal -1 0 0
    outer loop
      vertex -60 -62 18
      vertex -60 -60 32
      vertex -60 -60 18
    endloop
  endfacet
  facet normal -1 0 0
    outer loop
      vertex -60 -67 32
      vertex -60 -62 18
      vertex -60 -67 0
    endloop
  endfacet
  facet normal -1 0 0
    outer loop
      vertex -60 -62 18
      vertex -60 -67 32
      vertex -60 -60 32
    endloop
  endfacet
  facet normal 1 0 0
    outer loop
      vertex -60 60 18
      vertex -60 45.3 6
      vertex -60 60 6
    endloop
  endfacet
  facet normal 1 0 0
    outer loop
      vertex -60 60 18
      vertex -60 -45.3 6
      vertex -60 45.3 6
    endloop
  endfacet
  facet normal 1 -0 0
    outer loop
      vertex -60 -60 18
      vertex -60 -45.3 6
      vertex -60 60 18
    endloop
  endfacet
  facet normal 1 0 0
    outer loop
      vertex -60 -45.3 6
      vertex -60 -60 18
      vertex -60 -60 6
    endloop
  endfacet
  facet normal 0 1 -0
    outer loop
      vertex 0 62 0
      vertex -103 62 18
      vertex 0 62 18
    endloop
  endfacet
  facet normal 0 1 0
    outer loop
      vertex -105 62 0
      vertex -103 62 18
      vertex 0 62 0
    endloop
  endfacet
  facet normal 0 1 0
    outer loop
      vertex -103 62 18
      vertex -105 62 0
      vertex -105 62 18
    endloop
  endfacet
  facet normal 0 -1 0
    outer loop
      vertex -105 -62 30
      vertex -103 -62 7
      vertex -103 -62 30
    endloop
  endfacet
  facet normal 0 -1 0
    outer loop
      vertex -60 -62 0
      vertex -103 -62 7
      vertex -105 -62 0
    endloop
  endfacet
  facet normal 0 -1 0
    outer loop
      vertex -105 -62 0
      vertex -103 -62 7
      vertex -105 -62 30
    endloop
  endfacet
  facet normal 0 -1 0
    outer loop
      vertex -61 -62 7
      vertex -60 -62 18
      vertex -61 -62 18
    endloop
  endfacet
  facet normal 0 -1 0
    outer loop
      vertex -61 -62 7
      vertex -60 -62 0
      vertex -60 -62 18
    endloop
  endfacet
  facet normal 0 -1 0
    outer loop
      vertex -103 -62 7
      vertex -60 -62 0
      vertex -61 -62 7
    endloop
  endfacet
  facet normal -1 0 0
    outer loop
      vertex -105 -62 0
      vertex -105 -60 6
      vertex -105 -60 0
    endloop
  endfacet
  facet normal -1 0 0
    outer loop
      vertex -105 -62 30
      vertex -105 -60 6
      vertex -105 -62 0
    endloop
  endfacet
  facet normal -1 0 0
    outer loop
      vertex -105 -60 6
      vertex -105 -62 30
      vertex -105 -61.9 30
    endloop
  endfacet
  facet normal -1 0 0
    outer loop
      vertex -105 60 6
      vertex -105 62 0
      vertex -105 60 0
    endloop
  endfacet
  facet normal -1 0 0
    outer loop
      vertex -105 62 0
      vertex -105 60 6
      vertex -105 62 18
    endloop
  endfacet
  facet normal -1 0 0
    outer loop
      vertex -105 -60 6
      vertex -105 62 18
      vertex -105 60 6
    endloop
  endfacet
  facet normal -1 -0 0
    outer loop
      vertex -105 62 18
      vertex -105 -60 6
      vertex -105 -61.9 30
    endloop
  endfacet
  facet normal -0 0 1
    outer loop
      vertex -103 60 7
      vertex -61 -62 7
      vertex -61 60 7
    endloop
  endfacet
  facet normal 0 0 1
    outer loop
      vertex -61 -62 7
      vertex -103 60 7
      vertex -103 -62 7
    endloop
  endfacet
  facet normal -1 0 0
    outer loop
      vertex -102.8 -57.5 0
      vertex -102.8 -52.5 6
      vertex -102.8 -52.5 0
    endloop
  endfacet
  facet normal -1 -0 0
    outer loop
      vertex -102.8 -52.5 6
      vertex -102.8 -57.5 0
      vertex -102.8 -57.5 6
    endloop
  endfacet
  facet normal 1 -0 0
    outer loop
      vertex -97.8 -57.5 6
      vertex -97.8 -52.5 0
      vertex -97.8 -52.5 6
    endloop
  endfacet
  facet normal 1 0 0
    outer loop
      vertex -97.8 -52.5 0
      vertex -97.8 -57.5 6
      vertex -97.8 -57.5 0
    endloop
  endfacet
  facet normal 0 1 -0
    outer loop
      vertex -97.8 -52.5 0
      vertex -102.8 -52.5 6
      vertex -97.8 -52.5 6
    endloop
  endfacet
  facet normal 0 1 0
    outer loop
      vertex -102.8 -52.5 6
      vertex -97.8 -52.5 0
      vertex -102.8 -52.5 0
    endloop
  endfacet
  facet normal 0 0 -1
    outer loop
      vertex -102.8 -57.5 0
      vertex -97.8 -52.5 0
      vertex -97.8 -57.5 0
    endloop
  endfacet
  facet normal -0 0 -1
    outer loop
      vertex -97.8 -52.5 0
      vertex -102.8 -57.5 0
      vertex -102.8 -52.5 0
    endloop
  endfacet
  facet normal 0 -1 0
    outer loop
      vertex -102.8 -57.5 0
      vertex -97.8 -57.5 6
      vertex -102.8 -57.5 6
    endloop
  endfacet
  facet normal 0 -1 -0
    outer loop
      vertex -97.8 -57.5 6
      vertex -102.8 -57.5 0
      vertex -97.8 -57.5 0
    endloop
  endfacet
  facet normal 0 1 0
    outer loop
      vertex 0 -60 32
      vertex -60 -60 18
      vertex -60 -60 32
    endloop
  endfacet
  facet normal 0 1 -0
    outer loop
      vertex 0 -60 2
      vertex -60 -60 18
      vertex 0 -60 32
    endloop
  endfacet
  facet normal 0 1 0
    outer loop
      vertex -60 -60 18
      vertex 0 -60 2
      vertex -60 -60 6
    endloop
  endfacet
  facet normal 0 1 0
    outer loop
      vertex -60 -60 2
      vertex -60 -60 6
      vertex 0 -60 2
    endloop
  endfacet
  facet normal 0 1 0
    outer loop
      vertex -60 -60 6
      vertex -60 -60 2
      vertex -105 -60 6
    endloop
  endfacet
  facet normal 0 1 0
    outer loop
      vertex -105 -60 0
      vertex -60 -60 2
      vertex -60 -60 0
    endloop
  endfacet
  facet normal 0 1 0
    outer loop
      vertex -60 -60 2
      vertex -105 -60 0
      vertex -105 -60 6
    endloop
  endfacet
  facet normal 0 -1 0
    outer loop
      vertex -105 60 6
      vertex -60 60 2
      vertex -60 60 6
    endloop
  endfacet
  facet normal 0 -1 0
    outer loop
      vertex -105 60 0
      vertex -60 60 2
      vertex -105 60 6
    endloop
  endfacet
  facet normal 0 -1 -0
    outer loop
      vertex -60 60 2
      vertex -105 60 0
      vertex -60 60 0
    endloop
  endfacet
  facet normal 0 -1 0
    outer loop
      vertex -60 60 6
      vertex 0 60 18
      vertex -60 60 18
    endloop
  endfacet
  facet normal 0 -1 0
    outer loop
      vertex 0 60 2
      vertex -60 60 6
      vertex -60 60 2
    endloop
  endfacet
  facet normal 0 -1 0
    outer loop
      vertex -60 60 6
      vertex 0 60 2
      vertex 0 60 18
    endloop
  endfacet
  facet normal 0 -1 0
    outer loop
      vertex -103 60 7
      vertex -61 60 18
      vertex -103 60 18
    endloop
  endfacet
  facet normal 0 -1 -0
    outer loop
      vertex -61 60 18
      vertex -103 60 7
      vertex -61 60 7
    endloop
  endfacet
  facet normal -1 0 0
    outer loop
      vertex -102.8 52.5 0
      vertex -102.8 57.5 6
      vertex -102.8 57.5 0
    endloop
  endfacet
  facet normal -1 -0 0
    outer loop
      vertex -102.8 57.5 6
      vertex -102.8 52.5 0
      vertex -102.8 52.5 6
    endloop
  endfacet
  facet normal 1 -0 0
    outer loop
      vertex -97.8 52.5 6
      vertex -97.8 57.5 0
      vertex -97.8 57.5 6
    endloop
  endfacet
  facet normal 1 0 0
    outer loop
      vertex -97.8 57.5 0
      vertex -97.8 52.5 6
      vertex -97.8 52.5 0
    endloop
  endfacet
  facet normal 0 1 -0
    outer loop
      vertex -97.8 57.5 0
      vertex -102.8 57.5 6
      vertex -97.8 57.5 6
    endloop
  endfacet
  facet normal 0 1 0
    outer loop
      vertex -102.8 57.5 6
      vertex -97.8 57.5 0
      vertex -102.8 57.5 0
    endloop
  endfacet
  facet normal 0 0 -1
    outer loop
      vertex -102.8 52.5 0
      vertex -97.8 57.5 0
      vertex -97.8 52.5 0
    endloop
  endfacet
  facet normal -0 0 -1
    outer loop
      vertex -97.8 57.5 0
      vertex -102.8 52.5 0
      vertex -102.8 57.5 0
    endloop
  endfacet
  facet normal 0 -1 0
    outer loop
      vertex -102.8 52.5 0
      vertex -97.8 52.5 6
      vertex -102.8 52.5 6
    endloop
  endfacet
  facet normal 0 -1 -0
    outer loop
      vertex -97.8 52.5 6
      vertex -102.8 52.5 0
      vertex -97.8 52.5 0
    endloop
  endfacet
  facet normal 0 0 1
    outer loop
      vertex 0 -60 32
      vertex -10 -62 32
      vertex 0 -62 32
    endloop
  endfacet
  facet normal 0 0 1
    outer loop
      vertex -10 -62 32
      vertex -14 -62 32
      vertex -10 -67 32
    endloop
  endfacet
  facet normal 0 0 1
    outer loop
      vertex 0 -60 32
      vertex -14 -62 32
      vertex -10 -62 32
    endloop
  endfacet
  facet normal 0 0 1
    outer loop
      vertex 0 -60 32
      vertex -33 -62 32
      vertex -14 -62 32
    endloop
  endfacet
  facet normal 0 0 1
    outer loop
      vertex -33 -62 32
      vertex -37 -62 32
      vertex -33 -67 32
    endloop
  endfacet
  facet normal -0 0 1
    outer loop
      vertex -60 -60 32
      vertex -33 -62 32
      vertex 0 -60 32
    endloop
  endfacet
  facet normal 0 0 1
    outer loop
      vertex -33 -62 32
      vertex -60 -60 32
      vertex -37 -62 32
    endloop
  endfacet
  facet normal 0 0 1
    outer loop
      vertex -37 -62 32
      vertex -60 -60 32
      vertex -56 -62 32
    endloop
  endfacet
  facet normal 0 0 1
    outer loop
      vertex -60 -67 32
      vertex -56 -62 32
      vertex -60 -60 32
    endloop
  endfacet
  facet normal 0 0 1
    outer loop
      vertex -56 -62 32
      vertex -60 -67 32
      vertex -56 -67 32
    endloop
  endfacet
  facet normal 0 0 1
    outer loop
      vertex -10 -67 32
      vertex -14 -62 32
      vertex -14 -67 32
    endloop
  endfacet
  facet normal 0 0 1
    outer loop
      vertex -33 -67 32
      vertex -37 -62 32
      vertex -37 -67 32
    endloop
  endfacet
  facet normal -0 0 1
    outer loop
      vertex -44.15 -57 2
      vertex 0 -60 2
      vertex 0 -57 2
    endloop
  endfacet
  facet normal 0 0 1
    outer loop
      vertex 0 -60 2
      vertex -44.15 -57 2
      vertex -44.15 -60 2
    endloop
  endfacet
  facet normal 0 0 -0
    outer loop
      vertex -44.15 -60 2
      vertex -60 -60 2
      vertex 0 -60 2
    endloop
  endfacet
  facet normal 0 1 -0
    outer loop
      vertex 0 -57 0
      vertex -44.15 -57 2
      vertex 0 -57 2
    endloop
  endfacet
  facet normal 0 1 0
    outer loop
      vertex -44.15 -57 2
      vertex 0 -57 0
      vertex -44.15 -57 0
    endloop
  endfacet
  facet normal -0 0 1
    outer loop
      vertex -44.15 60 2
      vertex 0 57 2
      vertex 0 60 2
    endloop
  endfacet
  facet normal 0 0 1
    outer loop
      vertex 0 57 2
      vertex -44.15 60 2
      vertex -44.15 57 2
    endloop
  endfacet
  facet normal 0 0 0
    outer loop
      vertex 0 60 2
      vertex -60 60 2
      vertex -44.15 60 2
    endloop
  endfacet
  facet normal 0 -1 0
    outer loop
      vertex -44.15 57 0
      vertex 0 57 2
      vertex -44.15 57 2
    endloop
  endfacet
  facet normal 0 -1 -0
    outer loop
      vertex 0 57 2
      vertex -44.15 57 0
      vertex 0 57 0
    endloop
  endfacet
  facet normal 1 -0 0
    outer loop
      vertex -56 -67 32
      vertex -56 -62 0
      vertex -56 -62 32
    endloop
  endfacet
  facet normal 1 0 0
    outer loop
      vertex -56 -62 0
      vertex -56 -67 32
      vertex -56 -67 0
    endloop
  endfacet
  facet normal 0 -1 0
    outer loop
      vertex -60 -67 0
      vertex -56 -67 32
      vertex -60 -67 32
    endloop
  endfacet
  facet normal 0 -1 -0
    outer loop
      vertex -56 -67 32
      vertex -60 -67 0
      vertex -56 -67 0
    endloop
  endfacet
  facet normal 0 -1 0
    outer loop
      vertex -10 -62 0
      vertex 0 -62 32
      vertex -10 -62 32
    endloop
  endfacet
  facet normal 0 -1 -0
    outer loop
      vertex 0 -62 32
      vertex -10 -62 0
      vertex 0 -62 0
    endloop
  endfacet
  facet normal 0 -1 0
    outer loop
      vertex -33 -62 0
      vertex -14 -62 32
      vertex -33 -62 32
    endloop
  endfacet
  facet normal 0 -1 -0
    outer loop
      vertex -14 -62 32
      vertex -33 -62 0
      vertex -14 -62 0
    endloop
  endfacet
  facet normal 0 -1 0
    outer loop
      vertex -56 -62 0
      vertex -37 -62 32
      vertex -56 -62 32
    endloop
  endfacet
  facet normal 0 -1 -0
    outer loop
      vertex -37 -62 32
      vertex -56 -62 0
      vertex -37 -62 0
    endloop
  endfacet
  facet normal -1 0 0
    outer loop
      vertex -37 -67 0
      vertex -37 -62 32
      vertex -37 -62 0
    endloop
  endfacet
  facet normal -1 -0 0
    outer loop
      vertex -37 -62 32
      vertex -37 -67 0
      vertex -37 -67 32
    endloop
  endfacet
  facet normal 1 -0 0
    outer loop
      vertex -33 -67 32
      vertex -33 -62 0
      vertex -33 -62 32
    endloop
  endfacet
  facet normal 1 0 0
    outer loop
      vertex -33 -62 0
      vertex -33 -67 32
      vertex -33 -67 0
    endloop
  endfacet
  facet normal 0 -1 0
    outer loop
      vertex -37 -67 0
      vertex -33 -67 32
      vertex -37 -67 32
    endloop
  endfacet
  facet normal 0 -1 -0
    outer loop
      vertex -33 -67 32
      vertex -37 -67 0
      vertex -33 -67 0
    endloop
  endfacet
  facet normal -1 0 0
    outer loop
      vertex -14 -67 0
      vertex -14 -62 32
      vertex -14 -62 0
    endloop
  endfacet
  facet normal -1 -0 0
    outer loop
      vertex -14 -62 32
      vertex -14 -67 0
      vertex -14 -67 32
    endloop
  endfacet
  facet normal 1 -0 0
    outer loop
      vertex -10 -67 32
      vertex -10 -62 0
      vertex -10 -62 32
    endloop
  endfacet
  facet normal 1 0 0
    outer loop
      vertex -10 -62 0
      vertex -10 -67 32
      vertex -10 -67 0
    endloop
  endfacet
  facet normal 0 -1 0
    outer loop
      vertex -14 -67 0
      vertex -10 -67 32
      vertex -14 -67 32
    endloop
  endfacet
  facet normal 0 -1 -0
    outer loop
      vertex -10 -67 32
      vertex -14 -67 0
      vertex -10 -67 0
    endloop
  endfacet
  facet normal 1 0 0
    outer loop
      vertex -103 -61.9 30
      vertex -103 60 18
      vertex -103 62 18
    endloop
  endfacet
  facet normal 1 0 0
    outer loop
      vertex -103 -62 7
      vertex -103 60 18
      vertex -103 -61.9 30
    endloop
  endfacet
  facet normal 1 0 0
    outer loop
      vertex -103 -62 7
      vertex -103 -61.9 30
      vertex -103 -62 30
    endloop
  endfacet
  facet normal 1 0 0
    outer loop
      vertex -103 60 18
      vertex -103 -62 7
      vertex -103 60 7
    endloop
  endfacet
  facet normal -0 0 1
    outer loop
      vertex -105 -61.9 30
      vertex -103 -62 30
      vertex -103 -61.9 30
    endloop
  endfacet
  facet normal 0 0 1
    outer loop
      vertex -103 -62 30
      vertex -105 -61.9 30
      vertex -105 -62 30
    endloop
  endfacet
  facet normal -0 0.0964012 0.995343
    outer loop
      vertex -105 62 18
      vertex -103 -61.9 30
      vertex -103 62 18
    endloop
  endfacet
  facet normal 0 0.0964012 0.995343
    outer loop
      vertex -103 -61.9 30
      vertex -105 62 18
      vertex -105 -61.9 30
    endloop
  endfacet
  facet normal 1 0 0
    outer loop
      vertex 0 60 2
      vertex 0 62 18
      vertex 0 60 18
    endloop
  endfacet
  facet normal 1 0 0
    outer loop
      vertex 0 62 18
      vertex 0 60 2
      vertex 0 62 0
    endloop
  endfacet
  facet normal 1 0 0
    outer loop
      vertex 0 57 0
      vertex 0 60 2
      vertex 0 57 2
    endloop
  endfacet
  facet normal 1 0 0
    outer loop
      vertex 0 60 2
      vertex 0 57 0
      vertex 0 62 0
    endloop
  endfacet
  facet normal 1 0 0
    outer loop
      vertex 0 -60 32
      vertex 0 -62 32
      vertex 0 -60 2
    endloop
  endfacet
  facet normal 1 -0 0
    outer loop
      vertex 0 -60 2
      vertex 0 -57 0
      vertex 0 -57 2
    endloop
  endfacet
  facet normal 1 0 0
    outer loop
      vertex 0 -60 2
      vertex 0 -62 0
      vertex 0 -57 0
    endloop
  endfacet
  facet normal 1 0 0
    outer loop
      vertex 0 -62 0
      vertex 0 -60 2
      vertex 0 -62 32
    endloop
  endfacet
endsolid OpenSCAD_Model
