solid csg.js
facet normal -1 0 0
outer loop
vertex 0 5.4 4.7
vertex 0 5.424307595180467 4.7
vertex 0 5.496491806742548 4.7
endloop
endfacet
facet normal -1 0 0
outer loop
vertex 0 5.4 4.7
vertex 0 5.496491806742548 4.7
vertex 0 5.614359353944895 4.7
endloop
endfacet
facet normal -1 0 0
outer loop
vertex 0 5.4 4.7
vertex 0 5.614359353944895 4.7
vertex 0 5.774328891009632 4.7
endloop
endfacet
facet normal -1 0 0
outer loop
vertex 0 5.4 4.7
vertex 0 5.774328891009632 4.7
vertex 0 5.97153982450154 4.7
endloop
endfacet
facet normal -1 0 0
outer loop
vertex 0 5.4 4.7
vertex 0 5.97153982450154 4.7
vertex 0 6.2000000000000055 4.7
endloop
endfacet
facet normal -1 0 0
outer loop
vertex 0 5.4 4.7
vertex 0 6.2000000000000055 4.7
vertex 0 6.4527677706789195 4.7
endloop
endfacet
facet normal -1 0 0
outer loop
vertex 0 5.4 4.7
vertex 0 6.4527677706789195 4.7
vertex 0 6.722162915732925 4.7
endloop
endfacet
facet normal -1 0 0
outer loop
vertex 0 5.4 4.7
vertex 0 6.722162915732925 4.7
vertex 0 7 4.7
endloop
endfacet
facet normal -1 0 0
outer loop
vertex 0 5.4 4.7
vertex 0 7 4.7
vertex 0 7 4
endloop
endfacet
facet normal -1 0 0
outer loop
vertex 0 5.4 4.7
vertex 0 7 4
vertex 0 4 4
endloop
endfacet
facet normal -1 0 0
outer loop
vertex 0 5.4 4.7
vertex 0 4 4
vertex 0 4 4.7
endloop
endfacet
facet normal -1 0 0
outer loop
vertex 0 4 4
vertex 0 7 4
vertex 0 7 2
endloop
endfacet
facet normal -1 0 0
outer loop
vertex 0 4 4
vertex 0 7 2
vertex 0 0 2
endloop
endfacet
facet normal -1 0 0
outer loop
vertex 0 4 4
vertex 0 0 2
vertex 0 0 4
endloop
endfacet
facet normal -1 0 0
outer loop
vertex 0 7 2
vertex 0 11 2
vertex 0 11 0
endloop
endfacet
facet normal -1 0 0
outer loop
vertex 0 7 2
vertex 0 11 0
vertex 0 8.6 0
endloop
endfacet
facet normal -1 0 0
outer loop
vertex 0 7 2
vertex 0 8.6 0
vertex 0 8.575692404819533 0
endloop
endfacet
facet normal -1 0 0
outer loop
vertex 0 7 2
vertex 0 8.575692404819533 0
vertex 0 8.503508193257453 0
endloop
endfacet
facet normal -1 0 0
outer loop
vertex 0 7 2
vertex 0 8.503508193257453 0
vertex 0 8.385640646055103 0
endloop
endfacet
facet normal -1 0 0
outer loop
vertex 0 7 2
vertex 0 8.385640646055103 0
vertex 0 8.225671108990362 0
endloop
endfacet
facet normal -1 0 0
outer loop
vertex 0 7 2
vertex 0 8.225671108990362 0
vertex 0 8.028460175498463 0
endloop
endfacet
facet normal -1 0 0
outer loop
vertex 0 7 2
vertex 0 8.028460175498463 0
vertex 0 7.800000000000002 0
endloop
endfacet
facet normal -1 0 0
outer loop
vertex 0 7 2
vertex 0 7.800000000000002 0
vertex 0 7.547232229321066 0
endloop
endfacet
facet normal -1 0 0
outer loop
vertex 0 7 2
vertex 0 7.547232229321066 0
vertex 0 7.27783708426709 0
endloop
endfacet
facet normal -1 0 0
outer loop
vertex 0 7 2
vertex 0 7.27783708426709 0
vertex 0 7 0
endloop
endfacet
facet normal -1 0 0
outer loop
vertex 0 7 2
vertex 0 7 0
vertex 0 6.722162915732917 0
endloop
endfacet
facet normal -1 0 0
outer loop
vertex 0 7 2
vertex 0 6.722162915732917 0
vertex 0 6.452767770678928 0
endloop
endfacet
facet normal -1 0 0
outer loop
vertex 0 7 2
vertex 0 6.452767770678928 0
vertex 0 6.199999999999995 0
endloop
endfacet
facet normal -1 0 0
outer loop
vertex 0 7 2
vertex 0 6.199999999999995 0
vertex 0 5.97153982450154 0
endloop
endfacet
facet normal -1 0 0
outer loop
vertex 0 7 2
vertex 0 5.97153982450154 0
vertex 0 5.774328891009634 0
endloop
endfacet
facet normal -1 0 0
outer loop
vertex 0 7 2
vertex 0 5.774328891009634 0
vertex 0 5.614359353944899 0
endloop
endfacet
facet normal -1 0 0
outer loop
vertex 0 7 2
vertex 0 5.614359353944899 0
vertex 0 5.496491806742544 0
endloop
endfacet
facet normal -1 0 0
outer loop
vertex 0 7 2
vertex 0 5.496491806742544 0
vertex 0 5.424307595180467 0
endloop
endfacet
facet normal -1 0 0
outer loop
vertex 0 7 2
vertex 0 5.424307595180467 0
vertex 0 5.4 0
endloop
endfacet
facet normal -1 0 0
outer loop
vertex 0 7 2
vertex 0 5.4 0
vertex 0 0 0
endloop
endfacet
facet normal -1 0 0
outer loop
vertex 0 7 2
vertex 0 0 0
vertex 0 0 2
endloop
endfacet
facet normal 0 -1 0
outer loop
vertex 15 0 0
vertex 15 0 4
vertex 0 0 4
endloop
endfacet
facet normal 0 -1 0
outer loop
vertex 15 0 0
vertex 0 0 4
vertex 0 0 2
endloop
endfacet
facet normal 0 -1 0
outer loop
vertex 15 0 0
vertex 0 0 2
vertex 0 0 0
endloop
endfacet
facet normal 1 0 -1.776356839400248e-15
outer loop
vertex 15 5.4 0
vertex 15 5.424307595180467 0
vertex 15 5.496491806742544 0
endloop
endfacet
facet normal 1 0 -1.776356839400248e-15
outer loop
vertex 15 5.4 0
vertex 15 5.496491806742544 0
vertex 15 5.614359353944899 0
endloop
endfacet
facet normal 1 0 -1.776356839400248e-15
outer loop
vertex 15 5.4 0
vertex 15 5.614359353944899 0
vertex 15 5.774328891009634 0
endloop
endfacet
facet normal 1 0 -1.776356839400248e-15
outer loop
vertex 15 5.4 0
vertex 15 5.774328891009634 0
vertex 15 5.97153982450154 0
endloop
endfacet
facet normal 1 0 -1.776356839400248e-15
outer loop
vertex 15 5.4 0
vertex 15 5.97153982450154 0
vertex 15 6.199999999999995 0
endloop
endfacet
facet normal 1 0 -1.776356839400248e-15
outer loop
vertex 15 5.4 0
vertex 15 6.199999999999995 0
vertex 15 6.452767770678928 0
endloop
endfacet
facet normal 1 0 -1.776356839400248e-15
outer loop
vertex 15 5.4 0
vertex 15 6.452767770678928 0
vertex 15 6.722162915732917 0
endloop
endfacet
facet normal 1 0 -1.776356839400248e-15
outer loop
vertex 15 5.4 0
vertex 15 6.722162915732917 0
vertex 15 7 0
endloop
endfacet
facet normal 1 0 -1.776356839400248e-15
outer loop
vertex 15 5.4 0
vertex 15 7 0
vertex 15 7.27783708426709 0
endloop
endfacet
facet normal 1 0 -1.776356839400248e-15
outer loop
vertex 15 5.4 0
vertex 15 7.27783708426709 0
vertex 15 7.547232229321066 0
endloop
endfacet
facet normal 1 0 -1.776356839400248e-15
outer loop
vertex 15 5.4 0
vertex 15 7.547232229321066 0
vertex 15 7.800000000000002 0
endloop
endfacet
facet normal 1 0 -1.776356839400248e-15
outer loop
vertex 15 5.4 0
vertex 15 7.800000000000002 0
vertex 15 8.028460175498463 0
endloop
endfacet
facet normal 1 0 -1.776356839400248e-15
outer loop
vertex 15 5.4 0
vertex 15 8.028460175498463 0
vertex 15 8.225671108990362 0
endloop
endfacet
facet normal 1 0 -1.776356839400248e-15
outer loop
vertex 15 5.4 0
vertex 15 8.225671108990362 0
vertex 15 8.385640646055103 0
endloop
endfacet
facet normal 1 0 -1.776356839400248e-15
outer loop
vertex 15 5.4 0
vertex 15 8.385640646055103 0
vertex 15 8.503508193257453 0
endloop
endfacet
facet normal 1 0 -1.776356839400248e-15
outer loop
vertex 15 5.4 0
vertex 15 8.503508193257453 0
vertex 15 8.575692404819533 0
endloop
endfacet
facet normal 1 0 -1.776356839400248e-15
outer loop
vertex 15 5.4 0
vertex 15 8.575692404819533 0
vertex 15 8.6 0
endloop
endfacet
facet normal 1 0 -1.776356839400248e-15
outer loop
vertex 15 5.4 0
vertex 15 8.6 0
vertex 15 12.999999999999998 0
endloop
endfacet
facet normal 1 0 -1.776356839400248e-15
outer loop
vertex 15 5.4 0
vertex 15 12.999999999999998 0
vertex 15.000000000000004 13.000000000000004 2.0000000000000027
endloop
endfacet
facet normal 1 0 -1.776356839400248e-15
outer loop
vertex 15 5.4 0
vertex 15.000000000000004 13.000000000000004 2.0000000000000027
vertex 15 13 4
endloop
endfacet
facet normal 1 0 -1.776356839400248e-15
outer loop
vertex 15 5.4 0
vertex 15 13 4
vertex 15 10 4
endloop
endfacet
facet normal 1 0 -1.776356839400248e-15
outer loop
vertex 15 5.4 0
vertex 15 10 4
vertex 15 4 4
endloop
endfacet
facet normal 1 0 -1.776356839400248e-15
outer loop
vertex 15 5.4 0
vertex 15 4 4
vertex 15 0 4
endloop
endfacet
facet normal 1 0 -1.776356839400248e-15
outer loop
vertex 15 5.4 0
vertex 15 0 4
vertex 15 0 0
endloop
endfacet
facet normal 1 0 0
outer loop
vertex 15 10 4
vertex 15 10 4.7
vertex 15 8.6 4.7
endloop
endfacet
facet normal 1 0 0
outer loop
vertex 15 10 4
vertex 15 8.6 4.7
vertex 15 8.57569240481953 4.7
endloop
endfacet
facet normal 1 0 0
outer loop
vertex 15 10 4
vertex 15 8.57569240481953 4.7
vertex 15 8.503508193257453 4.7
endloop
endfacet
facet normal 1 0 0
outer loop
vertex 15 10 4
vertex 15 8.503508193257453 4.7
vertex 15 8.385640646055103 4.7
endloop
endfacet
facet normal 1 0 0
outer loop
vertex 15 10 4
vertex 15 8.385640646055103 4.7
vertex 15 8.225671108990358 4.7
endloop
endfacet
facet normal 1 0 0
outer loop
vertex 15 10 4
vertex 15 8.225671108990358 4.7
vertex 15 8.028460175498463 4.7
endloop
endfacet
facet normal 1 0 0
outer loop
vertex 15 10 4
vertex 15 8.028460175498463 4.7
vertex 15 7.800000000000001 4.7
endloop
endfacet
facet normal 1 0 0
outer loop
vertex 15 10 4
vertex 15 7.800000000000001 4.7
vertex 15 7.547232229321067 4.7
endloop
endfacet
facet normal 1 0 0
outer loop
vertex 15 10 4
vertex 15 7.547232229321067 4.7
vertex 15 7.27783708426709 4.7
endloop
endfacet
facet normal 1 0 0
outer loop
vertex 15 10 4
vertex 15 7.27783708426709 4.7
vertex 15 7 4.7
endloop
endfacet
facet normal 1 0 0
outer loop
vertex 15 10 4
vertex 15 7 4.7
vertex 15 6.722162915732925 4.7
endloop
endfacet
facet normal 1 0 0
outer loop
vertex 15 10 4
vertex 15 6.722162915732925 4.7
vertex 15 6.4527677706789195 4.7
endloop
endfacet
facet normal 1 0 0
outer loop
vertex 15 10 4
vertex 15 6.4527677706789195 4.7
vertex 15 6.2000000000000055 4.7
endloop
endfacet
facet normal 1 0 0
outer loop
vertex 15 10 4
vertex 15 6.2000000000000055 4.7
vertex 15 5.97153982450154 4.7
endloop
endfacet
facet normal 1 0 0
outer loop
vertex 15 10 4
vertex 15 5.97153982450154 4.7
vertex 15 5.774328891009632 4.7
endloop
endfacet
facet normal 1 0 0
outer loop
vertex 15 10 4
vertex 15 5.774328891009632 4.7
vertex 15 5.614359353944895 4.7
endloop
endfacet
facet normal 1 0 0
outer loop
vertex 15 10 4
vertex 15 5.614359353944895 4.7
vertex 15 5.496491806742548 4.7
endloop
endfacet
facet normal 1 0 0
outer loop
vertex 15 10 4
vertex 15 5.496491806742548 4.7
vertex 15 5.424307595180467 4.7
endloop
endfacet
facet normal 1 0 0
outer loop
vertex 15 10 4
vertex 15 5.424307595180467 4.7
vertex 15 5.4 4.7
endloop
endfacet
facet normal 1 0 0
outer loop
vertex 15 10 4
vertex 15 5.4 4.7
vertex 15 4 4.7
endloop
endfacet
facet normal 1 0 0
outer loop
vertex 15 10 4
vertex 15 4 4.7
vertex 15 4 4
endloop
endfacet
facet normal -0.3713906763541041 0.9284766908852591 0
outer loop
vertex 0 7 4
vertex 0 7 4.7
vertex 0.6945927106677243 7.27783708426709 4.7
endloop
endfacet
facet normal -0.3713906763541041 0.9284766908852591 0
outer loop
vertex 0 7 4
vertex 0.6945927106677243 7.27783708426709 4.7
vertex 1.3680805733026662 7.547232229321067 4.7
endloop
endfacet
facet normal -0.3713906763541041 0.9284766908852591 0
outer loop
vertex 0 7 4
vertex 1.3680805733026662 7.547232229321067 4.7
vertex 1.9999999999999991 7.800000000000001 4.7
endloop
endfacet
facet normal -0.3713906763541041 0.9284766908852591 0
outer loop
vertex 0 7 4
vertex 1.9999999999999991 7.800000000000001 4.7
vertex 2.5711504387461535 8.028460175498463 4.7
endloop
endfacet
facet normal -0.3713906763541041 0.9284766908852591 0
outer loop
vertex 0 7 4
vertex 2.5711504387461535 8.028460175498463 4.7
vertex 3.064177772475891 8.225671108990358 4.7
endloop
endfacet
facet normal -0.3713906763541041 0.9284766908852591 0
outer loop
vertex 0 7 4
vertex 3.064177772475891 8.225671108990358 4.7
vertex 3.4641016151377535 8.385640646055103 4.7
endloop
endfacet
facet normal -0.3713906763541041 0.9284766908852591 0
outer loop
vertex 0 7 4
vertex 3.4641016151377535 8.385640646055103 4.7
vertex 3.758770483143627 8.503508193257453 4.7
endloop
endfacet
facet normal -0.3713906763541041 0.9284766908852591 0
outer loop
vertex 0 7 4
vertex 3.758770483143627 8.503508193257453 4.7
vertex 3.9392310120488223 8.57569240481953 4.7
endloop
endfacet
facet normal -0.3713906763541041 0.9284766908852591 0
outer loop
vertex 0 7 4
vertex 3.9392310120488223 8.57569240481953 4.7
vertex 3.9999999999999942 8.6 4.7
endloop
endfacet
facet normal -0.3713906763541041 0.9284766908852591 0
outer loop
vertex 0 7 4
vertex 3.9999999999999942 8.6 4.7
vertex 7.500000000000003 10.000000000000004 4.700000000000004
endloop
endfacet
facet normal -0.3713906763541041 0.9284766908852591 0
outer loop
vertex 0 7 4
vertex 7.500000000000003 10.000000000000004 4.700000000000004
vertex 7.500000000000003 10.000000000000004 4.0000000000000036
endloop
endfacet
facet normal -0.3713906763541041 0.9284766908852591 0
outer loop
vertex 0 7 4
vertex 7.500000000000003 10.000000000000004 4.0000000000000036
vertex 7.500000000000003 10.000000000000004 2.000000000000002
endloop
endfacet
facet normal -0.3713906763541041 0.9284766908852591 0
outer loop
vertex 0 7 4
vertex 7.500000000000003 10.000000000000004 2.000000000000002
vertex 0 7 2
endloop
endfacet
facet normal -0.3713906763541038 0.9284766908852594 0
outer loop
vertex 7.500000000000003 10.000000000000004 4.0000000000000036
vertex 15 13 4
vertex 15.000000000000004 13.000000000000004 2.0000000000000027
endloop
endfacet
facet normal -0.3713906763541038 0.9284766908852594 0
outer loop
vertex 7.500000000000003 10.000000000000004 4.0000000000000036
vertex 15.000000000000004 13.000000000000004 2.0000000000000027
vertex 7.500000000000003 10.000000000000004 2.000000000000002
endloop
endfacet
facet normal -2.9605947323337496e-16 0 1
outer loop
vertex 0 11 2
vertex 0 7 2
vertex 7.500000000000003 10.000000000000004 2.000000000000002
endloop
endfacet
facet normal -2.9605947323337496e-16 0 1
outer loop
vertex 0 11 2
vertex 7.500000000000003 10.000000000000004 2.000000000000002
vertex 15.000000000000004 13.000000000000004 2.0000000000000027
endloop
endfacet
facet normal -2.9605947323337496e-16 0 1
outer loop
vertex 0 11 2
vertex 15.000000000000004 13.000000000000004 2.0000000000000027
vertex 12.000000000000002 16 2
endloop
endfacet
facet normal 0.7071067811865476 0.7071067811865476 0
outer loop
vertex 12.000000000000002 16 2
vertex 15.000000000000004 13.000000000000004 2.0000000000000027
vertex 15 12.999999999999998 0
endloop
endfacet
facet normal 0.7071067811865476 0.7071067811865476 0
outer loop
vertex 12.000000000000002 16 2
vertex 15 12.999999999999998 0
vertex 12 16 0
endloop
endfacet
facet normal -0.38461538461538464 0.9230769230769231 0
outer loop
vertex 0 11 2
vertex 12.000000000000002 16 2
vertex 12 16 0
endloop
endfacet
facet normal -0.38461538461538464 0.9230769230769231 0
outer loop
vertex 0 11 2
vertex 12 16 0
vertex 0 11 0
endloop
endfacet
facet normal 0 0 1
outer loop
vertex 15 0 4
vertex 15 4 4
vertex 0 4 4
endloop
endfacet
facet normal 0 0 1
outer loop
vertex 15 0 4
vertex 0 4 4
vertex 0 0 4
endloop
endfacet
facet normal 0 0 1
outer loop
vertex 15 10 4
vertex 15 13 4
vertex 7.500000000000003 10.000000000000004 4.0000000000000036
endloop
endfacet
facet normal 0 -1 0
outer loop
vertex 15 4 4
vertex 15 4 4.7
vertex 0 4 4.7
endloop
endfacet
facet normal 0 -1 0
outer loop
vertex 15 4 4
vertex 0 4 4.7
vertex 0 4 4
endloop
endfacet
facet normal 0 1 0
outer loop
vertex 15 10 4.7
vertex 15 10 4
vertex 7.500000000000003 10.000000000000004 4.0000000000000036
endloop
endfacet
facet normal 0 1 0
outer loop
vertex 15 10 4.7
vertex 7.500000000000003 10.000000000000004 4.0000000000000036
vertex 7.500000000000003 10.000000000000004 4.700000000000004
endloop
endfacet
facet normal -0.9961946980917455 0.08715574274765808 0
outer loop
vertex 11.575692404819533 6.722162915732913 4.7
vertex 11.6 7.000000000000001 4.7
vertex 11.6 7.000000000000001 0
endloop
endfacet
facet normal -0.9961946980917455 0.08715574274765808 0
outer loop
vertex 11.575692404819533 6.722162915732913 4.7
vertex 11.6 7.000000000000001 0
vertex 11.575692404819533 6.722162915732913 0
endloop
endfacet
facet normal -0.9659258262890686 0.25881904510251985 0
outer loop
vertex 11.503508193257456 6.452767770678931 4.700000000000002
vertex 11.575692404819533 6.722162915732913 4.7
vertex 11.575692404819533 6.722162915732913 0
endloop
endfacet
facet normal -0.9659258262890686 0.25881904510251985 0
outer loop
vertex 11.503508193257456 6.452767770678931 4.700000000000002
vertex 11.575692404819533 6.722162915732913 0
vertex 11.503508193257456 6.452767770678931 0
endloop
endfacet
facet normal -0.9063077870366504 0.42261826174069855 0
outer loop
vertex 11.385640646055101 6.199999999999999 4.7
vertex 11.503508193257456 6.452767770678931 4.700000000000002
vertex 11.503508193257456 6.452767770678931 0
endloop
endfacet
facet normal -0.9063077870366504 0.42261826174069855 0
outer loop
vertex 11.385640646055101 6.199999999999999 4.7
vertex 11.503508193257456 6.452767770678931 0
vertex 11.385640646055101 6.199999999999999 0
endloop
endfacet
facet normal -0.8191520442889911 0.573576436351047 0
outer loop
vertex 11.225671108990365 5.971539824501537 4.7
vertex 11.385640646055101 6.199999999999999 4.7
vertex 11.385640646055101 6.199999999999999 0
endloop
endfacet
facet normal -0.8191520442889911 0.573576436351047 0
outer loop
vertex 11.225671108990365 5.971539824501537 4.7
vertex 11.385640646055101 6.199999999999999 0
vertex 11.225671108990365 5.971539824501537 0
endloop
endfacet
facet normal -0.7071067811865485 0.7071067811865467 0
outer loop
vertex 11.028460175498463 5.774328891009635 4.700000000000002
vertex 11.225671108990365 5.971539824501537 4.7
vertex 11.225671108990365 5.971539824501537 0
endloop
endfacet
facet normal -0.7071067811865485 0.7071067811865467 0
outer loop
vertex 11.028460175498463 5.774328891009635 4.700000000000002
vertex 11.225671108990365 5.971539824501537 0
vertex 11.028460175498463 5.774328891009635 0
endloop
endfacet
facet normal -0.5735764363510464 0.8191520442889916 0
outer loop
vertex 10.8 5.614359353944899 4.7
vertex 11.028460175498463 5.774328891009635 4.700000000000002
vertex 11.028460175498463 5.774328891009635 0
endloop
endfacet
facet normal -0.5735764363510464 0.8191520442889916 0
outer loop
vertex 10.8 5.614359353944899 4.7
vertex 11.028460175498463 5.774328891009635 0
vertex 10.8 5.614359353944899 0
endloop
endfacet
facet normal -0.4226182617406996 0.9063077870366499 0
outer loop
vertex 10.547232229321072 5.496491806742547 4.7
vertex 10.8 5.614359353944899 4.7
vertex 10.8 5.614359353944899 0
endloop
endfacet
facet normal -0.4226182617406996 0.9063077870366499 0
outer loop
vertex 10.547232229321072 5.496491806742547 4.7
vertex 10.8 5.614359353944899 0
vertex 10.547232229321072 5.496491806742547 0
endloop
endfacet
facet normal -0.25881904510252046 0.9659258262890684 0
outer loop
vertex 10.277837084267091 5.424307595180467 4.700000000000002
vertex 10.547232229321072 5.496491806742547 4.7
vertex 10.547232229321072 5.496491806742547 0
endloop
endfacet
facet normal -0.25881904510252046 0.9659258262890684 0
outer loop
vertex 10.277837084267091 5.424307595180467 4.700000000000002
vertex 10.547232229321072 5.496491806742547 0
vertex 10.277837084267091 5.424307595180467 0
endloop
endfacet
facet normal -0.08715574274765904 0.9961946980917454 0
outer loop
vertex 10 5.3999999999999995 4.7
vertex 10.277837084267091 5.424307595180467 4.700000000000002
vertex 10.277837084267091 5.424307595180467 0
endloop
endfacet
facet normal -0.08715574274765904 0.9961946980917454 0
outer loop
vertex 10 5.3999999999999995 4.7
vertex 10.277837084267091 5.424307595180467 0
vertex 10 5.3999999999999995 0
endloop
endfacet
facet normal 0.08715574274765815 0.9961946980917455 0
outer loop
vertex 9.722162915732913 5.424307595180467 4.7
vertex 10 5.3999999999999995 4.7
vertex 10 5.3999999999999995 0
endloop
endfacet
facet normal 0.08715574274765815 0.9961946980917455 0
outer loop
vertex 9.722162915732913 5.424307595180467 4.7
vertex 10 5.3999999999999995 0
vertex 9.722162915732913 5.424307595180467 0
endloop
endfacet
facet normal 0.2588190451025201 0.9659258262890685 0
outer loop
vertex 9.45276777067893 5.496491806742549 4.700000000000002
vertex 9.722162915732913 5.424307595180467 4.7
vertex 9.722162915732913 5.424307595180467 0
endloop
endfacet
facet normal 0.2588190451025201 0.9659258262890685 0
outer loop
vertex 9.45276777067893 5.496491806742549 4.700000000000002
vertex 9.722162915732913 5.424307595180467 0
vertex 9.45276777067893 5.496491806742549 0
endloop
endfacet
facet normal 0.42261826174070033 0.9063077870366496 0
outer loop
vertex 9.200000000000003 5.614359353944898 4.7
vertex 9.45276777067893 5.496491806742549 4.700000000000002
vertex 9.45276777067893 5.496491806742549 0
endloop
endfacet
facet normal 0.42261826174070033 0.9063077870366496 0
outer loop
vertex 9.200000000000003 5.614359353944898 4.7
vertex 9.45276777067893 5.496491806742549 0
vertex 9.200000000000003 5.614359353944898 0
endloop
endfacet
facet normal 0.5735764363510458 0.819152044288992 0
outer loop
vertex 8.971539824501537 5.7743288910096355 4.7
vertex 9.200000000000003 5.614359353944898 4.7
vertex 9.200000000000003 5.614359353944898 0
endloop
endfacet
facet normal 0.5735764363510458 0.819152044288992 0
outer loop
vertex 8.971539824501537 5.7743288910096355 4.7
vertex 9.200000000000003 5.614359353944898 0
vertex 8.971539824501537 5.7743288910096355 0
endloop
endfacet
facet normal 0.7071067811865485 0.7071067811865467 0
outer loop
vertex 8.774328891009638 5.971539824501539 4.700000000000002
vertex 8.971539824501537 5.7743288910096355 4.7
vertex 8.971539824501537 5.7743288910096355 0
endloop
endfacet
facet normal 0.7071067811865485 0.7071067811865467 0
outer loop
vertex 8.774328891009638 5.971539824501539 4.700000000000002
vertex 8.971539824501537 5.7743288910096355 0
vertex 8.774328891009638 5.971539824501539 0
endloop
endfacet
facet normal 0.8191520442889912 0.573576436351047 0
outer loop
vertex 8.6143593539449 6.200000000000002 4.700000000000002
vertex 8.774328891009638 5.971539824501539 4.700000000000002
vertex 8.774328891009638 5.971539824501539 0
endloop
endfacet
facet normal 0.8191520442889912 0.573576436351047 0
outer loop
vertex 8.6143593539449 6.200000000000002 4.700000000000002
vertex 8.774328891009638 5.971539824501539 0
vertex 8.6143593539449 6.200000000000002 0
endloop
endfacet
facet normal 0.9063077870366496 0.4226182617407 0
outer loop
vertex 8.496491806742545 6.45276777067893 4.699999999999998
vertex 8.6143593539449 6.200000000000002 4.700000000000002
vertex 8.6143593539449 6.200000000000002 0
endloop
endfacet
facet normal 0.9063077870366496 0.4226182617407 0
outer loop
vertex 8.496491806742545 6.45276777067893 4.699999999999998
vertex 8.6143593539449 6.200000000000002 0
vertex 8.496491806742545 6.45276777067893 0
endloop
endfacet
facet normal 0.9659258262890686 0.25881904510251985 0
outer loop
vertex 8.42430759518047 6.722162915732913 4.700000000000002
vertex 8.496491806742545 6.45276777067893 4.699999999999998
vertex 8.496491806742545 6.45276777067893 0
endloop
endfacet
facet normal 0.9659258262890686 0.25881904510251985 0
outer loop
vertex 8.42430759518047 6.722162915732913 4.700000000000002
vertex 8.496491806742545 6.45276777067893 0
vertex 8.42430759518047 6.722162915732913 0
endloop
endfacet
facet normal 0.9961946980917453 0.08715574274765983 0
outer loop
vertex 8.399999999999999 7.000000000000001 4.7
vertex 8.42430759518047 6.722162915732913 4.700000000000002
vertex 8.42430759518047 6.722162915732913 0
endloop
endfacet
facet normal 0.9961946980917453 0.08715574274765983 0
outer loop
vertex 8.399999999999999 7.000000000000001 4.7
vertex 8.42430759518047 6.722162915732913 0
vertex 8.399999999999999 7.000000000000001 0
endloop
endfacet
facet normal 0.9961946980917455 -0.08715574274765808 0
outer loop
vertex 8.424307595180467 7.27783708426709 4.7
vertex 8.399999999999999 7.000000000000001 4.7
vertex 8.399999999999999 7.000000000000001 0
endloop
endfacet
facet normal 0.9961946980917455 -0.08715574274765808 0
outer loop
vertex 8.424307595180467 7.27783708426709 4.7
vertex 8.399999999999999 7.000000000000001 0
vertex 8.424307595180467 7.27783708426709 0
endloop
endfacet
facet normal 0.9659258262890686 -0.25881904510251985 0
outer loop
vertex 8.496491806742549 7.547232229321072 4.700000000000002
vertex 8.424307595180467 7.27783708426709 4.7
vertex 8.424307595180467 7.27783708426709 0
endloop
endfacet
facet normal 0.9659258262890686 -0.25881904510251985 0
outer loop
vertex 8.496491806742549 7.547232229321072 4.700000000000002
vertex 8.424307595180467 7.27783708426709 0
vertex 8.496491806742549 7.547232229321072 0
endloop
endfacet
facet normal 0.9063077870366505 -0.42261826174069855 0
outer loop
vertex 8.6143593539449 7.8000000000000025 4.700000000000002
vertex 8.496491806742549 7.547232229321072 4.700000000000002
vertex 8.496491806742549 7.547232229321072 0
endloop
endfacet
facet normal 0.9063077870366505 -0.42261826174069855 0
outer loop
vertex 8.6143593539449 7.8000000000000025 4.700000000000002
vertex 8.496491806742549 7.547232229321072 0
vertex 8.6143593539449 7.8000000000000025 0
endloop
endfacet
facet normal 0.819152044288992 -0.5735764363510458 0
outer loop
vertex 8.774328891009635 8.028460175498463 4.7
vertex 8.6143593539449 7.8000000000000025 4.700000000000002
vertex 8.6143593539449 7.8000000000000025 0
endloop
endfacet
facet normal 0.819152044288992 -0.5735764363510458 0
outer loop
vertex 8.774328891009635 8.028460175498463 4.7
vertex 8.6143593539449 7.8000000000000025 0
vertex 8.774328891009635 8.028460175498463 0
endloop
endfacet
facet normal 0.7071067811865476 -0.7071067811865476 0
outer loop
vertex 8.971539824501537 8.225671108990365 4.700000000000002
vertex 8.774328891009635 8.028460175498463 4.7
vertex 8.774328891009635 8.028460175498463 0
endloop
endfacet
facet normal 0.7071067811865476 -0.7071067811865476 0
outer loop
vertex 8.971539824501537 8.225671108990365 4.700000000000002
vertex 8.774328891009635 8.028460175498463 0
vertex 8.971539824501537 8.225671108990365 0
endloop
endfacet
facet normal 0.573576436351047 -0.8191520442889911 0
outer loop
vertex 9.2 8.385640646055101 4.7
vertex 8.971539824501537 8.225671108990365 4.700000000000002
vertex 8.971539824501537 8.225671108990365 0
endloop
endfacet
facet normal 0.573576436351047 -0.8191520442889911 0
outer loop
vertex 9.2 8.385640646055101 4.7
vertex 8.971539824501537 8.225671108990365 0
vertex 9.2 8.385640646055101 0
endloop
endfacet
facet normal 0.42261826174070033 -0.9063077870366496 0
outer loop
vertex 9.452767770678928 8.503508193257453 4.7
vertex 9.2 8.385640646055101 4.7
vertex 9.2 8.385640646055101 0
endloop
endfacet
facet normal 0.42261826174070033 -0.9063077870366496 0
outer loop
vertex 9.452767770678928 8.503508193257453 4.7
vertex 9.2 8.385640646055101 0
vertex 9.452767770678928 8.503508193257453 0
endloop
endfacet
facet normal 0.25881904510252 -0.9659258262890685 0
outer loop
vertex 9.72216291573291 8.575692404819533 4.700000000000002
vertex 9.452767770678928 8.503508193257453 4.7
vertex 9.452767770678928 8.503508193257453 0
endloop
endfacet
facet normal 0.25881904510252 -0.9659258262890685 0
outer loop
vertex 9.72216291573291 8.575692404819533 4.700000000000002
vertex 9.452767770678928 8.503508193257453 0
vertex 9.72216291573291 8.575692404819533 0
endloop
endfacet
facet normal 0.08715574274765991 -0.9961946980917453 0
outer loop
vertex 10.000000000000002 8.599999999999998 4.7
vertex 9.72216291573291 8.575692404819533 4.700000000000002
vertex 9.72216291573291 8.575692404819533 0
endloop
endfacet
facet normal 0.08715574274765991 -0.9961946980917453 0
outer loop
vertex 10.000000000000002 8.599999999999998 4.7
vertex 9.72216291573291 8.575692404819533 0
vertex 10.000000000000002 8.599999999999998 0
endloop
endfacet
facet normal -0.08715574274765815 -0.9961946980917455 0
outer loop
vertex 10.277837084267087 8.57569240481953 4.7
vertex 10.000000000000002 8.599999999999998 4.7
vertex 10.000000000000002 8.599999999999998 0
endloop
endfacet
facet normal -0.08715574274765815 -0.9961946980917455 0
outer loop
vertex 10.277837084267087 8.57569240481953 4.7
vertex 10.000000000000002 8.599999999999998 0
vertex 10.277837084267087 8.57569240481953 0
endloop
endfacet
facet normal -0.2588190451025217 -0.9659258262890681 0
outer loop
vertex 10.547232229321072 8.503508193257453 4.700000000000002
vertex 10.277837084267087 8.57569240481953 4.7
vertex 10.277837084267087 8.57569240481953 0
endloop
endfacet
facet normal -0.2588190451025217 -0.9659258262890681 0
outer loop
vertex 10.547232229321072 8.503508193257453 4.700000000000002
vertex 10.277837084267087 8.57569240481953 0
vertex 10.547232229321072 8.503508193257453 0
endloop
endfacet
facet normal -0.4226182617406989 -0.9063077870366503 0
outer loop
vertex 10.8 8.385640646055103 4.7
vertex 10.547232229321072 8.503508193257453 4.700000000000002
vertex 10.547232229321072 8.503508193257453 0
endloop
endfacet
facet normal -0.4226182617406989 -0.9063077870366503 0
outer loop
vertex 10.8 8.385640646055103 4.7
vertex 10.547232229321072 8.503508193257453 0
vertex 10.8 8.385640646055103 0
endloop
endfacet
facet normal -0.5735764363510465 -0.8191520442889917 0
outer loop
vertex 11.028460175498463 8.225671108990369 4.7
vertex 10.8 8.385640646055103 4.7
vertex 10.8 8.385640646055103 0
endloop
endfacet
facet normal -0.5735764363510465 -0.8191520442889917 0
outer loop
vertex 11.028460175498463 8.225671108990369 4.7
vertex 10.8 8.385640646055103 0
vertex 11.028460175498463 8.225671108990369 0
endloop
endfacet
facet normal -0.7071067811865485 -0.7071067811865467 0
outer loop
vertex 11.225671108990365 8.028460175498463 4.700000000000002
vertex 11.028460175498463 8.225671108990369 4.7
vertex 11.028460175498463 8.225671108990369 0
endloop
endfacet
facet normal -0.7071067811865485 -0.7071067811865467 0
outer loop
vertex 11.225671108990365 8.028460175498463 4.700000000000002
vertex 11.028460175498463 8.225671108990369 0
vertex 11.225671108990365 8.028460175498463 0
endloop
endfacet
facet normal -0.8191520442889922 -0.5735764363510454 0
outer loop
vertex 11.3856406460551 7.799999999999999 4.7
vertex 11.225671108990365 8.028460175498463 4.700000000000002
vertex 11.225671108990365 8.028460175498463 0
endloop
endfacet
facet normal -0.8191520442889922 -0.5735764363510454 0
outer loop
vertex 11.3856406460551 7.799999999999999 4.7
vertex 11.225671108990365 8.028460175498463 0
vertex 11.3856406460551 7.799999999999999 0
endloop
endfacet
facet normal -0.9063077870366496 -0.42261826174070033 0
outer loop
vertex 11.503508193257455 7.547232229321071 4.7
vertex 11.3856406460551 7.799999999999999 4.7
vertex 11.3856406460551 7.799999999999999 0
endloop
endfacet
facet normal -0.9063077870366496 -0.42261826174070033 0
outer loop
vertex 11.503508193257455 7.547232229321071 4.7
vertex 11.3856406460551 7.799999999999999 0
vertex 11.503508193257455 7.547232229321071 0
endloop
endfacet
facet normal -0.9659258262890685 -0.2588190451025198 0
outer loop
vertex 11.575692404819534 7.277837084267087 4.7
vertex 11.503508193257455 7.547232229321071 4.7
vertex 11.503508193257455 7.547232229321071 0
endloop
endfacet
facet normal -0.9659258262890685 -0.2588190451025198 0
outer loop
vertex 11.575692404819534 7.277837084267087 4.7
vertex 11.503508193257455 7.547232229321071 0
vertex 11.575692404819534 7.277837084267087 0
endloop
endfacet
facet normal -0.9961946980917457 -0.08715574274765639 0
outer loop
vertex 11.6 7.000000000000001 4.7
vertex 11.575692404819534 7.277837084267087 4.7
vertex 11.575692404819534 7.277837084267087 0
endloop
endfacet
facet normal -0.9961946980917457 -0.08715574274765639 0
outer loop
vertex 11.6 7.000000000000001 4.7
vertex 11.575692404819534 7.277837084267087 0
vertex 11.6 7.000000000000001 0
endloop
endfacet
facet normal 0 0 -1
outer loop
vertex 15 12.999999999999998 0
vertex 15 8.6 0
vertex 10.000000000000002 8.599999999999998 0
endloop
endfacet
facet normal 0 0 -1
outer loop
vertex 15 12.999999999999998 0
vertex 10.000000000000002 8.599999999999998 0
vertex 0 8.6 0
endloop
endfacet
facet normal 0 0 -1
outer loop
vertex 15 12.999999999999998 0
vertex 0 8.6 0
vertex 0 11 0
endloop
endfacet
facet normal 0 0 -1
outer loop
vertex 15 12.999999999999998 0
vertex 0 11 0
vertex 12 16 0
endloop
endfacet
facet normal 0 0 -1
outer loop
vertex 10.000000000000002 8.599999999999998 0
vertex 9.72216291573291 8.575692404819533 0
vertex 0 8.575692404819533 0
endloop
endfacet
facet normal 0 0 -1
outer loop
vertex 10.000000000000002 8.599999999999998 0
vertex 0 8.575692404819533 0
vertex 0 8.6 0
endloop
endfacet
facet normal 0 0 -1
outer loop
vertex 15 8.6 0
vertex 15 8.575692404819533 0
vertex 10.277837084267087 8.57569240481953 0
endloop
endfacet
facet normal 0 0 -1
outer loop
vertex 15 8.6 0
vertex 10.277837084267087 8.57569240481953 0
vertex 10.000000000000002 8.599999999999998 0
endloop
endfacet
facet normal 0 0 -1
outer loop
vertex 9.72216291573291 8.575692404819533 0
vertex 9.452767770678928 8.503508193257453 0
vertex 0 8.503508193257453 0
endloop
endfacet
facet normal 0 0 -1
outer loop
vertex 9.72216291573291 8.575692404819533 0
vertex 0 8.503508193257453 0
vertex 0 8.575692404819533 0
endloop
endfacet
facet normal 0 0 -1
outer loop
vertex 15 8.575692404819533 0
vertex 15 8.503508193257453 0
vertex 10.547232229321072 8.503508193257453 0
endloop
endfacet
facet normal 0 0 -1
outer loop
vertex 15 8.575692404819533 0
vertex 10.547232229321072 8.503508193257453 0
vertex 10.277837084267087 8.57569240481953 0
endloop
endfacet
facet normal 0 0 -1
outer loop
vertex 9.452767770678928 8.503508193257453 0
vertex 9.2 8.385640646055101 0
vertex 0 8.385640646055103 0
endloop
endfacet
facet normal 0 0 -1
outer loop
vertex 9.452767770678928 8.503508193257453 0
vertex 0 8.385640646055103 0
vertex 0 8.503508193257453 0
endloop
endfacet
facet normal 0 0 -1
outer loop
vertex 15 8.503508193257453 0
vertex 15 8.385640646055103 0
vertex 10.8 8.385640646055103 0
endloop
endfacet
facet normal 0 0 -1
outer loop
vertex 15 8.503508193257453 0
vertex 10.8 8.385640646055103 0
vertex 10.547232229321072 8.503508193257453 0
endloop
endfacet
facet normal 0 0 -1
outer loop
vertex 9.2 8.385640646055101 0
vertex 8.971539824501537 8.225671108990365 0
vertex 0 8.225671108990362 0
endloop
endfacet
facet normal 0 0 -1
outer loop
vertex 9.2 8.385640646055101 0
vertex 0 8.225671108990362 0
vertex 0 8.385640646055103 0
endloop
endfacet
facet normal 0 0 -1
outer loop
vertex 15 8.385640646055103 0
vertex 15 8.225671108990362 0
vertex 11.028460175498463 8.225671108990369 0
endloop
endfacet
facet normal 0 0 -1
outer loop
vertex 15 8.385640646055103 0
vertex 11.028460175498463 8.225671108990369 0
vertex 10.8 8.385640646055103 0
endloop
endfacet
facet normal 0 0 -1
outer loop
vertex 8.971539824501537 8.225671108990365 0
vertex 8.774328891009635 8.028460175498463 0
vertex 0 8.028460175498463 0
endloop
endfacet
facet normal 0 0 -1
outer loop
vertex 8.971539824501537 8.225671108990365 0
vertex 0 8.028460175498463 0
vertex 0 8.225671108990362 0
endloop
endfacet
facet normal 0 0 -1
outer loop
vertex 15 8.225671108990362 0
vertex 15 8.028460175498463 0
vertex 11.225671108990365 8.028460175498463 0
endloop
endfacet
facet normal 0 0 -1
outer loop
vertex 15 8.225671108990362 0
vertex 11.225671108990365 8.028460175498463 0
vertex 11.028460175498463 8.225671108990369 0
endloop
endfacet
facet normal 0 0 -1
outer loop
vertex 8.774328891009635 8.028460175498463 0
vertex 8.6143593539449 7.8000000000000025 0
vertex 0 7.800000000000002 0
endloop
endfacet
facet normal 0 0 -1
outer loop
vertex 8.774328891009635 8.028460175498463 0
vertex 0 7.800000000000002 0
vertex 0 8.028460175498463 0
endloop
endfacet
facet normal 0 0 -1
outer loop
vertex 15 8.028460175498463 0
vertex 15 7.800000000000002 0
vertex 11.3856406460551 7.799999999999999 0
endloop
endfacet
facet normal 0 0 -1
outer loop
vertex 15 8.028460175498463 0
vertex 11.3856406460551 7.799999999999999 0
vertex 11.225671108990365 8.028460175498463 0
endloop
endfacet
facet normal 0 0 -1
outer loop
vertex 8.6143593539449 7.8000000000000025 0
vertex 8.496491806742549 7.547232229321072 0
vertex 0 7.547232229321066 0
endloop
endfacet
facet normal 0 0 -1
outer loop
vertex 8.6143593539449 7.8000000000000025 0
vertex 0 7.547232229321066 0
vertex 0 7.800000000000002 0
endloop
endfacet
facet normal 0 0 -1
outer loop
vertex 15 7.800000000000002 0
vertex 15 7.547232229321066 0
vertex 11.503508193257455 7.547232229321071 0
endloop
endfacet
facet normal 0 0 -1
outer loop
vertex 15 7.800000000000002 0
vertex 11.503508193257455 7.547232229321071 0
vertex 11.3856406460551 7.799999999999999 0
endloop
endfacet
facet normal 0 0 -1
outer loop
vertex 8.496491806742549 7.547232229321072 0
vertex 8.424307595180467 7.27783708426709 0
vertex 0 7.27783708426709 0
endloop
endfacet
facet normal 0 0 -1
outer loop
vertex 8.496491806742549 7.547232229321072 0
vertex 0 7.27783708426709 0
vertex 0 7.547232229321066 0
endloop
endfacet
facet normal 0 0 -1
outer loop
vertex 15 7.547232229321066 0
vertex 15 7.27783708426709 0
vertex 11.575692404819534 7.277837084267087 0
endloop
endfacet
facet normal 0 0 -1
outer loop
vertex 15 7.547232229321066 0
vertex 11.575692404819534 7.277837084267087 0
vertex 11.503508193257455 7.547232229321071 0
endloop
endfacet
facet normal 0 0 -1
outer loop
vertex 8.424307595180467 7.27783708426709 0
vertex 8.399999999999999 7.000000000000001 0
vertex 0 7 0
endloop
endfacet
facet normal 0 0 -1
outer loop
vertex 8.424307595180467 7.27783708426709 0
vertex 0 7 0
vertex 0 7.27783708426709 0
endloop
endfacet
facet normal 0 0 -1
outer loop
vertex 15 7.27783708426709 0
vertex 15 7 0
vertex 11.6 7.000000000000001 0
endloop
endfacet
facet normal 0 0 -1
outer loop
vertex 15 7.27783708426709 0
vertex 11.6 7.000000000000001 0
vertex 11.575692404819534 7.277837084267087 0
endloop
endfacet
facet normal 0 0 -1
outer loop
vertex 8.399999999999999 7.000000000000001 0
vertex 8.42430759518047 6.722162915732913 0
vertex 0 6.722162915732917 0
endloop
endfacet
facet normal 0 0 -1
outer loop
vertex 8.399999999999999 7.000000000000001 0
vertex 0 6.722162915732917 0
vertex 0 7 0
endloop
endfacet
facet normal 0 0 -1
outer loop
vertex 15 7 0
vertex 15 6.722162915732917 0
vertex 11.575692404819533 6.722162915732913 0
endloop
endfacet
facet normal 0 0 -1
outer loop
vertex 15 7 0
vertex 11.575692404819533 6.722162915732913 0
vertex 11.6 7.000000000000001 0
endloop
endfacet
facet normal 0 0 -1
outer loop
vertex 8.42430759518047 6.722162915732913 0
vertex 8.496491806742545 6.45276777067893 0
vertex 0 6.452767770678928 0
endloop
endfacet
facet normal 0 0 -1
outer loop
vertex 8.42430759518047 6.722162915732913 0
vertex 0 6.452767770678928 0
vertex 0 6.722162915732917 0
endloop
endfacet
facet normal 0 0 -1
outer loop
vertex 15 6.722162915732917 0
vertex 15 6.452767770678928 0
vertex 11.503508193257456 6.452767770678931 0
endloop
endfacet
facet normal 0 0 -1
outer loop
vertex 15 6.722162915732917 0
vertex 11.503508193257456 6.452767770678931 0
vertex 11.575692404819533 6.722162915732913 0
endloop
endfacet
facet normal 0 0 -1
outer loop
vertex 8.496491806742545 6.45276777067893 0
vertex 8.6143593539449 6.200000000000002 0
vertex 0 6.199999999999995 0
endloop
endfacet
facet normal 0 0 -1
outer loop
vertex 8.496491806742545 6.45276777067893 0
vertex 0 6.199999999999995 0
vertex 0 6.452767770678928 0
endloop
endfacet
facet normal 0 0 -1
outer loop
vertex 15 6.452767770678928 0
vertex 15 6.199999999999995 0
vertex 11.385640646055101 6.199999999999999 0
endloop
endfacet
facet normal 0 0 -1
outer loop
vertex 15 6.452767770678928 0
vertex 11.385640646055101 6.199999999999999 0
vertex 11.503508193257456 6.452767770678931 0
endloop
endfacet
facet normal 0 0 -1
outer loop
vertex 8.6143593539449 6.200000000000002 0
vertex 8.774328891009638 5.971539824501539 0
vertex 0 5.97153982450154 0
endloop
endfacet
facet normal 0 0 -1
outer loop
vertex 8.6143593539449 6.200000000000002 0
vertex 0 5.97153982450154 0
vertex 0 6.199999999999995 0
endloop
endfacet
facet normal 0 0 -1
outer loop
vertex 15 6.199999999999995 0
vertex 15 5.97153982450154 0
vertex 11.225671108990365 5.971539824501537 0
endloop
endfacet
facet normal 0 0 -1
outer loop
vertex 15 6.199999999999995 0
vertex 11.225671108990365 5.971539824501537 0
vertex 11.385640646055101 6.199999999999999 0
endloop
endfacet
facet normal 0 0 -1
outer loop
vertex 8.774328891009638 5.971539824501539 0
vertex 8.971539824501537 5.7743288910096355 0
vertex 0 5.774328891009634 0
endloop
endfacet
facet normal 0 0 -1
outer loop
vertex 8.774328891009638 5.971539824501539 0
vertex 0 5.774328891009634 0
vertex 0 5.97153982450154 0
endloop
endfacet
facet normal 0 0 -1
outer loop
vertex 15 5.97153982450154 0
vertex 15 5.774328891009634 0
vertex 11.028460175498463 5.774328891009635 0
endloop
endfacet
facet normal 0 0 -1
outer loop
vertex 15 5.97153982450154 0
vertex 11.028460175498463 5.774328891009635 0
vertex 11.225671108990365 5.971539824501537 0
endloop
endfacet
facet normal 0 0 -1
outer loop
vertex 8.971539824501537 5.7743288910096355 0
vertex 9.200000000000003 5.614359353944898 0
vertex 0 5.614359353944899 0
endloop
endfacet
facet normal 0 0 -1
outer loop
vertex 8.971539824501537 5.7743288910096355 0
vertex 0 5.614359353944899 0
vertex 0 5.774328891009634 0
endloop
endfacet
facet normal 0 0 -1
outer loop
vertex 15 5.774328891009634 0
vertex 15 5.614359353944899 0
vertex 10.8 5.614359353944899 0
endloop
endfacet
facet normal 0 0 -1
outer loop
vertex 15 5.774328891009634 0
vertex 10.8 5.614359353944899 0
vertex 11.028460175498463 5.774328891009635 0
endloop
endfacet
facet normal 0 0 -1
outer loop
vertex 9.200000000000003 5.614359353944898 0
vertex 9.45276777067893 5.496491806742549 0
vertex 0 5.496491806742544 0
endloop
endfacet
facet normal 0 0 -1
outer loop
vertex 9.200000000000003 5.614359353944898 0
vertex 0 5.496491806742544 0
vertex 0 5.614359353944899 0
endloop
endfacet
facet normal 0 0 -1
outer loop
vertex 15 5.614359353944899 0
vertex 15 5.496491806742544 0
vertex 10.547232229321072 5.496491806742547 0
endloop
endfacet
facet normal 0 0 -1
outer loop
vertex 15 5.614359353944899 0
vertex 10.547232229321072 5.496491806742547 0
vertex 10.8 5.614359353944899 0
endloop
endfacet
facet normal 0 0 -1
outer loop
vertex 9.45276777067893 5.496491806742549 0
vertex 9.722162915732913 5.424307595180467 0
vertex 0 5.424307595180467 0
endloop
endfacet
facet normal 0 0 -1
outer loop
vertex 9.45276777067893 5.496491806742549 0
vertex 0 5.424307595180467 0
vertex 0 5.496491806742544 0
endloop
endfacet
facet normal 0 0 -1
outer loop
vertex 15 5.496491806742544 0
vertex 15 5.424307595180467 0
vertex 10.277837084267091 5.424307595180467 0
endloop
endfacet
facet normal 0 0 -1
outer loop
vertex 15 5.496491806742544 0
vertex 10.277837084267091 5.424307595180467 0
vertex 10.547232229321072 5.496491806742547 0
endloop
endfacet
facet normal 0 0 -1
outer loop
vertex 9.722162915732913 5.424307595180467 0
vertex 10 5.3999999999999995 0
vertex 0 5.4 0
endloop
endfacet
facet normal 0 0 -1
outer loop
vertex 9.722162915732913 5.424307595180467 0
vertex 0 5.4 0
vertex 0 5.424307595180467 0
endloop
endfacet
facet normal 0 0 -1
outer loop
vertex 15 5.424307595180467 0
vertex 15 5.4 0
vertex 10 5.3999999999999995 0
endloop
endfacet
facet normal 0 0 -1
outer loop
vertex 15 5.424307595180467 0
vertex 10 5.3999999999999995 0
vertex 10.277837084267091 5.424307595180467 0
endloop
endfacet
facet normal 0 0 -1
outer loop
vertex 10 5.3999999999999995 0
vertex 15 5.4 0
vertex 15 0 0
endloop
endfacet
facet normal 0 0 -1
outer loop
vertex 10 5.3999999999999995 0
vertex 15 0 0
vertex 0 0 0
endloop
endfacet
facet normal 0 0 -1
outer loop
vertex 10 5.3999999999999995 0
vertex 0 0 0
vertex 0 5.4 0
endloop
endfacet
facet normal 0 0 1
outer loop
vertex 15 4 4.7
vertex 15 5.4 4.7
vertex 10 5.3999999999999995 4.7
endloop
endfacet
facet normal 0 0 1
outer loop
vertex 15 4 4.7
vertex 10 5.3999999999999995 4.7
vertex 0 5.4 4.7
endloop
endfacet
facet normal 0 0 1
outer loop
vertex 15 4 4.7
vertex 0 5.4 4.7
vertex 0 4 4.7
endloop
endfacet
facet normal 0 0 1
outer loop
vertex 10 5.3999999999999995 4.7
vertex 9.722162915732913 5.424307595180467 4.7
vertex 0 5.424307595180467 4.7
endloop
endfacet
facet normal 0 0 1
outer loop
vertex 10 5.3999999999999995 4.7
vertex 0 5.424307595180467 4.7
vertex 0 5.4 4.7
endloop
endfacet
facet normal 0 0 1
outer loop
vertex 15 5.4 4.7
vertex 15 5.424307595180467 4.7
vertex 10.277837084267091 5.424307595180467 4.700000000000002
endloop
endfacet
facet normal 0 0 1
outer loop
vertex 15 5.4 4.7
vertex 10.277837084267091 5.424307595180467 4.700000000000002
vertex 10 5.3999999999999995 4.7
endloop
endfacet
facet normal 0 0 1
outer loop
vertex 9.722162915732913 5.424307595180467 4.7
vertex 9.45276777067893 5.496491806742549 4.700000000000002
vertex 0 5.496491806742548 4.7
endloop
endfacet
facet normal 0 0 1
outer loop
vertex 9.722162915732913 5.424307595180467 4.7
vertex 0 5.496491806742548 4.7
vertex 0 5.424307595180467 4.7
endloop
endfacet
facet normal 0 0 1
outer loop
vertex 15 5.424307595180467 4.7
vertex 15 5.496491806742548 4.7
vertex 10.547232229321072 5.496491806742547 4.7
endloop
endfacet
facet normal 0 0 1
outer loop
vertex 15 5.424307595180467 4.7
vertex 10.547232229321072 5.496491806742547 4.7
vertex 10.277837084267091 5.424307595180467 4.700000000000002
endloop
endfacet
facet normal 0 0 1
outer loop
vertex 9.45276777067893 5.496491806742549 4.700000000000002
vertex 9.200000000000003 5.614359353944898 4.7
vertex 0 5.614359353944895 4.7
endloop
endfacet
facet normal 0 0 1
outer loop
vertex 9.45276777067893 5.496491806742549 4.700000000000002
vertex 0 5.614359353944895 4.7
vertex 0 5.496491806742548 4.7
endloop
endfacet
facet normal 0 0 1
outer loop
vertex 15 5.496491806742548 4.7
vertex 15 5.614359353944895 4.7
vertex 10.8 5.614359353944899 4.7
endloop
endfacet
facet normal 0 0 1
outer loop
vertex 15 5.496491806742548 4.7
vertex 10.8 5.614359353944899 4.7
vertex 10.547232229321072 5.496491806742547 4.7
endloop
endfacet
facet normal 0 0 1
outer loop
vertex 9.200000000000003 5.614359353944898 4.7
vertex 8.971539824501537 5.7743288910096355 4.7
vertex 0 5.774328891009632 4.7
endloop
endfacet
facet normal 0 0 1
outer loop
vertex 9.200000000000003 5.614359353944898 4.7
vertex 0 5.774328891009632 4.7
vertex 0 5.614359353944895 4.7
endloop
endfacet
facet normal 0 0 1
outer loop
vertex 15 5.614359353944895 4.7
vertex 15 5.774328891009632 4.7
vertex 11.028460175498463 5.774328891009635 4.700000000000002
endloop
endfacet
facet normal 0 0 1
outer loop
vertex 15 5.614359353944895 4.7
vertex 11.028460175498463 5.774328891009635 4.700000000000002
vertex 10.8 5.614359353944899 4.7
endloop
endfacet
facet normal 0 0 1
outer loop
vertex 8.971539824501537 5.7743288910096355 4.7
vertex 8.774328891009638 5.971539824501539 4.700000000000002
vertex 0 5.97153982450154 4.7
endloop
endfacet
facet normal 0 0 1
outer loop
vertex 8.971539824501537 5.7743288910096355 4.7
vertex 0 5.97153982450154 4.7
vertex 0 5.774328891009632 4.7
endloop
endfacet
facet normal 0 0 1
outer loop
vertex 15 5.774328891009632 4.7
vertex 15 5.97153982450154 4.7
vertex 11.225671108990365 5.971539824501537 4.7
endloop
endfacet
facet normal 0 0 1
outer loop
vertex 15 5.774328891009632 4.7
vertex 11.225671108990365 5.971539824501537 4.7
vertex 11.028460175498463 5.774328891009635 4.700000000000002
endloop
endfacet
facet normal 0 0 1
outer loop
vertex 8.774328891009638 5.971539824501539 4.700000000000002
vertex 8.6143593539449 6.200000000000002 4.700000000000002
vertex 0 6.2000000000000055 4.7
endloop
endfacet
facet normal 0 0 1
outer loop
vertex 8.774328891009638 5.971539824501539 4.700000000000002
vertex 0 6.2000000000000055 4.7
vertex 0 5.97153982450154 4.7
endloop
endfacet
facet normal 0 0 1
outer loop
vertex 15 5.97153982450154 4.7
vertex 15 6.2000000000000055 4.7
vertex 11.385640646055101 6.199999999999999 4.7
endloop
endfacet
facet normal 0 0 1
outer loop
vertex 15 5.97153982450154 4.7
vertex 11.385640646055101 6.199999999999999 4.7
vertex 11.225671108990365 5.971539824501537 4.7
endloop
endfacet
facet normal 0 0 1
outer loop
vertex 8.6143593539449 6.200000000000002 4.700000000000002
vertex 8.496491806742545 6.45276777067893 4.699999999999998
vertex 0 6.4527677706789195 4.7
endloop
endfacet
facet normal 0 0 1
outer loop
vertex 8.6143593539449 6.200000000000002 4.700000000000002
vertex 0 6.4527677706789195 4.7
vertex 0 6.2000000000000055 4.7
endloop
endfacet
facet normal 0 0 1
outer loop
vertex 15 6.2000000000000055 4.7
vertex 15 6.4527677706789195 4.7
vertex 11.503508193257456 6.452767770678931 4.700000000000002
endloop
endfacet
facet normal 0 0 1
outer loop
vertex 15 6.2000000000000055 4.7
vertex 11.503508193257456 6.452767770678931 4.700000000000002
vertex 11.385640646055101 6.199999999999999 4.7
endloop
endfacet
facet normal 0 0 1
outer loop
vertex 8.496491806742545 6.45276777067893 4.699999999999998
vertex 8.42430759518047 6.722162915732913 4.700000000000002
vertex 0 6.722162915732925 4.7
endloop
endfacet
facet normal 0 0 1
outer loop
vertex 8.496491806742545 6.45276777067893 4.699999999999998
vertex 0 6.722162915732925 4.7
vertex 0 6.4527677706789195 4.7
endloop
endfacet
facet normal 0 0 1
outer loop
vertex 15 6.4527677706789195 4.7
vertex 15 6.722162915732925 4.7
vertex 11.575692404819533 6.722162915732913 4.7
endloop
endfacet
facet normal 0 0 1
outer loop
vertex 15 6.4527677706789195 4.7
vertex 11.575692404819533 6.722162915732913 4.7
vertex 11.503508193257456 6.452767770678931 4.700000000000002
endloop
endfacet
facet normal 0 0 1
outer loop
vertex 8.42430759518047 6.722162915732913 4.700000000000002
vertex 8.399999999999999 7.000000000000001 4.7
vertex 0 7 4.7
endloop
endfacet
facet normal 0 0 1
outer loop
vertex 8.42430759518047 6.722162915732913 4.700000000000002
vertex 0 7 4.7
vertex 0 6.722162915732925 4.7
endloop
endfacet
facet normal 0 0 1
outer loop
vertex 15 6.722162915732925 4.7
vertex 15 7 4.7
vertex 11.6 7.000000000000001 4.7
endloop
endfacet
facet normal 0 0 1
outer loop
vertex 15 6.722162915732925 4.7
vertex 11.6 7.000000000000001 4.7
vertex 11.575692404819533 6.722162915732913 4.7
endloop
endfacet
facet normal 0 0 1
outer loop
vertex 8.399999999999999 7.000000000000001 4.7
vertex 8.424307595180467 7.27783708426709 4.7
vertex 0.6945927106677243 7.27783708426709 4.7
endloop
endfacet
facet normal 0 0 1
outer loop
vertex 8.399999999999999 7.000000000000001 4.7
vertex 0.6945927106677243 7.27783708426709 4.7
vertex 0 7 4.7
endloop
endfacet
facet normal 0 0 1
outer loop
vertex 15 7 4.7
vertex 15 7.27783708426709 4.7
vertex 11.575692404819534 7.277837084267087 4.7
endloop
endfacet
facet normal 0 0 1
outer loop
vertex 15 7 4.7
vertex 11.575692404819534 7.277837084267087 4.7
vertex 11.6 7.000000000000001 4.7
endloop
endfacet
facet normal 0 0 1
outer loop
vertex 8.424307595180467 7.27783708426709 4.7
vertex 8.496491806742549 7.547232229321072 4.700000000000002
vertex 1.3680805733026662 7.547232229321067 4.7
endloop
endfacet
facet normal 0 0 1
outer loop
vertex 8.424307595180467 7.27783708426709 4.7
vertex 1.3680805733026662 7.547232229321067 4.7
vertex 0.6945927106677243 7.27783708426709 4.7
endloop
endfacet
facet normal 0 0 1
outer loop
vertex 15 7.27783708426709 4.7
vertex 15 7.547232229321067 4.7
vertex 11.503508193257455 7.547232229321071 4.7
endloop
endfacet
facet normal 0 0 1
outer loop
vertex 15 7.27783708426709 4.7
vertex 11.503508193257455 7.547232229321071 4.7
vertex 11.575692404819534 7.277837084267087 4.7
endloop
endfacet
facet normal 0 0 1
outer loop
vertex 8.496491806742549 7.547232229321072 4.700000000000002
vertex 8.6143593539449 7.8000000000000025 4.700000000000002
vertex 1.9999999999999991 7.800000000000001 4.7
endloop
endfacet
facet normal 0 0 1
outer loop
vertex 8.496491806742549 7.547232229321072 4.700000000000002
vertex 1.9999999999999991 7.800000000000001 4.7
vertex 1.3680805733026662 7.547232229321067 4.7
endloop
endfacet
facet normal 0 0 1
outer loop
vertex 15 7.547232229321067 4.7
vertex 15 7.800000000000001 4.7
vertex 11.3856406460551 7.799999999999999 4.7
endloop
endfacet
facet normal 0 0 1
outer loop
vertex 15 7.547232229321067 4.7
vertex 11.3856406460551 7.799999999999999 4.7
vertex 11.503508193257455 7.547232229321071 4.7
endloop
endfacet
facet normal 0 0 1
outer loop
vertex 8.6143593539449 7.8000000000000025 4.700000000000002
vertex 8.774328891009635 8.028460175498463 4.7
vertex 2.5711504387461535 8.028460175498463 4.7
endloop
endfacet
facet normal 0 0 1
outer loop
vertex 8.6143593539449 7.8000000000000025 4.700000000000002
vertex 2.5711504387461535 8.028460175498463 4.7
vertex 1.9999999999999991 7.800000000000001 4.7
endloop
endfacet
facet normal 0 0 1
outer loop
vertex 15 7.800000000000001 4.7
vertex 15 8.028460175498463 4.7
vertex 11.225671108990365 8.028460175498463 4.700000000000002
endloop
endfacet
facet normal 0 0 1
outer loop
vertex 15 7.800000000000001 4.7
vertex 11.225671108990365 8.028460175498463 4.700000000000002
vertex 11.3856406460551 7.799999999999999 4.7
endloop
endfacet
facet normal 0 0 1
outer loop
vertex 8.774328891009635 8.028460175498463 4.7
vertex 8.971539824501537 8.225671108990365 4.700000000000002
vertex 3.064177772475891 8.225671108990358 4.7
endloop
endfacet
facet normal 0 0 1
outer loop
vertex 8.774328891009635 8.028460175498463 4.7
vertex 3.064177772475891 8.225671108990358 4.7
vertex 2.5711504387461535 8.028460175498463 4.7
endloop
endfacet
facet normal 0 0 1
outer loop
vertex 15 8.028460175498463 4.7
vertex 15 8.225671108990358 4.7
vertex 11.028460175498463 8.225671108990369 4.7
endloop
endfacet
facet normal 0 0 1
outer loop
vertex 15 8.028460175498463 4.7
vertex 11.028460175498463 8.225671108990369 4.7
vertex 11.225671108990365 8.028460175498463 4.700000000000002
endloop
endfacet
facet normal 0 0 1
outer loop
vertex 8.971539824501537 8.225671108990365 4.700000000000002
vertex 9.2 8.385640646055101 4.7
vertex 3.4641016151377535 8.385640646055103 4.7
endloop
endfacet
facet normal 0 0 1
outer loop
vertex 8.971539824501537 8.225671108990365 4.700000000000002
vertex 3.4641016151377535 8.385640646055103 4.7
vertex 3.064177772475891 8.225671108990358 4.7
endloop
endfacet
facet normal 0 0 1
outer loop
vertex 15 8.225671108990358 4.7
vertex 15 8.385640646055103 4.7
vertex 10.8 8.385640646055103 4.7
endloop
endfacet
facet normal 0 0 1
outer loop
vertex 15 8.225671108990358 4.7
vertex 10.8 8.385640646055103 4.7
vertex 11.028460175498463 8.225671108990369 4.7
endloop
endfacet
facet normal 0 0 1
outer loop
vertex 9.2 8.385640646055101 4.7
vertex 9.452767770678928 8.503508193257453 4.7
vertex 3.758770483143627 8.503508193257453 4.7
endloop
endfacet
facet normal 0 0 1
outer loop
vertex 9.2 8.385640646055101 4.7
vertex 3.758770483143627 8.503508193257453 4.7
vertex 3.4641016151377535 8.385640646055103 4.7
endloop
endfacet
facet normal 0 0 1
outer loop
vertex 15 8.385640646055103 4.7
vertex 15 8.503508193257453 4.7
vertex 10.547232229321072 8.503508193257453 4.700000000000002
endloop
endfacet
facet normal 0 0 1
outer loop
vertex 15 8.385640646055103 4.7
vertex 10.547232229321072 8.503508193257453 4.700000000000002
vertex 10.8 8.385640646055103 4.7
endloop
endfacet
facet normal 0 0 1
outer loop
vertex 9.452767770678928 8.503508193257453 4.7
vertex 9.72216291573291 8.575692404819533 4.700000000000002
vertex 3.9392310120488223 8.57569240481953 4.7
endloop
endfacet
facet normal 0 0 1
outer loop
vertex 9.452767770678928 8.503508193257453 4.7
vertex 3.9392310120488223 8.57569240481953 4.7
vertex 3.758770483143627 8.503508193257453 4.7
endloop
endfacet
facet normal 0 0 1
outer loop
vertex 15 8.503508193257453 4.7
vertex 15 8.57569240481953 4.7
vertex 10.277837084267087 8.57569240481953 4.7
endloop
endfacet
facet normal 0 0 1
outer loop
vertex 15 8.503508193257453 4.7
vertex 10.277837084267087 8.57569240481953 4.7
vertex 10.547232229321072 8.503508193257453 4.700000000000002
endloop
endfacet
facet normal 0 0 1
outer loop
vertex 9.72216291573291 8.575692404819533 4.700000000000002
vertex 10.000000000000002 8.599999999999998 4.7
vertex 3.9999999999999942 8.6 4.7
endloop
endfacet
facet normal 0 0 1
outer loop
vertex 9.72216291573291 8.575692404819533 4.700000000000002
vertex 3.9999999999999942 8.6 4.7
vertex 3.9392310120488223 8.57569240481953 4.7
endloop
endfacet
facet normal 0 0 1
outer loop
vertex 15 8.57569240481953 4.7
vertex 15 8.6 4.7
vertex 10.000000000000002 8.599999999999998 4.7
endloop
endfacet
facet normal 0 0 1
outer loop
vertex 15 8.57569240481953 4.7
vertex 10.000000000000002 8.599999999999998 4.7
vertex 10.277837084267087 8.57569240481953 4.7
endloop
endfacet
facet normal 0 0 1
outer loop
vertex 10.000000000000002 8.599999999999998 4.7
vertex 15 8.6 4.7
vertex 15 10 4.7
endloop
endfacet
facet normal 0 0 1
outer loop
vertex 10.000000000000002 8.599999999999998 4.7
vertex 15 10 4.7
vertex 7.500000000000003 10.000000000000004 4.700000000000004
endloop
endfacet
facet normal 0 0 1
outer loop
vertex 10.000000000000002 8.599999999999998 4.7
vertex 7.500000000000003 10.000000000000004 4.700000000000004
vertex 3.9999999999999942 8.6 4.7
endloop
endfacet
endsolid csg.js
