solid OpenSCAD_Model
  facet normal 0 0 1
    outer loop
      vertex 33 -0.5 8.5
      vertex -33 -0.5 8.5
      vertex 33 -0.75 8.5
    endloop
  endfacet
  facet normal 0 0 1
    outer loop
      vertex 40 2 8.5
      vertex 38 0.75 8.5
      vertex 40 -2 8.5
    endloop
  endfacet
  facet normal 0 0 1
    outer loop
      vertex 40 2 8.5
      vertex 33 0.75 8.5
      vertex 38 0.75 8.5
    endloop
  endfacet
  facet normal 0 0 1
    outer loop
      vertex 33 0.75 8.5
      vertex -33 0.75 8.5
      vertex 33 0.5 8.5
    endloop
  endfacet
  facet normal 0 0 1
    outer loop
      vertex 40 2 8.5
      vertex -33 0.75 8.5
      vertex 33 0.75 8.5
    endloop
  endfacet
  facet normal -0 0 1
    outer loop
      vertex -40 2 8.5
      vertex -33 0.75 8.5
      vertex 40 2 8.5
    endloop
  endfacet
  facet normal 0 0 1
    outer loop
      vertex -38 0.75 8.5
      vertex -40 2 8.5
      vertex -38 -0.75 8.5
    endloop
  endfacet
  facet normal 0 0 1
    outer loop
      vertex -33 0.75 8.5
      vertex -40 2 8.5
      vertex -38 0.75 8.5
    endloop
  endfacet
  facet normal -0 0 1
    outer loop
      vertex 38 -0.75 8.5
      vertex 40 -2 8.5
      vertex 38 0.75 8.5
    endloop
  endfacet
  facet normal -0 0 1
    outer loop
      vertex 33 -0.75 8.5
      vertex 40 -2 8.5
      vertex 38 -0.75 8.5
    endloop
  endfacet
  facet normal 0 0 1
    outer loop
      vertex -33 -0.75 8.5
      vertex 33 -0.75 8.5
      vertex -33 -0.5 8.5
    endloop
  endfacet
  facet normal 0 0 1
    outer loop
      vertex 33 -0.75 8.5
      vertex -33 -0.75 8.5
      vertex 40 -2 8.5
    endloop
  endfacet
  facet normal 0 0 1
    outer loop
      vertex -40 -2 8.5
      vertex -33 -0.75 8.5
      vertex -38 -0.75 8.5
    endloop
  endfacet
  facet normal 0 0 1
    outer loop
      vertex -33 -0.75 8.5
      vertex -40 -2 8.5
      vertex 40 -2 8.5
    endloop
  endfacet
  facet normal 0 0 1
    outer loop
      vertex -40 -2 8.5
      vertex -38 -0.75 8.5
      vertex -40 2 8.5
    endloop
  endfacet
  facet normal 0 0 1
    outer loop
      vertex 33 0.5 8.5
      vertex -33 0.75 8.5
      vertex -33 0.5 8.5
    endloop
  endfacet
  facet normal 1 -0 0
    outer loop
      vertex -38 -0.75 8.5
      vertex -38 0.75 -6.5
      vertex -38 0.75 8.5
    endloop
  endfacet
  facet normal 1 0 0
    outer loop
      vertex -38 0.75 -6.5
      vertex -38 -0.75 8.5
      vertex -38 -0.75 -6.5
    endloop
  endfacet
  facet normal -1 0 0
    outer loop
      vertex -33 -0.75 -6.5
      vertex -33 -0.5 8.5
      vertex -33 -0.5 -6.5
    endloop
  endfacet
  facet normal -1 -0 0
    outer loop
      vertex -33 -0.5 8.5
      vertex -33 -0.75 -6.5
      vertex -33 -0.75 8.5
    endloop
  endfacet
  facet normal -1 0 0
    outer loop
      vertex -33 0.5 -6.5
      vertex -33 0.75 8.5
      vertex -33 0.75 -6.5
    endloop
  endfacet
  facet normal -1 -0 0
    outer loop
      vertex -33 0.75 8.5
      vertex -33 0.5 -6.5
      vertex -33 0.5 8.5
    endloop
  endfacet
  facet normal -0 0 1
    outer loop
      vertex -38 0.75 -6.5
      vertex -33 0.5 -6.5
      vertex -33 0.75 -6.5
    endloop
  endfacet
  facet normal 0 0 1
    outer loop
      vertex -33 0.5 -6.5
      vertex -38 0.75 -6.5
      vertex -33 -0.5 -6.5
    endloop
  endfacet
  facet normal 0 0 1
    outer loop
      vertex -38 -0.75 -6.5
      vertex -33 -0.5 -6.5
      vertex -38 0.75 -6.5
    endloop
  endfacet
  facet normal 0 0 1
    outer loop
      vertex -33 -0.5 -6.5
      vertex -38 -0.75 -6.5
      vertex -33 -0.75 -6.5
    endloop
  endfacet
  facet normal -0 0 1
    outer loop
      vertex -33 0.5 -6.5
      vertex 33 -0.5 -6.5
      vertex 33 0.5 -6.5
    endloop
  endfacet
  facet normal 0 0 1
    outer loop
      vertex 33 -0.5 -6.5
      vertex -33 0.5 -6.5
      vertex -33 -0.5 -6.5
    endloop
  endfacet
  facet normal 0 0 1
    outer loop
      vertex 33 0.5 -6.5
      vertex 38 0.75 -6.5
      vertex 33 0.75 -6.5
    endloop
  endfacet
  facet normal 0 0 1
    outer loop
      vertex 38 0.75 -6.5
      vertex 33 0.5 -6.5
      vertex 38 -0.75 -6.5
    endloop
  endfacet
  facet normal -0 0 1
    outer loop
      vertex 33 -0.5 -6.5
      vertex 38 -0.75 -6.5
      vertex 33 0.5 -6.5
    endloop
  endfacet
  facet normal 0 0 1
    outer loop
      vertex 38 -0.75 -6.5
      vertex 33 -0.5 -6.5
      vertex 33 -0.75 -6.5
    endloop
  endfacet
  facet normal 0 -1 0
    outer loop
      vertex -38 0.75 -6.5
      vertex -33 0.75 8.5
      vertex -38 0.75 8.5
    endloop
  endfacet
  facet normal 0 -1 -0
    outer loop
      vertex -33 0.75 8.5
      vertex -38 0.75 -6.5
      vertex -33 0.75 -6.5
    endloop
  endfacet
  facet normal 0 1 -0
    outer loop
      vertex -33 -0.75 -6.5
      vertex -38 -0.75 8.5
      vertex -33 -0.75 8.5
    endloop
  endfacet
  facet normal 0 1 0
    outer loop
      vertex -38 -0.75 8.5
      vertex -33 -0.75 -6.5
      vertex -38 -0.75 -6.5
    endloop
  endfacet
  facet normal -1 0 0
    outer loop
      vertex 38 -0.75 -6.5
      vertex 38 0.75 8.5
      vertex 38 0.75 -6.5
    endloop
  endfacet
  facet normal -1 -0 0
    outer loop
      vertex 38 0.75 8.5
      vertex 38 -0.75 -6.5
      vertex 38 -0.75 8.5
    endloop
  endfacet
  facet normal 1 -0 0
    outer loop
      vertex 33 0.5 8.5
      vertex 33 0.75 -6.5
      vertex 33 0.75 8.5
    endloop
  endfacet
  facet normal 1 0 0
    outer loop
      vertex 33 0.75 -6.5
      vertex 33 0.5 8.5
      vertex 33 0.5 -6.5
    endloop
  endfacet
  facet normal 1 -0 0
    outer loop
      vertex 33 -0.75 8.5
      vertex 33 -0.5 -6.5
      vertex 33 -0.5 8.5
    endloop
  endfacet
  facet normal 1 0 0
    outer loop
      vertex 33 -0.5 -6.5
      vertex 33 -0.75 8.5
      vertex 33 -0.75 -6.5
    endloop
  endfacet
  facet normal 0 -1 0
    outer loop
      vertex 33 0.75 -6.5
      vertex 38 0.75 8.5
      vertex 33 0.75 8.5
    endloop
  endfacet
  facet normal 0 -1 -0
    outer loop
      vertex 38 0.75 8.5
      vertex 33 0.75 -6.5
      vertex 38 0.75 -6.5
    endloop
  endfacet
  facet normal 0 1 -0
    outer loop
      vertex 38 -0.75 -6.5
      vertex 33 -0.75 8.5
      vertex 38 -0.75 8.5
    endloop
  endfacet
  facet normal 0 1 0
    outer loop
      vertex 33 -0.75 8.5
      vertex 38 -0.75 -6.5
      vertex 33 -0.75 -6.5
    endloop
  endfacet
  facet normal 0 -1 0
    outer loop
      vertex -33 0.5 -6.5
      vertex 33 0.5 8.5
      vertex -33 0.5 8.5
    endloop
  endfacet
  facet normal 0 -1 -0
    outer loop
      vertex 33 0.5 8.5
      vertex -33 0.5 -6.5
      vertex 33 0.5 -6.5
    endloop
  endfacet
  facet normal 0 1 -0
    outer loop
      vertex 33 -0.5 -6.5
      vertex -33 -0.5 8.5
      vertex 33 -0.5 8.5
    endloop
  endfacet
  facet normal 0 1 0
    outer loop
      vertex -33 -0.5 8.5
      vertex 33 -0.5 -6.5
      vertex -33 -0.5 -6.5
    endloop
  endfacet
  facet normal 1 -0 0
    outer loop
      vertex 40 -2 8.5
      vertex 40 2 -8.5
      vertex 40 2 8.5
    endloop
  endfacet
  facet normal 1 0 0
    outer loop
      vertex 40 2 -8.5
      vertex 40 -2 8.5
      vertex 40 -2 -8.5
    endloop
  endfacet
  facet normal 0 0 -1
    outer loop
      vertex -40 -2 -8.5
      vertex 40 2 -8.5
      vertex 40 -2 -8.5
    endloop
  endfacet
  facet normal -0 0 -1
    outer loop
      vertex 40 2 -8.5
      vertex -40 -2 -8.5
      vertex -40 2 -8.5
    endloop
  endfacet
  facet normal -1 0 0
    outer loop
      vertex -40 -2 -8.5
      vertex -40 2 8.5
      vertex -40 2 -8.5
    endloop
  endfacet
  facet normal -1 -0 0
    outer loop
      vertex -40 2 8.5
      vertex -40 -2 -8.5
      vertex -40 -2 8.5
    endloop
  endfacet
  facet normal 0 1 -0
    outer loop
      vertex 40 2 -8.5
      vertex -40 2 8.5
      vertex 40 2 8.5
    endloop
  endfacet
  facet normal 0 1 0
    outer loop
      vertex -40 2 8.5
      vertex 40 2 -8.5
      vertex -40 2 -8.5
    endloop
  endfacet
  facet normal 0 -1 0
    outer loop
      vertex -40 -2 -8.5
      vertex 40 -2 8.5
      vertex -40 -2 8.5
    endloop
  endfacet
  facet normal 0 -1 -0
    outer loop
      vertex 40 -2 8.5
      vertex -40 -2 -8.5
      vertex 40 -2 -8.5
    endloop
  endfacet
endsolid OpenSCAD_Model
