solid OpenSCAD_Model
  facet normal 0.195091 -0.980785 0
    outer loop
      vertex 13 0 0
      vertex 14.9134 0.380603 15
      vertex 13 0 15
    endloop
  endfacet
  facet normal 0.195091 -0.980785 0
    outer loop
      vertex 14.9134 0.380603 15
      vertex 13 0 0
      vertex 14.9134 0.380603 0
    endloop
  endfacet
  facet normal 0 0 -1
    outer loop
      vertex -14.9134 0.380603 0
      vertex -13 1 0
      vertex -13 0 0
    endloop
  endfacet
  facet normal 0 0 -1
    outer loop
      vertex -16.5355 1.46447 0
      vertex -13 1 0
      vertex -14.9134 0.380603 0
    endloop
  endfacet
  facet normal 0 0 -1
    outer loop
      vertex -13 1 0
      vertex -15.1353 13.8168 0
      vertex -13.037 16.1472 0
    endloop
  endfacet
  facet normal 0 0 -1
    outer loop
      vertex -17.6194 3.08658 0
      vertex -13 1 0
      vertex -16.5355 1.46447 0
    endloop
  endfacet
  facet normal 0 0 -1
    outer loop
      vertex -13 1 0
      vertex -16.7032 11.101 0
      vertex -15.1353 13.8168 0
    endloop
  endfacet
  facet normal 0 0 -1
    outer loop
      vertex -13 1 0
      vertex -17.6194 3.08658 0
      vertex -18 5 0
    endloop
  endfacet
  facet normal 0 0 -1
    outer loop
      vertex -13 1 0
      vertex -17.6722 8.11868 0
      vertex -16.7032 11.101 0
    endloop
  endfacet
  facet normal 0 0 -1
    outer loop
      vertex -13 1 0
      vertex -18 5 0
      vertex -17.6722 8.11868 0
    endloop
  endfacet
  facet normal 0 0 -1
    outer loop
      vertex -13 1 0
      vertex -5 5 0
      vertex -5 1 0
    endloop
  endfacet
  facet normal 0 0 -1
    outer loop
      vertex -5 5 0
      vertex -10.5 17.9904 0
      vertex -7.63525 19.2658 0
    endloop
  endfacet
  facet normal -0 0 -1
    outer loop
      vertex -5 5 0
      vertex -13 1 0
      vertex -13.037 16.1472 0
    endloop
  endfacet
  facet normal 0 0 -1
    outer loop
      vertex -5 5 0
      vertex -13.037 16.1472 0
      vertex -10.5 17.9904 0
    endloop
  endfacet
  facet normal 0 0 -1
    outer loop
      vertex 13 1 0
      vertex 18 5 0
      vertex 17.6194 3.08658 0
    endloop
  endfacet
  facet normal -0 0 -1
    outer loop
      vertex 18 5 0
      vertex 13 1 0
      vertex 17.6722 8.11868 0
    endloop
  endfacet
  facet normal 0 0 -1
    outer loop
      vertex 13 1 0
      vertex 17.6194 3.08658 0
      vertex 16.5355 1.46447 0
    endloop
  endfacet
  facet normal 0 0 -1
    outer loop
      vertex 5 5 0
      vertex 17.6722 8.11868 0
      vertex 13 1 0
    endloop
  endfacet
  facet normal 0 0 -1
    outer loop
      vertex 13 1 0
      vertex 16.5355 1.46447 0
      vertex 14.9134 0.380603 0
    endloop
  endfacet
  facet normal -0 0 -1
    outer loop
      vertex 17.6722 8.11868 0
      vertex 5 5 0
      vertex 16.7032 11.101 0
    endloop
  endfacet
  facet normal 0 0 -1
    outer loop
      vertex 13 1 0
      vertex 14.9134 0.380603 0
      vertex 13 0 0
    endloop
  endfacet
  facet normal -0 0 -1
    outer loop
      vertex 16.7032 11.101 0
      vertex 5 5 0
      vertex 15.1353 13.8168 0
    endloop
  endfacet
  facet normal -0 0 -1
    outer loop
      vertex 15.1353 13.8168 0
      vertex 5 5 0
      vertex 13.037 16.1472 0
    endloop
  endfacet
  facet normal -0 0 -1
    outer loop
      vertex 13.037 16.1472 0
      vertex 5 5 0
      vertex 10.5 17.9904 0
    endloop
  endfacet
  facet normal 0 0 -1
    outer loop
      vertex 5 5 0
      vertex 13 1 0
      vertex 5 1 0
    endloop
  endfacet
  facet normal -0 0 -1
    outer loop
      vertex 10.5 17.9904 0
      vertex 5 5 0
      vertex 7.63525 19.2658 0
    endloop
  endfacet
  facet normal 0 0 -1
    outer loop
      vertex 5 5 0
      vertex 4.56793 19.9178 0
      vertex 7.63525 19.2658 0
    endloop
  endfacet
  facet normal 0 0 -1
    outer loop
      vertex 5 5 0
      vertex 3 19.9178 0
      vertex 4.56793 19.9178 0
    endloop
  endfacet
  facet normal 0 0 -1
    outer loop
      vertex 3 19.9178 0
      vertex -3 19.9178 0
      vertex 3 20 0
    endloop
  endfacet
  facet normal 0 0 -1
    outer loop
      vertex 5 5 0
      vertex -3 19.9178 0
      vertex 3 19.9178 0
    endloop
  endfacet
  facet normal 0 0 -1
    outer loop
      vertex -5 5 0
      vertex -3 19.9178 0
      vertex 5 5 0
    endloop
  endfacet
  facet normal -0 0 -1
    outer loop
      vertex -3 19.9178 0
      vertex -5 5 0
      vertex -4.56793 19.9178 0
    endloop
  endfacet
  facet normal 0 0 -1
    outer loop
      vertex -4.56793 19.9178 0
      vertex -5 5 0
      vertex -7.63525 19.2658 0
    endloop
  endfacet
  facet normal -0 0 -1
    outer loop
      vertex 3 20 0
      vertex -3 19.9178 0
      vertex -3 20 0
    endloop
  endfacet
  facet normal 0 0 1
    outer loop
      vertex 3 20 15
      vertex -3 20 15
      vertex 3 19.9178 15
    endloop
  endfacet
  facet normal 0 0 1
    outer loop
      vertex 10.5 17.9904 15
      vertex 13 1 15
      vertex 13.037 16.1472 15
    endloop
  endfacet
  facet normal 0 0 1
    outer loop
      vertex 7.63525 19.2658 15
      vertex 13 1 15
      vertex 10.5 17.9904 15
    endloop
  endfacet
  facet normal 0 0 1
    outer loop
      vertex 4.56793 19.9178 15
      vertex 13 1 15
      vertex 7.63525 19.2658 15
    endloop
  endfacet
  facet normal -0 0 1
    outer loop
      vertex 3 19.9178 15
      vertex 13 1 15
      vertex 4.56793 19.9178 15
    endloop
  endfacet
  facet normal 0 0 1
    outer loop
      vertex -3 19.9178 15
      vertex 3 19.9178 15
      vertex -3 20 15
    endloop
  endfacet
  facet normal 0 0 1
    outer loop
      vertex 3 19.9178 15
      vertex -3 19.9178 15
      vertex 13 1 15
    endloop
  endfacet
  facet normal 0 0 1
    outer loop
      vertex -13 1 15
      vertex -3 19.9178 15
      vertex -4.56793 19.9178 15
    endloop
  endfacet
  facet normal 0 0 1
    outer loop
      vertex -13 1 15
      vertex -4.56793 19.9178 15
      vertex -7.63525 19.2658 15
    endloop
  endfacet
  facet normal 0 0 1
    outer loop
      vertex -13 1 15
      vertex -7.63525 19.2658 15
      vertex -10.5 17.9904 15
    endloop
  endfacet
  facet normal 0 0 1
    outer loop
      vertex -3 19.9178 15
      vertex -13 1 15
      vertex 13 1 15
    endloop
  endfacet
  facet normal -0 0 1
    outer loop
      vertex -13.037 16.1472 15
      vertex -13 1 15
      vertex -10.5 17.9904 15
    endloop
  endfacet
  facet normal -0 0 1
    outer loop
      vertex -15.1353 13.8168 15
      vertex -13 1 15
      vertex -13.037 16.1472 15
    endloop
  endfacet
  facet normal -0 0 1
    outer loop
      vertex -16.7032 11.101 15
      vertex -13 1 15
      vertex -15.1353 13.8168 15
    endloop
  endfacet
  facet normal -0 0 1
    outer loop
      vertex -17.6722 8.11868 15
      vertex -13 1 15
      vertex -16.7032 11.101 15
    endloop
  endfacet
  facet normal -0 0 1
    outer loop
      vertex -18 5 15
      vertex -13 1 15
      vertex -17.6722 8.11868 15
    endloop
  endfacet
  facet normal -0 -0 1
    outer loop
      vertex -17.6194 3.08658 15
      vertex -13 1 15
      vertex -18 5 15
    endloop
  endfacet
  facet normal 0 0 1
    outer loop
      vertex -13 1 15
      vertex -14.9134 0.380603 15
      vertex -13 0 15
    endloop
  endfacet
  facet normal 0 0 1
    outer loop
      vertex -13 1 15
      vertex -16.5355 1.46447 15
      vertex -14.9134 0.380603 15
    endloop
  endfacet
  facet normal 0 0 1
    outer loop
      vertex -13 1 15
      vertex -17.6194 3.08658 15
      vertex -16.5355 1.46447 15
    endloop
  endfacet
  facet normal 0 0 1
    outer loop
      vertex 13 1 15
      vertex 18 5 15
      vertex 17.6722 8.11868 15
    endloop
  endfacet
  facet normal 0 0 1
    outer loop
      vertex 13 1 15
      vertex 17.6722 8.11868 15
      vertex 16.7032 11.101 15
    endloop
  endfacet
  facet normal 0 0 1
    outer loop
      vertex 18 5 15
      vertex 13 1 15
      vertex 17.6194 3.08658 15
    endloop
  endfacet
  facet normal 0 0 1
    outer loop
      vertex 13 1 15
      vertex 16.7032 11.101 15
      vertex 15.1353 13.8168 15
    endloop
  endfacet
  facet normal 0 0 1
    outer loop
      vertex 17.6194 3.08658 15
      vertex 13 1 15
      vertex 16.5355 1.46447 15
    endloop
  endfacet
  facet normal 0 0 1
    outer loop
      vertex 13 1 15
      vertex 15.1353 13.8168 15
      vertex 13.037 16.1472 15
    endloop
  endfacet
  facet normal 0 0 1
    outer loop
      vertex 16.5355 1.46447 15
      vertex 13 1 15
      vertex 14.9134 0.380603 15
    endloop
  endfacet
  facet normal 0 0 1
    outer loop
      vertex 14.9134 0.380603 15
      vertex 13 1 15
      vertex 13 0 15
    endloop
  endfacet
  facet normal 0.83147 -0.55557 0
    outer loop
      vertex 16.5355 1.46447 15
      vertex 17.6194 3.08658 0
      vertex 17.6194 3.08658 15
    endloop
  endfacet
  facet normal 0.83147 -0.55557 0
    outer loop
      vertex 17.6194 3.08658 0
      vertex 16.5355 1.46447 15
      vertex 16.5355 1.46447 0
    endloop
  endfacet
  facet normal 0.55557 -0.83147 0
    outer loop
      vertex 14.9134 0.380603 0
      vertex 16.5355 1.46447 15
      vertex 14.9134 0.380603 15
    endloop
  endfacet
  facet normal 0.55557 -0.83147 0
    outer loop
      vertex 16.5355 1.46447 15
      vertex 14.9134 0.380603 0
      vertex 16.5355 1.46447 0
    endloop
  endfacet
  facet normal 0.980785 -0.195091 0
    outer loop
      vertex 17.6194 3.08658 15
      vertex 18 5 0
      vertex 18 5 15
    endloop
  endfacet
  facet normal 0.980785 -0.195091 0
    outer loop
      vertex 18 5 0
      vertex 17.6194 3.08658 15
      vertex 17.6194 3.08658 0
    endloop
  endfacet
  facet normal 0.994522 0.104528 0
    outer loop
      vertex 18 5 15
      vertex 17.6722 8.11868 0
      vertex 17.6722 8.11868 15
    endloop
  endfacet
  facet normal 0.994522 0.104528 0
    outer loop
      vertex 17.6722 8.11868 0
      vertex 18 5 15
      vertex 18 5 0
    endloop
  endfacet
  facet normal 0 1 -0
    outer loop
      vertex 4.56793 19.9178 0
      vertex 3 19.9178 15
      vertex 4.56793 19.9178 15
    endloop
  endfacet
  facet normal 0 1 0
    outer loop
      vertex 3 19.9178 15
      vertex 4.56793 19.9178 0
      vertex 3 19.9178 0
    endloop
  endfacet
  facet normal 0.743145 0.669131 0
    outer loop
      vertex 15.1353 13.8168 15
      vertex 13.037 16.1472 0
      vertex 13.037 16.1472 15
    endloop
  endfacet
  facet normal 0.743145 0.669131 0
    outer loop
      vertex 13.037 16.1472 0
      vertex 15.1353 13.8168 15
      vertex 15.1353 13.8168 0
    endloop
  endfacet
  facet normal 0.866025 0.5 0
    outer loop
      vertex 16.7032 11.101 15
      vertex 15.1353 13.8168 0
      vertex 15.1353 13.8168 15
    endloop
  endfacet
  facet normal 0.866025 0.5 0
    outer loop
      vertex 15.1353 13.8168 0
      vertex 16.7032 11.101 15
      vertex 16.7032 11.101 0
    endloop
  endfacet
  facet normal 0.951057 0.309017 0
    outer loop
      vertex 17.6722 8.11868 15
      vertex 16.7032 11.101 0
      vertex 16.7032 11.101 15
    endloop
  endfacet
  facet normal 0.951057 0.309017 0
    outer loop
      vertex 16.7032 11.101 0
      vertex 17.6722 8.11868 15
      vertex 17.6722 8.11868 0
    endloop
  endfacet
  facet normal 0.406737 0.913545 -0
    outer loop
      vertex 10.5 17.9904 0
      vertex 7.63525 19.2658 15
      vertex 10.5 17.9904 15
    endloop
  endfacet
  facet normal 0.406737 0.913545 0
    outer loop
      vertex 7.63525 19.2658 15
      vertex 10.5 17.9904 0
      vertex 7.63525 19.2658 0
    endloop
  endfacet
  facet normal 0.207912 0.978148 -0
    outer loop
      vertex 7.63525 19.2658 0
      vertex 4.56793 19.9178 15
      vertex 7.63525 19.2658 15
    endloop
  endfacet
  facet normal 0.207912 0.978148 0
    outer loop
      vertex 4.56793 19.9178 15
      vertex 7.63525 19.2658 0
      vertex 4.56793 19.9178 0
    endloop
  endfacet
  facet normal 0.587785 0.809017 -0
    outer loop
      vertex 13.037 16.1472 0
      vertex 10.5 17.9904 15
      vertex 13.037 16.1472 15
    endloop
  endfacet
  facet normal 0.587785 0.809017 0
    outer loop
      vertex 10.5 17.9904 15
      vertex 13.037 16.1472 0
      vertex 10.5 17.9904 0
    endloop
  endfacet
  facet normal 1 -0 0
    outer loop
      vertex 3 19.9178 15
      vertex 3 20 0
      vertex 3 20 15
    endloop
  endfacet
  facet normal 1 0 0
    outer loop
      vertex 3 20 0
      vertex 3 19.9178 15
      vertex 3 19.9178 0
    endloop
  endfacet
  facet normal 0 1 -0
    outer loop
      vertex 3 20 0
      vertex -3 20 15
      vertex 3 20 15
    endloop
  endfacet
  facet normal 0 1 0
    outer loop
      vertex -3 20 15
      vertex 3 20 0
      vertex -3 20 0
    endloop
  endfacet
  facet normal -0.195091 -0.980785 0
    outer loop
      vertex -14.9134 0.380603 0
      vertex -13 0 15
      vertex -14.9134 0.380603 15
    endloop
  endfacet
  facet normal -0.195091 -0.980785 -0
    outer loop
      vertex -13 0 15
      vertex -14.9134 0.380603 0
      vertex -13 0 0
    endloop
  endfacet
  facet normal -0.83147 -0.55557 0
    outer loop
      vertex -16.5355 1.46447 0
      vertex -17.6194 3.08658 15
      vertex -17.6194 3.08658 0
    endloop
  endfacet
  facet normal -0.83147 -0.55557 0
    outer loop
      vertex -17.6194 3.08658 15
      vertex -16.5355 1.46447 0
      vertex -16.5355 1.46447 15
    endloop
  endfacet
  facet normal -0.55557 -0.83147 0
    outer loop
      vertex -16.5355 1.46447 0
      vertex -14.9134 0.380603 15
      vertex -16.5355 1.46447 15
    endloop
  endfacet
  facet normal -0.55557 -0.83147 -0
    outer loop
      vertex -14.9134 0.380603 15
      vertex -16.5355 1.46447 0
      vertex -14.9134 0.380603 0
    endloop
  endfacet
  facet normal -0.980785 -0.195091 0
    outer loop
      vertex -17.6194 3.08658 0
      vertex -18 5 15
      vertex -18 5 0
    endloop
  endfacet
  facet normal -0.980785 -0.195091 0
    outer loop
      vertex -18 5 15
      vertex -17.6194 3.08658 0
      vertex -17.6194 3.08658 15
    endloop
  endfacet
  facet normal -0.994522 0.104528 0
    outer loop
      vertex -18 5 0
      vertex -17.6722 8.11868 15
      vertex -17.6722 8.11868 0
    endloop
  endfacet
  facet normal -0.994522 0.104528 0
    outer loop
      vertex -17.6722 8.11868 15
      vertex -18 5 0
      vertex -18 5 15
    endloop
  endfacet
  facet normal 0 1 -0
    outer loop
      vertex -3 19.9178 0
      vertex -4.56793 19.9178 15
      vertex -3 19.9178 15
    endloop
  endfacet
  facet normal 0 1 0
    outer loop
      vertex -4.56793 19.9178 15
      vertex -3 19.9178 0
      vertex -4.56793 19.9178 0
    endloop
  endfacet
  facet normal -0.743145 0.669131 0
    outer loop
      vertex -15.1353 13.8168 0
      vertex -13.037 16.1472 15
      vertex -13.037 16.1472 0
    endloop
  endfacet
  facet normal -0.743145 0.669131 0
    outer loop
      vertex -13.037 16.1472 15
      vertex -15.1353 13.8168 0
      vertex -15.1353 13.8168 15
    endloop
  endfacet
  facet normal -0.866025 0.5 0
    outer loop
      vertex -16.7032 11.101 0
      vertex -15.1353 13.8168 15
      vertex -15.1353 13.8168 0
    endloop
  endfacet
  facet normal -0.866025 0.5 0
    outer loop
      vertex -15.1353 13.8168 15
      vertex -16.7032 11.101 0
      vertex -16.7032 11.101 15
    endloop
  endfacet
  facet normal -0.951057 0.309017 0
    outer loop
      vertex -17.6722 8.11868 0
      vertex -16.7032 11.101 15
      vertex -16.7032 11.101 0
    endloop
  endfacet
  facet normal -0.951057 0.309017 0
    outer loop
      vertex -16.7032 11.101 15
      vertex -17.6722 8.11868 0
      vertex -17.6722 8.11868 15
    endloop
  endfacet
  facet normal -0.406737 0.913545 0
    outer loop
      vertex -7.63525 19.2658 0
      vertex -10.5 17.9904 15
      vertex -7.63525 19.2658 15
    endloop
  endfacet
  facet normal -0.406737 0.913545 0
    outer loop
      vertex -10.5 17.9904 15
      vertex -7.63525 19.2658 0
      vertex -10.5 17.9904 0
    endloop
  endfacet
  facet normal -0.207912 0.978148 0
    outer loop
      vertex -4.56793 19.9178 0
      vertex -7.63525 19.2658 15
      vertex -4.56793 19.9178 15
    endloop
  endfacet
  facet normal -0.207912 0.978148 0
    outer loop
      vertex -7.63525 19.2658 15
      vertex -4.56793 19.9178 0
      vertex -7.63525 19.2658 0
    endloop
  endfacet
  facet normal -0.587785 0.809017 0
    outer loop
      vertex -10.5 17.9904 0
      vertex -13.037 16.1472 15
      vertex -10.5 17.9904 15
    endloop
  endfacet
  facet normal -0.587785 0.809017 0
    outer loop
      vertex -13.037 16.1472 15
      vertex -10.5 17.9904 0
      vertex -13.037 16.1472 0
    endloop
  endfacet
  facet normal -1 0 0
    outer loop
      vertex -3 19.9178 0
      vertex -3 20 15
      vertex -3 20 0
    endloop
  endfacet
  facet normal -1 -0 0
    outer loop
      vertex -3 20 15
      vertex -3 19.9178 0
      vertex -3 19.9178 15
    endloop
  endfacet
  facet normal 1 -0 0
    outer loop
      vertex 5 1 0
      vertex 5 5 -15
      vertex 5 5 0
    endloop
  endfacet
  facet normal 1 0 0
    outer loop
      vertex 5 5 -15
      vertex 5 1 0
      vertex 5 1 -15
    endloop
  endfacet
  facet normal 0 0 -1
    outer loop
      vertex -5 1 -15
      vertex 5 5 -15
      vertex 5 1 -15
    endloop
  endfacet
  facet normal -0 0 -1
    outer loop
      vertex 5 5 -15
      vertex -5 1 -15
      vertex -5 5 -15
    endloop
  endfacet
  facet normal 0 -1 0
    outer loop
      vertex -5 1 0
      vertex 0 1 -8.3
      vertex 5 1 0
    endloop
  endfacet
  facet normal 0 -1 0
    outer loop
      vertex -5 1 0
      vertex -0.849999 1 -8.52776
      vertex 0 1 -8.3
    endloop
  endfacet
  facet normal 0 -1 0
    outer loop
      vertex -5 1 0
      vertex -1.47224 1 -9.15
      vertex -0.849999 1 -8.52776
    endloop
  endfacet
  facet normal 0 -1 0
    outer loop
      vertex -5 1 0
      vertex -1.5102 1 -9.29167
      vertex -1.47224 1 -9.15
    endloop
  endfacet
  facet normal 0 -1 0
    outer loop
      vertex -5 1 0
      vertex -1.7 1 -10
      vertex -1.5102 1 -9.29167
    endloop
  endfacet
  facet normal 0 -1 0
    outer loop
      vertex -5 1 -15
      vertex -1.7 1 -10
      vertex -5 1 0
    endloop
  endfacet
  facet normal 0 -1 -0
    outer loop
      vertex -1.7 1 -10
      vertex -5 1 -15
      vertex -1.66204 1 -10.1417
    endloop
  endfacet
  facet normal 0 -1 -0
    outer loop
      vertex -0.849999 1 -11.4722
      vertex -5 1 -15
      vertex 0 1 -11.7
    endloop
  endfacet
  facet normal 0 -1 -0
    outer loop
      vertex -1.47224 1 -10.85
      vertex -5 1 -15
      vertex -0.849999 1 -11.4722
    endloop
  endfacet
  facet normal 0 -1 -0
    outer loop
      vertex -1.66204 1 -10.1417
      vertex -5 1 -15
      vertex -1.47224 1 -10.85
    endloop
  endfacet
  facet normal 0 -1 0
    outer loop
      vertex 0.849999 1 -8.52776
      vertex 5 1 0
      vertex 0 1 -8.3
    endloop
  endfacet
  facet normal 0 -1 0
    outer loop
      vertex 1.47224 1 -9.15
      vertex 5 1 0
      vertex 0.849999 1 -8.52776
    endloop
  endfacet
  facet normal 0 -1 0
    outer loop
      vertex 1.5102 1 -9.29167
      vertex 5 1 0
      vertex 1.47224 1 -9.15
    endloop
  endfacet
  facet normal 0 -1 0
    outer loop
      vertex 1.7 1 -10
      vertex 5 1 0
      vertex 1.5102 1 -9.29167
    endloop
  endfacet
  facet normal 0 -1 0
    outer loop
      vertex 5 1 -15
      vertex 1.7 1 -10
      vertex 1.66204 1 -10.1417
    endloop
  endfacet
  facet normal 0 -1 0
    outer loop
      vertex 5 1 -15
      vertex 1.66204 1 -10.1417
      vertex 1.47224 1 -10.85
    endloop
  endfacet
  facet normal 0 -1 0
    outer loop
      vertex 5 1 -15
      vertex 0 1 -11.7
      vertex -5 1 -15
    endloop
  endfacet
  facet normal 0 -1 0
    outer loop
      vertex 1.7 1 -10
      vertex 5 1 -15
      vertex 5 1 0
    endloop
  endfacet
  facet normal 0 -1 0
    outer loop
      vertex 0.849999 1 -11.4722
      vertex 5 1 -15
      vertex 1.47224 1 -10.85
    endloop
  endfacet
  facet normal 0 -1 0
    outer loop
      vertex 0 1 -11.7
      vertex 5 1 -15
      vertex 0.849999 1 -11.4722
    endloop
  endfacet
  facet normal -1 0 0
    outer loop
      vertex -5 1 -15
      vertex -5 5 0
      vertex -5 5 -15
    endloop
  endfacet
  facet normal -1 -0 0
    outer loop
      vertex -5 5 0
      vertex -5 1 -15
      vertex -5 1 0
    endloop
  endfacet
  facet normal 0 1 0
    outer loop
      vertex 5 5 0
      vertex 1.7 5 -7.05551
      vertex -5 5 0
    endloop
  endfacet
  facet normal 0 1 0
    outer loop
      vertex 5 5 0
      vertex 2.26667 5 -8.03701
      vertex 1.7 5 -7.05551
    endloop
  endfacet
  facet normal 0 1 0
    outer loop
      vertex 5 5 0
      vertex 3.4 5 -10
      vertex 2.26667 5 -8.03701
    endloop
  endfacet
  facet normal 0 1 0
    outer loop
      vertex 5 5 -15
      vertex 2.83333 5 -10.9815
      vertex 3.4 5 -10
    endloop
  endfacet
  facet normal 0 1 0
    outer loop
      vertex 1.7 5 -12.9445
      vertex 5 5 -15
      vertex -1.7 5 -12.9445
    endloop
  endfacet
  facet normal 0 1 0
    outer loop
      vertex 2.83333 5 -10.9815
      vertex 5 5 -15
      vertex 1.7 5 -12.9445
    endloop
  endfacet
  facet normal 0 1 -0
    outer loop
      vertex 5 5 -15
      vertex 3.4 5 -10
      vertex 5 5 0
    endloop
  endfacet
  facet normal 0 1 -0
    outer loop
      vertex -1.7 5 -7.05551
      vertex -5 5 0
      vertex 1.7 5 -7.05551
    endloop
  endfacet
  facet normal 0 1 -0
    outer loop
      vertex -2.26667 5 -8.03701
      vertex -5 5 0
      vertex -1.7 5 -7.05551
    endloop
  endfacet
  facet normal 0 1 -0
    outer loop
      vertex -3.4 5 -10
      vertex -5 5 0
      vertex -2.26667 5 -8.03701
    endloop
  endfacet
  facet normal 0 1 0
    outer loop
      vertex -5 5 -15
      vertex -2.83333 5 -10.9815
      vertex -1.7 5 -12.9445
    endloop
  endfacet
  facet normal 0 1 0
    outer loop
      vertex -3.4 5 -10
      vertex -5 5 -15
      vertex -5 5 0
    endloop
  endfacet
  facet normal 0 1 0
    outer loop
      vertex -2.83333 5 -10.9815
      vertex -5 5 -15
      vertex -3.4 5 -10
    endloop
  endfacet
  facet normal 0 1 0
    outer loop
      vertex -5 5 -15
      vertex -1.7 5 -12.9445
      vertex 5 5 -15
    endloop
  endfacet
  facet normal -0.965926 0 0.25882
    outer loop
      vertex 1.47224 1 -10.85
      vertex 1.58612 3 -10.425
      vertex 1.47224 3 -10.85
    endloop
  endfacet
  facet normal -0.965926 -4.9366e-08 0.25882
    outer loop
      vertex 1.58612 3 -10.425
      vertex 1.47224 1 -10.85
      vertex 1.66204 1 -10.1417
    endloop
  endfacet
  facet normal -0.965926 0 0.25882
    outer loop
      vertex 1.66204 1 -10.1417
      vertex 1.7 3 -10
      vertex 1.58612 3 -10.425
    endloop
  endfacet
  facet normal -0.965926 0 0.25882
    outer loop
      vertex 1.7 3 -10
      vertex 1.66204 1 -10.1417
      vertex 1.7 1 -10
    endloop
  endfacet
  facet normal -0.25882 0 0.965926
    outer loop
      vertex 0 3 -11.7
      vertex 0.849999 1 -11.4722
      vertex 0.849999 3 -11.4722
    endloop
  endfacet
  facet normal -0.25882 0 0.965926
    outer loop
      vertex 0.849999 1 -11.4722
      vertex 0 3 -11.7
      vertex 0 1 -11.7
    endloop
  endfacet
  facet normal -0.707107 0 0.707107
    outer loop
      vertex 0.849999 1 -11.4722
      vertex 1.47224 3 -10.85
      vertex 0.849999 3 -11.4722
    endloop
  endfacet
  facet normal -0.707107 0 0.707107
    outer loop
      vertex 1.47224 3 -10.85
      vertex 0.849999 1 -11.4722
      vertex 1.47224 1 -10.85
    endloop
  endfacet
  facet normal 0.965926 9.87318e-08 -0.25882
    outer loop
      vertex -1.7 1 -10
      vertex -1.58612 3 -9.575
      vertex -1.5102 1 -9.29167
    endloop
  endfacet
  facet normal 0.965926 0 -0.258819
    outer loop
      vertex -1.58612 3 -9.575
      vertex -1.7 1 -10
      vertex -1.7 3 -10
    endloop
  endfacet
  facet normal -0.25882 0 -0.965926
    outer loop
      vertex 0 1 -8.3
      vertex 0.849999 3 -8.52776
      vertex 0.849999 1 -8.52776
    endloop
  endfacet
  facet normal -0.25882 0 -0.965926
    outer loop
      vertex 0.849999 3 -8.52776
      vertex 0 1 -8.3
      vertex 0 3 -8.3
    endloop
  endfacet
  facet normal -0.965926 0 -0.258819
    outer loop
      vertex 1.7 1 -10
      vertex 1.58612 3 -9.575
      vertex 1.7 3 -10
    endloop
  endfacet
  facet normal -0.965926 9.87318e-08 -0.25882
    outer loop
      vertex 1.58612 3 -9.575
      vertex 1.7 1 -10
      vertex 1.5102 1 -9.29167
    endloop
  endfacet
  facet normal 0.965926 -4.9366e-08 0.25882
    outer loop
      vertex -1.47224 1 -10.85
      vertex -1.58612 3 -10.425
      vertex -1.66204 1 -10.1417
    endloop
  endfacet
  facet normal 0.965926 0 0.25882
    outer loop
      vertex -1.58612 3 -10.425
      vertex -1.47224 1 -10.85
      vertex -1.47224 3 -10.85
    endloop
  endfacet
  facet normal 0.965926 0 0.25882
    outer loop
      vertex -1.66204 1 -10.1417
      vertex -1.7 3 -10
      vertex -1.7 1 -10
    endloop
  endfacet
  facet normal 0.965926 0 0.25882
    outer loop
      vertex -1.7 3 -10
      vertex -1.66204 1 -10.1417
      vertex -1.58612 3 -10.425
    endloop
  endfacet
  facet normal 0.965926 0 -0.25882
    outer loop
      vertex -1.5102 1 -9.29167
      vertex -1.47224 3 -9.15
      vertex -1.47224 1 -9.15
    endloop
  endfacet
  facet normal 0.965926 0 -0.25882
    outer loop
      vertex -1.47224 3 -9.15
      vertex -1.5102 1 -9.29167
      vertex -1.58612 3 -9.575
    endloop
  endfacet
  facet normal 0.707107 0 -0.707107
    outer loop
      vertex -0.849999 1 -8.52776
      vertex -1.47224 3 -9.15
      vertex -0.849999 3 -8.52776
    endloop
  endfacet
  facet normal 0.707107 0 -0.707107
    outer loop
      vertex -1.47224 3 -9.15
      vertex -0.849999 1 -8.52776
      vertex -1.47224 1 -9.15
    endloop
  endfacet
  facet normal 0.25882 0 -0.965926
    outer loop
      vertex -0.849999 1 -8.52776
      vertex 0 3 -8.3
      vertex 0 1 -8.3
    endloop
  endfacet
  facet normal 0.25882 0 -0.965926
    outer loop
      vertex 0 3 -8.3
      vertex -0.849999 1 -8.52776
      vertex -0.849999 3 -8.52776
    endloop
  endfacet
  facet normal 0.25882 0 0.965926
    outer loop
      vertex -0.849999 3 -11.4722
      vertex 0 1 -11.7
      vertex 0 3 -11.7
    endloop
  endfacet
  facet normal 0.25882 0 0.965926
    outer loop
      vertex 0 1 -11.7
      vertex -0.849999 3 -11.4722
      vertex -0.849999 1 -11.4722
    endloop
  endfacet
  facet normal -0.707107 0 -0.707107
    outer loop
      vertex 1.47224 1 -9.15
      vertex 0.849999 3 -8.52776
      vertex 1.47224 3 -9.15
    endloop
  endfacet
  facet normal -0.707107 -0 -0.707107
    outer loop
      vertex 0.849999 3 -8.52776
      vertex 1.47224 1 -9.15
      vertex 0.849999 1 -8.52776
    endloop
  endfacet
  facet normal -0.965926 0 -0.25882
    outer loop
      vertex 1.5102 1 -9.29167
      vertex 1.47224 3 -9.15
      vertex 1.58612 3 -9.575
    endloop
  endfacet
  facet normal -0.965926 -0 -0.25882
    outer loop
      vertex 1.47224 3 -9.15
      vertex 1.5102 1 -9.29167
      vertex 1.47224 1 -9.15
    endloop
  endfacet
  facet normal 0.707107 -0 0.707107
    outer loop
      vertex -1.47224 1 -10.85
      vertex -0.849999 3 -11.4722
      vertex -1.47224 3 -10.85
    endloop
  endfacet
  facet normal 0.707107 0 0.707107
    outer loop
      vertex -0.849999 3 -11.4722
      vertex -1.47224 1 -10.85
      vertex -0.849999 1 -11.4722
    endloop
  endfacet
  facet normal -0.866025 0 0.5
    outer loop
      vertex 1.7 3 -12.9445
      vertex 2.83333 5 -10.9815
      vertex 1.7 5 -12.9445
    endloop
  endfacet
  facet normal -0.866025 -7.94729e-08 0.5
    outer loop
      vertex 2.83333 5 -10.9815
      vertex 1.7 3 -12.9445
      vertex 3.4 3 -10
    endloop
  endfacet
  facet normal -0.866025 0 0.5
    outer loop
      vertex 3.4 3 -10
      vertex 3.4 5 -10
      vertex 2.83333 5 -10.9815
    endloop
  endfacet
  facet normal -2.80492e-07 1 1.61942e-07
    outer loop
      vertex 3.4 3 -10
      vertex 1.7 3 -10
      vertex 1.7 3 -7.05551
    endloop
  endfacet
  facet normal -2.80492e-07 1 1.61942e-07
    outer loop
      vertex 1.7 3 -10
      vertex 3.4 3 -10
      vertex 1.7 3 -12.9445
    endloop
  endfacet
  facet normal -0.866025 0 -0.5
    outer loop
      vertex 3.4 3 -10
      vertex 2.26667 5 -8.03701
      vertex 3.4 5 -10
    endloop
  endfacet
  facet normal -0.866025 2.37654e-08 -0.5
    outer loop
      vertex 2.26667 5 -8.03701
      vertex 3.4 3 -10
      vertex 1.7 3 -7.05551
    endloop
  endfacet
  facet normal -0 0 1
    outer loop
      vertex -1.7 5 -12.9445
      vertex 1.7 3 -12.9445
      vertex 1.7 5 -12.9445
    endloop
  endfacet
  facet normal 0 0 1
    outer loop
      vertex 1.7 3 -12.9445
      vertex -1.7 5 -12.9445
      vertex -1.7 3 -12.9445
    endloop
  endfacet
  facet normal 0.866025 0 0.5
    outer loop
      vertex -2.83333 5 -10.9815
      vertex -3.4 5 -10
      vertex -3.4 3 -10
    endloop
  endfacet
  facet normal 0.866025 -7.94729e-08 0.5
    outer loop
      vertex -1.7 3 -12.9445
      vertex -2.83333 5 -10.9815
      vertex -3.4 3 -10
    endloop
  endfacet
  facet normal 0.866025 0 0.5
    outer loop
      vertex -2.83333 5 -10.9815
      vertex -1.7 3 -12.9445
      vertex -1.7 5 -12.9445
    endloop
  endfacet
  facet normal 0.866025 0 -0.5
    outer loop
      vertex -1.7 5 -7.05551
      vertex -1.7 3 -7.05551
      vertex -2.26667 5 -8.03701
    endloop
  endfacet
  facet normal -6.04375e-07 1 1.61942e-07
    outer loop
      vertex 1.7 3 -12.9445
      vertex 1.58612 3 -10.425
      vertex 1.7 3 -10
    endloop
  endfacet
  facet normal -3.7579e-08 1 1.40246e-07
    outer loop
      vertex 0.849999 3 -11.4722
      vertex 1.7 3 -12.9445
      vertex 0 3 -11.7
    endloop
  endfacet
  facet normal -1.02667e-07 1 1.02667e-07
    outer loop
      vertex 1.47224 3 -10.85
      vertex 1.7 3 -12.9445
      vertex 0.849999 3 -11.4722
    endloop
  endfacet
  facet normal 1.18705e-06 1 2.42914e-07
    outer loop
      vertex 1.58612 3 -10.425
      vertex 1.7 3 -12.9445
      vertex 1.47224 3 -10.85
    endloop
  endfacet
  facet normal -1.18705e-06 1 2.42914e-07
    outer loop
      vertex -1.7 3 -12.9445
      vertex -1.58612 3 -10.425
      vertex -1.47224 3 -10.85
    endloop
  endfacet
  facet normal -0 1 1.9158e-07
    outer loop
      vertex -1.7 3 -12.9445
      vertex 0 3 -11.7
      vertex 1.7 3 -12.9445
    endloop
  endfacet
  facet normal 6.04375e-07 1 1.61942e-07
    outer loop
      vertex -1.58612 3 -10.425
      vertex -1.7 3 -12.9445
      vertex -1.7 3 -10
    endloop
  endfacet
  facet normal 1.02667e-07 1 1.02667e-07
    outer loop
      vertex -0.849999 3 -11.4722
      vertex -1.7 3 -12.9445
      vertex -1.47224 3 -10.85
    endloop
  endfacet
  facet normal 3.7579e-08 1 1.40246e-07
    outer loop
      vertex 0 3 -11.7
      vertex -1.7 3 -12.9445
      vertex -0.849999 3 -11.4722
    endloop
  endfacet
  facet normal 0 1 1.9158e-07
    outer loop
      vertex 1.7 3 -7.05551
      vertex 0 3 -8.3
      vertex -1.7 3 -7.05551
    endloop
  endfacet
  facet normal 3.7579e-08 1 1.40246e-07
    outer loop
      vertex 1.7 3 -7.05551
      vertex 0.849999 3 -8.52776
      vertex 0 3 -8.3
    endloop
  endfacet
  facet normal 1.02667e-07 1 1.02667e-07
    outer loop
      vertex 1.7 3 -7.05551
      vertex 1.47224 3 -9.15
      vertex 0.849999 3 -8.52776
    endloop
  endfacet
  facet normal -1.18706e-06 1 2.42914e-07
    outer loop
      vertex 1.7 3 -7.05551
      vertex 1.58612 3 -9.575
      vertex 1.47224 3 -9.15
    endloop
  endfacet
  facet normal 6.04377e-07 1 1.61942e-07
    outer loop
      vertex 1.58612 3 -9.575
      vertex 1.7 3 -7.05551
      vertex 1.7 3 -10
    endloop
  endfacet
  facet normal -3.7579e-08 1 1.40246e-07
    outer loop
      vertex -0.849999 3 -8.52776
      vertex -1.7 3 -7.05551
      vertex 0 3 -8.3
    endloop
  endfacet
  facet normal -1.02667e-07 1 1.02667e-07
    outer loop
      vertex -1.47224 3 -9.15
      vertex -1.7 3 -7.05551
      vertex -0.849999 3 -8.52776
    endloop
  endfacet
  facet normal 1.18706e-06 1 2.42914e-07
    outer loop
      vertex -1.58612 3 -9.575
      vertex -1.7 3 -7.05551
      vertex -1.47224 3 -9.15
    endloop
  endfacet
  facet normal -6.04377e-07 1 1.61942e-07
    outer loop
      vertex -1.7 3 -7.05551
      vertex -1.58612 3 -9.575
      vertex -1.7 3 -10
    endloop
  endfacet
  facet normal 0 0 -1
    outer loop
      vertex -1.7 3 -7.05551
      vertex 1.7 5 -7.05551
      vertex 1.7 3 -7.05551
    endloop
  endfacet
  facet normal -0 0 -1
    outer loop
      vertex 1.7 5 -7.05551
      vertex -1.7 3 -7.05551
      vertex -1.7 5 -7.05551
    endloop
  endfacet
  facet normal 2.80492e-07 1 1.61942e-07
    outer loop
      vertex -1.7 3 -10
      vertex -3.4 3 -10
      vertex -1.7 3 -7.05551
    endloop
  endfacet
  facet normal 2.80492e-07 1 1.61942e-07
    outer loop
      vertex -3.4 3 -10
      vertex -1.7 3 -10
      vertex -1.7 3 -12.9445
    endloop
  endfacet
  facet normal 0.866025 0 -0.5
    outer loop
      vertex -2.26667 5 -8.03701
      vertex -3.4 3 -10
      vertex -3.4 5 -10
    endloop
  endfacet
  facet normal 0.866025 2.37654e-08 -0.5
    outer loop
      vertex -3.4 3 -10
      vertex -2.26667 5 -8.03701
      vertex -1.7 3 -7.05551
    endloop
  endfacet
  facet normal -0.866025 -0 -0.5
    outer loop
      vertex 1.7 5 -7.05551
      vertex 2.26667 5 -8.03701
      vertex 1.7 3 -7.05551
    endloop
  endfacet
  facet normal 1 -0 0
    outer loop
      vertex -13 0 15
      vertex -13 1 0
      vertex -13 1 15
    endloop
  endfacet
  facet normal 1 0 0
    outer loop
      vertex -13 1 0
      vertex -13 0 15
      vertex -13 0 0
    endloop
  endfacet
  facet normal -1 0 0
    outer loop
      vertex 13 0 0
      vertex 13 1 15
      vertex 13 1 0
    endloop
  endfacet
  facet normal -1 -0 0
    outer loop
      vertex 13 1 15
      vertex 13 0 0
      vertex 13 0 15
    endloop
  endfacet
  facet normal 0 -1 0
    outer loop
      vertex -5 1 0
      vertex -13 1 15
      vertex -13 1 0
    endloop
  endfacet
  facet normal 0 -1 0
    outer loop
      vertex -13 1 15
      vertex -5 1 0
      vertex 13 1 15
    endloop
  endfacet
  facet normal 0 -1 0
    outer loop
      vertex 5 1 0
      vertex 13 1 15
      vertex -5 1 0
    endloop
  endfacet
  facet normal 0 -1 -0
    outer loop
      vertex 13 1 15
      vertex 5 1 0
      vertex 13 1 0
    endloop
  endfacet
endsolid OpenSCAD_Model
