solid OpenSCAD_Model
  facet normal 1 0 0
    outer loop
      vertex -21 -2 1.5
      vertex -21 2 1.5
      vertex -21 2 4
    endloop
  endfacet
  facet normal 1 0 0
    outer loop
      vertex -21 -2 1.5
      vertex -21 2 4
      vertex -21 -2 4
    endloop
  endfacet
  facet normal 1 0 0
    outer loop
      vertex -21 2 1.5
      vertex -21 -2 1.5
      vertex -21 2 0
    endloop
  endfacet
  facet normal 1 0 0
    outer loop
      vertex -21 2 0
      vertex -21 -2 1.5
      vertex -21 -2 0
    endloop
  endfacet
  facet normal -0 0 1
    outer loop
      vertex 21 -2 1.5
      vertex 29 -5 1.5
      vertex 29 -2 1.5
    endloop
  endfacet
  facet normal -0 0 1
    outer loop
      vertex 3 -2 1.5
      vertex 29 -5 1.5
      vertex 21 -2 1.5
    endloop
  endfacet
  facet normal -0 0 1
    outer loop
      vertex -3 -2 1.5
      vertex 29 -5 1.5
      vertex 3 -2 1.5
    endloop
  endfacet
  facet normal 0 0 1
    outer loop
      vertex -29 -5 1.5
      vertex -3 -2 1.5
      vertex -21 -2 1.5
    endloop
  endfacet
  facet normal 0 0 1
    outer loop
      vertex -29 -5 1.5
      vertex -21 -2 1.5
      vertex -29 -2 1.5
    endloop
  endfacet
  facet normal 0 0 1
    outer loop
      vertex -3 -2 1.5
      vertex -29 -5 1.5
      vertex 29 -5 1.5
    endloop
  endfacet
  facet normal 0 0 1
    outer loop
      vertex 29 5 1.5
      vertex 21 2 1.5
      vertex 29 2 1.5
    endloop
  endfacet
  facet normal 0 0 1
    outer loop
      vertex 29 5 1.5
      vertex 3 2 1.5
      vertex 21 2 1.5
    endloop
  endfacet
  facet normal 0 0 1
    outer loop
      vertex 29 5 1.5
      vertex -3 2 1.5
      vertex 3 2 1.5
    endloop
  endfacet
  facet normal -0 0 1
    outer loop
      vertex -29 5 1.5
      vertex -3 2 1.5
      vertex 29 5 1.5
    endloop
  endfacet
  facet normal 0 0 1
    outer loop
      vertex -3 2 1.5
      vertex -29 5 1.5
      vertex -21 2 1.5
    endloop
  endfacet
  facet normal 0 0 1
    outer loop
      vertex -21 2 1.5
      vertex -29 5 1.5
      vertex -29 2 1.5
    endloop
  endfacet
  facet normal -1 0 0
    outer loop
      vertex 21 -2 1.5
      vertex 21 2 1.5
      vertex 21 2 0
    endloop
  endfacet
  facet normal -1 0 0
    outer loop
      vertex 21 -2 1.5
      vertex 21 2 0
      vertex 21 -2 0
    endloop
  endfacet
  facet normal -1 0 0
    outer loop
      vertex 21 2 1.5
      vertex 21 -2 1.5
      vertex 21 2 4
    endloop
  endfacet
  facet normal -1 -0 0
    outer loop
      vertex 21 2 4
      vertex 21 -2 1.5
      vertex 21 -2 4
    endloop
  endfacet
  facet normal 0 1 -0
    outer loop
      vertex 29 5 0
      vertex -29 5 1.5
      vertex 29 5 1.5
    endloop
  endfacet
  facet normal 0 1 0
    outer loop
      vertex -29 5 1.5
      vertex 29 5 0
      vertex -29 5 0
    endloop
  endfacet
  facet normal 0 0 -1
    outer loop
      vertex 29 -5 0
      vertex 26.65 0 0
      vertex 29 5 0
    endloop
  endfacet
  facet normal 0 0 -1
    outer loop
      vertex 29 -5 0
      vertex 26.6249 -0.286519 0
      vertex 26.65 0 0
    endloop
  endfacet
  facet normal 0 0 -1
    outer loop
      vertex 29 -5 0
      vertex 26.5505 -0.564333 0
      vertex 26.6249 -0.286519 0
    endloop
  endfacet
  facet normal 0 0 -1
    outer loop
      vertex 29 -5 0
      vertex 26.4289 -0.825 0
      vertex 26.5505 -0.564333 0
    endloop
  endfacet
  facet normal 0 0 -1
    outer loop
      vertex 29 -5 0
      vertex 26.264 -1.0606 0
      vertex 26.4289 -0.825 0
    endloop
  endfacet
  facet normal 0 0 -1
    outer loop
      vertex 29 -5 0
      vertex 26.0606 -1.26397 0
      vertex 26.264 -1.0606 0
    endloop
  endfacet
  facet normal 0 0 -1
    outer loop
      vertex 29 -5 0
      vertex 25.825 -1.42894 0
      vertex 26.0606 -1.26397 0
    endloop
  endfacet
  facet normal 0 0 -1
    outer loop
      vertex 29 -5 0
      vertex 25.5643 -1.55049 0
      vertex 25.825 -1.42894 0
    endloop
  endfacet
  facet normal 0 0 -1
    outer loop
      vertex 29 -5 0
      vertex 25.2865 -1.62493 0
      vertex 25.5643 -1.55049 0
    endloop
  endfacet
  facet normal 0 0 -1
    outer loop
      vertex 29 -5 0
      vertex 25 -1.65 0
      vertex 25.2865 -1.62493 0
    endloop
  endfacet
  facet normal 0 0 -1
    outer loop
      vertex 29 -5 0
      vertex 24.7135 -1.62493 0
      vertex 25 -1.65 0
    endloop
  endfacet
  facet normal 0 0 -1
    outer loop
      vertex 21 -2 0
      vertex 24.7135 -1.62493 0
      vertex 29 -5 0
    endloop
  endfacet
  facet normal -0 0 -1
    outer loop
      vertex 24.7135 -1.62493 0
      vertex 21 -2 0
      vertex 24.4357 -1.55049 0
    endloop
  endfacet
  facet normal -0 0 -1
    outer loop
      vertex 24.4357 -1.55049 0
      vertex 21 -2 0
      vertex 24.175 -1.42894 0
    endloop
  endfacet
  facet normal -0 0 -1
    outer loop
      vertex 23.3751 -0.286519 0
      vertex 21 -2 0
      vertex 23.35 0 0
    endloop
  endfacet
  facet normal -0 0 -1
    outer loop
      vertex 23.4495 -0.564333 0
      vertex 21 -2 0
      vertex 23.3751 -0.286519 0
    endloop
  endfacet
  facet normal -0 0 -1
    outer loop
      vertex 23.5711 -0.825 0
      vertex 21 -2 0
      vertex 23.4495 -0.564333 0
    endloop
  endfacet
  facet normal -0 0 -1
    outer loop
      vertex 23.736 -1.0606 0
      vertex 21 -2 0
      vertex 23.5711 -0.825 0
    endloop
  endfacet
  facet normal -0 0 -1
    outer loop
      vertex 23.9394 -1.26397 0
      vertex 21 -2 0
      vertex 23.736 -1.0606 0
    endloop
  endfacet
  facet normal -0 0 -1
    outer loop
      vertex 24.175 -1.42894 0
      vertex 21 -2 0
      vertex 23.9394 -1.26397 0
    endloop
  endfacet
  facet normal 0 0 -1
    outer loop
      vertex 29 -5 0
      vertex 3 -2 0
      vertex 21 -2 0
    endloop
  endfacet
  facet normal 0 0 -1
    outer loop
      vertex 3 -2 0
      vertex -3 -2 0
      vertex 3 2 0
    endloop
  endfacet
  facet normal 0 0 -1
    outer loop
      vertex 29 -5 0
      vertex -3 -2 0
      vertex 3 -2 0
    endloop
  endfacet
  facet normal 0 0 -1
    outer loop
      vertex -29 -5 0
      vertex -3 -2 0
      vertex 29 -5 0
    endloop
  endfacet
  facet normal 0 0 -1
    outer loop
      vertex -21 -2 0
      vertex -23.35 0 0
      vertex -21 2 0
    endloop
  endfacet
  facet normal 0 0 -1
    outer loop
      vertex -21 -2 0
      vertex -23.3751 -0.286519 0
      vertex -23.35 0 0
    endloop
  endfacet
  facet normal 0 0 -1
    outer loop
      vertex -21 -2 0
      vertex -23.4495 -0.564333 0
      vertex -23.3751 -0.286519 0
    endloop
  endfacet
  facet normal 0 0 -1
    outer loop
      vertex -21 -2 0
      vertex -23.5711 -0.825 0
      vertex -23.4495 -0.564333 0
    endloop
  endfacet
  facet normal 0 0 -1
    outer loop
      vertex -21 -2 0
      vertex -23.736 -1.0606 0
      vertex -23.5711 -0.825 0
    endloop
  endfacet
  facet normal 0 0 -1
    outer loop
      vertex -21 -2 0
      vertex -23.9394 -1.26397 0
      vertex -23.736 -1.0606 0
    endloop
  endfacet
  facet normal 0 0 -1
    outer loop
      vertex -21 -2 0
      vertex -24.175 -1.42894 0
      vertex -23.9394 -1.26397 0
    endloop
  endfacet
  facet normal 0 0 -1
    outer loop
      vertex -21 -2 0
      vertex -24.4357 -1.55049 0
      vertex -24.175 -1.42894 0
    endloop
  endfacet
  facet normal 0 0 -1
    outer loop
      vertex -21 -2 0
      vertex -24.7135 -1.62493 0
      vertex -24.4357 -1.55049 0
    endloop
  endfacet
  facet normal 0 0 -1
    outer loop
      vertex -29 -5 0
      vertex -24.7135 -1.62493 0
      vertex -21 -2 0
    endloop
  endfacet
  facet normal 0 0 -1
    outer loop
      vertex -24.7135 -1.62493 0
      vertex -29 -5 0
      vertex -25 -1.65 0
    endloop
  endfacet
  facet normal -0 0 -1
    outer loop
      vertex -26.6249 -0.286519 0
      vertex -29 -5 0
      vertex -26.65 0 0
    endloop
  endfacet
  facet normal -0 0 -1
    outer loop
      vertex -26.5505 -0.564333 0
      vertex -29 -5 0
      vertex -26.6249 -0.286519 0
    endloop
  endfacet
  facet normal -0 0 -1
    outer loop
      vertex -26.4289 -0.825 0
      vertex -29 -5 0
      vertex -26.5505 -0.564333 0
    endloop
  endfacet
  facet normal -0 0 -1
    outer loop
      vertex -26.264 -1.0606 0
      vertex -29 -5 0
      vertex -26.4289 -0.825 0
    endloop
  endfacet
  facet normal -0 0 -1
    outer loop
      vertex -26.0606 -1.26397 0
      vertex -29 -5 0
      vertex -26.264 -1.0606 0
    endloop
  endfacet
  facet normal -0 0 -1
    outer loop
      vertex -25.825 -1.42894 0
      vertex -29 -5 0
      vertex -26.0606 -1.26397 0
    endloop
  endfacet
  facet normal -0 0 -1
    outer loop
      vertex -25.5643 -1.55049 0
      vertex -29 -5 0
      vertex -25.825 -1.42894 0
    endloop
  endfacet
  facet normal -0 0 -1
    outer loop
      vertex -25.2865 -1.62493 0
      vertex -29 -5 0
      vertex -25.5643 -1.55049 0
    endloop
  endfacet
  facet normal -0 0 -1
    outer loop
      vertex -25 -1.65 0
      vertex -29 -5 0
      vertex -25.2865 -1.62493 0
    endloop
  endfacet
  facet normal -0 0 -1
    outer loop
      vertex -3 -2 0
      vertex -29 -5 0
      vertex -21 -2 0
    endloop
  endfacet
  facet normal 0 0 -1
    outer loop
      vertex 26.6249 0.286519 0
      vertex 29 5 0
      vertex 26.65 0 0
    endloop
  endfacet
  facet normal 0 0 -1
    outer loop
      vertex 26.5505 0.564333 0
      vertex 29 5 0
      vertex 26.6249 0.286519 0
    endloop
  endfacet
  facet normal 0 0 -1
    outer loop
      vertex 26.4289 0.825 0
      vertex 29 5 0
      vertex 26.5505 0.564333 0
    endloop
  endfacet
  facet normal 0 0 -1
    outer loop
      vertex 26.264 1.0606 0
      vertex 29 5 0
      vertex 26.4289 0.825 0
    endloop
  endfacet
  facet normal 0 0 -1
    outer loop
      vertex 26.0606 1.26397 0
      vertex 29 5 0
      vertex 26.264 1.0606 0
    endloop
  endfacet
  facet normal 0 0 -1
    outer loop
      vertex 25.825 1.42894 0
      vertex 29 5 0
      vertex 26.0606 1.26397 0
    endloop
  endfacet
  facet normal 0 0 -1
    outer loop
      vertex 25.5643 1.55049 0
      vertex 29 5 0
      vertex 25.825 1.42894 0
    endloop
  endfacet
  facet normal 0 0 -1
    outer loop
      vertex 25.2865 1.62493 0
      vertex 29 5 0
      vertex 25.5643 1.55049 0
    endloop
  endfacet
  facet normal 0 0 -1
    outer loop
      vertex 25 1.65 0
      vertex 29 5 0
      vertex 25.2865 1.62493 0
    endloop
  endfacet
  facet normal 0 0 -1
    outer loop
      vertex 24.7135 1.62493 0
      vertex 29 5 0
      vertex 25 1.65 0
    endloop
  endfacet
  facet normal 0 0 -1
    outer loop
      vertex 21 2 0
      vertex 24.7135 1.62493 0
      vertex 24.4357 1.55049 0
    endloop
  endfacet
  facet normal 0 0 -1
    outer loop
      vertex 21 2 0
      vertex 24.4357 1.55049 0
      vertex 24.175 1.42894 0
    endloop
  endfacet
  facet normal 0 0 -1
    outer loop
      vertex 21 2 0
      vertex 24.175 1.42894 0
      vertex 23.9394 1.26397 0
    endloop
  endfacet
  facet normal 0 0 -1
    outer loop
      vertex 21 2 0
      vertex 23.35 0 0
      vertex 21 -2 0
    endloop
  endfacet
  facet normal 0 0 -1
    outer loop
      vertex 23.35 0 0
      vertex 21 2 0
      vertex 23.3751 0.286519 0
    endloop
  endfacet
  facet normal 0 0 -1
    outer loop
      vertex 23.3751 0.286519 0
      vertex 21 2 0
      vertex 23.4495 0.564333 0
    endloop
  endfacet
  facet normal 0 0 -1
    outer loop
      vertex 23.4495 0.564333 0
      vertex 21 2 0
      vertex 23.5711 0.825 0
    endloop
  endfacet
  facet normal 0 0 -1
    outer loop
      vertex 23.5711 0.825 0
      vertex 21 2 0
      vertex 23.736 1.0606 0
    endloop
  endfacet
  facet normal 0 0 -1
    outer loop
      vertex 21 2 0
      vertex 23.9394 1.26397 0
      vertex 23.736 1.0606 0
    endloop
  endfacet
  facet normal 0 0 -1
    outer loop
      vertex 24.7135 1.62493 0
      vertex 21 2 0
      vertex 29 5 0
    endloop
  endfacet
  facet normal 0 0 -1
    outer loop
      vertex 3 2 0
      vertex 29 5 0
      vertex 21 2 0
    endloop
  endfacet
  facet normal 0 0 -1
    outer loop
      vertex -3 2 0
      vertex 3 2 0
      vertex -3 -2 0
    endloop
  endfacet
  facet normal 0 0 -1
    outer loop
      vertex -3 2 0
      vertex 29 5 0
      vertex 3 2 0
    endloop
  endfacet
  facet normal 0 0 -1
    outer loop
      vertex -29 5 0
      vertex -3 2 0
      vertex -21 2 0
    endloop
  endfacet
  facet normal 0 0 -1
    outer loop
      vertex -23.3751 0.286519 0
      vertex -21 2 0
      vertex -23.35 0 0
    endloop
  endfacet
  facet normal 0 0 -1
    outer loop
      vertex -23.4495 0.564333 0
      vertex -21 2 0
      vertex -23.3751 0.286519 0
    endloop
  endfacet
  facet normal 0 0 -1
    outer loop
      vertex -23.5711 0.825 0
      vertex -21 2 0
      vertex -23.4495 0.564333 0
    endloop
  endfacet
  facet normal 0 0 -1
    outer loop
      vertex -23.736 1.0606 0
      vertex -21 2 0
      vertex -23.5711 0.825 0
    endloop
  endfacet
  facet normal 0 0 -1
    outer loop
      vertex -23.9394 1.26397 0
      vertex -21 2 0
      vertex -23.736 1.0606 0
    endloop
  endfacet
  facet normal 0 0 -1
    outer loop
      vertex -24.175 1.42894 0
      vertex -21 2 0
      vertex -23.9394 1.26397 0
    endloop
  endfacet
  facet normal 0 0 -1
    outer loop
      vertex -24.4357 1.55049 0
      vertex -21 2 0
      vertex -24.175 1.42894 0
    endloop
  endfacet
  facet normal 0 0 -1
    outer loop
      vertex -24.7135 1.62493 0
      vertex -21 2 0
      vertex -24.4357 1.55049 0
    endloop
  endfacet
  facet normal 0 0 -1
    outer loop
      vertex -29 5 0
      vertex -24.7135 1.62493 0
      vertex -25 1.65 0
    endloop
  endfacet
  facet normal 0 0 -1
    outer loop
      vertex -29 5 0
      vertex -25 1.65 0
      vertex -25.2865 1.62493 0
    endloop
  endfacet
  facet normal 0 0 -1
    outer loop
      vertex -29 5 0
      vertex -26.65 0 0
      vertex -29 -5 0
    endloop
  endfacet
  facet normal 0 0 -1
    outer loop
      vertex -26.65 0 0
      vertex -29 5 0
      vertex -26.6249 0.286519 0
    endloop
  endfacet
  facet normal 0 0 -1
    outer loop
      vertex -3 2 0
      vertex -29 5 0
      vertex 29 5 0
    endloop
  endfacet
  facet normal 0 0 -1
    outer loop
      vertex -24.7135 1.62493 0
      vertex -29 5 0
      vertex -21 2 0
    endloop
  endfacet
  facet normal 0 0 -1
    outer loop
      vertex -25.5643 1.55049 0
      vertex -29 5 0
      vertex -25.2865 1.62493 0
    endloop
  endfacet
  facet normal 0 0 -1
    outer loop
      vertex -25.825 1.42894 0
      vertex -29 5 0
      vertex -25.5643 1.55049 0
    endloop
  endfacet
  facet normal 0 0 -1
    outer loop
      vertex -26.0606 1.26397 0
      vertex -29 5 0
      vertex -25.825 1.42894 0
    endloop
  endfacet
  facet normal 0 0 -1
    outer loop
      vertex -26.264 1.0606 0
      vertex -29 5 0
      vertex -26.0606 1.26397 0
    endloop
  endfacet
  facet normal 0 0 -1
    outer loop
      vertex -26.4289 0.825 0
      vertex -29 5 0
      vertex -26.264 1.0606 0
    endloop
  endfacet
  facet normal 0 0 -1
    outer loop
      vertex -26.5505 0.564333 0
      vertex -29 5 0
      vertex -26.4289 0.825 0
    endloop
  endfacet
  facet normal 0 0 -1
    outer loop
      vertex -26.6249 0.286519 0
      vertex -29 5 0
      vertex -26.5505 0.564333 0
    endloop
  endfacet
  facet normal 0 -1 0
    outer loop
      vertex -29 -5 0
      vertex 29 -5 1.5
      vertex -29 -5 1.5
    endloop
  endfacet
  facet normal 0 -1 -0
    outer loop
      vertex 29 -5 1.5
      vertex -29 -5 0
      vertex 29 -5 0
    endloop
  endfacet
  facet normal 0 -1 0
    outer loop
      vertex 3 2 0
      vertex 21 2 1.5
      vertex 3 2 1.5
    endloop
  endfacet
  facet normal 0 -1 -0
    outer loop
      vertex 21 2 1.5
      vertex 3 2 0
      vertex 21 2 0
    endloop
  endfacet
  facet normal 0 1 -0
    outer loop
      vertex 3 2 1.5
      vertex -3 2 4
      vertex 3 2 4
    endloop
  endfacet
  facet normal 0 1 0
    outer loop
      vertex -3 2 4
      vertex 3 2 1.5
      vertex -3 2 1.5
    endloop
  endfacet
  facet normal 0 -1 0
    outer loop
      vertex -21 2 0
      vertex -3 2 1.5
      vertex -21 2 1.5
    endloop
  endfacet
  facet normal 0 -1 -0
    outer loop
      vertex -3 2 1.5
      vertex -21 2 0
      vertex -3 2 0
    endloop
  endfacet
  facet normal 0 -1 0
    outer loop
      vertex -3 -2 1.5
      vertex 3 -2 4
      vertex -3 -2 4
    endloop
  endfacet
  facet normal 0 -1 -0
    outer loop
      vertex 3 -2 4
      vertex -3 -2 1.5
      vertex 3 -2 1.5
    endloop
  endfacet
  facet normal 0 1 -0
    outer loop
      vertex -3 -2 0
      vertex -21 -2 1.5
      vertex -3 -2 1.5
    endloop
  endfacet
  facet normal 0 1 0
    outer loop
      vertex -21 -2 1.5
      vertex -3 -2 0
      vertex -21 -2 0
    endloop
  endfacet
  facet normal 0 1 -0
    outer loop
      vertex 21 -2 0
      vertex 3 -2 1.5
      vertex 21 -2 1.5
    endloop
  endfacet
  facet normal 0 1 0
    outer loop
      vertex 3 -2 1.5
      vertex 21 -2 0
      vertex 3 -2 0
    endloop
  endfacet
  facet normal -1 0 0
    outer loop
      vertex -29 5 0
      vertex -29 2 1.5
      vertex -29 5 1.5
    endloop
  endfacet
  facet normal -1 0 0
    outer loop
      vertex -29 2 1.5
      vertex -29 -2 1.5
      vertex -29 2 4
    endloop
  endfacet
  facet normal -1 0 0
    outer loop
      vertex -29 5 0
      vertex -29 -2 1.5
      vertex -29 2 1.5
    endloop
  endfacet
  facet normal -1 0 0
    outer loop
      vertex -29 -5 0
      vertex -29 -2 1.5
      vertex -29 5 0
    endloop
  endfacet
  facet normal -1 -0 0
    outer loop
      vertex -29 -2 1.5
      vertex -29 -5 0
      vertex -29 -5 1.5
    endloop
  endfacet
  facet normal -1 -0 0
    outer loop
      vertex -29 2 4
      vertex -29 -2 1.5
      vertex -29 -2 4
    endloop
  endfacet
  facet normal 0 0 1
    outer loop
      vertex -21 2 4
      vertex -23.35 0 4
      vertex -21 -2 4
    endloop
  endfacet
  facet normal 0 0 1
    outer loop
      vertex -21 2 4
      vertex -23.3751 0.286519 4
      vertex -23.35 0 4
    endloop
  endfacet
  facet normal 0 0 1
    outer loop
      vertex -21 2 4
      vertex -23.4495 0.564333 4
      vertex -23.3751 0.286519 4
    endloop
  endfacet
  facet normal 0 0 1
    outer loop
      vertex -21 2 4
      vertex -23.5711 0.825 4
      vertex -23.4495 0.564333 4
    endloop
  endfacet
  facet normal 0 0 1
    outer loop
      vertex -21 2 4
      vertex -23.736 1.0606 4
      vertex -23.5711 0.825 4
    endloop
  endfacet
  facet normal 0 0 1
    outer loop
      vertex -21 2 4
      vertex -23.9394 1.26397 4
      vertex -23.736 1.0606 4
    endloop
  endfacet
  facet normal 0 0 1
    outer loop
      vertex -21 2 4
      vertex -24.175 1.42894 4
      vertex -23.9394 1.26397 4
    endloop
  endfacet
  facet normal 0 0 1
    outer loop
      vertex -21 2 4
      vertex -24.4357 1.55049 4
      vertex -24.175 1.42894 4
    endloop
  endfacet
  facet normal 0 0 1
    outer loop
      vertex -21 2 4
      vertex -24.7135 1.62493 4
      vertex -24.4357 1.55049 4
    endloop
  endfacet
  facet normal 0 0 1
    outer loop
      vertex -21 2 4
      vertex -25 1.65 4
      vertex -24.7135 1.62493 4
    endloop
  endfacet
  facet normal -0 0 1
    outer loop
      vertex -29 2 4
      vertex -25 1.65 4
      vertex -21 2 4
    endloop
  endfacet
  facet normal 0 0 1
    outer loop
      vertex -26.6249 0.286519 4
      vertex -29 2 4
      vertex -26.65 0 4
    endloop
  endfacet
  facet normal 0 0 1
    outer loop
      vertex -26.5505 0.564333 4
      vertex -29 2 4
      vertex -26.6249 0.286519 4
    endloop
  endfacet
  facet normal 0 0 1
    outer loop
      vertex -26.4289 0.825 4
      vertex -29 2 4
      vertex -26.5505 0.564333 4
    endloop
  endfacet
  facet normal 0 0 1
    outer loop
      vertex -26.264 1.0606 4
      vertex -29 2 4
      vertex -26.4289 0.825 4
    endloop
  endfacet
  facet normal 0 0 1
    outer loop
      vertex -26.0606 1.26397 4
      vertex -29 2 4
      vertex -26.264 1.0606 4
    endloop
  endfacet
  facet normal 0 0 1
    outer loop
      vertex -25.825 1.42894 4
      vertex -29 2 4
      vertex -26.0606 1.26397 4
    endloop
  endfacet
  facet normal 0 0 1
    outer loop
      vertex -25.5643 1.55049 4
      vertex -29 2 4
      vertex -25.825 1.42894 4
    endloop
  endfacet
  facet normal 0 0 1
    outer loop
      vertex -25.2865 1.62493 4
      vertex -29 2 4
      vertex -25.5643 1.55049 4
    endloop
  endfacet
  facet normal 0 0 1
    outer loop
      vertex -25 1.65 4
      vertex -29 2 4
      vertex -25.2865 1.62493 4
    endloop
  endfacet
  facet normal -0 0 1
    outer loop
      vertex -23.3751 -0.286519 4
      vertex -21 -2 4
      vertex -23.35 0 4
    endloop
  endfacet
  facet normal -0 0 1
    outer loop
      vertex -23.4495 -0.564333 4
      vertex -21 -2 4
      vertex -23.3751 -0.286519 4
    endloop
  endfacet
  facet normal -0 0 1
    outer loop
      vertex -23.5711 -0.825 4
      vertex -21 -2 4
      vertex -23.4495 -0.564333 4
    endloop
  endfacet
  facet normal -0 0 1
    outer loop
      vertex -23.736 -1.0606 4
      vertex -21 -2 4
      vertex -23.5711 -0.825 4
    endloop
  endfacet
  facet normal -0 0 1
    outer loop
      vertex -23.9394 -1.26397 4
      vertex -21 -2 4
      vertex -23.736 -1.0606 4
    endloop
  endfacet
  facet normal -0 0 1
    outer loop
      vertex -24.175 -1.42894 4
      vertex -21 -2 4
      vertex -23.9394 -1.26397 4
    endloop
  endfacet
  facet normal -0 0 1
    outer loop
      vertex -24.4357 -1.55049 4
      vertex -21 -2 4
      vertex -24.175 -1.42894 4
    endloop
  endfacet
  facet normal -0 0 1
    outer loop
      vertex -24.7135 -1.62493 4
      vertex -21 -2 4
      vertex -24.4357 -1.55049 4
    endloop
  endfacet
  facet normal -0 0 1
    outer loop
      vertex -25 -1.65 4
      vertex -21 -2 4
      vertex -24.7135 -1.62493 4
    endloop
  endfacet
  facet normal 0 0 1
    outer loop
      vertex -29 -2 4
      vertex -25 -1.65 4
      vertex -25.2865 -1.62493 4
    endloop
  endfacet
  facet normal 0 0 1
    outer loop
      vertex -29 -2 4
      vertex -26.65 0 4
      vertex -29 2 4
    endloop
  endfacet
  facet normal 0 0 1
    outer loop
      vertex -26.65 0 4
      vertex -29 -2 4
      vertex -26.6249 -0.286519 4
    endloop
  endfacet
  facet normal 0 0 1
    outer loop
      vertex -26.6249 -0.286519 4
      vertex -29 -2 4
      vertex -26.5505 -0.564333 4
    endloop
  endfacet
  facet normal 0 0 1
    outer loop
      vertex -26.5505 -0.564333 4
      vertex -29 -2 4
      vertex -26.4289 -0.825 4
    endloop
  endfacet
  facet normal 0 0 1
    outer loop
      vertex -25 -1.65 4
      vertex -29 -2 4
      vertex -21 -2 4
    endloop
  endfacet
  facet normal 0 0 1
    outer loop
      vertex -25.5643 -1.55049 4
      vertex -29 -2 4
      vertex -25.2865 -1.62493 4
    endloop
  endfacet
  facet normal 0 0 1
    outer loop
      vertex -25.825 -1.42894 4
      vertex -29 -2 4
      vertex -25.5643 -1.55049 4
    endloop
  endfacet
  facet normal 0 0 1
    outer loop
      vertex -26.0606 -1.26397 4
      vertex -29 -2 4
      vertex -25.825 -1.42894 4
    endloop
  endfacet
  facet normal 0 0 1
    outer loop
      vertex -26.264 -1.0606 4
      vertex -29 -2 4
      vertex -26.0606 -1.26397 4
    endloop
  endfacet
  facet normal 0 0 1
    outer loop
      vertex -26.4289 -0.825 4
      vertex -29 -2 4
      vertex -26.264 -1.0606 4
    endloop
  endfacet
  facet normal 0 -1 0
    outer loop
      vertex -29 -2 1.5
      vertex -21 -2 4
      vertex -29 -2 4
    endloop
  endfacet
  facet normal 0 -1 -0
    outer loop
      vertex -21 -2 4
      vertex -29 -2 1.5
      vertex -21 -2 1.5
    endloop
  endfacet
  facet normal 0 1 -0
    outer loop
      vertex -21 2 1.5
      vertex -29 2 4
      vertex -21 2 4
    endloop
  endfacet
  facet normal 0 1 0
    outer loop
      vertex -29 2 4
      vertex -21 2 1.5
      vertex -29 2 1.5
    endloop
  endfacet
  facet normal -0.573579 -0.81915 0
    outer loop
      vertex -24.175 1.42894 0
      vertex -23.9394 1.26397 4
      vertex -24.175 1.42894 4
    endloop
  endfacet
  facet normal -0.573579 -0.81915 -0
    outer loop
      vertex -23.9394 1.26397 4
      vertex -24.175 1.42894 0
      vertex -23.9394 1.26397 0
    endloop
  endfacet
  facet normal -0.996185 0.087269 0
    outer loop
      vertex -23.3751 -0.286519 0
      vertex -23.35 0 4
      vertex -23.35 0 0
    endloop
  endfacet
  facet normal -0.996185 0.087269 0
    outer loop
      vertex -23.35 0 4
      vertex -23.3751 -0.286519 0
      vertex -23.3751 -0.286519 4
    endloop
  endfacet
  facet normal 0.258831 -0.965923 0
    outer loop
      vertex -25.5643 1.55049 0
      vertex -25.2865 1.62493 4
      vertex -25.5643 1.55049 4
    endloop
  endfacet
  facet normal 0.258831 -0.965923 0
    outer loop
      vertex -25.2865 1.62493 4
      vertex -25.5643 1.55049 0
      vertex -25.2865 1.62493 0
    endloop
  endfacet
  facet normal 0.819265 -0.573416 0
    outer loop
      vertex -26.4289 0.825 4
      vertex -26.264 1.0606 0
      vertex -26.264 1.0606 4
    endloop
  endfacet
  facet normal 0.819265 -0.573416 0
    outer loop
      vertex -26.264 1.0606 0
      vertex -26.4289 0.825 4
      vertex -26.4289 0.825 0
    endloop
  endfacet
  facet normal -0.965961 -0.258689 0
    outer loop
      vertex -23.3751 0.286519 0
      vertex -23.4495 0.564333 4
      vertex -23.4495 0.564333 0
    endloop
  endfacet
  facet normal -0.965961 -0.258689 0
    outer loop
      vertex -23.4495 0.564333 4
      vertex -23.3751 0.286519 0
      vertex -23.3751 0.286519 4
    endloop
  endfacet
  facet normal -0.906243 -0.422758 0
    outer loop
      vertex -23.4495 0.564333 0
      vertex -23.5711 0.825 4
      vertex -23.5711 0.825 0
    endloop
  endfacet
  facet normal -0.906243 -0.422758 0
    outer loop
      vertex -23.5711 0.825 4
      vertex -23.4495 0.564333 0
      vertex -23.4495 0.564333 4
    endloop
  endfacet
  facet normal -0.819265 -0.573416 0
    outer loop
      vertex -23.5711 0.825 0
      vertex -23.736 1.0606 4
      vertex -23.736 1.0606 0
    endloop
  endfacet
  facet normal -0.819265 -0.573416 0
    outer loop
      vertex -23.736 1.0606 4
      vertex -23.5711 0.825 0
      vertex -23.5711 0.825 4
    endloop
  endfacet
  facet normal -0.707055 -0.707159 0
    outer loop
      vertex -23.736 1.0606 0
      vertex -23.9394 1.26397 4
      vertex -23.9394 1.26397 0
    endloop
  endfacet
  facet normal -0.707055 -0.707159 0
    outer loop
      vertex -23.9394 1.26397 4
      vertex -23.736 1.0606 0
      vertex -23.736 1.0606 4
    endloop
  endfacet
  facet normal -0.422571 -0.90633 0
    outer loop
      vertex -24.4357 1.55049 0
      vertex -24.175 1.42894 4
      vertex -24.4357 1.55049 4
    endloop
  endfacet
  facet normal -0.422571 -0.90633 -0
    outer loop
      vertex -24.175 1.42894 4
      vertex -24.4357 1.55049 0
      vertex -24.175 1.42894 0
    endloop
  endfacet
  facet normal -0.0871713 -0.996193 0
    outer loop
      vertex -25 1.65 0
      vertex -24.7135 1.62493 4
      vertex -25 1.65 4
    endloop
  endfacet
  facet normal -0.0871713 -0.996193 -0
    outer loop
      vertex -24.7135 1.62493 4
      vertex -25 1.65 0
      vertex -24.7135 1.62493 0
    endloop
  endfacet
  facet normal -0.258831 -0.965923 0
    outer loop
      vertex -24.7135 1.62493 0
      vertex -24.4357 1.55049 4
      vertex -24.7135 1.62493 4
    endloop
  endfacet
  facet normal -0.258831 -0.965923 -0
    outer loop
      vertex -24.4357 1.55049 4
      vertex -24.7135 1.62493 0
      vertex -24.4357 1.55049 0
    endloop
  endfacet
  facet normal 0.996185 -0.087269 0
    outer loop
      vertex -26.65 0 4
      vertex -26.6249 0.286519 0
      vertex -26.6249 0.286519 4
    endloop
  endfacet
  facet normal 0.996185 -0.087269 0
    outer loop
      vertex -26.6249 0.286519 0
      vertex -26.65 0 4
      vertex -26.65 0 0
    endloop
  endfacet
  facet normal 0.707055 -0.707159 0
    outer loop
      vertex -26.264 1.0606 4
      vertex -26.0606 1.26397 0
      vertex -26.0606 1.26397 4
    endloop
  endfacet
  facet normal 0.707055 -0.707159 0
    outer loop
      vertex -26.0606 1.26397 0
      vertex -26.264 1.0606 4
      vertex -26.264 1.0606 0
    endloop
  endfacet
  facet normal 0.422571 -0.90633 0
    outer loop
      vertex -25.825 1.42894 0
      vertex -25.5643 1.55049 4
      vertex -25.825 1.42894 4
    endloop
  endfacet
  facet normal 0.422571 -0.90633 0
    outer loop
      vertex -25.5643 1.55049 4
      vertex -25.825 1.42894 0
      vertex -25.5643 1.55049 0
    endloop
  endfacet
  facet normal 0.0871713 -0.996193 0
    outer loop
      vertex -25.2865 1.62493 0
      vertex -25 1.65 4
      vertex -25.2865 1.62493 4
    endloop
  endfacet
  facet normal 0.0871713 -0.996193 0
    outer loop
      vertex -25 1.65 4
      vertex -25.2865 1.62493 0
      vertex -25 1.65 0
    endloop
  endfacet
  facet normal 0.573579 -0.81915 0
    outer loop
      vertex -26.0606 1.26397 0
      vertex -25.825 1.42894 4
      vertex -26.0606 1.26397 4
    endloop
  endfacet
  facet normal 0.573579 -0.81915 0
    outer loop
      vertex -25.825 1.42894 4
      vertex -26.0606 1.26397 0
      vertex -25.825 1.42894 0
    endloop
  endfacet
  facet normal -0.996185 -0.087269 0
    outer loop
      vertex -23.35 0 0
      vertex -23.3751 0.286519 4
      vertex -23.3751 0.286519 0
    endloop
  endfacet
  facet normal -0.996185 -0.087269 0
    outer loop
      vertex -23.3751 0.286519 4
      vertex -23.35 0 0
      vertex -23.35 0 4
    endloop
  endfacet
  facet normal -0.0871713 0.996193 0
    outer loop
      vertex -24.7135 -1.62493 0
      vertex -25 -1.65 4
      vertex -24.7135 -1.62493 4
    endloop
  endfacet
  facet normal -0.0871713 0.996193 0
    outer loop
      vertex -25 -1.65 4
      vertex -24.7135 -1.62493 0
      vertex -25 -1.65 0
    endloop
  endfacet
  facet normal -0.965961 0.258689 0
    outer loop
      vertex -23.4495 -0.564333 0
      vertex -23.3751 -0.286519 4
      vertex -23.3751 -0.286519 0
    endloop
  endfacet
  facet normal -0.965961 0.258689 0
    outer loop
      vertex -23.3751 -0.286519 4
      vertex -23.4495 -0.564333 0
      vertex -23.4495 -0.564333 4
    endloop
  endfacet
  facet normal -0.573579 0.81915 0
    outer loop
      vertex -23.9394 -1.26397 0
      vertex -24.175 -1.42894 4
      vertex -23.9394 -1.26397 4
    endloop
  endfacet
  facet normal -0.573579 0.81915 0
    outer loop
      vertex -24.175 -1.42894 4
      vertex -23.9394 -1.26397 0
      vertex -24.175 -1.42894 0
    endloop
  endfacet
  facet normal 0.0871713 0.996193 -0
    outer loop
      vertex -25 -1.65 0
      vertex -25.2865 -1.62493 4
      vertex -25 -1.65 4
    endloop
  endfacet
  facet normal 0.0871713 0.996193 0
    outer loop
      vertex -25.2865 -1.62493 4
      vertex -25 -1.65 0
      vertex -25.2865 -1.62493 0
    endloop
  endfacet
  facet normal 0.707055 0.707159 0
    outer loop
      vertex -26.0606 -1.26397 4
      vertex -26.264 -1.0606 0
      vertex -26.264 -1.0606 4
    endloop
  endfacet
  facet normal 0.707055 0.707159 0
    outer loop
      vertex -26.264 -1.0606 0
      vertex -26.0606 -1.26397 4
      vertex -26.0606 -1.26397 0
    endloop
  endfacet
  facet normal 0.906243 0.422758 0
    outer loop
      vertex -26.4289 -0.825 4
      vertex -26.5505 -0.564333 0
      vertex -26.5505 -0.564333 4
    endloop
  endfacet
  facet normal 0.906243 0.422758 0
    outer loop
      vertex -26.5505 -0.564333 0
      vertex -26.4289 -0.825 4
      vertex -26.4289 -0.825 0
    endloop
  endfacet
  facet normal 0.996185 0.087269 0
    outer loop
      vertex -26.6249 -0.286519 4
      vertex -26.65 0 0
      vertex -26.65 0 4
    endloop
  endfacet
  facet normal 0.996185 0.087269 0
    outer loop
      vertex -26.65 0 0
      vertex -26.6249 -0.286519 4
      vertex -26.6249 -0.286519 0
    endloop
  endfacet
  facet normal 0.819265 0.573416 0
    outer loop
      vertex -26.264 -1.0606 4
      vertex -26.4289 -0.825 0
      vertex -26.4289 -0.825 4
    endloop
  endfacet
  facet normal 0.819265 0.573416 0
    outer loop
      vertex -26.4289 -0.825 0
      vertex -26.264 -1.0606 4
      vertex -26.264 -1.0606 0
    endloop
  endfacet
  facet normal 0.906243 -0.422758 0
    outer loop
      vertex -26.5505 0.564333 4
      vertex -26.4289 0.825 0
      vertex -26.4289 0.825 4
    endloop
  endfacet
  facet normal 0.906243 -0.422758 0
    outer loop
      vertex -26.4289 0.825 0
      vertex -26.5505 0.564333 4
      vertex -26.5505 0.564333 0
    endloop
  endfacet
  facet normal 0.965961 -0.258689 0
    outer loop
      vertex -26.6249 0.286519 4
      vertex -26.5505 0.564333 0
      vertex -26.5505 0.564333 4
    endloop
  endfacet
  facet normal 0.965961 -0.258689 0
    outer loop
      vertex -26.5505 0.564333 0
      vertex -26.6249 0.286519 4
      vertex -26.6249 0.286519 0
    endloop
  endfacet
  facet normal -0.819265 0.573416 0
    outer loop
      vertex -23.736 -1.0606 0
      vertex -23.5711 -0.825 4
      vertex -23.5711 -0.825 0
    endloop
  endfacet
  facet normal -0.819265 0.573416 0
    outer loop
      vertex -23.5711 -0.825 4
      vertex -23.736 -1.0606 0
      vertex -23.736 -1.0606 4
    endloop
  endfacet
  facet normal -0.258831 0.965923 0
    outer loop
      vertex -24.4357 -1.55049 0
      vertex -24.7135 -1.62493 4
      vertex -24.4357 -1.55049 4
    endloop
  endfacet
  facet normal -0.258831 0.965923 0
    outer loop
      vertex -24.7135 -1.62493 4
      vertex -24.4357 -1.55049 0
      vertex -24.7135 -1.62493 0
    endloop
  endfacet
  facet normal -0.707055 0.707159 0
    outer loop
      vertex -23.9394 -1.26397 0
      vertex -23.736 -1.0606 4
      vertex -23.736 -1.0606 0
    endloop
  endfacet
  facet normal -0.707055 0.707159 0
    outer loop
      vertex -23.736 -1.0606 4
      vertex -23.9394 -1.26397 0
      vertex -23.9394 -1.26397 4
    endloop
  endfacet
  facet normal 0.422571 0.90633 -0
    outer loop
      vertex -25.5643 -1.55049 0
      vertex -25.825 -1.42894 4
      vertex -25.5643 -1.55049 4
    endloop
  endfacet
  facet normal 0.422571 0.90633 0
    outer loop
      vertex -25.825 -1.42894 4
      vertex -25.5643 -1.55049 0
      vertex -25.825 -1.42894 0
    endloop
  endfacet
  facet normal 0.573579 0.81915 -0
    outer loop
      vertex -25.825 -1.42894 0
      vertex -26.0606 -1.26397 4
      vertex -25.825 -1.42894 4
    endloop
  endfacet
  facet normal 0.573579 0.81915 0
    outer loop
      vertex -26.0606 -1.26397 4
      vertex -25.825 -1.42894 0
      vertex -26.0606 -1.26397 0
    endloop
  endfacet
  facet normal 0.965961 0.258689 0
    outer loop
      vertex -26.5505 -0.564333 4
      vertex -26.6249 -0.286519 0
      vertex -26.6249 -0.286519 4
    endloop
  endfacet
  facet normal 0.965961 0.258689 0
    outer loop
      vertex -26.6249 -0.286519 0
      vertex -26.5505 -0.564333 4
      vertex -26.5505 -0.564333 0
    endloop
  endfacet
  facet normal -0.906243 0.422758 0
    outer loop
      vertex -23.5711 -0.825 0
      vertex -23.4495 -0.564333 4
      vertex -23.4495 -0.564333 0
    endloop
  endfacet
  facet normal -0.906243 0.422758 0
    outer loop
      vertex -23.4495 -0.564333 4
      vertex -23.5711 -0.825 0
      vertex -23.5711 -0.825 4
    endloop
  endfacet
  facet normal -0.422571 0.90633 0
    outer loop
      vertex -24.175 -1.42894 0
      vertex -24.4357 -1.55049 4
      vertex -24.175 -1.42894 4
    endloop
  endfacet
  facet normal -0.422571 0.90633 0
    outer loop
      vertex -24.4357 -1.55049 4
      vertex -24.175 -1.42894 0
      vertex -24.4357 -1.55049 0
    endloop
  endfacet
  facet normal 0.258831 0.965923 -0
    outer loop
      vertex -25.2865 -1.62493 0
      vertex -25.5643 -1.55049 4
      vertex -25.2865 -1.62493 4
    endloop
  endfacet
  facet normal 0.258831 0.965923 0
    outer loop
      vertex -25.5643 -1.55049 4
      vertex -25.2865 -1.62493 0
      vertex -25.5643 -1.55049 0
    endloop
  endfacet
  facet normal 1 0 0
    outer loop
      vertex 29 2 4
      vertex 29 -2 4
      vertex 29 2 1.5
    endloop
  endfacet
  facet normal 1 -0 0
    outer loop
      vertex 29 2 1.5
      vertex 29 5 0
      vertex 29 5 1.5
    endloop
  endfacet
  facet normal 1 0 0
    outer loop
      vertex 29 -2 1.5
      vertex 29 2 1.5
      vertex 29 -2 4
    endloop
  endfacet
  facet normal 1 -0 0
    outer loop
      vertex 29 -2 1.5
      vertex 29 5 0
      vertex 29 2 1.5
    endloop
  endfacet
  facet normal 1 0 0
    outer loop
      vertex 29 -5 0
      vertex 29 -2 1.5
      vertex 29 -5 1.5
    endloop
  endfacet
  facet normal 1 0 0
    outer loop
      vertex 29 -2 1.5
      vertex 29 -5 0
      vertex 29 5 0
    endloop
  endfacet
  facet normal 0 0 1
    outer loop
      vertex 29 2 4
      vertex 26.65 0 4
      vertex 29 -2 4
    endloop
  endfacet
  facet normal 0 0 1
    outer loop
      vertex 29 2 4
      vertex 26.6249 0.286519 4
      vertex 26.65 0 4
    endloop
  endfacet
  facet normal 0 0 1
    outer loop
      vertex 29 2 4
      vertex 26.5505 0.564333 4
      vertex 26.6249 0.286519 4
    endloop
  endfacet
  facet normal 0 0 1
    outer loop
      vertex 29 2 4
      vertex 26.4289 0.825 4
      vertex 26.5505 0.564333 4
    endloop
  endfacet
  facet normal 0 0 1
    outer loop
      vertex 29 2 4
      vertex 26.264 1.0606 4
      vertex 26.4289 0.825 4
    endloop
  endfacet
  facet normal 0 0 1
    outer loop
      vertex 29 2 4
      vertex 26.0606 1.26397 4
      vertex 26.264 1.0606 4
    endloop
  endfacet
  facet normal 0 0 1
    outer loop
      vertex 29 2 4
      vertex 25.825 1.42894 4
      vertex 26.0606 1.26397 4
    endloop
  endfacet
  facet normal 0 0 1
    outer loop
      vertex 29 2 4
      vertex 25.5643 1.55049 4
      vertex 25.825 1.42894 4
    endloop
  endfacet
  facet normal 0 0 1
    outer loop
      vertex 29 2 4
      vertex 25.2865 1.62493 4
      vertex 25.5643 1.55049 4
    endloop
  endfacet
  facet normal 0 0 1
    outer loop
      vertex 29 2 4
      vertex 25 1.65 4
      vertex 25.2865 1.62493 4
    endloop
  endfacet
  facet normal -0 0 1
    outer loop
      vertex 21 2 4
      vertex 25 1.65 4
      vertex 29 2 4
    endloop
  endfacet
  facet normal 0 0 1
    outer loop
      vertex 23.3751 0.286519 4
      vertex 21 2 4
      vertex 23.35 0 4
    endloop
  endfacet
  facet normal 0 0 1
    outer loop
      vertex 23.4495 0.564333 4
      vertex 21 2 4
      vertex 23.3751 0.286519 4
    endloop
  endfacet
  facet normal 0 0 1
    outer loop
      vertex 23.5711 0.825 4
      vertex 21 2 4
      vertex 23.4495 0.564333 4
    endloop
  endfacet
  facet normal 0 0 1
    outer loop
      vertex 23.736 1.0606 4
      vertex 21 2 4
      vertex 23.5711 0.825 4
    endloop
  endfacet
  facet normal 0 0 1
    outer loop
      vertex 23.9394 1.26397 4
      vertex 21 2 4
      vertex 23.736 1.0606 4
    endloop
  endfacet
  facet normal 0 0 1
    outer loop
      vertex 24.175 1.42894 4
      vertex 21 2 4
      vertex 23.9394 1.26397 4
    endloop
  endfacet
  facet normal 0 0 1
    outer loop
      vertex 24.4357 1.55049 4
      vertex 21 2 4
      vertex 24.175 1.42894 4
    endloop
  endfacet
  facet normal 0 0 1
    outer loop
      vertex 24.7135 1.62493 4
      vertex 21 2 4
      vertex 24.4357 1.55049 4
    endloop
  endfacet
  facet normal 0 0 1
    outer loop
      vertex 25 1.65 4
      vertex 21 2 4
      vertex 24.7135 1.62493 4
    endloop
  endfacet
  facet normal -0 0 1
    outer loop
      vertex 26.6249 -0.286519 4
      vertex 29 -2 4
      vertex 26.65 0 4
    endloop
  endfacet
  facet normal -0 0 1
    outer loop
      vertex 26.5505 -0.564333 4
      vertex 29 -2 4
      vertex 26.6249 -0.286519 4
    endloop
  endfacet
  facet normal -0 0 1
    outer loop
      vertex 26.4289 -0.825 4
      vertex 29 -2 4
      vertex 26.5505 -0.564333 4
    endloop
  endfacet
  facet normal -0 0 1
    outer loop
      vertex 26.264 -1.0606 4
      vertex 29 -2 4
      vertex 26.4289 -0.825 4
    endloop
  endfacet
  facet normal -0 0 1
    outer loop
      vertex 26.0606 -1.26397 4
      vertex 29 -2 4
      vertex 26.264 -1.0606 4
    endloop
  endfacet
  facet normal -0 0 1
    outer loop
      vertex 25.825 -1.42894 4
      vertex 29 -2 4
      vertex 26.0606 -1.26397 4
    endloop
  endfacet
  facet normal -0 0 1
    outer loop
      vertex 25.5643 -1.55049 4
      vertex 29 -2 4
      vertex 25.825 -1.42894 4
    endloop
  endfacet
  facet normal -0 0 1
    outer loop
      vertex 25.2865 -1.62493 4
      vertex 29 -2 4
      vertex 25.5643 -1.55049 4
    endloop
  endfacet
  facet normal -0 0 1
    outer loop
      vertex 25 -1.65 4
      vertex 29 -2 4
      vertex 25.2865 -1.62493 4
    endloop
  endfacet
  facet normal 0 0 1
    outer loop
      vertex 21 -2 4
      vertex 25 -1.65 4
      vertex 24.7135 -1.62493 4
    endloop
  endfacet
  facet normal 0 0 1
    outer loop
      vertex 21 -2 4
      vertex 23.35 0 4
      vertex 21 2 4
    endloop
  endfacet
  facet normal 0 0 1
    outer loop
      vertex 23.35 0 4
      vertex 21 -2 4
      vertex 23.3751 -0.286519 4
    endloop
  endfacet
  facet normal 0 0 1
    outer loop
      vertex 23.3751 -0.286519 4
      vertex 21 -2 4
      vertex 23.4495 -0.564333 4
    endloop
  endfacet
  facet normal 0 0 1
    outer loop
      vertex 23.4495 -0.564333 4
      vertex 21 -2 4
      vertex 23.5711 -0.825 4
    endloop
  endfacet
  facet normal 0 0 1
    outer loop
      vertex 25 -1.65 4
      vertex 21 -2 4
      vertex 29 -2 4
    endloop
  endfacet
  facet normal 0 0 1
    outer loop
      vertex 24.4357 -1.55049 4
      vertex 21 -2 4
      vertex 24.7135 -1.62493 4
    endloop
  endfacet
  facet normal 0 0 1
    outer loop
      vertex 24.175 -1.42894 4
      vertex 21 -2 4
      vertex 24.4357 -1.55049 4
    endloop
  endfacet
  facet normal 0 0 1
    outer loop
      vertex 23.9394 -1.26397 4
      vertex 21 -2 4
      vertex 24.175 -1.42894 4
    endloop
  endfacet
  facet normal 0 0 1
    outer loop
      vertex 23.736 -1.0606 4
      vertex 21 -2 4
      vertex 23.9394 -1.26397 4
    endloop
  endfacet
  facet normal 0 0 1
    outer loop
      vertex 23.5711 -0.825 4
      vertex 21 -2 4
      vertex 23.736 -1.0606 4
    endloop
  endfacet
  facet normal 0 -1 0
    outer loop
      vertex 21 -2 1.5
      vertex 29 -2 4
      vertex 21 -2 4
    endloop
  endfacet
  facet normal 0 -1 -0
    outer loop
      vertex 29 -2 4
      vertex 21 -2 1.5
      vertex 29 -2 1.5
    endloop
  endfacet
  facet normal 0 1 -0
    outer loop
      vertex 29 2 1.5
      vertex 21 2 4
      vertex 29 2 4
    endloop
  endfacet
  facet normal 0 1 0
    outer loop
      vertex 21 2 4
      vertex 29 2 1.5
      vertex 21 2 1.5
    endloop
  endfacet
  facet normal -0.573579 -0.81915 0
    outer loop
      vertex 25.825 1.42894 0
      vertex 26.0606 1.26397 4
      vertex 25.825 1.42894 4
    endloop
  endfacet
  facet normal -0.573579 -0.81915 -0
    outer loop
      vertex 26.0606 1.26397 4
      vertex 25.825 1.42894 0
      vertex 26.0606 1.26397 0
    endloop
  endfacet
  facet normal -0.996185 0.087269 0
    outer loop
      vertex 26.6249 -0.286519 0
      vertex 26.65 0 4
      vertex 26.65 0 0
    endloop
  endfacet
  facet normal -0.996185 0.087269 0
    outer loop
      vertex 26.65 0 4
      vertex 26.6249 -0.286519 0
      vertex 26.6249 -0.286519 4
    endloop
  endfacet
  facet normal 0.258831 -0.965923 0
    outer loop
      vertex 24.4357 1.55049 0
      vertex 24.7135 1.62493 4
      vertex 24.4357 1.55049 4
    endloop
  endfacet
  facet normal 0.258831 -0.965923 0
    outer loop
      vertex 24.7135 1.62493 4
      vertex 24.4357 1.55049 0
      vertex 24.7135 1.62493 0
    endloop
  endfacet
  facet normal 0.819265 -0.573416 0
    outer loop
      vertex 23.5711 0.825 4
      vertex 23.736 1.0606 0
      vertex 23.736 1.0606 4
    endloop
  endfacet
  facet normal 0.819265 -0.573416 0
    outer loop
      vertex 23.736 1.0606 0
      vertex 23.5711 0.825 4
      vertex 23.5711 0.825 0
    endloop
  endfacet
  facet normal -0.965961 -0.258689 0
    outer loop
      vertex 26.6249 0.286519 0
      vertex 26.5505 0.564333 4
      vertex 26.5505 0.564333 0
    endloop
  endfacet
  facet normal -0.965961 -0.258689 0
    outer loop
      vertex 26.5505 0.564333 4
      vertex 26.6249 0.286519 0
      vertex 26.6249 0.286519 4
    endloop
  endfacet
  facet normal -0.906243 -0.422758 0
    outer loop
      vertex 26.5505 0.564333 0
      vertex 26.4289 0.825 4
      vertex 26.4289 0.825 0
    endloop
  endfacet
  facet normal -0.906243 -0.422758 0
    outer loop
      vertex 26.4289 0.825 4
      vertex 26.5505 0.564333 0
      vertex 26.5505 0.564333 4
    endloop
  endfacet
  facet normal -0.819265 -0.573416 0
    outer loop
      vertex 26.4289 0.825 0
      vertex 26.264 1.0606 4
      vertex 26.264 1.0606 0
    endloop
  endfacet
  facet normal -0.819265 -0.573416 0
    outer loop
      vertex 26.264 1.0606 4
      vertex 26.4289 0.825 0
      vertex 26.4289 0.825 4
    endloop
  endfacet
  facet normal -0.707055 -0.707159 0
    outer loop
      vertex 26.264 1.0606 0
      vertex 26.0606 1.26397 4
      vertex 26.0606 1.26397 0
    endloop
  endfacet
  facet normal -0.707055 -0.707159 0
    outer loop
      vertex 26.0606 1.26397 4
      vertex 26.264 1.0606 0
      vertex 26.264 1.0606 4
    endloop
  endfacet
  facet normal -0.422571 -0.90633 0
    outer loop
      vertex 25.5643 1.55049 0
      vertex 25.825 1.42894 4
      vertex 25.5643 1.55049 4
    endloop
  endfacet
  facet normal -0.422571 -0.90633 -0
    outer loop
      vertex 25.825 1.42894 4
      vertex 25.5643 1.55049 0
      vertex 25.825 1.42894 0
    endloop
  endfacet
  facet normal -0.0871713 -0.996193 0
    outer loop
      vertex 25 1.65 0
      vertex 25.2865 1.62493 4
      vertex 25 1.65 4
    endloop
  endfacet
  facet normal -0.0871713 -0.996193 -0
    outer loop
      vertex 25.2865 1.62493 4
      vertex 25 1.65 0
      vertex 25.2865 1.62493 0
    endloop
  endfacet
  facet normal -0.258831 -0.965923 0
    outer loop
      vertex 25.2865 1.62493 0
      vertex 25.5643 1.55049 4
      vertex 25.2865 1.62493 4
    endloop
  endfacet
  facet normal -0.258831 -0.965923 -0
    outer loop
      vertex 25.5643 1.55049 4
      vertex 25.2865 1.62493 0
      vertex 25.5643 1.55049 0
    endloop
  endfacet
  facet normal 0.996185 -0.087269 0
    outer loop
      vertex 23.35 0 4
      vertex 23.3751 0.286519 0
      vertex 23.3751 0.286519 4
    endloop
  endfacet
  facet normal 0.996185 -0.087269 0
    outer loop
      vertex 23.3751 0.286519 0
      vertex 23.35 0 4
      vertex 23.35 0 0
    endloop
  endfacet
  facet normal 0.707055 -0.707159 0
    outer loop
      vertex 23.736 1.0606 4
      vertex 23.9394 1.26397 0
      vertex 23.9394 1.26397 4
    endloop
  endfacet
  facet normal 0.707055 -0.707159 0
    outer loop
      vertex 23.9394 1.26397 0
      vertex 23.736 1.0606 4
      vertex 23.736 1.0606 0
    endloop
  endfacet
  facet normal 0.422571 -0.90633 0
    outer loop
      vertex 24.175 1.42894 0
      vertex 24.4357 1.55049 4
      vertex 24.175 1.42894 4
    endloop
  endfacet
  facet normal 0.422571 -0.90633 0
    outer loop
      vertex 24.4357 1.55049 4
      vertex 24.175 1.42894 0
      vertex 24.4357 1.55049 0
    endloop
  endfacet
  facet normal 0.0871713 -0.996193 0
    outer loop
      vertex 24.7135 1.62493 0
      vertex 25 1.65 4
      vertex 24.7135 1.62493 4
    endloop
  endfacet
  facet normal 0.0871713 -0.996193 0
    outer loop
      vertex 25 1.65 4
      vertex 24.7135 1.62493 0
      vertex 25 1.65 0
    endloop
  endfacet
  facet normal 0.573579 -0.81915 0
    outer loop
      vertex 23.9394 1.26397 0
      vertex 24.175 1.42894 4
      vertex 23.9394 1.26397 4
    endloop
  endfacet
  facet normal 0.573579 -0.81915 0
    outer loop
      vertex 24.175 1.42894 4
      vertex 23.9394 1.26397 0
      vertex 24.175 1.42894 0
    endloop
  endfacet
  facet normal -0.996185 -0.087269 0
    outer loop
      vertex 26.65 0 0
      vertex 26.6249 0.286519 4
      vertex 26.6249 0.286519 0
    endloop
  endfacet
  facet normal -0.996185 -0.087269 0
    outer loop
      vertex 26.6249 0.286519 4
      vertex 26.65 0 0
      vertex 26.65 0 4
    endloop
  endfacet
  facet normal -0.0871713 0.996193 0
    outer loop
      vertex 25.2865 -1.62493 0
      vertex 25 -1.65 4
      vertex 25.2865 -1.62493 4
    endloop
  endfacet
  facet normal -0.0871713 0.996193 0
    outer loop
      vertex 25 -1.65 4
      vertex 25.2865 -1.62493 0
      vertex 25 -1.65 0
    endloop
  endfacet
  facet normal -0.965961 0.258689 0
    outer loop
      vertex 26.5505 -0.564333 0
      vertex 26.6249 -0.286519 4
      vertex 26.6249 -0.286519 0
    endloop
  endfacet
  facet normal -0.965961 0.258689 0
    outer loop
      vertex 26.6249 -0.286519 4
      vertex 26.5505 -0.564333 0
      vertex 26.5505 -0.564333 4
    endloop
  endfacet
  facet normal -0.573579 0.81915 0
    outer loop
      vertex 26.0606 -1.26397 0
      vertex 25.825 -1.42894 4
      vertex 26.0606 -1.26397 4
    endloop
  endfacet
  facet normal -0.573579 0.81915 0
    outer loop
      vertex 25.825 -1.42894 4
      vertex 26.0606 -1.26397 0
      vertex 25.825 -1.42894 0
    endloop
  endfacet
  facet normal 0.0871713 0.996193 -0
    outer loop
      vertex 25 -1.65 0
      vertex 24.7135 -1.62493 4
      vertex 25 -1.65 4
    endloop
  endfacet
  facet normal 0.0871713 0.996193 0
    outer loop
      vertex 24.7135 -1.62493 4
      vertex 25 -1.65 0
      vertex 24.7135 -1.62493 0
    endloop
  endfacet
  facet normal 0.707055 0.707159 0
    outer loop
      vertex 23.9394 -1.26397 4
      vertex 23.736 -1.0606 0
      vertex 23.736 -1.0606 4
    endloop
  endfacet
  facet normal 0.707055 0.707159 0
    outer loop
      vertex 23.736 -1.0606 0
      vertex 23.9394 -1.26397 4
      vertex 23.9394 -1.26397 0
    endloop
  endfacet
  facet normal 0.906243 0.422758 0
    outer loop
      vertex 23.5711 -0.825 4
      vertex 23.4495 -0.564333 0
      vertex 23.4495 -0.564333 4
    endloop
  endfacet
  facet normal 0.906243 0.422758 0
    outer loop
      vertex 23.4495 -0.564333 0
      vertex 23.5711 -0.825 4
      vertex 23.5711 -0.825 0
    endloop
  endfacet
  facet normal 0.996185 0.087269 0
    outer loop
      vertex 23.3751 -0.286519 4
      vertex 23.35 0 0
      vertex 23.35 0 4
    endloop
  endfacet
  facet normal 0.996185 0.087269 0
    outer loop
      vertex 23.35 0 0
      vertex 23.3751 -0.286519 4
      vertex 23.3751 -0.286519 0
    endloop
  endfacet
  facet normal 0.819265 0.573416 0
    outer loop
      vertex 23.736 -1.0606 4
      vertex 23.5711 -0.825 0
      vertex 23.5711 -0.825 4
    endloop
  endfacet
  facet normal 0.819265 0.573416 0
    outer loop
      vertex 23.5711 -0.825 0
      vertex 23.736 -1.0606 4
      vertex 23.736 -1.0606 0
    endloop
  endfacet
  facet normal 0.906243 -0.422758 0
    outer loop
      vertex 23.4495 0.564333 4
      vertex 23.5711 0.825 0
      vertex 23.5711 0.825 4
    endloop
  endfacet
  facet normal 0.906243 -0.422758 0
    outer loop
      vertex 23.5711 0.825 0
      vertex 23.4495 0.564333 4
      vertex 23.4495 0.564333 0
    endloop
  endfacet
  facet normal 0.965961 -0.258689 0
    outer loop
      vertex 23.3751 0.286519 4
      vertex 23.4495 0.564333 0
      vertex 23.4495 0.564333 4
    endloop
  endfacet
  facet normal 0.965961 -0.258689 0
    outer loop
      vertex 23.4495 0.564333 0
      vertex 23.3751 0.286519 4
      vertex 23.3751 0.286519 0
    endloop
  endfacet
  facet normal -0.819265 0.573416 0
    outer loop
      vertex 26.264 -1.0606 0
      vertex 26.4289 -0.825 4
      vertex 26.4289 -0.825 0
    endloop
  endfacet
  facet normal -0.819265 0.573416 0
    outer loop
      vertex 26.4289 -0.825 4
      vertex 26.264 -1.0606 0
      vertex 26.264 -1.0606 4
    endloop
  endfacet
  facet normal -0.258831 0.965923 0
    outer loop
      vertex 25.5643 -1.55049 0
      vertex 25.2865 -1.62493 4
      vertex 25.5643 -1.55049 4
    endloop
  endfacet
  facet normal -0.258831 0.965923 0
    outer loop
      vertex 25.2865 -1.62493 4
      vertex 25.5643 -1.55049 0
      vertex 25.2865 -1.62493 0
    endloop
  endfacet
  facet normal -0.707055 0.707159 0
    outer loop
      vertex 26.0606 -1.26397 0
      vertex 26.264 -1.0606 4
      vertex 26.264 -1.0606 0
    endloop
  endfacet
  facet normal -0.707055 0.707159 0
    outer loop
      vertex 26.264 -1.0606 4
      vertex 26.0606 -1.26397 0
      vertex 26.0606 -1.26397 4
    endloop
  endfacet
  facet normal 0.422571 0.90633 -0
    outer loop
      vertex 24.4357 -1.55049 0
      vertex 24.175 -1.42894 4
      vertex 24.4357 -1.55049 4
    endloop
  endfacet
  facet normal 0.422571 0.90633 0
    outer loop
      vertex 24.175 -1.42894 4
      vertex 24.4357 -1.55049 0
      vertex 24.175 -1.42894 0
    endloop
  endfacet
  facet normal 0.573579 0.81915 -0
    outer loop
      vertex 24.175 -1.42894 0
      vertex 23.9394 -1.26397 4
      vertex 24.175 -1.42894 4
    endloop
  endfacet
  facet normal 0.573579 0.81915 0
    outer loop
      vertex 23.9394 -1.26397 4
      vertex 24.175 -1.42894 0
      vertex 23.9394 -1.26397 0
    endloop
  endfacet
  facet normal 0.965961 0.258689 0
    outer loop
      vertex 23.4495 -0.564333 4
      vertex 23.3751 -0.286519 0
      vertex 23.3751 -0.286519 4
    endloop
  endfacet
  facet normal 0.965961 0.258689 0
    outer loop
      vertex 23.3751 -0.286519 0
      vertex 23.4495 -0.564333 4
      vertex 23.4495 -0.564333 0
    endloop
  endfacet
  facet normal -0.906243 0.422758 0
    outer loop
      vertex 26.4289 -0.825 0
      vertex 26.5505 -0.564333 4
      vertex 26.5505 -0.564333 0
    endloop
  endfacet
  facet normal -0.906243 0.422758 0
    outer loop
      vertex 26.5505 -0.564333 4
      vertex 26.4289 -0.825 0
      vertex 26.4289 -0.825 4
    endloop
  endfacet
  facet normal -0.422571 0.90633 0
    outer loop
      vertex 25.825 -1.42894 0
      vertex 25.5643 -1.55049 4
      vertex 25.825 -1.42894 4
    endloop
  endfacet
  facet normal -0.422571 0.90633 0
    outer loop
      vertex 25.5643 -1.55049 4
      vertex 25.825 -1.42894 0
      vertex 25.5643 -1.55049 0
    endloop
  endfacet
  facet normal 0.258831 0.965923 -0
    outer loop
      vertex 24.7135 -1.62493 0
      vertex 24.4357 -1.55049 4
      vertex 24.7135 -1.62493 4
    endloop
  endfacet
  facet normal 0.258831 0.965923 0
    outer loop
      vertex 24.4357 -1.55049 4
      vertex 24.7135 -1.62493 0
      vertex 24.4357 -1.55049 0
    endloop
  endfacet
  facet normal -1 0 0
    outer loop
      vertex -3 -2 1.5
      vertex -3 2 1.5
      vertex -3 2 0
    endloop
  endfacet
  facet normal -1 0 0
    outer loop
      vertex -3 -2 1.5
      vertex -3 2 0
      vertex -3 -2 0
    endloop
  endfacet
  facet normal -1 0 0
    outer loop
      vertex -3 2 1.5
      vertex -3 -2 1.5
      vertex -3 2 4
    endloop
  endfacet
  facet normal -1 -0 0
    outer loop
      vertex -3 2 4
      vertex -3 -2 1.5
      vertex -3 -2 4
    endloop
  endfacet
  facet normal -0 0 1
    outer loop
      vertex -3 2 4
      vertex 3 -2 4
      vertex 3 2 4
    endloop
  endfacet
  facet normal 0 0 1
    outer loop
      vertex 3 -2 4
      vertex -3 2 4
      vertex -3 -2 4
    endloop
  endfacet
  facet normal 1 0 0
    outer loop
      vertex 3 -2 1.5
      vertex 3 2 1.5
      vertex 3 2 4
    endloop
  endfacet
  facet normal 1 0 0
    outer loop
      vertex 3 -2 1.5
      vertex 3 2 4
      vertex 3 -2 4
    endloop
  endfacet
  facet normal 1 0 0
    outer loop
      vertex 3 2 1.5
      vertex 3 -2 1.5
      vertex 3 2 0
    endloop
  endfacet
  facet normal 1 0 0
    outer loop
      vertex 3 2 0
      vertex 3 -2 1.5
      vertex 3 -2 0
    endloop
  endfacet
endsolid OpenSCAD_Model
