solid OpenSCAD_Model
  facet normal -1 0 0
    outer loop
      vertex 29.5 -5 5
      vertex 29.5 3 7
      vertex 29.5 3 5
    endloop
  endfacet
  facet normal -1 -0 0
    outer loop
      vertex 29.5 3 7
      vertex 29.5 -5 5
      vertex 29.5 -5 7
    endloop
  endfacet
  facet normal 0 0 1
    outer loop
      vertex 34.5 7 7
      vertex 29.5 3 7
      vertex 34.5 -5 7
    endloop
  endfacet
  facet normal 0 0 1
    outer loop
      vertex 34.5 7 7
      vertex 20.5 6 7
      vertex 29.5 3 7
    endloop
  endfacet
  facet normal 0 0 1
    outer loop
      vertex 34.5 7 7
      vertex -20.5 6 7
      vertex 20.5 6 7
    endloop
  endfacet
  facet normal 0 0 1
    outer loop
      vertex -29.5 3 7
      vertex -20.5 4 7
      vertex -20.5 6 7
    endloop
  endfacet
  facet normal 0 0 1
    outer loop
      vertex -20.5 4 7
      vertex -29.5 3 7
      vertex -20.5 3 7
    endloop
  endfacet
  facet normal -0 0 1
    outer loop
      vertex -34.5 7 7
      vertex -20.5 6 7
      vertex 34.5 7 7
    endloop
  endfacet
  facet normal 0 0 1
    outer loop
      vertex -34.5 7 7
      vertex -29.5 3 7
      vertex -20.5 6 7
    endloop
  endfacet
  facet normal 0 0 1
    outer loop
      vertex -34.5 -5 7
      vertex -29.5 3 7
      vertex -34.5 7 7
    endloop
  endfacet
  facet normal 0 0 1
    outer loop
      vertex -29.5 3 7
      vertex -34.5 -5 7
      vertex -29.5 -5 7
    endloop
  endfacet
  facet normal 0 0 1
    outer loop
      vertex 34.5 -5 7
      vertex 29.5 3 7
      vertex 29.5 -5 7
    endloop
  endfacet
  facet normal -0 0 1
    outer loop
      vertex 20.5 4 7
      vertex 29.5 3 7
      vertex 20.5 6 7
    endloop
  endfacet
  facet normal 0 0 1
    outer loop
      vertex 20.5 4 7
      vertex 20.5 3 7
      vertex 29.5 3 7
    endloop
  endfacet
  facet normal 0 0 1
    outer loop
      vertex 15.5 3 7
      vertex 20.5 3 7
      vertex 20.5 4 7
    endloop
  endfacet
  facet normal 0 0 1
    outer loop
      vertex 20.5 3 7
      vertex 15.5 3 7
      vertex 20.5 -5 7
    endloop
  endfacet
  facet normal 0 0 1
    outer loop
      vertex 20.5 4 7
      vertex -15.5 3 7
      vertex 15.5 3 7
    endloop
  endfacet
  facet normal -0 0 1
    outer loop
      vertex -20.5 4 7
      vertex -15.5 3 7
      vertex 20.5 4 7
    endloop
  endfacet
  facet normal 0 0 1
    outer loop
      vertex -20.5 3 7
      vertex -15.5 3 7
      vertex -20.5 4 7
    endloop
  endfacet
  facet normal 0 0 1
    outer loop
      vertex -15.5 3 7
      vertex -20.5 3 7
      vertex -15.5 -5 7
    endloop
  endfacet
  facet normal 0 0 1
    outer loop
      vertex -15.5 -5 7
      vertex -20.5 3 7
      vertex -20.5 -5 7
    endloop
  endfacet
  facet normal 0 0 1
    outer loop
      vertex 20.5 -5 7
      vertex 15.5 3 7
      vertex 15.5 -5 7
    endloop
  endfacet
  facet normal 1 -0 0
    outer loop
      vertex 34.5 -5 7
      vertex 34.5 7 5
      vertex 34.5 7 7
    endloop
  endfacet
  facet normal 1 0 0
    outer loop
      vertex 34.5 7 5
      vertex 34.5 -5 7
      vertex 34.5 -5 5
    endloop
  endfacet
  facet normal 0 -1 0
    outer loop
      vertex 20.5 3 5
      vertex 29.5 3 7
      vertex 20.5 3 7
    endloop
  endfacet
  facet normal 0 -1 -0
    outer loop
      vertex 29.5 3 7
      vertex 20.5 3 5
      vertex 29.5 3 5
    endloop
  endfacet
  facet normal 0 -1 0
    outer loop
      vertex -15.5 3 5
      vertex 15.5 3 7
      vertex -15.5 3 7
    endloop
  endfacet
  facet normal 0 -1 -0
    outer loop
      vertex 15.5 3 7
      vertex -15.5 3 5
      vertex 15.5 3 5
    endloop
  endfacet
  facet normal 0 -1 0
    outer loop
      vertex -29.5 3 5
      vertex -20.5 3 7
      vertex -29.5 3 7
    endloop
  endfacet
  facet normal 0 -1 -0
    outer loop
      vertex -20.5 3 7
      vertex -29.5 3 5
      vertex -20.5 3 5
    endloop
  endfacet
  facet normal 0 0 -1
    outer loop
      vertex -29.5 -5 5
      vertex -34.5 -5 5
      vertex -29.5 3 5
    endloop
  endfacet
  facet normal 0 0 -1
    outer loop
      vertex -15.5 -5 5
      vertex -20.5 -5 5
      vertex -15.5 3 5
    endloop
  endfacet
  facet normal 0 0 -1
    outer loop
      vertex 20.5 -5 5
      vertex 15.5 -5 5
      vertex 20.5 3 5
    endloop
  endfacet
  facet normal 0 0 -1
    outer loop
      vertex 29.5 3 5
      vertex 34.5 -5 5
      vertex 29.5 -5 5
    endloop
  endfacet
  facet normal 0 0 -1
    outer loop
      vertex 34.5 -5 5
      vertex 29.5 3 5
      vertex 34.5 7 5
    endloop
  endfacet
  facet normal 0 0 -1
    outer loop
      vertex 20.5 3 5
      vertex 34.5 7 5
      vertex 29.5 3 5
    endloop
  endfacet
  facet normal 0 0 -1
    outer loop
      vertex 15.5 3 5
      vertex 20.5 3 5
      vertex 15.5 -5 5
    endloop
  endfacet
  facet normal 0 0 -1
    outer loop
      vertex 15.5 3 5
      vertex 34.5 7 5
      vertex 20.5 3 5
    endloop
  endfacet
  facet normal 0 0 -1
    outer loop
      vertex -15.5 3 5
      vertex 34.5 7 5
      vertex 15.5 3 5
    endloop
  endfacet
  facet normal 0 0 -1
    outer loop
      vertex -20.5 3 5
      vertex -15.5 3 5
      vertex -20.5 -5 5
    endloop
  endfacet
  facet normal 0 0 -1
    outer loop
      vertex -34.5 7 5
      vertex -15.5 3 5
      vertex -20.5 3 5
    endloop
  endfacet
  facet normal 0 0 -1
    outer loop
      vertex -34.5 7 5
      vertex -20.5 3 5
      vertex -29.5 3 5
    endloop
  endfacet
  facet normal 0 0 -1
    outer loop
      vertex -15.5 3 5
      vertex -34.5 7 5
      vertex 34.5 7 5
    endloop
  endfacet
  facet normal 0 0 -1
    outer loop
      vertex -34.5 7 5
      vertex -29.5 3 5
      vertex -34.5 -5 5
    endloop
  endfacet
  facet normal 0 -1 0
    outer loop
      vertex 29.5 -5 5
      vertex 34.5 -5 7
      vertex 29.5 -5 7
    endloop
  endfacet
  facet normal 0 -1 -0
    outer loop
      vertex 34.5 -5 7
      vertex 29.5 -5 5
      vertex 34.5 -5 5
    endloop
  endfacet
  facet normal -1 0 0
    outer loop
      vertex 15.5 -5 5
      vertex 15.5 3 7
      vertex 15.5 3 5
    endloop
  endfacet
  facet normal -1 -0 0
    outer loop
      vertex 15.5 3 7
      vertex 15.5 -5 5
      vertex 15.5 -5 7
    endloop
  endfacet
  facet normal 1 -0 0
    outer loop
      vertex 20.5 -5 7
      vertex 20.5 3 5
      vertex 20.5 3 7
    endloop
  endfacet
  facet normal 1 0 0
    outer loop
      vertex 20.5 3 5
      vertex 20.5 -5 7
      vertex 20.5 -5 5
    endloop
  endfacet
  facet normal 0 -1 0
    outer loop
      vertex 15.5 -5 5
      vertex 20.5 -5 7
      vertex 15.5 -5 7
    endloop
  endfacet
  facet normal 0 -1 -0
    outer loop
      vertex 20.5 -5 7
      vertex 15.5 -5 5
      vertex 20.5 -5 5
    endloop
  endfacet
  facet normal -1 0 0
    outer loop
      vertex -34.5 -5 5
      vertex -34.5 7 7
      vertex -34.5 7 5
    endloop
  endfacet
  facet normal -1 -0 0
    outer loop
      vertex -34.5 7 7
      vertex -34.5 -5 5
      vertex -34.5 -5 7
    endloop
  endfacet
  facet normal 0 1 -0
    outer loop
      vertex 34.5 7 5
      vertex -34.5 7 7
      vertex 34.5 7 7
    endloop
  endfacet
  facet normal 0 1 0
    outer loop
      vertex -34.5 7 7
      vertex 34.5 7 5
      vertex -34.5 7 5
    endloop
  endfacet
  facet normal 1 -0 0
    outer loop
      vertex -29.5 -5 7
      vertex -29.5 3 5
      vertex -29.5 3 7
    endloop
  endfacet
  facet normal 1 0 0
    outer loop
      vertex -29.5 3 5
      vertex -29.5 -5 7
      vertex -29.5 -5 5
    endloop
  endfacet
  facet normal 0 -1 0
    outer loop
      vertex -34.5 -5 5
      vertex -29.5 -5 7
      vertex -34.5 -5 7
    endloop
  endfacet
  facet normal 0 -1 -0
    outer loop
      vertex -29.5 -5 7
      vertex -34.5 -5 5
      vertex -29.5 -5 5
    endloop
  endfacet
  facet normal 1 -0 0
    outer loop
      vertex -15.5 -5 7
      vertex -15.5 3 5
      vertex -15.5 3 7
    endloop
  endfacet
  facet normal 1 0 0
    outer loop
      vertex -15.5 3 5
      vertex -15.5 -5 7
      vertex -15.5 -5 5
    endloop
  endfacet
  facet normal -1 0 0
    outer loop
      vertex -20.5 -5 5
      vertex -20.5 3 7
      vertex -20.5 3 5
    endloop
  endfacet
  facet normal -1 -0 0
    outer loop
      vertex -20.5 3 7
      vertex -20.5 -5 5
      vertex -20.5 -5 7
    endloop
  endfacet
  facet normal 0 -1 0
    outer loop
      vertex -20.5 -5 5
      vertex -15.5 -5 7
      vertex -20.5 -5 7
    endloop
  endfacet
  facet normal 0 -1 -0
    outer loop
      vertex -15.5 -5 7
      vertex -20.5 -5 5
      vertex -15.5 -5 5
    endloop
  endfacet
  facet normal -1 0 0
    outer loop
      vertex -20.5 4 7
      vertex -20.5 6 9
      vertex -20.5 6 7
    endloop
  endfacet
  facet normal -1 -0 0
    outer loop
      vertex -20.5 6 9
      vertex -20.5 4 7
      vertex -20.5 4 9
    endloop
  endfacet
  facet normal -0 0 1
    outer loop
      vertex -20.5 6 9
      vertex 20.5 4 9
      vertex 20.5 6 9
    endloop
  endfacet
  facet normal 0 0 1
    outer loop
      vertex 20.5 4 9
      vertex -20.5 6 9
      vertex -20.5 4 9
    endloop
  endfacet
  facet normal 1 -0 0
    outer loop
      vertex 20.5 4 9
      vertex 20.5 6 7
      vertex 20.5 6 9
    endloop
  endfacet
  facet normal 1 0 0
    outer loop
      vertex 20.5 6 7
      vertex 20.5 4 9
      vertex 20.5 4 7
    endloop
  endfacet
  facet normal 0 -1 0
    outer loop
      vertex -20.5 4 7
      vertex 20.5 4 9
      vertex -20.5 4 9
    endloop
  endfacet
  facet normal 0 -1 -0
    outer loop
      vertex 20.5 4 9
      vertex -20.5 4 7
      vertex 20.5 4 7
    endloop
  endfacet
  facet normal 0 1 -0
    outer loop
      vertex 20.5 6 7
      vertex -20.5 6 9
      vertex 20.5 6 9
    endloop
  endfacet
  facet normal 0 1 0
    outer loop
      vertex -20.5 6 9
      vertex 20.5 6 7
      vertex -20.5 6 7
    endloop
  endfacet
endsolid OpenSCAD_Model
