solid OpenSCAD_Model
  facet normal -1 0 0
    outer loop
      vertex 13.25 -11.9 0
      vertex 13.25 -1.5 -4
      vertex 13.25 -11.9 -0.538309
    endloop
  endfacet
  facet normal -1 0 0
    outer loop
      vertex 13.25 -1.5 -4
      vertex 13.25 -12.2739 -1.55
      vertex 13.25 -11.9 -0.538309
    endloop
  endfacet
  facet normal -1 0 0
    outer loop
      vertex 13.25 -1.5 -4
      vertex 13.25 -12.9766 -2.37474
      vertex 13.25 -12.2739 -1.55
    endloop
  endfacet
  facet normal -1 0 0
    outer loop
      vertex 13.25 -1.5 -4
      vertex 13.25 -13.9234 -2.91305
      vertex 13.25 -12.9766 -2.37474
    endloop
  endfacet
  facet normal -1 0 0
    outer loop
      vertex 13.25 -1.5 -4
      vertex 13.25 -15 -3.1
      vertex 13.25 -13.9234 -2.91305
    endloop
  endfacet
  facet normal -1 0 0
    outer loop
      vertex 13.25 -21.5 -4
      vertex 13.25 -18.1 0
      vertex 13.25 -18.1 -0.538309
    endloop
  endfacet
  facet normal -1 0 0
    outer loop
      vertex 13.25 -21.5 4
      vertex 13.25 -18.1 0
      vertex 13.25 -21.5 -4
    endloop
  endfacet
  facet normal -1 -0 0
    outer loop
      vertex 13.25 -17.7261 -1.55
      vertex 13.25 -21.5 -4
      vertex 13.25 -18.1 -0.538309
    endloop
  endfacet
  facet normal -1 -0 0
    outer loop
      vertex 13.25 -17.0234 -2.37474
      vertex 13.25 -21.5 -4
      vertex 13.25 -17.7261 -1.55
    endloop
  endfacet
  facet normal -1 -0 0
    outer loop
      vertex 13.25 -16.0766 -2.91305
      vertex 13.25 -21.5 -4
      vertex 13.25 -17.0234 -2.37474
    endloop
  endfacet
  facet normal -1 -0 0
    outer loop
      vertex 13.25 -15 -3.1
      vertex 13.25 -21.5 -4
      vertex 13.25 -16.0766 -2.91305
    endloop
  endfacet
  facet normal -1 0 0
    outer loop
      vertex 13.25 -21.5 -4
      vertex 13.25 -15 -3.1
      vertex 13.25 -1.5 -4
    endloop
  endfacet
  facet normal -1 0 0
    outer loop
      vertex 13.25 -1.5 -4
      vertex 13.25 -11.9 0
      vertex 13.25 -1.5 4
    endloop
  endfacet
  facet normal -1 0 0
    outer loop
      vertex 13.25 -11.9 0.538309
      vertex 13.25 -1.5 4
      vertex 13.25 -11.9 0
    endloop
  endfacet
  facet normal -1 0 0
    outer loop
      vertex 13.25 -12.2739 1.55
      vertex 13.25 -1.5 4
      vertex 13.25 -11.9 0.538309
    endloop
  endfacet
  facet normal -1 0 0
    outer loop
      vertex 13.25 -12.9766 2.37474
      vertex 13.25 -1.5 4
      vertex 13.25 -12.2739 1.55
    endloop
  endfacet
  facet normal -1 0 0
    outer loop
      vertex 13.25 -13.9234 2.91305
      vertex 13.25 -1.5 4
      vertex 13.25 -12.9766 2.37474
    endloop
  endfacet
  facet normal -1 0 0
    outer loop
      vertex 13.25 -15 3.1
      vertex 13.25 -1.5 4
      vertex 13.25 -13.9234 2.91305
    endloop
  endfacet
  facet normal -1 0 0
    outer loop
      vertex 13.25 -18.1 0
      vertex 13.25 -21.5 4
      vertex 13.25 -18.1 0.538309
    endloop
  endfacet
  facet normal -1 0 0
    outer loop
      vertex 13.25 -15 3.1
      vertex 13.25 -21.5 4
      vertex 13.25 -1.5 4
    endloop
  endfacet
  facet normal -1 0 0
    outer loop
      vertex 13.25 -16.0766 2.91305
      vertex 13.25 -21.5 4
      vertex 13.25 -15 3.1
    endloop
  endfacet
  facet normal -1 0 0
    outer loop
      vertex 13.25 -17.0234 2.37474
      vertex 13.25 -21.5 4
      vertex 13.25 -16.0766 2.91305
    endloop
  endfacet
  facet normal -1 0 0
    outer loop
      vertex 13.25 -17.7261 1.55
      vertex 13.25 -21.5 4
      vertex 13.25 -17.0234 2.37474
    endloop
  endfacet
  facet normal -1 0 0
    outer loop
      vertex 13.25 -18.1 0.538309
      vertex 13.25 -21.5 4
      vertex 13.25 -17.7261 1.55
    endloop
  endfacet
  facet normal -0 0 1
    outer loop
      vertex 13.25 -1.5 4
      vertex 16.25 -15 4
      vertex 16.25 1.5 4
    endloop
  endfacet
  facet normal 0 0 1
    outer loop
      vertex 13.25 -21.5 4
      vertex 16.25 -15 4
      vertex 13.25 -1.5 4
    endloop
  endfacet
  facet normal 0 0 1
    outer loop
      vertex 16.25 1.5 4
      vertex -13.25 -1.5 4
      vertex 13.25 -1.5 4
    endloop
  endfacet
  facet normal -0 0 1
    outer loop
      vertex -16.25 1.5 4
      vertex -13.25 -1.5 4
      vertex 16.25 1.5 4
    endloop
  endfacet
  facet normal 0 0 1
    outer loop
      vertex -16.25 -11.5 4
      vertex -13.25 -1.5 4
      vertex -16.25 1.5 4
    endloop
  endfacet
  facet normal 0 0 1
    outer loop
      vertex -13.25 -1.5 4
      vertex -16.25 -11.5 4
      vertex -13.25 -11.5 4
    endloop
  endfacet
  facet normal 0 0 1
    outer loop
      vertex 16.25 -15 4
      vertex 13.25 -21.5 4
      vertex 16.25 -21.5 4
    endloop
  endfacet
  facet normal 1 0 0
    outer loop
      vertex 16.25 1.5 4
      vertex 16.25 -11 0.694592
      vertex 16.25 1.5 -4
    endloop
  endfacet
  facet normal 1 0 0
    outer loop
      vertex 16.25 1.5 4
      vertex 16.25 -11.2895 1.47784
      vertex 16.25 -11 0.694592
    endloop
  endfacet
  facet normal 1 0 0
    outer loop
      vertex 16.25 1.5 4
      vertex 16.25 -11.4825 2
      vertex 16.25 -11.2895 1.47784
    endloop
  endfacet
  facet normal 1 0 0
    outer loop
      vertex 16.25 1.5 4
      vertex 16.25 -11.8451 2.42567
      vertex 16.25 -11.4825 2
    endloop
  endfacet
  facet normal 1 0 0
    outer loop
      vertex 16.25 1.5 4
      vertex 16.25 -12.3892 3.06418
      vertex 16.25 -11.8451 2.42567
    endloop
  endfacet
  facet normal 1 0 0
    outer loop
      vertex 16.25 1.5 4
      vertex 16.25 -13.6108 3.75877
      vertex 16.25 -12.3892 3.06418
    endloop
  endfacet
  facet normal 1 0 -0
    outer loop
      vertex 16.25 -13.6108 3.75877
      vertex 16.25 1.5 4
      vertex 16.25 -15 4
    endloop
  endfacet
  facet normal 1 -0 0
    outer loop
      vertex 16.25 -11 -0.694592
      vertex 16.25 1.5 -4
      vertex 16.25 -11 0.694592
    endloop
  endfacet
  facet normal 1 -0 0
    outer loop
      vertex 16.25 -11.193 -1.21676
      vertex 16.25 1.5 -4
      vertex 16.25 -11 -0.694592
    endloop
  endfacet
  facet normal 1 -0 0
    outer loop
      vertex 16.25 -11.4825 -2
      vertex 16.25 1.5 -4
      vertex 16.25 -11.193 -1.21676
    endloop
  endfacet
  facet normal 1 -0 0
    outer loop
      vertex 16.25 -12.0265 -2.63851
      vertex 16.25 1.5 -4
      vertex 16.25 -11.4825 -2
    endloop
  endfacet
  facet normal 1 -0 0
    outer loop
      vertex 16.25 -12.3892 -3.06418
      vertex 16.25 1.5 -4
      vertex 16.25 -12.0265 -2.63851
    endloop
  endfacet
  facet normal 1 -0 0
    outer loop
      vertex 16.25 -13.6108 -3.75877
      vertex 16.25 1.5 -4
      vertex 16.25 -12.3892 -3.06418
    endloop
  endfacet
  facet normal 1 -0 0
    outer loop
      vertex 16.25 -14.1665 -3.85526
      vertex 16.25 1.5 -4
      vertex 16.25 -13.6108 -3.75877
    endloop
  endfacet
  facet normal 1 0 0
    outer loop
      vertex 16.25 -15 -4
      vertex 16.25 1.5 -4
      vertex 16.25 -14.1665 -3.85526
    endloop
  endfacet
  facet normal 1 0 0
    outer loop
      vertex 16.25 -21.5 -4
      vertex 16.25 -19 -0.694592
      vertex 16.25 -21.5 4
    endloop
  endfacet
  facet normal -0 0 0
    outer loop
      vertex 16.25 -15 -4
      vertex 16.25 -21.5 -4
      vertex 16.25 1.5 -4
    endloop
  endfacet
  facet normal 1 0 0
    outer loop
      vertex 16.25 -15.8335 -3.85526
      vertex 16.25 -21.5 -4
      vertex 16.25 -15 -4
    endloop
  endfacet
  facet normal 1 0 0
    outer loop
      vertex 16.25 -16.3892 -3.75877
      vertex 16.25 -21.5 -4
      vertex 16.25 -15.8335 -3.85526
    endloop
  endfacet
  facet normal 1 0 0
    outer loop
      vertex 16.25 -17.6108 -3.06418
      vertex 16.25 -21.5 -4
      vertex 16.25 -16.3892 -3.75877
    endloop
  endfacet
  facet normal 1 0 0
    outer loop
      vertex 16.25 -18.5175 -2
      vertex 16.25 -21.5 -4
      vertex 16.25 -17.6108 -3.06418
    endloop
  endfacet
  facet normal 1 0 0
    outer loop
      vertex 16.25 -19 -0.694592
      vertex 16.25 -21.5 -4
      vertex 16.25 -18.5175 -2
    endloop
  endfacet
  facet normal 1 0 0
    outer loop
      vertex 16.25 -19 0.694592
      vertex 16.25 -21.5 4
      vertex 16.25 -19 -0.694592
    endloop
  endfacet
  facet normal 1 0 0
    outer loop
      vertex 16.25 -18.5175 2
      vertex 16.25 -21.5 4
      vertex 16.25 -19 0.694592
    endloop
  endfacet
  facet normal 1 0 0
    outer loop
      vertex 16.25 -17.6108 3.06418
      vertex 16.25 -21.5 4
      vertex 16.25 -18.5175 2
    endloop
  endfacet
  facet normal 1 0 0
    outer loop
      vertex 16.25 -16.3892 3.75877
      vertex 16.25 -21.5 4
      vertex 16.25 -17.6108 3.06418
    endloop
  endfacet
  facet normal 1 -0 0
    outer loop
      vertex 16.25 -21.5 4
      vertex 16.25 -16.3892 3.75877
      vertex 16.25 -15 4
    endloop
  endfacet
  facet normal 0 0 -1
    outer loop
      vertex -13.25 -11.5 -4
      vertex -16.25 -11.5 -4
      vertex -13.25 -1.5 -4
    endloop
  endfacet
  facet normal 0 0 -1
    outer loop
      vertex 13.25 -1.5 -4
      vertex 16.25 -21.5 -4
      vertex 13.25 -21.5 -4
    endloop
  endfacet
  facet normal 0 0 -1
    outer loop
      vertex 16.25 -21.5 -4
      vertex 13.25 -1.5 -4
      vertex 16.25 1.5 -4
    endloop
  endfacet
  facet normal 0 0 -1
    outer loop
      vertex -13.25 -1.5 -4
      vertex 16.25 1.5 -4
      vertex 13.25 -1.5 -4
    endloop
  endfacet
  facet normal 0 0 -1
    outer loop
      vertex -13.25 -1.5 -4
      vertex -16.25 1.5 -4
      vertex 16.25 1.5 -4
    endloop
  endfacet
  facet normal 0 0 -1
    outer loop
      vertex -16.25 1.5 -4
      vertex -13.25 -1.5 -4
      vertex -16.25 -11.5 -4
    endloop
  endfacet
  facet normal 0 -1 0
    outer loop
      vertex 13.25 -21.5 -4
      vertex 16.25 -21.5 4
      vertex 13.25 -21.5 4
    endloop
  endfacet
  facet normal 0 -1 -0
    outer loop
      vertex 16.25 -21.5 4
      vertex 13.25 -21.5 -4
      vertex 16.25 -21.5 -4
    endloop
  endfacet
  facet normal 0 1 -0
    outer loop
      vertex 16.25 1.5 -4
      vertex -16.25 1.5 4
      vertex 16.25 1.5 4
    endloop
  endfacet
  facet normal 0 1 0
    outer loop
      vertex -16.25 1.5 4
      vertex 16.25 1.5 -4
      vertex -16.25 1.5 -4
    endloop
  endfacet
  facet normal 0 0.171077 -0.985258
    outer loop
      vertex 18.25 -13.6108 -3.75877
      vertex 16.25 -14.1665 -3.85526
      vertex 16.25 -13.6108 -3.75877
    endloop
  endfacet
  facet normal 0 0.171093 -0.985255
    outer loop
      vertex 16.25 -14.1665 -3.85526
      vertex 18.25 -15 -4
      vertex 16.25 -15 -4
    endloop
  endfacet
  facet normal -2.69612e-06 0.171086 -0.985256
    outer loop
      vertex 18.25 -15 -4
      vertex 16.25 -14.1665 -3.85526
      vertex 18.25 -13.6108 -3.75877
    endloop
  endfacet
  facet normal -0 0.171086 0.985256
    outer loop
      vertex 16.25 -13.6108 3.75877
      vertex 18.25 -15 4
      vertex 18.25 -13.6108 3.75877
    endloop
  endfacet
  facet normal 0 0.171086 0.985256
    outer loop
      vertex 18.25 -15 4
      vertex 16.25 -13.6108 3.75877
      vertex 16.25 -15 4
    endloop
  endfacet
  facet normal 0 0.761135 0.648594
    outer loop
      vertex 18.25 -12.3892 3.06418
      vertex 16.25 -11.8451 2.42567
      vertex 16.25 -12.3892 3.06418
    endloop
  endfacet
  facet normal 2.97987e-05 0.761181 0.64854
    outer loop
      vertex 16.25 -11.8451 2.42567
      vertex 18.25 -12.3892 3.06418
      vertex 18.25 -11.4825 2
    endloop
  endfacet
  facet normal 0 0.937978 0.346694
    outer loop
      vertex 16.25 -11.2895 1.47784
      vertex 16.25 -11.4825 2
      vertex 18.25 -11.4825 2
    endloop
  endfacet
  facet normal 0 -0.937979 0.346692
    outer loop
      vertex 16.25 -19 0.694592
      vertex 18.25 -18.5175 2
      vertex 16.25 -18.5175 2
    endloop
  endfacet
  facet normal 0 -0.937979 0.346692
    outer loop
      vertex 18.25 -18.5175 2
      vertex 16.25 -19 0.694592
      vertex 18.25 -19 0.694592
    endloop
  endfacet
  facet normal 0 -0.494278 0.869304
    outer loop
      vertex 16.25 -16.3892 3.75877
      vertex 18.25 -17.6108 3.06418
      vertex 18.25 -16.3892 3.75877
    endloop
  endfacet
  facet normal 0 -0.494278 0.869304
    outer loop
      vertex 18.25 -17.6108 3.06418
      vertex 16.25 -16.3892 3.75877
      vertex 16.25 -17.6108 3.06418
    endloop
  endfacet
  facet normal 0 0.761162 -0.648562
    outer loop
      vertex 18.25 -12.3892 -3.06418
      vertex 16.25 -12.3892 -3.06418
      vertex 16.25 -12.0265 -2.63851
    endloop
  endfacet
  facet normal 0 0.494278 -0.869304
    outer loop
      vertex 16.25 -13.6108 -3.75877
      vertex 18.25 -12.3892 -3.06418
      vertex 18.25 -13.6108 -3.75877
    endloop
  endfacet
  facet normal 0 0.494278 -0.869304
    outer loop
      vertex 18.25 -12.3892 -3.06418
      vertex 16.25 -13.6108 -3.75877
      vertex 16.25 -12.3892 -3.06418
    endloop
  endfacet
  facet normal 0 0.93798 -0.346689
    outer loop
      vertex 18.25 -11 -0.694592
      vertex 16.25 -11.193 -1.21676
      vertex 16.25 -11 -0.694592
    endloop
  endfacet
  facet normal 0 1 -0
    outer loop
      vertex 18.25 -11 -0.694592
      vertex 16.25 -11 0.694592
      vertex 18.25 -11 0.694592
    endloop
  endfacet
  facet normal 0 1 0
    outer loop
      vertex 16.25 -11 0.694592
      vertex 18.25 -11 -0.694592
      vertex 16.25 -11 -0.694592
    endloop
  endfacet
  facet normal 1 0 0
    outer loop
      vertex 18.25 -15 4
      vertex 18.25 -14.1905 1.52976
      vertex 18.25 -11.4825 2
    endloop
  endfacet
  facet normal 1 0 0
    outer loop
      vertex 18.25 -14.1905 1.52976
      vertex 18.25 -15 4
      vertex 18.25 -14.3922 1.64446
    endloop
  endfacet
  facet normal 1 0 0
    outer loop
      vertex 18.25 -15 4
      vertex 18.25 -15 1.75
      vertex 18.25 -14.3922 1.64446
    endloop
  endfacet
  facet normal 1 0 0
    outer loop
      vertex 18.25 -15 4
      vertex 18.25 -15.6078 1.64446
      vertex 18.25 -15 1.75
    endloop
  endfacet
  facet normal 1 0 0
    outer loop
      vertex 18.25 -15 4
      vertex 18.25 -16.1422 1.34058
      vertex 18.25 -15.6078 1.64446
    endloop
  endfacet
  facet normal 1 0 0
    outer loop
      vertex 18.25 -19 0.694592
      vertex 18.25 -16.1422 1.34058
      vertex 18.25 -15 4
    endloop
  endfacet
  facet normal 1 0 0
    outer loop
      vertex 18.25 -16.1422 1.34058
      vertex 18.25 -19 0.694592
      vertex 18.25 -16.292 1.16484
    endloop
  endfacet
  facet normal -0 0.494278 0.869304
    outer loop
      vertex 16.25 -12.3892 3.06418
      vertex 18.25 -13.6108 3.75877
      vertex 18.25 -12.3892 3.06418
    endloop
  endfacet
  facet normal 0 0.494278 0.869304
    outer loop
      vertex 18.25 -13.6108 3.75877
      vertex 16.25 -12.3892 3.06418
      vertex 16.25 -13.6108 3.75877
    endloop
  endfacet
  facet normal 1 0 0
    outer loop
      vertex 18.25 -12.3892 3.06418
      vertex 18.25 -13.6108 3.75877
      vertex 18.25 -11.4825 2
    endloop
  endfacet
  facet normal -0 0.76125 0.648458
    outer loop
      vertex 16.25 -11.4825 2
      vertex 16.25 -11.8451 2.42567
      vertex 18.25 -11.4825 2
    endloop
  endfacet
  facet normal 1 0 0
    outer loop
      vertex 18.25 -13.6108 3.75877
      vertex 18.25 -15 4
      vertex 18.25 -11.4825 2
    endloop
  endfacet
  facet normal 0 -0.494278 -0.869304
    outer loop
      vertex 16.25 -17.6108 -3.06418
      vertex 18.25 -16.3892 -3.75877
      vertex 18.25 -17.6108 -3.06418
    endloop
  endfacet
  facet normal -0 -0.494278 -0.869304
    outer loop
      vertex 18.25 -16.3892 -3.75877
      vertex 16.25 -17.6108 -3.06418
      vertex 16.25 -16.3892 -3.75877
    endloop
  endfacet
  facet normal 0 -0.761181 0.64854
    outer loop
      vertex 16.25 -18.5175 2
      vertex 18.25 -17.6108 3.06418
      vertex 16.25 -17.6108 3.06418
    endloop
  endfacet
  facet normal 0 -0.761181 0.64854
    outer loop
      vertex 18.25 -17.6108 3.06418
      vertex 16.25 -18.5175 2
      vertex 18.25 -18.5175 2
    endloop
  endfacet
  facet normal 1 0 0
    outer loop
      vertex 18.25 -17.6108 3.06418
      vertex 18.25 -18.5175 2
      vertex 18.25 -19 0.694592
    endloop
  endfacet
  facet normal 0 -0.171086 0.985256
    outer loop
      vertex 16.25 -15 4
      vertex 18.25 -16.3892 3.75877
      vertex 18.25 -15 4
    endloop
  endfacet
  facet normal 0 -0.171086 0.985256
    outer loop
      vertex 18.25 -16.3892 3.75877
      vertex 16.25 -15 4
      vertex 16.25 -16.3892 3.75877
    endloop
  endfacet
  facet normal 0 0.761194 -0.648525
    outer loop
      vertex 18.25 -11.4825 -2
      vertex 16.25 -12.0265 -2.63851
      vertex 16.25 -11.4825 -2
    endloop
  endfacet
  facet normal 8.26035e-06 0.761181 -0.64854
    outer loop
      vertex 16.25 -12.0265 -2.63851
      vertex 18.25 -11.4825 -2
      vertex 18.25 -12.3892 -3.06418
    endloop
  endfacet
  facet normal 8.32061e-07 0.937979 -0.346692
    outer loop
      vertex 18.25 -11.4825 -2
      vertex 16.25 -11.193 -1.21676
      vertex 18.25 -11 -0.694592
    endloop
  endfacet
  facet normal 0 0.937978 -0.346694
    outer loop
      vertex 16.25 -11.193 -1.21676
      vertex 18.25 -11.4825 -2
      vertex 16.25 -11.4825 -2
    endloop
  endfacet
  facet normal 5.54708e-07 0.937979 0.346692
    outer loop
      vertex 18.25 -11 0.694592
      vertex 16.25 -11.2895 1.47784
      vertex 18.25 -11.4825 2
    endloop
  endfacet
  facet normal 0 0.937979 0.346691
    outer loop
      vertex 16.25 -11.2895 1.47784
      vertex 18.25 -11 0.694592
      vertex 16.25 -11 0.694592
    endloop
  endfacet
  facet normal 1 0 0
    outer loop
      vertex 18.25 -19 -0.694592
      vertex 18.25 -16.75 -0.303884
      vertex 18.25 -16.75 0.303884
    endloop
  endfacet
  facet normal 1 0 0
    outer loop
      vertex 18.25 -16.75 -0.303884
      vertex 18.25 -18.5175 -2
      vertex 18.25 -17.6108 -3.06418
    endloop
  endfacet
  facet normal 1 -0 0
    outer loop
      vertex 18.25 -19 0.694592
      vertex 18.25 -16.75 0.303884
      vertex 18.25 -16.5389 0.875
    endloop
  endfacet
  facet normal 1 0 0
    outer loop
      vertex 18.25 -19 0.694592
      vertex 18.25 -16.5389 0.875
      vertex 18.25 -16.292 1.16484
    endloop
  endfacet
  facet normal 1 0 0
    outer loop
      vertex 18.25 -16.75 0.303884
      vertex 18.25 -19 0.694592
      vertex 18.25 -19 -0.694592
    endloop
  endfacet
  facet normal 1 0 0
    outer loop
      vertex 18.25 -16.75 -0.303884
      vertex 18.25 -19 -0.694592
      vertex 18.25 -18.5175 -2
    endloop
  endfacet
  facet normal 1 0 0
    outer loop
      vertex 18.25 -13.25 0.303884
      vertex 18.25 -11 0.694592
      vertex 18.25 -11.4825 2
    endloop
  endfacet
  facet normal 1 0 0
    outer loop
      vertex 18.25 -11 0.694592
      vertex 18.25 -13.25 0.303884
      vertex 18.25 -11 -0.694592
    endloop
  endfacet
  facet normal 1 0 0
    outer loop
      vertex 18.25 -11 -0.694592
      vertex 18.25 -13.25 -0.303884
      vertex 18.25 -11.4825 -2
    endloop
  endfacet
  facet normal 1 0 0
    outer loop
      vertex 18.25 -11 -0.694592
      vertex 18.25 -13.25 0.303884
      vertex 18.25 -13.25 -0.303884
    endloop
  endfacet
  facet normal 1 0 0
    outer loop
      vertex 18.25 -11.4825 2
      vertex 18.25 -13.4611 0.874999
      vertex 18.25 -13.25 0.303884
    endloop
  endfacet
  facet normal 1 0 0
    outer loop
      vertex 18.25 -11.4825 2
      vertex 18.25 -13.8578 1.34058
      vertex 18.25 -13.4611 0.874999
    endloop
  endfacet
  facet normal 1 0 -0
    outer loop
      vertex 18.25 -13.8578 1.34058
      vertex 18.25 -11.4825 2
      vertex 18.25 -14.1905 1.52976
    endloop
  endfacet
  facet normal 1 -0 0
    outer loop
      vertex 18.25 -13.4611 -0.875
      vertex 18.25 -11.4825 -2
      vertex 18.25 -13.25 -0.303884
    endloop
  endfacet
  facet normal 1 0 0
    outer loop
      vertex 18.25 -11.4825 -2
      vertex 18.25 -13.4611 -0.875
      vertex 18.25 -12.3892 -3.06418
    endloop
  endfacet
  facet normal 1 -0 0
    outer loop
      vertex 18.25 -13.8578 -1.34058
      vertex 18.25 -12.3892 -3.06418
      vertex 18.25 -13.4611 -0.875
    endloop
  endfacet
  facet normal 1 0 0
    outer loop
      vertex 18.25 -12.3892 -3.06418
      vertex 18.25 -13.8578 -1.34058
      vertex 18.25 -13.6108 -3.75877
    endloop
  endfacet
  facet normal 1 -0 0
    outer loop
      vertex 18.25 -14.3922 -1.64446
      vertex 18.25 -13.6108 -3.75877
      vertex 18.25 -13.8578 -1.34058
    endloop
  endfacet
  facet normal 1 0 0
    outer loop
      vertex 18.25 -15 -4
      vertex 18.25 -14.3922 -1.64446
      vertex 18.25 -15 -1.75
    endloop
  endfacet
  facet normal 1 0 0
    outer loop
      vertex 18.25 -14.3922 -1.64446
      vertex 18.25 -15 -4
      vertex 18.25 -13.6108 -3.75877
    endloop
  endfacet
  facet normal 1 0 0
    outer loop
      vertex 18.25 -15.6078 -1.64446
      vertex 18.25 -15 -4
      vertex 18.25 -15 -1.75
    endloop
  endfacet
  facet normal 1 0 0
    outer loop
      vertex 18.25 -16.3892 -3.75877
      vertex 18.25 -15.6078 -1.64446
      vertex 18.25 -16.1422 -1.34058
    endloop
  endfacet
  facet normal 1 0 0
    outer loop
      vertex 18.25 -15.6078 -1.64446
      vertex 18.25 -16.3892 -3.75877
      vertex 18.25 -15 -4
    endloop
  endfacet
  facet normal 1 0 0
    outer loop
      vertex 18.25 -17.6108 -3.06418
      vertex 18.25 -16.1422 -1.34058
      vertex 18.25 -16.5389 -0.874999
    endloop
  endfacet
  facet normal 1 0 0
    outer loop
      vertex 18.25 -17.6108 -3.06418
      vertex 18.25 -16.5389 -0.874999
      vertex 18.25 -16.75 -0.303884
    endloop
  endfacet
  facet normal 1 0 0
    outer loop
      vertex 18.25 -16.1422 -1.34058
      vertex 18.25 -17.6108 -3.06418
      vertex 18.25 -16.3892 -3.75877
    endloop
  endfacet
  facet normal -0 -0.171077 -0.985258
    outer loop
      vertex 18.25 -16.3892 -3.75877
      vertex 16.25 -16.3892 -3.75877
      vertex 16.25 -15.8335 -3.85526
    endloop
  endfacet
  facet normal -2.69612e-06 -0.171086 -0.985256
    outer loop
      vertex 16.25 -15.8335 -3.85526
      vertex 18.25 -15 -4
      vertex 18.25 -16.3892 -3.75877
    endloop
  endfacet
  facet normal -0 -0.171093 -0.985255
    outer loop
      vertex 18.25 -15 -4
      vertex 16.25 -15.8335 -3.85526
      vertex 16.25 -15 -4
    endloop
  endfacet
  facet normal 1 0 0
    outer loop
      vertex 18.25 -16.3892 3.75877
      vertex 18.25 -17.6108 3.06418
      vertex 18.25 -19 0.694592
    endloop
  endfacet
  facet normal 1 0 0
    outer loop
      vertex 18.25 -15 4
      vertex 18.25 -16.3892 3.75877
      vertex 18.25 -19 0.694592
    endloop
  endfacet
  facet normal 0 -0.761181 -0.64854
    outer loop
      vertex 16.25 -17.6108 -3.06418
      vertex 18.25 -18.5175 -2
      vertex 16.25 -18.5175 -2
    endloop
  endfacet
  facet normal 0 -0.761181 -0.64854
    outer loop
      vertex 18.25 -18.5175 -2
      vertex 16.25 -17.6108 -3.06418
      vertex 18.25 -17.6108 -3.06418
    endloop
  endfacet
  facet normal 0 -0.937979 -0.346692
    outer loop
      vertex 16.25 -18.5175 -2
      vertex 18.25 -19 -0.694592
      vertex 16.25 -19 -0.694592
    endloop
  endfacet
  facet normal 0 -0.937979 -0.346692
    outer loop
      vertex 18.25 -19 -0.694592
      vertex 16.25 -18.5175 -2
      vertex 18.25 -18.5175 -2
    endloop
  endfacet
  facet normal 0 -1 0
    outer loop
      vertex 16.25 -19 -0.694592
      vertex 18.25 -19 0.694592
      vertex 16.25 -19 0.694592
    endloop
  endfacet
  facet normal 0 -1 -0
    outer loop
      vertex 18.25 -19 0.694592
      vertex 16.25 -19 -0.694592
      vertex 18.25 -19 -0.694592
    endloop
  endfacet
  facet normal 0 -0.171083 0.985257
    outer loop
      vertex 15.24 -14.3922 -1.64446
      vertex 18.25 -15 -1.75
      vertex 18.25 -14.3922 -1.64446
    endloop
  endfacet
  facet normal 0 -0.171083 0.985257
    outer loop
      vertex 18.25 -15 -1.75
      vertex 15.24 -14.3922 -1.64446
      vertex 15.24 -15 -1.75
    endloop
  endfacet
  facet normal 0 -0.171083 -0.985257
    outer loop
      vertex 15.24 -15 1.75
      vertex 18.25 -14.3922 1.64446
      vertex 18.25 -15 1.75
    endloop
  endfacet
  facet normal -0 -0.171083 -0.985257
    outer loop
      vertex 18.25 -14.3922 1.64446
      vertex 15.24 -15 1.75
      vertex 15.24 -14.3922 1.64446
    endloop
  endfacet
  facet normal 0 -1 0
    outer loop
      vertex 15.24 -13.25 -0.303884
      vertex 18.25 -13.25 0.303884
      vertex 15.24 -13.25 0.303884
    endloop
  endfacet
  facet normal 0 -1 -0
    outer loop
      vertex 18.25 -13.25 0.303884
      vertex 15.24 -13.25 -0.303884
      vertex 18.25 -13.25 -0.303884
    endloop
  endfacet
  facet normal 0 1 -0
    outer loop
      vertex 18.25 -16.75 -0.303884
      vertex 15.24 -16.75 0.303884
      vertex 18.25 -16.75 0.303884
    endloop
  endfacet
  facet normal 0 1 0
    outer loop
      vertex 15.24 -16.75 0.303884
      vertex 18.25 -16.75 -0.303884
      vertex 15.24 -16.75 -0.303884
    endloop
  endfacet
  facet normal 0 0.937975 0.346702
    outer loop
      vertex 18.25 -16.5389 -0.874999
      vertex 15.24 -16.75 -0.303884
      vertex 18.25 -16.75 -0.303884
    endloop
  endfacet
  facet normal 0 0.937975 0.346702
    outer loop
      vertex 15.24 -16.75 -0.303884
      vertex 18.25 -16.5389 -0.874999
      vertex 15.24 -16.5389 -0.874999
    endloop
  endfacet
  facet normal 0 -0.761167 0.648556
    outer loop
      vertex 15.24 -13.8578 -1.34058
      vertex 18.25 -13.4611 -0.875
      vertex 15.24 -13.4611 -0.875
    endloop
  endfacet
  facet normal 0 -0.761167 0.648556
    outer loop
      vertex 18.25 -13.4611 -0.875
      vertex 15.24 -13.8578 -1.34058
      vertex 18.25 -13.8578 -1.34058
    endloop
  endfacet
  facet normal 0 -0.494309 0.869286
    outer loop
      vertex 15.24 -13.8578 -1.34058
      vertex 18.25 -14.3922 -1.64446
      vertex 18.25 -13.8578 -1.34058
    endloop
  endfacet
  facet normal 0 -0.494309 0.869286
    outer loop
      vertex 18.25 -14.3922 -1.64446
      vertex 15.24 -13.8578 -1.34058
      vertex 15.24 -14.3922 -1.64446
    endloop
  endfacet
  facet normal 0 -0.937976 0.346701
    outer loop
      vertex 15.24 -13.4611 -0.875
      vertex 18.25 -13.25 -0.303884
      vertex 15.24 -13.25 -0.303884
    endloop
  endfacet
  facet normal 0 -0.937976 0.346701
    outer loop
      vertex 18.25 -13.25 -0.303884
      vertex 15.24 -13.4611 -0.875
      vertex 18.25 -13.4611 -0.875
    endloop
  endfacet
  facet normal 0 -0.761167 -0.648555
    outer loop
      vertex 15.24 -13.4611 0.874999
      vertex 18.25 -13.8578 1.34058
      vertex 15.24 -13.8578 1.34058
    endloop
  endfacet
  facet normal 0 -0.761167 -0.648555
    outer loop
      vertex 18.25 -13.8578 1.34058
      vertex 15.24 -13.4611 0.874999
      vertex 18.25 -13.4611 0.874999
    endloop
  endfacet
  facet normal 0 -0.494328 -0.869276
    outer loop
      vertex 15.24 -14.3922 1.64446
      vertex 18.25 -14.1905 1.52976
      vertex 18.25 -14.3922 1.64446
    endloop
  endfacet
  facet normal -1.66665e-06 -0.494309 -0.869286
    outer loop
      vertex 15.24 -13.8578 1.34058
      vertex 18.25 -14.1905 1.52976
      vertex 15.24 -14.3922 1.64446
    endloop
  endfacet
  facet normal 0 -0.494298 -0.869293
    outer loop
      vertex 18.25 -14.1905 1.52976
      vertex 15.24 -13.8578 1.34058
      vertex 18.25 -13.8578 1.34058
    endloop
  endfacet
  facet normal 0 -0.937975 -0.346702
    outer loop
      vertex 15.24 -13.25 0.303884
      vertex 18.25 -13.4611 0.874999
      vertex 15.24 -13.4611 0.874999
    endloop
  endfacet
  facet normal 0 -0.937975 -0.346702
    outer loop
      vertex 18.25 -13.4611 0.874999
      vertex 15.24 -13.25 0.303884
      vertex 18.25 -13.25 0.303884
    endloop
  endfacet
  facet normal -0 0.171083 0.985257
    outer loop
      vertex 15.24 -15 -1.75
      vertex 18.25 -15.6078 -1.64446
      vertex 18.25 -15 -1.75
    endloop
  endfacet
  facet normal 0 0.171083 0.985257
    outer loop
      vertex 18.25 -15.6078 -1.64446
      vertex 15.24 -15 -1.75
      vertex 15.24 -15.6078 -1.64446
    endloop
  endfacet
  facet normal 0 0.761167 0.648555
    outer loop
      vertex 18.25 -16.1422 -1.34058
      vertex 15.24 -16.5389 -0.874999
      vertex 18.25 -16.5389 -0.874999
    endloop
  endfacet
  facet normal 0 0.761167 0.648555
    outer loop
      vertex 15.24 -16.5389 -0.874999
      vertex 18.25 -16.1422 -1.34058
      vertex 15.24 -16.1422 -1.34058
    endloop
  endfacet
  facet normal -0 0.494309 0.869286
    outer loop
      vertex 15.24 -15.6078 -1.64446
      vertex 18.25 -16.1422 -1.34058
      vertex 18.25 -15.6078 -1.64446
    endloop
  endfacet
  facet normal 0 0.494309 0.869286
    outer loop
      vertex 18.25 -16.1422 -1.34058
      vertex 15.24 -15.6078 -1.64446
      vertex 15.24 -16.1422 -1.34058
    endloop
  endfacet
  facet normal 0 0.761039 -0.648706
    outer loop
      vertex 18.25 -16.292 1.16484
      vertex 15.24 -16.1422 1.34058
      vertex 18.25 -16.1422 1.34058
    endloop
  endfacet
  facet normal 0 0.761244 -0.648465
    outer loop
      vertex 15.24 -16.5389 0.875
      vertex 18.25 -16.292 1.16484
      vertex 18.25 -16.5389 0.875
    endloop
  endfacet
  facet normal 1.51137e-05 0.761167 -0.648556
    outer loop
      vertex 18.25 -16.292 1.16484
      vertex 15.24 -16.5389 0.875
      vertex 15.24 -16.1422 1.34058
    endloop
  endfacet
  facet normal 0 0.494309 -0.869286
    outer loop
      vertex 15.24 -16.1422 1.34058
      vertex 18.25 -15.6078 1.64446
      vertex 18.25 -16.1422 1.34058
    endloop
  endfacet
  facet normal 0 0.494309 -0.869286
    outer loop
      vertex 18.25 -15.6078 1.64446
      vertex 15.24 -16.1422 1.34058
      vertex 15.24 -15.6078 1.64446
    endloop
  endfacet
  facet normal 0 0.171083 -0.985257
    outer loop
      vertex 15.24 -15.6078 1.64446
      vertex 18.25 -15 1.75
      vertex 18.25 -15.6078 1.64446
    endloop
  endfacet
  facet normal 0 0.171083 -0.985257
    outer loop
      vertex 18.25 -15 1.75
      vertex 15.24 -15.6078 1.64446
      vertex 15.24 -15 1.75
    endloop
  endfacet
  facet normal 0 0.937976 -0.346701
    outer loop
      vertex 18.25 -16.75 0.303884
      vertex 15.24 -16.5389 0.875
      vertex 18.25 -16.5389 0.875
    endloop
  endfacet
  facet normal 0 0.937976 -0.346701
    outer loop
      vertex 15.24 -16.5389 0.875
      vertex 18.25 -16.75 0.303884
      vertex 15.24 -16.75 0.303884
    endloop
  endfacet
  facet normal -0.555691 0.142241 0.81913
    outer loop
      vertex 15.24 -15 -1.75
      vertex 13.25 -15 -3.1
      vertex 13.25 -16.0766 -2.91305
    endloop
  endfacet
  facet normal -0.556965 -0.410497 0.721998
    outer loop
      vertex 13.25 -13.9234 -2.91305
      vertex 15.24 -14.3922 -1.64446
      vertex 13.25 -12.9766 -2.37474
    endloop
  endfacet
  facet normal -0.556965 0.410497 0.721998
    outer loop
      vertex 15.24 -15.6078 -1.64446
      vertex 13.25 -16.0766 -2.91305
      vertex 13.25 -17.0234 -2.37474
    endloop
  endfacet
  facet normal -0.55569 -0.142236 -0.819132
    outer loop
      vertex 13.25 -13.9234 2.91305
      vertex 15.24 -14.3922 1.64446
      vertex 15.24 -15 1.75
    endloop
  endfacet
  facet normal -0.558958 -0.631156 0.53778
    outer loop
      vertex 15.24 -13.8578 -1.34058
      vertex 15.24 -13.4611 -0.875
      vertex 13.25 -12.9766 -2.37474
    endloop
  endfacet
  facet normal -0.560712 0.776654 0.287073
    outer loop
      vertex 15.24 -16.75 -0.303884
      vertex 15.24 -16.5389 -0.874999
      vertex 13.25 -17.7261 -1.55
    endloop
  endfacet
  facet normal -0.556981 0.410536 0.721964
    outer loop
      vertex 15.24 -16.1422 -1.34058
      vertex 15.24 -15.6078 -1.64446
      vertex 13.25 -17.0234 -2.37474
    endloop
  endfacet
  facet normal -0.558954 -0.631168 0.537771
    outer loop
      vertex 13.25 -12.9766 -2.37474
      vertex 15.24 -13.4611 -0.875
      vertex 13.25 -12.2739 -1.55
    endloop
  endfacet
  facet normal -0.556981 -0.410536 0.721964
    outer loop
      vertex 15.24 -14.3922 -1.64446
      vertex 15.24 -13.8578 -1.34058
      vertex 13.25 -12.9766 -2.37474
    endloop
  endfacet
  facet normal -0.556965 0.410497 -0.721998
    outer loop
      vertex 13.25 -16.0766 2.91305
      vertex 15.24 -15.6078 1.64446
      vertex 13.25 -17.0234 2.37474
    endloop
  endfacet
  facet normal -0.558954 0.631168 -0.537771
    outer loop
      vertex 13.25 -17.0234 2.37474
      vertex 15.24 -16.5389 0.875
      vertex 13.25 -17.7261 1.55
    endloop
  endfacet
  facet normal -0.560702 0.776672 0.287042
    outer loop
      vertex 15.24 -16.75 -0.303884
      vertex 13.25 -17.7261 -1.55
      vertex 13.25 -18.1 -0.538309
    endloop
  endfacet
  facet normal -0.556981 -0.410536 -0.721964
    outer loop
      vertex 13.25 -12.9766 2.37474
      vertex 15.24 -13.8578 1.34058
      vertex 15.24 -14.3922 1.64446
    endloop
  endfacet
  facet normal -0.556965 -0.410497 -0.721998
    outer loop
      vertex 13.25 -12.9766 2.37474
      vertex 15.24 -14.3922 1.64446
      vertex 13.25 -13.9234 2.91305
    endloop
  endfacet
  facet normal -0.558957 0.631166 0.53777
    outer loop
      vertex 15.24 -16.1422 -1.34058
      vertex 13.25 -17.0234 -2.37474
      vertex 13.25 -17.7261 -1.55
    endloop
  endfacet
  facet normal -0.558953 0.63116 0.537782
    outer loop
      vertex 15.24 -16.5389 -0.874999
      vertex 15.24 -16.1422 -1.34058
      vertex 13.25 -17.7261 -1.55
    endloop
  endfacet
  facet normal -0.555691 -0.142241 0.81913
    outer loop
      vertex 13.25 -15 -3.1
      vertex 15.24 -15 -1.75
      vertex 13.25 -13.9234 -2.91305
    endloop
  endfacet
  facet normal -0.55569 -0.142236 0.819132
    outer loop
      vertex 15.24 -15 -1.75
      vertex 15.24 -14.3922 -1.64446
      vertex 13.25 -13.9234 -2.91305
    endloop
  endfacet
  facet normal -0.55569 0.142236 -0.819132
    outer loop
      vertex 13.25 -16.0766 2.91305
      vertex 15.24 -15 1.75
      vertex 15.24 -15.6078 1.64446
    endloop
  endfacet
  facet normal -0.560702 -0.776672 -0.287042
    outer loop
      vertex 13.25 -11.9 0.538309
      vertex 15.24 -13.25 0.303884
      vertex 13.25 -12.2739 1.55
    endloop
  endfacet
  facet normal -0.558957 -0.631166 -0.53777
    outer loop
      vertex 13.25 -12.2739 1.55
      vertex 15.24 -13.8578 1.34058
      vertex 13.25 -12.9766 2.37474
    endloop
  endfacet
  facet normal -0.560712 -0.776654 0.287072
    outer loop
      vertex 15.24 -13.4611 -0.875
      vertex 15.24 -13.25 -0.303884
      vertex 13.25 -12.2739 -1.55
    endloop
  endfacet
  facet normal -0.55569 0.142236 0.819132
    outer loop
      vertex 15.24 -15.6078 -1.64446
      vertex 15.24 -15 -1.75
      vertex 13.25 -16.0766 -2.91305
    endloop
  endfacet
  facet normal -0.558958 0.631156 -0.53778
    outer loop
      vertex 13.25 -17.0234 2.37474
      vertex 15.24 -16.1422 1.34058
      vertex 15.24 -16.5389 0.875
    endloop
  endfacet
  facet normal -0.560712 0.776654 -0.287072
    outer loop
      vertex 13.25 -17.7261 1.55
      vertex 15.24 -16.5389 0.875
      vertex 15.24 -16.75 0.303884
    endloop
  endfacet
  facet normal -0.5614 -0.827545 0
    outer loop
      vertex 13.25 -11.9 0
      vertex 15.24 -13.25 0.303884
      vertex 13.25 -11.9 0.538309
    endloop
  endfacet
  facet normal -0.5614 -0.827545 0
    outer loop
      vertex 13.25 -11.9 0
      vertex 15.24 -13.25 -0.303884
      vertex 15.24 -13.25 0.303884
    endloop
  endfacet
  facet normal -0.5614 -0.827545 0
    outer loop
      vertex 15.24 -13.25 -0.303884
      vertex 13.25 -11.9 0
      vertex 13.25 -11.9 -0.538309
    endloop
  endfacet
  facet normal -0.560702 -0.776672 0.287042
    outer loop
      vertex 13.25 -12.2739 -1.55
      vertex 15.24 -13.25 -0.303884
      vertex 13.25 -11.9 -0.538309
    endloop
  endfacet
  facet normal -0.555691 -0.142241 -0.81913
    outer loop
      vertex 13.25 -13.9234 2.91305
      vertex 15.24 -15 1.75
      vertex 13.25 -15 3.1
    endloop
  endfacet
  facet normal -0.558953 -0.63116 -0.537782
    outer loop
      vertex 13.25 -12.2739 1.55
      vertex 15.24 -13.4611 0.874999
      vertex 15.24 -13.8578 1.34058
    endloop
  endfacet
  facet normal -0.560712 -0.776654 -0.287073
    outer loop
      vertex 13.25 -12.2739 1.55
      vertex 15.24 -13.25 0.303884
      vertex 15.24 -13.4611 0.874999
    endloop
  endfacet
  facet normal -0.556981 0.410536 -0.721964
    outer loop
      vertex 13.25 -17.0234 2.37474
      vertex 15.24 -15.6078 1.64446
      vertex 15.24 -16.1422 1.34058
    endloop
  endfacet
  facet normal -0.5614 0.827545 0
    outer loop
      vertex 15.24 -16.75 0.303884
      vertex 13.25 -18.1 0
      vertex 13.25 -18.1 0.538309
    endloop
  endfacet
  facet normal -0.5614 0.827545 0
    outer loop
      vertex 15.24 -16.75 -0.303884
      vertex 13.25 -18.1 0
      vertex 15.24 -16.75 0.303884
    endloop
  endfacet
  facet normal -0.5614 0.827545 0
    outer loop
      vertex 13.25 -18.1 0
      vertex 15.24 -16.75 -0.303884
      vertex 13.25 -18.1 -0.538309
    endloop
  endfacet
  facet normal -0.555691 0.142241 -0.81913
    outer loop
      vertex 13.25 -15 3.1
      vertex 15.24 -15 1.75
      vertex 13.25 -16.0766 2.91305
    endloop
  endfacet
  facet normal -0.560702 0.776672 -0.287042
    outer loop
      vertex 13.25 -17.7261 1.55
      vertex 15.24 -16.75 0.303884
      vertex 13.25 -18.1 0.538309
    endloop
  endfacet
  facet normal -1 0 0
    outer loop
      vertex -16.25 -11.5 -4
      vertex -16.25 1.5 4
      vertex -16.25 1.5 -4
    endloop
  endfacet
  facet normal -1 -0 0
    outer loop
      vertex -16.25 1.5 4
      vertex -16.25 -11.5 -4
      vertex -16.25 -11.5 4
    endloop
  endfacet
  facet normal 1 -0 0
    outer loop
      vertex -13.25 -11.5 4
      vertex -13.25 -1.5 -4
      vertex -13.25 -1.5 4
    endloop
  endfacet
  facet normal 1 0 0
    outer loop
      vertex -13.25 -1.5 -4
      vertex -13.25 -11.5 4
      vertex -13.25 -11.5 -4
    endloop
  endfacet
  facet normal 0 -1 0
    outer loop
      vertex -16.25 -11.5 -4
      vertex -13.25 -11.5 4
      vertex -16.25 -11.5 4
    endloop
  endfacet
  facet normal 0 -1 -0
    outer loop
      vertex -13.25 -11.5 4
      vertex -16.25 -11.5 -4
      vertex -13.25 -11.5 -4
    endloop
  endfacet
  facet normal 0 -1 0
    outer loop
      vertex -13.25 -1.5 -4
      vertex 13.25 -1.5 4
      vertex -13.25 -1.5 4
    endloop
  endfacet
  facet normal 0 -1 -0
    outer loop
      vertex 13.25 -1.5 4
      vertex -13.25 -1.5 -4
      vertex 13.25 -1.5 -4
    endloop
  endfacet
endsolid OpenSCAD_Model
