solid OpenSCAD_Model
  facet normal 1 -0 0
    outer loop
      vertex 172 -7.2 0
      vertex 172 7.2 -30
      vertex 172 7.2 0
    endloop
  endfacet
  facet normal 1 0 0
    outer loop
      vertex 172 7.2 -30
      vertex 172 -7.2 0
      vertex 172 -7.2 -30
    endloop
  endfacet
  facet normal 0 0 -1
    outer loop
      vertex 162 -7.2 -30
      vertex 172 7.2 -30
      vertex 172 -7.2 -30
    endloop
  endfacet
  facet normal -0 0 -1
    outer loop
      vertex 172 7.2 -30
      vertex 162 -7.2 -30
      vertex 162 7.2 -30
    endloop
  endfacet
  facet normal 0 1 0
    outer loop
      vertex 172 7.2 0
      vertex 154.5 7.2 -5
      vertex 0 7.2 0
    endloop
  endfacet
  facet normal 0 1 0
    outer loop
      vertex 162 7.2 -30
      vertex 172 7.2 0
      vertex 172 7.2 -30
    endloop
  endfacet
  facet normal 0 1 0
    outer loop
      vertex 172 7.2 0
      vertex 162 7.2 -30
      vertex 154.5 7.2 -5
    endloop
  endfacet
  facet normal 0 1 -0
    outer loop
      vertex 17.5 7.2 -5
      vertex 0 7.2 0
      vertex 154.5 7.2 -5
    endloop
  endfacet
  facet normal 0 1 -0
    outer loop
      vertex 10 7.2 -30
      vertex 0 7.2 0
      vertex 17.5 7.2 -5
    endloop
  endfacet
  facet normal 0 1 0
    outer loop
      vertex 0 7.2 0
      vertex 10 7.2 -30
      vertex 0 7.2 -30
    endloop
  endfacet
  facet normal -0.957826 0 -0.287348
    outer loop
      vertex 162 -7.2 -30
      vertex 154.5 7.2 -5
      vertex 162 7.2 -30
    endloop
  endfacet
  facet normal -0.957826 -0 -0.287348
    outer loop
      vertex 154.5 7.2 -5
      vertex 162 -7.2 -30
      vertex 154.5 -7.2 -5
    endloop
  endfacet
  facet normal 0 -1 0
    outer loop
      vertex 0 -7.2 0
      vertex 17.5 -7.2 -5
      vertex 172 -7.2 0
    endloop
  endfacet
  facet normal 0 -1 0
    outer loop
      vertex 10 -7.2 -30
      vertex 0 -7.2 0
      vertex 0 -7.2 -30
    endloop
  endfacet
  facet normal 0 -1 0
    outer loop
      vertex 0 -7.2 0
      vertex 10 -7.2 -30
      vertex 17.5 -7.2 -5
    endloop
  endfacet
  facet normal 0 -1 0
    outer loop
      vertex 154.5 -7.2 -5
      vertex 172 -7.2 0
      vertex 17.5 -7.2 -5
    endloop
  endfacet
  facet normal 0 -1 0
    outer loop
      vertex 162 -7.2 -30
      vertex 172 -7.2 0
      vertex 154.5 -7.2 -5
    endloop
  endfacet
  facet normal 0 -1 -0
    outer loop
      vertex 172 -7.2 0
      vertex 162 -7.2 -30
      vertex 172 -7.2 -30
    endloop
  endfacet
  facet normal -0 0 1
    outer loop
      vertex 0 7.2 0
      vertex 172 -7.2 0
      vertex 172 7.2 0
    endloop
  endfacet
  facet normal 0 0 1
    outer loop
      vertex 172 -7.2 0
      vertex 0 7.2 0
      vertex 0 -7.2 0
    endloop
  endfacet
  facet normal -1 0 0
    outer loop
      vertex 0 -7.2 -30
      vertex 0 7.2 0
      vertex 0 7.2 -30
    endloop
  endfacet
  facet normal -1 -0 0
    outer loop
      vertex 0 7.2 0
      vertex 0 -7.2 -30
      vertex 0 -7.2 0
    endloop
  endfacet
  facet normal 0 0 -1
    outer loop
      vertex 0 -7.2 -30
      vertex 10 7.2 -30
      vertex 10 -7.2 -30
    endloop
  endfacet
  facet normal -0 0 -1
    outer loop
      vertex 10 7.2 -30
      vertex 0 -7.2 -30
      vertex 0 7.2 -30
    endloop
  endfacet
  facet normal 0.957826 0 -0.287348
    outer loop
      vertex 17.5 -7.2 -5
      vertex 10 7.2 -30
      vertex 17.5 7.2 -5
    endloop
  endfacet
  facet normal 0.957826 0 -0.287348
    outer loop
      vertex 10 7.2 -30
      vertex 17.5 -7.2 -5
      vertex 10 -7.2 -30
    endloop
  endfacet
  facet normal 0 0 -1
    outer loop
      vertex 17.5 -7.2 -5
      vertex 154.5 7.2 -5
      vertex 154.5 -7.2 -5
    endloop
  endfacet
  facet normal -0 0 -1
    outer loop
      vertex 154.5 7.2 -5
      vertex 17.5 -7.2 -5
      vertex 17.5 7.2 -5
    endloop
  endfacet
endsolid OpenSCAD_Model
