solid OpenSCAD_Model
  facet normal 1 -0 0
    outer loop
      vertex 4.7 -25 5
      vertex 4.7 0 0
      vertex 4.7 0 5
    endloop
  endfacet
  facet normal 1 0 0
    outer loop
      vertex 4.7 0 0
      vertex 4.7 -25 5
      vertex 4.7 -25 0
    endloop
  endfacet
  facet normal 0 0 1
    outer loop
      vertex 3.2 -25 5
      vertex 4.7 -25 5
      vertex 4.7 0 5
    endloop
  endfacet
  facet normal 0 0 1
    outer loop
      vertex 4.7 -25 5
      vertex 3.2 -25 5
      vertex 4.68361 -25.1559 5
    endloop
  endfacet
  facet normal 0 0 1
    outer loop
      vertex 3.2 0 5
      vertex 4.7 0 5
      vertex 4.58859 1.01727 5
    endloop
  endfacet
  facet normal 0 0 1
    outer loop
      vertex 3.2 -25 5
      vertex 4.7 0 5
      vertex 3.2 0 5
    endloop
  endfacet
  facet normal 0 0 1
    outer loop
      vertex 4.68361 -25.1559 5
      vertex 3.2 -25 5
      vertex 4.63516 -25.3051 5
    endloop
  endfacet
  facet normal 0 0 1
    outer loop
      vertex 4.63516 -25.3051 5
      vertex 3.2 -25 5
      vertex 4.55676 -25.4408 5
    endloop
  endfacet
  facet normal 0 0 1
    outer loop
      vertex 3.12415 0.692606 5
      vertex 4.58859 1.01727 5
      vertex 4.25965 1.98631 5
    endloop
  endfacet
  facet normal 0 0 1
    outer loop
      vertex 4.55676 -25.4408 5
      vertex 3.2 -25 5
      vertex 4.45185 -25.5574 5
    endloop
  endfacet
  facet normal 0 0 1
    outer loop
      vertex 4.45185 -25.5574 5
      vertex 3.2 -25 5
      vertex 4.325 -25.6495 5
    endloop
  endfacet
  facet normal 0 0 1
    outer loop
      vertex 4.325 -25.6495 5
      vertex 3.2 -25 5
      vertex 4.18176 -25.7133 5
    endloop
  endfacet
  facet normal 0 0 1
    outer loop
      vertex 2.90018 1.35238 5
      vertex 4.25965 1.98631 5
      vertex 3.72876 2.86118 5
    endloop
  endfacet
  facet normal 0 0 1
    outer loop
      vertex 4.18176 -25.7133 5
      vertex 3.2 -25 5
      vertex 4.0284 -25.7459 5
    endloop
  endfacet
  facet normal 0 0 1
    outer loop
      vertex 4.0284 -25.7459 5
      vertex 3.2 -25 5
      vertex 3.8716 -25.7459 5
    endloop
  endfacet
  facet normal 0 0 1
    outer loop
      vertex 3.8716 -25.7459 5
      vertex 3.2 -25 5
      vertex 3.71824 -25.7133 5
    endloop
  endfacet
  facet normal 0 0 1
    outer loop
      vertex 3.71824 -25.7133 5
      vertex 3.2 -25 5
      vertex 3.575 -25.6495 5
    endloop
  endfacet
  facet normal 0 0 1
    outer loop
      vertex 3.575 -25.6495 5
      vertex 3.2 -25 5
      vertex 3.44815 -25.5574 5
    endloop
  endfacet
  facet normal 0 0 1
    outer loop
      vertex 3.44815 -25.5574 5
      vertex 3.2 -25 5
      vertex 3.34324 -25.4408 5
    endloop
  endfacet
  facet normal 0 0 1
    outer loop
      vertex 3.34324 -25.4408 5
      vertex 3.2 -25 5
      vertex 3.26484 -25.3051 5
    endloop
  endfacet
  facet normal 0 0 1
    outer loop
      vertex 4.58859 1.01727 5
      vertex 3.12415 0.692606 5
      vertex 3.2 0 5
    endloop
  endfacet
  facet normal 0 0 1
    outer loop
      vertex 2.53873 1.94804 5
      vertex 3.72876 2.86118 5
      vertex 3.0211 3.60041 5
    endloop
  endfacet
  facet normal 0 0 1
    outer loop
      vertex 4.25965 1.98631 5
      vertex 2.90018 1.35238 5
      vertex 3.12415 0.692606 5
    endloop
  endfacet
  facet normal 0 0 1
    outer loop
      vertex 3.72876 2.86118 5
      vertex 2.53873 1.94804 5
      vertex 2.90018 1.35238 5
    endloop
  endfacet
  facet normal 0 0 1
    outer loop
      vertex 2.05692 2.45134 5
      vertex 3.0211 3.60041 5
      vertex 2.17022 4.16895 5
    endloop
  endfacet
  facet normal 0 0 1
    outer loop
      vertex 3.0211 3.60041 5
      vertex 2.05692 2.45134 5
      vertex 2.53873 1.94804 5
    endloop
  endfacet
  facet normal 0 0 1
    outer loop
      vertex 2.17022 4.16895 5
      vertex 1.4776 2.83843 5
      vertex 2.05692 2.45134 5
    endloop
  endfacet
  facet normal 0 0 1
    outer loop
      vertex 1.21645 4.53985 5
      vertex 1.4776 2.83843 5
      vertex 2.17022 4.16895 5
    endloop
  endfacet
  facet normal 0 0 1
    outer loop
      vertex 1.21645 4.53985 5
      vertex 0.82822 3.09096 5
      vertex 1.4776 2.83843 5
    endloop
  endfacet
  facet normal 0 0 1
    outer loop
      vertex 0.20501 4.69553 5
      vertex 0.82822 3.09096 5
      vertex 1.21645 4.53985 5
    endloop
  endfacet
  facet normal 0 0 1
    outer loop
      vertex 0.20501 4.69553 5
      vertex 0.139582 3.19695 5
      vertex 0.82822 3.09096 5
    endloop
  endfacet
  facet normal 0 0 1
    outer loop
      vertex 0.20501 4.69553 5
      vertex -0.555674 3.15138 5
      vertex 0.139582 3.19695 5
    endloop
  endfacet
  facet normal -0 0 1
    outer loop
      vertex -0.816146 4.6286 5
      vertex -0.555674 3.15138 5
      vertex 0.20501 4.69553 5
    endloop
  endfacet
  facet normal 0 0 1
    outer loop
      vertex -0.816146 4.6286 5
      vertex -1.22459 2.95641 5
      vertex -0.555674 3.15138 5
    endloop
  endfacet
  facet normal -0 0 1
    outer loop
      vertex -1.79861 4.34223 5
      vertex -1.22459 2.95641 5
      vertex -0.816146 4.6286 5
    endloop
  endfacet
  facet normal 0 0 1
    outer loop
      vertex -1.79861 4.34223 5
      vertex -1.83544 2.62129 5
      vertex -1.22459 2.95641 5
    endloop
  endfacet
  facet normal -0 0 1
    outer loop
      vertex -2.69581 3.85001 5
      vertex -1.83544 2.62129 5
      vertex -1.79861 4.34223 5
    endloop
  endfacet
  facet normal 0 0 1
    outer loop
      vertex -1.83544 2.62129 5
      vertex -2.69581 3.85001 5
      vertex -2.35929 2.16189 5
    endloop
  endfacet
  facet normal -0 0 1
    outer loop
      vertex -3.4652 3.17527 5
      vertex -2.35929 2.16189 5
      vertex -2.69581 3.85001 5
    endloop
  endfacet
  facet normal 0 0 1
    outer loop
      vertex -2.35929 2.16189 5
      vertex -3.4652 3.17527 5
      vertex -2.77128 1.6 5
    endloop
  endfacet
  facet normal -0 0 1
    outer loop
      vertex -4.07032 2.35 5
      vertex -2.77128 1.6 5
      vertex -3.4652 3.17527 5
    endloop
  endfacet
  facet normal 0 0 1
    outer loop
      vertex -2.77128 1.6 5
      vertex -4.07032 2.35 5
      vertex -3.05189 0.962258 5
    endloop
  endfacet
  facet normal 0 0 1
    outer loop
      vertex 3.26484 -25.3051 5
      vertex 3.2 -25 5
      vertex 3.21639 -25.1559 5
    endloop
  endfacet
  facet normal -0 0 1
    outer loop
      vertex -4.48247 1.41332 5
      vertex -3.05189 0.962258 5
      vertex -4.07032 2.35 5
    endloop
  endfacet
  facet normal 0 0 1
    outer loop
      vertex -3.05189 0.962258 5
      vertex -4.48247 1.41332 5
      vertex -3.18782 0.278898 5
    endloop
  endfacet
  facet normal -0 0 1
    outer loop
      vertex -4.68211 0.409632 5
      vertex -3.18782 0.278898 5
      vertex -4.48247 1.41332 5
    endloop
  endfacet
  facet normal 0 0 1
    outer loop
      vertex -3.18782 0.278898 5
      vertex -4.68211 0.409632 5
      vertex -3.17262 -0.417684 5
    endloop
  endfacet
  facet normal 0 -0 1
    outer loop
      vertex -4.65979 -0.613473 5
      vertex -3.17262 -0.417684 5
      vertex -4.68211 0.409632 5
    endloop
  endfacet
  facet normal 0 0 1
    outer loop
      vertex -3.00702 -1.09446 5
      vertex -4.65979 -0.613473 5
      vertex -4.41656 -1.60749 5
    endloop
  endfacet
  facet normal 0 0 1
    outer loop
      vertex -3.17262 -0.417684 5
      vertex -4.65979 -0.613473 5
      vertex -3.00702 -1.09446 5
    endloop
  endfacet
  facet normal 0 0 -1
    outer loop
      vertex -4.68211 0.409632 0
      vertex -3.18782 0.278898 0
      vertex -3.17262 -0.417684 0
    endloop
  endfacet
  facet normal 0 0 -1
    outer loop
      vertex -3.18782 0.278898 0
      vertex -4.07032 2.35 0
      vertex -3.4652 3.17527 0
    endloop
  endfacet
  facet normal 0 0 -1
    outer loop
      vertex -4.65979 -0.613473 0
      vertex -3.17262 -0.417684 0
      vertex -3.00702 -1.09446 0
    endloop
  endfacet
  facet normal 0 0 -1
    outer loop
      vertex -4.65979 -0.613473 0
      vertex -3.00702 -1.09446 0
      vertex -4.41656 -1.60749 0
    endloop
  endfacet
  facet normal 0 0 -1
    outer loop
      vertex -3.18782 0.278898 0
      vertex -4.48247 1.41332 0
      vertex -4.07032 2.35 0
    endloop
  endfacet
  facet normal -0 0 -1
    outer loop
      vertex -3.17262 -0.417684 0
      vertex -4.65979 -0.613473 0
      vertex -4.68211 0.409632 0
    endloop
  endfacet
  facet normal 0 0 -1
    outer loop
      vertex -3.18782 0.278898 0
      vertex -4.68211 0.409632 0
      vertex -4.48247 1.41332 0
    endloop
  endfacet
  facet normal 0 0 -1
    outer loop
      vertex 3.2 -25 0
      vertex 4.7 -25 0
      vertex 4.68361 -25.1559 0
    endloop
  endfacet
  facet normal 0 0 -1
    outer loop
      vertex 3.2 -25 0
      vertex 4.68361 -25.1559 0
      vertex 4.63516 -25.3051 0
    endloop
  endfacet
  facet normal 0 0 -1
    outer loop
      vertex 4.7 -25 0
      vertex 3.2 -25 0
      vertex 4.7 0 0
    endloop
  endfacet
  facet normal 0 0 -1
    outer loop
      vertex 3.2 -25 0
      vertex 4.63516 -25.3051 0
      vertex 4.55676 -25.4408 0
    endloop
  endfacet
  facet normal 0 0 -1
    outer loop
      vertex 3.2 -25 0
      vertex 4.55676 -25.4408 0
      vertex 4.45185 -25.5574 0
    endloop
  endfacet
  facet normal 0 0 -1
    outer loop
      vertex 3.2 -25 0
      vertex 4.45185 -25.5574 0
      vertex 4.325 -25.6495 0
    endloop
  endfacet
  facet normal 0 0 -1
    outer loop
      vertex 4.7 0 0
      vertex 3.2 0 0
      vertex 4.58859 1.01727 0
    endloop
  endfacet
  facet normal 0 0 -1
    outer loop
      vertex 3.2 -25 0
      vertex 4.325 -25.6495 0
      vertex 4.18176 -25.7133 0
    endloop
  endfacet
  facet normal 0 0 -1
    outer loop
      vertex 3.2 -25 0
      vertex 4.18176 -25.7133 0
      vertex 4.0284 -25.7459 0
    endloop
  endfacet
  facet normal 0 0 -1
    outer loop
      vertex 3.2 -25 0
      vertex 4.0284 -25.7459 0
      vertex 3.8716 -25.7459 0
    endloop
  endfacet
  facet normal 0 0 -1
    outer loop
      vertex 3.12415 0.692606 0
      vertex 4.58859 1.01727 0
      vertex 3.2 0 0
    endloop
  endfacet
  facet normal 0 0 -1
    outer loop
      vertex 3.2 -25 0
      vertex 3.8716 -25.7459 0
      vertex 3.71824 -25.7133 0
    endloop
  endfacet
  facet normal 0 0 -1
    outer loop
      vertex 3.2 -25 0
      vertex 3.71824 -25.7133 0
      vertex 3.575 -25.6495 0
    endloop
  endfacet
  facet normal 0 0 -1
    outer loop
      vertex 3.2 -25 0
      vertex 3.575 -25.6495 0
      vertex 3.44815 -25.5574 0
    endloop
  endfacet
  facet normal 0 0 -1
    outer loop
      vertex 3.2 -25 0
      vertex 3.44815 -25.5574 0
      vertex 3.34324 -25.4408 0
    endloop
  endfacet
  facet normal 0 0 -1
    outer loop
      vertex 3.2 -25 0
      vertex 3.34324 -25.4408 0
      vertex 3.26484 -25.3051 0
    endloop
  endfacet
  facet normal 0 0 -1
    outer loop
      vertex 3.2 -25 0
      vertex 3.26484 -25.3051 0
      vertex 3.21639 -25.1559 0
    endloop
  endfacet
  facet normal -0 0 -1
    outer loop
      vertex 4.7 0 0
      vertex 3.2 -25 0
      vertex 3.2 0 0
    endloop
  endfacet
  facet normal -0 0 -1
    outer loop
      vertex 4.58859 1.01727 0
      vertex 3.12415 0.692606 0
      vertex 4.25965 1.98631 0
    endloop
  endfacet
  facet normal 0 0 -1
    outer loop
      vertex 2.90018 1.35238 0
      vertex 4.25965 1.98631 0
      vertex 3.12415 0.692606 0
    endloop
  endfacet
  facet normal -0 0 -1
    outer loop
      vertex 4.25965 1.98631 0
      vertex 2.90018 1.35238 0
      vertex 3.72876 2.86118 0
    endloop
  endfacet
  facet normal 0 0 -1
    outer loop
      vertex 2.53873 1.94804 0
      vertex 3.72876 2.86118 0
      vertex 2.90018 1.35238 0
    endloop
  endfacet
  facet normal -0 0 -1
    outer loop
      vertex 3.72876 2.86118 0
      vertex 2.53873 1.94804 0
      vertex 3.0211 3.60041 0
    endloop
  endfacet
  facet normal 0 0 -1
    outer loop
      vertex 2.05692 2.45134 0
      vertex 3.0211 3.60041 0
      vertex 2.53873 1.94804 0
    endloop
  endfacet
  facet normal -0 0 -1
    outer loop
      vertex 3.0211 3.60041 0
      vertex 2.05692 2.45134 0
      vertex 2.17022 4.16895 0
    endloop
  endfacet
  facet normal 0 0 -1
    outer loop
      vertex 1.4776 2.83843 0
      vertex 2.17022 4.16895 0
      vertex 2.05692 2.45134 0
    endloop
  endfacet
  facet normal 0 0 -1
    outer loop
      vertex 1.4776 2.83843 0
      vertex 1.21645 4.53985 0
      vertex 2.17022 4.16895 0
    endloop
  endfacet
  facet normal 0 0 -1
    outer loop
      vertex 0.82822 3.09096 0
      vertex 1.21645 4.53985 0
      vertex 1.4776 2.83843 0
    endloop
  endfacet
  facet normal 0 0 -1
    outer loop
      vertex 0.82822 3.09096 0
      vertex 0.20501 4.69553 0
      vertex 1.21645 4.53985 0
    endloop
  endfacet
  facet normal 0 0 -1
    outer loop
      vertex 0.139582 3.19695 0
      vertex 0.20501 4.69553 0
      vertex 0.82822 3.09096 0
    endloop
  endfacet
  facet normal 0 0 -1
    outer loop
      vertex -0.555674 3.15138 0
      vertex 0.20501 4.69553 0
      vertex 0.139582 3.19695 0
    endloop
  endfacet
  facet normal 0 0 -1
    outer loop
      vertex -0.555674 3.15138 0
      vertex -0.816146 4.6286 0
      vertex 0.20501 4.69553 0
    endloop
  endfacet
  facet normal 0 0 -1
    outer loop
      vertex -1.22459 2.95641 0
      vertex -0.816146 4.6286 0
      vertex -0.555674 3.15138 0
    endloop
  endfacet
  facet normal 0 0 -1
    outer loop
      vertex -1.22459 2.95641 0
      vertex -1.79861 4.34223 0
      vertex -0.816146 4.6286 0
    endloop
  endfacet
  facet normal 0 0 -1
    outer loop
      vertex -1.83544 2.62129 0
      vertex -1.79861 4.34223 0
      vertex -1.22459 2.95641 0
    endloop
  endfacet
  facet normal 0 0 -1
    outer loop
      vertex -2.69581 3.85001 0
      vertex -1.83544 2.62129 0
      vertex -2.35929 2.16189 0
    endloop
  endfacet
  facet normal 0 0 -1
    outer loop
      vertex -1.83544 2.62129 0
      vertex -2.69581 3.85001 0
      vertex -1.79861 4.34223 0
    endloop
  endfacet
  facet normal 0 0 -1
    outer loop
      vertex -3.4652 3.17527 0
      vertex -2.35929 2.16189 0
      vertex -2.77128 1.6 0
    endloop
  endfacet
  facet normal 0 0 -1
    outer loop
      vertex -3.4652 3.17527 0
      vertex -2.77128 1.6 0
      vertex -3.05189 0.962258 0
    endloop
  endfacet
  facet normal 0 0 -1
    outer loop
      vertex -3.4652 3.17527 0
      vertex -3.05189 0.962258 0
      vertex -3.18782 0.278898 0
    endloop
  endfacet
  facet normal 0 0 -1
    outer loop
      vertex -2.35929 2.16189 0
      vertex -3.4652 3.17527 0
      vertex -2.69581 3.85001 0
    endloop
  endfacet
  facet normal -1 0 0
    outer loop
      vertex 3.2 -25 0
      vertex 3.2 0 5
      vertex 3.2 0 0
    endloop
  endfacet
  facet normal -1 -0 0
    outer loop
      vertex 3.2 0 5
      vertex 3.2 -25 0
      vertex 3.2 -25 5
    endloop
  endfacet
  facet normal 0.406872 -0.913485 0
    outer loop
      vertex 4.18176 -25.7133 0
      vertex 4.325 -25.6495 5
      vertex 4.18176 -25.7133 5
    endloop
  endfacet
  facet normal 0.406872 -0.913485 0
    outer loop
      vertex 4.325 -25.6495 5
      vertex 4.18176 -25.7133 0
      vertex 4.325 -25.6495 0
    endloop
  endfacet
  facet normal 0.994519 -0.104555 0
    outer loop
      vertex 4.68361 -25.1559 5
      vertex 4.7 -25 0
      vertex 4.7 -25 5
    endloop
  endfacet
  facet normal 0.994519 -0.104555 0
    outer loop
      vertex 4.7 -25 0
      vertex 4.68361 -25.1559 5
      vertex 4.68361 -25.1559 0
    endloop
  endfacet
  facet normal 0 -1 0
    outer loop
      vertex 3.8716 -25.7459 0
      vertex 4.0284 -25.7459 5
      vertex 3.8716 -25.7459 5
    endloop
  endfacet
  facet normal 0 -1 -0
    outer loop
      vertex 4.0284 -25.7459 5
      vertex 3.8716 -25.7459 0
      vertex 4.0284 -25.7459 0
    endloop
  endfacet
  facet normal -0.406872 -0.913485 0
    outer loop
      vertex 3.575 -25.6495 0
      vertex 3.71824 -25.7133 5
      vertex 3.575 -25.6495 5
    endloop
  endfacet
  facet normal -0.406872 -0.913485 -0
    outer loop
      vertex 3.71824 -25.7133 5
      vertex 3.575 -25.6495 0
      vertex 3.71824 -25.7133 0
    endloop
  endfacet
  facet normal 0.743389 -0.668859 0
    outer loop
      vertex 4.45185 -25.5574 5
      vertex 4.55676 -25.4408 0
      vertex 4.55676 -25.4408 5
    endloop
  endfacet
  facet normal 0.743389 -0.668859 0
    outer loop
      vertex 4.55676 -25.4408 0
      vertex 4.45185 -25.5574 5
      vertex 4.45185 -25.5574 0
    endloop
  endfacet
  facet normal 0.951109 -0.308855 0
    outer loop
      vertex 4.63516 -25.3051 5
      vertex 4.68361 -25.1559 0
      vertex 4.68361 -25.1559 5
    endloop
  endfacet
  facet normal 0.951109 -0.308855 0
    outer loop
      vertex 4.68361 -25.1559 0
      vertex 4.63516 -25.3051 5
      vertex 4.63516 -25.3051 0
    endloop
  endfacet
  facet normal 0.207926 -0.978145 0
    outer loop
      vertex 4.0284 -25.7459 0
      vertex 4.18176 -25.7133 5
      vertex 4.0284 -25.7459 5
    endloop
  endfacet
  facet normal 0.207926 -0.978145 0
    outer loop
      vertex 4.18176 -25.7133 5
      vertex 4.0284 -25.7459 0
      vertex 4.18176 -25.7133 0
    endloop
  endfacet
  facet normal -0.994519 -0.104555 0
    outer loop
      vertex 3.21639 -25.1559 0
      vertex 3.2 -25 5
      vertex 3.2 -25 0
    endloop
  endfacet
  facet normal -0.994519 -0.104555 0
    outer loop
      vertex 3.2 -25 5
      vertex 3.21639 -25.1559 0
      vertex 3.21639 -25.1559 5
    endloop
  endfacet
  facet normal -0.951109 -0.308855 0
    outer loop
      vertex 3.26484 -25.3051 0
      vertex 3.21639 -25.1559 5
      vertex 3.21639 -25.1559 0
    endloop
  endfacet
  facet normal -0.951109 -0.308855 0
    outer loop
      vertex 3.21639 -25.1559 5
      vertex 3.26484 -25.3051 0
      vertex 3.26484 -25.3051 5
    endloop
  endfacet
  facet normal 0.865877 -0.500256 0
    outer loop
      vertex 4.55676 -25.4408 5
      vertex 4.63516 -25.3051 0
      vertex 4.63516 -25.3051 5
    endloop
  endfacet
  facet normal 0.865877 -0.500256 0
    outer loop
      vertex 4.63516 -25.3051 0
      vertex 4.55676 -25.4408 5
      vertex 4.55676 -25.4408 0
    endloop
  endfacet
  facet normal 0.587527 -0.809205 0
    outer loop
      vertex 4.325 -25.6495 0
      vertex 4.45185 -25.5574 5
      vertex 4.325 -25.6495 5
    endloop
  endfacet
  facet normal 0.587527 -0.809205 0
    outer loop
      vertex 4.45185 -25.5574 5
      vertex 4.325 -25.6495 0
      vertex 4.45185 -25.5574 0
    endloop
  endfacet
  facet normal -0.207926 -0.978145 0
    outer loop
      vertex 3.71824 -25.7133 0
      vertex 3.8716 -25.7459 5
      vertex 3.71824 -25.7133 5
    endloop
  endfacet
  facet normal -0.207926 -0.978145 -0
    outer loop
      vertex 3.8716 -25.7459 5
      vertex 3.71824 -25.7133 0
      vertex 3.8716 -25.7459 0
    endloop
  endfacet
  facet normal -0.743389 -0.668859 0
    outer loop
      vertex 3.44815 -25.5574 0
      vertex 3.34324 -25.4408 5
      vertex 3.34324 -25.4408 0
    endloop
  endfacet
  facet normal -0.743389 -0.668859 0
    outer loop
      vertex 3.34324 -25.4408 5
      vertex 3.44815 -25.5574 0
      vertex 3.44815 -25.5574 5
    endloop
  endfacet
  facet normal -0.587527 -0.809205 0
    outer loop
      vertex 3.44815 -25.5574 0
      vertex 3.575 -25.6495 5
      vertex 3.44815 -25.5574 5
    endloop
  endfacet
  facet normal -0.587527 -0.809205 -0
    outer loop
      vertex 3.575 -25.6495 5
      vertex 3.44815 -25.5574 0
      vertex 3.575 -25.6495 0
    endloop
  endfacet
  facet normal -0.865877 -0.500256 0
    outer loop
      vertex 3.34324 -25.4408 0
      vertex 3.26484 -25.3051 5
      vertex 3.26484 -25.3051 0
    endloop
  endfacet
  facet normal -0.865877 -0.500256 0
    outer loop
      vertex 3.26484 -25.3051 5
      vertex 3.34324 -25.4408 0
      vertex 3.34324 -25.4408 5
    endloop
  endfacet
  facet normal 0.34202 -0.939693 0
    outer loop
      vertex -4.41656 -1.60749 0
      vertex -3.00702 -1.09446 5
      vertex -4.41656 -1.60749 5
    endloop
  endfacet
  facet normal 0.34202 -0.939693 0
    outer loop
      vertex -3.00702 -1.09446 5
      vertex -4.41656 -1.60749 0
      vertex -3.00702 -1.09446 0
    endloop
  endfacet
  facet normal 0.994056 0.108868 0
    outer loop
      vertex 4.7 0 5
      vertex 4.58859 1.01727 0
      vertex 4.58859 1.01727 5
    endloop
  endfacet
  facet normal 0.994056 0.108868 0
    outer loop
      vertex 4.58859 1.01727 0
      vertex 4.7 0 5
      vertex 4.7 0 0
    endloop
  endfacet
  facet normal -0.994057 -0.108863 0
    outer loop
      vertex 3.2 0 0
      vertex 3.12415 0.692606 5
      vertex 3.12415 0.692606 0
    endloop
  endfacet
  facet normal -0.994057 -0.108863 0
    outer loop
      vertex 3.12415 0.692606 5
      vertex 3.2 0 0
      vertex 3.2 0 5
    endloop
  endfacet
  facet normal 0.946932 0.321435 0
    outer loop
      vertex 4.58859 1.01727 5
      vertex 4.25965 1.98631 0
      vertex 4.25965 1.98631 5
    endloop
  endfacet
  facet normal 0.946932 0.321435 0
    outer loop
      vertex 4.25965 1.98631 0
      vertex 4.58859 1.01727 5
      vertex 4.58859 1.01727 0
    endloop
  endfacet
  facet normal -0.946927 -0.321448 0
    outer loop
      vertex 3.12415 0.692606 0
      vertex 2.90018 1.35238 5
      vertex 2.90018 1.35238 0
    endloop
  endfacet
  facet normal -0.946927 -0.321448 0
    outer loop
      vertex 2.90018 1.35238 5
      vertex 3.12415 0.692606 0
      vertex 3.12415 0.692606 5
    endloop
  endfacet
  facet normal 0.854909 0.518777 0
    outer loop
      vertex 4.25965 1.98631 5
      vertex 3.72876 2.86118 0
      vertex 3.72876 2.86118 5
    endloop
  endfacet
  facet normal 0.854909 0.518777 0
    outer loop
      vertex 3.72876 2.86118 0
      vertex 4.25965 1.98631 5
      vertex 4.25965 1.98631 0
    endloop
  endfacet
  facet normal -0.854915 -0.518768 0
    outer loop
      vertex 2.90018 1.35238 0
      vertex 2.53873 1.94804 5
      vertex 2.53873 1.94804 0
    endloop
  endfacet
  facet normal -0.854915 -0.518768 0
    outer loop
      vertex 2.53873 1.94804 5
      vertex 2.90018 1.35238 0
      vertex 2.90018 1.35238 5
    endloop
  endfacet
  facet normal 0.722363 0.691514 0
    outer loop
      vertex 3.72876 2.86118 5
      vertex 3.0211 3.60041 0
      vertex 3.0211 3.60041 5
    endloop
  endfacet
  facet normal 0.722363 0.691514 0
    outer loop
      vertex 3.0211 3.60041 0
      vertex 3.72876 2.86118 5
      vertex 3.72876 2.86118 0
    endloop
  endfacet
  facet normal -0.72236 -0.691517 0
    outer loop
      vertex 2.53873 1.94804 0
      vertex 2.05692 2.45134 5
      vertex 2.05692 2.45134 0
    endloop
  endfacet
  facet normal -0.72236 -0.691517 0
    outer loop
      vertex 2.05692 2.45134 5
      vertex 2.53873 1.94804 0
      vertex 2.53873 1.94804 5
    endloop
  endfacet
  facet normal 0.55557 0.83147 -0
    outer loop
      vertex 3.0211 3.60041 0
      vertex 2.17022 4.16895 5
      vertex 3.0211 3.60041 5
    endloop
  endfacet
  facet normal 0.55557 0.83147 0
    outer loop
      vertex 2.17022 4.16895 5
      vertex 3.0211 3.60041 0
      vertex 2.17022 4.16895 0
    endloop
  endfacet
  facet normal -0.555571 -0.831469 0
    outer loop
      vertex 1.4776 2.83843 0
      vertex 2.05692 2.45134 5
      vertex 1.4776 2.83843 5
    endloop
  endfacet
  facet normal -0.555571 -0.831469 -0
    outer loop
      vertex 2.05692 2.45134 5
      vertex 1.4776 2.83843 0
      vertex 2.05692 2.45134 0
    endloop
  endfacet
  facet normal 0.362437 0.932008 -0
    outer loop
      vertex 2.17022 4.16895 0
      vertex 1.21645 4.53985 5
      vertex 2.17022 4.16895 5
    endloop
  endfacet
  facet normal 0.362437 0.932008 0
    outer loop
      vertex 1.21645 4.53985 5
      vertex 2.17022 4.16895 0
      vertex 1.21645 4.53985 0
    endloop
  endfacet
  facet normal -0.362438 -0.932008 0
    outer loop
      vertex 0.82822 3.09096 0
      vertex 1.4776 2.83843 5
      vertex 0.82822 3.09096 5
    endloop
  endfacet
  facet normal -0.362438 -0.932008 -0
    outer loop
      vertex 1.4776 2.83843 5
      vertex 0.82822 3.09096 0
      vertex 1.4776 2.83843 0
    endloop
  endfacet
  facet normal 0.152128 0.988361 -0
    outer loop
      vertex 1.21645 4.53985 0
      vertex 0.20501 4.69553 5
      vertex 1.21645 4.53985 5
    endloop
  endfacet
  facet normal 0.152128 0.988361 0
    outer loop
      vertex 0.20501 4.69553 5
      vertex 1.21645 4.53985 0
      vertex 0.20501 4.69553 0
    endloop
  endfacet
  facet normal -0.152121 -0.988362 0
    outer loop
      vertex 0.139582 3.19695 0
      vertex 0.82822 3.09096 5
      vertex 0.139582 3.19695 5
    endloop
  endfacet
  facet normal -0.152121 -0.988362 -0
    outer loop
      vertex 0.82822 3.09096 5
      vertex 0.139582 3.19695 0
      vertex 0.82822 3.09096 0
    endloop
  endfacet
  facet normal -0.065403 0.997859 0
    outer loop
      vertex 0.20501 4.69553 0
      vertex -0.816146 4.6286 5
      vertex 0.20501 4.69553 5
    endloop
  endfacet
  facet normal -0.065403 0.997859 0
    outer loop
      vertex -0.816146 4.6286 5
      vertex 0.20501 4.69553 0
      vertex -0.816146 4.6286 0
    endloop
  endfacet
  facet normal 0.0654039 -0.997859 0
    outer loop
      vertex -0.555674 3.15138 0
      vertex 0.139582 3.19695 5
      vertex -0.555674 3.15138 5
    endloop
  endfacet
  facet normal 0.0654039 -0.997859 0
    outer loop
      vertex 0.139582 3.19695 5
      vertex -0.555674 3.15138 0
      vertex 0.139582 3.19695 0
    endloop
  endfacet
  facet normal -0.279836 0.960048 0
    outer loop
      vertex -0.816146 4.6286 0
      vertex -1.79861 4.34223 5
      vertex -0.816146 4.6286 5
    endloop
  endfacet
  facet normal -0.279836 0.960048 0
    outer loop
      vertex -1.79861 4.34223 5
      vertex -0.816146 4.6286 0
      vertex -1.79861 4.34223 0
    endloop
  endfacet
  facet normal 0.279827 -0.96005 0
    outer loop
      vertex -1.22459 2.95641 0
      vertex -0.555674 3.15138 5
      vertex -1.22459 2.95641 5
    endloop
  endfacet
  facet normal 0.279827 -0.96005 0
    outer loop
      vertex -0.555674 3.15138 5
      vertex -1.22459 2.95641 0
      vertex -0.555674 3.15138 0
    endloop
  endfacet
  facet normal -0.480988 0.876727 0
    outer loop
      vertex -1.79861 4.34223 0
      vertex -2.69581 3.85001 5
      vertex -1.79861 4.34223 5
    endloop
  endfacet
  facet normal -0.480988 0.876727 0
    outer loop
      vertex -2.69581 3.85001 5
      vertex -1.79861 4.34223 0
      vertex -2.69581 3.85001 0
    endloop
  endfacet
  facet normal 0.480985 -0.876729 0
    outer loop
      vertex -1.83544 2.62129 0
      vertex -1.22459 2.95641 5
      vertex -1.83544 2.62129 5
    endloop
  endfacet
  facet normal 0.480985 -0.876729 0
    outer loop
      vertex -1.22459 2.95641 5
      vertex -1.83544 2.62129 0
      vertex -1.22459 2.95641 0
    endloop
  endfacet
  facet normal -0.659348 0.751838 0
    outer loop
      vertex -2.69581 3.85001 0
      vertex -3.4652 3.17527 5
      vertex -2.69581 3.85001 5
    endloop
  endfacet
  facet normal -0.659348 0.751838 0
    outer loop
      vertex -3.4652 3.17527 5
      vertex -2.69581 3.85001 0
      vertex -3.4652 3.17527 0
    endloop
  endfacet
  facet normal 0.659342 -0.751843 0
    outer loop
      vertex -2.35929 2.16189 0
      vertex -1.83544 2.62129 5
      vertex -2.35929 2.16189 5
    endloop
  endfacet
  facet normal 0.659342 -0.751843 0
    outer loop
      vertex -1.83544 2.62129 5
      vertex -2.35929 2.16189 0
      vertex -1.83544 2.62129 0
    endloop
  endfacet
  facet normal -0.806441 0.591314 0
    outer loop
      vertex -4.07032 2.35 0
      vertex -3.4652 3.17527 5
      vertex -3.4652 3.17527 0
    endloop
  endfacet
  facet normal -0.806441 0.591314 0
    outer loop
      vertex -3.4652 3.17527 5
      vertex -4.07032 2.35 0
      vertex -4.07032 2.35 5
    endloop
  endfacet
  facet normal 0.806448 -0.591305 0
    outer loop
      vertex -2.77128 1.6 5
      vertex -2.35929 2.16189 0
      vertex -2.35929 2.16189 5
    endloop
  endfacet
  facet normal 0.806448 -0.591305 0
    outer loop
      vertex -2.35929 2.16189 0
      vertex -2.77128 1.6 5
      vertex -2.77128 1.6 0
    endloop
  endfacet
  facet normal -0.915311 0.402747 0
    outer loop
      vertex -4.48247 1.41332 0
      vertex -4.07032 2.35 5
      vertex -4.07032 2.35 0
    endloop
  endfacet
  facet normal -0.915311 0.402747 0
    outer loop
      vertex -4.07032 2.35 5
      vertex -4.48247 1.41332 0
      vertex -4.48247 1.41332 5
    endloop
  endfacet
  facet normal 0.915313 -0.402743 0
    outer loop
      vertex -3.05189 0.962258 5
      vertex -2.77128 1.6 0
      vertex -2.77128 1.6 5
    endloop
  endfacet
  facet normal 0.915313 -0.402743 0
    outer loop
      vertex -2.77128 1.6 0
      vertex -3.05189 0.962258 5
      vertex -3.05189 0.962258 0
    endloop
  endfacet
  facet normal -0.980786 0.195085 0
    outer loop
      vertex -4.68211 0.409632 0
      vertex -4.48247 1.41332 5
      vertex -4.48247 1.41332 0
    endloop
  endfacet
  facet normal -0.980786 0.195085 0
    outer loop
      vertex -4.48247 1.41332 5
      vertex -4.68211 0.409632 0
      vertex -4.68211 0.409632 5
    endloop
  endfacet
  facet normal 0.980785 -0.195092 0
    outer loop
      vertex -3.18782 0.278898 5
      vertex -3.05189 0.962258 0
      vertex -3.05189 0.962258 5
    endloop
  endfacet
  facet normal 0.980785 -0.195092 0
    outer loop
      vertex -3.05189 0.962258 0
      vertex -3.18782 0.278898 5
      vertex -3.18782 0.278898 0
    endloop
  endfacet
  facet normal -0.999762 -0.0218108 0
    outer loop
      vertex -4.65979 -0.613473 0
      vertex -4.68211 0.409632 5
      vertex -4.68211 0.409632 0
    endloop
  endfacet
  facet normal -0.999762 -0.0218108 0
    outer loop
      vertex -4.68211 0.409632 5
      vertex -4.65979 -0.613473 0
      vertex -4.65979 -0.613473 5
    endloop
  endfacet
  facet normal 0.999762 0.0218156 0
    outer loop
      vertex -3.17262 -0.417684 5
      vertex -3.18782 0.278898 0
      vertex -3.18782 0.278898 5
    endloop
  endfacet
  facet normal 0.999762 0.0218156 0
    outer loop
      vertex -3.18782 0.278898 0
      vertex -3.17262 -0.417684 5
      vertex -3.17262 -0.417684 0
    endloop
  endfacet
  facet normal -0.971343 -0.237682 0
    outer loop
      vertex -4.41656 -1.60749 0
      vertex -4.65979 -0.613473 5
      vertex -4.65979 -0.613473 0
    endloop
  endfacet
  facet normal -0.971343 -0.237682 0
    outer loop
      vertex -4.65979 -0.613473 5
      vertex -4.41656 -1.60749 0
      vertex -4.41656 -1.60749 5
    endloop
  endfacet
  facet normal 0.971344 0.237678 0
    outer loop
      vertex -3.00702 -1.09446 5
      vertex -3.17262 -0.417684 0
      vertex -3.17262 -0.417684 5
    endloop
  endfacet
  facet normal 0.971344 0.237678 0
    outer loop
      vertex -3.17262 -0.417684 0
      vertex -3.00702 -1.09446 5
      vertex -3.00702 -1.09446 0
    endloop
  endfacet
  facet normal 0 0 1
    outer loop
      vertex 2.33688 -15.7767 5
      vertex 2.42555 -16.144 5
      vertex 2.46531 -16.1295 5
    endloop
  endfacet
  facet normal 0 0 1
    outer loop
      vertex 0.92734 -16.2897 5
      vertex 2.42555 -16.144 5
      vertex 2.33688 -15.7767 5
    endloop
  endfacet
  facet normal -0 0 1
    outer loop
      vertex 2.30744 -15.6958 5
      vertex 2.33688 -15.7767 5
      vertex 2.31656 -15.6925 5
    endloop
  endfacet
  facet normal 0 0 1
    outer loop
      vertex 0.92734 -16.2897 5
      vertex 2.33688 -15.7767 5
      vertex 2.30744 -15.6958 5
    endloop
  endfacet
  facet normal 0 0 1
    outer loop
      vertex 2.42555 -16.144 5
      vertex 1.0841 -17.6186 5
      vertex 2.35526 -18.7969 5
    endloop
  endfacet
  facet normal -0 0 1
    outer loop
      vertex 0.933367 -18.3192 5
      vertex 2.35526 -18.7969 5
      vertex 1.0841 -17.6186 5
    endloop
  endfacet
  facet normal 0 0 1
    outer loop
      vertex 2.35526 -18.7969 5
      vertex 0.933367 -18.3192 5
      vertex 1.91047 -19.7507 5
    endloop
  endfacet
  facet normal 0 0 1
    outer loop
      vertex 2.42555 -16.144 5
      vertex 1.07516 -16.9021 5
      vertex 1.0841 -17.6186 5
    endloop
  endfacet
  facet normal 0 0 1
    outer loop
      vertex 2.42555 -16.144 5
      vertex 0.92734 -16.2897 5
      vertex 1.07516 -16.9021 5
    endloop
  endfacet
  facet normal -0 0 1
    outer loop
      vertex -4.41655 -1.60749 5
      vertex 2.30744 -15.6958 5
      vertex -3.00702 -1.09446 5
    endloop
  endfacet
  facet normal 0 0 1
    outer loop
      vertex 2.30744 -15.6958 5
      vertex -4.41655 -1.60749 5
      vertex 0.92734 -16.2897 5
    endloop
  endfacet
  facet normal 0 0 1
    outer loop
      vertex 2.42555 -16.144 5
      vertex 2.57664 -17.768 5
      vertex 2.56352 -16.7156 5
    endloop
  endfacet
  facet normal 0 0 1
    outer loop
      vertex 2.57664 -17.768 5
      vertex 2.42555 -16.144 5
      vertex 2.35526 -18.7969 5
    endloop
  endfacet
  facet normal -0 0 1
    outer loop
      vertex 0.63053 -18.9686 5
      vertex 1.91047 -19.7507 5
      vertex 0.933367 -18.3192 5
    endloop
  endfacet
  facet normal 0 0 1
    outer loop
      vertex 1.91047 -19.7507 5
      vertex 0.63053 -18.9686 5
      vertex 1.26457 -20.5817 5
    endloop
  endfacet
  facet normal -0 0 1
    outer loop
      vertex 0.190773 -19.5344 5
      vertex 1.26457 -20.5817 5
      vertex 0.63053 -18.9686 5
    endloop
  endfacet
  facet normal 0 0 1
    outer loop
      vertex 1.26457 -20.5817 5
      vertex 0.190773 -19.5344 5
      vertex 0.449966 -21.2481 5
    endloop
  endfacet
  facet normal -0 0 1
    outer loop
      vertex -0.363852 -19.9881 5
      vertex 0.449966 -21.2481 5
      vertex 0.190773 -19.5344 5
    endloop
  endfacet
  facet normal -0 0 1
    outer loop
      vertex -0.914545 -20.2618 5
      vertex 0.449966 -21.2481 5
      vertex -0.363852 -19.9881 5
    endloop
  endfacet
  facet normal 0 0 1
    outer loop
      vertex 0.449966 -21.2481 5
      vertex -0.504088 -21.6847 5
      vertex -0.492505 -21.7166 5
    endloop
  endfacet
  facet normal 0 0 1
    outer loop
      vertex 0.449966 -21.2481 5
      vertex -0.914545 -20.2618 5
      vertex -0.504088 -21.6847 5
    endloop
  endfacet
  facet normal 0 0 1
    outer loop
      vertex -1.03176 -21.7133 5
      vertex -0.504088 -21.6847 5
      vertex -0.914545 -20.2618 5
    endloop
  endfacet
  facet normal 0 0 1
    outer loop
      vertex -0.504088 -21.6847 5
      vertex -0.721603 -21.7459 5
      vertex -0.568236 -21.7133 5
    endloop
  endfacet
  facet normal 0 0 1
    outer loop
      vertex -0.504088 -21.6847 5
      vertex -0.878396 -21.7459 5
      vertex -0.721603 -21.7459 5
    endloop
  endfacet
  facet normal 0 0 1
    outer loop
      vertex -1.175 -20.3505 5
      vertex -0.914545 -20.2618 5
      vertex -1.03176 -20.2867 5
    endloop
  endfacet
  facet normal 0 0 1
    outer loop
      vertex -0.504088 -21.6847 5
      vertex -1.03176 -21.7133 5
      vertex -0.878396 -21.7459 5
    endloop
  endfacet
  facet normal 0 0 1
    outer loop
      vertex -1.175 -21.6495 5
      vertex -0.914545 -20.2618 5
      vertex -1.175 -20.3505 5
    endloop
  endfacet
  facet normal 0 0 1
    outer loop
      vertex -0.914545 -20.2618 5
      vertex -1.175 -21.6495 5
      vertex -1.03176 -21.7133 5
    endloop
  endfacet
  facet normal -0 0 1
    outer loop
      vertex -1.30185 -20.4426 5
      vertex -1.175 -21.6495 5
      vertex -1.175 -20.3505 5
    endloop
  endfacet
  facet normal 0 0 1
    outer loop
      vertex -1.30185 -20.4426 5
      vertex -1.30185 -21.5574 5
      vertex -1.175 -21.6495 5
    endloop
  endfacet
  facet normal -0 0 1
    outer loop
      vertex -1.40676 -20.5592 5
      vertex -1.30185 -21.5574 5
      vertex -1.30185 -20.4426 5
    endloop
  endfacet
  facet normal 0 0 1
    outer loop
      vertex -1.40676 -20.5592 5
      vertex -1.40676 -21.4408 5
      vertex -1.30185 -21.5574 5
    endloop
  endfacet
  facet normal -0 0 1
    outer loop
      vertex -1.48516 -20.6949 5
      vertex -1.40676 -21.4408 5
      vertex -1.40676 -20.5592 5
    endloop
  endfacet
  facet normal 0 0 1
    outer loop
      vertex -1.48516 -20.6949 5
      vertex -1.48516 -21.3051 5
      vertex -1.40676 -21.4408 5
    endloop
  endfacet
  facet normal -0 0 1
    outer loop
      vertex -1.53361 -20.8441 5
      vertex -1.48516 -21.3051 5
      vertex -1.48516 -20.6949 5
    endloop
  endfacet
  facet normal 0 0 1
    outer loop
      vertex -1.53361 -20.8441 5
      vertex -1.53361 -21.1559 5
      vertex -1.48516 -21.3051 5
    endloop
  endfacet
  facet normal 0 -0 1
    outer loop
      vertex -1.53361 -21.1559 5
      vertex -1.53361 -20.8441 5
      vertex -1.55 -21 5
    endloop
  endfacet
  facet normal 0.939692 0.342021 0
    outer loop
      vertex 2.30744 -15.6958 5
      vertex -3.00702 -1.09446 0
      vertex -3.00702 -1.09446 5
    endloop
  endfacet
  facet normal 0.939692 0.342021 0
    outer loop
      vertex -3.00702 -1.09446 0
      vertex 2.30744 -15.6958 5
      vertex 2.30744 -15.6958 0
    endloop
  endfacet
  facet normal 0.939674 0.34207 0
    outer loop
      vertex 2.46531 -16.1295 5
      vertex 2.33688 -15.7767 0
      vertex 2.33688 -15.7767 5
    endloop
  endfacet
  facet normal 0.939674 0.34207 0
    outer loop
      vertex 2.33688 -15.7767 0
      vertex 2.46531 -16.1295 5
      vertex 2.46531 -16.1295 0
    endloop
  endfacet
  facet normal -0.939693 -0.34202 0
    outer loop
      vertex 0.92734 -16.2897 0
      vertex -4.41655 -1.60749 5
      vertex -4.41655 -1.60749 0
    endloop
  endfacet
  facet normal -0.939693 -0.34202 0
    outer loop
      vertex -4.41655 -1.60749 5
      vertex 0.92734 -16.2897 0
      vertex 0.92734 -16.2897 5
    endloop
  endfacet
  facet normal -0.342022 0.939692 0
    outer loop
      vertex -3.00702 -1.09446 0
      vertex -4.41655 -1.60749 5
      vertex -3.00702 -1.09446 5
    endloop
  endfacet
  facet normal -0.342022 0.939692 0
    outer loop
      vertex -4.41655 -1.60749 5
      vertex -3.00702 -1.09446 0
      vertex -4.41655 -1.60749 0
    endloop
  endfacet
  facet normal 0 0 -1
    outer loop
      vertex 1.07516 -16.9021 0
      vertex 2.56352 -16.7156 0
      vertex 2.57664 -17.768 0
    endloop
  endfacet
  facet normal 0 0 -1
    outer loop
      vertex 1.0841 -17.6186 0
      vertex 2.57664 -17.768 0
      vertex 2.35526 -18.7969 0
    endloop
  endfacet
  facet normal 0 0 -1
    outer loop
      vertex 2.42555 -16.144 0
      vertex 2.33688 -15.7767 0
      vertex 2.46531 -16.1295 0
    endloop
  endfacet
  facet normal 0 0 -1
    outer loop
      vertex 1.07516 -16.9021 0
      vertex 2.57664 -17.768 0
      vertex 1.0841 -17.6186 0
    endloop
  endfacet
  facet normal -0 0 -1
    outer loop
      vertex 2.56352 -16.7156 0
      vertex 1.07516 -16.9021 0
      vertex 2.42555 -16.144 0
    endloop
  endfacet
  facet normal 0 0 -1
    outer loop
      vertex 2.33688 -15.7767 0
      vertex 2.30744 -15.6958 0
      vertex 2.31656 -15.6925 0
    endloop
  endfacet
  facet normal 0 0 -1
    outer loop
      vertex 0.933367 -18.3192 0
      vertex 2.35526 -18.7969 0
      vertex 1.91047 -19.7507 0
    endloop
  endfacet
  facet normal 0 0 -1
    outer loop
      vertex 0.63053 -18.9686 0
      vertex 1.91047 -19.7507 0
      vertex 1.26457 -20.5817 0
    endloop
  endfacet
  facet normal 0 0 -1
    outer loop
      vertex 0.92734 -16.2897 0
      vertex 2.42555 -16.144 0
      vertex 1.07516 -16.9021 0
    endloop
  endfacet
  facet normal -0 0 -1
    outer loop
      vertex 2.42555 -16.144 0
      vertex 0.92734 -16.2897 0
      vertex 2.33688 -15.7767 0
    endloop
  endfacet
  facet normal -0 0 -1
    outer loop
      vertex 2.33688 -15.7767 0
      vertex 0.92734 -16.2897 0
      vertex 2.30744 -15.6958 0
    endloop
  endfacet
  facet normal 0 0 -1
    outer loop
      vertex -4.41655 -1.60749 0
      vertex 2.30744 -15.6958 0
      vertex 0.92734 -16.2897 0
    endloop
  endfacet
  facet normal 0 0 -1
    outer loop
      vertex 2.30744 -15.6958 0
      vertex -4.41655 -1.60749 0
      vertex -3.00702 -1.09446 0
    endloop
  endfacet
  facet normal 0 0 -1
    outer loop
      vertex 2.35526 -18.7969 0
      vertex 0.933367 -18.3192 0
      vertex 1.0841 -17.6186 0
    endloop
  endfacet
  facet normal 0 0 -1
    outer loop
      vertex 1.91047 -19.7507 0
      vertex 0.63053 -18.9686 0
      vertex 0.933367 -18.3192 0
    endloop
  endfacet
  facet normal 0 0 -1
    outer loop
      vertex 0.190773 -19.5344 0
      vertex 1.26457 -20.5817 0
      vertex 0.449966 -21.2481 0
    endloop
  endfacet
  facet normal 0 0 -1
    outer loop
      vertex 1.26457 -20.5817 0
      vertex 0.190773 -19.5344 0
      vertex 0.63053 -18.9686 0
    endloop
  endfacet
  facet normal 0 0 -1
    outer loop
      vertex 0.449966 -21.2481 0
      vertex -0.363852 -19.9881 0
      vertex 0.190773 -19.5344 0
    endloop
  endfacet
  facet normal 0 0 -1
    outer loop
      vertex -0.504088 -21.6847 0
      vertex 0.449966 -21.2481 0
      vertex -0.492505 -21.7166 0
    endloop
  endfacet
  facet normal 0 0 -1
    outer loop
      vertex -0.914545 -20.2618 0
      vertex 0.449966 -21.2481 0
      vertex -0.504088 -21.6847 0
    endloop
  endfacet
  facet normal 0 0 -1
    outer loop
      vertex -0.721603 -21.7459 0
      vertex -0.504088 -21.6847 0
      vertex -0.568236 -21.7133 0
    endloop
  endfacet
  facet normal 0 0 -1
    outer loop
      vertex -0.878396 -21.7459 0
      vertex -0.504088 -21.6847 0
      vertex -0.721603 -21.7459 0
    endloop
  endfacet
  facet normal 0 0 -1
    outer loop
      vertex -1.03176 -21.7133 0
      vertex -0.504088 -21.6847 0
      vertex -0.878396 -21.7459 0
    endloop
  endfacet
  facet normal 0 0 -1
    outer loop
      vertex 0.449966 -21.2481 0
      vertex -0.914545 -20.2618 0
      vertex -0.363852 -19.9881 0
    endloop
  endfacet
  facet normal -0 0 -1
    outer loop
      vertex -0.504088 -21.6847 0
      vertex -1.03176 -21.7133 0
      vertex -0.914545 -20.2618 0
    endloop
  endfacet
  facet normal 0 0 -1
    outer loop
      vertex -1.175 -21.6495 0
      vertex -0.914545 -20.2618 0
      vertex -1.03176 -21.7133 0
    endloop
  endfacet
  facet normal 0 0 -1
    outer loop
      vertex -1.175 -20.3505 0
      vertex -0.914545 -20.2618 0
      vertex -1.175 -21.6495 0
    endloop
  endfacet
  facet normal 0 0 -1
    outer loop
      vertex -0.914545 -20.2618 0
      vertex -1.175 -20.3505 0
      vertex -1.03176 -20.2867 0
    endloop
  endfacet
  facet normal 0 0 -1
    outer loop
      vertex -1.30185 -21.5574 0
      vertex -1.175 -20.3505 0
      vertex -1.175 -21.6495 0
    endloop
  endfacet
  facet normal 0 0 -1
    outer loop
      vertex -1.30185 -21.5574 0
      vertex -1.30185 -20.4426 0
      vertex -1.175 -20.3505 0
    endloop
  endfacet
  facet normal 0 0 -1
    outer loop
      vertex -1.40676 -21.4408 0
      vertex -1.30185 -20.4426 0
      vertex -1.30185 -21.5574 0
    endloop
  endfacet
  facet normal 0 0 -1
    outer loop
      vertex -1.40676 -21.4408 0
      vertex -1.40676 -20.5592 0
      vertex -1.30185 -20.4426 0
    endloop
  endfacet
  facet normal 0 0 -1
    outer loop
      vertex -1.48516 -21.3051 0
      vertex -1.40676 -20.5592 0
      vertex -1.40676 -21.4408 0
    endloop
  endfacet
  facet normal 0 0 -1
    outer loop
      vertex -1.48516 -21.3051 0
      vertex -1.48516 -20.6949 0
      vertex -1.40676 -20.5592 0
    endloop
  endfacet
  facet normal 0 0 -1
    outer loop
      vertex -1.53361 -21.1559 0
      vertex -1.48516 -20.6949 0
      vertex -1.48516 -21.3051 0
    endloop
  endfacet
  facet normal 0 0 -1
    outer loop
      vertex -1.53361 -21.1559 0
      vertex -1.53361 -20.8441 0
      vertex -1.48516 -20.6949 0
    endloop
  endfacet
  facet normal 0 -0 -1
    outer loop
      vertex -1.53361 -20.8441 0
      vertex -1.53361 -21.1559 0
      vertex -1.55 -21 0
    endloop
  endfacet
  facet normal 0.342616 -0.939476 0
    outer loop
      vertex 2.42555 -16.144 0
      vertex 2.46531 -16.1295 5
      vertex 2.42555 -16.144 5
    endloop
  endfacet
  facet normal 0.342616 -0.939476 0
    outer loop
      vertex 2.46531 -16.1295 5
      vertex 2.42555 -16.144 0
      vertex 2.46531 -16.1295 0
    endloop
  endfacet
  facet normal -0.340252 0.940334 0
    outer loop
      vertex 2.31656 -15.6925 0
      vertex 2.30744 -15.6958 5
      vertex 2.31656 -15.6925 5
    endloop
  endfacet
  facet normal -0.340252 0.940334 0
    outer loop
      vertex 2.30744 -15.6958 5
      vertex 2.31656 -15.6925 0
      vertex 2.30744 -15.6958 0
    endloop
  endfacet
  facet normal -0.939954 -0.341301 0
    outer loop
      vertex -0.492505 -21.7166 0
      vertex -0.504088 -21.6847 5
      vertex -0.504088 -21.6847 0
    endloop
  endfacet
  facet normal -0.939954 -0.341301 0
    outer loop
      vertex -0.504088 -21.6847 5
      vertex -0.492505 -21.7166 0
      vertex -0.492505 -21.7166 5
    endloop
  endfacet
  facet normal 0.972093 0.234595 0
    outer loop
      vertex 2.33688 -15.7767 5
      vertex 2.31656 -15.6925 0
      vertex 2.31656 -15.6925 5
    endloop
  endfacet
  facet normal 0.972093 0.234595 0
    outer loop
      vertex 2.31656 -15.6925 0
      vertex 2.33688 -15.7767 5
      vertex 2.33688 -15.7767 0
    endloop
  endfacet
  facet normal 0.972083 0.234637 0
    outer loop
      vertex 2.56352 -16.7156 5
      vertex 2.42555 -16.144 0
      vertex 2.42555 -16.144 5
    endloop
  endfacet
  facet normal 0.972083 0.234637 0
    outer loop
      vertex 2.42555 -16.144 0
      vertex 2.56352 -16.7156 5
      vertex 2.56352 -16.7156 0
    endloop
  endfacet
  facet normal -0.972082 -0.234639 0
    outer loop
      vertex 1.07516 -16.9021 0
      vertex 0.92734 -16.2897 5
      vertex 0.92734 -16.2897 0
    endloop
  endfacet
  facet normal -0.972082 -0.234639 0
    outer loop
      vertex 0.92734 -16.2897 5
      vertex 1.07516 -16.9021 0
      vertex 1.07516 -16.9021 5
    endloop
  endfacet
  facet normal 0.999922 0.0124658 0
    outer loop
      vertex 2.57664 -17.768 5
      vertex 2.56352 -16.7156 0
      vertex 2.56352 -16.7156 5
    endloop
  endfacet
  facet normal 0.999922 0.0124658 0
    outer loop
      vertex 2.56352 -16.7156 0
      vertex 2.57664 -17.768 5
      vertex 2.57664 -17.768 0
    endloop
  endfacet
  facet normal -0.999922 -0.0124763 0
    outer loop
      vertex 1.0841 -17.6186 0
      vertex 1.07516 -16.9021 5
      vertex 1.07516 -16.9021 0
    endloop
  endfacet
  facet normal -0.999922 -0.0124763 0
    outer loop
      vertex 1.07516 -16.9021 5
      vertex 1.0841 -17.6186 0
      vertex 1.0841 -17.6186 5
    endloop
  endfacet
  facet normal 0.977627 -0.210348 0
    outer loop
      vertex 2.35526 -18.7969 5
      vertex 2.57664 -17.768 0
      vertex 2.57664 -17.768 5
    endloop
  endfacet
  facet normal 0.977627 -0.210348 0
    outer loop
      vertex 2.57664 -17.768 0
      vertex 2.35526 -18.7969 5
      vertex 2.35526 -18.7969 0
    endloop
  endfacet
  facet normal -0.977629 0.210335 0
    outer loop
      vertex 0.933367 -18.3192 0
      vertex 1.0841 -17.6186 5
      vertex 1.0841 -17.6186 0
    endloop
  endfacet
  facet normal -0.977629 0.210335 0
    outer loop
      vertex 1.0841 -17.6186 5
      vertex 0.933367 -18.3192 0
      vertex 0.933367 -18.3192 5
    endloop
  endfacet
  facet normal 0.906298 -0.422638 0
    outer loop
      vertex 1.91047 -19.7507 5
      vertex 2.35526 -18.7969 0
      vertex 2.35526 -18.7969 5
    endloop
  endfacet
  facet normal 0.906298 -0.422638 0
    outer loop
      vertex 2.35526 -18.7969 0
      vertex 1.91047 -19.7507 5
      vertex 1.91047 -19.7507 0
    endloop
  endfacet
  facet normal -0.906299 0.422638 0
    outer loop
      vertex 0.63053 -18.9686 0
      vertex 0.933367 -18.3192 5
      vertex 0.933367 -18.3192 0
    endloop
  endfacet
  facet normal -0.906299 0.422638 0
    outer loop
      vertex 0.933367 -18.3192 5
      vertex 0.63053 -18.9686 0
      vertex 0.63053 -18.9686 5
    endloop
  endfacet
  facet normal 0.789552 -0.613684 0
    outer loop
      vertex 1.26457 -20.5817 5
      vertex 1.91047 -19.7507 0
      vertex 1.91047 -19.7507 5
    endloop
  endfacet
  facet normal 0.789552 -0.613684 0
    outer loop
      vertex 1.91047 -19.7507 0
      vertex 1.26457 -20.5817 5
      vertex 1.26457 -20.5817 0
    endloop
  endfacet
  facet normal -0.789562 0.613671 0
    outer loop
      vertex 0.190773 -19.5344 0
      vertex 0.63053 -18.9686 5
      vertex 0.63053 -18.9686 0
    endloop
  endfacet
  facet normal -0.789562 0.613671 0
    outer loop
      vertex 0.63053 -18.9686 5
      vertex 0.190773 -19.5344 0
      vertex 0.190773 -19.5344 5
    endloop
  endfacet
  facet normal 0.633184 -0.774001 0
    outer loop
      vertex 0.449966 -21.2481 0
      vertex 1.26457 -20.5817 5
      vertex 0.449966 -21.2481 5
    endloop
  endfacet
  facet normal 0.633184 -0.774001 0
    outer loop
      vertex 1.26457 -20.5817 5
      vertex 0.449966 -21.2481 0
      vertex 1.26457 -20.5817 0
    endloop
  endfacet
  facet normal -0.633167 0.774015 0
    outer loop
      vertex 0.190773 -19.5344 0
      vertex -0.363852 -19.9881 5
      vertex 0.190773 -19.5344 5
    endloop
  endfacet
  facet normal -0.633167 0.774015 0
    outer loop
      vertex -0.363852 -19.9881 5
      vertex 0.190773 -19.5344 0
      vertex -0.363852 -19.9881 0
    endloop
  endfacet
  facet normal 0.445133 -0.895464 0
    outer loop
      vertex -0.492505 -21.7166 0
      vertex 0.449966 -21.2481 5
      vertex -0.492505 -21.7166 5
    endloop
  endfacet
  facet normal 0.445133 -0.895464 0
    outer loop
      vertex 0.449966 -21.2481 5
      vertex -0.492505 -21.7166 0
      vertex 0.449966 -21.2481 0
    endloop
  endfacet
  facet normal -0.44507 0.895496 0
    outer loop
      vertex -0.363852 -19.9881 0
      vertex -0.914545 -20.2618 5
      vertex -0.363852 -19.9881 5
    endloop
  endfacet
  facet normal -0.44507 0.895496 0
    outer loop
      vertex -0.914545 -20.2618 5
      vertex -0.363852 -19.9881 0
      vertex -0.914545 -20.2618 0
    endloop
  endfacet
  facet normal -0.951109 0.308855 0
    outer loop
      vertex -1.53361 -20.8441 0
      vertex -1.48516 -20.6949 5
      vertex -1.48516 -20.6949 0
    endloop
  endfacet
  facet normal -0.951109 0.308855 0
    outer loop
      vertex -1.48516 -20.6949 5
      vertex -1.53361 -20.8441 0
      vertex -1.53361 -20.8441 5
    endloop
  endfacet
  facet normal 0.407206 -0.913337 0
    outer loop
      vertex -0.568236 -21.7133 0
      vertex -0.504088 -21.6847 5
      vertex -0.568236 -21.7133 5
    endloop
  endfacet
  facet normal 0.407206 -0.913337 0
    outer loop
      vertex -0.504088 -21.6847 5
      vertex -0.568236 -21.7133 0
      vertex -0.504088 -21.6847 0
    endloop
  endfacet
  facet normal -0.743389 0.668859 0
    outer loop
      vertex -1.40676 -20.5592 0
      vertex -1.30185 -20.4426 5
      vertex -1.30185 -20.4426 0
    endloop
  endfacet
  facet normal -0.743389 0.668859 0
    outer loop
      vertex -1.30185 -20.4426 5
      vertex -1.40676 -20.5592 0
      vertex -1.40676 -20.5592 5
    endloop
  endfacet
  facet normal 0 -1 0
    outer loop
      vertex -0.878396 -21.7459 0
      vertex -0.721603 -21.7459 5
      vertex -0.878396 -21.7459 5
    endloop
  endfacet
  facet normal 0 -1 -0
    outer loop
      vertex -0.721603 -21.7459 5
      vertex -0.878396 -21.7459 0
      vertex -0.721603 -21.7459 0
    endloop
  endfacet
  facet normal -0.207793 0.978173 0
    outer loop
      vertex -0.914545 -20.2618 0
      vertex -1.03176 -20.2867 5
      vertex -0.914545 -20.2618 5
    endloop
  endfacet
  facet normal -0.207793 0.978173 0
    outer loop
      vertex -1.03176 -20.2867 5
      vertex -0.914545 -20.2618 0
      vertex -1.03176 -20.2867 0
    endloop
  endfacet
  facet normal -0.406872 -0.913485 0
    outer loop
      vertex -1.175 -21.6495 0
      vertex -1.03176 -21.7133 5
      vertex -1.175 -21.6495 5
    endloop
  endfacet
  facet normal -0.406872 -0.913485 -0
    outer loop
      vertex -1.03176 -21.7133 5
      vertex -1.175 -21.6495 0
      vertex -1.03176 -21.7133 0
    endloop
  endfacet
  facet normal -0.587527 0.809205 0
    outer loop
      vertex -1.175 -20.3505 0
      vertex -1.30185 -20.4426 5
      vertex -1.175 -20.3505 5
    endloop
  endfacet
  facet normal -0.587527 0.809205 0
    outer loop
      vertex -1.30185 -20.4426 5
      vertex -1.175 -20.3505 0
      vertex -1.30185 -20.4426 0
    endloop
  endfacet
  facet normal 0.207917 -0.978147 0
    outer loop
      vertex -0.721603 -21.7459 0
      vertex -0.568236 -21.7133 5
      vertex -0.721603 -21.7459 5
    endloop
  endfacet
  facet normal 0.207917 -0.978147 0
    outer loop
      vertex -0.568236 -21.7133 5
      vertex -0.721603 -21.7459 0
      vertex -0.568236 -21.7133 0
    endloop
  endfacet
  facet normal -0.994519 -0.104555 0
    outer loop
      vertex -1.53361 -21.1559 0
      vertex -1.55 -21 5
      vertex -1.55 -21 0
    endloop
  endfacet
  facet normal -0.994519 -0.104555 0
    outer loop
      vertex -1.55 -21 5
      vertex -1.53361 -21.1559 0
      vertex -1.53361 -21.1559 5
    endloop
  endfacet
  facet normal -0.951109 -0.308855 0
    outer loop
      vertex -1.48516 -21.3051 0
      vertex -1.53361 -21.1559 5
      vertex -1.53361 -21.1559 0
    endloop
  endfacet
  facet normal -0.951109 -0.308855 0
    outer loop
      vertex -1.53361 -21.1559 5
      vertex -1.48516 -21.3051 0
      vertex -1.48516 -21.3051 5
    endloop
  endfacet
  facet normal -0.207921 -0.978146 0
    outer loop
      vertex -1.03176 -21.7133 0
      vertex -0.878396 -21.7459 5
      vertex -1.03176 -21.7133 5
    endloop
  endfacet
  facet normal -0.207921 -0.978146 -0
    outer loop
      vertex -0.878396 -21.7459 5
      vertex -1.03176 -21.7133 0
      vertex -0.878396 -21.7459 0
    endloop
  endfacet
  facet normal -0.406872 0.913485 0
    outer loop
      vertex -1.03176 -20.2867 0
      vertex -1.175 -20.3505 5
      vertex -1.03176 -20.2867 5
    endloop
  endfacet
  facet normal -0.406872 0.913485 0
    outer loop
      vertex -1.175 -20.3505 5
      vertex -1.03176 -20.2867 0
      vertex -1.175 -20.3505 0
    endloop
  endfacet
  facet normal -0.865877 0.500256 0
    outer loop
      vertex -1.48516 -20.6949 0
      vertex -1.40676 -20.5592 5
      vertex -1.40676 -20.5592 0
    endloop
  endfacet
  facet normal -0.865877 0.500256 0
    outer loop
      vertex -1.40676 -20.5592 5
      vertex -1.48516 -20.6949 0
      vertex -1.48516 -20.6949 5
    endloop
  endfacet
  facet normal -0.743389 -0.668859 0
    outer loop
      vertex -1.30185 -21.5574 0
      vertex -1.40676 -21.4408 5
      vertex -1.40676 -21.4408 0
    endloop
  endfacet
  facet normal -0.743389 -0.668859 0
    outer loop
      vertex -1.40676 -21.4408 5
      vertex -1.30185 -21.5574 0
      vertex -1.30185 -21.5574 5
    endloop
  endfacet
  facet normal -0.587527 -0.809205 0
    outer loop
      vertex -1.30185 -21.5574 0
      vertex -1.175 -21.6495 5
      vertex -1.30185 -21.5574 5
    endloop
  endfacet
  facet normal -0.587527 -0.809205 -0
    outer loop
      vertex -1.175 -21.6495 5
      vertex -1.30185 -21.5574 0
      vertex -1.175 -21.6495 0
    endloop
  endfacet
  facet normal -0.994519 0.104555 0
    outer loop
      vertex -1.55 -21 0
      vertex -1.53361 -20.8441 5
      vertex -1.53361 -20.8441 0
    endloop
  endfacet
  facet normal -0.994519 0.104555 0
    outer loop
      vertex -1.53361 -20.8441 5
      vertex -1.55 -21 0
      vertex -1.55 -21 5
    endloop
  endfacet
  facet normal -0.865877 -0.500256 0
    outer loop
      vertex -1.40676 -21.4408 0
      vertex -1.48516 -21.3051 5
      vertex -1.48516 -21.3051 0
    endloop
  endfacet
  facet normal -0.865877 -0.500256 0
    outer loop
      vertex -1.48516 -21.3051 5
      vertex -1.40676 -21.4408 0
      vertex -1.40676 -21.4408 5
    endloop
  endfacet
endsolid OpenSCAD_Model
