solid OpenSCAD_Model
  facet normal 1 -0 0
    outer loop
      vertex -13 16.5 5
      vertex -13 18 1.49977
      vertex -13 18 5
    endloop
  endfacet
  facet normal 1 0 0
    outer loop
      vertex -13 16.5 0
      vertex -13 18 1.49977
      vertex -13 16.5 5
    endloop
  endfacet
  facet normal 1 0 0
    outer loop
      vertex -13 18 1.49977
      vertex -13 16.5 0
      vertex -13 16.5002 0
    endloop
  endfacet
  facet normal -1 0 0
    outer loop
      vertex 13 16.5 0
      vertex 13 18 1.49977
      vertex 13 16.5002 0
    endloop
  endfacet
  facet normal -1 -0 0
    outer loop
      vertex 13 18 1.49977
      vertex 13 16.5 0
      vertex 13 16.5 5
    endloop
  endfacet
  facet normal -1 0 0
    outer loop
      vertex 13 18 1.49977
      vertex 13 16.5 5
      vertex 13 18 5
    endloop
  endfacet
  facet normal 0 0 -1
    outer loop
      vertex -13 -16.5002 0
      vertex -27.3 -10.1985 0
      vertex -13 -16.5 0
    endloop
  endfacet
  facet normal -0 0 -1
    outer loop
      vertex -27.3 -10.1985 0
      vertex -43.5 -16.5002 0
      vertex -37.4985 0 0
    endloop
  endfacet
  facet normal 0 0 -1
    outer loop
      vertex -43.5 -16.5002 0
      vertex -27.3 -10.1985 0
      vertex -13 -16.5002 0
    endloop
  endfacet
  facet normal 0 0 -1
    outer loop
      vertex 27.3 10.1985 0
      vertex -13 16.5 0
      vertex 13 16.5 0
    endloop
  endfacet
  facet normal 0 0 -1
    outer loop
      vertex -27.3 10.1985 0
      vertex -13 16.5 0
      vertex 27.3 10.1985 0
    endloop
  endfacet
  facet normal 0 0 -1
    outer loop
      vertex -27.3 10.1985 0
      vertex -13 16.5002 0
      vertex -13 16.5 0
    endloop
  endfacet
  facet normal 0 0 -1
    outer loop
      vertex -27.3 10.1985 0
      vertex -43.5 16.5002 0
      vertex -13 16.5002 0
    endloop
  endfacet
  facet normal 0 0 -1
    outer loop
      vertex -37.4985 0 0
      vertex -43.5 16.5002 0
      vertex -27.3 10.1985 0
    endloop
  endfacet
  facet normal 0 0 -1
    outer loop
      vertex -43.5 16.5002 0
      vertex -37.4985 0 0
      vertex -43.5 -16.5002 0
    endloop
  endfacet
  facet normal 0 0 -1
    outer loop
      vertex 43.5 -16.5002 0
      vertex 37.4985 0 0
      vertex 43.5 16.5002 0
    endloop
  endfacet
  facet normal 0 0 -1
    outer loop
      vertex 43.5 -16.5002 0
      vertex 27.3 -10.1985 0
      vertex 37.4985 0 0
    endloop
  endfacet
  facet normal 0 0 -1
    outer loop
      vertex 13 -16.5002 0
      vertex 27.3 -10.1985 0
      vertex 43.5 -16.5002 0
    endloop
  endfacet
  facet normal 0 0 -1
    outer loop
      vertex 13 -16.5 0
      vertex 27.3 -10.1985 0
      vertex 13 -16.5002 0
    endloop
  endfacet
  facet normal 0 0 -1
    outer loop
      vertex -13 -16.5 0
      vertex 27.3 -10.1985 0
      vertex 13 -16.5 0
    endloop
  endfacet
  facet normal -0 0 -1
    outer loop
      vertex 27.3 -10.1985 0
      vertex -13 -16.5 0
      vertex -27.3 -10.1985 0
    endloop
  endfacet
  facet normal 0 0 -1
    outer loop
      vertex 27.3 10.1985 0
      vertex 43.5 16.5002 0
      vertex 37.4985 0 0
    endloop
  endfacet
  facet normal 0 0 -1
    outer loop
      vertex 13 16.5002 0
      vertex 27.3 10.1985 0
      vertex 13 16.5 0
    endloop
  endfacet
  facet normal 0 0 -1
    outer loop
      vertex 27.3 10.1985 0
      vertex 13 16.5002 0
      vertex 43.5 16.5002 0
    endloop
  endfacet
  facet normal 0 1 -0
    outer loop
      vertex 13 16.5 0
      vertex -13 16.5 5
      vertex 13 16.5 5
    endloop
  endfacet
  facet normal 0 1 0
    outer loop
      vertex -13 16.5 5
      vertex 13 16.5 0
      vertex -13 16.5 0
    endloop
  endfacet
  facet normal 0 1 -0
    outer loop
      vertex 43.5 18 1.49977
      vertex 13 18 5
      vertex 43.5 18 5
    endloop
  endfacet
  facet normal 0 1 0
    outer loop
      vertex 13 18 5
      vertex 43.5 18 1.49977
      vertex 13 18 1.49977
    endloop
  endfacet
  facet normal 0 1 -0
    outer loop
      vertex -13 18 1.49977
      vertex -43.5 18 5
      vertex -13 18 5
    endloop
  endfacet
  facet normal 0 1 0
    outer loop
      vertex -43.5 18 5
      vertex -13 18 1.49977
      vertex -43.5 18 1.49977
    endloop
  endfacet
  facet normal 0 0.7071 -0.707114
    outer loop
      vertex 43.5 16.5002 0
      vertex 13 18 1.49977
      vertex 43.5 18 1.49977
    endloop
  endfacet
  facet normal 0 0.7071 -0.707114
    outer loop
      vertex 13 18 1.49977
      vertex 43.5 16.5002 0
      vertex 13 16.5002 0
    endloop
  endfacet
  facet normal 0 0.7071 -0.707114
    outer loop
      vertex -13 16.5002 0
      vertex -43.5 18 1.49977
      vertex -13 18 1.49977
    endloop
  endfacet
  facet normal 0 0.7071 -0.707114
    outer loop
      vertex -43.5 18 1.49977
      vertex -13 16.5002 0
      vertex -43.5 16.5002 0
    endloop
  endfacet
  facet normal 1 -0 0
    outer loop
      vertex -13 -18 1.49977
      vertex -13 -16.5 0
      vertex -13 -16.5 5
    endloop
  endfacet
  facet normal 1 0 0
    outer loop
      vertex -13 -18 1.49977
      vertex -13 -16.5 5
      vertex -13 -18 5
    endloop
  endfacet
  facet normal 1 0 0
    outer loop
      vertex -13 -16.5 0
      vertex -13 -18 1.49977
      vertex -13 -16.5002 0
    endloop
  endfacet
  facet normal -1 0 0
    outer loop
      vertex 13 -18 1.49977
      vertex 13 -16.5 0
      vertex 13 -16.5002 0
    endloop
  endfacet
  facet normal -1 0 0
    outer loop
      vertex 13 -16.5 0
      vertex 13 -18 1.49977
      vertex 13 -16.5 5
    endloop
  endfacet
  facet normal -1 -0 0
    outer loop
      vertex 13 -16.5 5
      vertex 13 -18 1.49977
      vertex 13 -18 5
    endloop
  endfacet
  facet normal 0 -1 0
    outer loop
      vertex -13 -16.5 0
      vertex 13 -16.5 5
      vertex -13 -16.5 5
    endloop
  endfacet
  facet normal 0 -1 -0
    outer loop
      vertex 13 -16.5 5
      vertex -13 -16.5 0
      vertex 13 -16.5 0
    endloop
  endfacet
  facet normal 0 -1 0
    outer loop
      vertex 13 -18 1.49977
      vertex 43.5 -18 5
      vertex 13 -18 5
    endloop
  endfacet
  facet normal 0 -1 -0
    outer loop
      vertex 43.5 -18 5
      vertex 13 -18 1.49977
      vertex 43.5 -18 1.49977
    endloop
  endfacet
  facet normal 0 -1 0
    outer loop
      vertex -43.5 -18 1.49977
      vertex -13 -18 5
      vertex -43.5 -18 5
    endloop
  endfacet
  facet normal 0 -1 -0
    outer loop
      vertex -13 -18 5
      vertex -43.5 -18 1.49977
      vertex -13 -18 1.49977
    endloop
  endfacet
  facet normal 0 -0.7071 -0.707114
    outer loop
      vertex 13 -16.5002 0
      vertex 43.5 -18 1.49977
      vertex 13 -18 1.49977
    endloop
  endfacet
  facet normal 0 -0.7071 -0.707114
    outer loop
      vertex 43.5 -18 1.49977
      vertex 13 -16.5002 0
      vertex 43.5 -16.5002 0
    endloop
  endfacet
  facet normal 0 -0.7071 -0.707114
    outer loop
      vertex -43.5 -16.5002 0
      vertex -13 -18 1.49977
      vertex -43.5 -18 1.49977
    endloop
  endfacet
  facet normal 0 -0.7071 -0.707114
    outer loop
      vertex -13 -18 1.49977
      vertex -43.5 -16.5002 0
      vertex -13 -16.5002 0
    endloop
  endfacet
  facet normal 1 -0 0
    outer loop
      vertex 25.5 11.998 5
      vertex 25.5 12 2
      vertex 25.5 12 5
    endloop
  endfacet
  facet normal 1 0 0
    outer loop
      vertex 25.5 12 2
      vertex 25.5 11.998 5
      vertex 25.5 11.998 2
    endloop
  endfacet
  facet normal -1 0 0
    outer loop
      vertex 26.5 11 2
      vertex 26.5 12 5
      vertex 26.5 12 2
    endloop
  endfacet
  facet normal -1 -0 0
    outer loop
      vertex 26.5 12 5
      vertex 26.5 11 2
      vertex 26.5 11 5
    endloop
  endfacet
  facet normal 0 -1 0
    outer loop
      vertex 25.5 12 2
      vertex 26.5 12 5
      vertex 25.5 12 5
    endloop
  endfacet
  facet normal 0 -1 -0
    outer loop
      vertex 26.5 12 5
      vertex 25.5 12 2
      vertex 26.5 12 2
    endloop
  endfacet
  facet normal 0 0 1
    outer loop
      vertex 34 4.5 2
      vertex 33.9985 3.5 2
      vertex 34 3.5 2
    endloop
  endfacet
  facet normal 0 0 1
    outer loop
      vertex 33 4.49846 2
      vertex 34 4.5 2
      vertex 33 4.5 2
    endloop
  endfacet
  facet normal 0 0 1
    outer loop
      vertex 34 4.5 2
      vertex 33 4.49846 2
      vertex 33.9985 3.5 2
    endloop
  endfacet
  facet normal 0 0 1
    outer loop
      vertex 32.5 6 2
      vertex 32.4985 5 2
      vertex 32.5 5 2
    endloop
  endfacet
  facet normal 0 0 1
    outer loop
      vertex 31.5 5.99846 2
      vertex 32.5 6 2
      vertex 31.5 6 2
    endloop
  endfacet
  facet normal 0 0 1
    outer loop
      vertex 32.5 6 2
      vertex 31.5 5.99846 2
      vertex 32.4985 5 2
    endloop
  endfacet
  facet normal 0 0 1
    outer loop
      vertex 31 7.5 2
      vertex 30.9985 6.5 2
      vertex 31 6.5 2
    endloop
  endfacet
  facet normal 0 0 1
    outer loop
      vertex 30 7.49846 2
      vertex 31 7.5 2
      vertex 30 7.5 2
    endloop
  endfacet
  facet normal 0 0 1
    outer loop
      vertex 31 7.5 2
      vertex 30 7.49846 2
      vertex 30.9985 6.5 2
    endloop
  endfacet
  facet normal 0 0 1
    outer loop
      vertex 29.5 9 2
      vertex 29.4985 8 2
      vertex 29.5 8 2
    endloop
  endfacet
  facet normal 0 0 1
    outer loop
      vertex 28.5 8.99846 2
      vertex 29.5 9 2
      vertex 28.5 9 2
    endloop
  endfacet
  facet normal 0 0 1
    outer loop
      vertex 29.5 9 2
      vertex 28.5 8.99846 2
      vertex 29.4985 8 2
    endloop
  endfacet
  facet normal -0 0 1
    outer loop
      vertex -26.5 12 2
      vertex -25.5 11.998 2
      vertex -25.5 12 2
    endloop
  endfacet
  facet normal 0 0 1
    outer loop
      vertex -25.5 11.998 2
      vertex -26.5 12 2
      vertex -26.498 11 2
    endloop
  endfacet
  facet normal 0 0 1
    outer loop
      vertex -26.498 11 2
      vertex -26.5 12 2
      vertex -26.5 11 2
    endloop
  endfacet
  facet normal 0 0 1
    outer loop
      vertex 26.5 12 2
      vertex 26.498 11 2
      vertex 26.5 11 2
    endloop
  endfacet
  facet normal 0 0 1
    outer loop
      vertex 25.5 11.998 2
      vertex 26.5 12 2
      vertex 25.5 12 2
    endloop
  endfacet
  facet normal 0 0 1
    outer loop
      vertex 28 10.5 2
      vertex 27.9985 9.5 2
      vertex 28 9.5 2
    endloop
  endfacet
  facet normal 0 0 1
    outer loop
      vertex 28 10.5 2
      vertex 27.3 10.1985 2
      vertex 27.9985 9.5 2
    endloop
  endfacet
  facet normal -0 0 1
    outer loop
      vertex 27 10.5 2
      vertex 27.3 10.1985 2
      vertex 28 10.5 2
    endloop
  endfacet
  facet normal -0 0 1
    outer loop
      vertex 27 10.498 2
      vertex 27.3 10.1985 2
      vertex 27 10.5 2
    endloop
  endfacet
  facet normal 0 0 1
    outer loop
      vertex 26.5 12 2
      vertex 25.5 11.998 2
      vertex 26.498 11 2
    endloop
  endfacet
  facet normal 0 0 1
    outer loop
      vertex -25.5 11.998 2
      vertex 25.5 11.998 2
      vertex 24.5 12.998 2
    endloop
  endfacet
  facet normal 0 0 1
    outer loop
      vertex -25.5 11.998 2
      vertex 24.5 12.998 2
      vertex -24.5 12.998 2
    endloop
  endfacet
  facet normal 0 0 1
    outer loop
      vertex 25.5 11.998 2
      vertex -25.5 11.998 2
      vertex 26.498 11 2
    endloop
  endfacet
  facet normal 0 0 1
    outer loop
      vertex -26.498 11 2
      vertex 26.498 11 2
      vertex -25.5 11.998 2
    endloop
  endfacet
  facet normal 0 0 1
    outer loop
      vertex 26.498 11 2
      vertex -26.498 11 2
      vertex 27 10.498 2
    endloop
  endfacet
  facet normal 0 0 1
    outer loop
      vertex -27 10.498 2
      vertex 27 10.498 2
      vertex -26.498 11 2
    endloop
  endfacet
  facet normal 0 0 1
    outer loop
      vertex 27 10.498 2
      vertex -27 10.498 2
      vertex 27.3 10.1985 2
    endloop
  endfacet
  facet normal 0 0 1
    outer loop
      vertex 27.3 10.1985 2
      vertex -27 10.498 2
      vertex -27.3 10.1985 2
    endloop
  endfacet
  facet normal 0 0 1
    outer loop
      vertex -27 10.5 2
      vertex -27.3 10.1985 2
      vertex -27 10.498 2
    endloop
  endfacet
  facet normal -0 0 1
    outer loop
      vertex -28 10.5 2
      vertex -27.3 10.1985 2
      vertex -27 10.5 2
    endloop
  endfacet
  facet normal 0 0 1
    outer loop
      vertex -27.3 10.1985 2
      vertex -28 10.5 2
      vertex -27.9985 9.5 2
    endloop
  endfacet
  facet normal 0 0 1
    outer loop
      vertex -27.9985 9.5 2
      vertex -28 10.5 2
      vertex -28 9.5 2
    endloop
  endfacet
  facet normal -0 0 1
    outer loop
      vertex 33.9985 -3.5 2
      vertex 34 -4.5 2
      vertex 34 -3.5 2
    endloop
  endfacet
  facet normal -0 0 1
    outer loop
      vertex 33 -4.49846 2
      vertex 34 -4.5 2
      vertex 33.9985 -3.5 2
    endloop
  endfacet
  facet normal 0 0 1
    outer loop
      vertex 34 -4.5 2
      vertex 33 -4.49846 2
      vertex 33 -4.5 2
    endloop
  endfacet
  facet normal -0 0 1
    outer loop
      vertex 32.4985 -5 2
      vertex 32.5 -6 2
      vertex 32.5 -5 2
    endloop
  endfacet
  facet normal -0 0 1
    outer loop
      vertex 31.5 -5.99846 2
      vertex 32.5 -6 2
      vertex 32.4985 -5 2
    endloop
  endfacet
  facet normal 0 0 1
    outer loop
      vertex 32.5 -6 2
      vertex 31.5 -5.99846 2
      vertex 31.5 -6 2
    endloop
  endfacet
  facet normal -0 0 1
    outer loop
      vertex 30.9985 -6.5 2
      vertex 31 -7.5 2
      vertex 31 -6.5 2
    endloop
  endfacet
  facet normal -0 0 1
    outer loop
      vertex 30 -7.49846 2
      vertex 31 -7.5 2
      vertex 30.9985 -6.5 2
    endloop
  endfacet
  facet normal 0 0 1
    outer loop
      vertex 31 -7.5 2
      vertex 30 -7.49846 2
      vertex 30 -7.5 2
    endloop
  endfacet
  facet normal -0 0 1
    outer loop
      vertex 29.4985 -8 2
      vertex 29.5 -9 2
      vertex 29.5 -8 2
    endloop
  endfacet
  facet normal -0 0 1
    outer loop
      vertex 28.5 -8.99846 2
      vertex 29.5 -9 2
      vertex 29.4985 -8 2
    endloop
  endfacet
  facet normal 0 0 1
    outer loop
      vertex 29.5 -9 2
      vertex 28.5 -8.99846 2
      vertex 28.5 -9 2
    endloop
  endfacet
  facet normal 0 0 1
    outer loop
      vertex -25.5 -11.998 2
      vertex 25.5 -11.998 2
      vertex 26.498 -11 2
    endloop
  endfacet
  facet normal 0 0 1
    outer loop
      vertex 25.5 -11.998 2
      vertex -25.5 -11.998 2
      vertex 24.5 -12.998 2
    endloop
  endfacet
  facet normal 0 0 1
    outer loop
      vertex -26.498 -11 2
      vertex 26.498 -11 2
      vertex 27 -10.498 2
    endloop
  endfacet
  facet normal 0 0 1
    outer loop
      vertex -27 -10.498 2
      vertex 27 -10.498 2
      vertex 27.3 -10.1985 2
    endloop
  endfacet
  facet normal 0 0 1
    outer loop
      vertex 24.5 -12.998 2
      vertex -25.5 -11.998 2
      vertex -24.5 -12.998 2
    endloop
  endfacet
  facet normal 0 0 1
    outer loop
      vertex -26.5 -12 2
      vertex -25.5 -11.998 2
      vertex -26.498 -11 2
    endloop
  endfacet
  facet normal 0 0 1
    outer loop
      vertex 26.498 -11 2
      vertex -26.498 -11 2
      vertex -25.5 -11.998 2
    endloop
  endfacet
  facet normal 0 0 1
    outer loop
      vertex 27 -10.498 2
      vertex -27 -10.498 2
      vertex -26.498 -11 2
    endloop
  endfacet
  facet normal -0 0 1
    outer loop
      vertex -27.3 -10.1985 2
      vertex -27 -10.498 2
      vertex 27.3 -10.1985 2
    endloop
  endfacet
  facet normal 0 0 1
    outer loop
      vertex -27.3 -10.1985 2
      vertex -27 -10.5 2
      vertex -27 -10.498 2
    endloop
  endfacet
  facet normal 0 0 1
    outer loop
      vertex -28 -10.5 2
      vertex -27.3 -10.1985 2
      vertex -27.9985 -9.5 2
    endloop
  endfacet
  facet normal 0 0 1
    outer loop
      vertex -28 -10.5 2
      vertex -27.9985 -9.5 2
      vertex -28 -9.5 2
    endloop
  endfacet
  facet normal 0 0 1
    outer loop
      vertex -27.3 -10.1985 2
      vertex -28 -10.5 2
      vertex -27 -10.5 2
    endloop
  endfacet
  facet normal -0 0 1
    outer loop
      vertex 27.9985 -9.5 2
      vertex 28 -10.5 2
      vertex 28 -9.5 2
    endloop
  endfacet
  facet normal -0 0 1
    outer loop
      vertex 27.3 -10.1985 2
      vertex 28 -10.5 2
      vertex 27.9985 -9.5 2
    endloop
  endfacet
  facet normal 0 0 1
    outer loop
      vertex 27 -10.5 2
      vertex 27.3 -10.1985 2
      vertex 27 -10.498 2
    endloop
  endfacet
  facet normal 0 0 1
    outer loop
      vertex 27.3 -10.1985 2
      vertex 27 -10.5 2
      vertex 28 -10.5 2
    endloop
  endfacet
  facet normal -0 0 1
    outer loop
      vertex 26.498 -11 2
      vertex 26.5 -12 2
      vertex 26.5 -11 2
    endloop
  endfacet
  facet normal -0 0 1
    outer loop
      vertex 25.5 -11.998 2
      vertex 26.5 -12 2
      vertex 26.498 -11 2
    endloop
  endfacet
  facet normal 0 0 1
    outer loop
      vertex 26.5 -12 2
      vertex 25.5 -11.998 2
      vertex 25.5 -12 2
    endloop
  endfacet
  facet normal 0 0 1
    outer loop
      vertex -26.5 -12 2
      vertex -26.498 -11 2
      vertex -26.5 -11 2
    endloop
  endfacet
  facet normal 0 0 1
    outer loop
      vertex -25.5 -11.998 2
      vertex -26.5 -12 2
      vertex -25.5 -12 2
    endloop
  endfacet
  facet normal -0 0 1
    outer loop
      vertex -34 4.5 2
      vertex -33 4.49846 2
      vertex -33 4.5 2
    endloop
  endfacet
  facet normal 0 0 1
    outer loop
      vertex -33 4.49846 2
      vertex -34 4.5 2
      vertex -33.9985 3.5 2
    endloop
  endfacet
  facet normal 0 0 1
    outer loop
      vertex -33.9985 3.5 2
      vertex -34 4.5 2
      vertex -34 3.5 2
    endloop
  endfacet
  facet normal -0 0 1
    outer loop
      vertex -32.5 6 2
      vertex -31.5 5.99846 2
      vertex -31.5 6 2
    endloop
  endfacet
  facet normal 0 0 1
    outer loop
      vertex -31.5 5.99846 2
      vertex -32.5 6 2
      vertex -32.4985 5 2
    endloop
  endfacet
  facet normal 0 0 1
    outer loop
      vertex -32.4985 5 2
      vertex -32.5 6 2
      vertex -32.5 5 2
    endloop
  endfacet
  facet normal -0 0 1
    outer loop
      vertex -31 7.5 2
      vertex -30 7.49846 2
      vertex -30 7.5 2
    endloop
  endfacet
  facet normal 0 0 1
    outer loop
      vertex -30 7.49846 2
      vertex -31 7.5 2
      vertex -30.9985 6.5 2
    endloop
  endfacet
  facet normal 0 0 1
    outer loop
      vertex -30.9985 6.5 2
      vertex -31 7.5 2
      vertex -31 6.5 2
    endloop
  endfacet
  facet normal -0 0 1
    outer loop
      vertex -29.5 9 2
      vertex -28.5 8.99846 2
      vertex -28.5 9 2
    endloop
  endfacet
  facet normal 0 0 1
    outer loop
      vertex -28.5 8.99846 2
      vertex -29.5 9 2
      vertex -29.4985 8 2
    endloop
  endfacet
  facet normal 0 0 1
    outer loop
      vertex -29.4985 8 2
      vertex -29.5 9 2
      vertex -29.5 8 2
    endloop
  endfacet
  facet normal 0 0 1
    outer loop
      vertex -34 -4.5 2
      vertex -33 -4.49846 2
      vertex -33.9985 -3.5 2
    endloop
  endfacet
  facet normal 0 0 1
    outer loop
      vertex -34 -4.5 2
      vertex -33.9985 -3.5 2
      vertex -34 -3.5 2
    endloop
  endfacet
  facet normal 0 0 1
    outer loop
      vertex -33 -4.49846 2
      vertex -34 -4.5 2
      vertex -33 -4.5 2
    endloop
  endfacet
  facet normal 0 0 1
    outer loop
      vertex -32.5 -6 2
      vertex -31.5 -5.99846 2
      vertex -32.4985 -5 2
    endloop
  endfacet
  facet normal 0 0 1
    outer loop
      vertex -32.5 -6 2
      vertex -32.4985 -5 2
      vertex -32.5 -5 2
    endloop
  endfacet
  facet normal 0 0 1
    outer loop
      vertex -31.5 -5.99846 2
      vertex -32.5 -6 2
      vertex -31.5 -6 2
    endloop
  endfacet
  facet normal 0 0 1
    outer loop
      vertex -31 -7.5 2
      vertex -30 -7.49846 2
      vertex -30.9985 -6.5 2
    endloop
  endfacet
  facet normal 0 0 1
    outer loop
      vertex -31 -7.5 2
      vertex -30.9985 -6.5 2
      vertex -31 -6.5 2
    endloop
  endfacet
  facet normal 0 0 1
    outer loop
      vertex -30 -7.49846 2
      vertex -31 -7.5 2
      vertex -30 -7.5 2
    endloop
  endfacet
  facet normal 0 0 1
    outer loop
      vertex -29.5 -9 2
      vertex -28.5 -8.99846 2
      vertex -29.4985 -8 2
    endloop
  endfacet
  facet normal 0 0 1
    outer loop
      vertex -29.5 -9 2
      vertex -29.4985 -8 2
      vertex -29.5 -8 2
    endloop
  endfacet
  facet normal 0 0 1
    outer loop
      vertex -28.5 -8.99846 2
      vertex -29.5 -9 2
      vertex -28.5 -9 2
    endloop
  endfacet
  facet normal 0 0 1
    outer loop
      vertex -34.4985 3 2
      vertex -43.5 3 2
      vertex -37.4985 0 2
    endloop
  endfacet
  facet normal 0 0 1
    outer loop
      vertex -43.5 -3 2
      vertex -37.4985 0 2
      vertex -43.5 3 2
    endloop
  endfacet
  facet normal 0 0 1
    outer loop
      vertex -37.4985 0 2
      vertex -43.5 -3 2
      vertex -34.4985 -3 2
    endloop
  endfacet
  facet normal 0 0 1
    outer loop
      vertex 43.5 3 2
      vertex 37.4985 0 2
      vertex 43.5 -3 2
    endloop
  endfacet
  facet normal 0 -0 1
    outer loop
      vertex 37.4985 0 2
      vertex 43.5 3 2
      vertex 34.4985 3 2
    endloop
  endfacet
  facet normal 0 0 1
    outer loop
      vertex 43.5 -3 2
      vertex 37.4985 0 2
      vertex 34.4985 -3 2
    endloop
  endfacet
  facet normal 0 1 -0
    outer loop
      vertex 26.5 11 2
      vertex 26.498 11 5
      vertex 26.5 11 5
    endloop
  endfacet
  facet normal 0 1 0
    outer loop
      vertex 26.498 11 5
      vertex 26.5 11 2
      vertex 26.498 11 2
    endloop
  endfacet
  facet normal 1 -0 0
    outer loop
      vertex 27 10.498 5
      vertex 27 10.5 2
      vertex 27 10.5 5
    endloop
  endfacet
  facet normal 1 0 0
    outer loop
      vertex 27 10.5 2
      vertex 27 10.498 5
      vertex 27 10.498 2
    endloop
  endfacet
  facet normal -1 0 0
    outer loop
      vertex 28 9.5 2
      vertex 28 10.5 5
      vertex 28 10.5 2
    endloop
  endfacet
  facet normal -1 -0 0
    outer loop
      vertex 28 10.5 5
      vertex 28 9.5 2
      vertex 28 9.5 5
    endloop
  endfacet
  facet normal 0 -1 0
    outer loop
      vertex 27 10.5 2
      vertex 28 10.5 5
      vertex 27 10.5 5
    endloop
  endfacet
  facet normal 0 -1 -0
    outer loop
      vertex 28 10.5 5
      vertex 27 10.5 2
      vertex 28 10.5 2
    endloop
  endfacet
  facet normal 0 1 -0
    outer loop
      vertex 28 9.5 2
      vertex 27.9985 9.5 5
      vertex 28 9.5 5
    endloop
  endfacet
  facet normal 0 1 0
    outer loop
      vertex 27.9985 9.5 5
      vertex 28 9.5 2
      vertex 27.9985 9.5 2
    endloop
  endfacet
  facet normal 1 -0 0
    outer loop
      vertex 28.5 8.99846 5
      vertex 28.5 9 2
      vertex 28.5 9 5
    endloop
  endfacet
  facet normal 1 0 0
    outer loop
      vertex 28.5 9 2
      vertex 28.5 8.99846 5
      vertex 28.5 8.99846 2
    endloop
  endfacet
  facet normal -1 0 0
    outer loop
      vertex 29.5 8 2
      vertex 29.5 9 5
      vertex 29.5 9 2
    endloop
  endfacet
  facet normal -1 -0 0
    outer loop
      vertex 29.5 9 5
      vertex 29.5 8 2
      vertex 29.5 8 5
    endloop
  endfacet
  facet normal 0 1 -0
    outer loop
      vertex 29.5 8 2
      vertex 29.4985 8 5
      vertex 29.5 8 5
    endloop
  endfacet
  facet normal 0 1 0
    outer loop
      vertex 29.4985 8 5
      vertex 29.5 8 2
      vertex 29.4985 8 2
    endloop
  endfacet
  facet normal 0 -1 0
    outer loop
      vertex 28.5 9 2
      vertex 29.5 9 5
      vertex 28.5 9 5
    endloop
  endfacet
  facet normal 0 -1 -0
    outer loop
      vertex 29.5 9 5
      vertex 28.5 9 2
      vertex 29.5 9 2
    endloop
  endfacet
  facet normal 1 -0 0
    outer loop
      vertex 30 7.49846 5
      vertex 30 7.5 2
      vertex 30 7.5 5
    endloop
  endfacet
  facet normal 1 0 0
    outer loop
      vertex 30 7.5 2
      vertex 30 7.49846 5
      vertex 30 7.49846 2
    endloop
  endfacet
  facet normal -1 0 0
    outer loop
      vertex 31 6.5 2
      vertex 31 7.5 5
      vertex 31 7.5 2
    endloop
  endfacet
  facet normal -1 -0 0
    outer loop
      vertex 31 7.5 5
      vertex 31 6.5 2
      vertex 31 6.5 5
    endloop
  endfacet
  facet normal 0 -1 0
    outer loop
      vertex 30 7.5 2
      vertex 31 7.5 5
      vertex 30 7.5 5
    endloop
  endfacet
  facet normal 0 -1 -0
    outer loop
      vertex 31 7.5 5
      vertex 30 7.5 2
      vertex 31 7.5 2
    endloop
  endfacet
  facet normal 0 1 -0
    outer loop
      vertex 31 6.5 2
      vertex 30.9985 6.5 5
      vertex 31 6.5 5
    endloop
  endfacet
  facet normal 0 1 0
    outer loop
      vertex 30.9985 6.5 5
      vertex 31 6.5 2
      vertex 30.9985 6.5 2
    endloop
  endfacet
  facet normal 1 -0 0
    outer loop
      vertex 31.5 5.99846 5
      vertex 31.5 6 2
      vertex 31.5 6 5
    endloop
  endfacet
  facet normal 1 0 0
    outer loop
      vertex 31.5 6 2
      vertex 31.5 5.99846 5
      vertex 31.5 5.99846 2
    endloop
  endfacet
  facet normal -1 0 0
    outer loop
      vertex 32.5 5 2
      vertex 32.5 6 5
      vertex 32.5 6 2
    endloop
  endfacet
  facet normal -1 -0 0
    outer loop
      vertex 32.5 6 5
      vertex 32.5 5 2
      vertex 32.5 5 5
    endloop
  endfacet
  facet normal 0 -1 0
    outer loop
      vertex 31.5 6 2
      vertex 32.5 6 5
      vertex 31.5 6 5
    endloop
  endfacet
  facet normal 0 -1 -0
    outer loop
      vertex 32.5 6 5
      vertex 31.5 6 2
      vertex 32.5 6 2
    endloop
  endfacet
  facet normal 0 1 -0
    outer loop
      vertex 32.5 5 2
      vertex 32.4985 5 5
      vertex 32.5 5 5
    endloop
  endfacet
  facet normal 0 1 0
    outer loop
      vertex 32.4985 5 5
      vertex 32.5 5 2
      vertex 32.4985 5 2
    endloop
  endfacet
  facet normal 1 -0 0
    outer loop
      vertex 33 4.49846 5
      vertex 33 4.5 2
      vertex 33 4.5 5
    endloop
  endfacet
  facet normal 1 0 0
    outer loop
      vertex 33 4.5 2
      vertex 33 4.49846 5
      vertex 33 4.49846 2
    endloop
  endfacet
  facet normal -1 0 0
    outer loop
      vertex 34 3.5 2
      vertex 34 4.5 5
      vertex 34 4.5 2
    endloop
  endfacet
  facet normal -1 -0 0
    outer loop
      vertex 34 4.5 5
      vertex 34 3.5 2
      vertex 34 3.5 5
    endloop
  endfacet
  facet normal 0 1 -0
    outer loop
      vertex 34 3.5 2
      vertex 33.9985 3.5 5
      vertex 34 3.5 5
    endloop
  endfacet
  facet normal 0 1 0
    outer loop
      vertex 33.9985 3.5 5
      vertex 34 3.5 2
      vertex 33.9985 3.5 2
    endloop
  endfacet
  facet normal 0 -1 0
    outer loop
      vertex 33 4.5 2
      vertex 34 4.5 5
      vertex 33 4.5 5
    endloop
  endfacet
  facet normal 0 -1 -0
    outer loop
      vertex 34 4.5 5
      vertex 33 4.5 2
      vertex 34 4.5 2
    endloop
  endfacet
  facet normal 1 -0 0
    outer loop
      vertex 25.5 -12 5
      vertex 25.5 -11.998 2
      vertex 25.5 -11.998 5
    endloop
  endfacet
  facet normal 1 0 0
    outer loop
      vertex 25.5 -11.998 2
      vertex 25.5 -12 5
      vertex 25.5 -12 2
    endloop
  endfacet
  facet normal -1 0 0
    outer loop
      vertex 26.5 -12 2
      vertex 26.5 -11 5
      vertex 26.5 -11 2
    endloop
  endfacet
  facet normal -1 -0 0
    outer loop
      vertex 26.5 -11 5
      vertex 26.5 -12 2
      vertex 26.5 -12 5
    endloop
  endfacet
  facet normal 0 1 -0
    outer loop
      vertex 26.5 -12 2
      vertex 25.5 -12 5
      vertex 26.5 -12 5
    endloop
  endfacet
  facet normal 0 1 0
    outer loop
      vertex 25.5 -12 5
      vertex 26.5 -12 2
      vertex 25.5 -12 2
    endloop
  endfacet
  facet normal 0 -1 0
    outer loop
      vertex 26.498 -11 2
      vertex 26.5 -11 5
      vertex 26.498 -11 5
    endloop
  endfacet
  facet normal 0 -1 -0
    outer loop
      vertex 26.5 -11 5
      vertex 26.498 -11 2
      vertex 26.5 -11 2
    endloop
  endfacet
  facet normal 1 -0 0
    outer loop
      vertex 27 -10.5 5
      vertex 27 -10.498 2
      vertex 27 -10.498 5
    endloop
  endfacet
  facet normal 1 0 0
    outer loop
      vertex 27 -10.498 2
      vertex 27 -10.5 5
      vertex 27 -10.5 2
    endloop
  endfacet
  facet normal -1 0 0
    outer loop
      vertex 28 -10.5 2
      vertex 28 -9.5 5
      vertex 28 -9.5 2
    endloop
  endfacet
  facet normal -1 -0 0
    outer loop
      vertex 28 -9.5 5
      vertex 28 -10.5 2
      vertex 28 -10.5 5
    endloop
  endfacet
  facet normal 0 1 -0
    outer loop
      vertex 28 -10.5 2
      vertex 27 -10.5 5
      vertex 28 -10.5 5
    endloop
  endfacet
  facet normal 0 1 0
    outer loop
      vertex 27 -10.5 5
      vertex 28 -10.5 2
      vertex 27 -10.5 2
    endloop
  endfacet
  facet normal 0 -1 0
    outer loop
      vertex 27.9985 -9.5 2
      vertex 28 -9.5 5
      vertex 27.9985 -9.5 5
    endloop
  endfacet
  facet normal 0 -1 -0
    outer loop
      vertex 28 -9.5 5
      vertex 27.9985 -9.5 2
      vertex 28 -9.5 2
    endloop
  endfacet
  facet normal 1 -0 0
    outer loop
      vertex 28.5 -9 5
      vertex 28.5 -8.99846 2
      vertex 28.5 -8.99846 5
    endloop
  endfacet
  facet normal 1 0 0
    outer loop
      vertex 28.5 -8.99846 2
      vertex 28.5 -9 5
      vertex 28.5 -9 2
    endloop
  endfacet
  facet normal -1 0 0
    outer loop
      vertex 29.5 -9 2
      vertex 29.5 -8 5
      vertex 29.5 -8 2
    endloop
  endfacet
  facet normal -1 -0 0
    outer loop
      vertex 29.5 -8 5
      vertex 29.5 -9 2
      vertex 29.5 -9 5
    endloop
  endfacet
  facet normal 0 -1 0
    outer loop
      vertex 29.4985 -8 2
      vertex 29.5 -8 5
      vertex 29.4985 -8 5
    endloop
  endfacet
  facet normal 0 -1 -0
    outer loop
      vertex 29.5 -8 5
      vertex 29.4985 -8 2
      vertex 29.5 -8 2
    endloop
  endfacet
  facet normal 0 1 -0
    outer loop
      vertex 29.5 -9 2
      vertex 28.5 -9 5
      vertex 29.5 -9 5
    endloop
  endfacet
  facet normal 0 1 0
    outer loop
      vertex 28.5 -9 5
      vertex 29.5 -9 2
      vertex 28.5 -9 2
    endloop
  endfacet
  facet normal 1 -0 0
    outer loop
      vertex 30 -7.5 5
      vertex 30 -7.49846 2
      vertex 30 -7.49846 5
    endloop
  endfacet
  facet normal 1 0 0
    outer loop
      vertex 30 -7.49846 2
      vertex 30 -7.5 5
      vertex 30 -7.5 2
    endloop
  endfacet
  facet normal -1 0 0
    outer loop
      vertex 31 -7.5 2
      vertex 31 -6.5 5
      vertex 31 -6.5 2
    endloop
  endfacet
  facet normal -1 -0 0
    outer loop
      vertex 31 -6.5 5
      vertex 31 -7.5 2
      vertex 31 -7.5 5
    endloop
  endfacet
  facet normal 0 1 -0
    outer loop
      vertex 31 -7.5 2
      vertex 30 -7.5 5
      vertex 31 -7.5 5
    endloop
  endfacet
  facet normal 0 1 0
    outer loop
      vertex 30 -7.5 5
      vertex 31 -7.5 2
      vertex 30 -7.5 2
    endloop
  endfacet
  facet normal 0 -1 0
    outer loop
      vertex 30.9985 -6.5 2
      vertex 31 -6.5 5
      vertex 30.9985 -6.5 5
    endloop
  endfacet
  facet normal 0 -1 -0
    outer loop
      vertex 31 -6.5 5
      vertex 30.9985 -6.5 2
      vertex 31 -6.5 2
    endloop
  endfacet
  facet normal 1 -0 0
    outer loop
      vertex 31.5 -6 5
      vertex 31.5 -5.99846 2
      vertex 31.5 -5.99846 5
    endloop
  endfacet
  facet normal 1 0 0
    outer loop
      vertex 31.5 -5.99846 2
      vertex 31.5 -6 5
      vertex 31.5 -6 2
    endloop
  endfacet
  facet normal -1 0 0
    outer loop
      vertex 32.5 -6 2
      vertex 32.5 -5 5
      vertex 32.5 -5 2
    endloop
  endfacet
  facet normal -1 -0 0
    outer loop
      vertex 32.5 -5 5
      vertex 32.5 -6 2
      vertex 32.5 -6 5
    endloop
  endfacet
  facet normal 0 1 -0
    outer loop
      vertex 32.5 -6 2
      vertex 31.5 -6 5
      vertex 32.5 -6 5
    endloop
  endfacet
  facet normal 0 1 0
    outer loop
      vertex 31.5 -6 5
      vertex 32.5 -6 2
      vertex 31.5 -6 2
    endloop
  endfacet
  facet normal 0 -1 0
    outer loop
      vertex 32.4985 -5 2
      vertex 32.5 -5 5
      vertex 32.4985 -5 5
    endloop
  endfacet
  facet normal 0 -1 -0
    outer loop
      vertex 32.5 -5 5
      vertex 32.4985 -5 2
      vertex 32.5 -5 2
    endloop
  endfacet
  facet normal 1 -0 0
    outer loop
      vertex 33 -4.5 5
      vertex 33 -4.49846 2
      vertex 33 -4.49846 5
    endloop
  endfacet
  facet normal 1 0 0
    outer loop
      vertex 33 -4.49846 2
      vertex 33 -4.5 5
      vertex 33 -4.5 2
    endloop
  endfacet
  facet normal -1 0 0
    outer loop
      vertex 34 -4.5 2
      vertex 34 -3.5 5
      vertex 34 -3.5 2
    endloop
  endfacet
  facet normal -1 -0 0
    outer loop
      vertex 34 -3.5 5
      vertex 34 -4.5 2
      vertex 34 -4.5 5
    endloop
  endfacet
  facet normal 0 -1 0
    outer loop
      vertex 33.9985 -3.5 2
      vertex 34 -3.5 5
      vertex 33.9985 -3.5 5
    endloop
  endfacet
  facet normal 0 -1 -0
    outer loop
      vertex 34 -3.5 5
      vertex 33.9985 -3.5 2
      vertex 34 -3.5 2
    endloop
  endfacet
  facet normal 0 1 -0
    outer loop
      vertex 34 -4.5 2
      vertex 33 -4.5 5
      vertex 34 -4.5 5
    endloop
  endfacet
  facet normal 0 1 0
    outer loop
      vertex 33 -4.5 5
      vertex 34 -4.5 2
      vertex 33 -4.5 2
    endloop
  endfacet
  facet normal -1 0 0
    outer loop
      vertex -25.5 11.998 2
      vertex -25.5 12 5
      vertex -25.5 12 2
    endloop
  endfacet
  facet normal -1 -0 0
    outer loop
      vertex -25.5 12 5
      vertex -25.5 11.998 2
      vertex -25.5 11.998 5
    endloop
  endfacet
  facet normal 1 -0 0
    outer loop
      vertex -26.5 11 5
      vertex -26.5 12 2
      vertex -26.5 12 5
    endloop
  endfacet
  facet normal 1 0 0
    outer loop
      vertex -26.5 12 2
      vertex -26.5 11 5
      vertex -26.5 11 2
    endloop
  endfacet
  facet normal 0 -1 0
    outer loop
      vertex -26.5 12 2
      vertex -25.5 12 5
      vertex -26.5 12 5
    endloop
  endfacet
  facet normal 0 -1 -0
    outer loop
      vertex -25.5 12 5
      vertex -26.5 12 2
      vertex -25.5 12 2
    endloop
  endfacet
  facet normal 0 1 -0
    outer loop
      vertex -26.498 11 2
      vertex -26.5 11 5
      vertex -26.498 11 5
    endloop
  endfacet
  facet normal 0 1 0
    outer loop
      vertex -26.5 11 5
      vertex -26.498 11 2
      vertex -26.5 11 2
    endloop
  endfacet
  facet normal -1 0 0
    outer loop
      vertex -27 10.498 2
      vertex -27 10.5 5
      vertex -27 10.5 2
    endloop
  endfacet
  facet normal -1 -0 0
    outer loop
      vertex -27 10.5 5
      vertex -27 10.498 2
      vertex -27 10.498 5
    endloop
  endfacet
  facet normal 1 -0 0
    outer loop
      vertex -28 9.5 5
      vertex -28 10.5 2
      vertex -28 10.5 5
    endloop
  endfacet
  facet normal 1 0 0
    outer loop
      vertex -28 10.5 2
      vertex -28 9.5 5
      vertex -28 9.5 2
    endloop
  endfacet
  facet normal 0 -1 0
    outer loop
      vertex -28 10.5 2
      vertex -27 10.5 5
      vertex -28 10.5 5
    endloop
  endfacet
  facet normal 0 -1 -0
    outer loop
      vertex -27 10.5 5
      vertex -28 10.5 2
      vertex -27 10.5 2
    endloop
  endfacet
  facet normal 0 1 -0
    outer loop
      vertex -27.9985 9.5 2
      vertex -28 9.5 5
      vertex -27.9985 9.5 5
    endloop
  endfacet
  facet normal 0 1 0
    outer loop
      vertex -28 9.5 5
      vertex -27.9985 9.5 2
      vertex -28 9.5 2
    endloop
  endfacet
  facet normal -1 0 0
    outer loop
      vertex -28.5 8.99846 2
      vertex -28.5 9 5
      vertex -28.5 9 2
    endloop
  endfacet
  facet normal -1 -0 0
    outer loop
      vertex -28.5 9 5
      vertex -28.5 8.99846 2
      vertex -28.5 8.99846 5
    endloop
  endfacet
  facet normal 1 -0 0
    outer loop
      vertex -29.5 8 5
      vertex -29.5 9 2
      vertex -29.5 9 5
    endloop
  endfacet
  facet normal 1 0 0
    outer loop
      vertex -29.5 9 2
      vertex -29.5 8 5
      vertex -29.5 8 2
    endloop
  endfacet
  facet normal 0 1 -0
    outer loop
      vertex -29.4985 8 2
      vertex -29.5 8 5
      vertex -29.4985 8 5
    endloop
  endfacet
  facet normal 0 1 0
    outer loop
      vertex -29.5 8 5
      vertex -29.4985 8 2
      vertex -29.5 8 2
    endloop
  endfacet
  facet normal 0 -1 0
    outer loop
      vertex -29.5 9 2
      vertex -28.5 9 5
      vertex -29.5 9 5
    endloop
  endfacet
  facet normal 0 -1 -0
    outer loop
      vertex -28.5 9 5
      vertex -29.5 9 2
      vertex -28.5 9 2
    endloop
  endfacet
  facet normal -1 0 0
    outer loop
      vertex -30 7.49846 2
      vertex -30 7.5 5
      vertex -30 7.5 2
    endloop
  endfacet
  facet normal -1 -0 0
    outer loop
      vertex -30 7.5 5
      vertex -30 7.49846 2
      vertex -30 7.49846 5
    endloop
  endfacet
  facet normal 1 -0 0
    outer loop
      vertex -31 6.5 5
      vertex -31 7.5 2
      vertex -31 7.5 5
    endloop
  endfacet
  facet normal 1 0 0
    outer loop
      vertex -31 7.5 2
      vertex -31 6.5 5
      vertex -31 6.5 2
    endloop
  endfacet
  facet normal 0 -1 0
    outer loop
      vertex -31 7.5 2
      vertex -30 7.5 5
      vertex -31 7.5 5
    endloop
  endfacet
  facet normal 0 -1 -0
    outer loop
      vertex -30 7.5 5
      vertex -31 7.5 2
      vertex -30 7.5 2
    endloop
  endfacet
  facet normal 0 1 -0
    outer loop
      vertex -30.9985 6.5 2
      vertex -31 6.5 5
      vertex -30.9985 6.5 5
    endloop
  endfacet
  facet normal 0 1 0
    outer loop
      vertex -31 6.5 5
      vertex -30.9985 6.5 2
      vertex -31 6.5 2
    endloop
  endfacet
  facet normal -1 0 0
    outer loop
      vertex -31.5 5.99846 2
      vertex -31.5 6 5
      vertex -31.5 6 2
    endloop
  endfacet
  facet normal -1 -0 0
    outer loop
      vertex -31.5 6 5
      vertex -31.5 5.99846 2
      vertex -31.5 5.99846 5
    endloop
  endfacet
  facet normal 1 -0 0
    outer loop
      vertex -32.5 5 5
      vertex -32.5 6 2
      vertex -32.5 6 5
    endloop
  endfacet
  facet normal 1 0 0
    outer loop
      vertex -32.5 6 2
      vertex -32.5 5 5
      vertex -32.5 5 2
    endloop
  endfacet
  facet normal 0 -1 0
    outer loop
      vertex -32.5 6 2
      vertex -31.5 6 5
      vertex -32.5 6 5
    endloop
  endfacet
  facet normal 0 -1 -0
    outer loop
      vertex -31.5 6 5
      vertex -32.5 6 2
      vertex -31.5 6 2
    endloop
  endfacet
  facet normal 0 1 -0
    outer loop
      vertex -32.4985 5 2
      vertex -32.5 5 5
      vertex -32.4985 5 5
    endloop
  endfacet
  facet normal 0 1 0
    outer loop
      vertex -32.5 5 5
      vertex -32.4985 5 2
      vertex -32.5 5 2
    endloop
  endfacet
  facet normal -1 0 0
    outer loop
      vertex -33 4.49846 2
      vertex -33 4.5 5
      vertex -33 4.5 2
    endloop
  endfacet
  facet normal -1 -0 0
    outer loop
      vertex -33 4.5 5
      vertex -33 4.49846 2
      vertex -33 4.49846 5
    endloop
  endfacet
  facet normal 1 -0 0
    outer loop
      vertex -34 3.5 5
      vertex -34 4.5 2
      vertex -34 4.5 5
    endloop
  endfacet
  facet normal 1 0 0
    outer loop
      vertex -34 4.5 2
      vertex -34 3.5 5
      vertex -34 3.5 2
    endloop
  endfacet
  facet normal 0 1 -0
    outer loop
      vertex -33.9985 3.5 2
      vertex -34 3.5 5
      vertex -33.9985 3.5 5
    endloop
  endfacet
  facet normal 0 1 0
    outer loop
      vertex -34 3.5 5
      vertex -33.9985 3.5 2
      vertex -34 3.5 2
    endloop
  endfacet
  facet normal 0 -1 0
    outer loop
      vertex -34 4.5 2
      vertex -33 4.5 5
      vertex -34 4.5 5
    endloop
  endfacet
  facet normal 0 -1 -0
    outer loop
      vertex -33 4.5 5
      vertex -34 4.5 2
      vertex -33 4.5 2
    endloop
  endfacet
  facet normal -1 0 0
    outer loop
      vertex -25.5 -12 2
      vertex -25.5 -11.998 5
      vertex -25.5 -11.998 2
    endloop
  endfacet
  facet normal -1 -0 0
    outer loop
      vertex -25.5 -11.998 5
      vertex -25.5 -12 2
      vertex -25.5 -12 5
    endloop
  endfacet
  facet normal 1 -0 0
    outer loop
      vertex -26.5 -12 5
      vertex -26.5 -11 2
      vertex -26.5 -11 5
    endloop
  endfacet
  facet normal 1 0 0
    outer loop
      vertex -26.5 -11 2
      vertex -26.5 -12 5
      vertex -26.5 -12 2
    endloop
  endfacet
  facet normal 0 1 -0
    outer loop
      vertex -25.5 -12 2
      vertex -26.5 -12 5
      vertex -25.5 -12 5
    endloop
  endfacet
  facet normal 0 1 0
    outer loop
      vertex -26.5 -12 5
      vertex -25.5 -12 2
      vertex -26.5 -12 2
    endloop
  endfacet
  facet normal 0 -1 0
    outer loop
      vertex -26.5 -11 2
      vertex -26.498 -11 5
      vertex -26.5 -11 5
    endloop
  endfacet
  facet normal 0 -1 -0
    outer loop
      vertex -26.498 -11 5
      vertex -26.5 -11 2
      vertex -26.498 -11 2
    endloop
  endfacet
  facet normal -1 0 0
    outer loop
      vertex -27 -10.5 2
      vertex -27 -10.498 5
      vertex -27 -10.498 2
    endloop
  endfacet
  facet normal -1 -0 0
    outer loop
      vertex -27 -10.498 5
      vertex -27 -10.5 2
      vertex -27 -10.5 5
    endloop
  endfacet
  facet normal 1 -0 0
    outer loop
      vertex -28 -10.5 5
      vertex -28 -9.5 2
      vertex -28 -9.5 5
    endloop
  endfacet
  facet normal 1 0 0
    outer loop
      vertex -28 -9.5 2
      vertex -28 -10.5 5
      vertex -28 -10.5 2
    endloop
  endfacet
  facet normal 0 1 -0
    outer loop
      vertex -27 -10.5 2
      vertex -28 -10.5 5
      vertex -27 -10.5 5
    endloop
  endfacet
  facet normal 0 1 0
    outer loop
      vertex -28 -10.5 5
      vertex -27 -10.5 2
      vertex -28 -10.5 2
    endloop
  endfacet
  facet normal 0 -1 0
    outer loop
      vertex -28 -9.5 2
      vertex -27.9985 -9.5 5
      vertex -28 -9.5 5
    endloop
  endfacet
  facet normal 0 -1 -0
    outer loop
      vertex -27.9985 -9.5 5
      vertex -28 -9.5 2
      vertex -27.9985 -9.5 2
    endloop
  endfacet
  facet normal -1 0 0
    outer loop
      vertex -28.5 -9 2
      vertex -28.5 -8.99846 5
      vertex -28.5 -8.99846 2
    endloop
  endfacet
  facet normal -1 -0 0
    outer loop
      vertex -28.5 -8.99846 5
      vertex -28.5 -9 2
      vertex -28.5 -9 5
    endloop
  endfacet
  facet normal 1 -0 0
    outer loop
      vertex -29.5 -9 5
      vertex -29.5 -8 2
      vertex -29.5 -8 5
    endloop
  endfacet
  facet normal 1 0 0
    outer loop
      vertex -29.5 -8 2
      vertex -29.5 -9 5
      vertex -29.5 -9 2
    endloop
  endfacet
  facet normal 0 -1 0
    outer loop
      vertex -29.5 -8 2
      vertex -29.4985 -8 5
      vertex -29.5 -8 5
    endloop
  endfacet
  facet normal 0 -1 -0
    outer loop
      vertex -29.4985 -8 5
      vertex -29.5 -8 2
      vertex -29.4985 -8 2
    endloop
  endfacet
  facet normal 0 1 -0
    outer loop
      vertex -28.5 -9 2
      vertex -29.5 -9 5
      vertex -28.5 -9 5
    endloop
  endfacet
  facet normal 0 1 0
    outer loop
      vertex -29.5 -9 5
      vertex -28.5 -9 2
      vertex -29.5 -9 2
    endloop
  endfacet
  facet normal -1 0 0
    outer loop
      vertex -30 -7.5 2
      vertex -30 -7.49846 5
      vertex -30 -7.49846 2
    endloop
  endfacet
  facet normal -1 -0 0
    outer loop
      vertex -30 -7.49846 5
      vertex -30 -7.5 2
      vertex -30 -7.5 5
    endloop
  endfacet
  facet normal 1 -0 0
    outer loop
      vertex -31 -7.5 5
      vertex -31 -6.5 2
      vertex -31 -6.5 5
    endloop
  endfacet
  facet normal 1 0 0
    outer loop
      vertex -31 -6.5 2
      vertex -31 -7.5 5
      vertex -31 -7.5 2
    endloop
  endfacet
  facet normal 0 1 -0
    outer loop
      vertex -30 -7.5 2
      vertex -31 -7.5 5
      vertex -30 -7.5 5
    endloop
  endfacet
  facet normal 0 1 0
    outer loop
      vertex -31 -7.5 5
      vertex -30 -7.5 2
      vertex -31 -7.5 2
    endloop
  endfacet
  facet normal 0 -1 0
    outer loop
      vertex -31 -6.5 2
      vertex -30.9985 -6.5 5
      vertex -31 -6.5 5
    endloop
  endfacet
  facet normal 0 -1 -0
    outer loop
      vertex -30.9985 -6.5 5
      vertex -31 -6.5 2
      vertex -30.9985 -6.5 2
    endloop
  endfacet
  facet normal -1 0 0
    outer loop
      vertex -31.5 -6 2
      vertex -31.5 -5.99846 5
      vertex -31.5 -5.99846 2
    endloop
  endfacet
  facet normal -1 -0 0
    outer loop
      vertex -31.5 -5.99846 5
      vertex -31.5 -6 2
      vertex -31.5 -6 5
    endloop
  endfacet
  facet normal 1 -0 0
    outer loop
      vertex -32.5 -6 5
      vertex -32.5 -5 2
      vertex -32.5 -5 5
    endloop
  endfacet
  facet normal 1 0 0
    outer loop
      vertex -32.5 -5 2
      vertex -32.5 -6 5
      vertex -32.5 -6 2
    endloop
  endfacet
  facet normal 0 1 -0
    outer loop
      vertex -31.5 -6 2
      vertex -32.5 -6 5
      vertex -31.5 -6 5
    endloop
  endfacet
  facet normal 0 1 0
    outer loop
      vertex -32.5 -6 5
      vertex -31.5 -6 2
      vertex -32.5 -6 2
    endloop
  endfacet
  facet normal 0 -1 0
    outer loop
      vertex -32.5 -5 2
      vertex -32.4985 -5 5
      vertex -32.5 -5 5
    endloop
  endfacet
  facet normal 0 -1 -0
    outer loop
      vertex -32.4985 -5 5
      vertex -32.5 -5 2
      vertex -32.4985 -5 2
    endloop
  endfacet
  facet normal -1 0 0
    outer loop
      vertex -33 -4.5 2
      vertex -33 -4.49846 5
      vertex -33 -4.49846 2
    endloop
  endfacet
  facet normal -1 -0 0
    outer loop
      vertex -33 -4.49846 5
      vertex -33 -4.5 2
      vertex -33 -4.5 5
    endloop
  endfacet
  facet normal 1 -0 0
    outer loop
      vertex -34 -4.5 5
      vertex -34 -3.5 2
      vertex -34 -3.5 5
    endloop
  endfacet
  facet normal 1 0 0
    outer loop
      vertex -34 -3.5 2
      vertex -34 -4.5 5
      vertex -34 -4.5 2
    endloop
  endfacet
  facet normal 0 -1 0
    outer loop
      vertex -34 -3.5 2
      vertex -33.9985 -3.5 5
      vertex -34 -3.5 5
    endloop
  endfacet
  facet normal 0 -1 -0
    outer loop
      vertex -33.9985 -3.5 5
      vertex -34 -3.5 2
      vertex -33.9985 -3.5 2
    endloop
  endfacet
  facet normal 0 1 -0
    outer loop
      vertex -33 -4.5 2
      vertex -34 -4.5 5
      vertex -33 -4.5 5
    endloop
  endfacet
  facet normal 0 1 0
    outer loop
      vertex -34 -4.5 5
      vertex -33 -4.5 2
      vertex -34 -4.5 2
    endloop
  endfacet
  facet normal -0.707107 0.707107 0
    outer loop
      vertex 24.5 -12.998 2
      vertex 25.5 -11.998 5
      vertex 25.5 -11.998 2
    endloop
  endfacet
  facet normal -0.707107 0.707107 0
    outer loop
      vertex 25.5 -11.998 5
      vertex 24.5 -12.998 2
      vertex 24.5 -12.998 5
    endloop
  endfacet
  facet normal -0.707107 0.707107 0
    outer loop
      vertex 27 -10.498 2
      vertex 26.498 -11 5
      vertex 27 -10.498 5
    endloop
  endfacet
  facet normal -0.707107 0.707107 0
    outer loop
      vertex 26.498 -11 5
      vertex 27 -10.498 2
      vertex 26.498 -11 2
    endloop
  endfacet
  facet normal 0 1 -0
    outer loop
      vertex 24.5 -12.998 2
      vertex -24.5 -12.998 5
      vertex 24.5 -12.998 5
    endloop
  endfacet
  facet normal 0 1 0
    outer loop
      vertex -24.5 -12.998 5
      vertex 24.5 -12.998 2
      vertex -24.5 -12.998 2
    endloop
  endfacet
  facet normal 0 -1 0
    outer loop
      vertex -24.5 12.998 2
      vertex 24.5 12.998 5
      vertex -24.5 12.998 5
    endloop
  endfacet
  facet normal 0 -1 -0
    outer loop
      vertex 24.5 12.998 5
      vertex -24.5 12.998 2
      vertex 24.5 12.998 2
    endloop
  endfacet
  facet normal -0.707107 -0.707107 0
    outer loop
      vertex 25.5 11.998 2
      vertex 24.5 12.998 5
      vertex 24.5 12.998 2
    endloop
  endfacet
  facet normal -0.707107 -0.707107 0
    outer loop
      vertex 24.5 12.998 5
      vertex 25.5 11.998 2
      vertex 25.5 11.998 5
    endloop
  endfacet
  facet normal -0.707107 -0.707107 0
    outer loop
      vertex 26.498 11 2
      vertex 27 10.498 5
      vertex 26.498 11 5
    endloop
  endfacet
  facet normal -0.707107 -0.707107 -0
    outer loop
      vertex 27 10.498 5
      vertex 26.498 11 2
      vertex 27 10.498 2
    endloop
  endfacet
  facet normal 0.707107 0.707107 0
    outer loop
      vertex -24.5 -12.998 5
      vertex -25.5 -11.998 2
      vertex -25.5 -11.998 5
    endloop
  endfacet
  facet normal 0.707107 0.707107 0
    outer loop
      vertex -25.5 -11.998 2
      vertex -24.5 -12.998 5
      vertex -24.5 -12.998 2
    endloop
  endfacet
  facet normal 0.707107 0.707107 -0
    outer loop
      vertex -26.498 -11 2
      vertex -27 -10.498 5
      vertex -26.498 -11 5
    endloop
  endfacet
  facet normal 0.707107 0.707107 0
    outer loop
      vertex -27 -10.498 5
      vertex -26.498 -11 2
      vertex -27 -10.498 2
    endloop
  endfacet
  facet normal 0.707107 -0.707107 0
    outer loop
      vertex -25.5 11.998 5
      vertex -24.5 12.998 2
      vertex -24.5 12.998 5
    endloop
  endfacet
  facet normal 0.707107 -0.707107 0
    outer loop
      vertex -24.5 12.998 2
      vertex -25.5 11.998 5
      vertex -25.5 11.998 2
    endloop
  endfacet
  facet normal 0.707107 -0.707107 0
    outer loop
      vertex -27 10.498 2
      vertex -26.498 11 5
      vertex -27 10.498 5
    endloop
  endfacet
  facet normal 0.707107 -0.707107 0
    outer loop
      vertex -26.498 11 5
      vertex -27 10.498 2
      vertex -26.498 11 2
    endloop
  endfacet
  facet normal 0 -1 0
    outer loop
      vertex 34.4985 3 2
      vertex 43.5 3 5
      vertex 34.4985 3 5
    endloop
  endfacet
  facet normal 0 -1 -0
    outer loop
      vertex 43.5 3 5
      vertex 34.4985 3 2
      vertex 43.5 3 2
    endloop
  endfacet
  facet normal 0 -1 0
    outer loop
      vertex -43.5 3 2
      vertex -34.4985 3 5
      vertex -43.5 3 5
    endloop
  endfacet
  facet normal 0 -1 -0
    outer loop
      vertex -34.4985 3 5
      vertex -43.5 3 2
      vertex -34.4985 3 2
    endloop
  endfacet
  facet normal 0 1 -0
    outer loop
      vertex 43.5 -3 2
      vertex 34.4985 -3 5
      vertex 43.5 -3 5
    endloop
  endfacet
  facet normal 0 1 0
    outer loop
      vertex 34.4985 -3 5
      vertex 43.5 -3 2
      vertex 34.4985 -3 2
    endloop
  endfacet
  facet normal 0 1 -0
    outer loop
      vertex -34.4985 -3 2
      vertex -43.5 -3 5
      vertex -34.4985 -3 5
    endloop
  endfacet
  facet normal 0 1 0
    outer loop
      vertex -43.5 -3 5
      vertex -34.4985 -3 2
      vertex -43.5 -3 2
    endloop
  endfacet
  facet normal -0.707107 0.707107 0
    outer loop
      vertex 37.4985 0 0
      vertex 34.4985 -3 2
      vertex 37.4985 0 2
    endloop
  endfacet
  facet normal -0.707107 0.707107 0
    outer loop
      vertex 34.4985 -3 2
      vertex 33.9985 -3.5 2
      vertex 34.4985 -3 5
    endloop
  endfacet
  facet normal -0.707107 0.707107 0
    outer loop
      vertex 37.4985 0 0
      vertex 33.9985 -3.5 2
      vertex 34.4985 -3 2
    endloop
  endfacet
  facet normal -0.707093 0.707121 4.95728e-05
    outer loop
      vertex 37.4985 0 0
      vertex 33 -4.49846 2
      vertex 33.9985 -3.5 2
    endloop
  endfacet
  facet normal -0.707135 0.707079 0
    outer loop
      vertex 33 -4.49846 2
      vertex 32.4985 -5 2
      vertex 33 -4.49846 5
    endloop
  endfacet
  facet normal -0.707135 0.707079 -0.000140993
    outer loop
      vertex 37.4985 0 0
      vertex 32.4985 -5 2
      vertex 33 -4.49846 2
    endloop
  endfacet
  facet normal -0.707107 0.707107 0
    outer loop
      vertex 27.3 -10.1985 0
      vertex 32.4985 -5 2
      vertex 37.4985 0 0
    endloop
  endfacet
  facet normal -0.707135 0.707079 0
    outer loop
      vertex 31.5 -5.99846 2
      vertex 30.9985 -6.5 2
      vertex 31.5 -5.99846 5
    endloop
  endfacet
  facet normal -0.707093 0.707121 -7.36298e-05
    outer loop
      vertex 32.4985 -5 2
      vertex 27.3 -10.1985 0
      vertex 31.5 -5.99846 2
    endloop
  endfacet
  facet normal -0.707135 0.707079 0.000104292
    outer loop
      vertex 31.5 -5.99846 2
      vertex 27.3 -10.1985 0
      vertex 30.9985 -6.5 2
    endloop
  endfacet
  facet normal -0.707135 0.707079 0
    outer loop
      vertex 30 -7.49846 2
      vertex 29.4985 -8 2
      vertex 30 -7.49846 5
    endloop
  endfacet
  facet normal -0.707093 0.707121 -5.23843e-05
    outer loop
      vertex 30.9985 -6.5 2
      vertex 27.3 -10.1985 0
      vertex 30 -7.49846 2
    endloop
  endfacet
  facet normal -0.707135 0.707079 6.19945e-05
    outer loop
      vertex 30 -7.49846 2
      vertex 27.3 -10.1985 0
      vertex 29.4985 -8 2
    endloop
  endfacet
  facet normal -0.707135 0.707079 0
    outer loop
      vertex 28.5 -8.99846 2
      vertex 27.9985 -9.5 2
      vertex 28.5 -8.99846 5
    endloop
  endfacet
  facet normal -0.707093 0.707121 -3.11388e-05
    outer loop
      vertex 29.4985 -8 2
      vertex 27.3 -10.1985 0
      vertex 28.5 -8.99846 2
    endloop
  endfacet
  facet normal -0.707135 0.707079 1.96967e-05
    outer loop
      vertex 28.5 -8.99846 2
      vertex 27.3 -10.1985 0
      vertex 27.9985 -9.5 2
    endloop
  endfacet
  facet normal -0.707107 0.707107 0
    outer loop
      vertex 27.9985 -9.5 2
      vertex 27.3 -10.1985 0
      vertex 27.3 -10.1985 2
    endloop
  endfacet
  facet normal -0.707107 0.707107 0
    outer loop
      vertex 34.4985 -3 5
      vertex 33.9985 -3.5 2
      vertex 33.9985 -3.5 5
    endloop
  endfacet
  facet normal -0.707135 0.707079 0
    outer loop
      vertex 33 -4.49846 5
      vertex 32.4985 -5 2
      vertex 32.4985 -5 5
    endloop
  endfacet
  facet normal -0.707135 0.707079 0
    outer loop
      vertex 31.5 -5.99846 5
      vertex 30.9985 -6.5 2
      vertex 30.9985 -6.5 5
    endloop
  endfacet
  facet normal -0.707135 0.707079 0
    outer loop
      vertex 30 -7.49846 5
      vertex 29.4985 -8 2
      vertex 29.4985 -8 5
    endloop
  endfacet
  facet normal -0.707135 0.707079 0
    outer loop
      vertex 28.5 -8.99846 5
      vertex 27.9985 -9.5 2
      vertex 27.9985 -9.5 5
    endloop
  endfacet
  facet normal 0 1 -0
    outer loop
      vertex 27.3 -10.1985 0
      vertex -27.3 -10.1985 2
      vertex 27.3 -10.1985 2
    endloop
  endfacet
  facet normal 0 1 0
    outer loop
      vertex -27.3 -10.1985 2
      vertex 27.3 -10.1985 0
      vertex -27.3 -10.1985 0
    endloop
  endfacet
  facet normal 0 -1 0
    outer loop
      vertex -27.3 10.1985 0
      vertex 27.3 10.1985 2
      vertex -27.3 10.1985 2
    endloop
  endfacet
  facet normal 0 -1 -0
    outer loop
      vertex 27.3 10.1985 2
      vertex -27.3 10.1985 0
      vertex 27.3 10.1985 0
    endloop
  endfacet
  facet normal -0.707107 -0.707107 0
    outer loop
      vertex 27.3 10.1985 0
      vertex 27.9985 9.5 2
      vertex 27.3 10.1985 2
    endloop
  endfacet
  facet normal -0.707135 -0.707079 0
    outer loop
      vertex 27.9985 9.5 2
      vertex 28.5 8.99846 2
      vertex 27.9985 9.5 5
    endloop
  endfacet
  facet normal -0.707135 -0.707079 1.96967e-05
    outer loop
      vertex 27.3 10.1985 0
      vertex 28.5 8.99846 2
      vertex 27.9985 9.5 2
    endloop
  endfacet
  facet normal -0.707093 -0.707121 -3.11388e-05
    outer loop
      vertex 27.3 10.1985 0
      vertex 29.4985 8 2
      vertex 28.5 8.99846 2
    endloop
  endfacet
  facet normal -0.707135 -0.707079 0
    outer loop
      vertex 29.4985 8 2
      vertex 30 7.49846 2
      vertex 29.4985 8 5
    endloop
  endfacet
  facet normal -0.707135 -0.707079 6.19945e-05
    outer loop
      vertex 27.3 10.1985 0
      vertex 30 7.49846 2
      vertex 29.4985 8 2
    endloop
  endfacet
  facet normal -0.707093 -0.707121 -5.23843e-05
    outer loop
      vertex 27.3 10.1985 0
      vertex 30.9985 6.5 2
      vertex 30 7.49846 2
    endloop
  endfacet
  facet normal -0.707135 -0.707079 0
    outer loop
      vertex 30.9985 6.5 2
      vertex 31.5 5.99846 2
      vertex 30.9985 6.5 5
    endloop
  endfacet
  facet normal -0.707135 -0.707079 0.000104292
    outer loop
      vertex 27.3 10.1985 0
      vertex 31.5 5.99846 2
      vertex 30.9985 6.5 2
    endloop
  endfacet
  facet normal -0.707093 -0.707121 -7.36298e-05
    outer loop
      vertex 27.3 10.1985 0
      vertex 32.4985 5 2
      vertex 31.5 5.99846 2
    endloop
  endfacet
  facet normal -0.707135 -0.707079 0
    outer loop
      vertex 32.4985 5 2
      vertex 33 4.49846 2
      vertex 32.4985 5 5
    endloop
  endfacet
  facet normal -0.707107 -0.707107 0
    outer loop
      vertex 37.4985 0 0
      vertex 32.4985 5 2
      vertex 27.3 10.1985 0
    endloop
  endfacet
  facet normal -0.707135 -0.707079 -0.000140993
    outer loop
      vertex 32.4985 5 2
      vertex 37.4985 0 0
      vertex 33 4.49846 2
    endloop
  endfacet
  facet normal -0.707107 -0.707107 0
    outer loop
      vertex 33.9985 3.5 2
      vertex 34.4985 3 2
      vertex 33.9985 3.5 5
    endloop
  endfacet
  facet normal -0.707093 -0.707121 4.95728e-05
    outer loop
      vertex 33 4.49846 2
      vertex 37.4985 0 0
      vertex 33.9985 3.5 2
    endloop
  endfacet
  facet normal -0.707107 -0.707107 0
    outer loop
      vertex 33.9985 3.5 2
      vertex 37.4985 0 0
      vertex 34.4985 3 2
    endloop
  endfacet
  facet normal -0.707107 -0.707107 0
    outer loop
      vertex 34.4985 3 2
      vertex 37.4985 0 0
      vertex 37.4985 0 2
    endloop
  endfacet
  facet normal -0.707135 -0.707079 0
    outer loop
      vertex 27.9985 9.5 5
      vertex 28.5 8.99846 2
      vertex 28.5 8.99846 5
    endloop
  endfacet
  facet normal -0.707135 -0.707079 0
    outer loop
      vertex 29.4985 8 5
      vertex 30 7.49846 2
      vertex 30 7.49846 5
    endloop
  endfacet
  facet normal -0.707135 -0.707079 0
    outer loop
      vertex 30.9985 6.5 5
      vertex 31.5 5.99846 2
      vertex 31.5 5.99846 5
    endloop
  endfacet
  facet normal -0.707135 -0.707079 0
    outer loop
      vertex 32.4985 5 5
      vertex 33 4.49846 2
      vertex 33 4.49846 5
    endloop
  endfacet
  facet normal -0.707107 -0.707107 0
    outer loop
      vertex 33.9985 3.5 5
      vertex 34.4985 3 2
      vertex 34.4985 3 5
    endloop
  endfacet
  facet normal 0.707135 0.707079 0
    outer loop
      vertex -28.5 -8.99846 5
      vertex -27.9985 -9.5 5
      vertex -28.5 -8.99846 2
    endloop
  endfacet
  facet normal 0.707135 0.707079 0
    outer loop
      vertex -30 -7.49846 5
      vertex -29.4985 -8 5
      vertex -30 -7.49846 2
    endloop
  endfacet
  facet normal 0.707135 0.707079 0
    outer loop
      vertex -31.5 -5.99846 5
      vertex -30.9985 -6.5 5
      vertex -31.5 -5.99846 2
    endloop
  endfacet
  facet normal 0.707135 0.707079 0
    outer loop
      vertex -33 -4.49846 5
      vertex -32.4985 -5 5
      vertex -33 -4.49846 2
    endloop
  endfacet
  facet normal 0.707107 0.707107 0
    outer loop
      vertex -34.4985 -3 5
      vertex -33.9985 -3.5 5
      vertex -34.4985 -3 2
    endloop
  endfacet
  facet normal 0.707107 0.707107 0
    outer loop
      vertex -34.4985 -3 2
      vertex -37.4985 0 0
      vertex -37.4985 0 2
    endloop
  endfacet
  facet normal 0.707107 0.707107 -0
    outer loop
      vertex -33.9985 -3.5 2
      vertex -34.4985 -3 2
      vertex -33.9985 -3.5 5
    endloop
  endfacet
  facet normal 0.707107 0.707107 0
    outer loop
      vertex -33.9985 -3.5 2
      vertex -37.4985 0 0
      vertex -34.4985 -3 2
    endloop
  endfacet
  facet normal 0.707093 0.707121 4.95728e-05
    outer loop
      vertex -33 -4.49846 2
      vertex -37.4985 0 0
      vertex -33.9985 -3.5 2
    endloop
  endfacet
  facet normal 0.707135 0.707079 -0
    outer loop
      vertex -32.4985 -5 2
      vertex -33 -4.49846 2
      vertex -32.4985 -5 5
    endloop
  endfacet
  facet normal 0.707135 0.707079 -0.000140993
    outer loop
      vertex -32.4985 -5 2
      vertex -37.4985 0 0
      vertex -33 -4.49846 2
    endloop
  endfacet
  facet normal 0.707093 0.707121 -7.36298e-05
    outer loop
      vertex -27.3 -10.1985 0
      vertex -32.4985 -5 2
      vertex -31.5 -5.99846 2
    endloop
  endfacet
  facet normal 0.707135 0.707079 -0
    outer loop
      vertex -30.9985 -6.5 2
      vertex -31.5 -5.99846 2
      vertex -30.9985 -6.5 5
    endloop
  endfacet
  facet normal 0.707135 0.707079 0.000104292
    outer loop
      vertex -27.3 -10.1985 0
      vertex -31.5 -5.99846 2
      vertex -30.9985 -6.5 2
    endloop
  endfacet
  facet normal 0.707093 0.707121 -5.23843e-05
    outer loop
      vertex -27.3 -10.1985 0
      vertex -30.9985 -6.5 2
      vertex -30 -7.49846 2
    endloop
  endfacet
  facet normal 0.707135 0.707079 -0
    outer loop
      vertex -29.4985 -8 2
      vertex -30 -7.49846 2
      vertex -29.4985 -8 5
    endloop
  endfacet
  facet normal 0.707135 0.707079 6.19945e-05
    outer loop
      vertex -27.3 -10.1985 0
      vertex -30 -7.49846 2
      vertex -29.4985 -8 2
    endloop
  endfacet
  facet normal 0.707093 0.707121 -3.11388e-05
    outer loop
      vertex -27.3 -10.1985 0
      vertex -29.4985 -8 2
      vertex -28.5 -8.99846 2
    endloop
  endfacet
  facet normal 0.707135 0.707079 -0
    outer loop
      vertex -27.9985 -9.5 2
      vertex -28.5 -8.99846 2
      vertex -27.9985 -9.5 5
    endloop
  endfacet
  facet normal 0.707135 0.707079 1.96967e-05
    outer loop
      vertex -27.3 -10.1985 0
      vertex -28.5 -8.99846 2
      vertex -27.9985 -9.5 2
    endloop
  endfacet
  facet normal 0.707107 0.707107 -0
    outer loop
      vertex -27.3 -10.1985 0
      vertex -27.9985 -9.5 2
      vertex -27.3 -10.1985 2
    endloop
  endfacet
  facet normal 0.707107 0.707107 0
    outer loop
      vertex -32.4985 -5 2
      vertex -27.3 -10.1985 0
      vertex -37.4985 0 0
    endloop
  endfacet
  facet normal 0.707107 -0.707107 0
    outer loop
      vertex -33.9985 3.5 5
      vertex -34.4985 3 5
      vertex -33.9985 3.5 2
    endloop
  endfacet
  facet normal 0.707135 -0.707079 0
    outer loop
      vertex -32.4985 5 5
      vertex -33 4.49846 5
      vertex -32.4985 5 2
    endloop
  endfacet
  facet normal 0.707135 -0.707079 0
    outer loop
      vertex -30.9985 6.5 5
      vertex -31.5 5.99846 5
      vertex -30.9985 6.5 2
    endloop
  endfacet
  facet normal 0.707135 -0.707079 0
    outer loop
      vertex -29.4985 8 5
      vertex -30 7.49846 5
      vertex -29.4985 8 2
    endloop
  endfacet
  facet normal 0.707135 -0.707079 0
    outer loop
      vertex -27.9985 9.5 5
      vertex -28.5 8.99846 5
      vertex -27.9985 9.5 2
    endloop
  endfacet
  facet normal 0.707107 -0.707107 0
    outer loop
      vertex -27.9985 9.5 2
      vertex -27.3 10.1985 0
      vertex -27.3 10.1985 2
    endloop
  endfacet
  facet normal 0.707135 -0.707079 0
    outer loop
      vertex -28.5 8.99846 2
      vertex -27.9985 9.5 2
      vertex -28.5 8.99846 5
    endloop
  endfacet
  facet normal 0.707135 -0.707079 1.96967e-05
    outer loop
      vertex -28.5 8.99846 2
      vertex -27.3 10.1985 0
      vertex -27.9985 9.5 2
    endloop
  endfacet
  facet normal 0.707093 -0.707121 -3.11388e-05
    outer loop
      vertex -29.4985 8 2
      vertex -27.3 10.1985 0
      vertex -28.5 8.99846 2
    endloop
  endfacet
  facet normal 0.707135 -0.707079 0
    outer loop
      vertex -30 7.49846 2
      vertex -29.4985 8 2
      vertex -30 7.49846 5
    endloop
  endfacet
  facet normal 0.707135 -0.707079 6.19945e-05
    outer loop
      vertex -30 7.49846 2
      vertex -27.3 10.1985 0
      vertex -29.4985 8 2
    endloop
  endfacet
  facet normal 0.707093 -0.707121 -5.23843e-05
    outer loop
      vertex -30.9985 6.5 2
      vertex -27.3 10.1985 0
      vertex -30 7.49846 2
    endloop
  endfacet
  facet normal 0.707135 -0.707079 0
    outer loop
      vertex -31.5 5.99846 2
      vertex -30.9985 6.5 2
      vertex -31.5 5.99846 5
    endloop
  endfacet
  facet normal 0.707135 -0.707079 0.000104292
    outer loop
      vertex -31.5 5.99846 2
      vertex -27.3 10.1985 0
      vertex -30.9985 6.5 2
    endloop
  endfacet
  facet normal 0.707093 -0.707121 -7.36298e-05
    outer loop
      vertex -32.4985 5 2
      vertex -27.3 10.1985 0
      vertex -31.5 5.99846 2
    endloop
  endfacet
  facet normal 0.707135 -0.707079 0
    outer loop
      vertex -33 4.49846 2
      vertex -32.4985 5 2
      vertex -33 4.49846 5
    endloop
  endfacet
  facet normal 0.707135 -0.707079 -0.000140993
    outer loop
      vertex -37.4985 0 0
      vertex -32.4985 5 2
      vertex -33 4.49846 2
    endloop
  endfacet
  facet normal 0.707093 -0.707121 4.95728e-05
    outer loop
      vertex -37.4985 0 0
      vertex -33 4.49846 2
      vertex -33.9985 3.5 2
    endloop
  endfacet
  facet normal 0.707107 -0.707107 0
    outer loop
      vertex -34.4985 3 2
      vertex -33.9985 3.5 2
      vertex -34.4985 3 5
    endloop
  endfacet
  facet normal 0.707107 -0.707107 0
    outer loop
      vertex -37.4985 0 0
      vertex -33.9985 3.5 2
      vertex -34.4985 3 2
    endloop
  endfacet
  facet normal 0.707107 -0.707107 0
    outer loop
      vertex -37.4985 0 0
      vertex -34.4985 3 2
      vertex -37.4985 0 2
    endloop
  endfacet
  facet normal 0.707107 -0.707107 0
    outer loop
      vertex -32.4985 5 2
      vertex -37.4985 0 0
      vertex -27.3 10.1985 0
    endloop
  endfacet
  facet normal -1 0 0
    outer loop
      vertex -43.5 16.5002 0
      vertex -43.5 -3 2
      vertex -43.5 3 2
    endloop
  endfacet
  facet normal -1 0 0
    outer loop
      vertex -43.5 -16.5002 0
      vertex -43.5 -3 2
      vertex -43.5 16.5002 0
    endloop
  endfacet
  facet normal -1 0 0
    outer loop
      vertex -43.5 -16.5002 0
      vertex -43.5 -3 5
      vertex -43.5 -3 2
    endloop
  endfacet
  facet normal -1 0 0
    outer loop
      vertex -43.5 -18 5
      vertex -43.5 -16.5002 0
      vertex -43.5 -18 1.49977
    endloop
  endfacet
  facet normal -1 0 0
    outer loop
      vertex -43.5 -16.5002 0
      vertex -43.5 -18 5
      vertex -43.5 -3 5
    endloop
  endfacet
  facet normal -1 0 0
    outer loop
      vertex -43.5 16.5002 0
      vertex -43.5 18 5
      vertex -43.5 18 1.49977
    endloop
  endfacet
  facet normal -1 0 0
    outer loop
      vertex -43.5 3 5
      vertex -43.5 16.5002 0
      vertex -43.5 3 2
    endloop
  endfacet
  facet normal -1 0 0
    outer loop
      vertex -43.5 16.5002 0
      vertex -43.5 3 5
      vertex -43.5 18 5
    endloop
  endfacet
  facet normal 0 0 1
    outer loop
      vertex -34 -3.5 5
      vertex -34.4985 -3 5
      vertex -34 -4.5 5
    endloop
  endfacet
  facet normal 0 0 1
    outer loop
      vertex -34.4985 -3 5
      vertex -34 -3.5 5
      vertex -33.9985 -3.5 5
    endloop
  endfacet
  facet normal -0 0 1
    outer loop
      vertex -33 -4.5 5
      vertex -32.5 -5 5
      vertex -33 -4.49846 5
    endloop
  endfacet
  facet normal 0 0 1
    outer loop
      vertex -33 -4.49846 5
      vertex -32.5 -5 5
      vertex -32.4985 -5 5
    endloop
  endfacet
  facet normal -0 0 1
    outer loop
      vertex -31.5 -6 5
      vertex -31 -6.5 5
      vertex -31.5 -5.99846 5
    endloop
  endfacet
  facet normal 0 0 1
    outer loop
      vertex -31.5 -5.99846 5
      vertex -31 -6.5 5
      vertex -30.9985 -6.5 5
    endloop
  endfacet
  facet normal -0 0 1
    outer loop
      vertex -30 -7.5 5
      vertex -29.5 -8 5
      vertex -30 -7.49846 5
    endloop
  endfacet
  facet normal 0 0 1
    outer loop
      vertex -30 -7.49846 5
      vertex -29.5 -8 5
      vertex -29.4985 -8 5
    endloop
  endfacet
  facet normal -0 0 1
    outer loop
      vertex -28.5 -9 5
      vertex -28 -9.5 5
      vertex -28.5 -8.99846 5
    endloop
  endfacet
  facet normal 0 0 1
    outer loop
      vertex -28.5 -8.99846 5
      vertex -28 -9.5 5
      vertex -27.9985 -9.5 5
    endloop
  endfacet
  facet normal -0 0 1
    outer loop
      vertex -27 -10.5 5
      vertex -26.5 -11 5
      vertex -27 -10.498 5
    endloop
  endfacet
  facet normal 0 0 1
    outer loop
      vertex -27 -10.498 5
      vertex -26.5 -11 5
      vertex -26.498 -11 5
    endloop
  endfacet
  facet normal 0 0 1
    outer loop
      vertex 25.5 -11.998 5
      vertex 24.5 -12.998 5
      vertex 25.5 -12 5
    endloop
  endfacet
  facet normal 0 0 1
    outer loop
      vertex 27 -10.498 5
      vertex 26.5 -11 5
      vertex 27 -10.5 5
    endloop
  endfacet
  facet normal 0 -0 1
    outer loop
      vertex 26.5 -11 5
      vertex 27 -10.498 5
      vertex 26.498 -11 5
    endloop
  endfacet
  facet normal 0 0 1
    outer loop
      vertex 28.5 -8.99846 5
      vertex 28 -9.5 5
      vertex 28.5 -9 5
    endloop
  endfacet
  facet normal 0 -0 1
    outer loop
      vertex 28 -9.5 5
      vertex 28.5 -8.99846 5
      vertex 27.9985 -9.5 5
    endloop
  endfacet
  facet normal 0 0 1
    outer loop
      vertex 30 -7.49846 5
      vertex 29.5 -8 5
      vertex 30 -7.5 5
    endloop
  endfacet
  facet normal 0 -0 1
    outer loop
      vertex 29.5 -8 5
      vertex 30 -7.49846 5
      vertex 29.4985 -8 5
    endloop
  endfacet
  facet normal 0 0 1
    outer loop
      vertex 31.5 -5.99846 5
      vertex 31 -6.5 5
      vertex 31.5 -6 5
    endloop
  endfacet
  facet normal 0 -0 1
    outer loop
      vertex 31 -6.5 5
      vertex 31.5 -5.99846 5
      vertex 30.9985 -6.5 5
    endloop
  endfacet
  facet normal 0 0 1
    outer loop
      vertex 33 -4.49846 5
      vertex 32.5 -5 5
      vertex 33 -4.5 5
    endloop
  endfacet
  facet normal 0 -0 1
    outer loop
      vertex 32.5 -5 5
      vertex 33 -4.49846 5
      vertex 32.4985 -5 5
    endloop
  endfacet
  facet normal 0 0 1
    outer loop
      vertex 34.4985 -3 5
      vertex 33.9985 -3.5 5
      vertex 34 -3.5 5
    endloop
  endfacet
  facet normal 0 0 1
    outer loop
      vertex 34 -4.5 5
      vertex 43.5 -3 5
      vertex 34.4985 -3 5
    endloop
  endfacet
  facet normal 0 0 1
    outer loop
      vertex 34 -4.5 5
      vertex 34.4985 -3 5
      vertex 34 -3.5 5
    endloop
  endfacet
  facet normal 0 0 1
    outer loop
      vertex 43.5 -3 5
      vertex 34 -4.5 5
      vertex 43.5 -18 5
    endloop
  endfacet
  facet normal 0 0 1
    outer loop
      vertex 32.5 -6 5
      vertex 34 -4.5 5
      vertex 33 -4.5 5
    endloop
  endfacet
  facet normal 0 0 1
    outer loop
      vertex 32.5 -6 5
      vertex 33 -4.5 5
      vertex 32.5 -5 5
    endloop
  endfacet
  facet normal 0 0 1
    outer loop
      vertex 34 -4.5 5
      vertex 32.5 -6 5
      vertex 43.5 -18 5
    endloop
  endfacet
  facet normal 0 0 1
    outer loop
      vertex 31 -7.5 5
      vertex 32.5 -6 5
      vertex 31.5 -6 5
    endloop
  endfacet
  facet normal 0 0 1
    outer loop
      vertex 31 -7.5 5
      vertex 31.5 -6 5
      vertex 31 -6.5 5
    endloop
  endfacet
  facet normal 0 0 1
    outer loop
      vertex 32.5 -6 5
      vertex 31 -7.5 5
      vertex 43.5 -18 5
    endloop
  endfacet
  facet normal 0 0 1
    outer loop
      vertex 29.5 -9 5
      vertex 31 -7.5 5
      vertex 30 -7.5 5
    endloop
  endfacet
  facet normal 0 0 1
    outer loop
      vertex 29.5 -9 5
      vertex 30 -7.5 5
      vertex 29.5 -8 5
    endloop
  endfacet
  facet normal 0 0 1
    outer loop
      vertex 31 -7.5 5
      vertex 29.5 -9 5
      vertex 43.5 -18 5
    endloop
  endfacet
  facet normal 0 0 1
    outer loop
      vertex 28 -10.5 5
      vertex 29.5 -9 5
      vertex 28.5 -9 5
    endloop
  endfacet
  facet normal 0 0 1
    outer loop
      vertex 28 -10.5 5
      vertex 28.5 -9 5
      vertex 28 -9.5 5
    endloop
  endfacet
  facet normal 0 0 1
    outer loop
      vertex 29.5 -9 5
      vertex 28 -10.5 5
      vertex 43.5 -18 5
    endloop
  endfacet
  facet normal 0 0 1
    outer loop
      vertex 26.5 -12 5
      vertex 28 -10.5 5
      vertex 27 -10.5 5
    endloop
  endfacet
  facet normal 0 0 1
    outer loop
      vertex 26.5 -12 5
      vertex 27 -10.5 5
      vertex 26.5 -11 5
    endloop
  endfacet
  facet normal 0 0 1
    outer loop
      vertex 28 -10.5 5
      vertex 26.5 -12 5
      vertex 43.5 -18 5
    endloop
  endfacet
  facet normal 0 0 1
    outer loop
      vertex 24.5 -12.998 5
      vertex 26.5 -12 5
      vertex 25.5 -12 5
    endloop
  endfacet
  facet normal 0 0 1
    outer loop
      vertex 26.5 -12 5
      vertex 24.5 -12.998 5
      vertex 43.5 -18 5
    endloop
  endfacet
  facet normal 0 0 1
    outer loop
      vertex 13 -18 5
      vertex 24.5 -12.998 5
      vertex 13 -16.5 5
    endloop
  endfacet
  facet normal 0 0 1
    outer loop
      vertex 24.5 -12.998 5
      vertex 13 -18 5
      vertex 43.5 -18 5
    endloop
  endfacet
  facet normal 0 0 1
    outer loop
      vertex 24.5 -12.998 5
      vertex -13 -16.5 5
      vertex 13 -16.5 5
    endloop
  endfacet
  facet normal -0 0 1
    outer loop
      vertex -24.5 -12.998 5
      vertex -13 -16.5 5
      vertex 24.5 -12.998 5
    endloop
  endfacet
  facet normal 0 0 1
    outer loop
      vertex -24.5 -12.998 5
      vertex -13 -18 5
      vertex -13 -16.5 5
    endloop
  endfacet
  facet normal -0 0 1
    outer loop
      vertex -25.5 -12 5
      vertex -24.5 -12.998 5
      vertex -25.5 -11.998 5
    endloop
  endfacet
  facet normal -0 0 1
    outer loop
      vertex -26.5 -12 5
      vertex -24.5 -12.998 5
      vertex -25.5 -12 5
    endloop
  endfacet
  facet normal 0 0 1
    outer loop
      vertex -26.5 -11 5
      vertex -27 -10.5 5
      vertex -26.5 -12 5
    endloop
  endfacet
  facet normal -0 0 1
    outer loop
      vertex -28 -10.5 5
      vertex -26.5 -12 5
      vertex -27 -10.5 5
    endloop
  endfacet
  facet normal 0 0 1
    outer loop
      vertex -28 -9.5 5
      vertex -28.5 -9 5
      vertex -28 -10.5 5
    endloop
  endfacet
  facet normal -0 0 1
    outer loop
      vertex -29.5 -9 5
      vertex -28 -10.5 5
      vertex -28.5 -9 5
    endloop
  endfacet
  facet normal 0 0 1
    outer loop
      vertex -43.5 -18 5
      vertex -28 -10.5 5
      vertex -29.5 -9 5
    endloop
  endfacet
  facet normal 0 0 1
    outer loop
      vertex -29.5 -8 5
      vertex -30 -7.5 5
      vertex -29.5 -9 5
    endloop
  endfacet
  facet normal -0 0 1
    outer loop
      vertex -31 -7.5 5
      vertex -29.5 -9 5
      vertex -30 -7.5 5
    endloop
  endfacet
  facet normal 0 0 1
    outer loop
      vertex -43.5 -18 5
      vertex -29.5 -9 5
      vertex -31 -7.5 5
    endloop
  endfacet
  facet normal 0 0 1
    outer loop
      vertex -31 -6.5 5
      vertex -31.5 -6 5
      vertex -31 -7.5 5
    endloop
  endfacet
  facet normal -0 0 1
    outer loop
      vertex -32.5 -6 5
      vertex -31 -7.5 5
      vertex -31.5 -6 5
    endloop
  endfacet
  facet normal 0 0 1
    outer loop
      vertex -43.5 -18 5
      vertex -31 -7.5 5
      vertex -32.5 -6 5
    endloop
  endfacet
  facet normal 0 0 1
    outer loop
      vertex -32.5 -5 5
      vertex -33 -4.5 5
      vertex -32.5 -6 5
    endloop
  endfacet
  facet normal -0 0 1
    outer loop
      vertex -34 -4.5 5
      vertex -32.5 -6 5
      vertex -33 -4.5 5
    endloop
  endfacet
  facet normal 0 0 1
    outer loop
      vertex -43.5 -18 5
      vertex -32.5 -6 5
      vertex -34 -4.5 5
    endloop
  endfacet
  facet normal -0 0 1
    outer loop
      vertex -43.5 -3 5
      vertex -34 -4.5 5
      vertex -34.4985 -3 5
    endloop
  endfacet
  facet normal 0 0 1
    outer loop
      vertex -43.5 -18 5
      vertex -34 -4.5 5
      vertex -43.5 -3 5
    endloop
  endfacet
  facet normal 0 0 1
    outer loop
      vertex -24.5 -12.998 5
      vertex -43.5 -18 5
      vertex -13 -18 5
    endloop
  endfacet
  facet normal 0 0 1
    outer loop
      vertex -26.5 -12 5
      vertex -43.5 -18 5
      vertex -24.5 -12.998 5
    endloop
  endfacet
  facet normal 0 0 1
    outer loop
      vertex -28 -10.5 5
      vertex -43.5 -18 5
      vertex -26.5 -12 5
    endloop
  endfacet
  facet normal 0 0 1
    outer loop
      vertex -13 18 5
      vertex -24.5 12.998 5
      vertex -13 16.5 5
    endloop
  endfacet
  facet normal 0 0 1
    outer loop
      vertex -24.5 12.998 5
      vertex -26.5 12 5
      vertex -25.5 12 5
    endloop
  endfacet
  facet normal 0 0 1
    outer loop
      vertex -26.5 12 5
      vertex -27 10.5 5
      vertex -26.5 11 5
    endloop
  endfacet
  facet normal 0 0 1
    outer loop
      vertex -26.5 12 5
      vertex -28 10.5 5
      vertex -27 10.5 5
    endloop
  endfacet
  facet normal 0 0 1
    outer loop
      vertex -28 10.5 5
      vertex -28.5 9 5
      vertex -28 9.5 5
    endloop
  endfacet
  facet normal 0 0 1
    outer loop
      vertex -28 10.5 5
      vertex -29.5 9 5
      vertex -28.5 9 5
    endloop
  endfacet
  facet normal 0 0 1
    outer loop
      vertex -43.5 18 5
      vertex -28 10.5 5
      vertex -26.5 12 5
    endloop
  endfacet
  facet normal 0 0 1
    outer loop
      vertex -29.5 9 5
      vertex -30 7.5 5
      vertex -29.5 8 5
    endloop
  endfacet
  facet normal 0 0 1
    outer loop
      vertex -29.5 9 5
      vertex -31 7.5 5
      vertex -30 7.5 5
    endloop
  endfacet
  facet normal 0 0 1
    outer loop
      vertex -28 10.5 5
      vertex -43.5 18 5
      vertex -29.5 9 5
    endloop
  endfacet
  facet normal 0 0 1
    outer loop
      vertex -31 7.5 5
      vertex -31.5 6 5
      vertex -31 6.5 5
    endloop
  endfacet
  facet normal 0 0 1
    outer loop
      vertex -31 7.5 5
      vertex -32.5 6 5
      vertex -31.5 6 5
    endloop
  endfacet
  facet normal 0 0 1
    outer loop
      vertex -29.5 9 5
      vertex -43.5 18 5
      vertex -31 7.5 5
    endloop
  endfacet
  facet normal 0 0 1
    outer loop
      vertex -32.5 6 5
      vertex -33 4.5 5
      vertex -32.5 5 5
    endloop
  endfacet
  facet normal 0 0 1
    outer loop
      vertex -32.5 6 5
      vertex -34 4.5 5
      vertex -33 4.5 5
    endloop
  endfacet
  facet normal 0 0 1
    outer loop
      vertex -31 7.5 5
      vertex -43.5 18 5
      vertex -32.5 6 5
    endloop
  endfacet
  facet normal 0 0 1
    outer loop
      vertex -34 4.5 5
      vertex -34.4985 3 5
      vertex -34 3.5 5
    endloop
  endfacet
  facet normal -0 0 1
    outer loop
      vertex -43.5 18 5
      vertex -24.5 12.998 5
      vertex -13 18 5
    endloop
  endfacet
  facet normal 0 0 1
    outer loop
      vertex -43.5 18 5
      vertex -26.5 12 5
      vertex -24.5 12.998 5
    endloop
  endfacet
  facet normal 0 0 1
    outer loop
      vertex -32.5 6 5
      vertex -43.5 18 5
      vertex -34 4.5 5
    endloop
  endfacet
  facet normal 0 0 1
    outer loop
      vertex -43.5 3 5
      vertex -34 4.5 5
      vertex -43.5 18 5
    endloop
  endfacet
  facet normal 0 0 1
    outer loop
      vertex -34 4.5 5
      vertex -43.5 3 5
      vertex -34.4985 3 5
    endloop
  endfacet
  facet normal -0 0 1
    outer loop
      vertex 34 4.5 5
      vertex 43.5 3 5
      vertex 43.5 18 5
    endloop
  endfacet
  facet normal 0 0 1
    outer loop
      vertex 43.5 3 5
      vertex 34 4.5 5
      vertex 34.4985 3 5
    endloop
  endfacet
  facet normal -0 0 1
    outer loop
      vertex 32.5 6 5
      vertex 34 4.5 5
      vertex 43.5 18 5
    endloop
  endfacet
  facet normal -0 0 1
    outer loop
      vertex 32.5 5 5
      vertex 33 4.5 5
      vertex 32.5 6 5
    endloop
  endfacet
  facet normal 0 0 1
    outer loop
      vertex 34 4.5 5
      vertex 32.5 6 5
      vertex 33 4.5 5
    endloop
  endfacet
  facet normal -0 0 1
    outer loop
      vertex 31 7.5 5
      vertex 32.5 6 5
      vertex 43.5 18 5
    endloop
  endfacet
  facet normal -0 0 1
    outer loop
      vertex 31 6.5 5
      vertex 31.5 6 5
      vertex 31 7.5 5
    endloop
  endfacet
  facet normal 0 0 1
    outer loop
      vertex 32.5 6 5
      vertex 31 7.5 5
      vertex 31.5 6 5
    endloop
  endfacet
  facet normal -0 0 1
    outer loop
      vertex 29.5 9 5
      vertex 31 7.5 5
      vertex 43.5 18 5
    endloop
  endfacet
  facet normal -0 0 1
    outer loop
      vertex 29.5 8 5
      vertex 30 7.5 5
      vertex 29.5 9 5
    endloop
  endfacet
  facet normal 0 0 1
    outer loop
      vertex 31 7.5 5
      vertex 29.5 9 5
      vertex 30 7.5 5
    endloop
  endfacet
  facet normal -0 0 1
    outer loop
      vertex 28 10.5 5
      vertex 29.5 9 5
      vertex 43.5 18 5
    endloop
  endfacet
  facet normal -0 0 1
    outer loop
      vertex 28 9.5 5
      vertex 28.5 9 5
      vertex 28 10.5 5
    endloop
  endfacet
  facet normal 0 0 1
    outer loop
      vertex 29.5 9 5
      vertex 28 10.5 5
      vertex 28.5 9 5
    endloop
  endfacet
  facet normal -0 0 1
    outer loop
      vertex 26.5 12 5
      vertex 28 10.5 5
      vertex 43.5 18 5
    endloop
  endfacet
  facet normal -0 0 1
    outer loop
      vertex 26.5 11 5
      vertex 27 10.5 5
      vertex 26.5 12 5
    endloop
  endfacet
  facet normal 0 0 1
    outer loop
      vertex 28 10.5 5
      vertex 26.5 12 5
      vertex 27 10.5 5
    endloop
  endfacet
  facet normal -0 0 1
    outer loop
      vertex 24.5 12.998 5
      vertex 26.5 12 5
      vertex 43.5 18 5
    endloop
  endfacet
  facet normal 0 0 1
    outer loop
      vertex 25.5 12 5
      vertex 24.5 12.998 5
      vertex 25.5 11.998 5
    endloop
  endfacet
  facet normal 0 0 1
    outer loop
      vertex 26.5 12 5
      vertex 24.5 12.998 5
      vertex 25.5 12 5
    endloop
  endfacet
  facet normal -0 0 1
    outer loop
      vertex 13 18 5
      vertex 24.5 12.998 5
      vertex 43.5 18 5
    endloop
  endfacet
  facet normal -0 0 1
    outer loop
      vertex 13 16.5 5
      vertex 24.5 12.998 5
      vertex 13 18 5
    endloop
  endfacet
  facet normal -0 0 1
    outer loop
      vertex -13 16.5 5
      vertex 24.5 12.998 5
      vertex 13 16.5 5
    endloop
  endfacet
  facet normal 0 0 1
    outer loop
      vertex 24.5 12.998 5
      vertex -13 16.5 5
      vertex -24.5 12.998 5
    endloop
  endfacet
  facet normal -0 0 1
    outer loop
      vertex 34 3.5 5
      vertex 34.4985 3 5
      vertex 34 4.5 5
    endloop
  endfacet
  facet normal 0 0 1
    outer loop
      vertex 34.4985 3 5
      vertex 34 3.5 5
      vertex 33.9985 3.5 5
    endloop
  endfacet
  facet normal 0 0 1
    outer loop
      vertex 33 4.5 5
      vertex 32.5 5 5
      vertex 33 4.49846 5
    endloop
  endfacet
  facet normal 0 0 1
    outer loop
      vertex 33 4.49846 5
      vertex 32.5 5 5
      vertex 32.4985 5 5
    endloop
  endfacet
  facet normal 0 0 1
    outer loop
      vertex 31.5 6 5
      vertex 31 6.5 5
      vertex 31.5 5.99846 5
    endloop
  endfacet
  facet normal 0 0 1
    outer loop
      vertex 31.5 5.99846 5
      vertex 31 6.5 5
      vertex 30.9985 6.5 5
    endloop
  endfacet
  facet normal 0 0 1
    outer loop
      vertex 30 7.5 5
      vertex 29.5 8 5
      vertex 30 7.49846 5
    endloop
  endfacet
  facet normal 0 0 1
    outer loop
      vertex 30 7.49846 5
      vertex 29.5 8 5
      vertex 29.4985 8 5
    endloop
  endfacet
  facet normal 0 0 1
    outer loop
      vertex 28.5 9 5
      vertex 28 9.5 5
      vertex 28.5 8.99846 5
    endloop
  endfacet
  facet normal 0 0 1
    outer loop
      vertex 28.5 8.99846 5
      vertex 28 9.5 5
      vertex 27.9985 9.5 5
    endloop
  endfacet
  facet normal 0 0 1
    outer loop
      vertex 27 10.5 5
      vertex 26.5 11 5
      vertex 27 10.498 5
    endloop
  endfacet
  facet normal 0 0 1
    outer loop
      vertex 27 10.498 5
      vertex 26.5 11 5
      vertex 26.498 11 5
    endloop
  endfacet
  facet normal 0 0 1
    outer loop
      vertex -24.5 12.998 5
      vertex -25.5 12 5
      vertex -25.5 11.998 5
    endloop
  endfacet
  facet normal 0 0 1
    outer loop
      vertex -27 10.5 5
      vertex -26.498 11 5
      vertex -26.5 11 5
    endloop
  endfacet
  facet normal 0 0 1
    outer loop
      vertex -26.498 11 5
      vertex -27 10.5 5
      vertex -27 10.498 5
    endloop
  endfacet
  facet normal 0 0 1
    outer loop
      vertex -28.5 9 5
      vertex -27.9985 9.5 5
      vertex -28 9.5 5
    endloop
  endfacet
  facet normal 0 0 1
    outer loop
      vertex -27.9985 9.5 5
      vertex -28.5 9 5
      vertex -28.5 8.99846 5
    endloop
  endfacet
  facet normal 0 0 1
    outer loop
      vertex -30 7.5 5
      vertex -29.4985 8 5
      vertex -29.5 8 5
    endloop
  endfacet
  facet normal 0 0 1
    outer loop
      vertex -29.4985 8 5
      vertex -30 7.5 5
      vertex -30 7.49846 5
    endloop
  endfacet
  facet normal 0 0 1
    outer loop
      vertex -31.5 6 5
      vertex -30.9985 6.5 5
      vertex -31 6.5 5
    endloop
  endfacet
  facet normal 0 0 1
    outer loop
      vertex -30.9985 6.5 5
      vertex -31.5 6 5
      vertex -31.5 5.99846 5
    endloop
  endfacet
  facet normal 0 0 1
    outer loop
      vertex -33 4.5 5
      vertex -32.4985 5 5
      vertex -32.5 5 5
    endloop
  endfacet
  facet normal 0 0 1
    outer loop
      vertex -32.4985 5 5
      vertex -33 4.5 5
      vertex -33 4.49846 5
    endloop
  endfacet
  facet normal 0 0 1
    outer loop
      vertex -33.9985 3.5 5
      vertex -34 3.5 5
      vertex -34.4985 3 5
    endloop
  endfacet
  facet normal 1 0 0
    outer loop
      vertex 43.5 -3 5
      vertex 43.5 -16.5002 0
      vertex 43.5 -3 2
    endloop
  endfacet
  facet normal 1 -0 0
    outer loop
      vertex 43.5 -18 5
      vertex 43.5 -16.5002 0
      vertex 43.5 -3 5
    endloop
  endfacet
  facet normal 1 0 0
    outer loop
      vertex 43.5 -16.5002 0
      vertex 43.5 -18 5
      vertex 43.5 -18 1.49977
    endloop
  endfacet
  facet normal 1 0 0
    outer loop
      vertex 43.5 18 5
      vertex 43.5 16.5002 0
      vertex 43.5 18 1.49977
    endloop
  endfacet
  facet normal 1 -0 0
    outer loop
      vertex 43.5 3 5
      vertex 43.5 16.5002 0
      vertex 43.5 18 5
    endloop
  endfacet
  facet normal 1 -0 0
    outer loop
      vertex 43.5 3 2
      vertex 43.5 16.5002 0
      vertex 43.5 3 5
    endloop
  endfacet
  facet normal 1 -0 0
    outer loop
      vertex 43.5 -3 2
      vertex 43.5 16.5002 0
      vertex 43.5 3 2
    endloop
  endfacet
  facet normal 1 0 0
    outer loop
      vertex 43.5 16.5002 0
      vertex 43.5 -3 2
      vertex 43.5 -16.5002 0
    endloop
  endfacet
endsolid OpenSCAD_Model
