solid OpenSCAD_Model
  facet normal 0 0 1
    outer loop
      vertex 11.5498 -4.19937 1.5
      vertex -10.25 -5.49917 1.5
      vertex 10.25 -5.49917 1.5
    endloop
  endfacet
  facet normal 0 -0 1
    outer loop
      vertex -10.25 -5.49917 1.5
      vertex 11.5498 -4.19937 1.5
      vertex -11.5498 -4.19937 1.5
    endloop
  endfacet
  facet normal -0 0 1
    outer loop
      vertex -10.25 5.49917 1.5
      vertex 11.5498 4.19937 1.5
      vertex 10.25 5.49917 1.5
    endloop
  endfacet
  facet normal 0 0 1
    outer loop
      vertex 11.5498 4.19937 1.5
      vertex -10.25 5.49917 1.5
      vertex -11.5498 4.19937 1.5
    endloop
  endfacet
  facet normal 0 0 1
    outer loop
      vertex -14.2494 1.5 1.5
      vertex -18.75 1.5 1.5
      vertex -15.7494 0 1.5
    endloop
  endfacet
  facet normal 0 0 1
    outer loop
      vertex -18.75 -1.5 1.5
      vertex -15.7494 0 1.5
      vertex -18.75 1.5 1.5
    endloop
  endfacet
  facet normal 0 0 1
    outer loop
      vertex -15.7494 0 1.5
      vertex -18.75 -1.5 1.5
      vertex -14.2494 -1.5 1.5
    endloop
  endfacet
  facet normal 0 0 1
    outer loop
      vertex 18.75 1.5 1.5
      vertex 15.7494 0 1.5
      vertex 18.75 -1.5 1.5
    endloop
  endfacet
  facet normal 0 -0 1
    outer loop
      vertex 15.7494 0 1.5
      vertex 18.75 1.5 1.5
      vertex 14.2494 1.5 1.5
    endloop
  endfacet
  facet normal 0 0 1
    outer loop
      vertex 18.75 -1.5 1.5
      vertex 15.7494 0 1.5
      vertex 14.2494 -1.5 1.5
    endloop
  endfacet
  facet normal 0 1 -0
    outer loop
      vertex 18.75 -1.5 1.5
      vertex 14.2494 -1.5 3
      vertex 18.75 -1.5 3
    endloop
  endfacet
  facet normal 0 1 0
    outer loop
      vertex 14.2494 -1.5 3
      vertex 18.75 -1.5 1.5
      vertex 14.2494 -1.5 1.5
    endloop
  endfacet
  facet normal 0 1 -0
    outer loop
      vertex -14.2494 -1.5 1.5
      vertex -18.75 -1.5 3
      vertex -14.2494 -1.5 3
    endloop
  endfacet
  facet normal 0 1 0
    outer loop
      vertex -18.75 -1.5 3
      vertex -14.2494 -1.5 1.5
      vertex -18.75 -1.5 1.5
    endloop
  endfacet
  facet normal 0 -1 0
    outer loop
      vertex 14.2494 1.5 1.5
      vertex 18.75 1.5 3
      vertex 14.2494 1.5 3
    endloop
  endfacet
  facet normal 0 -1 -0
    outer loop
      vertex 18.75 1.5 3
      vertex 14.2494 1.5 1.5
      vertex 18.75 1.5 1.5
    endloop
  endfacet
  facet normal 0 -1 0
    outer loop
      vertex -18.75 1.5 1.5
      vertex -14.2494 1.5 3
      vertex -18.75 1.5 3
    endloop
  endfacet
  facet normal 0 -1 -0
    outer loop
      vertex -14.2494 1.5 3
      vertex -18.75 1.5 1.5
      vertex -14.2494 1.5 1.5
    endloop
  endfacet
  facet normal -0.707107 0.707107 0
    outer loop
      vertex 10.25 -5.49917 1.5
      vertex 11.5498 -4.19937 3
      vertex 11.5498 -4.19937 1.5
    endloop
  endfacet
  facet normal -0.707107 0.707107 0
    outer loop
      vertex 11.5498 -4.19937 3
      vertex 10.25 -5.49917 1.5
      vertex 10.25 -5.49917 3
    endloop
  endfacet
  facet normal 0 1 -0
    outer loop
      vertex 10.25 -5.49917 1.5
      vertex -10.25 -5.49917 3
      vertex 10.25 -5.49917 3
    endloop
  endfacet
  facet normal 0 1 0
    outer loop
      vertex -10.25 -5.49917 3
      vertex 10.25 -5.49917 1.5
      vertex -10.25 -5.49917 1.5
    endloop
  endfacet
  facet normal 0 -1 0
    outer loop
      vertex -10.25 5.49917 1.5
      vertex 10.25 5.49917 3
      vertex -10.25 5.49917 3
    endloop
  endfacet
  facet normal 0 -1 -0
    outer loop
      vertex 10.25 5.49917 3
      vertex -10.25 5.49917 1.5
      vertex 10.25 5.49917 1.5
    endloop
  endfacet
  facet normal -0.707107 -0.707107 0
    outer loop
      vertex 11.5498 4.19937 1.5
      vertex 10.25 5.49917 3
      vertex 10.25 5.49917 1.5
    endloop
  endfacet
  facet normal -0.707107 -0.707107 0
    outer loop
      vertex 10.25 5.49917 3
      vertex 11.5498 4.19937 1.5
      vertex 11.5498 4.19937 3
    endloop
  endfacet
  facet normal 0.707107 0.707107 0
    outer loop
      vertex -10.25 -5.49917 3
      vertex -11.5498 -4.19937 1.5
      vertex -11.5498 -4.19937 3
    endloop
  endfacet
  facet normal 0.707107 0.707107 0
    outer loop
      vertex -11.5498 -4.19937 1.5
      vertex -10.25 -5.49917 3
      vertex -10.25 -5.49917 1.5
    endloop
  endfacet
  facet normal 0.707107 -0.707107 0
    outer loop
      vertex -11.5498 4.19937 3
      vertex -10.25 5.49917 1.5
      vertex -10.25 5.49917 3
    endloop
  endfacet
  facet normal 0.707107 -0.707107 0
    outer loop
      vertex -10.25 5.49917 1.5
      vertex -11.5498 4.19937 3
      vertex -11.5498 4.19937 1.5
    endloop
  endfacet
  facet normal 1 -0 0
    outer loop
      vertex -5.5 6.5 3
      vertex -5.5 8 1.49977
      vertex -5.5 8 3
    endloop
  endfacet
  facet normal 1 0 0
    outer loop
      vertex -5.5 8 1.49977
      vertex -5.5 6.5 3
      vertex -5.5 6.50023 0
    endloop
  endfacet
  facet normal 1 0 0
    outer loop
      vertex -5.5 6.50023 0
      vertex -5.5 6.5 3
      vertex -5.5 6.5 0
    endloop
  endfacet
  facet normal -1 0 0
    outer loop
      vertex 5.5 6.5 3
      vertex 5.5 8 1.49977
      vertex 5.5 6.50023 0
    endloop
  endfacet
  facet normal -1 0 0
    outer loop
      vertex 5.5 6.5 3
      vertex 5.5 6.50023 0
      vertex 5.5 6.5 0
    endloop
  endfacet
  facet normal -1 0 0
    outer loop
      vertex 5.5 8 1.49977
      vertex 5.5 6.5 3
      vertex 5.5 8 3
    endloop
  endfacet
  facet normal 0 1 -0
    outer loop
      vertex 18.75 8 1.49977
      vertex 5.5 8 3
      vertex 18.75 8 3
    endloop
  endfacet
  facet normal 0 1 0
    outer loop
      vertex 5.5 8 3
      vertex 18.75 8 1.49977
      vertex 5.5 8 1.49977
    endloop
  endfacet
  facet normal 0 1 -0
    outer loop
      vertex -5.5 8 1.49977
      vertex -18.75 8 3
      vertex -5.5 8 3
    endloop
  endfacet
  facet normal 0 1 0
    outer loop
      vertex -18.75 8 3
      vertex -5.5 8 1.49977
      vertex -18.75 8 1.49977
    endloop
  endfacet
  facet normal 0 0 -1
    outer loop
      vertex -5.5 -6.50023 0
      vertex -11.55 -4.19937 0
      vertex -5.5 -6.5 0
    endloop
  endfacet
  facet normal -0 0 -1
    outer loop
      vertex -11.55 -4.19937 0
      vertex -18.75 -6.50023 0
      vertex -15.7494 0 0
    endloop
  endfacet
  facet normal 0 0 -1
    outer loop
      vertex -18.75 -6.50023 0
      vertex -11.55 -4.19937 0
      vertex -5.5 -6.50023 0
    endloop
  endfacet
  facet normal 0 0 -1
    outer loop
      vertex 11.55 4.19937 0
      vertex -5.5 6.5 0
      vertex 5.5 6.5 0
    endloop
  endfacet
  facet normal 0 0 -1
    outer loop
      vertex -11.55 4.19937 0
      vertex -5.5 6.5 0
      vertex 11.55 4.19937 0
    endloop
  endfacet
  facet normal 0 0 -1
    outer loop
      vertex -11.55 4.19937 0
      vertex -5.5 6.50023 0
      vertex -5.5 6.5 0
    endloop
  endfacet
  facet normal 0 0 -1
    outer loop
      vertex -11.55 4.19937 0
      vertex -18.75 6.50023 0
      vertex -5.5 6.50023 0
    endloop
  endfacet
  facet normal 0 0 -1
    outer loop
      vertex -15.7494 0 0
      vertex -18.75 6.50023 0
      vertex -11.55 4.19937 0
    endloop
  endfacet
  facet normal 0 0 -1
    outer loop
      vertex -18.75 6.50023 0
      vertex -15.7494 0 0
      vertex -18.75 -6.50023 0
    endloop
  endfacet
  facet normal 0 0 -1
    outer loop
      vertex 18.75 -6.50023 0
      vertex 15.7494 0 0
      vertex 18.75 6.50023 0
    endloop
  endfacet
  facet normal 0 0 -1
    outer loop
      vertex 18.75 -6.50023 0
      vertex 11.55 -4.19937 0
      vertex 15.7494 0 0
    endloop
  endfacet
  facet normal 0 0 -1
    outer loop
      vertex 5.5 -6.50023 0
      vertex 11.55 -4.19937 0
      vertex 18.75 -6.50023 0
    endloop
  endfacet
  facet normal 0 0 -1
    outer loop
      vertex 5.5 -6.5 0
      vertex 11.55 -4.19937 0
      vertex 5.5 -6.50023 0
    endloop
  endfacet
  facet normal 0 0 -1
    outer loop
      vertex -5.5 -6.5 0
      vertex 11.55 -4.19937 0
      vertex 5.5 -6.5 0
    endloop
  endfacet
  facet normal -0 0 -1
    outer loop
      vertex 11.55 -4.19937 0
      vertex -5.5 -6.5 0
      vertex -11.55 -4.19937 0
    endloop
  endfacet
  facet normal 0 0 -1
    outer loop
      vertex 11.55 4.19937 0
      vertex 18.75 6.50023 0
      vertex 15.7494 0 0
    endloop
  endfacet
  facet normal 0 0 -1
    outer loop
      vertex 5.5 6.50023 0
      vertex 11.55 4.19937 0
      vertex 5.5 6.5 0
    endloop
  endfacet
  facet normal 0 0 -1
    outer loop
      vertex 11.55 4.19937 0
      vertex 5.5 6.50023 0
      vertex 18.75 6.50023 0
    endloop
  endfacet
  facet normal 0 1 -0
    outer loop
      vertex 5.5 6.5 0
      vertex -5.5 6.5 3
      vertex 5.5 6.5 3
    endloop
  endfacet
  facet normal 0 1 0
    outer loop
      vertex -5.5 6.5 3
      vertex 5.5 6.5 0
      vertex -5.5 6.5 0
    endloop
  endfacet
  facet normal 0 0.707107 -0.707107
    outer loop
      vertex 18.75 6.50023 0
      vertex 5.5 8 1.49977
      vertex 18.75 8 1.49977
    endloop
  endfacet
  facet normal 0 0.707107 -0.707107
    outer loop
      vertex 5.5 8 1.49977
      vertex 18.75 6.50023 0
      vertex 5.5 6.50023 0
    endloop
  endfacet
  facet normal 0 0.707107 -0.707107
    outer loop
      vertex -5.5 6.50023 0
      vertex -18.75 8 1.49977
      vertex -5.5 8 1.49977
    endloop
  endfacet
  facet normal 0 0.707107 -0.707107
    outer loop
      vertex -18.75 8 1.49977
      vertex -5.5 6.50023 0
      vertex -18.75 6.50023 0
    endloop
  endfacet
  facet normal 1 0 0
    outer loop
      vertex -5.5 -6.5 3
      vertex -5.5 -6.50023 0
      vertex -5.5 -6.5 0
    endloop
  endfacet
  facet normal 1 0 0
    outer loop
      vertex -5.5 -8 1.49977
      vertex -5.5 -6.5 3
      vertex -5.5 -8 3
    endloop
  endfacet
  facet normal 1 0 0
    outer loop
      vertex -5.5 -6.5 3
      vertex -5.5 -8 1.49977
      vertex -5.5 -6.50023 0
    endloop
  endfacet
  facet normal -1 0 0
    outer loop
      vertex 5.5 -6.50023 0
      vertex 5.5 -6.5 3
      vertex 5.5 -6.5 0
    endloop
  endfacet
  facet normal -1 0 0
    outer loop
      vertex 5.5 -8 1.49977
      vertex 5.5 -6.5 3
      vertex 5.5 -6.50023 0
    endloop
  endfacet
  facet normal -1 -0 0
    outer loop
      vertex 5.5 -6.5 3
      vertex 5.5 -8 1.49977
      vertex 5.5 -8 3
    endloop
  endfacet
  facet normal 0 -1 0
    outer loop
      vertex 5.5 -8 1.49977
      vertex 18.75 -8 3
      vertex 5.5 -8 3
    endloop
  endfacet
  facet normal 0 -1 -0
    outer loop
      vertex 18.75 -8 3
      vertex 5.5 -8 1.49977
      vertex 18.75 -8 1.49977
    endloop
  endfacet
  facet normal 0 -1 0
    outer loop
      vertex -18.75 -8 1.49977
      vertex -5.5 -8 3
      vertex -18.75 -8 3
    endloop
  endfacet
  facet normal 0 -1 -0
    outer loop
      vertex -5.5 -8 3
      vertex -18.75 -8 1.49977
      vertex -5.5 -8 1.49977
    endloop
  endfacet
  facet normal 0 -1 0
    outer loop
      vertex -5.5 -6.5 0
      vertex 5.5 -6.5 3
      vertex -5.5 -6.5 3
    endloop
  endfacet
  facet normal 0 -1 -0
    outer loop
      vertex 5.5 -6.5 3
      vertex -5.5 -6.5 0
      vertex 5.5 -6.5 0
    endloop
  endfacet
  facet normal 0 -0.707107 -0.707107
    outer loop
      vertex 5.5 -6.50023 0
      vertex 18.75 -8 1.49977
      vertex 5.5 -8 1.49977
    endloop
  endfacet
  facet normal 0 -0.707107 -0.707107
    outer loop
      vertex 18.75 -8 1.49977
      vertex 5.5 -6.50023 0
      vertex 18.75 -6.50023 0
    endloop
  endfacet
  facet normal 0 -0.707107 -0.707107
    outer loop
      vertex -18.75 -6.50023 0
      vertex -5.5 -8 1.49977
      vertex -18.75 -8 1.49977
    endloop
  endfacet
  facet normal 0 -0.707107 -0.707107
    outer loop
      vertex -5.5 -8 1.49977
      vertex -18.75 -6.50023 0
      vertex -5.5 -6.50023 0
    endloop
  endfacet
  facet normal -0.707107 0.707107 0
    outer loop
      vertex 15.7494 0 0
      vertex 14.2494 -1.5 1.5
      vertex 15.7494 0 1.5
    endloop
  endfacet
  facet normal -0.707104 0.707109 5.0515e-06
    outer loop
      vertex 11.55 -4.19937 0
      vertex 14.2494 -1.5 1.5
      vertex 15.7494 0 0
    endloop
  endfacet
  facet normal -0.707103 0.707111 0
    outer loop
      vertex 11.55 -4.19937 3
      vertex 14.2494 -1.5 1.5
      vertex 11.55 -4.19937 0
    endloop
  endfacet
  facet normal -0.707103 0.707111 0
    outer loop
      vertex 14.2494 -1.5 1.5
      vertex 11.55 -4.19937 3
      vertex 14.2494 -1.5 3
    endloop
  endfacet
  facet normal 0 1 0
    outer loop
      vertex 11.55 -4.19937 3
      vertex 11.5498 -4.19937 1.5
      vertex 11.5498 -4.19937 3
    endloop
  endfacet
  facet normal 0 1 0
    outer loop
      vertex 11.5498 -4.19937 1.5
      vertex 11.55 -4.19937 0
      vertex -11.5498 -4.19937 1.5
    endloop
  endfacet
  facet normal 0 1 -0
    outer loop
      vertex 11.55 -4.19937 0
      vertex 11.5498 -4.19937 1.5
      vertex 11.55 -4.19937 3
    endloop
  endfacet
  facet normal 0 1 -0
    outer loop
      vertex -11.5498 -4.19937 1.5
      vertex -11.55 -4.19937 3
      vertex -11.5498 -4.19937 3
    endloop
  endfacet
  facet normal 0 1 0
    outer loop
      vertex -11.5498 -4.19937 1.5
      vertex -11.55 -4.19937 0
      vertex -11.55 -4.19937 3
    endloop
  endfacet
  facet normal 0 1 0
    outer loop
      vertex -11.55 -4.19937 0
      vertex -11.5498 -4.19937 1.5
      vertex 11.55 -4.19937 0
    endloop
  endfacet
  facet normal 0 -1 0
    outer loop
      vertex -11.55 4.19937 3
      vertex -11.5498 4.19937 1.5
      vertex -11.5498 4.19937 3
    endloop
  endfacet
  facet normal 0 -1 -0
    outer loop
      vertex -11.5498 4.19937 1.5
      vertex -11.55 4.19937 0
      vertex 11.5498 4.19937 1.5
    endloop
  endfacet
  facet normal 0 -1 0
    outer loop
      vertex -11.55 4.19937 0
      vertex -11.5498 4.19937 1.5
      vertex -11.55 4.19937 3
    endloop
  endfacet
  facet normal 0 -1 0
    outer loop
      vertex 11.5498 4.19937 1.5
      vertex 11.55 4.19937 3
      vertex 11.5498 4.19937 3
    endloop
  endfacet
  facet normal 0 -1 0
    outer loop
      vertex 11.5498 4.19937 1.5
      vertex 11.55 4.19937 0
      vertex 11.55 4.19937 3
    endloop
  endfacet
  facet normal 0 -1 0
    outer loop
      vertex 11.55 4.19937 0
      vertex 11.5498 4.19937 1.5
      vertex -11.55 4.19937 0
    endloop
  endfacet
  facet normal -0.707103 -0.707111 0
    outer loop
      vertex 11.55 4.19937 0
      vertex 14.2494 1.5 1.5
      vertex 11.55 4.19937 3
    endloop
  endfacet
  facet normal -0.707104 -0.707109 5.0515e-06
    outer loop
      vertex 15.7494 0 0
      vertex 14.2494 1.5 1.5
      vertex 11.55 4.19937 0
    endloop
  endfacet
  facet normal -0.707107 -0.707107 0
    outer loop
      vertex 14.2494 1.5 1.5
      vertex 15.7494 0 0
      vertex 15.7494 0 1.5
    endloop
  endfacet
  facet normal -0.707103 -0.707111 0
    outer loop
      vertex 11.55 4.19937 3
      vertex 14.2494 1.5 1.5
      vertex 14.2494 1.5 3
    endloop
  endfacet
  facet normal 0.707103 0.707111 0
    outer loop
      vertex -14.2494 -1.5 3
      vertex -11.55 -4.19937 3
      vertex -14.2494 -1.5 1.5
    endloop
  endfacet
  facet normal 0.707107 0.707107 0
    outer loop
      vertex -14.2494 -1.5 1.5
      vertex -15.7494 0 0
      vertex -15.7494 0 1.5
    endloop
  endfacet
  facet normal 0.707103 0.707111 -0
    outer loop
      vertex -11.55 -4.19937 0
      vertex -14.2494 -1.5 1.5
      vertex -11.55 -4.19937 3
    endloop
  endfacet
  facet normal 0.707104 0.707109 5.0515e-06
    outer loop
      vertex -14.2494 -1.5 1.5
      vertex -11.55 -4.19937 0
      vertex -15.7494 0 0
    endloop
  endfacet
  facet normal 0.707103 -0.707111 0
    outer loop
      vertex -14.2494 1.5 1.5
      vertex -11.55 4.19937 3
      vertex -14.2494 1.5 3
    endloop
  endfacet
  facet normal 0.707103 -0.707111 0
    outer loop
      vertex -11.55 4.19937 3
      vertex -14.2494 1.5 1.5
      vertex -11.55 4.19937 0
    endloop
  endfacet
  facet normal 0.707107 -0.707107 0
    outer loop
      vertex -15.7494 0 0
      vertex -14.2494 1.5 1.5
      vertex -15.7494 0 1.5
    endloop
  endfacet
  facet normal 0.707104 -0.707109 5.0515e-06
    outer loop
      vertex -14.2494 1.5 1.5
      vertex -15.7494 0 0
      vertex -11.55 4.19937 0
    endloop
  endfacet
  facet normal -1 0 0
    outer loop
      vertex -18.75 6.50023 0
      vertex -18.75 -1.5 1.5
      vertex -18.75 1.5 1.5
    endloop
  endfacet
  facet normal -1 0 0
    outer loop
      vertex -18.75 -6.50023 0
      vertex -18.75 -1.5 1.5
      vertex -18.75 6.50023 0
    endloop
  endfacet
  facet normal -1 0 0
    outer loop
      vertex -18.75 -6.50023 0
      vertex -18.75 -1.5 3
      vertex -18.75 -1.5 1.5
    endloop
  endfacet
  facet normal -1 0 0
    outer loop
      vertex -18.75 -8 3
      vertex -18.75 -6.50023 0
      vertex -18.75 -8 1.49977
    endloop
  endfacet
  facet normal -1 0 0
    outer loop
      vertex -18.75 -6.50023 0
      vertex -18.75 -8 3
      vertex -18.75 -1.5 3
    endloop
  endfacet
  facet normal -1 0 0
    outer loop
      vertex -18.75 6.50023 0
      vertex -18.75 8 3
      vertex -18.75 8 1.49977
    endloop
  endfacet
  facet normal -1 0 0
    outer loop
      vertex -18.75 1.5 3
      vertex -18.75 6.50023 0
      vertex -18.75 1.5 1.5
    endloop
  endfacet
  facet normal -1 0 0
    outer loop
      vertex -18.75 6.50023 0
      vertex -18.75 1.5 3
      vertex -18.75 8 3
    endloop
  endfacet
  facet normal 0 0 1
    outer loop
      vertex 10.25 -5.49917 3
      vertex -5.5 -6.5 3
      vertex 5.5 -6.5 3
    endloop
  endfacet
  facet normal -0 0 1
    outer loop
      vertex -10.25 -5.49917 3
      vertex -5.5 -6.5 3
      vertex 10.25 -5.49917 3
    endloop
  endfacet
  facet normal 0 0 1
    outer loop
      vertex -10.25 -5.49917 3
      vertex -5.5 -8 3
      vertex -5.5 -6.5 3
    endloop
  endfacet
  facet normal -0 0 1
    outer loop
      vertex -11.55 -4.19937 3
      vertex -10.25 -5.49917 3
      vertex -11.5498 -4.19937 3
    endloop
  endfacet
  facet normal 0 0 1
    outer loop
      vertex -18.75 -8 3
      vertex -14.2494 -1.5 3
      vertex -18.75 -1.5 3
    endloop
  endfacet
  facet normal 0 0 1
    outer loop
      vertex -14.2494 -1.5 3
      vertex -18.75 -8 3
      vertex -11.55 -4.19937 3
    endloop
  endfacet
  facet normal 0 0 1
    outer loop
      vertex -11.55 -4.19937 3
      vertex -18.75 -8 3
      vertex -10.25 -5.49917 3
    endloop
  endfacet
  facet normal 0 0 1
    outer loop
      vertex -10.25 -5.49917 3
      vertex -18.75 -8 3
      vertex -5.5 -8 3
    endloop
  endfacet
  facet normal -0 0 1
    outer loop
      vertex 14.2494 -1.5 3
      vertex 18.75 -8 3
      vertex 18.75 -1.5 3
    endloop
  endfacet
  facet normal -0 0 1
    outer loop
      vertex 11.55 -4.19937 3
      vertex 18.75 -8 3
      vertex 14.2494 -1.5 3
    endloop
  endfacet
  facet normal 0 0 1
    outer loop
      vertex 10.25 -5.49917 3
      vertex 11.55 -4.19937 3
      vertex 11.5498 -4.19937 3
    endloop
  endfacet
  facet normal 0 0 1
    outer loop
      vertex 11.55 -4.19937 3
      vertex 10.25 -5.49917 3
      vertex 18.75 -8 3
    endloop
  endfacet
  facet normal 0 0 1
    outer loop
      vertex 5.5 -8 3
      vertex 10.25 -5.49917 3
      vertex 5.5 -6.5 3
    endloop
  endfacet
  facet normal 0 0 1
    outer loop
      vertex 10.25 -5.49917 3
      vertex 5.5 -8 3
      vertex 18.75 -8 3
    endloop
  endfacet
  facet normal 0 0 1
    outer loop
      vertex -5.5 8 3
      vertex -10.25 5.49917 3
      vertex -5.5 6.5 3
    endloop
  endfacet
  facet normal 0 0 1
    outer loop
      vertex -10.25 5.49917 3
      vertex -11.55 4.19937 3
      vertex -11.5498 4.19937 3
    endloop
  endfacet
  facet normal -0 0 1
    outer loop
      vertex -18.75 8 3
      vertex -10.25 5.49917 3
      vertex -5.5 8 3
    endloop
  endfacet
  facet normal 0 0 1
    outer loop
      vertex -18.75 8 3
      vertex -11.55 4.19937 3
      vertex -10.25 5.49917 3
    endloop
  endfacet
  facet normal 0 0 1
    outer loop
      vertex -18.75 8 3
      vertex -14.2494 1.5 3
      vertex -11.55 4.19937 3
    endloop
  endfacet
  facet normal 0 0 1
    outer loop
      vertex -14.2494 1.5 3
      vertex -18.75 8 3
      vertex -18.75 1.5 3
    endloop
  endfacet
  facet normal 0 0 1
    outer loop
      vertex 18.75 8 3
      vertex 14.2494 1.5 3
      vertex 18.75 1.5 3
    endloop
  endfacet
  facet normal 0 0 1
    outer loop
      vertex 18.75 8 3
      vertex 11.55 4.19937 3
      vertex 14.2494 1.5 3
    endloop
  endfacet
  facet normal -0 0 1
    outer loop
      vertex 10.25 5.49917 3
      vertex 11.55 4.19937 3
      vertex 18.75 8 3
    endloop
  endfacet
  facet normal 0 0 1
    outer loop
      vertex 11.55 4.19937 3
      vertex 10.25 5.49917 3
      vertex 11.5498 4.19937 3
    endloop
  endfacet
  facet normal -0 0 1
    outer loop
      vertex 5.5 8 3
      vertex 10.25 5.49917 3
      vertex 18.75 8 3
    endloop
  endfacet
  facet normal -0 0 1
    outer loop
      vertex 5.5 6.5 3
      vertex 10.25 5.49917 3
      vertex 5.5 8 3
    endloop
  endfacet
  facet normal -0 0 1
    outer loop
      vertex -5.5 6.5 3
      vertex 10.25 5.49917 3
      vertex 5.5 6.5 3
    endloop
  endfacet
  facet normal 0 0 1
    outer loop
      vertex 10.25 5.49917 3
      vertex -5.5 6.5 3
      vertex -10.25 5.49917 3
    endloop
  endfacet
  facet normal 1 0 0
    outer loop
      vertex 18.75 -1.5 3
      vertex 18.75 -6.50023 0
      vertex 18.75 -1.5 1.5
    endloop
  endfacet
  facet normal 1 -0 0
    outer loop
      vertex 18.75 -8 3
      vertex 18.75 -6.50023 0
      vertex 18.75 -1.5 3
    endloop
  endfacet
  facet normal 1 0 0
    outer loop
      vertex 18.75 -6.50023 0
      vertex 18.75 -8 3
      vertex 18.75 -8 1.49977
    endloop
  endfacet
  facet normal 1 0 0
    outer loop
      vertex 18.75 8 3
      vertex 18.75 6.50023 0
      vertex 18.75 8 1.49977
    endloop
  endfacet
  facet normal 1 -0 0
    outer loop
      vertex 18.75 1.5 3
      vertex 18.75 6.50023 0
      vertex 18.75 8 3
    endloop
  endfacet
  facet normal 1 -0 0
    outer loop
      vertex 18.75 1.5 1.5
      vertex 18.75 6.50023 0
      vertex 18.75 1.5 3
    endloop
  endfacet
  facet normal 1 -0 0
    outer loop
      vertex 18.75 -1.5 1.5
      vertex 18.75 6.50023 0
      vertex 18.75 1.5 1.5
    endloop
  endfacet
  facet normal 1 0 0
    outer loop
      vertex 18.75 6.50023 0
      vertex 18.75 -1.5 1.5
      vertex 18.75 -6.50023 0
    endloop
  endfacet
endsolid OpenSCAD_Model
