solid OpenSCAD_Model
  facet normal -1 0 0
    outer loop
      vertex -14.25 -6.7 0
      vertex -14.25 -8.2 1.5
      vertex -14.25 -6.7 0.00999928
    endloop
  endfacet
  facet normal -1 0 0
    outer loop
      vertex -14.25 -10.2 3
      vertex -14.25 -8.2 1.5
      vertex -14.25 -10.2 0
    endloop
  endfacet
  facet normal -1 0 0
    outer loop
      vertex -14.25 -10.2 0
      vertex -14.25 -8.2 1.5
      vertex -14.25 -6.7 0
    endloop
  endfacet
  facet normal -1 0 0
    outer loop
      vertex -14.25 8.2 1.5
      vertex -14.25 10.2 3
      vertex -14.25 10.2 0
    endloop
  endfacet
  facet normal -1 0 0
    outer loop
      vertex -14.25 8.2 3
      vertex -14.25 10.2 3
      vertex -14.25 8.2 1.5
    endloop
  endfacet
  facet normal -1 0 0
    outer loop
      vertex -14.25 6.7 0
      vertex -14.25 8.2 1.5
      vertex -14.25 10.2 0
    endloop
  endfacet
  facet normal -1 0 0
    outer loop
      vertex -14.25 8.2 1.5
      vertex -14.25 6.7 0
      vertex -14.25 6.7 0.00999928
    endloop
  endfacet
  facet normal -1 0 0
    outer loop
      vertex -14.25 10.2 3
      vertex -14.25 8.2 3
      vertex -14.25 10.2 4.5
    endloop
  endfacet
  facet normal -1 0 0
    outer loop
      vertex -14.25 -8.2 3
      vertex -14.25 10.2 4.5
      vertex -14.25 8.2 3
    endloop
  endfacet
  facet normal -1 0 0
    outer loop
      vertex -14.25 -8.2 1.5
      vertex -14.25 -10.2 3
      vertex -14.25 -8.2 3
    endloop
  endfacet
  facet normal -1 0 0
    outer loop
      vertex -14.25 -10.2 4.5
      vertex -14.25 -8.2 3
      vertex -14.25 -10.2 3
    endloop
  endfacet
  facet normal -1 0 0
    outer loop
      vertex -14.25 -8.2 3
      vertex -14.25 -10.2 4.5
      vertex -14.25 10.2 4.5
    endloop
  endfacet
  facet normal 0 0 -1
    outer loop
      vertex -6.25 -8.2 3
      vertex -7.66421 -4 3
      vertex -6.25 -2.58579 3
    endloop
  endfacet
  facet normal 0 0 -1
    outer loop
      vertex -6.25 -8.2 3
      vertex -10.25 -4 3
      vertex -7.66421 -4 3
    endloop
  endfacet
  facet normal 0 0 -1
    outer loop
      vertex -10.25 -4 3
      vertex -10.375 -3.875 3
      vertex -10.25 -3.9994 3
    endloop
  endfacet
  facet normal 0 0 -1
    outer loop
      vertex -14.25 -8.2 3
      vertex -10.25 -4 3
      vertex -6.25 -8.2 3
    endloop
  endfacet
  facet normal 0 -0 -1
    outer loop
      vertex -10.875 -3.875 3
      vertex -10.25 -4 3
      vertex -14.25 -8.2 3
    endloop
  endfacet
  facet normal 0 0 -1
    outer loop
      vertex -10.875 -3.875 3
      vertex -11.125 -3.125 3
      vertex -10.875 -3.375 3
    endloop
  endfacet
  facet normal 0 0 -1
    outer loop
      vertex -10.875 -3.875 3
      vertex -11.625 -3.125 3
      vertex -11.125 -3.125 3
    endloop
  endfacet
  facet normal 0 0 -1
    outer loop
      vertex -11.625 -3.125 3
      vertex -11.875 -2.375 3
      vertex -11.625 -2.625 3
    endloop
  endfacet
  facet normal 0 0 -1
    outer loop
      vertex -11.625 -3.125 3
      vertex -12.375 -2.375 3
      vertex -11.875 -2.375 3
    endloop
  endfacet
  facet normal 0 0 -1
    outer loop
      vertex -14.25 -8.2 3
      vertex -11.625 -3.125 3
      vertex -10.875 -3.875 3
    endloop
  endfacet
  facet normal 0 0 -1
    outer loop
      vertex -12.375 -2.375 3
      vertex -12.625 -1.625 3
      vertex -12.375 -1.875 3
    endloop
  endfacet
  facet normal 0 0 -1
    outer loop
      vertex -12.375 -2.375 3
      vertex -13.125 -1.625 3
      vertex -12.625 -1.625 3
    endloop
  endfacet
  facet normal -0 0 -1
    outer loop
      vertex -11.625 -3.125 3
      vertex -14.25 -8.2 3
      vertex -12.375 -2.375 3
    endloop
  endfacet
  facet normal 0 0 -1
    outer loop
      vertex -13.125 -1.625 3
      vertex -14.2494 0 3
      vertex -13.125 -1.125 3
    endloop
  endfacet
  facet normal -0 0 -1
    outer loop
      vertex -13.125 -1.625 3
      vertex -14.25 -8.2 3
      vertex -14.2494 0 3
    endloop
  endfacet
  facet normal -0 0 -1
    outer loop
      vertex -12.375 -2.375 3
      vertex -14.25 -8.2 3
      vertex -13.125 -1.625 3
    endloop
  endfacet
  facet normal 0 0 -1
    outer loop
      vertex -10.25 -4 3
      vertex -10.875 -3.875 3
      vertex -10.375 -3.875 3
    endloop
  endfacet
  facet normal 0 0 -1
    outer loop
      vertex -10.25 -3.9994 3
      vertex -10.375 -3.875 3
      vertex -10.375 -3.8744 3
    endloop
  endfacet
  facet normal 0 0 -1
    outer loop
      vertex -11.125 -3.125 3
      vertex -10.8744 -3.375 3
      vertex -10.875 -3.375 3
    endloop
  endfacet
  facet normal 0 0 -1
    outer loop
      vertex -10.8744 -3.375 3
      vertex -11.125 -3.125 3
      vertex -11.125 -3.1244 3
    endloop
  endfacet
  facet normal 0 0 -1
    outer loop
      vertex -11.875 -2.375 3
      vertex -11.6244 -2.625 3
      vertex -11.625 -2.625 3
    endloop
  endfacet
  facet normal 0 0 -1
    outer loop
      vertex -11.6244 -2.625 3
      vertex -11.875 -2.375 3
      vertex -11.875 -2.3744 3
    endloop
  endfacet
  facet normal 0 0 -1
    outer loop
      vertex -12.625 -1.625 3
      vertex -12.3744 -1.875 3
      vertex -12.375 -1.875 3
    endloop
  endfacet
  facet normal 0 0 -1
    outer loop
      vertex -12.3744 -1.875 3
      vertex -12.625 -1.625 3
      vertex -12.625 -1.6244 3
    endloop
  endfacet
  facet normal 0 0 -1
    outer loop
      vertex -13.1244 -1.125 3
      vertex -13.125 -1.125 3
      vertex -14.2494 0 3
    endloop
  endfacet
  facet normal -0 0 -1
    outer loop
      vertex -13.125 1.125 3
      vertex -14.2494 0 3
      vertex -13.125 1.625 3
    endloop
  endfacet
  facet normal 0 0 -1
    outer loop
      vertex -14.2494 0 3
      vertex -13.125 1.125 3
      vertex -13.1244 1.125 3
    endloop
  endfacet
  facet normal 0 0 -1
    outer loop
      vertex -12.625 1.625 3
      vertex -12.375 1.875 3
      vertex -12.625 1.6244 3
    endloop
  endfacet
  facet normal 0 0 -1
    outer loop
      vertex -12.625 1.6244 3
      vertex -12.375 1.875 3
      vertex -12.3744 1.875 3
    endloop
  endfacet
  facet normal 0 0 -1
    outer loop
      vertex -11.875 2.375 3
      vertex -11.625 2.625 3
      vertex -11.875 2.3744 3
    endloop
  endfacet
  facet normal 0 0 -1
    outer loop
      vertex -11.875 2.3744 3
      vertex -11.625 2.625 3
      vertex -11.6244 2.625 3
    endloop
  endfacet
  facet normal 0 0 -1
    outer loop
      vertex -11.125 3.125 3
      vertex -10.875 3.375 3
      vertex -11.125 3.1244 3
    endloop
  endfacet
  facet normal 0 0 -1
    outer loop
      vertex -11.125 3.1244 3
      vertex -10.875 3.375 3
      vertex -10.8744 3.375 3
    endloop
  endfacet
  facet normal 0 0 -1
    outer loop
      vertex -10.375 3.875 3
      vertex -10.25 3.9994 3
      vertex -10.375 3.8744 3
    endloop
  endfacet
  facet normal 0 0 -1
    outer loop
      vertex -7.66421 4 3
      vertex -6.25 8.2 3
      vertex -6.25 2.58579 3
    endloop
  endfacet
  facet normal 0 0 -1
    outer loop
      vertex -10.25 4 3
      vertex -6.25 8.2 3
      vertex -7.66421 4 3
    endloop
  endfacet
  facet normal -0 0 -1
    outer loop
      vertex -10.25 3.9994 3
      vertex -10.375 3.875 3
      vertex -10.25 4 3
    endloop
  endfacet
  facet normal 0 0 -1
    outer loop
      vertex -10.875 3.875 3
      vertex -10.25 4 3
      vertex -10.375 3.875 3
    endloop
  endfacet
  facet normal -0 0 -1
    outer loop
      vertex -10.25 4 3
      vertex -10.875 3.875 3
      vertex -14.25 8.2 3
    endloop
  endfacet
  facet normal -0 0 -1
    outer loop
      vertex -10.875 3.375 3
      vertex -11.125 3.125 3
      vertex -10.875 3.875 3
    endloop
  endfacet
  facet normal 0 0 -1
    outer loop
      vertex -11.625 3.125 3
      vertex -10.875 3.875 3
      vertex -11.125 3.125 3
    endloop
  endfacet
  facet normal -0 0 -1
    outer loop
      vertex -11.625 2.625 3
      vertex -11.875 2.375 3
      vertex -11.625 3.125 3
    endloop
  endfacet
  facet normal 0 0 -1
    outer loop
      vertex -12.375 2.375 3
      vertex -11.625 3.125 3
      vertex -11.875 2.375 3
    endloop
  endfacet
  facet normal 0 0 -1
    outer loop
      vertex -14.25 8.2 3
      vertex -11.625 3.125 3
      vertex -12.375 2.375 3
    endloop
  endfacet
  facet normal -0 0 -1
    outer loop
      vertex -12.375 1.875 3
      vertex -12.625 1.625 3
      vertex -12.375 2.375 3
    endloop
  endfacet
  facet normal 0 0 -1
    outer loop
      vertex -13.125 1.625 3
      vertex -12.375 2.375 3
      vertex -12.625 1.625 3
    endloop
  endfacet
  facet normal 0 0 -1
    outer loop
      vertex -14.25 8.2 3
      vertex -12.375 2.375 3
      vertex -13.125 1.625 3
    endloop
  endfacet
  facet normal 0 0 -1
    outer loop
      vertex -10.25 4 3
      vertex -14.25 8.2 3
      vertex -6.25 8.2 3
    endloop
  endfacet
  facet normal 0 0 -1
    outer loop
      vertex -11.625 3.125 3
      vertex -14.25 8.2 3
      vertex -10.875 3.875 3
    endloop
  endfacet
  facet normal 0 0 -1
    outer loop
      vertex -14.2494 0 3
      vertex -14.25 8.2 3
      vertex -13.125 1.625 3
    endloop
  endfacet
  facet normal 0 0 -1
    outer loop
      vertex -14.25 8.2 3
      vertex -14.2494 0 3
      vertex -14.25 -8.2 3
    endloop
  endfacet
  facet normal 1 0 0
    outer loop
      vertex -6.25 8.2 3
      vertex -6.25 10.2 3
      vertex -6.25 10.2 4.5
    endloop
  endfacet
  facet normal 1 0 0
    outer loop
      vertex -6.25 8.2 1.5
      vertex -6.25 10.2 3
      vertex -6.25 8.2 3
    endloop
  endfacet
  facet normal 1 0 0
    outer loop
      vertex -6.25 10.2 4.5
      vertex -6.25 2.58579 3
      vertex -6.25 8.2 3
    endloop
  endfacet
  facet normal 1 0 0
    outer loop
      vertex -6.25 2.58579 3
      vertex -6.25 -2.58579 3
      vertex -6.25 2.58579 0
    endloop
  endfacet
  facet normal 1 0 0
    outer loop
      vertex -6.25 10.2 4.5
      vertex -6.25 -2.58579 3
      vertex -6.25 2.58579 3
    endloop
  endfacet
  facet normal 1 -0 0
    outer loop
      vertex -6.25 -10.2 4.5
      vertex -6.25 -2.58579 3
      vertex -6.25 10.2 4.5
    endloop
  endfacet
  facet normal 1 0 0
    outer loop
      vertex -6.25 -10.2 3
      vertex -6.25 -8.2 3
      vertex -6.25 -10.2 4.5
    endloop
  endfacet
  facet normal 1 0 0
    outer loop
      vertex -6.25 -2.58579 3
      vertex -6.25 -10.2 4.5
      vertex -6.25 -8.2 3
    endloop
  endfacet
  facet normal 1 0 0
    outer loop
      vertex -6.25 10.2 3
      vertex -6.25 8.2 1.5
      vertex -6.25 10.2 0
    endloop
  endfacet
  facet normal 1 0 0
    outer loop
      vertex -6.25 6.7 0
      vertex -6.25 8.2 1.5
      vertex -6.25 6.7 0.00999928
    endloop
  endfacet
  facet normal 1 0 0
    outer loop
      vertex -6.25 8.2 1.5
      vertex -6.25 6.7 0
      vertex -6.25 10.2 0
    endloop
  endfacet
  facet normal 1 0 0
    outer loop
      vertex -6.25 2.58579 0
      vertex -6.25 -2.58579 3
      vertex -6.25 -2.58579 0
    endloop
  endfacet
  facet normal 1 0 0
    outer loop
      vertex -6.25 -8.2 1.5
      vertex -6.25 -6.7 0
      vertex -6.25 -6.7 0.00999928
    endloop
  endfacet
  facet normal 1 0 0
    outer loop
      vertex -6.25 -8.2 3
      vertex -6.25 -10.2 3
      vertex -6.25 -8.2 1.5
    endloop
  endfacet
  facet normal 1 0 0
    outer loop
      vertex -6.25 -10.2 0
      vertex -6.25 -8.2 1.5
      vertex -6.25 -10.2 3
    endloop
  endfacet
  facet normal 1 0 0
    outer loop
      vertex -6.25 -8.2 1.5
      vertex -6.25 -10.2 0
      vertex -6.25 -6.7 0
    endloop
  endfacet
  facet normal 0 0 -1
    outer loop
      vertex -14.25 6.7 0
      vertex -6.25 10.2 0
      vertex -6.25 6.7 0
    endloop
  endfacet
  facet normal -0 0 -1
    outer loop
      vertex -6.25 10.2 0
      vertex -14.25 6.7 0
      vertex -14.25 10.2 0
    endloop
  endfacet
  facet normal 0 -1 0
    outer loop
      vertex -14.25 8.2 1.5
      vertex -6.25 8.2 3
      vertex -14.25 8.2 3
    endloop
  endfacet
  facet normal 0 -1 -0
    outer loop
      vertex -6.25 8.2 3
      vertex -14.25 8.2 1.5
      vertex -6.25 8.2 1.5
    endloop
  endfacet
  facet normal 0 1 -0
    outer loop
      vertex -6.25 10.2 0
      vertex -14.25 10.2 3
      vertex -6.25 10.2 3
    endloop
  endfacet
  facet normal 0 1 0
    outer loop
      vertex -14.25 10.2 3
      vertex -6.25 10.2 0
      vertex -14.25 10.2 0
    endloop
  endfacet
  facet normal 0 -0.704738 0.709468
    outer loop
      vertex -14.25 8.2 1.5
      vertex -6.25 6.7 0.00999928
      vertex -6.25 8.2 1.5
    endloop
  endfacet
  facet normal 0 -0.704738 0.709468
    outer loop
      vertex -6.25 6.7 0.00999928
      vertex -14.25 8.2 1.5
      vertex -14.25 6.7 0.00999928
    endloop
  endfacet
  facet normal 0 -1 0
    outer loop
      vertex -14.25 6.7 0
      vertex -6.25 6.7 0.00999928
      vertex -14.25 6.7 0.00999928
    endloop
  endfacet
  facet normal 0 -1 -0
    outer loop
      vertex -6.25 6.7 0.00999928
      vertex -14.25 6.7 0
      vertex -6.25 6.7 0
    endloop
  endfacet
  facet normal 0 0 -1
    outer loop
      vertex -14.25 -10.2 0
      vertex -6.25 -6.7 0
      vertex -6.25 -10.2 0
    endloop
  endfacet
  facet normal -0 0 -1
    outer loop
      vertex -6.25 -6.7 0
      vertex -14.25 -10.2 0
      vertex -14.25 -6.7 0
    endloop
  endfacet
  facet normal 0 1 -0
    outer loop
      vertex -6.25 -8.2 1.5
      vertex -14.25 -8.2 3
      vertex -6.25 -8.2 3
    endloop
  endfacet
  facet normal 0 1 0
    outer loop
      vertex -14.25 -8.2 3
      vertex -6.25 -8.2 1.5
      vertex -14.25 -8.2 1.5
    endloop
  endfacet
  facet normal 0 -1 0
    outer loop
      vertex -14.25 -10.2 0
      vertex -6.25 -10.2 3
      vertex -14.25 -10.2 3
    endloop
  endfacet
  facet normal 0 -1 -0
    outer loop
      vertex -6.25 -10.2 3
      vertex -14.25 -10.2 0
      vertex -6.25 -10.2 0
    endloop
  endfacet
  facet normal -0 0.704738 0.709468
    outer loop
      vertex -14.25 -6.7 0.00999928
      vertex -6.25 -8.2 1.5
      vertex -6.25 -6.7 0.00999928
    endloop
  endfacet
  facet normal 0 0.704738 0.709468
    outer loop
      vertex -6.25 -8.2 1.5
      vertex -14.25 -6.7 0.00999928
      vertex -14.25 -8.2 1.5
    endloop
  endfacet
  facet normal 0 1 -0
    outer loop
      vertex -6.25 -6.7 0
      vertex -14.25 -6.7 0.00999928
      vertex -6.25 -6.7 0.00999928
    endloop
  endfacet
  facet normal 0 1 0
    outer loop
      vertex -14.25 -6.7 0.00999928
      vertex -6.25 -6.7 0
      vertex -14.25 -6.7 0
    endloop
  endfacet
  facet normal 0.707107 -0.707107 0
    outer loop
      vertex -7.66421 -4 3
      vertex -6.25 -2.58579 0
      vertex -6.25 -2.58579 3
    endloop
  endfacet
  facet normal 0.707107 -0.707107 0
    outer loop
      vertex -6.25 -2.58579 0
      vertex -7.66421 -4 3
      vertex -7.66421 -4 0
    endloop
  endfacet
  facet normal 0 0 -1
    outer loop
      vertex -11.125 -3.1244 0
      vertex -10.8744 3.375 0
      vertex -10.8744 -3.375 0
    endloop
  endfacet
  facet normal 0 0 -1
    outer loop
      vertex -10.8744 3.375 0
      vertex -11.125 -3.1244 0
      vertex -11.125 3.1244 0
    endloop
  endfacet
  facet normal 0 0 -1
    outer loop
      vertex -10.875 -3.875 0
      vertex -10.375 -3.8744 0
      vertex -10.375 -3.875 0
    endloop
  endfacet
  facet normal 0 0 -1
    outer loop
      vertex -10.375 -3.8744 0
      vertex -10.8744 -3.375 0
      vertex -10.375 3.8744 0
    endloop
  endfacet
  facet normal 0 0 -1
    outer loop
      vertex -10.8744 3.375 0
      vertex -10.375 3.8744 0
      vertex -10.8744 -3.375 0
    endloop
  endfacet
  facet normal -0 0 -1
    outer loop
      vertex -10.375 -3.8744 0
      vertex -10.875 -3.875 0
      vertex -10.8744 -3.375 0
    endloop
  endfacet
  facet normal -0 0 -1
    outer loop
      vertex -10.8744 -3.375 0
      vertex -10.875 -3.875 0
      vertex -10.875 -3.375 0
    endloop
  endfacet
  facet normal 0 0 -1
    outer loop
      vertex -10.375 3.8744 0
      vertex -6.25 2.58579 0
      vertex -10.375 -3.8744 0
    endloop
  endfacet
  facet normal 0 0 -1
    outer loop
      vertex -6.25 2.58579 0
      vertex -10.375 3.8744 0
      vertex -10.25 3.9994 0
    endloop
  endfacet
  facet normal 0 0 -1
    outer loop
      vertex -10.375 -3.8744 0
      vertex -7.66421 -4 0
      vertex -10.25 -3.9994 0
    endloop
  endfacet
  facet normal 0 0 -1
    outer loop
      vertex -7.66421 -4 0
      vertex -10.375 -3.8744 0
      vertex -6.25 -2.58579 0
    endloop
  endfacet
  facet normal 0 0 -1
    outer loop
      vertex -10.25 -3.9994 0
      vertex -7.66421 -4 0
      vertex -10.25 -4 0
    endloop
  endfacet
  facet normal -0 0 -1
    outer loop
      vertex -6.25 -2.58579 0
      vertex -10.375 -3.8744 0
      vertex -6.25 2.58579 0
    endloop
  endfacet
  facet normal 0 0 -1
    outer loop
      vertex -6.25 2.58579 0
      vertex -10.25 3.9994 0
      vertex -7.66421 4 0
    endloop
  endfacet
  facet normal -0 0 -1
    outer loop
      vertex -7.66421 4 0
      vertex -10.25 3.9994 0
      vertex -10.25 4 0
    endloop
  endfacet
  facet normal 0 0 -1
    outer loop
      vertex -10.875 3.875 0
      vertex -10.375 3.8744 0
      vertex -10.8744 3.375 0
    endloop
  endfacet
  facet normal 0 0 -1
    outer loop
      vertex -10.875 3.875 0
      vertex -10.8744 3.375 0
      vertex -10.875 3.375 0
    endloop
  endfacet
  facet normal 0 0 -1
    outer loop
      vertex -10.375 3.8744 0
      vertex -10.875 3.875 0
      vertex -10.375 3.875 0
    endloop
  endfacet
  facet normal 0 0 -1
    outer loop
      vertex -11.875 -2.3744 0
      vertex -11.6244 2.625 0
      vertex -11.6244 -2.625 0
    endloop
  endfacet
  facet normal 0 0 -1
    outer loop
      vertex -11.6244 2.625 0
      vertex -11.875 -2.3744 0
      vertex -11.875 2.3744 0
    endloop
  endfacet
  facet normal 0 0 -1
    outer loop
      vertex -11.625 -3.125 0
      vertex -11.125 -3.1244 0
      vertex -11.125 -3.125 0
    endloop
  endfacet
  facet normal 0 0 -1
    outer loop
      vertex -11.125 -3.1244 0
      vertex -11.6244 -2.625 0
      vertex -11.125 3.1244 0
    endloop
  endfacet
  facet normal 0 0 -1
    outer loop
      vertex -11.6244 2.625 0
      vertex -11.125 3.1244 0
      vertex -11.6244 -2.625 0
    endloop
  endfacet
  facet normal -0 0 -1
    outer loop
      vertex -11.125 -3.1244 0
      vertex -11.625 -3.125 0
      vertex -11.6244 -2.625 0
    endloop
  endfacet
  facet normal -0 0 -1
    outer loop
      vertex -11.6244 -2.625 0
      vertex -11.625 -3.125 0
      vertex -11.625 -2.625 0
    endloop
  endfacet
  facet normal 0 0 -1
    outer loop
      vertex -11.625 3.125 0
      vertex -11.125 3.1244 0
      vertex -11.6244 2.625 0
    endloop
  endfacet
  facet normal 0 0 -1
    outer loop
      vertex -11.625 3.125 0
      vertex -11.6244 2.625 0
      vertex -11.625 2.625 0
    endloop
  endfacet
  facet normal 0 0 -1
    outer loop
      vertex -11.125 3.1244 0
      vertex -11.625 3.125 0
      vertex -11.125 3.125 0
    endloop
  endfacet
  facet normal 0 0 -1
    outer loop
      vertex -12.625 -1.6244 0
      vertex -12.3744 1.875 0
      vertex -12.3744 -1.875 0
    endloop
  endfacet
  facet normal 0 0 -1
    outer loop
      vertex -12.3744 1.875 0
      vertex -12.625 -1.6244 0
      vertex -12.625 1.6244 0
    endloop
  endfacet
  facet normal 0 0 -1
    outer loop
      vertex -12.375 -2.375 0
      vertex -11.875 -2.3744 0
      vertex -11.875 -2.375 0
    endloop
  endfacet
  facet normal 0 0 -1
    outer loop
      vertex -11.875 -2.3744 0
      vertex -12.3744 -1.875 0
      vertex -11.875 2.3744 0
    endloop
  endfacet
  facet normal 0 0 -1
    outer loop
      vertex -12.3744 1.875 0
      vertex -11.875 2.3744 0
      vertex -12.3744 -1.875 0
    endloop
  endfacet
  facet normal -0 0 -1
    outer loop
      vertex -11.875 -2.3744 0
      vertex -12.375 -2.375 0
      vertex -12.3744 -1.875 0
    endloop
  endfacet
  facet normal -0 0 -1
    outer loop
      vertex -12.3744 -1.875 0
      vertex -12.375 -2.375 0
      vertex -12.375 -1.875 0
    endloop
  endfacet
  facet normal 0 0 -1
    outer loop
      vertex -12.375 2.375 0
      vertex -11.875 2.3744 0
      vertex -12.3744 1.875 0
    endloop
  endfacet
  facet normal 0 0 -1
    outer loop
      vertex -12.375 2.375 0
      vertex -12.3744 1.875 0
      vertex -12.375 1.875 0
    endloop
  endfacet
  facet normal 0 0 -1
    outer loop
      vertex -11.875 2.3744 0
      vertex -12.375 2.375 0
      vertex -11.875 2.375 0
    endloop
  endfacet
  facet normal 0 0 -1
    outer loop
      vertex -13.1244 -1.125 0
      vertex -14.2494 0 0
      vertex -13.1244 1.125 0
    endloop
  endfacet
  facet normal 0 0 -1
    outer loop
      vertex -13.125 -1.625 0
      vertex -12.625 -1.6244 0
      vertex -12.625 -1.625 0
    endloop
  endfacet
  facet normal 0 0 -1
    outer loop
      vertex -12.625 -1.6244 0
      vertex -13.1244 -1.125 0
      vertex -12.625 1.6244 0
    endloop
  endfacet
  facet normal 0 0 -1
    outer loop
      vertex -13.1244 1.125 0
      vertex -12.625 1.6244 0
      vertex -13.1244 -1.125 0
    endloop
  endfacet
  facet normal -0 0 -1
    outer loop
      vertex -12.625 -1.6244 0
      vertex -13.125 -1.625 0
      vertex -13.1244 -1.125 0
    endloop
  endfacet
  facet normal -0 0 -1
    outer loop
      vertex -13.1244 -1.125 0
      vertex -13.125 -1.625 0
      vertex -13.125 -1.125 0
    endloop
  endfacet
  facet normal 0 0 -1
    outer loop
      vertex -13.125 1.625 0
      vertex -12.625 1.6244 0
      vertex -13.1244 1.125 0
    endloop
  endfacet
  facet normal 0 0 -1
    outer loop
      vertex -13.125 1.625 0
      vertex -13.1244 1.125 0
      vertex -13.125 1.125 0
    endloop
  endfacet
  facet normal 0 0 -1
    outer loop
      vertex -12.625 1.6244 0
      vertex -13.125 1.625 0
      vertex -12.625 1.625 0
    endloop
  endfacet
  facet normal 0.707107 0.707107 0
    outer loop
      vertex -6.25 2.58579 3
      vertex -7.66421 4 0
      vertex -7.66421 4 3
    endloop
  endfacet
  facet normal 0.707107 0.707107 0
    outer loop
      vertex -7.66421 4 0
      vertex -6.25 2.58579 3
      vertex -6.25 2.58579 0
    endloop
  endfacet
  facet normal -1 0 0
    outer loop
      vertex -10.25 -4 0
      vertex -10.25 -3.9994 3
      vertex -10.25 -3.9994 0
    endloop
  endfacet
  facet normal -1 -0 0
    outer loop
      vertex -10.25 -3.9994 3
      vertex -10.25 -4 0
      vertex -10.25 -4 3
    endloop
  endfacet
  facet normal -1 0 0
    outer loop
      vertex -10.25 3.9994 0
      vertex -10.25 4 3
      vertex -10.25 4 0
    endloop
  endfacet
  facet normal -1 -0 0
    outer loop
      vertex -10.25 4 3
      vertex -10.25 3.9994 0
      vertex -10.25 3.9994 3
    endloop
  endfacet
  facet normal 0 1 -0
    outer loop
      vertex -7.66421 4 0
      vertex -10.25 4 3
      vertex -7.66421 4 3
    endloop
  endfacet
  facet normal 0 1 0
    outer loop
      vertex -10.25 4 3
      vertex -7.66421 4 0
      vertex -10.25 4 0
    endloop
  endfacet
  facet normal 0 -1 0
    outer loop
      vertex -10.25 -4 0
      vertex -7.66421 -4 3
      vertex -10.25 -4 3
    endloop
  endfacet
  facet normal 0 -1 -0
    outer loop
      vertex -7.66421 -4 3
      vertex -10.25 -4 0
      vertex -7.66421 -4 0
    endloop
  endfacet
  facet normal -1 0 0
    outer loop
      vertex -10.875 3.375 0
      vertex -10.875 3.875 3
      vertex -10.875 3.875 0
    endloop
  endfacet
  facet normal -1 -0 0
    outer loop
      vertex -10.875 3.875 3
      vertex -10.875 3.375 0
      vertex -10.875 3.375 3
    endloop
  endfacet
  facet normal 1 -0 0
    outer loop
      vertex -10.375 3.8744 3
      vertex -10.375 3.875 0
      vertex -10.375 3.875 3
    endloop
  endfacet
  facet normal 1 0 0
    outer loop
      vertex -10.375 3.875 0
      vertex -10.375 3.8744 3
      vertex -10.375 3.8744 0
    endloop
  endfacet
  facet normal 0 1 -0
    outer loop
      vertex -10.375 3.875 0
      vertex -10.875 3.875 3
      vertex -10.375 3.875 3
    endloop
  endfacet
  facet normal 0 1 0
    outer loop
      vertex -10.875 3.875 3
      vertex -10.375 3.875 0
      vertex -10.875 3.875 0
    endloop
  endfacet
  facet normal 0 -1 0
    outer loop
      vertex -10.875 3.375 0
      vertex -10.8744 3.375 3
      vertex -10.875 3.375 3
    endloop
  endfacet
  facet normal 0 -1 -0
    outer loop
      vertex -10.8744 3.375 3
      vertex -10.875 3.375 0
      vertex -10.8744 3.375 0
    endloop
  endfacet
  facet normal -1 0 0
    outer loop
      vertex -11.625 2.625 0
      vertex -11.625 3.125 3
      vertex -11.625 3.125 0
    endloop
  endfacet
  facet normal -1 -0 0
    outer loop
      vertex -11.625 3.125 3
      vertex -11.625 2.625 0
      vertex -11.625 2.625 3
    endloop
  endfacet
  facet normal 1 -0 0
    outer loop
      vertex -11.125 3.1244 3
      vertex -11.125 3.125 0
      vertex -11.125 3.125 3
    endloop
  endfacet
  facet normal 1 0 0
    outer loop
      vertex -11.125 3.125 0
      vertex -11.125 3.1244 3
      vertex -11.125 3.1244 0
    endloop
  endfacet
  facet normal 0 1 -0
    outer loop
      vertex -11.125 3.125 0
      vertex -11.625 3.125 3
      vertex -11.125 3.125 3
    endloop
  endfacet
  facet normal 0 1 0
    outer loop
      vertex -11.625 3.125 3
      vertex -11.125 3.125 0
      vertex -11.625 3.125 0
    endloop
  endfacet
  facet normal 0 -1 0
    outer loop
      vertex -11.625 2.625 0
      vertex -11.6244 2.625 3
      vertex -11.625 2.625 3
    endloop
  endfacet
  facet normal 0 -1 -0
    outer loop
      vertex -11.6244 2.625 3
      vertex -11.625 2.625 0
      vertex -11.6244 2.625 0
    endloop
  endfacet
  facet normal -1 0 0
    outer loop
      vertex -12.375 1.875 0
      vertex -12.375 2.375 3
      vertex -12.375 2.375 0
    endloop
  endfacet
  facet normal -1 -0 0
    outer loop
      vertex -12.375 2.375 3
      vertex -12.375 1.875 0
      vertex -12.375 1.875 3
    endloop
  endfacet
  facet normal 1 -0 0
    outer loop
      vertex -11.875 2.3744 3
      vertex -11.875 2.375 0
      vertex -11.875 2.375 3
    endloop
  endfacet
  facet normal 1 0 0
    outer loop
      vertex -11.875 2.375 0
      vertex -11.875 2.3744 3
      vertex -11.875 2.3744 0
    endloop
  endfacet
  facet normal 0 -1 0
    outer loop
      vertex -12.375 1.875 0
      vertex -12.3744 1.875 3
      vertex -12.375 1.875 3
    endloop
  endfacet
  facet normal 0 -1 -0
    outer loop
      vertex -12.3744 1.875 3
      vertex -12.375 1.875 0
      vertex -12.3744 1.875 0
    endloop
  endfacet
  facet normal 0 1 -0
    outer loop
      vertex -11.875 2.375 0
      vertex -12.375 2.375 3
      vertex -11.875 2.375 3
    endloop
  endfacet
  facet normal 0 1 0
    outer loop
      vertex -12.375 2.375 3
      vertex -11.875 2.375 0
      vertex -12.375 2.375 0
    endloop
  endfacet
  facet normal -1 0 0
    outer loop
      vertex -13.125 1.125 0
      vertex -13.125 1.625 3
      vertex -13.125 1.625 0
    endloop
  endfacet
  facet normal -1 -0 0
    outer loop
      vertex -13.125 1.625 3
      vertex -13.125 1.125 0
      vertex -13.125 1.125 3
    endloop
  endfacet
  facet normal 1 -0 0
    outer loop
      vertex -12.625 1.6244 3
      vertex -12.625 1.625 0
      vertex -12.625 1.625 3
    endloop
  endfacet
  facet normal 1 0 0
    outer loop
      vertex -12.625 1.625 0
      vertex -12.625 1.6244 3
      vertex -12.625 1.6244 0
    endloop
  endfacet
  facet normal 0 1 -0
    outer loop
      vertex -12.625 1.625 0
      vertex -13.125 1.625 3
      vertex -12.625 1.625 3
    endloop
  endfacet
  facet normal 0 1 0
    outer loop
      vertex -13.125 1.625 3
      vertex -12.625 1.625 0
      vertex -13.125 1.625 0
    endloop
  endfacet
  facet normal 0 -1 0
    outer loop
      vertex -13.125 1.125 0
      vertex -13.1244 1.125 3
      vertex -13.125 1.125 3
    endloop
  endfacet
  facet normal 0 -1 -0
    outer loop
      vertex -13.1244 1.125 3
      vertex -13.125 1.125 0
      vertex -13.1244 1.125 0
    endloop
  endfacet
  facet normal -1 0 0
    outer loop
      vertex -10.875 -3.875 0
      vertex -10.875 -3.375 3
      vertex -10.875 -3.375 0
    endloop
  endfacet
  facet normal -1 -0 0
    outer loop
      vertex -10.875 -3.375 3
      vertex -10.875 -3.875 0
      vertex -10.875 -3.875 3
    endloop
  endfacet
  facet normal 1 -0 0
    outer loop
      vertex -10.375 -3.875 3
      vertex -10.375 -3.8744 0
      vertex -10.375 -3.8744 3
    endloop
  endfacet
  facet normal 1 0 0
    outer loop
      vertex -10.375 -3.8744 0
      vertex -10.375 -3.875 3
      vertex -10.375 -3.875 0
    endloop
  endfacet
  facet normal 0 -1 0
    outer loop
      vertex -10.875 -3.875 0
      vertex -10.375 -3.875 3
      vertex -10.875 -3.875 3
    endloop
  endfacet
  facet normal 0 -1 -0
    outer loop
      vertex -10.375 -3.875 3
      vertex -10.875 -3.875 0
      vertex -10.375 -3.875 0
    endloop
  endfacet
  facet normal 0 1 -0
    outer loop
      vertex -10.8744 -3.375 0
      vertex -10.875 -3.375 3
      vertex -10.8744 -3.375 3
    endloop
  endfacet
  facet normal 0 1 0
    outer loop
      vertex -10.875 -3.375 3
      vertex -10.8744 -3.375 0
      vertex -10.875 -3.375 0
    endloop
  endfacet
  facet normal -1 0 0
    outer loop
      vertex -11.625 -3.125 0
      vertex -11.625 -2.625 3
      vertex -11.625 -2.625 0
    endloop
  endfacet
  facet normal -1 -0 0
    outer loop
      vertex -11.625 -2.625 3
      vertex -11.625 -3.125 0
      vertex -11.625 -3.125 3
    endloop
  endfacet
  facet normal 1 -0 0
    outer loop
      vertex -11.125 -3.125 3
      vertex -11.125 -3.1244 0
      vertex -11.125 -3.1244 3
    endloop
  endfacet
  facet normal 1 0 0
    outer loop
      vertex -11.125 -3.1244 0
      vertex -11.125 -3.125 3
      vertex -11.125 -3.125 0
    endloop
  endfacet
  facet normal 0 -1 0
    outer loop
      vertex -11.625 -3.125 0
      vertex -11.125 -3.125 3
      vertex -11.625 -3.125 3
    endloop
  endfacet
  facet normal 0 -1 -0
    outer loop
      vertex -11.125 -3.125 3
      vertex -11.625 -3.125 0
      vertex -11.125 -3.125 0
    endloop
  endfacet
  facet normal 0 1 -0
    outer loop
      vertex -11.6244 -2.625 0
      vertex -11.625 -2.625 3
      vertex -11.6244 -2.625 3
    endloop
  endfacet
  facet normal 0 1 0
    outer loop
      vertex -11.625 -2.625 3
      vertex -11.6244 -2.625 0
      vertex -11.625 -2.625 0
    endloop
  endfacet
  facet normal -1 0 0
    outer loop
      vertex -12.375 -2.375 0
      vertex -12.375 -1.875 3
      vertex -12.375 -1.875 0
    endloop
  endfacet
  facet normal -1 -0 0
    outer loop
      vertex -12.375 -1.875 3
      vertex -12.375 -2.375 0
      vertex -12.375 -2.375 3
    endloop
  endfacet
  facet normal 1 -0 0
    outer loop
      vertex -11.875 -2.375 3
      vertex -11.875 -2.3744 0
      vertex -11.875 -2.3744 3
    endloop
  endfacet
  facet normal 1 0 0
    outer loop
      vertex -11.875 -2.3744 0
      vertex -11.875 -2.375 3
      vertex -11.875 -2.375 0
    endloop
  endfacet
  facet normal 0 1 -0
    outer loop
      vertex -12.3744 -1.875 0
      vertex -12.375 -1.875 3
      vertex -12.3744 -1.875 3
    endloop
  endfacet
  facet normal 0 1 0
    outer loop
      vertex -12.375 -1.875 3
      vertex -12.3744 -1.875 0
      vertex -12.375 -1.875 0
    endloop
  endfacet
  facet normal 0 -1 0
    outer loop
      vertex -12.375 -2.375 0
      vertex -11.875 -2.375 3
      vertex -12.375 -2.375 3
    endloop
  endfacet
  facet normal 0 -1 -0
    outer loop
      vertex -11.875 -2.375 3
      vertex -12.375 -2.375 0
      vertex -11.875 -2.375 0
    endloop
  endfacet
  facet normal -1 0 0
    outer loop
      vertex -13.125 -1.625 0
      vertex -13.125 -1.125 3
      vertex -13.125 -1.125 0
    endloop
  endfacet
  facet normal -1 -0 0
    outer loop
      vertex -13.125 -1.125 3
      vertex -13.125 -1.625 0
      vertex -13.125 -1.625 3
    endloop
  endfacet
  facet normal 1 -0 0
    outer loop
      vertex -12.625 -1.625 3
      vertex -12.625 -1.6244 0
      vertex -12.625 -1.6244 3
    endloop
  endfacet
  facet normal 1 0 0
    outer loop
      vertex -12.625 -1.6244 0
      vertex -12.625 -1.625 3
      vertex -12.625 -1.625 0
    endloop
  endfacet
  facet normal 0 -1 0
    outer loop
      vertex -13.125 -1.625 0
      vertex -12.625 -1.625 3
      vertex -13.125 -1.625 3
    endloop
  endfacet
  facet normal 0 -1 -0
    outer loop
      vertex -12.625 -1.625 3
      vertex -13.125 -1.625 0
      vertex -12.625 -1.625 0
    endloop
  endfacet
  facet normal 0 1 -0
    outer loop
      vertex -13.1244 -1.125 0
      vertex -13.125 -1.125 3
      vertex -13.1244 -1.125 3
    endloop
  endfacet
  facet normal 0 1 0
    outer loop
      vertex -13.125 -1.125 3
      vertex -13.1244 -1.125 0
      vertex -13.125 -1.125 0
    endloop
  endfacet
  facet normal -0 0 1
    outer loop
      vertex -14.25 10.2 4.5
      vertex -6.25 -10.2 4.5
      vertex -6.25 10.2 4.5
    endloop
  endfacet
  facet normal 0 0 1
    outer loop
      vertex -6.25 -10.2 4.5
      vertex -14.25 10.2 4.5
      vertex -14.25 -10.2 4.5
    endloop
  endfacet
  facet normal 0 -1 0
    outer loop
      vertex -14.25 -10.2 3
      vertex -6.25 -10.2 4.5
      vertex -14.25 -10.2 4.5
    endloop
  endfacet
  facet normal 0 -1 -0
    outer loop
      vertex -6.25 -10.2 4.5
      vertex -14.25 -10.2 3
      vertex -6.25 -10.2 3
    endloop
  endfacet
  facet normal 0 1 -0
    outer loop
      vertex -6.25 10.2 3
      vertex -14.25 10.2 4.5
      vertex -6.25 10.2 4.5
    endloop
  endfacet
  facet normal 0 1 0
    outer loop
      vertex -14.25 10.2 4.5
      vertex -6.25 10.2 3
      vertex -14.25 10.2 3
    endloop
  endfacet
  facet normal -0.707107 -0.707107 0
    outer loop
      vertex -10.25 -3.9994 0
      vertex -10.375 -3.8744 3
      vertex -10.375 -3.8744 0
    endloop
  endfacet
  facet normal -0.707107 -0.707107 0
    outer loop
      vertex -10.375 -3.8744 3
      vertex -10.25 -3.9994 0
      vertex -10.25 -3.9994 3
    endloop
  endfacet
  facet normal -0.707107 -0.707107 0
    outer loop
      vertex -13.1244 -1.125 0
      vertex -14.2494 0 3
      vertex -14.2494 0 0
    endloop
  endfacet
  facet normal -0.707107 -0.707107 0
    outer loop
      vertex -14.2494 0 3
      vertex -13.1244 -1.125 0
      vertex -13.1244 -1.125 3
    endloop
  endfacet
  facet normal -0.707107 -0.707107 0
    outer loop
      vertex -12.3744 -1.875 0
      vertex -12.625 -1.6244 3
      vertex -12.625 -1.6244 0
    endloop
  endfacet
  facet normal -0.707107 -0.707107 0
    outer loop
      vertex -12.625 -1.6244 3
      vertex -12.3744 -1.875 0
      vertex -12.3744 -1.875 3
    endloop
  endfacet
  facet normal -0.707107 -0.707107 0
    outer loop
      vertex -11.6244 -2.625 0
      vertex -11.875 -2.3744 3
      vertex -11.875 -2.3744 0
    endloop
  endfacet
  facet normal -0.707107 -0.707107 0
    outer loop
      vertex -11.875 -2.3744 3
      vertex -11.6244 -2.625 0
      vertex -11.6244 -2.625 3
    endloop
  endfacet
  facet normal -0.707107 -0.707107 0
    outer loop
      vertex -10.8744 -3.375 0
      vertex -11.125 -3.1244 3
      vertex -11.125 -3.1244 0
    endloop
  endfacet
  facet normal -0.707107 -0.707107 0
    outer loop
      vertex -11.125 -3.1244 3
      vertex -10.8744 -3.375 0
      vertex -10.8744 -3.375 3
    endloop
  endfacet
  facet normal -0.707107 0.707107 0
    outer loop
      vertex -14.2494 0 0
      vertex -13.1244 1.125 3
      vertex -13.1244 1.125 0
    endloop
  endfacet
  facet normal -0.707107 0.707107 0
    outer loop
      vertex -13.1244 1.125 3
      vertex -14.2494 0 0
      vertex -14.2494 0 3
    endloop
  endfacet
  facet normal -0.707107 0.707107 0
    outer loop
      vertex -10.375 3.8744 0
      vertex -10.25 3.9994 3
      vertex -10.25 3.9994 0
    endloop
  endfacet
  facet normal -0.707107 0.707107 0
    outer loop
      vertex -10.25 3.9994 3
      vertex -10.375 3.8744 0
      vertex -10.375 3.8744 3
    endloop
  endfacet
  facet normal -0.707107 0.707107 0
    outer loop
      vertex -12.625 1.6244 0
      vertex -12.3744 1.875 3
      vertex -12.3744 1.875 0
    endloop
  endfacet
  facet normal -0.707107 0.707107 0
    outer loop
      vertex -12.3744 1.875 3
      vertex -12.625 1.6244 0
      vertex -12.625 1.6244 3
    endloop
  endfacet
  facet normal -0.707107 0.707107 0
    outer loop
      vertex -11.875 2.3744 0
      vertex -11.6244 2.625 3
      vertex -11.6244 2.625 0
    endloop
  endfacet
  facet normal -0.707107 0.707107 0
    outer loop
      vertex -11.6244 2.625 3
      vertex -11.875 2.3744 0
      vertex -11.875 2.3744 3
    endloop
  endfacet
  facet normal -0.707107 0.707107 0
    outer loop
      vertex -11.125 3.1244 0
      vertex -10.8744 3.375 3
      vertex -10.8744 3.375 0
    endloop
  endfacet
  facet normal -0.707107 0.707107 0
    outer loop
      vertex -10.8744 3.375 3
      vertex -11.125 3.1244 0
      vertex -11.125 3.1244 3
    endloop
  endfacet
  facet normal 1 0 0
    outer loop
      vertex 14.25 8.2 3
      vertex 14.25 10.2 3
      vertex 14.25 10.2 4.5
    endloop
  endfacet
  facet normal 1 0 0
    outer loop
      vertex 14.25 8.2 1.5
      vertex 14.25 10.2 3
      vertex 14.25 8.2 3
    endloop
  endfacet
  facet normal 1 0 0
    outer loop
      vertex 14.25 10.2 4.5
      vertex 14.25 -8.2 3
      vertex 14.25 8.2 3
    endloop
  endfacet
  facet normal 1 0 0
    outer loop
      vertex 14.25 -10.2 3
      vertex 14.25 -8.2 3
      vertex 14.25 -10.2 4.5
    endloop
  endfacet
  facet normal 1 -0 0
    outer loop
      vertex 14.25 -10.2 4.5
      vertex 14.25 -8.2 3
      vertex 14.25 10.2 4.5
    endloop
  endfacet
  facet normal 1 0 0
    outer loop
      vertex 14.25 10.2 3
      vertex 14.25 8.2 1.5
      vertex 14.25 10.2 0
    endloop
  endfacet
  facet normal 1 0 0
    outer loop
      vertex 14.25 6.7 0
      vertex 14.25 8.2 1.5
      vertex 14.25 6.7 0.00999928
    endloop
  endfacet
  facet normal 1 0 0
    outer loop
      vertex 14.25 8.2 1.5
      vertex 14.25 6.7 0
      vertex 14.25 10.2 0
    endloop
  endfacet
  facet normal 1 0 0
    outer loop
      vertex 14.25 -8.2 1.5
      vertex 14.25 -6.7 0
      vertex 14.25 -6.7 0.00999928
    endloop
  endfacet
  facet normal 1 0 0
    outer loop
      vertex 14.25 -8.2 3
      vertex 14.25 -10.2 3
      vertex 14.25 -8.2 1.5
    endloop
  endfacet
  facet normal 1 0 0
    outer loop
      vertex 14.25 -10.2 0
      vertex 14.25 -8.2 1.5
      vertex 14.25 -10.2 3
    endloop
  endfacet
  facet normal 1 0 0
    outer loop
      vertex 14.25 -8.2 1.5
      vertex 14.25 -10.2 0
      vertex 14.25 -6.7 0
    endloop
  endfacet
  facet normal 0 0 -1
    outer loop
      vertex 10.375 3.8744 3
      vertex 10.25 3.9994 3
      vertex 10.375 3.875 3
    endloop
  endfacet
  facet normal 0 0 -1
    outer loop
      vertex 11.125 3.1244 3
      vertex 10.875 3.375 3
      vertex 11.125 3.125 3
    endloop
  endfacet
  facet normal -0 -0 -1
    outer loop
      vertex 10.875 3.375 3
      vertex 11.125 3.1244 3
      vertex 10.8744 3.375 3
    endloop
  endfacet
  facet normal 0 0 -1
    outer loop
      vertex 11.875 2.3744 3
      vertex 11.625 2.625 3
      vertex 11.875 2.375 3
    endloop
  endfacet
  facet normal -0 -0 -1
    outer loop
      vertex 11.625 2.625 3
      vertex 11.875 2.3744 3
      vertex 11.6244 2.625 3
    endloop
  endfacet
  facet normal 0 0 -1
    outer loop
      vertex 12.625 1.6244 3
      vertex 12.375 1.875 3
      vertex 12.625 1.625 3
    endloop
  endfacet
  facet normal -0 -0 -1
    outer loop
      vertex 12.375 1.875 3
      vertex 12.625 1.6244 3
      vertex 12.3744 1.875 3
    endloop
  endfacet
  facet normal 0 0 -1
    outer loop
      vertex 14.2494 0 3
      vertex 13.1244 1.125 3
      vertex 13.125 1.125 3
    endloop
  endfacet
  facet normal 0 0 -1
    outer loop
      vertex 14.25 -8.2 3
      vertex 14.2494 0 3
      vertex 14.25 8.2 3
    endloop
  endfacet
  facet normal 0 0 -1
    outer loop
      vertex 14.25 -8.2 3
      vertex 13.125 -1.625 3
      vertex 14.2494 0 3
    endloop
  endfacet
  facet normal 0 0 -1
    outer loop
      vertex 12.375 -2.375 3
      vertex 13.125 -1.625 3
      vertex 14.25 -8.2 3
    endloop
  endfacet
  facet normal 0 0 -1
    outer loop
      vertex 12.375 -1.875 3
      vertex 12.625 -1.625 3
      vertex 12.375 -2.375 3
    endloop
  endfacet
  facet normal -0 0 -1
    outer loop
      vertex 13.125 -1.625 3
      vertex 12.375 -2.375 3
      vertex 12.625 -1.625 3
    endloop
  endfacet
  facet normal 0 0 -1
    outer loop
      vertex 11.625 -3.125 3
      vertex 12.375 -2.375 3
      vertex 14.25 -8.2 3
    endloop
  endfacet
  facet normal 0 0 -1
    outer loop
      vertex 11.625 -2.625 3
      vertex 11.875 -2.375 3
      vertex 11.625 -3.125 3
    endloop
  endfacet
  facet normal -0 0 -1
    outer loop
      vertex 12.375 -2.375 3
      vertex 11.625 -3.125 3
      vertex 11.875 -2.375 3
    endloop
  endfacet
  facet normal 0 0 -1
    outer loop
      vertex 10.875 -3.875 3
      vertex 11.625 -3.125 3
      vertex 14.25 -8.2 3
    endloop
  endfacet
  facet normal 0 0 -1
    outer loop
      vertex 10.875 -3.375 3
      vertex 11.125 -3.125 3
      vertex 10.875 -3.875 3
    endloop
  endfacet
  facet normal -0 0 -1
    outer loop
      vertex 11.625 -3.125 3
      vertex 10.875 -3.875 3
      vertex 11.125 -3.125 3
    endloop
  endfacet
  facet normal 0 0 -1
    outer loop
      vertex 10.25 -4 3
      vertex 10.875 -3.875 3
      vertex 14.25 -8.2 3
    endloop
  endfacet
  facet normal 0 0 -1
    outer loop
      vertex 10.25 -3.9994 3
      vertex 10.375 -3.875 3
      vertex 10.25 -4 3
    endloop
  endfacet
  facet normal -0 0 -1
    outer loop
      vertex 10.875 -3.875 3
      vertex 10.25 -4 3
      vertex 10.375 -3.875 3
    endloop
  endfacet
  facet normal 0 0 -1
    outer loop
      vertex 6.25 -8.2 3
      vertex 10.25 -4 3
      vertex 14.25 -8.2 3
    endloop
  endfacet
  facet normal -0 0 -1
    outer loop
      vertex 10.25 -4 3
      vertex 6.25 -8.2 3
      vertex 7.66421 -4 3
    endloop
  endfacet
  facet normal -0 0 -1
    outer loop
      vertex 7.66421 -4 3
      vertex 6.25 -8.2 3
      vertex 6.25 -2.58579 3
    endloop
  endfacet
  facet normal 0 0 -1
    outer loop
      vertex 13.125 1.625 3
      vertex 14.2494 0 3
      vertex 13.125 1.125 3
    endloop
  endfacet
  facet normal 0 0 -1
    outer loop
      vertex 14.2494 0 3
      vertex 13.125 1.625 3
      vertex 14.25 8.2 3
    endloop
  endfacet
  facet normal 0 0 -1
    outer loop
      vertex 12.375 2.375 3
      vertex 13.125 1.625 3
      vertex 12.625 1.625 3
    endloop
  endfacet
  facet normal 0 0 -1
    outer loop
      vertex 12.375 2.375 3
      vertex 12.625 1.625 3
      vertex 12.375 1.875 3
    endloop
  endfacet
  facet normal 0 0 -1
    outer loop
      vertex 13.125 1.625 3
      vertex 12.375 2.375 3
      vertex 14.25 8.2 3
    endloop
  endfacet
  facet normal 0 0 -1
    outer loop
      vertex 11.625 3.125 3
      vertex 12.375 2.375 3
      vertex 11.875 2.375 3
    endloop
  endfacet
  facet normal 0 0 -1
    outer loop
      vertex 11.625 3.125 3
      vertex 11.875 2.375 3
      vertex 11.625 2.625 3
    endloop
  endfacet
  facet normal 0 0 -1
    outer loop
      vertex 12.375 2.375 3
      vertex 11.625 3.125 3
      vertex 14.25 8.2 3
    endloop
  endfacet
  facet normal 0 0 -1
    outer loop
      vertex 10.875 3.875 3
      vertex 11.625 3.125 3
      vertex 11.125 3.125 3
    endloop
  endfacet
  facet normal 0 0 -1
    outer loop
      vertex 10.875 3.875 3
      vertex 11.125 3.125 3
      vertex 10.875 3.375 3
    endloop
  endfacet
  facet normal 0 0 -1
    outer loop
      vertex 11.625 3.125 3
      vertex 10.875 3.875 3
      vertex 14.25 8.2 3
    endloop
  endfacet
  facet normal 0 0 -1
    outer loop
      vertex 10.25 4 3
      vertex 10.875 3.875 3
      vertex 10.375 3.875 3
    endloop
  endfacet
  facet normal 0 0 -1
    outer loop
      vertex 10.25 4 3
      vertex 10.375 3.875 3
      vertex 10.25 3.9994 3
    endloop
  endfacet
  facet normal 0 0 -1
    outer loop
      vertex 10.875 3.875 3
      vertex 10.25 4 3
      vertex 14.25 8.2 3
    endloop
  endfacet
  facet normal 0 0 -1
    outer loop
      vertex 6.25 8.2 3
      vertex 10.25 4 3
      vertex 7.66421 4 3
    endloop
  endfacet
  facet normal 0 0 -1
    outer loop
      vertex 10.25 4 3
      vertex 6.25 8.2 3
      vertex 14.25 8.2 3
    endloop
  endfacet
  facet normal 0 0 -1
    outer loop
      vertex 6.25 8.2 3
      vertex 7.66421 4 3
      vertex 6.25 2.58579 3
    endloop
  endfacet
  facet normal 0 0 -1
    outer loop
      vertex 13.125 -1.125 3
      vertex 14.2494 0 3
      vertex 13.125 -1.625 3
    endloop
  endfacet
  facet normal 0 0 -1
    outer loop
      vertex 14.2494 0 3
      vertex 13.125 -1.125 3
      vertex 13.1244 -1.125 3
    endloop
  endfacet
  facet normal -0 0 -1
    outer loop
      vertex 12.625 -1.625 3
      vertex 12.375 -1.875 3
      vertex 12.625 -1.6244 3
    endloop
  endfacet
  facet normal 0 0 -1
    outer loop
      vertex 12.625 -1.6244 3
      vertex 12.375 -1.875 3
      vertex 12.3744 -1.875 3
    endloop
  endfacet
  facet normal -0 0 -1
    outer loop
      vertex 11.875 -2.375 3
      vertex 11.625 -2.625 3
      vertex 11.875 -2.3744 3
    endloop
  endfacet
  facet normal 0 0 -1
    outer loop
      vertex 11.875 -2.3744 3
      vertex 11.625 -2.625 3
      vertex 11.6244 -2.625 3
    endloop
  endfacet
  facet normal -0 0 -1
    outer loop
      vertex 11.125 -3.125 3
      vertex 10.875 -3.375 3
      vertex 11.125 -3.1244 3
    endloop
  endfacet
  facet normal 0 0 -1
    outer loop
      vertex 11.125 -3.1244 3
      vertex 10.875 -3.375 3
      vertex 10.8744 -3.375 3
    endloop
  endfacet
  facet normal -0 0 -1
    outer loop
      vertex 10.375 -3.875 3
      vertex 10.25 -3.9994 3
      vertex 10.375 -3.8744 3
    endloop
  endfacet
  facet normal -1 0 0
    outer loop
      vertex 6.25 -6.7 0
      vertex 6.25 -8.2 1.5
      vertex 6.25 -6.7 0.00999928
    endloop
  endfacet
  facet normal -1 0 0
    outer loop
      vertex 6.25 -10.2 3
      vertex 6.25 -8.2 1.5
      vertex 6.25 -10.2 0
    endloop
  endfacet
  facet normal -1 0 0
    outer loop
      vertex 6.25 -10.2 0
      vertex 6.25 -8.2 1.5
      vertex 6.25 -6.7 0
    endloop
  endfacet
  facet normal -1 0 0
    outer loop
      vertex 6.25 2.58579 0
      vertex 6.25 -2.58579 0
      vertex 6.25 2.58579 3
    endloop
  endfacet
  facet normal -1 0 0
    outer loop
      vertex 6.25 8.2 1.5
      vertex 6.25 10.2 3
      vertex 6.25 10.2 0
    endloop
  endfacet
  facet normal -1 0 0
    outer loop
      vertex 6.25 8.2 3
      vertex 6.25 10.2 3
      vertex 6.25 8.2 1.5
    endloop
  endfacet
  facet normal -1 0 0
    outer loop
      vertex 6.25 6.7 0
      vertex 6.25 8.2 1.5
      vertex 6.25 10.2 0
    endloop
  endfacet
  facet normal -1 0 0
    outer loop
      vertex 6.25 8.2 1.5
      vertex 6.25 6.7 0
      vertex 6.25 6.7 0.00999928
    endloop
  endfacet
  facet normal -1 0 0
    outer loop
      vertex 6.25 10.2 3
      vertex 6.25 8.2 3
      vertex 6.25 10.2 4.5
    endloop
  endfacet
  facet normal -1 0 0
    outer loop
      vertex 6.25 2.58579 3
      vertex 6.25 10.2 4.5
      vertex 6.25 8.2 3
    endloop
  endfacet
  facet normal -1 0 0
    outer loop
      vertex 6.25 -2.58579 3
      vertex 6.25 2.58579 3
      vertex 6.25 -2.58579 0
    endloop
  endfacet
  facet normal -1 0 0
    outer loop
      vertex 6.25 -2.58579 3
      vertex 6.25 10.2 4.5
      vertex 6.25 2.58579 3
    endloop
  endfacet
  facet normal -1 0 0
    outer loop
      vertex 6.25 -10.2 4.5
      vertex 6.25 -2.58579 3
      vertex 6.25 -8.2 3
    endloop
  endfacet
  facet normal -1 0 0
    outer loop
      vertex 6.25 -8.2 1.5
      vertex 6.25 -10.2 3
      vertex 6.25 -8.2 3
    endloop
  endfacet
  facet normal -1 0 0
    outer loop
      vertex 6.25 -10.2 4.5
      vertex 6.25 -8.2 3
      vertex 6.25 -10.2 3
    endloop
  endfacet
  facet normal -1 0 0
    outer loop
      vertex 6.25 -2.58579 3
      vertex 6.25 -10.2 4.5
      vertex 6.25 10.2 4.5
    endloop
  endfacet
  facet normal 0 0 -1
    outer loop
      vertex 6.25 6.7 0
      vertex 14.25 10.2 0
      vertex 14.25 6.7 0
    endloop
  endfacet
  facet normal -0 0 -1
    outer loop
      vertex 14.25 10.2 0
      vertex 6.25 6.7 0
      vertex 6.25 10.2 0
    endloop
  endfacet
  facet normal 0 -1 0
    outer loop
      vertex 6.25 8.2 1.5
      vertex 14.25 8.2 3
      vertex 6.25 8.2 3
    endloop
  endfacet
  facet normal 0 -1 -0
    outer loop
      vertex 14.25 8.2 3
      vertex 6.25 8.2 1.5
      vertex 14.25 8.2 1.5
    endloop
  endfacet
  facet normal 0 1 -0
    outer loop
      vertex 14.25 10.2 0
      vertex 6.25 10.2 3
      vertex 14.25 10.2 3
    endloop
  endfacet
  facet normal 0 1 0
    outer loop
      vertex 6.25 10.2 3
      vertex 14.25 10.2 0
      vertex 6.25 10.2 0
    endloop
  endfacet
  facet normal 0 -0.704738 0.709468
    outer loop
      vertex 6.25 8.2 1.5
      vertex 14.25 6.7 0.00999928
      vertex 14.25 8.2 1.5
    endloop
  endfacet
  facet normal 0 -0.704738 0.709468
    outer loop
      vertex 14.25 6.7 0.00999928
      vertex 6.25 8.2 1.5
      vertex 6.25 6.7 0.00999928
    endloop
  endfacet
  facet normal 0 -1 0
    outer loop
      vertex 6.25 6.7 0
      vertex 14.25 6.7 0.00999928
      vertex 6.25 6.7 0.00999928
    endloop
  endfacet
  facet normal 0 -1 -0
    outer loop
      vertex 14.25 6.7 0.00999928
      vertex 6.25 6.7 0
      vertex 14.25 6.7 0
    endloop
  endfacet
  facet normal 0 0 -1
    outer loop
      vertex 6.25 -10.2 0
      vertex 14.25 -6.7 0
      vertex 14.25 -10.2 0
    endloop
  endfacet
  facet normal -0 0 -1
    outer loop
      vertex 14.25 -6.7 0
      vertex 6.25 -10.2 0
      vertex 6.25 -6.7 0
    endloop
  endfacet
  facet normal 0 1 -0
    outer loop
      vertex 14.25 -8.2 1.5
      vertex 6.25 -8.2 3
      vertex 14.25 -8.2 3
    endloop
  endfacet
  facet normal 0 1 0
    outer loop
      vertex 6.25 -8.2 3
      vertex 14.25 -8.2 1.5
      vertex 6.25 -8.2 1.5
    endloop
  endfacet
  facet normal 0 -1 0
    outer loop
      vertex 6.25 -10.2 0
      vertex 14.25 -10.2 3
      vertex 6.25 -10.2 3
    endloop
  endfacet
  facet normal 0 -1 -0
    outer loop
      vertex 14.25 -10.2 3
      vertex 6.25 -10.2 0
      vertex 14.25 -10.2 0
    endloop
  endfacet
  facet normal -0 0.704738 0.709468
    outer loop
      vertex 6.25 -6.7 0.00999928
      vertex 14.25 -8.2 1.5
      vertex 14.25 -6.7 0.00999928
    endloop
  endfacet
  facet normal 0 0.704738 0.709468
    outer loop
      vertex 14.25 -8.2 1.5
      vertex 6.25 -6.7 0.00999928
      vertex 6.25 -8.2 1.5
    endloop
  endfacet
  facet normal 0 1 -0
    outer loop
      vertex 14.25 -6.7 0
      vertex 6.25 -6.7 0.00999928
      vertex 14.25 -6.7 0.00999928
    endloop
  endfacet
  facet normal 0 1 0
    outer loop
      vertex 6.25 -6.7 0.00999928
      vertex 14.25 -6.7 0
      vertex 6.25 -6.7 0
    endloop
  endfacet
  facet normal -0.707107 -0.707107 0
    outer loop
      vertex 7.66421 -4 0
      vertex 6.25 -2.58579 3
      vertex 6.25 -2.58579 0
    endloop
  endfacet
  facet normal -0.707107 -0.707107 0
    outer loop
      vertex 6.25 -2.58579 3
      vertex 7.66421 -4 0
      vertex 7.66421 -4 3
    endloop
  endfacet
  facet normal 0 0 -1
    outer loop
      vertex 10.875 -3.875 0
      vertex 10.8744 -3.375 0
      vertex 10.875 -3.375 0
    endloop
  endfacet
  facet normal 0 0 -1
    outer loop
      vertex 10.875 -3.875 0
      vertex 10.375 -3.8744 0
      vertex 10.8744 -3.375 0
    endloop
  endfacet
  facet normal 0 0 -1
    outer loop
      vertex 10.375 -3.8744 0
      vertex 10.875 -3.875 0
      vertex 10.375 -3.875 0
    endloop
  endfacet
  facet normal 0 0 -1
    outer loop
      vertex 10.8744 -3.375 0
      vertex 11.125 3.1244 0
      vertex 11.125 -3.1244 0
    endloop
  endfacet
  facet normal -0 0 -1
    outer loop
      vertex 11.125 3.1244 0
      vertex 10.8744 -3.375 0
      vertex 10.8744 3.375 0
    endloop
  endfacet
  facet normal 0 0 -1
    outer loop
      vertex 11.625 -3.125 0
      vertex 11.6244 -2.625 0
      vertex 11.625 -2.625 0
    endloop
  endfacet
  facet normal 0 0 -1
    outer loop
      vertex 11.625 -3.125 0
      vertex 11.125 -3.1244 0
      vertex 11.6244 -2.625 0
    endloop
  endfacet
  facet normal 0 0 -1
    outer loop
      vertex 11.125 -3.1244 0
      vertex 11.625 -3.125 0
      vertex 11.125 -3.125 0
    endloop
  endfacet
  facet normal 0 0 -1
    outer loop
      vertex 11.6244 -2.625 0
      vertex 11.875 2.3744 0
      vertex 11.875 -2.3744 0
    endloop
  endfacet
  facet normal -0 0 -1
    outer loop
      vertex 11.875 2.3744 0
      vertex 11.6244 -2.625 0
      vertex 11.6244 2.625 0
    endloop
  endfacet
  facet normal 0 0 -1
    outer loop
      vertex 12.375 -2.375 0
      vertex 12.3744 -1.875 0
      vertex 12.375 -1.875 0
    endloop
  endfacet
  facet normal 0 0 -1
    outer loop
      vertex 12.375 -2.375 0
      vertex 11.875 -2.3744 0
      vertex 12.3744 -1.875 0
    endloop
  endfacet
  facet normal 0 0 -1
    outer loop
      vertex 11.875 -2.3744 0
      vertex 12.375 -2.375 0
      vertex 11.875 -2.375 0
    endloop
  endfacet
  facet normal 0 0 -1
    outer loop
      vertex 12.3744 -1.875 0
      vertex 12.625 1.6244 0
      vertex 12.625 -1.6244 0
    endloop
  endfacet
  facet normal -0 0 -1
    outer loop
      vertex 12.625 1.6244 0
      vertex 12.3744 -1.875 0
      vertex 12.3744 1.875 0
    endloop
  endfacet
  facet normal 0 0 -1
    outer loop
      vertex 13.125 -1.625 0
      vertex 13.1244 -1.125 0
      vertex 13.125 -1.125 0
    endloop
  endfacet
  facet normal 0 0 -1
    outer loop
      vertex 13.125 -1.625 0
      vertex 12.625 -1.6244 0
      vertex 13.1244 -1.125 0
    endloop
  endfacet
  facet normal 0 0 -1
    outer loop
      vertex 12.625 -1.6244 0
      vertex 13.125 -1.625 0
      vertex 12.625 -1.625 0
    endloop
  endfacet
  facet normal -0 0 -1
    outer loop
      vertex 14.2494 0 0
      vertex 13.1244 -1.125 0
      vertex 13.1244 1.125 0
    endloop
  endfacet
  facet normal 0 0 -1
    outer loop
      vertex 13.1244 1.125 0
      vertex 13.125 1.625 0
      vertex 13.125 1.125 0
    endloop
  endfacet
  facet normal -0 0 -1
    outer loop
      vertex 13.1244 -1.125 0
      vertex 12.625 -1.6244 0
      vertex 13.1244 1.125 0
    endloop
  endfacet
  facet normal 0 0 -1
    outer loop
      vertex 12.625 1.6244 0
      vertex 13.1244 1.125 0
      vertex 12.625 -1.6244 0
    endloop
  endfacet
  facet normal 0 0 -1
    outer loop
      vertex 13.1244 1.125 0
      vertex 12.625 1.6244 0
      vertex 13.125 1.625 0
    endloop
  endfacet
  facet normal -0 0 -1
    outer loop
      vertex 13.125 1.625 0
      vertex 12.625 1.6244 0
      vertex 12.625 1.625 0
    endloop
  endfacet
  facet normal 0 0 -1
    outer loop
      vertex 12.3744 1.875 0
      vertex 12.375 2.375 0
      vertex 12.375 1.875 0
    endloop
  endfacet
  facet normal -0 0 -1
    outer loop
      vertex 12.3744 -1.875 0
      vertex 11.875 -2.3744 0
      vertex 12.3744 1.875 0
    endloop
  endfacet
  facet normal 0 0 -1
    outer loop
      vertex 11.875 2.3744 0
      vertex 12.3744 1.875 0
      vertex 11.875 -2.3744 0
    endloop
  endfacet
  facet normal 0 0 -1
    outer loop
      vertex 12.3744 1.875 0
      vertex 11.875 2.3744 0
      vertex 12.375 2.375 0
    endloop
  endfacet
  facet normal -0 0 -1
    outer loop
      vertex 12.375 2.375 0
      vertex 11.875 2.3744 0
      vertex 11.875 2.375 0
    endloop
  endfacet
  facet normal 0 0 -1
    outer loop
      vertex 11.6244 2.625 0
      vertex 11.625 3.125 0
      vertex 11.625 2.625 0
    endloop
  endfacet
  facet normal -0 0 -1
    outer loop
      vertex 11.6244 -2.625 0
      vertex 11.125 -3.1244 0
      vertex 11.6244 2.625 0
    endloop
  endfacet
  facet normal 0 0 -1
    outer loop
      vertex 11.125 3.1244 0
      vertex 11.6244 2.625 0
      vertex 11.125 -3.1244 0
    endloop
  endfacet
  facet normal 0 0 -1
    outer loop
      vertex 11.6244 2.625 0
      vertex 11.125 3.1244 0
      vertex 11.625 3.125 0
    endloop
  endfacet
  facet normal -0 0 -1
    outer loop
      vertex 11.625 3.125 0
      vertex 11.125 3.1244 0
      vertex 11.125 3.125 0
    endloop
  endfacet
  facet normal 0 0 -1
    outer loop
      vertex 10.8744 3.375 0
      vertex 10.875 3.875 0
      vertex 10.875 3.375 0
    endloop
  endfacet
  facet normal -0 0 -1
    outer loop
      vertex 10.8744 -3.375 0
      vertex 10.375 -3.8744 0
      vertex 10.8744 3.375 0
    endloop
  endfacet
  facet normal 0 0 -1
    outer loop
      vertex 10.375 3.8744 0
      vertex 10.8744 3.375 0
      vertex 10.375 -3.8744 0
    endloop
  endfacet
  facet normal 0 0 -1
    outer loop
      vertex 10.8744 3.375 0
      vertex 10.375 3.8744 0
      vertex 10.875 3.875 0
    endloop
  endfacet
  facet normal -0 0 -1
    outer loop
      vertex 10.875 3.875 0
      vertex 10.375 3.8744 0
      vertex 10.375 3.875 0
    endloop
  endfacet
  facet normal 0 0 -1
    outer loop
      vertex 7.66421 -4 0
      vertex 10.25 -3.9994 0
      vertex 10.25 -4 0
    endloop
  endfacet
  facet normal 0 0 -1
    outer loop
      vertex 10.25 -3.9994 0
      vertex 6.25 -2.58579 0
      vertex 10.25 3.9994 0
    endloop
  endfacet
  facet normal -0 0 -1
    outer loop
      vertex 10.25 -3.9994 0
      vertex 7.66421 -4 0
      vertex 6.25 -2.58579 0
    endloop
  endfacet
  facet normal 0 0 -1
    outer loop
      vertex 6.25 2.58579 0
      vertex 10.25 3.9994 0
      vertex 6.25 -2.58579 0
    endloop
  endfacet
  facet normal 0 -0 -1
    outer loop
      vertex 7.66421 4 0
      vertex 10.25 3.9994 0
      vertex 6.25 2.58579 0
    endloop
  endfacet
  facet normal 0 0 -1
    outer loop
      vertex 10.25 3.9994 0
      vertex 7.66421 4 0
      vertex 10.25 4 0
    endloop
  endfacet
  facet normal 0 0 -1
    outer loop
      vertex 10.25 -3.9994 0
      vertex 10.375 3.8744 0
      vertex 10.375 -3.8744 0
    endloop
  endfacet
  facet normal -0 0 -1
    outer loop
      vertex 10.375 3.8744 0
      vertex 10.25 -3.9994 0
      vertex 10.25 3.9994 0
    endloop
  endfacet
  facet normal -0.707107 0.707107 0
    outer loop
      vertex 6.25 2.58579 0
      vertex 7.66421 4 3
      vertex 7.66421 4 0
    endloop
  endfacet
  facet normal -0.707107 0.707107 0
    outer loop
      vertex 7.66421 4 3
      vertex 6.25 2.58579 0
      vertex 6.25 2.58579 3
    endloop
  endfacet
  facet normal 1 -0 0
    outer loop
      vertex 10.25 -4 3
      vertex 10.25 -3.9994 0
      vertex 10.25 -3.9994 3
    endloop
  endfacet
  facet normal 1 0 0
    outer loop
      vertex 10.25 -3.9994 0
      vertex 10.25 -4 3
      vertex 10.25 -4 0
    endloop
  endfacet
  facet normal 1 -0 0
    outer loop
      vertex 10.25 3.9994 3
      vertex 10.25 4 0
      vertex 10.25 4 3
    endloop
  endfacet
  facet normal 1 0 0
    outer loop
      vertex 10.25 4 0
      vertex 10.25 3.9994 3
      vertex 10.25 3.9994 0
    endloop
  endfacet
  facet normal 0 1 -0
    outer loop
      vertex 10.25 4 0
      vertex 7.66421 4 3
      vertex 10.25 4 3
    endloop
  endfacet
  facet normal 0 1 0
    outer loop
      vertex 7.66421 4 3
      vertex 10.25 4 0
      vertex 7.66421 4 0
    endloop
  endfacet
  facet normal 0 -1 0
    outer loop
      vertex 7.66421 -4 0
      vertex 10.25 -4 3
      vertex 7.66421 -4 3
    endloop
  endfacet
  facet normal 0 -1 -0
    outer loop
      vertex 10.25 -4 3
      vertex 7.66421 -4 0
      vertex 10.25 -4 0
    endloop
  endfacet
  facet normal 1 -0 0
    outer loop
      vertex 10.875 3.375 3
      vertex 10.875 3.875 0
      vertex 10.875 3.875 3
    endloop
  endfacet
  facet normal 1 0 0
    outer loop
      vertex 10.875 3.875 0
      vertex 10.875 3.375 3
      vertex 10.875 3.375 0
    endloop
  endfacet
  facet normal -1 0 0
    outer loop
      vertex 10.375 3.8744 0
      vertex 10.375 3.875 3
      vertex 10.375 3.875 0
    endloop
  endfacet
  facet normal -1 -0 0
    outer loop
      vertex 10.375 3.875 3
      vertex 10.375 3.8744 0
      vertex 10.375 3.8744 3
    endloop
  endfacet
  facet normal 0 1 -0
    outer loop
      vertex 10.875 3.875 0
      vertex 10.375 3.875 3
      vertex 10.875 3.875 3
    endloop
  endfacet
  facet normal 0 1 0
    outer loop
      vertex 10.375 3.875 3
      vertex 10.875 3.875 0
      vertex 10.375 3.875 0
    endloop
  endfacet
  facet normal 0 -1 0
    outer loop
      vertex 10.8744 3.375 0
      vertex 10.875 3.375 3
      vertex 10.8744 3.375 3
    endloop
  endfacet
  facet normal 0 -1 -0
    outer loop
      vertex 10.875 3.375 3
      vertex 10.8744 3.375 0
      vertex 10.875 3.375 0
    endloop
  endfacet
  facet normal 1 -0 0
    outer loop
      vertex 11.625 2.625 3
      vertex 11.625 3.125 0
      vertex 11.625 3.125 3
    endloop
  endfacet
  facet normal 1 0 0
    outer loop
      vertex 11.625 3.125 0
      vertex 11.625 2.625 3
      vertex 11.625 2.625 0
    endloop
  endfacet
  facet normal -1 0 0
    outer loop
      vertex 11.125 3.1244 0
      vertex 11.125 3.125 3
      vertex 11.125 3.125 0
    endloop
  endfacet
  facet normal -1 -0 0
    outer loop
      vertex 11.125 3.125 3
      vertex 11.125 3.1244 0
      vertex 11.125 3.1244 3
    endloop
  endfacet
  facet normal 0 1 -0
    outer loop
      vertex 11.625 3.125 0
      vertex 11.125 3.125 3
      vertex 11.625 3.125 3
    endloop
  endfacet
  facet normal 0 1 0
    outer loop
      vertex 11.125 3.125 3
      vertex 11.625 3.125 0
      vertex 11.125 3.125 0
    endloop
  endfacet
  facet normal 0 -1 0
    outer loop
      vertex 11.6244 2.625 0
      vertex 11.625 2.625 3
      vertex 11.6244 2.625 3
    endloop
  endfacet
  facet normal 0 -1 -0
    outer loop
      vertex 11.625 2.625 3
      vertex 11.6244 2.625 0
      vertex 11.625 2.625 0
    endloop
  endfacet
  facet normal 1 -0 0
    outer loop
      vertex 12.375 1.875 3
      vertex 12.375 2.375 0
      vertex 12.375 2.375 3
    endloop
  endfacet
  facet normal 1 0 0
    outer loop
      vertex 12.375 2.375 0
      vertex 12.375 1.875 3
      vertex 12.375 1.875 0
    endloop
  endfacet
  facet normal -1 0 0
    outer loop
      vertex 11.875 2.3744 0
      vertex 11.875 2.375 3
      vertex 11.875 2.375 0
    endloop
  endfacet
  facet normal -1 -0 0
    outer loop
      vertex 11.875 2.375 3
      vertex 11.875 2.3744 0
      vertex 11.875 2.3744 3
    endloop
  endfacet
  facet normal 0 -1 0
    outer loop
      vertex 12.3744 1.875 0
      vertex 12.375 1.875 3
      vertex 12.3744 1.875 3
    endloop
  endfacet
  facet normal 0 -1 -0
    outer loop
      vertex 12.375 1.875 3
      vertex 12.3744 1.875 0
      vertex 12.375 1.875 0
    endloop
  endfacet
  facet normal 0 1 -0
    outer loop
      vertex 12.375 2.375 0
      vertex 11.875 2.375 3
      vertex 12.375 2.375 3
    endloop
  endfacet
  facet normal 0 1 0
    outer loop
      vertex 11.875 2.375 3
      vertex 12.375 2.375 0
      vertex 11.875 2.375 0
    endloop
  endfacet
  facet normal 1 -0 0
    outer loop
      vertex 13.125 1.125 3
      vertex 13.125 1.625 0
      vertex 13.125 1.625 3
    endloop
  endfacet
  facet normal 1 0 0
    outer loop
      vertex 13.125 1.625 0
      vertex 13.125 1.125 3
      vertex 13.125 1.125 0
    endloop
  endfacet
  facet normal -1 0 0
    outer loop
      vertex 12.625 1.6244 0
      vertex 12.625 1.625 3
      vertex 12.625 1.625 0
    endloop
  endfacet
  facet normal -1 -0 0
    outer loop
      vertex 12.625 1.625 3
      vertex 12.625 1.6244 0
      vertex 12.625 1.6244 3
    endloop
  endfacet
  facet normal 0 1 -0
    outer loop
      vertex 13.125 1.625 0
      vertex 12.625 1.625 3
      vertex 13.125 1.625 3
    endloop
  endfacet
  facet normal 0 1 0
    outer loop
      vertex 12.625 1.625 3
      vertex 13.125 1.625 0
      vertex 12.625 1.625 0
    endloop
  endfacet
  facet normal 0 -1 0
    outer loop
      vertex 13.1244 1.125 0
      vertex 13.125 1.125 3
      vertex 13.1244 1.125 3
    endloop
  endfacet
  facet normal 0 -1 -0
    outer loop
      vertex 13.125 1.125 3
      vertex 13.1244 1.125 0
      vertex 13.125 1.125 0
    endloop
  endfacet
  facet normal 1 -0 0
    outer loop
      vertex 10.875 -3.875 3
      vertex 10.875 -3.375 0
      vertex 10.875 -3.375 3
    endloop
  endfacet
  facet normal 1 0 0
    outer loop
      vertex 10.875 -3.375 0
      vertex 10.875 -3.875 3
      vertex 10.875 -3.875 0
    endloop
  endfacet
  facet normal -1 0 0
    outer loop
      vertex 10.375 -3.875 0
      vertex 10.375 -3.8744 3
      vertex 10.375 -3.8744 0
    endloop
  endfacet
  facet normal -1 -0 0
    outer loop
      vertex 10.375 -3.8744 3
      vertex 10.375 -3.875 0
      vertex 10.375 -3.875 3
    endloop
  endfacet
  facet normal 0 -1 0
    outer loop
      vertex 10.375 -3.875 0
      vertex 10.875 -3.875 3
      vertex 10.375 -3.875 3
    endloop
  endfacet
  facet normal 0 -1 -0
    outer loop
      vertex 10.875 -3.875 3
      vertex 10.375 -3.875 0
      vertex 10.875 -3.875 0
    endloop
  endfacet
  facet normal 0 1 -0
    outer loop
      vertex 10.875 -3.375 0
      vertex 10.8744 -3.375 3
      vertex 10.875 -3.375 3
    endloop
  endfacet
  facet normal 0 1 0
    outer loop
      vertex 10.8744 -3.375 3
      vertex 10.875 -3.375 0
      vertex 10.8744 -3.375 0
    endloop
  endfacet
  facet normal 1 -0 0
    outer loop
      vertex 11.625 -3.125 3
      vertex 11.625 -2.625 0
      vertex 11.625 -2.625 3
    endloop
  endfacet
  facet normal 1 0 0
    outer loop
      vertex 11.625 -2.625 0
      vertex 11.625 -3.125 3
      vertex 11.625 -3.125 0
    endloop
  endfacet
  facet normal -1 0 0
    outer loop
      vertex 11.125 -3.125 0
      vertex 11.125 -3.1244 3
      vertex 11.125 -3.1244 0
    endloop
  endfacet
  facet normal -1 -0 0
    outer loop
      vertex 11.125 -3.1244 3
      vertex 11.125 -3.125 0
      vertex 11.125 -3.125 3
    endloop
  endfacet
  facet normal 0 -1 0
    outer loop
      vertex 11.125 -3.125 0
      vertex 11.625 -3.125 3
      vertex 11.125 -3.125 3
    endloop
  endfacet
  facet normal 0 -1 -0
    outer loop
      vertex 11.625 -3.125 3
      vertex 11.125 -3.125 0
      vertex 11.625 -3.125 0
    endloop
  endfacet
  facet normal 0 1 -0
    outer loop
      vertex 11.625 -2.625 0
      vertex 11.6244 -2.625 3
      vertex 11.625 -2.625 3
    endloop
  endfacet
  facet normal 0 1 0
    outer loop
      vertex 11.6244 -2.625 3
      vertex 11.625 -2.625 0
      vertex 11.6244 -2.625 0
    endloop
  endfacet
  facet normal 1 -0 0
    outer loop
      vertex 12.375 -2.375 3
      vertex 12.375 -1.875 0
      vertex 12.375 -1.875 3
    endloop
  endfacet
  facet normal 1 0 0
    outer loop
      vertex 12.375 -1.875 0
      vertex 12.375 -2.375 3
      vertex 12.375 -2.375 0
    endloop
  endfacet
  facet normal -1 0 0
    outer loop
      vertex 11.875 -2.375 0
      vertex 11.875 -2.3744 3
      vertex 11.875 -2.3744 0
    endloop
  endfacet
  facet normal -1 -0 0
    outer loop
      vertex 11.875 -2.3744 3
      vertex 11.875 -2.375 0
      vertex 11.875 -2.375 3
    endloop
  endfacet
  facet normal 0 1 -0
    outer loop
      vertex 12.375 -1.875 0
      vertex 12.3744 -1.875 3
      vertex 12.375 -1.875 3
    endloop
  endfacet
  facet normal 0 1 0
    outer loop
      vertex 12.3744 -1.875 3
      vertex 12.375 -1.875 0
      vertex 12.3744 -1.875 0
    endloop
  endfacet
  facet normal 0 -1 0
    outer loop
      vertex 11.875 -2.375 0
      vertex 12.375 -2.375 3
      vertex 11.875 -2.375 3
    endloop
  endfacet
  facet normal 0 -1 -0
    outer loop
      vertex 12.375 -2.375 3
      vertex 11.875 -2.375 0
      vertex 12.375 -2.375 0
    endloop
  endfacet
  facet normal 1 -0 0
    outer loop
      vertex 13.125 -1.625 3
      vertex 13.125 -1.125 0
      vertex 13.125 -1.125 3
    endloop
  endfacet
  facet normal 1 0 0
    outer loop
      vertex 13.125 -1.125 0
      vertex 13.125 -1.625 3
      vertex 13.125 -1.625 0
    endloop
  endfacet
  facet normal -1 0 0
    outer loop
      vertex 12.625 -1.625 0
      vertex 12.625 -1.6244 3
      vertex 12.625 -1.6244 0
    endloop
  endfacet
  facet normal -1 -0 0
    outer loop
      vertex 12.625 -1.6244 3
      vertex 12.625 -1.625 0
      vertex 12.625 -1.625 3
    endloop
  endfacet
  facet normal 0 -1 0
    outer loop
      vertex 12.625 -1.625 0
      vertex 13.125 -1.625 3
      vertex 12.625 -1.625 3
    endloop
  endfacet
  facet normal 0 -1 -0
    outer loop
      vertex 13.125 -1.625 3
      vertex 12.625 -1.625 0
      vertex 13.125 -1.625 0
    endloop
  endfacet
  facet normal 0 1 -0
    outer loop
      vertex 13.125 -1.125 0
      vertex 13.1244 -1.125 3
      vertex 13.125 -1.125 3
    endloop
  endfacet
  facet normal 0 1 0
    outer loop
      vertex 13.1244 -1.125 3
      vertex 13.125 -1.125 0
      vertex 13.1244 -1.125 0
    endloop
  endfacet
  facet normal -0 0 1
    outer loop
      vertex 6.25 10.2 4.5
      vertex 14.25 -10.2 4.5
      vertex 14.25 10.2 4.5
    endloop
  endfacet
  facet normal 0 0 1
    outer loop
      vertex 14.25 -10.2 4.5
      vertex 6.25 10.2 4.5
      vertex 6.25 -10.2 4.5
    endloop
  endfacet
  facet normal 0 -1 0
    outer loop
      vertex 6.25 -10.2 3
      vertex 14.25 -10.2 4.5
      vertex 6.25 -10.2 4.5
    endloop
  endfacet
  facet normal 0 -1 -0
    outer loop
      vertex 14.25 -10.2 4.5
      vertex 6.25 -10.2 3
      vertex 14.25 -10.2 3
    endloop
  endfacet
  facet normal 0 1 -0
    outer loop
      vertex 14.25 10.2 3
      vertex 6.25 10.2 4.5
      vertex 14.25 10.2 4.5
    endloop
  endfacet
  facet normal 0 1 0
    outer loop
      vertex 6.25 10.2 4.5
      vertex 14.25 10.2 3
      vertex 6.25 10.2 3
    endloop
  endfacet
  facet normal 0.707107 -0.707107 0
    outer loop
      vertex 10.25 -3.9994 3
      vertex 10.375 -3.8744 0
      vertex 10.375 -3.8744 3
    endloop
  endfacet
  facet normal 0.707107 -0.707107 0
    outer loop
      vertex 10.375 -3.8744 0
      vertex 10.25 -3.9994 3
      vertex 10.25 -3.9994 0
    endloop
  endfacet
  facet normal 0.707107 -0.707107 0
    outer loop
      vertex 13.1244 -1.125 3
      vertex 14.2494 0 0
      vertex 14.2494 0 3
    endloop
  endfacet
  facet normal 0.707107 -0.707107 0
    outer loop
      vertex 14.2494 0 0
      vertex 13.1244 -1.125 3
      vertex 13.1244 -1.125 0
    endloop
  endfacet
  facet normal 0.707107 -0.707107 0
    outer loop
      vertex 12.3744 -1.875 3
      vertex 12.625 -1.6244 0
      vertex 12.625 -1.6244 3
    endloop
  endfacet
  facet normal 0.707107 -0.707107 0
    outer loop
      vertex 12.625 -1.6244 0
      vertex 12.3744 -1.875 3
      vertex 12.3744 -1.875 0
    endloop
  endfacet
  facet normal 0.707107 -0.707107 0
    outer loop
      vertex 11.6244 -2.625 3
      vertex 11.875 -2.3744 0
      vertex 11.875 -2.3744 3
    endloop
  endfacet
  facet normal 0.707107 -0.707107 0
    outer loop
      vertex 11.875 -2.3744 0
      vertex 11.6244 -2.625 3
      vertex 11.6244 -2.625 0
    endloop
  endfacet
  facet normal 0.707107 -0.707107 0
    outer loop
      vertex 10.8744 -3.375 3
      vertex 11.125 -3.1244 0
      vertex 11.125 -3.1244 3
    endloop
  endfacet
  facet normal 0.707107 -0.707107 0
    outer loop
      vertex 11.125 -3.1244 0
      vertex 10.8744 -3.375 3
      vertex 10.8744 -3.375 0
    endloop
  endfacet
  facet normal 0.707107 0.707107 0
    outer loop
      vertex 14.2494 0 3
      vertex 13.1244 1.125 0
      vertex 13.1244 1.125 3
    endloop
  endfacet
  facet normal 0.707107 0.707107 0
    outer loop
      vertex 13.1244 1.125 0
      vertex 14.2494 0 3
      vertex 14.2494 0 0
    endloop
  endfacet
  facet normal 0.707107 0.707107 0
    outer loop
      vertex 10.375 3.8744 3
      vertex 10.25 3.9994 0
      vertex 10.25 3.9994 3
    endloop
  endfacet
  facet normal 0.707107 0.707107 0
    outer loop
      vertex 10.25 3.9994 0
      vertex 10.375 3.8744 3
      vertex 10.375 3.8744 0
    endloop
  endfacet
  facet normal 0.707107 0.707107 0
    outer loop
      vertex 12.625 1.6244 3
      vertex 12.3744 1.875 0
      vertex 12.3744 1.875 3
    endloop
  endfacet
  facet normal 0.707107 0.707107 0
    outer loop
      vertex 12.3744 1.875 0
      vertex 12.625 1.6244 3
      vertex 12.625 1.6244 0
    endloop
  endfacet
  facet normal 0.707107 0.707107 0
    outer loop
      vertex 11.875 2.3744 3
      vertex 11.6244 2.625 0
      vertex 11.6244 2.625 3
    endloop
  endfacet
  facet normal 0.707107 0.707107 0
    outer loop
      vertex 11.6244 2.625 0
      vertex 11.875 2.3744 3
      vertex 11.875 2.3744 0
    endloop
  endfacet
  facet normal 0.707107 0.707107 0
    outer loop
      vertex 11.125 3.1244 3
      vertex 10.8744 3.375 0
      vertex 10.8744 3.375 3
    endloop
  endfacet
  facet normal 0.707107 0.707107 0
    outer loop
      vertex 10.8744 3.375 0
      vertex 11.125 3.1244 3
      vertex 11.125 3.1244 0
    endloop
  endfacet
endsolid OpenSCAD_Model
