solid OpenSCAD_Model
  facet normal 0.996195 0.0871544 0
    outer loop
      vertex 5 0 5.5
      vertex 4.92404 0.86824 -5.5
      vertex 4.92404 0.86824 5.5
    endloop
  endfacet
  facet normal 0.996195 0.0871544 0
    outer loop
      vertex 4.92404 0.86824 -5.5
      vertex 5 0 5.5
      vertex 5 0 -5.5
    endloop
  endfacet
  facet normal -0.996195 0.0871544 0
    outer loop
      vertex -5 0 -5.5
      vertex -4.92404 0.86824 5.5
      vertex -4.92404 0.86824 -5.5
    endloop
  endfacet
  facet normal -0.996195 0.0871544 0
    outer loop
      vertex -4.92404 0.86824 5.5
      vertex -5 0 -5.5
      vertex -5 0 5.5
    endloop
  endfacet
  facet normal 0.0871544 0.996195 -0
    outer loop
      vertex 0.86824 4.92404 -5.5
      vertex 0 5 5.5
      vertex 0.86824 4.92404 5.5
    endloop
  endfacet
  facet normal 0.0871544 0.996195 0
    outer loop
      vertex 0 5 5.5
      vertex 0.86824 4.92404 -5.5
      vertex 0 5 -5.5
    endloop
  endfacet
  facet normal -0.0871544 -0.996195 0
    outer loop
      vertex -0.86824 -4.92404 -5.5
      vertex 0 -5 5.5
      vertex -0.86824 -4.92404 5.5
    endloop
  endfacet
  facet normal -0.0871544 -0.996195 -0
    outer loop
      vertex 0 -5 5.5
      vertex -0.86824 -4.92404 -5.5
      vertex 0 -5 -5.5
    endloop
  endfacet
  facet normal 0.707107 0.707107 0
    outer loop
      vertex 3.83022 3.21394 5.5
      vertex 3.21394 3.83022 -5.5
      vertex 3.21394 3.83022 5.5
    endloop
  endfacet
  facet normal 0.707107 0.707107 0
    outer loop
      vertex 3.21394 3.83022 -5.5
      vertex 3.83022 3.21394 5.5
      vertex 3.83022 3.21394 -5.5
    endloop
  endfacet
  facet normal -0.573579 0.81915 0
    outer loop
      vertex -2.5 4.33013 -5.5
      vertex -3.21394 3.83022 5.5
      vertex -2.5 4.33013 5.5
    endloop
  endfacet
  facet normal -0.573579 0.81915 0
    outer loop
      vertex -3.21394 3.83022 5.5
      vertex -2.5 4.33013 -5.5
      vertex -3.21394 3.83022 -5.5
    endloop
  endfacet
  facet normal -0.258824 0.965925 0
    outer loop
      vertex -0.86824 4.92404 -5.5
      vertex -1.7101 4.69846 5.5
      vertex -0.86824 4.92404 5.5
    endloop
  endfacet
  facet normal -0.258824 0.965925 0
    outer loop
      vertex -1.7101 4.69846 5.5
      vertex -0.86824 4.92404 -5.5
      vertex -1.7101 4.69846 -5.5
    endloop
  endfacet
  facet normal 0 0 -1
    outer loop
      vertex 4.92404 -0.86824 -5.5
      vertex 4.92404 0.86824 -5.5
      vertex 5 0 -5.5
    endloop
  endfacet
  facet normal 0 0 -1
    outer loop
      vertex 4.69846 -1.7101 -5.5
      vertex 4.92404 0.86824 -5.5
      vertex 4.92404 -0.86824 -5.5
    endloop
  endfacet
  facet normal 0 0 -1
    outer loop
      vertex 4.69846 -1.7101 -5.5
      vertex 4.69846 1.7101 -5.5
      vertex 4.92404 0.86824 -5.5
    endloop
  endfacet
  facet normal 0 0 -1
    outer loop
      vertex 4.33013 -2.5 -5.5
      vertex 4.69846 1.7101 -5.5
      vertex 4.69846 -1.7101 -5.5
    endloop
  endfacet
  facet normal 0 0 -1
    outer loop
      vertex 4.33013 -2.5 -5.5
      vertex 4.33013 2.5 -5.5
      vertex 4.69846 1.7101 -5.5
    endloop
  endfacet
  facet normal 0 0 -1
    outer loop
      vertex 3.83022 -3.21394 -5.5
      vertex 4.33013 2.5 -5.5
      vertex 4.33013 -2.5 -5.5
    endloop
  endfacet
  facet normal 0 0 -1
    outer loop
      vertex 3.83022 -3.21394 -5.5
      vertex 3.83022 3.21394 -5.5
      vertex 4.33013 2.5 -5.5
    endloop
  endfacet
  facet normal 0 0 -1
    outer loop
      vertex 3.21394 -3.83022 -5.5
      vertex 3.83022 3.21394 -5.5
      vertex 3.83022 -3.21394 -5.5
    endloop
  endfacet
  facet normal 0 0 -1
    outer loop
      vertex 3.21394 -3.83022 -5.5
      vertex 3.21394 3.83022 -5.5
      vertex 3.83022 3.21394 -5.5
    endloop
  endfacet
  facet normal 0 0 -1
    outer loop
      vertex 3.21394 -3.83022 -5.5
      vertex 2.5 4.33013 -5.5
      vertex 3.21394 3.83022 -5.5
    endloop
  endfacet
  facet normal 0 0 -1
    outer loop
      vertex 2.5 -4.33013 -5.5
      vertex 2.5 4.33013 -5.5
      vertex 3.21394 -3.83022 -5.5
    endloop
  endfacet
  facet normal 0 0 -1
    outer loop
      vertex 1.7101 -4.69846 -5.5
      vertex 2.5 4.33013 -5.5
      vertex 2.5 -4.33013 -5.5
    endloop
  endfacet
  facet normal 0 0 -1
    outer loop
      vertex 1.7101 -4.69846 -5.5
      vertex 1.7101 4.69846 -5.5
      vertex 2.5 4.33013 -5.5
    endloop
  endfacet
  facet normal 0 0 -1
    outer loop
      vertex 0.86824 -4.92404 -5.5
      vertex 1.7101 4.69846 -5.5
      vertex 1.7101 -4.69846 -5.5
    endloop
  endfacet
  facet normal 0 0 -1
    outer loop
      vertex 0.86824 -4.92404 -5.5
      vertex 0.86824 4.92404 -5.5
      vertex 1.7101 4.69846 -5.5
    endloop
  endfacet
  facet normal 0 0 -1
    outer loop
      vertex 0 -5 -5.5
      vertex 0.86824 4.92404 -5.5
      vertex 0.86824 -4.92404 -5.5
    endloop
  endfacet
  facet normal 0 0 -1
    outer loop
      vertex 0 -5 -5.5
      vertex 0 5 -5.5
      vertex 0.86824 4.92404 -5.5
    endloop
  endfacet
  facet normal 0 0 -1
    outer loop
      vertex -0.86824 -4.92404 -5.5
      vertex 0 5 -5.5
      vertex 0 -5 -5.5
    endloop
  endfacet
  facet normal 0 0 -1
    outer loop
      vertex -0.86824 -4.92404 -5.5
      vertex -0.86824 4.92404 -5.5
      vertex 0 5 -5.5
    endloop
  endfacet
  facet normal 0 0 -1
    outer loop
      vertex -1.7101 -4.69846 -5.5
      vertex -0.86824 4.92404 -5.5
      vertex -0.86824 -4.92404 -5.5
    endloop
  endfacet
  facet normal 0 0 -1
    outer loop
      vertex -1.7101 -4.69846 -5.5
      vertex -1.7101 4.69846 -5.5
      vertex -0.86824 4.92404 -5.5
    endloop
  endfacet
  facet normal 0 0 -1
    outer loop
      vertex -1.7101 -4.69846 -5.5
      vertex -2.5 4.33013 -5.5
      vertex -1.7101 4.69846 -5.5
    endloop
  endfacet
  facet normal 0 0 -1
    outer loop
      vertex -2.5 -4.33013 -5.5
      vertex -2.5 4.33013 -5.5
      vertex -1.7101 -4.69846 -5.5
    endloop
  endfacet
  facet normal 0 0 -1
    outer loop
      vertex -3.21394 -3.83022 -5.5
      vertex -2.5 4.33013 -5.5
      vertex -2.5 -4.33013 -5.5
    endloop
  endfacet
  facet normal 0 0 -1
    outer loop
      vertex -3.21394 -3.83022 -5.5
      vertex -3.21394 3.83022 -5.5
      vertex -2.5 4.33013 -5.5
    endloop
  endfacet
  facet normal 0 0 -1
    outer loop
      vertex -3.83022 -3.21394 -5.5
      vertex -3.21394 3.83022 -5.5
      vertex -3.21394 -3.83022 -5.5
    endloop
  endfacet
  facet normal 0 0 -1
    outer loop
      vertex -3.83022 -3.21394 -5.5
      vertex -3.83022 3.21394 -5.5
      vertex -3.21394 3.83022 -5.5
    endloop
  endfacet
  facet normal 0 0 -1
    outer loop
      vertex -4.33013 -2.5 -5.5
      vertex -3.83022 3.21394 -5.5
      vertex -3.83022 -3.21394 -5.5
    endloop
  endfacet
  facet normal 0 0 -1
    outer loop
      vertex -4.33013 -2.5 -5.5
      vertex -4.33013 2.5 -5.5
      vertex -3.83022 3.21394 -5.5
    endloop
  endfacet
  facet normal 0 0 -1
    outer loop
      vertex -4.69846 -1.7101 -5.5
      vertex -4.33013 2.5 -5.5
      vertex -4.33013 -2.5 -5.5
    endloop
  endfacet
  facet normal 0 0 -1
    outer loop
      vertex -4.69846 -1.7101 -5.5
      vertex -4.69846 1.7101 -5.5
      vertex -4.33013 2.5 -5.5
    endloop
  endfacet
  facet normal 0 0 -1
    outer loop
      vertex -4.92404 -0.86824 -5.5
      vertex -4.69846 1.7101 -5.5
      vertex -4.69846 -1.7101 -5.5
    endloop
  endfacet
  facet normal 0 0 -1
    outer loop
      vertex -4.92404 -0.86824 -5.5
      vertex -4.92404 0.86824 -5.5
      vertex -4.69846 1.7101 -5.5
    endloop
  endfacet
  facet normal 0 -0 -1
    outer loop
      vertex -4.92404 0.86824 -5.5
      vertex -4.92404 -0.86824 -5.5
      vertex -5 0 -5.5
    endloop
  endfacet
  facet normal 0.906311 0.422612 0
    outer loop
      vertex 4.69846 1.7101 5.5
      vertex 4.33013 2.5 -5.5
      vertex 4.33013 2.5 5.5
    endloop
  endfacet
  facet normal 0.906311 0.422612 0
    outer loop
      vertex 4.33013 2.5 -5.5
      vertex 4.69846 1.7101 5.5
      vertex 4.69846 1.7101 -5.5
    endloop
  endfacet
  facet normal 0.965925 0.258824 0
    outer loop
      vertex 4.92404 0.86824 5.5
      vertex 4.69846 1.7101 -5.5
      vertex 4.69846 1.7101 5.5
    endloop
  endfacet
  facet normal 0.965925 0.258824 0
    outer loop
      vertex 4.69846 1.7101 -5.5
      vertex 4.92404 0.86824 5.5
      vertex 4.92404 0.86824 -5.5
    endloop
  endfacet
  facet normal 0.81915 0.573579 0
    outer loop
      vertex 4.33013 2.5 5.5
      vertex 3.83022 3.21394 -5.5
      vertex 3.83022 3.21394 5.5
    endloop
  endfacet
  facet normal 0.81915 0.573579 0
    outer loop
      vertex 3.83022 3.21394 -5.5
      vertex 4.33013 2.5 5.5
      vertex 4.33013 2.5 -5.5
    endloop
  endfacet
  facet normal 0.422612 0.906311 -0
    outer loop
      vertex 2.5 4.33013 -5.5
      vertex 1.7101 4.69846 5.5
      vertex 2.5 4.33013 5.5
    endloop
  endfacet
  facet normal 0.422612 0.906311 0
    outer loop
      vertex 1.7101 4.69846 5.5
      vertex 2.5 4.33013 -5.5
      vertex 1.7101 4.69846 -5.5
    endloop
  endfacet
  facet normal 0.258824 0.965925 -0
    outer loop
      vertex 1.7101 4.69846 -5.5
      vertex 0.86824 4.92404 5.5
      vertex 1.7101 4.69846 5.5
    endloop
  endfacet
  facet normal 0.258824 0.965925 0
    outer loop
      vertex 0.86824 4.92404 5.5
      vertex 1.7101 4.69846 -5.5
      vertex 0.86824 4.92404 -5.5
    endloop
  endfacet
  facet normal 0.573579 0.81915 -0
    outer loop
      vertex 3.21394 3.83022 -5.5
      vertex 2.5 4.33013 5.5
      vertex 3.21394 3.83022 5.5
    endloop
  endfacet
  facet normal 0.573579 0.81915 0
    outer loop
      vertex 2.5 4.33013 5.5
      vertex 3.21394 3.83022 -5.5
      vertex 2.5 4.33013 -5.5
    endloop
  endfacet
  facet normal -0.81915 0.573579 0
    outer loop
      vertex -4.33013 2.5 -5.5
      vertex -3.83022 3.21394 5.5
      vertex -3.83022 3.21394 -5.5
    endloop
  endfacet
  facet normal -0.81915 0.573579 0
    outer loop
      vertex -3.83022 3.21394 5.5
      vertex -4.33013 2.5 -5.5
      vertex -4.33013 2.5 5.5
    endloop
  endfacet
  facet normal -0.707107 0.707107 0
    outer loop
      vertex -3.83022 3.21394 -5.5
      vertex -3.21394 3.83022 5.5
      vertex -3.21394 3.83022 -5.5
    endloop
  endfacet
  facet normal -0.707107 0.707107 0
    outer loop
      vertex -3.21394 3.83022 5.5
      vertex -3.83022 3.21394 -5.5
      vertex -3.83022 3.21394 5.5
    endloop
  endfacet
  facet normal -0.906311 0.422612 0
    outer loop
      vertex -4.69846 1.7101 -5.5
      vertex -4.33013 2.5 5.5
      vertex -4.33013 2.5 -5.5
    endloop
  endfacet
  facet normal -0.906311 0.422612 0
    outer loop
      vertex -4.33013 2.5 5.5
      vertex -4.69846 1.7101 -5.5
      vertex -4.69846 1.7101 5.5
    endloop
  endfacet
  facet normal -0.422612 0.906311 0
    outer loop
      vertex -1.7101 4.69846 -5.5
      vertex -2.5 4.33013 5.5
      vertex -1.7101 4.69846 5.5
    endloop
  endfacet
  facet normal -0.422612 0.906311 0
    outer loop
      vertex -2.5 4.33013 5.5
      vertex -1.7101 4.69846 -5.5
      vertex -2.5 4.33013 -5.5
    endloop
  endfacet
  facet normal -0.0871544 0.996195 0
    outer loop
      vertex 0 5 -5.5
      vertex -0.86824 4.92404 5.5
      vertex 0 5 5.5
    endloop
  endfacet
  facet normal -0.0871544 0.996195 0
    outer loop
      vertex -0.86824 4.92404 5.5
      vertex 0 5 -5.5
      vertex -0.86824 4.92404 -5.5
    endloop
  endfacet
  facet normal 0.573579 -0.81915 0
    outer loop
      vertex 2.5 -4.33013 -5.5
      vertex 3.21394 -3.83022 5.5
      vertex 2.5 -4.33013 5.5
    endloop
  endfacet
  facet normal 0.573579 -0.81915 0
    outer loop
      vertex 3.21394 -3.83022 5.5
      vertex 2.5 -4.33013 -5.5
      vertex 3.21394 -3.83022 -5.5
    endloop
  endfacet
  facet normal -0.573579 -0.81915 0
    outer loop
      vertex -3.21394 -3.83022 -5.5
      vertex -2.5 -4.33013 5.5
      vertex -3.21394 -3.83022 5.5
    endloop
  endfacet
  facet normal -0.573579 -0.81915 -0
    outer loop
      vertex -2.5 -4.33013 5.5
      vertex -3.21394 -3.83022 -5.5
      vertex -2.5 -4.33013 -5.5
    endloop
  endfacet
  facet normal -0.707107 -0.707107 0
    outer loop
      vertex -3.21394 -3.83022 -5.5
      vertex -3.83022 -3.21394 5.5
      vertex -3.83022 -3.21394 -5.5
    endloop
  endfacet
  facet normal -0.707107 -0.707107 0
    outer loop
      vertex -3.83022 -3.21394 5.5
      vertex -3.21394 -3.83022 -5.5
      vertex -3.21394 -3.83022 5.5
    endloop
  endfacet
  facet normal -0.422612 -0.906311 0
    outer loop
      vertex -2.5 -4.33013 -5.5
      vertex -1.7101 -4.69846 5.5
      vertex -2.5 -4.33013 5.5
    endloop
  endfacet
  facet normal -0.422612 -0.906311 -0
    outer loop
      vertex -1.7101 -4.69846 5.5
      vertex -2.5 -4.33013 -5.5
      vertex -1.7101 -4.69846 -5.5
    endloop
  endfacet
  facet normal -0.906311 -0.422612 0
    outer loop
      vertex -4.33013 -2.5 -5.5
      vertex -4.69846 -1.7101 5.5
      vertex -4.69846 -1.7101 -5.5
    endloop
  endfacet
  facet normal -0.906311 -0.422612 0
    outer loop
      vertex -4.69846 -1.7101 5.5
      vertex -4.33013 -2.5 -5.5
      vertex -4.33013 -2.5 5.5
    endloop
  endfacet
  facet normal -0.81915 -0.573579 0
    outer loop
      vertex -3.83022 -3.21394 -5.5
      vertex -4.33013 -2.5 5.5
      vertex -4.33013 -2.5 -5.5
    endloop
  endfacet
  facet normal -0.81915 -0.573579 0
    outer loop
      vertex -4.33013 -2.5 5.5
      vertex -3.83022 -3.21394 -5.5
      vertex -3.83022 -3.21394 5.5
    endloop
  endfacet
  facet normal -0.996195 -0.0871544 0
    outer loop
      vertex -4.92404 -0.86824 -5.5
      vertex -5 0 5.5
      vertex -5 0 -5.5
    endloop
  endfacet
  facet normal -0.996195 -0.0871544 0
    outer loop
      vertex -5 0 5.5
      vertex -4.92404 -0.86824 -5.5
      vertex -4.92404 -0.86824 5.5
    endloop
  endfacet
  facet normal -0.965925 0.258824 0
    outer loop
      vertex -4.92404 0.86824 -5.5
      vertex -4.69846 1.7101 5.5
      vertex -4.69846 1.7101 -5.5
    endloop
  endfacet
  facet normal -0.965925 0.258824 0
    outer loop
      vertex -4.69846 1.7101 5.5
      vertex -4.92404 0.86824 -5.5
      vertex -4.92404 0.86824 5.5
    endloop
  endfacet
  facet normal 0 0 1
    outer loop
      vertex 2 0 5.5
      vertex 5 0 5.5
      vertex 4.92404 0.86824 5.5
    endloop
  endfacet
  facet normal 0 0 1
    outer loop
      vertex 1.96961 0.347296 5.5
      vertex 4.92404 0.86824 5.5
      vertex 4.69846 1.7101 5.5
    endloop
  endfacet
  facet normal 0 0 1
    outer loop
      vertex 5 0 5.5
      vertex 2 0 5.5
      vertex 4.92404 -0.86824 5.5
    endloop
  endfacet
  facet normal 0 0 1
    outer loop
      vertex 1.87938 0.68404 5.5
      vertex 4.69846 1.7101 5.5
      vertex 4.33013 2.5 5.5
    endloop
  endfacet
  facet normal -0 0 1
    outer loop
      vertex 1.96961 -0.347296 5.5
      vertex 4.92404 -0.86824 5.5
      vertex 2 0 5.5
    endloop
  endfacet
  facet normal 0 0 1
    outer loop
      vertex 1.73205 0.999999 5.5
      vertex 4.33013 2.5 5.5
      vertex 3.83022 3.21394 5.5
    endloop
  endfacet
  facet normal 0 0 1
    outer loop
      vertex 4.92404 -0.86824 5.5
      vertex 1.96961 -0.347296 5.5
      vertex 4.69846 -1.7101 5.5
    endloop
  endfacet
  facet normal 0 0 1
    outer loop
      vertex 1.53209 1.28557 5.5
      vertex 3.83022 3.21394 5.5
      vertex 3.21394 3.83022 5.5
    endloop
  endfacet
  facet normal -0 0 1
    outer loop
      vertex 1.87938 -0.68404 5.5
      vertex 4.69846 -1.7101 5.5
      vertex 1.96961 -0.347296 5.5
    endloop
  endfacet
  facet normal 0 0 1
    outer loop
      vertex 1.28557 1.53209 5.5
      vertex 3.21394 3.83022 5.5
      vertex 2.5 4.33013 5.5
    endloop
  endfacet
  facet normal 0 0 1
    outer loop
      vertex 4.69846 -1.7101 5.5
      vertex 1.87938 -0.68404 5.5
      vertex 4.33013 -2.5 5.5
    endloop
  endfacet
  facet normal -0 0 1
    outer loop
      vertex 1.73205 -0.999999 5.5
      vertex 4.33013 -2.5 5.5
      vertex 1.87938 -0.68404 5.5
    endloop
  endfacet
  facet normal 0 0 1
    outer loop
      vertex 4.92404 0.86824 5.5
      vertex 1.96961 0.347296 5.5
      vertex 2 0 5.5
    endloop
  endfacet
  facet normal 0 0 1
    outer loop
      vertex 4.69846 1.7101 5.5
      vertex 1.87938 0.68404 5.5
      vertex 1.96961 0.347296 5.5
    endloop
  endfacet
  facet normal 0 0 1
    outer loop
      vertex 4.33013 2.5 5.5
      vertex 1.73205 0.999999 5.5
      vertex 1.87938 0.68404 5.5
    endloop
  endfacet
  facet normal 0 0 1
    outer loop
      vertex 1 1.73205 5.5
      vertex 2.5 4.33013 5.5
      vertex 1.7101 4.69846 5.5
    endloop
  endfacet
  facet normal 0 0 1
    outer loop
      vertex 3.83022 3.21394 5.5
      vertex 1.53209 1.28557 5.5
      vertex 1.73205 0.999999 5.5
    endloop
  endfacet
  facet normal 0 0 1
    outer loop
      vertex 3.21394 3.83022 5.5
      vertex 1.28557 1.53209 5.5
      vertex 1.53209 1.28557 5.5
    endloop
  endfacet
  facet normal 0 0 1
    outer loop
      vertex 2.5 4.33013 5.5
      vertex 1 1.73205 5.5
      vertex 1.28557 1.53209 5.5
    endloop
  endfacet
  facet normal 0 0 1
    outer loop
      vertex 0.68404 1.87938 5.5
      vertex 1.7101 4.69846 5.5
      vertex 0.86824 4.92404 5.5
    endloop
  endfacet
  facet normal 0 0 1
    outer loop
      vertex 1.7101 4.69846 5.5
      vertex 0.68404 1.87938 5.5
      vertex 1 1.73205 5.5
    endloop
  endfacet
  facet normal 0 0 1
    outer loop
      vertex 0.86824 4.92404 5.5
      vertex 0.347296 1.96961 5.5
      vertex 0.68404 1.87938 5.5
    endloop
  endfacet
  facet normal 0 0 1
    outer loop
      vertex 0 5 5.5
      vertex 0.347296 1.96961 5.5
      vertex 0.86824 4.92404 5.5
    endloop
  endfacet
  facet normal 0 0 1
    outer loop
      vertex 0 5 5.5
      vertex 0 2 5.5
      vertex 0.347296 1.96961 5.5
    endloop
  endfacet
  facet normal 0 0 1
    outer loop
      vertex 0 5 5.5
      vertex -0.347296 1.96961 5.5
      vertex 0 2 5.5
    endloop
  endfacet
  facet normal -0 0 1
    outer loop
      vertex -0.86824 4.92404 5.5
      vertex -0.347296 1.96961 5.5
      vertex 0 5 5.5
    endloop
  endfacet
  facet normal 0 0 1
    outer loop
      vertex -0.347296 1.96961 5.5
      vertex -0.86824 4.92404 5.5
      vertex -0.68404 1.87938 5.5
    endloop
  endfacet
  facet normal -0 0 1
    outer loop
      vertex -1.7101 4.69846 5.5
      vertex -0.68404 1.87938 5.5
      vertex -0.86824 4.92404 5.5
    endloop
  endfacet
  facet normal 0 0 1
    outer loop
      vertex -0.68404 1.87938 5.5
      vertex -1.7101 4.69846 5.5
      vertex -0.999999 1.73205 5.5
    endloop
  endfacet
  facet normal -0 0 1
    outer loop
      vertex -2.5 4.33013 5.5
      vertex -0.999999 1.73205 5.5
      vertex -1.7101 4.69846 5.5
    endloop
  endfacet
  facet normal 0 0 1
    outer loop
      vertex -0.999999 1.73205 5.5
      vertex -2.5 4.33013 5.5
      vertex -1.28557 1.53209 5.5
    endloop
  endfacet
  facet normal -0 0 1
    outer loop
      vertex -3.21394 3.83022 5.5
      vertex -1.28557 1.53209 5.5
      vertex -2.5 4.33013 5.5
    endloop
  endfacet
  facet normal 0 0 1
    outer loop
      vertex -1.28557 1.53209 5.5
      vertex -3.21394 3.83022 5.5
      vertex -1.53209 1.28557 5.5
    endloop
  endfacet
  facet normal -0 0 1
    outer loop
      vertex -3.83022 3.21394 5.5
      vertex -1.53209 1.28557 5.5
      vertex -3.21394 3.83022 5.5
    endloop
  endfacet
  facet normal 0 0 1
    outer loop
      vertex -1.53209 1.28557 5.5
      vertex -3.83022 3.21394 5.5
      vertex -1.73205 1 5.5
    endloop
  endfacet
  facet normal -0 0 1
    outer loop
      vertex -4.33013 2.5 5.5
      vertex -1.73205 1 5.5
      vertex -3.83022 3.21394 5.5
    endloop
  endfacet
  facet normal 0 0 1
    outer loop
      vertex 4.33013 -2.5 5.5
      vertex 1.73205 -0.999999 5.5
      vertex 3.83022 -3.21394 5.5
    endloop
  endfacet
  facet normal -0 0 1
    outer loop
      vertex 1.53209 -1.28557 5.5
      vertex 3.83022 -3.21394 5.5
      vertex 1.73205 -0.999999 5.5
    endloop
  endfacet
  facet normal 0 0 1
    outer loop
      vertex 3.83022 -3.21394 5.5
      vertex 1.53209 -1.28557 5.5
      vertex 3.21394 -3.83022 5.5
    endloop
  endfacet
  facet normal -0 0 1
    outer loop
      vertex 1.28557 -1.53209 5.5
      vertex 3.21394 -3.83022 5.5
      vertex 1.53209 -1.28557 5.5
    endloop
  endfacet
  facet normal 0 0 1
    outer loop
      vertex 3.21394 -3.83022 5.5
      vertex 1.28557 -1.53209 5.5
      vertex 2.5 -4.33013 5.5
    endloop
  endfacet
  facet normal -0 0 1
    outer loop
      vertex 0.999999 -1.73205 5.5
      vertex 2.5 -4.33013 5.5
      vertex 1.28557 -1.53209 5.5
    endloop
  endfacet
  facet normal 0 0 1
    outer loop
      vertex 2.5 -4.33013 5.5
      vertex 0.999999 -1.73205 5.5
      vertex 1.7101 -4.69846 5.5
    endloop
  endfacet
  facet normal -0 0 1
    outer loop
      vertex 0.68404 -1.87938 5.5
      vertex 1.7101 -4.69846 5.5
      vertex 0.999999 -1.73205 5.5
    endloop
  endfacet
  facet normal 0 0 1
    outer loop
      vertex 1.7101 -4.69846 5.5
      vertex 0.68404 -1.87938 5.5
      vertex 0.86824 -4.92404 5.5
    endloop
  endfacet
  facet normal -0 0 1
    outer loop
      vertex 0.347296 -1.96961 5.5
      vertex 0.86824 -4.92404 5.5
      vertex 0.68404 -1.87938 5.5
    endloop
  endfacet
  facet normal -0 0 1
    outer loop
      vertex 0 -2 5.5
      vertex 0.86824 -4.92404 5.5
      vertex 0.347296 -1.96961 5.5
    endloop
  endfacet
  facet normal 0 0 1
    outer loop
      vertex 0 -2 5.5
      vertex 0 -5 5.5
      vertex 0.86824 -4.92404 5.5
    endloop
  endfacet
  facet normal 0 0 1
    outer loop
      vertex -0.347296 -1.96961 5.5
      vertex 0 -5 5.5
      vertex 0 -2 5.5
    endloop
  endfacet
  facet normal 0 0 1
    outer loop
      vertex -0.86824 -4.92404 5.5
      vertex -0.347296 -1.96961 5.5
      vertex -0.68404 -1.87938 5.5
    endloop
  endfacet
  facet normal 0 0 1
    outer loop
      vertex -0.347296 -1.96961 5.5
      vertex -0.86824 -4.92404 5.5
      vertex 0 -5 5.5
    endloop
  endfacet
  facet normal 0 0 1
    outer loop
      vertex -1.7101 -4.69846 5.5
      vertex -0.68404 -1.87938 5.5
      vertex -1 -1.73205 5.5
    endloop
  endfacet
  facet normal 0 0 1
    outer loop
      vertex -2.5 -4.33013 5.5
      vertex -1 -1.73205 5.5
      vertex -1.28557 -1.53209 5.5
    endloop
  endfacet
  facet normal 0 0 1
    outer loop
      vertex -3.21394 -3.83022 5.5
      vertex -1.28557 -1.53209 5.5
      vertex -1.53209 -1.28557 5.5
    endloop
  endfacet
  facet normal 0 0 1
    outer loop
      vertex -0.68404 -1.87938 5.5
      vertex -1.7101 -4.69846 5.5
      vertex -0.86824 -4.92404 5.5
    endloop
  endfacet
  facet normal 0 0 1
    outer loop
      vertex -3.83022 -3.21394 5.5
      vertex -1.53209 -1.28557 5.5
      vertex -1.73205 -1 5.5
    endloop
  endfacet
  facet normal 0 0 1
    outer loop
      vertex -4.33013 -2.5 5.5
      vertex -1.73205 -1 5.5
      vertex -1.87938 -0.68404 5.5
    endloop
  endfacet
  facet normal 0 0 1
    outer loop
      vertex -4.69846 -1.7101 5.5
      vertex -1.87938 -0.68404 5.5
      vertex -1.96961 -0.347296 5.5
    endloop
  endfacet
  facet normal 0 0 1
    outer loop
      vertex -4.92404 -0.86824 5.5
      vertex -1.96961 -0.347296 5.5
      vertex -2 0 5.5
    endloop
  endfacet
  facet normal 0 0 1
    outer loop
      vertex -1.73205 1 5.5
      vertex -4.33013 2.5 5.5
      vertex -1.87938 0.68404 5.5
    endloop
  endfacet
  facet normal 0 0 1
    outer loop
      vertex -1 -1.73205 5.5
      vertex -2.5 -4.33013 5.5
      vertex -1.7101 -4.69846 5.5
    endloop
  endfacet
  facet normal -0 0 1
    outer loop
      vertex -4.69846 1.7101 5.5
      vertex -1.87938 0.68404 5.5
      vertex -4.33013 2.5 5.5
    endloop
  endfacet
  facet normal 0 0 1
    outer loop
      vertex -1.28557 -1.53209 5.5
      vertex -3.21394 -3.83022 5.5
      vertex -2.5 -4.33013 5.5
    endloop
  endfacet
  facet normal 0 0 1
    outer loop
      vertex -1.87938 0.68404 5.5
      vertex -4.69846 1.7101 5.5
      vertex -1.96961 0.347296 5.5
    endloop
  endfacet
  facet normal 0 0 1
    outer loop
      vertex -1.53209 -1.28557 5.5
      vertex -3.83022 -3.21394 5.5
      vertex -3.21394 -3.83022 5.5
    endloop
  endfacet
  facet normal -0 0 1
    outer loop
      vertex -4.92404 0.86824 5.5
      vertex -1.96961 0.347296 5.5
      vertex -4.69846 1.7101 5.5
    endloop
  endfacet
  facet normal 0 0 1
    outer loop
      vertex -1.73205 -1 5.5
      vertex -4.33013 -2.5 5.5
      vertex -3.83022 -3.21394 5.5
    endloop
  endfacet
  facet normal 0 0 1
    outer loop
      vertex -1.96961 0.347296 5.5
      vertex -4.92404 0.86824 5.5
      vertex -2 0 5.5
    endloop
  endfacet
  facet normal 0 0 1
    outer loop
      vertex -1.87938 -0.68404 5.5
      vertex -4.69846 -1.7101 5.5
      vertex -4.33013 -2.5 5.5
    endloop
  endfacet
  facet normal 0 0 1
    outer loop
      vertex -5 0 5.5
      vertex -2 0 5.5
      vertex -4.92404 0.86824 5.5
    endloop
  endfacet
  facet normal 0 0 1
    outer loop
      vertex -1.96961 -0.347296 5.5
      vertex -4.92404 -0.86824 5.5
      vertex -4.69846 -1.7101 5.5
    endloop
  endfacet
  facet normal 0 0 1
    outer loop
      vertex -2 0 5.5
      vertex -5 0 5.5
      vertex -4.92404 -0.86824 5.5
    endloop
  endfacet
  facet normal 0.0871544 -0.996195 0
    outer loop
      vertex 0 -5 -5.5
      vertex 0.86824 -4.92404 5.5
      vertex 0 -5 5.5
    endloop
  endfacet
  facet normal 0.0871544 -0.996195 0
    outer loop
      vertex 0.86824 -4.92404 5.5
      vertex 0 -5 -5.5
      vertex 0.86824 -4.92404 -5.5
    endloop
  endfacet
  facet normal 0.422612 -0.906311 0
    outer loop
      vertex 1.7101 -4.69846 -5.5
      vertex 2.5 -4.33013 5.5
      vertex 1.7101 -4.69846 5.5
    endloop
  endfacet
  facet normal 0.422612 -0.906311 0
    outer loop
      vertex 2.5 -4.33013 5.5
      vertex 1.7101 -4.69846 -5.5
      vertex 2.5 -4.33013 -5.5
    endloop
  endfacet
  facet normal 0.707107 -0.707107 0
    outer loop
      vertex 3.21394 -3.83022 5.5
      vertex 3.83022 -3.21394 -5.5
      vertex 3.83022 -3.21394 5.5
    endloop
  endfacet
  facet normal 0.707107 -0.707107 0
    outer loop
      vertex 3.83022 -3.21394 -5.5
      vertex 3.21394 -3.83022 5.5
      vertex 3.21394 -3.83022 -5.5
    endloop
  endfacet
  facet normal 0.906311 -0.422612 0
    outer loop
      vertex 4.33013 -2.5 5.5
      vertex 4.69846 -1.7101 -5.5
      vertex 4.69846 -1.7101 5.5
    endloop
  endfacet
  facet normal 0.906311 -0.422612 0
    outer loop
      vertex 4.69846 -1.7101 -5.5
      vertex 4.33013 -2.5 5.5
      vertex 4.33013 -2.5 -5.5
    endloop
  endfacet
  facet normal 0.81915 -0.573579 0
    outer loop
      vertex 3.83022 -3.21394 5.5
      vertex 4.33013 -2.5 -5.5
      vertex 4.33013 -2.5 5.5
    endloop
  endfacet
  facet normal 0.81915 -0.573579 0
    outer loop
      vertex 4.33013 -2.5 -5.5
      vertex 3.83022 -3.21394 5.5
      vertex 3.83022 -3.21394 -5.5
    endloop
  endfacet
  facet normal 0.965925 -0.258824 0
    outer loop
      vertex 4.69846 -1.7101 5.5
      vertex 4.92404 -0.86824 -5.5
      vertex 4.92404 -0.86824 5.5
    endloop
  endfacet
  facet normal 0.965925 -0.258824 0
    outer loop
      vertex 4.92404 -0.86824 -5.5
      vertex 4.69846 -1.7101 5.5
      vertex 4.69846 -1.7101 -5.5
    endloop
  endfacet
  facet normal -0.258824 -0.965925 0
    outer loop
      vertex -1.7101 -4.69846 -5.5
      vertex -0.86824 -4.92404 5.5
      vertex -1.7101 -4.69846 5.5
    endloop
  endfacet
  facet normal -0.258824 -0.965925 -0
    outer loop
      vertex -0.86824 -4.92404 5.5
      vertex -1.7101 -4.69846 -5.5
      vertex -0.86824 -4.92404 -5.5
    endloop
  endfacet
  facet normal -0.965925 -0.258824 0
    outer loop
      vertex -4.69846 -1.7101 -5.5
      vertex -4.92404 -0.86824 5.5
      vertex -4.92404 -0.86824 -5.5
    endloop
  endfacet
  facet normal -0.965925 -0.258824 0
    outer loop
      vertex -4.92404 -0.86824 5.5
      vertex -4.69846 -1.7101 -5.5
      vertex -4.69846 -1.7101 5.5
    endloop
  endfacet
  facet normal 0.258824 -0.965925 0
    outer loop
      vertex 0.86824 -4.92404 -5.5
      vertex 1.7101 -4.69846 5.5
      vertex 0.86824 -4.92404 5.5
    endloop
  endfacet
  facet normal 0.258824 -0.965925 0
    outer loop
      vertex 1.7101 -4.69846 5.5
      vertex 0.86824 -4.92404 -5.5
      vertex 1.7101 -4.69846 -5.5
    endloop
  endfacet
  facet normal 0.996195 -0.0871544 0
    outer loop
      vertex 4.92404 -0.86824 5.5
      vertex 5 0 -5.5
      vertex 5 0 5.5
    endloop
  endfacet
  facet normal 0.996195 -0.0871544 0
    outer loop
      vertex 5 0 -5.5
      vertex 4.92404 -0.86824 5.5
      vertex 4.92404 -0.86824 -5.5
    endloop
  endfacet
  facet normal 0.996193 0.0871715 0
    outer loop
      vertex 2 0 10.5
      vertex 1.96961 0.347296 5.5
      vertex 1.96961 0.347296 10.5
    endloop
  endfacet
  facet normal 0.996193 0.0871715 0
    outer loop
      vertex 1.96961 0.347296 5.5
      vertex 2 0 10.5
      vertex 2 0 5.5
    endloop
  endfacet
  facet normal -0.996193 0.0871715 0
    outer loop
      vertex -2 0 5.5
      vertex -1.96961 0.347296 10.5
      vertex -1.96961 0.347296 5.5
    endloop
  endfacet
  facet normal -0.996193 0.0871715 0
    outer loop
      vertex -1.96961 0.347296 10.5
      vertex -2 0 5.5
      vertex -2 0 10.5
    endloop
  endfacet
  facet normal 0.0871715 0.996193 -0
    outer loop
      vertex 0.347296 1.96961 5.5
      vertex 0 2 10.5
      vertex 0.347296 1.96961 10.5
    endloop
  endfacet
  facet normal 0.0871715 0.996193 0
    outer loop
      vertex 0 2 10.5
      vertex 0.347296 1.96961 5.5
      vertex 0 2 5.5
    endloop
  endfacet
  facet normal -0.0871715 -0.996193 0
    outer loop
      vertex -0.347296 -1.96961 5.5
      vertex 0 -2 10.5
      vertex -0.347296 -1.96961 10.5
    endloop
  endfacet
  facet normal -0.0871715 -0.996193 -0
    outer loop
      vertex 0 -2 10.5
      vertex -0.347296 -1.96961 5.5
      vertex 0 -2 5.5
    endloop
  endfacet
  facet normal 0.707107 0.707107 0
    outer loop
      vertex 1.53209 1.28557 10.5
      vertex 1.28557 1.53209 5.5
      vertex 1.28557 1.53209 10.5
    endloop
  endfacet
  facet normal 0.707107 0.707107 0
    outer loop
      vertex 1.28557 1.53209 5.5
      vertex 1.53209 1.28557 10.5
      vertex 1.53209 1.28557 5.5
    endloop
  endfacet
  facet normal -0.573578 0.819151 0
    outer loop
      vertex -0.999999 1.73205 5.5
      vertex -1.28557 1.53209 10.5
      vertex -0.999999 1.73205 10.5
    endloop
  endfacet
  facet normal -0.573578 0.819151 0
    outer loop
      vertex -1.28557 1.53209 10.5
      vertex -0.999999 1.73205 5.5
      vertex -1.28557 1.53209 5.5
    endloop
  endfacet
  facet normal -0.258818 0.965926 0
    outer loop
      vertex -0.347296 1.96961 5.5
      vertex -0.68404 1.87938 10.5
      vertex -0.347296 1.96961 10.5
    endloop
  endfacet
  facet normal -0.258818 0.965926 0
    outer loop
      vertex -0.68404 1.87938 10.5
      vertex -0.347296 1.96961 5.5
      vertex -0.68404 1.87938 5.5
    endloop
  endfacet
  facet normal 0.707107 -0.707107 0
    outer loop
      vertex 1.28557 -1.53209 10.5
      vertex 1.53209 -1.28557 5.5
      vertex 1.53209 -1.28557 10.5
    endloop
  endfacet
  facet normal 0.707107 -0.707107 0
    outer loop
      vertex 1.53209 -1.28557 5.5
      vertex 1.28557 -1.53209 10.5
      vertex 1.28557 -1.53209 5.5
    endloop
  endfacet
  facet normal 0.819151 -0.573578 0
    outer loop
      vertex 1.53209 -1.28557 10.5
      vertex 1.73205 -0.999999 5.5
      vertex 1.73205 -0.999999 10.5
    endloop
  endfacet
  facet normal 0.819151 -0.573578 0
    outer loop
      vertex 1.73205 -0.999999 5.5
      vertex 1.53209 -1.28557 10.5
      vertex 1.53209 -1.28557 5.5
    endloop
  endfacet
  facet normal 0.906312 0.422609 0
    outer loop
      vertex 1.87938 0.68404 10.5
      vertex 1.73205 0.999999 5.5
      vertex 1.73205 0.999999 10.5
    endloop
  endfacet
  facet normal 0.906312 0.422609 0
    outer loop
      vertex 1.73205 0.999999 5.5
      vertex 1.87938 0.68404 10.5
      vertex 1.87938 0.68404 5.5
    endloop
  endfacet
  facet normal 0.965926 0.258818 0
    outer loop
      vertex 1.96961 0.347296 10.5
      vertex 1.87938 0.68404 5.5
      vertex 1.87938 0.68404 10.5
    endloop
  endfacet
  facet normal 0.965926 0.258818 0
    outer loop
      vertex 1.87938 0.68404 5.5
      vertex 1.96961 0.347296 10.5
      vertex 1.96961 0.347296 5.5
    endloop
  endfacet
  facet normal 0.819151 0.573578 0
    outer loop
      vertex 1.73205 0.999999 10.5
      vertex 1.53209 1.28557 5.5
      vertex 1.53209 1.28557 10.5
    endloop
  endfacet
  facet normal 0.819151 0.573578 0
    outer loop
      vertex 1.53209 1.28557 5.5
      vertex 1.73205 0.999999 10.5
      vertex 1.73205 0.999999 5.5
    endloop
  endfacet
  facet normal 0.422607 0.906313 -0
    outer loop
      vertex 1 1.73205 5.5
      vertex 0.68404 1.87938 10.5
      vertex 1 1.73205 10.5
    endloop
  endfacet
  facet normal 0.422607 0.906313 0
    outer loop
      vertex 0.68404 1.87938 10.5
      vertex 1 1.73205 5.5
      vertex 0.68404 1.87938 5.5
    endloop
  endfacet
  facet normal 0.258818 0.965926 -0
    outer loop
      vertex 0.68404 1.87938 5.5
      vertex 0.347296 1.96961 10.5
      vertex 0.68404 1.87938 10.5
    endloop
  endfacet
  facet normal 0.258818 0.965926 0
    outer loop
      vertex 0.347296 1.96961 10.5
      vertex 0.68404 1.87938 5.5
      vertex 0.347296 1.96961 5.5
    endloop
  endfacet
  facet normal 0.57358 0.81915 -0
    outer loop
      vertex 1.28557 1.53209 5.5
      vertex 1 1.73205 10.5
      vertex 1.28557 1.53209 10.5
    endloop
  endfacet
  facet normal 0.57358 0.81915 0
    outer loop
      vertex 1 1.73205 10.5
      vertex 1.28557 1.53209 5.5
      vertex 1 1.73205 5.5
    endloop
  endfacet
  facet normal -0.81915 0.57358 0
    outer loop
      vertex -1.73205 1 5.5
      vertex -1.53209 1.28557 10.5
      vertex -1.53209 1.28557 5.5
    endloop
  endfacet
  facet normal -0.81915 0.57358 0
    outer loop
      vertex -1.53209 1.28557 10.5
      vertex -1.73205 1 5.5
      vertex -1.73205 1 10.5
    endloop
  endfacet
  facet normal -0.707107 0.707107 0
    outer loop
      vertex -1.53209 1.28557 5.5
      vertex -1.28557 1.53209 10.5
      vertex -1.28557 1.53209 5.5
    endloop
  endfacet
  facet normal -0.707107 0.707107 0
    outer loop
      vertex -1.28557 1.53209 10.5
      vertex -1.53209 1.28557 5.5
      vertex -1.53209 1.28557 10.5
    endloop
  endfacet
  facet normal -0.965926 0.258818 0
    outer loop
      vertex -1.96961 0.347296 5.5
      vertex -1.87938 0.68404 10.5
      vertex -1.87938 0.68404 5.5
    endloop
  endfacet
  facet normal -0.965926 0.258818 0
    outer loop
      vertex -1.87938 0.68404 10.5
      vertex -1.96961 0.347296 5.5
      vertex -1.96961 0.347296 10.5
    endloop
  endfacet
  facet normal 0 0 1
    outer loop
      vertex 1.96961 0.347296 10.5
      vertex 1.96961 -0.347296 10.5
      vertex 2 0 10.5
    endloop
  endfacet
  facet normal 0 0 1
    outer loop
      vertex 1.87938 0.68404 10.5
      vertex 1.96961 -0.347296 10.5
      vertex 1.96961 0.347296 10.5
    endloop
  endfacet
  facet normal 0 0 1
    outer loop
      vertex 1.87938 0.68404 10.5
      vertex 1.87938 -0.68404 10.5
      vertex 1.96961 -0.347296 10.5
    endloop
  endfacet
  facet normal 0 0 1
    outer loop
      vertex 1.73205 0.999999 10.5
      vertex 1.87938 -0.68404 10.5
      vertex 1.87938 0.68404 10.5
    endloop
  endfacet
  facet normal 0 0 1
    outer loop
      vertex 1.73205 0.999999 10.5
      vertex 1.73205 -0.999999 10.5
      vertex 1.87938 -0.68404 10.5
    endloop
  endfacet
  facet normal 0 0 1
    outer loop
      vertex 1.53209 1.28557 10.5
      vertex 1.73205 -0.999999 10.5
      vertex 1.73205 0.999999 10.5
    endloop
  endfacet
  facet normal 0 0 1
    outer loop
      vertex 1.53209 1.28557 10.5
      vertex 1.53209 -1.28557 10.5
      vertex 1.73205 -0.999999 10.5
    endloop
  endfacet
  facet normal 0 0 1
    outer loop
      vertex 1.28557 1.53209 10.5
      vertex 1.53209 -1.28557 10.5
      vertex 1.53209 1.28557 10.5
    endloop
  endfacet
  facet normal 0 0 1
    outer loop
      vertex 1.28557 1.53209 10.5
      vertex 1.28557 -1.53209 10.5
      vertex 1.53209 -1.28557 10.5
    endloop
  endfacet
  facet normal 0 0 1
    outer loop
      vertex 1 1.73205 10.5
      vertex 1.28557 -1.53209 10.5
      vertex 1.28557 1.53209 10.5
    endloop
  endfacet
  facet normal 0 0 1
    outer loop
      vertex 1 1.73205 10.5
      vertex 0.999999 -1.73205 10.5
      vertex 1.28557 -1.53209 10.5
    endloop
  endfacet
  facet normal 0 0 1
    outer loop
      vertex 0.68404 1.87938 10.5
      vertex 0.999999 -1.73205 10.5
      vertex 1 1.73205 10.5
    endloop
  endfacet
  facet normal 0 0 1
    outer loop
      vertex 0.68404 1.87938 10.5
      vertex 0.68404 -1.87938 10.5
      vertex 0.999999 -1.73205 10.5
    endloop
  endfacet
  facet normal 0 0 1
    outer loop
      vertex 0.347296 1.96961 10.5
      vertex 0.68404 -1.87938 10.5
      vertex 0.68404 1.87938 10.5
    endloop
  endfacet
  facet normal 0 0 1
    outer loop
      vertex 0.347296 1.96961 10.5
      vertex 0.347296 -1.96961 10.5
      vertex 0.68404 -1.87938 10.5
    endloop
  endfacet
  facet normal 0 0 1
    outer loop
      vertex 0 2 10.5
      vertex 0.347296 -1.96961 10.5
      vertex 0.347296 1.96961 10.5
    endloop
  endfacet
  facet normal 0 0 1
    outer loop
      vertex 0 2 10.5
      vertex 0 -2 10.5
      vertex 0.347296 -1.96961 10.5
    endloop
  endfacet
  facet normal -0 0 1
    outer loop
      vertex -0.347296 1.96961 10.5
      vertex 0 -2 10.5
      vertex 0 2 10.5
    endloop
  endfacet
  facet normal 0 0 1
    outer loop
      vertex -0.347296 1.96961 10.5
      vertex -0.347296 -1.96961 10.5
      vertex 0 -2 10.5
    endloop
  endfacet
  facet normal -0 0 1
    outer loop
      vertex -0.68404 1.87938 10.5
      vertex -0.347296 -1.96961 10.5
      vertex -0.347296 1.96961 10.5
    endloop
  endfacet
  facet normal 0 0 1
    outer loop
      vertex -0.68404 1.87938 10.5
      vertex -0.68404 -1.87938 10.5
      vertex -0.347296 -1.96961 10.5
    endloop
  endfacet
  facet normal -0 0 1
    outer loop
      vertex -0.999999 1.73205 10.5
      vertex -0.68404 -1.87938 10.5
      vertex -0.68404 1.87938 10.5
    endloop
  endfacet
  facet normal 0 0 1
    outer loop
      vertex -0.999999 1.73205 10.5
      vertex -1 -1.73205 10.5
      vertex -0.68404 -1.87938 10.5
    endloop
  endfacet
  facet normal -0 0 1
    outer loop
      vertex -1.28557 1.53209 10.5
      vertex -1 -1.73205 10.5
      vertex -0.999999 1.73205 10.5
    endloop
  endfacet
  facet normal 0 0 1
    outer loop
      vertex -1.28557 1.53209 10.5
      vertex -1.28557 -1.53209 10.5
      vertex -1 -1.73205 10.5
    endloop
  endfacet
  facet normal -0 0 1
    outer loop
      vertex -1.53209 1.28557 10.5
      vertex -1.28557 -1.53209 10.5
      vertex -1.28557 1.53209 10.5
    endloop
  endfacet
  facet normal 0 0 1
    outer loop
      vertex -1.53209 1.28557 10.5
      vertex -1.53209 -1.28557 10.5
      vertex -1.28557 -1.53209 10.5
    endloop
  endfacet
  facet normal -0 0 1
    outer loop
      vertex -1.73205 1 10.5
      vertex -1.53209 -1.28557 10.5
      vertex -1.53209 1.28557 10.5
    endloop
  endfacet
  facet normal 0 0 1
    outer loop
      vertex -1.73205 1 10.5
      vertex -1.73205 -1 10.5
      vertex -1.53209 -1.28557 10.5
    endloop
  endfacet
  facet normal -0 0 1
    outer loop
      vertex -1.87938 0.68404 10.5
      vertex -1.73205 -1 10.5
      vertex -1.73205 1 10.5
    endloop
  endfacet
  facet normal 0 0 1
    outer loop
      vertex -1.87938 0.68404 10.5
      vertex -1.87938 -0.68404 10.5
      vertex -1.73205 -1 10.5
    endloop
  endfacet
  facet normal -0 0 1
    outer loop
      vertex -1.96961 0.347296 10.5
      vertex -1.87938 -0.68404 10.5
      vertex -1.87938 0.68404 10.5
    endloop
  endfacet
  facet normal 0 0 1
    outer loop
      vertex -1.96961 0.347296 10.5
      vertex -1.96961 -0.347296 10.5
      vertex -1.87938 -0.68404 10.5
    endloop
  endfacet
  facet normal 0 -0 1
    outer loop
      vertex -1.96961 -0.347296 10.5
      vertex -1.96961 0.347296 10.5
      vertex -2 0 10.5
    endloop
  endfacet
  facet normal -0.422609 0.906312 0
    outer loop
      vertex -0.68404 1.87938 5.5
      vertex -0.999999 1.73205 10.5
      vertex -0.68404 1.87938 10.5
    endloop
  endfacet
  facet normal -0.422609 0.906312 0
    outer loop
      vertex -0.999999 1.73205 10.5
      vertex -0.68404 1.87938 5.5
      vertex -0.999999 1.73205 5.5
    endloop
  endfacet
  facet normal -0.0871715 0.996193 0
    outer loop
      vertex 0 2 5.5
      vertex -0.347296 1.96961 10.5
      vertex 0 2 10.5
    endloop
  endfacet
  facet normal -0.0871715 0.996193 0
    outer loop
      vertex -0.347296 1.96961 10.5
      vertex 0 2 5.5
      vertex -0.347296 1.96961 5.5
    endloop
  endfacet
  facet normal 0.0871715 -0.996193 0
    outer loop
      vertex 0 -2 5.5
      vertex 0.347296 -1.96961 10.5
      vertex 0 -2 10.5
    endloop
  endfacet
  facet normal 0.0871715 -0.996193 0
    outer loop
      vertex 0.347296 -1.96961 10.5
      vertex 0 -2 5.5
      vertex 0.347296 -1.96961 5.5
    endloop
  endfacet
  facet normal -0.707107 -0.707107 0
    outer loop
      vertex -1.28557 -1.53209 5.5
      vertex -1.53209 -1.28557 10.5
      vertex -1.53209 -1.28557 5.5
    endloop
  endfacet
  facet normal -0.707107 -0.707107 0
    outer loop
      vertex -1.53209 -1.28557 10.5
      vertex -1.28557 -1.53209 5.5
      vertex -1.28557 -1.53209 10.5
    endloop
  endfacet
  facet normal -0.258818 -0.965926 0
    outer loop
      vertex -0.68404 -1.87938 5.5
      vertex -0.347296 -1.96961 10.5
      vertex -0.68404 -1.87938 10.5
    endloop
  endfacet
  facet normal -0.258818 -0.965926 -0
    outer loop
      vertex -0.347296 -1.96961 10.5
      vertex -0.68404 -1.87938 5.5
      vertex -0.347296 -1.96961 5.5
    endloop
  endfacet
  facet normal -0.906313 -0.422607 0
    outer loop
      vertex -1.73205 -1 5.5
      vertex -1.87938 -0.68404 10.5
      vertex -1.87938 -0.68404 5.5
    endloop
  endfacet
  facet normal -0.906313 -0.422607 0
    outer loop
      vertex -1.87938 -0.68404 10.5
      vertex -1.73205 -1 5.5
      vertex -1.73205 -1 10.5
    endloop
  endfacet
  facet normal -0.81915 -0.57358 0
    outer loop
      vertex -1.53209 -1.28557 5.5
      vertex -1.73205 -1 10.5
      vertex -1.73205 -1 5.5
    endloop
  endfacet
  facet normal -0.81915 -0.57358 0
    outer loop
      vertex -1.73205 -1 10.5
      vertex -1.53209 -1.28557 5.5
      vertex -1.53209 -1.28557 10.5
    endloop
  endfacet
  facet normal -0.996193 -0.0871715 0
    outer loop
      vertex -1.96961 -0.347296 5.5
      vertex -2 0 10.5
      vertex -2 0 5.5
    endloop
  endfacet
  facet normal -0.996193 -0.0871715 0
    outer loop
      vertex -2 0 10.5
      vertex -1.96961 -0.347296 5.5
      vertex -1.96961 -0.347296 10.5
    endloop
  endfacet
  facet normal -0.906313 0.422607 0
    outer loop
      vertex -1.87938 0.68404 5.5
      vertex -1.73205 1 10.5
      vertex -1.73205 1 5.5
    endloop
  endfacet
  facet normal -0.906313 0.422607 0
    outer loop
      vertex -1.73205 1 10.5
      vertex -1.87938 0.68404 5.5
      vertex -1.87938 0.68404 10.5
    endloop
  endfacet
  facet normal 0.258818 -0.965926 0
    outer loop
      vertex 0.347296 -1.96961 5.5
      vertex 0.68404 -1.87938 10.5
      vertex 0.347296 -1.96961 10.5
    endloop
  endfacet
  facet normal 0.258818 -0.965926 0
    outer loop
      vertex 0.68404 -1.87938 10.5
      vertex 0.347296 -1.96961 5.5
      vertex 0.68404 -1.87938 5.5
    endloop
  endfacet
  facet normal 0.422609 -0.906312 0
    outer loop
      vertex 0.68404 -1.87938 5.5
      vertex 0.999999 -1.73205 10.5
      vertex 0.68404 -1.87938 10.5
    endloop
  endfacet
  facet normal 0.422609 -0.906312 0
    outer loop
      vertex 0.999999 -1.73205 10.5
      vertex 0.68404 -1.87938 5.5
      vertex 0.999999 -1.73205 5.5
    endloop
  endfacet
  facet normal 0.573578 -0.819151 0
    outer loop
      vertex 0.999999 -1.73205 5.5
      vertex 1.28557 -1.53209 10.5
      vertex 0.999999 -1.73205 10.5
    endloop
  endfacet
  facet normal 0.573578 -0.819151 0
    outer loop
      vertex 1.28557 -1.53209 10.5
      vertex 0.999999 -1.73205 5.5
      vertex 1.28557 -1.53209 5.5
    endloop
  endfacet
  facet normal 0.906312 -0.422609 0
    outer loop
      vertex 1.73205 -0.999999 10.5
      vertex 1.87938 -0.68404 5.5
      vertex 1.87938 -0.68404 10.5
    endloop
  endfacet
  facet normal 0.906312 -0.422609 0
    outer loop
      vertex 1.87938 -0.68404 5.5
      vertex 1.73205 -0.999999 10.5
      vertex 1.73205 -0.999999 5.5
    endloop
  endfacet
  facet normal 0.965926 -0.258818 0
    outer loop
      vertex 1.87938 -0.68404 10.5
      vertex 1.96961 -0.347296 5.5
      vertex 1.96961 -0.347296 10.5
    endloop
  endfacet
  facet normal 0.965926 -0.258818 0
    outer loop
      vertex 1.96961 -0.347296 5.5
      vertex 1.87938 -0.68404 10.5
      vertex 1.87938 -0.68404 5.5
    endloop
  endfacet
  facet normal -0.57358 -0.81915 0
    outer loop
      vertex -1.28557 -1.53209 5.5
      vertex -1 -1.73205 10.5
      vertex -1.28557 -1.53209 10.5
    endloop
  endfacet
  facet normal -0.57358 -0.81915 -0
    outer loop
      vertex -1 -1.73205 10.5
      vertex -1.28557 -1.53209 5.5
      vertex -1 -1.73205 5.5
    endloop
  endfacet
  facet normal -0.422607 -0.906313 0
    outer loop
      vertex -1 -1.73205 5.5
      vertex -0.68404 -1.87938 10.5
      vertex -1 -1.73205 10.5
    endloop
  endfacet
  facet normal -0.422607 -0.906313 -0
    outer loop
      vertex -0.68404 -1.87938 10.5
      vertex -1 -1.73205 5.5
      vertex -0.68404 -1.87938 5.5
    endloop
  endfacet
  facet normal -0.965926 -0.258818 0
    outer loop
      vertex -1.87938 -0.68404 5.5
      vertex -1.96961 -0.347296 10.5
      vertex -1.96961 -0.347296 5.5
    endloop
  endfacet
  facet normal -0.965926 -0.258818 0
    outer loop
      vertex -1.96961 -0.347296 10.5
      vertex -1.87938 -0.68404 5.5
      vertex -1.87938 -0.68404 10.5
    endloop
  endfacet
  facet normal 0.996193 -0.0871715 0
    outer loop
      vertex 1.96961 -0.347296 10.5
      vertex 2 0 5.5
      vertex 2 0 10.5
    endloop
  endfacet
  facet normal 0.996193 -0.0871715 0
    outer loop
      vertex 2 0 5.5
      vertex 1.96961 -0.347296 10.5
      vertex 1.96961 -0.347296 5.5
    endloop
  endfacet
endsolid OpenSCAD_Model
