solid OpenSCAD_Model
  facet normal 0 0 -1
    outer loop
      vertex 1 22 -5
      vertex 70 22 -5
      vertex 70 20 -5
    endloop
  endfacet
  facet normal 0 0 -1
    outer loop
      vertex 70 22 -5
      vertex 1 22 -5
      vertex 2 42 -5
    endloop
  endfacet
  facet normal 0 0 -1
    outer loop
      vertex -2 20 -5
      vertex 1 22 -5
      vertex 70 20 -5
    endloop
  endfacet
  facet normal -0 0 -1
    outer loop
      vertex 1 22 -5
      vertex -2 20 -5
      vertex -2 22 -5
    endloop
  endfacet
  facet normal -0 0 -1
    outer loop
      vertex 2 42 -5
      vertex 1 22 -5
      vertex 1 42 -5
    endloop
  endfacet
  facet normal 0 -1 0
    outer loop
      vertex 49.7135 20 1.62493
      vertex 70 20 5
      vertex -2 20 5
    endloop
  endfacet
  facet normal 0 -1 0
    outer loop
      vertex 70 20 5
      vertex 49.7135 20 1.62493
      vertex 50 20 1.65
    endloop
  endfacet
  facet normal 0 -1 0
    outer loop
      vertex -2 20 5
      vertex 49.4357 20 1.55049
      vertex 49.7135 20 1.62493
    endloop
  endfacet
  facet normal 0 -1 0
    outer loop
      vertex -2 20 5
      vertex 49.175 20 1.42894
      vertex 49.4357 20 1.55049
    endloop
  endfacet
  facet normal 0 -1 0
    outer loop
      vertex -2 20 5
      vertex 48.9394 20 1.26397
      vertex 49.175 20 1.42894
    endloop
  endfacet
  facet normal 0 -1 0
    outer loop
      vertex -2 20 5
      vertex 48.736 20 1.0606
      vertex 48.9394 20 1.26397
    endloop
  endfacet
  facet normal 0 -1 0
    outer loop
      vertex -2 20 5
      vertex 48.5711 20 0.825
      vertex 48.736 20 1.0606
    endloop
  endfacet
  facet normal 0 -1 0
    outer loop
      vertex -2 20 5
      vertex 48.4495 20 0.564333
      vertex 48.5711 20 0.825
    endloop
  endfacet
  facet normal 0 -1 0
    outer loop
      vertex -2 20 5
      vertex 48.3751 20 0.286519
      vertex 48.4495 20 0.564333
    endloop
  endfacet
  facet normal 0 -1 0
    outer loop
      vertex -2 20 5
      vertex 48.35 20 0
      vertex 48.3751 20 0.286519
    endloop
  endfacet
  facet normal 0 -1 0
    outer loop
      vertex -2 20 -5
      vertex 48.35 20 0
      vertex -2 20 5
    endloop
  endfacet
  facet normal 0 -1 -0
    outer loop
      vertex 48.35 20 0
      vertex -2 20 -5
      vertex 48.3751 20 -0.286519
    endloop
  endfacet
  facet normal 0 -1 -0
    outer loop
      vertex 48.3751 20 -0.286519
      vertex -2 20 -5
      vertex 48.4495 20 -0.564333
    endloop
  endfacet
  facet normal 0 -1 -0
    outer loop
      vertex 48.4495 20 -0.564333
      vertex -2 20 -5
      vertex 48.5711 20 -0.825
    endloop
  endfacet
  facet normal 0 -1 -0
    outer loop
      vertex 48.5711 20 -0.825
      vertex -2 20 -5
      vertex 48.736 20 -1.0606
    endloop
  endfacet
  facet normal 0 -1 -0
    outer loop
      vertex 48.736 20 -1.0606
      vertex -2 20 -5
      vertex 48.9394 20 -1.26397
    endloop
  endfacet
  facet normal 0 -1 -0
    outer loop
      vertex 48.9394 20 -1.26397
      vertex -2 20 -5
      vertex 49.175 20 -1.42894
    endloop
  endfacet
  facet normal 0 -1 -0
    outer loop
      vertex 49.175 20 -1.42894
      vertex -2 20 -5
      vertex 49.4357 20 -1.55049
    endloop
  endfacet
  facet normal 0 -1 0
    outer loop
      vertex 70 20 -5
      vertex 49.7135 20 -1.62493
      vertex -2 20 -5
    endloop
  endfacet
  facet normal 0 -1 -0
    outer loop
      vertex 49.4357 20 -1.55049
      vertex -2 20 -5
      vertex 49.7135 20 -1.62493
    endloop
  endfacet
  facet normal 0 -1 0
    outer loop
      vertex 50.2865 20 1.62493
      vertex 70 20 5
      vertex 50 20 1.65
    endloop
  endfacet
  facet normal 0 -1 0
    outer loop
      vertex 50.5643 20 1.55049
      vertex 70 20 5
      vertex 50.2865 20 1.62493
    endloop
  endfacet
  facet normal 0 -1 0
    outer loop
      vertex 50.825 20 1.42894
      vertex 70 20 5
      vertex 50.5643 20 1.55049
    endloop
  endfacet
  facet normal 0 -1 0
    outer loop
      vertex 51.0606 20 1.26397
      vertex 70 20 5
      vertex 50.825 20 1.42894
    endloop
  endfacet
  facet normal 0 -1 0
    outer loop
      vertex 51.264 20 1.0606
      vertex 70 20 5
      vertex 51.0606 20 1.26397
    endloop
  endfacet
  facet normal 0 -1 0
    outer loop
      vertex 51.4289 20 0.825
      vertex 70 20 5
      vertex 51.264 20 1.0606
    endloop
  endfacet
  facet normal 0 -1 0
    outer loop
      vertex 51.5505 20 0.564333
      vertex 70 20 5
      vertex 51.4289 20 0.825
    endloop
  endfacet
  facet normal 0 -1 0
    outer loop
      vertex 51.6249 20 0.286519
      vertex 70 20 5
      vertex 51.5505 20 0.564333
    endloop
  endfacet
  facet normal 0 -1 0
    outer loop
      vertex 51.65 20 0
      vertex 70 20 5
      vertex 51.6249 20 0.286519
    endloop
  endfacet
  facet normal 0 -1 0
    outer loop
      vertex 70 20 -5
      vertex 51.65 20 0
      vertex 51.6249 20 -0.286519
    endloop
  endfacet
  facet normal 0 -1 0
    outer loop
      vertex 70 20 -5
      vertex 51.6249 20 -0.286519
      vertex 51.5505 20 -0.564333
    endloop
  endfacet
  facet normal 0 -1 0
    outer loop
      vertex 70 20 -5
      vertex 51.5505 20 -0.564333
      vertex 51.4289 20 -0.825
    endloop
  endfacet
  facet normal 0 -1 0
    outer loop
      vertex 70 20 -5
      vertex 51.4289 20 -0.825
      vertex 51.264 20 -1.0606
    endloop
  endfacet
  facet normal 0 -1 0
    outer loop
      vertex 70 20 -5
      vertex 51.264 20 -1.0606
      vertex 51.0606 20 -1.26397
    endloop
  endfacet
  facet normal 0 -1 0
    outer loop
      vertex 70 20 -5
      vertex 51.0606 20 -1.26397
      vertex 50.825 20 -1.42894
    endloop
  endfacet
  facet normal 0 -1 0
    outer loop
      vertex 70 20 -5
      vertex 50.825 20 -1.42894
      vertex 50.5643 20 -1.55049
    endloop
  endfacet
  facet normal 0 -1 0
    outer loop
      vertex 51.65 20 0
      vertex 70 20 -5
      vertex 70 20 5
    endloop
  endfacet
  facet normal 0 -1 0
    outer loop
      vertex 50.2865 20 -1.62493
      vertex 70 20 -5
      vertex 50.5643 20 -1.55049
    endloop
  endfacet
  facet normal 0 -1 0
    outer loop
      vertex 50 20 -1.65
      vertex 70 20 -5
      vertex 50.2865 20 -1.62493
    endloop
  endfacet
  facet normal 0 -1 0
    outer loop
      vertex 49.7135 20 -1.62493
      vertex 70 20 -5
      vertex 50 20 -1.65
    endloop
  endfacet
  facet normal -1 0 0
    outer loop
      vertex 1 22 -5
      vertex 1 42 5
      vertex 1 42 -5
    endloop
  endfacet
  facet normal -1 -0 0
    outer loop
      vertex 1 42 5
      vertex 1 22 -5
      vertex 1 22 5
    endloop
  endfacet
  facet normal 0 0 1
    outer loop
      vertex 1 22 5
      vertex 70 22 5
      vertex 2 42 5
    endloop
  endfacet
  facet normal 0 0 1
    outer loop
      vertex 1 22 5
      vertex 2 42 5
      vertex 1 42 5
    endloop
  endfacet
  facet normal 0 0 1
    outer loop
      vertex 70 22 5
      vertex 1 22 5
      vertex 70 20 5
    endloop
  endfacet
  facet normal 0 0 1
    outer loop
      vertex -2 20 5
      vertex 1 22 5
      vertex -2 22 5
    endloop
  endfacet
  facet normal 0 0 1
    outer loop
      vertex 1 22 5
      vertex -2 20 5
      vertex 70 20 5
    endloop
  endfacet
  facet normal 1 -0 0
    outer loop
      vertex 70 20 5
      vertex 70 22 -5
      vertex 70 22 5
    endloop
  endfacet
  facet normal 1 0 0
    outer loop
      vertex 70 22 -5
      vertex 70 20 5
      vertex 70 20 -5
    endloop
  endfacet
  facet normal 0 1 -0
    outer loop
      vertex 2 42 -5
      vertex 1 42 5
      vertex 2 42 5
    endloop
  endfacet
  facet normal 0 1 0
    outer loop
      vertex 1 42 5
      vertex 2 42 -5
      vertex 1 42 -5
    endloop
  endfacet
  facet normal 0.282166 0.959366 2.37614e-05
    outer loop
      vertex 70 22 5
      vertex 50 27.8824 3.1
      vertex 2 42 5
    endloop
  endfacet
  facet normal 0.282233 0.959346 -0.000734403
    outer loop
      vertex 70 22 5
      vertex 50.5383 27.724 3.0529
      vertex 50 27.8824 3.1
    endloop
  endfacet
  facet normal 0.282152 0.95937 0.000142965
    outer loop
      vertex 70 22 5
      vertex 51.0603 27.5705 2.91305
      vertex 50.5383 27.724 3.0529
    endloop
  endfacet
  facet normal 0.282156 0.959368 9.99425e-05
    outer loop
      vertex 70 22 5
      vertex 51.55 27.4265 2.68468
      vertex 51.0603 27.5705 2.91305
    endloop
  endfacet
  facet normal 0.282175 0.959363 -5.99108e-05
    outer loop
      vertex 70 22 5
      vertex 51.9926 27.2963 2.37474
      vertex 51.55 27.4265 2.68468
    endloop
  endfacet
  facet normal 0.282172 0.959364 -3.83965e-05
    outer loop
      vertex 70 22 5
      vertex 52.3747 27.1839 1.99264
      vertex 51.9926 27.2963 2.37474
    endloop
  endfacet
  facet normal 0.282173 0.959364 -4.5954e-05
    outer loop
      vertex 70 22 5
      vertex 52.6847 27.0927 1.55
      vertex 52.3747 27.1839 1.99264
    endloop
  endfacet
  facet normal 0.282149 0.959371 8.35166e-05
    outer loop
      vertex 70 22 5
      vertex 52.913 27.0256 1.06026
      vertex 52.6847 27.0927 1.55
    endloop
  endfacet
  facet normal 0.282186 0.95936 -9.14769e-05
    outer loop
      vertex 70 22 5
      vertex 53.0529 26.9844 0.538309
      vertex 52.913 27.0256 1.06026
    endloop
  endfacet
  facet normal 0.282142 0.959373 9.20278e-05
    outer loop
      vertex 70 22 5
      vertex 53.1 26.9706 -1.54778e-15
      vertex 53.0529 26.9844 0.538309
    endloop
  endfacet
  facet normal 0.282167 0.959365 -0
    outer loop
      vertex 70 22 -5
      vertex 53.1 26.9706 -1.54778e-15
      vertex 70 22 5
    endloop
  endfacet
  facet normal 0.282142 0.959373 -9.20278e-05
    outer loop
      vertex 53.1 26.9706 -1.54778e-15
      vertex 70 22 -5
      vertex 53.0529 26.9844 -0.538309
    endloop
  endfacet
  facet normal 0.282186 0.95936 9.14769e-05
    outer loop
      vertex 53.0529 26.9844 -0.538309
      vertex 70 22 -5
      vertex 52.913 27.0256 -1.06026
    endloop
  endfacet
  facet normal 0.282149 0.959371 -8.35166e-05
    outer loop
      vertex 52.913 27.0256 -1.06026
      vertex 70 22 -5
      vertex 52.6847 27.0927 -1.55
    endloop
  endfacet
  facet normal 0.282173 0.959364 4.5954e-05
    outer loop
      vertex 52.6847 27.0927 -1.55
      vertex 70 22 -5
      vertex 52.3747 27.1839 -1.99264
    endloop
  endfacet
  facet normal 0.282172 0.959364 3.83965e-05
    outer loop
      vertex 52.3747 27.1839 -1.99264
      vertex 70 22 -5
      vertex 51.9926 27.2963 -2.37474
    endloop
  endfacet
  facet normal 0.282175 0.959363 5.99108e-05
    outer loop
      vertex 51.9926 27.2963 -2.37474
      vertex 70 22 -5
      vertex 51.55 27.4265 -2.68468
    endloop
  endfacet
  facet normal 0.282233 0.959346 0.000734403
    outer loop
      vertex 50.5383 27.724 -3.0529
      vertex 70 22 -5
      vertex 50 27.8824 -3.1
    endloop
  endfacet
  facet normal 0.282152 0.95937 -0.000142965
    outer loop
      vertex 51.0603 27.5705 -2.91305
      vertex 70 22 -5
      vertex 50.5383 27.724 -3.0529
    endloop
  endfacet
  facet normal 0.282156 0.959368 -9.99425e-05
    outer loop
      vertex 51.55 27.4265 -2.68468
      vertex 70 22 -5
      vertex 51.0603 27.5705 -2.91305
    endloop
  endfacet
  facet normal 0.282154 0.959369 -0.000322582
    outer loop
      vertex 49.4617 28.0407 3.0529
      vertex 2 42 5
      vertex 50 27.8824 3.1
    endloop
  endfacet
  facet normal 0.282159 0.959368 -0.000173432
    outer loop
      vertex 48.9397 28.1942 2.91305
      vertex 2 42 5
      vertex 49.4617 28.0407 3.0529
    endloop
  endfacet
  facet normal 0.282162 0.959367 -0.000113038
    outer loop
      vertex 48.45 28.3382 2.68468
      vertex 2 42 5
      vertex 48.9397 28.1942 2.91305
    endloop
  endfacet
  facet normal 0.28217 0.959364 6.70197e-05
    outer loop
      vertex 48.0074 28.4684 2.37474
      vertex 2 42 5
      vertex 48.45 28.3382 2.68468
    endloop
  endfacet
  facet normal 0.282169 0.959365 4.16838e-05
    outer loop
      vertex 47.6253 28.5808 1.99264
      vertex 2 42 5
      vertex 48.0074 28.4684 2.37474
    endloop
  endfacet
  facet normal 0.282169 0.959365 4.88295e-05
    outer loop
      vertex 47.3153 28.672 1.55
      vertex 2 42 5
      vertex 47.6253 28.5808 1.99264
    endloop
  endfacet
  facet normal 0.28216 0.959367 -8.87452e-05
    outer loop
      vertex 47.087 28.7391 1.06026
      vertex 2 42 5
      vertex 47.3153 28.672 1.55
    endloop
  endfacet
  facet normal 0.282174 0.959363 9.49824e-05
    outer loop
      vertex 46.9471 28.7803 0.538309
      vertex 2 42 5
      vertex 47.087 28.7391 1.06026
    endloop
  endfacet
  facet normal 0.282157 0.959368 -9.34734e-05
    outer loop
      vertex 46.9 28.7941 -1.95269e-15
      vertex 2 42 5
      vertex 46.9471 28.7803 0.538309
    endloop
  endfacet
  facet normal 0.282157 0.959368 9.34734e-05
    outer loop
      vertex 2 42 -5
      vertex 46.9 28.7941 -1.95269e-15
      vertex 46.9471 28.7803 -0.538309
    endloop
  endfacet
  facet normal 0.282174 0.959363 -9.49824e-05
    outer loop
      vertex 2 42 -5
      vertex 46.9471 28.7803 -0.538309
      vertex 47.087 28.7391 -1.06026
    endloop
  endfacet
  facet normal 0.28216 0.959367 8.87452e-05
    outer loop
      vertex 2 42 -5
      vertex 47.087 28.7391 -1.06026
      vertex 47.3153 28.672 -1.55
    endloop
  endfacet
  facet normal 0.282169 0.959365 -4.88295e-05
    outer loop
      vertex 2 42 -5
      vertex 47.3153 28.672 -1.55
      vertex 47.6253 28.5808 -1.99264
    endloop
  endfacet
  facet normal 0.282169 0.959365 -4.16838e-05
    outer loop
      vertex 2 42 -5
      vertex 47.6253 28.5808 -1.99264
      vertex 48.0074 28.4684 -2.37474
    endloop
  endfacet
  facet normal 0.28217 0.959364 -6.70197e-05
    outer loop
      vertex 2 42 -5
      vertex 48.0074 28.4684 -2.37474
      vertex 48.45 28.3382 -2.68468
    endloop
  endfacet
  facet normal 0.282162 0.959367 0.000113038
    outer loop
      vertex 2 42 -5
      vertex 48.45 28.3382 -2.68468
      vertex 48.9397 28.1942 -2.91305
    endloop
  endfacet
  facet normal 0.282159 0.959368 0.000173432
    outer loop
      vertex 2 42 -5
      vertex 48.9397 28.1942 -2.91305
      vertex 49.4617 28.0407 -3.0529
    endloop
  endfacet
  facet normal 0.282166 0.959366 -2.37614e-05
    outer loop
      vertex 2 42 -5
      vertex 50 27.8824 -3.1
      vertex 70 22 -5
    endloop
  endfacet
  facet normal 0.282167 0.959365 0
    outer loop
      vertex 46.9 28.7941 -1.95269e-15
      vertex 2 42 -5
      vertex 2 42 5
    endloop
  endfacet
  facet normal 0.282154 0.959369 0.000322582
    outer loop
      vertex 50 27.8824 -3.1
      vertex 2 42 -5
      vertex 49.4617 28.0407 -3.0529
    endloop
  endfacet
  facet normal -1 0 0
    outer loop
      vertex -2 20 -5
      vertex -2 22 5
      vertex -2 22 -5
    endloop
  endfacet
  facet normal -1 -0 0
    outer loop
      vertex -2 22 5
      vertex -2 20 -5
      vertex -2 20 5
    endloop
  endfacet
  facet normal 0 1 -0
    outer loop
      vertex 1 22 -5
      vertex -2 22 5
      vertex 1 22 5
    endloop
  endfacet
  facet normal 0 1 0
    outer loop
      vertex -2 22 5
      vertex 1 22 -5
      vertex -2 22 -5
    endloop
  endfacet
  facet normal -0.996185 -1.93776e-17 -0.087269
    outer loop
      vertex 51.65 20 0
      vertex 51.6249 23 0.286519
      vertex 51.65 23 -6.66134e-16
    endloop
  endfacet
  facet normal -0.996185 -0 -0.087269
    outer loop
      vertex 51.6249 23 0.286519
      vertex 51.65 20 0
      vertex 51.6249 20 0.286519
    endloop
  endfacet
  facet normal 0.996185 0 -0.087269
    outer loop
      vertex 48.3751 20 0.286519
      vertex 48.35 23 -6.66134e-16
      vertex 48.3751 23 0.286519
    endloop
  endfacet
  facet normal 0.996185 -1.93776e-17 -0.087269
    outer loop
      vertex 48.35 23 -6.66134e-16
      vertex 48.3751 20 0.286519
      vertex 48.35 20 0
    endloop
  endfacet
  facet normal -0.0871713 0 -0.996193
    outer loop
      vertex 50 20 1.65
      vertex 50.2865 23 1.62493
      vertex 50.2865 20 1.62493
    endloop
  endfacet
  facet normal -0.0871713 0 -0.996193
    outer loop
      vertex 50.2865 23 1.62493
      vertex 50 20 1.65
      vertex 50 23 1.65
    endloop
  endfacet
  facet normal 0.819265 -0 0.573416
    outer loop
      vertex 48.5711 20 -0.825
      vertex 48.736 23 -1.0606
      vertex 48.5711 23 -0.825
    endloop
  endfacet
  facet normal 0.819265 0 0.573416
    outer loop
      vertex 48.736 23 -1.0606
      vertex 48.5711 20 -0.825
      vertex 48.736 20 -1.0606
    endloop
  endfacet
  facet normal -0.707055 0 -0.707159
    outer loop
      vertex 51.264 20 1.0606
      vertex 51.0606 23 1.26397
      vertex 51.264 23 1.0606
    endloop
  endfacet
  facet normal -0.707055 -0 -0.707159
    outer loop
      vertex 51.0606 23 1.26397
      vertex 51.264 20 1.0606
      vertex 51.0606 20 1.26397
    endloop
  endfacet
  facet normal 0.573579 0 -0.81915
    outer loop
      vertex 48.9394 20 1.26397
      vertex 49.175 23 1.42894
      vertex 49.175 20 1.42894
    endloop
  endfacet
  facet normal 0.573579 0 -0.81915
    outer loop
      vertex 49.175 23 1.42894
      vertex 48.9394 20 1.26397
      vertex 48.9394 23 1.26397
    endloop
  endfacet
  facet normal 0.258831 0 -0.965923
    outer loop
      vertex 49.4357 20 1.55049
      vertex 49.7135 23 1.62493
      vertex 49.7135 20 1.62493
    endloop
  endfacet
  facet normal 0.258831 0 -0.965923
    outer loop
      vertex 49.7135 23 1.62493
      vertex 49.4357 20 1.55049
      vertex 49.4357 23 1.55049
    endloop
  endfacet
  facet normal -0.819265 0 0.573416
    outer loop
      vertex 51.264 20 -1.0606
      vertex 51.4289 23 -0.825
      vertex 51.264 23 -1.0606
    endloop
  endfacet
  facet normal -0.819265 0 0.573416
    outer loop
      vertex 51.4289 23 -0.825
      vertex 51.264 20 -1.0606
      vertex 51.4289 20 -0.825
    endloop
  endfacet
  facet normal 0 1 0
    outer loop
      vertex 50 23 1.65
      vertex 50 23 3.1
      vertex 50.5383 23 3.0529
    endloop
  endfacet
  facet normal 0 1 0
    outer loop
      vertex 50.2865 23 1.62493
      vertex 50.5383 23 3.0529
      vertex 51.0603 23 2.91305
    endloop
  endfacet
  facet normal 0 1 0
    outer loop
      vertex 50 23 3.1
      vertex 50 23 1.65
      vertex 49.4617 23 3.0529
    endloop
  endfacet
  facet normal 0 1 0
    outer loop
      vertex 50.5643 23 1.55049
      vertex 51.0603 23 2.91305
      vertex 51.55 23 2.68468
    endloop
  endfacet
  facet normal 0 1 -0
    outer loop
      vertex 49.7135 23 1.62493
      vertex 49.4617 23 3.0529
      vertex 50 23 1.65
    endloop
  endfacet
  facet normal 0 1 0
    outer loop
      vertex 50.825 23 1.42894
      vertex 51.55 23 2.68468
      vertex 51.9926 23 2.37474
    endloop
  endfacet
  facet normal 0 1 0
    outer loop
      vertex 49.4617 23 3.0529
      vertex 49.7135 23 1.62493
      vertex 48.9397 23 2.91305
    endloop
  endfacet
  facet normal 0 1 0
    outer loop
      vertex 51.0606 23 1.26397
      vertex 51.9926 23 2.37474
      vertex 52.3747 23 1.99264
    endloop
  endfacet
  facet normal 0 1 -0
    outer loop
      vertex 49.4357 23 1.55049
      vertex 48.9397 23 2.91305
      vertex 49.7135 23 1.62493
    endloop
  endfacet
  facet normal 0 1 0
    outer loop
      vertex 48.9397 23 2.91305
      vertex 49.4357 23 1.55049
      vertex 48.45 23 2.68468
    endloop
  endfacet
  facet normal 0 1 0
    outer loop
      vertex 50.5383 23 3.0529
      vertex 50.2865 23 1.62493
      vertex 50 23 1.65
    endloop
  endfacet
  facet normal 0 1 0
    outer loop
      vertex 51.0603 23 2.91305
      vertex 50.5643 23 1.55049
      vertex 50.2865 23 1.62493
    endloop
  endfacet
  facet normal 0 1 0
    outer loop
      vertex 51.264 23 1.0606
      vertex 52.3747 23 1.99264
      vertex 52.6847 23 1.55
    endloop
  endfacet
  facet normal 0 1 0
    outer loop
      vertex 51.55 23 2.68468
      vertex 50.825 23 1.42894
      vertex 50.5643 23 1.55049
    endloop
  endfacet
  facet normal 0 1 0
    outer loop
      vertex 51.9926 23 2.37474
      vertex 51.0606 23 1.26397
      vertex 50.825 23 1.42894
    endloop
  endfacet
  facet normal 0 1 0
    outer loop
      vertex 52.3747 23 1.99264
      vertex 51.264 23 1.0606
      vertex 51.0606 23 1.26397
    endloop
  endfacet
  facet normal 0 1 0
    outer loop
      vertex 51.4289 23 0.825
      vertex 52.6847 23 1.55
      vertex 52.913 23 1.06026
    endloop
  endfacet
  facet normal 0 1 0
    outer loop
      vertex 52.6847 23 1.55
      vertex 51.4289 23 0.825
      vertex 51.264 23 1.0606
    endloop
  endfacet
  facet normal 0 1 0
    outer loop
      vertex 52.913 23 1.06026
      vertex 51.5505 23 0.564333
      vertex 51.4289 23 0.825
    endloop
  endfacet
  facet normal 0 1 0
    outer loop
      vertex 53.0529 23 0.538309
      vertex 51.5505 23 0.564333
      vertex 52.913 23 1.06026
    endloop
  endfacet
  facet normal 0 1 0
    outer loop
      vertex 53.0529 23 0.538309
      vertex 51.6249 23 0.286519
      vertex 51.5505 23 0.564333
    endloop
  endfacet
  facet normal 0 1 0
    outer loop
      vertex 53.1 23 -6.66134e-16
      vertex 51.6249 23 0.286519
      vertex 53.0529 23 0.538309
    endloop
  endfacet
  facet normal 0 1 0
    outer loop
      vertex 53.1 23 -6.66134e-16
      vertex 51.65 23 -6.66134e-16
      vertex 51.6249 23 0.286519
    endloop
  endfacet
  facet normal 0 1 0
    outer loop
      vertex 53.1 23 -6.66134e-16
      vertex 51.6249 23 -0.286519
      vertex 51.65 23 -6.66134e-16
    endloop
  endfacet
  facet normal 0 1 -0
    outer loop
      vertex 53.0529 23 -0.538309
      vertex 51.6249 23 -0.286519
      vertex 53.1 23 -6.66134e-16
    endloop
  endfacet
  facet normal 0 1 0
    outer loop
      vertex 53.0529 23 -0.538309
      vertex 51.5505 23 -0.564333
      vertex 51.6249 23 -0.286519
    endloop
  endfacet
  facet normal 0 1 -0
    outer loop
      vertex 52.913 23 -1.06026
      vertex 51.5505 23 -0.564333
      vertex 53.0529 23 -0.538309
    endloop
  endfacet
  facet normal 0 1 0
    outer loop
      vertex 51.5505 23 -0.564333
      vertex 52.913 23 -1.06026
      vertex 51.4289 23 -0.825
    endloop
  endfacet
  facet normal 0 1 -0
    outer loop
      vertex 52.6847 23 -1.55
      vertex 51.4289 23 -0.825
      vertex 52.913 23 -1.06026
    endloop
  endfacet
  facet normal 0 1 0
    outer loop
      vertex 51.4289 23 -0.825
      vertex 52.6847 23 -1.55
      vertex 51.264 23 -1.0606
    endloop
  endfacet
  facet normal 0 1 -0
    outer loop
      vertex 52.3747 23 -1.99264
      vertex 51.264 23 -1.0606
      vertex 52.6847 23 -1.55
    endloop
  endfacet
  facet normal 0 1 0
    outer loop
      vertex 51.264 23 -1.0606
      vertex 52.3747 23 -1.99264
      vertex 51.0606 23 -1.26397
    endloop
  endfacet
  facet normal 0 1 -0
    outer loop
      vertex 51.9926 23 -2.37474
      vertex 51.0606 23 -1.26397
      vertex 52.3747 23 -1.99264
    endloop
  endfacet
  facet normal 0 1 0
    outer loop
      vertex 51.0606 23 -1.26397
      vertex 51.9926 23 -2.37474
      vertex 50.825 23 -1.42894
    endloop
  endfacet
  facet normal 0 1 -0
    outer loop
      vertex 51.55 23 -2.68468
      vertex 50.825 23 -1.42894
      vertex 51.9926 23 -2.37474
    endloop
  endfacet
  facet normal 0 1 0
    outer loop
      vertex 50.825 23 -1.42894
      vertex 51.55 23 -2.68468
      vertex 50.5643 23 -1.55049
    endloop
  endfacet
  facet normal 0 1 -0
    outer loop
      vertex 49.175 23 1.42894
      vertex 48.45 23 2.68468
      vertex 49.4357 23 1.55049
    endloop
  endfacet
  facet normal 0 1 0
    outer loop
      vertex 48.45 23 2.68468
      vertex 49.175 23 1.42894
      vertex 48.0074 23 2.37474
    endloop
  endfacet
  facet normal 0 1 -0
    outer loop
      vertex 48.9394 23 1.26397
      vertex 48.0074 23 2.37474
      vertex 49.175 23 1.42894
    endloop
  endfacet
  facet normal 0 1 0
    outer loop
      vertex 48.0074 23 2.37474
      vertex 48.9394 23 1.26397
      vertex 47.6253 23 1.99264
    endloop
  endfacet
  facet normal 0 1 -0
    outer loop
      vertex 48.736 23 1.0606
      vertex 47.6253 23 1.99264
      vertex 48.9394 23 1.26397
    endloop
  endfacet
  facet normal 0 1 0
    outer loop
      vertex 47.6253 23 1.99264
      vertex 48.736 23 1.0606
      vertex 47.3153 23 1.55
    endloop
  endfacet
  facet normal 0 1 -0
    outer loop
      vertex 48.5711 23 0.825
      vertex 47.3153 23 1.55
      vertex 48.736 23 1.0606
    endloop
  endfacet
  facet normal 0 1 0
    outer loop
      vertex 47.3153 23 1.55
      vertex 48.5711 23 0.825
      vertex 47.087 23 1.06026
    endloop
  endfacet
  facet normal 0 1 -0
    outer loop
      vertex 48.4495 23 0.564333
      vertex 47.087 23 1.06026
      vertex 48.5711 23 0.825
    endloop
  endfacet
  facet normal 0 1 0
    outer loop
      vertex 48.4495 23 0.564333
      vertex 46.9471 23 0.538309
      vertex 47.087 23 1.06026
    endloop
  endfacet
  facet normal 0 1 -0
    outer loop
      vertex 48.3751 23 0.286519
      vertex 46.9471 23 0.538309
      vertex 48.4495 23 0.564333
    endloop
  endfacet
  facet normal 0 1 -0
    outer loop
      vertex 48.35 23 -6.66134e-16
      vertex 46.9471 23 0.538309
      vertex 48.3751 23 0.286519
    endloop
  endfacet
  facet normal 0 1 0
    outer loop
      vertex 48.35 23 -6.66134e-16
      vertex 46.9 23 -6.66134e-16
      vertex 46.9471 23 0.538309
    endloop
  endfacet
  facet normal 0 1 0
    outer loop
      vertex 48.3751 23 -0.286519
      vertex 46.9 23 -6.66134e-16
      vertex 48.35 23 -6.66134e-16
    endloop
  endfacet
  facet normal 0 1 0
    outer loop
      vertex 48.3751 23 -0.286519
      vertex 46.9471 23 -0.538309
      vertex 46.9 23 -6.66134e-16
    endloop
  endfacet
  facet normal 0 1 0
    outer loop
      vertex 48.4495 23 -0.564333
      vertex 46.9471 23 -0.538309
      vertex 48.3751 23 -0.286519
    endloop
  endfacet
  facet normal 0 1 0
    outer loop
      vertex 47.087 23 -1.06026
      vertex 48.4495 23 -0.564333
      vertex 48.5711 23 -0.825
    endloop
  endfacet
  facet normal 0 1 0
    outer loop
      vertex 48.4495 23 -0.564333
      vertex 47.087 23 -1.06026
      vertex 46.9471 23 -0.538309
    endloop
  endfacet
  facet normal 0 1 0
    outer loop
      vertex 47.3153 23 -1.55
      vertex 48.5711 23 -0.825
      vertex 48.736 23 -1.0606
    endloop
  endfacet
  facet normal 0 1 0
    outer loop
      vertex 47.6253 23 -1.99264
      vertex 48.736 23 -1.0606
      vertex 48.9394 23 -1.26397
    endloop
  endfacet
  facet normal 0 1 0
    outer loop
      vertex 48.0074 23 -2.37474
      vertex 48.9394 23 -1.26397
      vertex 49.175 23 -1.42894
    endloop
  endfacet
  facet normal 0 1 0
    outer loop
      vertex 48.5711 23 -0.825
      vertex 47.3153 23 -1.55
      vertex 47.087 23 -1.06026
    endloop
  endfacet
  facet normal 0 1 0
    outer loop
      vertex 48.45 23 -2.68468
      vertex 49.175 23 -1.42894
      vertex 49.4357 23 -1.55049
    endloop
  endfacet
  facet normal 0 1 0
    outer loop
      vertex 48.9397 23 -2.91305
      vertex 49.4357 23 -1.55049
      vertex 49.7135 23 -1.62493
    endloop
  endfacet
  facet normal 0 1 0
    outer loop
      vertex 49.4617 23 -3.0529
      vertex 49.7135 23 -1.62493
      vertex 50 23 -1.65
    endloop
  endfacet
  facet normal 0 1 -0
    outer loop
      vertex 51.0603 23 -2.91305
      vertex 50.5643 23 -1.55049
      vertex 51.55 23 -2.68468
    endloop
  endfacet
  facet normal 0 1 0
    outer loop
      vertex 48.736 23 -1.0606
      vertex 47.6253 23 -1.99264
      vertex 47.3153 23 -1.55
    endloop
  endfacet
  facet normal 0 1 0
    outer loop
      vertex 50.5643 23 -1.55049
      vertex 51.0603 23 -2.91305
      vertex 50.2865 23 -1.62493
    endloop
  endfacet
  facet normal 0 1 0
    outer loop
      vertex 48.9394 23 -1.26397
      vertex 48.0074 23 -2.37474
      vertex 47.6253 23 -1.99264
    endloop
  endfacet
  facet normal 0 1 -0
    outer loop
      vertex 50.5383 23 -3.0529
      vertex 50.2865 23 -1.62493
      vertex 51.0603 23 -2.91305
    endloop
  endfacet
  facet normal 0 1 0
    outer loop
      vertex 49.175 23 -1.42894
      vertex 48.45 23 -2.68468
      vertex 48.0074 23 -2.37474
    endloop
  endfacet
  facet normal 0 1 0
    outer loop
      vertex 50.2865 23 -1.62493
      vertex 50.5383 23 -3.0529
      vertex 50 23 -1.65
    endloop
  endfacet
  facet normal 0 1 0
    outer loop
      vertex 49.4357 23 -1.55049
      vertex 48.9397 23 -2.91305
      vertex 48.45 23 -2.68468
    endloop
  endfacet
  facet normal 0 1 0
    outer loop
      vertex 50 23 -3.1
      vertex 50 23 -1.65
      vertex 50.5383 23 -3.0529
    endloop
  endfacet
  facet normal 0 1 0
    outer loop
      vertex 49.7135 23 -1.62493
      vertex 49.4617 23 -3.0529
      vertex 48.9397 23 -2.91305
    endloop
  endfacet
  facet normal 0 1 0
    outer loop
      vertex 50 23 -1.65
      vertex 50 23 -3.1
      vertex 49.4617 23 -3.0529
    endloop
  endfacet
  facet normal -0.906243 0 -0.422758
    outer loop
      vertex 51.5505 20 0.564333
      vertex 51.4289 23 0.825
      vertex 51.5505 23 0.564333
    endloop
  endfacet
  facet normal -0.906243 -0 -0.422758
    outer loop
      vertex 51.4289 23 0.825
      vertex 51.5505 20 0.564333
      vertex 51.4289 20 0.825
    endloop
  endfacet
  facet normal -0.965961 0 -0.258689
    outer loop
      vertex 51.6249 20 0.286519
      vertex 51.5505 23 0.564333
      vertex 51.6249 23 0.286519
    endloop
  endfacet
  facet normal -0.965961 -0 -0.258689
    outer loop
      vertex 51.5505 23 0.564333
      vertex 51.6249 20 0.286519
      vertex 51.5505 20 0.564333
    endloop
  endfacet
  facet normal -0.819265 0 -0.573416
    outer loop
      vertex 51.4289 20 0.825
      vertex 51.264 23 1.0606
      vertex 51.4289 23 0.825
    endloop
  endfacet
  facet normal -0.819265 -0 -0.573416
    outer loop
      vertex 51.264 23 1.0606
      vertex 51.4289 20 0.825
      vertex 51.264 20 1.0606
    endloop
  endfacet
  facet normal -0.422571 0 -0.90633
    outer loop
      vertex 50.5643 20 1.55049
      vertex 50.825 23 1.42894
      vertex 50.825 20 1.42894
    endloop
  endfacet
  facet normal -0.422571 0 -0.90633
    outer loop
      vertex 50.825 23 1.42894
      vertex 50.5643 20 1.55049
      vertex 50.5643 23 1.55049
    endloop
  endfacet
  facet normal -0.258831 0 -0.965923
    outer loop
      vertex 50.2865 20 1.62493
      vertex 50.5643 23 1.55049
      vertex 50.5643 20 1.55049
    endloop
  endfacet
  facet normal -0.258831 0 -0.965923
    outer loop
      vertex 50.5643 23 1.55049
      vertex 50.2865 20 1.62493
      vertex 50.2865 23 1.62493
    endloop
  endfacet
  facet normal -0.573579 0 -0.81915
    outer loop
      vertex 50.825 20 1.42894
      vertex 51.0606 23 1.26397
      vertex 51.0606 20 1.26397
    endloop
  endfacet
  facet normal -0.573579 0 -0.81915
    outer loop
      vertex 51.0606 23 1.26397
      vertex 50.825 20 1.42894
      vertex 50.825 23 1.42894
    endloop
  endfacet
  facet normal 0.819265 0 -0.573416
    outer loop
      vertex 48.736 20 1.0606
      vertex 48.5711 23 0.825
      vertex 48.736 23 1.0606
    endloop
  endfacet
  facet normal 0.819265 0 -0.573416
    outer loop
      vertex 48.5711 23 0.825
      vertex 48.736 20 1.0606
      vertex 48.5711 20 0.825
    endloop
  endfacet
  facet normal 0.707055 0 -0.707159
    outer loop
      vertex 48.9394 20 1.26397
      vertex 48.736 23 1.0606
      vertex 48.9394 23 1.26397
    endloop
  endfacet
  facet normal 0.707055 0 -0.707159
    outer loop
      vertex 48.736 23 1.0606
      vertex 48.9394 20 1.26397
      vertex 48.736 20 1.0606
    endloop
  endfacet
  facet normal 0.422571 0 -0.90633
    outer loop
      vertex 49.175 20 1.42894
      vertex 49.4357 23 1.55049
      vertex 49.4357 20 1.55049
    endloop
  endfacet
  facet normal 0.422571 0 -0.90633
    outer loop
      vertex 49.4357 23 1.55049
      vertex 49.175 20 1.42894
      vertex 49.175 23 1.42894
    endloop
  endfacet
  facet normal 0.0871713 0 -0.996193
    outer loop
      vertex 49.7135 20 1.62493
      vertex 50 23 1.65
      vertex 50 20 1.65
    endloop
  endfacet
  facet normal 0.0871713 0 -0.996193
    outer loop
      vertex 50 23 1.65
      vertex 49.7135 20 1.62493
      vertex 49.7135 23 1.62493
    endloop
  endfacet
  facet normal -0.0871713 0 0.996193
    outer loop
      vertex 50 23 -1.65
      vertex 50.2865 20 -1.62493
      vertex 50.2865 23 -1.62493
    endloop
  endfacet
  facet normal -0.0871713 0 0.996193
    outer loop
      vertex 50.2865 20 -1.62493
      vertex 50 23 -1.65
      vertex 50 20 -1.65
    endloop
  endfacet
  facet normal -0.573579 0 0.81915
    outer loop
      vertex 50.825 23 -1.42894
      vertex 51.0606 20 -1.26397
      vertex 51.0606 23 -1.26397
    endloop
  endfacet
  facet normal -0.573579 0 0.81915
    outer loop
      vertex 51.0606 20 -1.26397
      vertex 50.825 23 -1.42894
      vertex 50.825 20 -1.42894
    endloop
  endfacet
  facet normal 0.707055 -0 0.707159
    outer loop
      vertex 48.736 20 -1.0606
      vertex 48.9394 23 -1.26397
      vertex 48.736 23 -1.0606
    endloop
  endfacet
  facet normal 0.707055 0 0.707159
    outer loop
      vertex 48.9394 23 -1.26397
      vertex 48.736 20 -1.0606
      vertex 48.9394 20 -1.26397
    endloop
  endfacet
  facet normal 0.906243 -0 0.422758
    outer loop
      vertex 48.4495 20 -0.564333
      vertex 48.5711 23 -0.825
      vertex 48.4495 23 -0.564333
    endloop
  endfacet
  facet normal 0.906243 0 0.422758
    outer loop
      vertex 48.5711 23 -0.825
      vertex 48.4495 20 -0.564333
      vertex 48.5711 20 -0.825
    endloop
  endfacet
  facet normal 0.996185 1.93776e-17 0.087269
    outer loop
      vertex 48.35 20 0
      vertex 48.3751 23 -0.286519
      vertex 48.35 23 -6.66134e-16
    endloop
  endfacet
  facet normal 0.996185 0 0.087269
    outer loop
      vertex 48.3751 23 -0.286519
      vertex 48.35 20 0
      vertex 48.3751 20 -0.286519
    endloop
  endfacet
  facet normal 0.906243 0 -0.422758
    outer loop
      vertex 48.5711 20 0.825
      vertex 48.4495 23 0.564333
      vertex 48.5711 23 0.825
    endloop
  endfacet
  facet normal 0.906243 0 -0.422758
    outer loop
      vertex 48.4495 23 0.564333
      vertex 48.5711 20 0.825
      vertex 48.4495 20 0.564333
    endloop
  endfacet
  facet normal 0.965961 0 -0.258689
    outer loop
      vertex 48.4495 20 0.564333
      vertex 48.3751 23 0.286519
      vertex 48.4495 23 0.564333
    endloop
  endfacet
  facet normal 0.965961 0 -0.258689
    outer loop
      vertex 48.3751 23 0.286519
      vertex 48.4495 20 0.564333
      vertex 48.3751 20 0.286519
    endloop
  endfacet
  facet normal -0.258831 0 0.965923
    outer loop
      vertex 50.2865 23 -1.62493
      vertex 50.5643 20 -1.55049
      vertex 50.5643 23 -1.55049
    endloop
  endfacet
  facet normal -0.258831 0 0.965923
    outer loop
      vertex 50.5643 20 -1.55049
      vertex 50.2865 23 -1.62493
      vertex 50.2865 20 -1.62493
    endloop
  endfacet
  facet normal -0.707055 0 0.707159
    outer loop
      vertex 51.0606 20 -1.26397
      vertex 51.264 23 -1.0606
      vertex 51.0606 23 -1.26397
    endloop
  endfacet
  facet normal -0.707055 0 0.707159
    outer loop
      vertex 51.264 23 -1.0606
      vertex 51.0606 20 -1.26397
      vertex 51.264 20 -1.0606
    endloop
  endfacet
  facet normal -0.965961 0 0.258689
    outer loop
      vertex 51.5505 20 -0.564333
      vertex 51.6249 23 -0.286519
      vertex 51.5505 23 -0.564333
    endloop
  endfacet
  facet normal -0.965961 0 0.258689
    outer loop
      vertex 51.6249 23 -0.286519
      vertex 51.5505 20 -0.564333
      vertex 51.6249 20 -0.286519
    endloop
  endfacet
  facet normal 0.573579 0 0.81915
    outer loop
      vertex 48.9394 23 -1.26397
      vertex 49.175 20 -1.42894
      vertex 49.175 23 -1.42894
    endloop
  endfacet
  facet normal 0.573579 0 0.81915
    outer loop
      vertex 49.175 20 -1.42894
      vertex 48.9394 23 -1.26397
      vertex 48.9394 20 -1.26397
    endloop
  endfacet
  facet normal 0.422571 0 0.90633
    outer loop
      vertex 49.175 23 -1.42894
      vertex 49.4357 20 -1.55049
      vertex 49.4357 23 -1.55049
    endloop
  endfacet
  facet normal 0.422571 0 0.90633
    outer loop
      vertex 49.4357 20 -1.55049
      vertex 49.175 23 -1.42894
      vertex 49.175 20 -1.42894
    endloop
  endfacet
  facet normal 0.0871713 0 0.996193
    outer loop
      vertex 49.7135 23 -1.62493
      vertex 50 20 -1.65
      vertex 50 23 -1.65
    endloop
  endfacet
  facet normal 0.0871713 0 0.996193
    outer loop
      vertex 50 20 -1.65
      vertex 49.7135 23 -1.62493
      vertex 49.7135 20 -1.62493
    endloop
  endfacet
  facet normal 0.965961 -0 0.258689
    outer loop
      vertex 48.3751 20 -0.286519
      vertex 48.4495 23 -0.564333
      vertex 48.3751 23 -0.286519
    endloop
  endfacet
  facet normal 0.965961 0 0.258689
    outer loop
      vertex 48.4495 23 -0.564333
      vertex 48.3751 20 -0.286519
      vertex 48.4495 20 -0.564333
    endloop
  endfacet
  facet normal -0.422571 0 0.90633
    outer loop
      vertex 50.5643 23 -1.55049
      vertex 50.825 20 -1.42894
      vertex 50.825 23 -1.42894
    endloop
  endfacet
  facet normal -0.422571 0 0.90633
    outer loop
      vertex 50.825 20 -1.42894
      vertex 50.5643 23 -1.55049
      vertex 50.5643 20 -1.55049
    endloop
  endfacet
  facet normal -0.906243 0 0.422758
    outer loop
      vertex 51.4289 20 -0.825
      vertex 51.5505 23 -0.564333
      vertex 51.4289 23 -0.825
    endloop
  endfacet
  facet normal -0.906243 0 0.422758
    outer loop
      vertex 51.5505 23 -0.564333
      vertex 51.4289 20 -0.825
      vertex 51.5505 20 -0.564333
    endloop
  endfacet
  facet normal -0.996185 0 0.087269
    outer loop
      vertex 51.6249 20 -0.286519
      vertex 51.65 23 -6.66134e-16
      vertex 51.6249 23 -0.286519
    endloop
  endfacet
  facet normal -0.996185 1.93776e-17 0.087269
    outer loop
      vertex 51.65 23 -6.66134e-16
      vertex 51.6249 20 -0.286519
      vertex 51.65 20 0
    endloop
  endfacet
  facet normal 0.258831 0 0.965923
    outer loop
      vertex 49.4357 23 -1.55049
      vertex 49.7135 20 -1.62493
      vertex 49.7135 23 -1.62493
    endloop
  endfacet
  facet normal 0.258831 0 0.965923
    outer loop
      vertex 49.7135 20 -1.62493
      vertex 49.4357 23 -1.55049
      vertex 49.4357 20 -1.55049
    endloop
  endfacet
  facet normal -0.573611 0 -0.819128
    outer loop
      vertex 51.55 23 2.68468
      vertex 51.9926 27.2963 2.37474
      vertex 51.9926 23 2.37474
    endloop
  endfacet
  facet normal -0.573611 0 -0.819128
    outer loop
      vertex 51.9926 27.2963 2.37474
      vertex 51.55 23 2.68468
      vertex 51.55 27.4265 2.68468
    endloop
  endfacet
  facet normal 0.258785 -0 0.965935
    outer loop
      vertex 48.9397 23 -2.91305
      vertex 49.4617 28.0407 -3.0529
      vertex 48.9397 28.1942 -2.91305
    endloop
  endfacet
  facet normal 0.258785 0 0.965935
    outer loop
      vertex 49.4617 28.0407 -3.0529
      vertex 48.9397 23 -2.91305
      vertex 49.4617 23 -3.0529
    endloop
  endfacet
  facet normal 0.258785 0 -0.965935
    outer loop
      vertex 48.9397 23 2.91305
      vertex 49.4617 28.0407 3.0529
      vertex 49.4617 23 3.0529
    endloop
  endfacet
  facet normal 0.258785 0 -0.965935
    outer loop
      vertex 49.4617 28.0407 3.0529
      vertex 48.9397 23 2.91305
      vertex 48.9397 28.1942 2.91305
    endloop
  endfacet
  facet normal 0.906357 0 -0.422513
    outer loop
      vertex 47.087 23 1.06026
      vertex 47.3153 28.672 1.55
      vertex 47.3153 23 1.55
    endloop
  endfacet
  facet normal 0.906357 0 -0.422513
    outer loop
      vertex 47.3153 28.672 1.55
      vertex 47.087 23 1.06026
      vertex 47.087 28.7391 1.06026
    endloop
  endfacet
  facet normal -0.906357 0 -0.422513
    outer loop
      vertex 52.6847 23 1.55
      vertex 52.913 27.0256 1.06026
      vertex 52.913 23 1.06026
    endloop
  endfacet
  facet normal -0.906357 0 -0.422513
    outer loop
      vertex 52.913 27.0256 1.06026
      vertex 52.6847 23 1.55
      vertex 52.6847 27.0927 1.55
    endloop
  endfacet
  facet normal -0.8191 0 -0.573651
    outer loop
      vertex 52.3747 23 1.99264
      vertex 52.6847 27.0927 1.55
      vertex 52.6847 23 1.55
    endloop
  endfacet
  facet normal -0.8191 0 -0.573651
    outer loop
      vertex 52.6847 27.0927 1.55
      vertex 52.3747 23 1.99264
      vertex 52.3747 27.1839 1.99264
    endloop
  endfacet
  facet normal -0.707107 0 -0.707107
    outer loop
      vertex 51.9926 23 2.37474
      vertex 52.3747 27.1839 1.99264
      vertex 52.3747 23 1.99264
    endloop
  endfacet
  facet normal -0.707107 0 -0.707107
    outer loop
      vertex 52.3747 27.1839 1.99264
      vertex 51.9926 23 2.37474
      vertex 51.9926 27.2963 2.37474
    endloop
  endfacet
  facet normal -0.422647 0 -0.906294
    outer loop
      vertex 51.0603 23 2.91305
      vertex 51.55 27.4265 2.68468
      vertex 51.55 23 2.68468
    endloop
  endfacet
  facet normal -0.422647 0 -0.906294
    outer loop
      vertex 51.55 27.4265 2.68468
      vertex 51.0603 23 2.91305
      vertex 51.0603 27.5705 2.91305
    endloop
  endfacet
  facet normal -0.0871647 0 -0.996194
    outer loop
      vertex 50 23 3.1
      vertex 50.5383 27.724 3.0529
      vertex 50.5383 23 3.0529
    endloop
  endfacet
  facet normal -0.0871647 0 -0.996194
    outer loop
      vertex 50.5383 27.724 3.0529
      vertex 50 23 3.1
      vertex 50 27.8824 3.1
    endloop
  endfacet
  facet normal 0.996194 0 -0.0871632
    outer loop
      vertex 46.9 23 -6.66134e-16
      vertex 46.9471 28.7803 0.538309
      vertex 46.9471 23 0.538309
    endloop
  endfacet
  facet normal 0.996194 -1.99461e-17 -0.0871632
    outer loop
      vertex 46.9471 28.7803 0.538309
      vertex 46.9 23 -6.66134e-16
      vertex 46.9 28.7941 -1.95269e-15
    endloop
  endfacet
  facet normal 0.707107 0 -0.707107
    outer loop
      vertex 47.6253 23 1.99264
      vertex 48.0074 28.4684 2.37474
      vertex 48.0074 23 2.37474
    endloop
  endfacet
  facet normal 0.707107 0 -0.707107
    outer loop
      vertex 48.0074 28.4684 2.37474
      vertex 47.6253 23 1.99264
      vertex 47.6253 28.5808 1.99264
    endloop
  endfacet
  facet normal 0.422647 0 -0.906294
    outer loop
      vertex 48.45 23 2.68468
      vertex 48.9397 28.1942 2.91305
      vertex 48.9397 23 2.91305
    endloop
  endfacet
  facet normal 0.422647 0 -0.906294
    outer loop
      vertex 48.9397 28.1942 2.91305
      vertex 48.45 23 2.68468
      vertex 48.45 28.3382 2.68468
    endloop
  endfacet
  facet normal 0.0871647 0 -0.996194
    outer loop
      vertex 49.4617 23 3.0529
      vertex 50 27.8824 3.1
      vertex 50 23 3.1
    endloop
  endfacet
  facet normal 0.0871647 0 -0.996194
    outer loop
      vertex 50 27.8824 3.1
      vertex 49.4617 23 3.0529
      vertex 49.4617 28.0407 3.0529
    endloop
  endfacet
  facet normal 0.573611 0 -0.819128
    outer loop
      vertex 48.0074 23 2.37474
      vertex 48.45 28.3382 2.68468
      vertex 48.45 23 2.68468
    endloop
  endfacet
  facet normal 0.573611 0 -0.819128
    outer loop
      vertex 48.45 28.3382 2.68468
      vertex 48.0074 23 2.37474
      vertex 48.0074 28.4684 2.37474
    endloop
  endfacet
  facet normal -0.996194 -1.94043e-17 -0.0871632
    outer loop
      vertex 53.0529 23 0.538309
      vertex 53.1 26.9706 -1.54778e-15
      vertex 53.1 23 -6.66134e-16
    endloop
  endfacet
  facet normal -0.996194 0 -0.0871632
    outer loop
      vertex 53.1 26.9706 -1.54778e-15
      vertex 53.0529 23 0.538309
      vertex 53.0529 26.9844 0.538309
    endloop
  endfacet
  facet normal -0.0871647 0 0.996194
    outer loop
      vertex 50 23 -3.1
      vertex 50.5383 27.724 -3.0529
      vertex 50 27.8824 -3.1
    endloop
  endfacet
  facet normal -0.0871647 0 0.996194
    outer loop
      vertex 50.5383 27.724 -3.0529
      vertex 50 23 -3.1
      vertex 50.5383 23 -3.0529
    endloop
  endfacet
  facet normal -0.258785 0 0.965935
    outer loop
      vertex 50.5383 23 -3.0529
      vertex 51.0603 27.5705 -2.91305
      vertex 50.5383 27.724 -3.0529
    endloop
  endfacet
  facet normal -0.258785 0 0.965935
    outer loop
      vertex 51.0603 27.5705 -2.91305
      vertex 50.5383 23 -3.0529
      vertex 51.0603 23 -2.91305
    endloop
  endfacet
  facet normal -0.8191 0 0.573651
    outer loop
      vertex 52.3747 23 -1.99264
      vertex 52.6847 27.0927 -1.55
      vertex 52.3747 27.1839 -1.99264
    endloop
  endfacet
  facet normal -0.8191 0 0.573651
    outer loop
      vertex 52.6847 27.0927 -1.55
      vertex 52.3747 23 -1.99264
      vertex 52.6847 23 -1.55
    endloop
  endfacet
  facet normal 0.0871647 -0 0.996194
    outer loop
      vertex 49.4617 23 -3.0529
      vertex 50 27.8824 -3.1
      vertex 49.4617 28.0407 -3.0529
    endloop
  endfacet
  facet normal 0.0871647 0 0.996194
    outer loop
      vertex 50 27.8824 -3.1
      vertex 49.4617 23 -3.0529
      vertex 50 23 -3.1
    endloop
  endfacet
  facet normal 0.707107 -0 0.707107
    outer loop
      vertex 47.6253 23 -1.99264
      vertex 48.0074 28.4684 -2.37474
      vertex 47.6253 28.5808 -1.99264
    endloop
  endfacet
  facet normal 0.707107 0 0.707107
    outer loop
      vertex 48.0074 28.4684 -2.37474
      vertex 47.6253 23 -1.99264
      vertex 48.0074 23 -2.37474
    endloop
  endfacet
  facet normal 0.906357 -0 0.422513
    outer loop
      vertex 47.087 23 -1.06026
      vertex 47.3153 28.672 -1.55
      vertex 47.087 28.7391 -1.06026
    endloop
  endfacet
  facet normal 0.906357 0 0.422513
    outer loop
      vertex 47.3153 28.672 -1.55
      vertex 47.087 23 -1.06026
      vertex 47.3153 23 -1.55
    endloop
  endfacet
  facet normal 0.996194 1.93542e-17 0.0871632
    outer loop
      vertex 46.9 23 -6.66134e-16
      vertex 46.9471 28.7803 -0.538309
      vertex 46.9 28.7941 -1.95269e-15
    endloop
  endfacet
  facet normal 0.996194 0 0.0871632
    outer loop
      vertex 46.9471 28.7803 -0.538309
      vertex 46.9 23 -6.66134e-16
      vertex 46.9471 23 -0.538309
    endloop
  endfacet
  facet normal 0.8191 -0 0.573651
    outer loop
      vertex 47.3153 23 -1.55
      vertex 47.6253 28.5808 -1.99264
      vertex 47.3153 28.672 -1.55
    endloop
  endfacet
  facet normal 0.8191 0 0.573651
    outer loop
      vertex 47.6253 28.5808 -1.99264
      vertex 47.3153 23 -1.55
      vertex 47.6253 23 -1.99264
    endloop
  endfacet
  facet normal -0.965906 0 -0.258894
    outer loop
      vertex 52.913 23 1.06026
      vertex 53.0529 26.9844 0.538309
      vertex 53.0529 23 0.538309
    endloop
  endfacet
  facet normal -0.965906 0 -0.258894
    outer loop
      vertex 53.0529 26.9844 0.538309
      vertex 52.913 23 1.06026
      vertex 52.913 27.0256 1.06026
    endloop
  endfacet
  facet normal -0.258785 0 -0.965935
    outer loop
      vertex 50.5383 23 3.0529
      vertex 51.0603 27.5705 2.91305
      vertex 51.0603 23 2.91305
    endloop
  endfacet
  facet normal -0.258785 0 -0.965935
    outer loop
      vertex 51.0603 27.5705 2.91305
      vertex 50.5383 23 3.0529
      vertex 50.5383 27.724 3.0529
    endloop
  endfacet
  facet normal 0.965906 0 -0.258894
    outer loop
      vertex 46.9471 23 0.538309
      vertex 47.087 28.7391 1.06026
      vertex 47.087 23 1.06026
    endloop
  endfacet
  facet normal 0.965906 0 -0.258894
    outer loop
      vertex 47.087 28.7391 1.06026
      vertex 46.9471 23 0.538309
      vertex 46.9471 28.7803 0.538309
    endloop
  endfacet
  facet normal 0.8191 0 -0.573651
    outer loop
      vertex 47.3153 23 1.55
      vertex 47.6253 28.5808 1.99264
      vertex 47.6253 23 1.99264
    endloop
  endfacet
  facet normal 0.8191 0 -0.573651
    outer loop
      vertex 47.6253 28.5808 1.99264
      vertex 47.3153 23 1.55
      vertex 47.3153 28.672 1.55
    endloop
  endfacet
  facet normal -0.965906 0 0.258894
    outer loop
      vertex 52.913 23 -1.06026
      vertex 53.0529 26.9844 -0.538309
      vertex 52.913 27.0256 -1.06026
    endloop
  endfacet
  facet normal -0.965906 0 0.258894
    outer loop
      vertex 53.0529 26.9844 -0.538309
      vertex 52.913 23 -1.06026
      vertex 53.0529 23 -0.538309
    endloop
  endfacet
  facet normal -0.707107 0 0.707107
    outer loop
      vertex 51.9926 23 -2.37474
      vertex 52.3747 27.1839 -1.99264
      vertex 51.9926 27.2963 -2.37474
    endloop
  endfacet
  facet normal -0.707107 0 0.707107
    outer loop
      vertex 52.3747 27.1839 -1.99264
      vertex 51.9926 23 -2.37474
      vertex 52.3747 23 -1.99264
    endloop
  endfacet
  facet normal -0.422647 0 0.906294
    outer loop
      vertex 51.0603 23 -2.91305
      vertex 51.55 27.4265 -2.68468
      vertex 51.0603 27.5705 -2.91305
    endloop
  endfacet
  facet normal -0.422647 0 0.906294
    outer loop
      vertex 51.55 27.4265 -2.68468
      vertex 51.0603 23 -2.91305
      vertex 51.55 23 -2.68468
    endloop
  endfacet
  facet normal -0.906357 0 0.422513
    outer loop
      vertex 52.6847 23 -1.55
      vertex 52.913 27.0256 -1.06026
      vertex 52.6847 27.0927 -1.55
    endloop
  endfacet
  facet normal -0.906357 0 0.422513
    outer loop
      vertex 52.913 27.0256 -1.06026
      vertex 52.6847 23 -1.55
      vertex 52.913 23 -1.06026
    endloop
  endfacet
  facet normal 0.573611 -0 0.819128
    outer loop
      vertex 48.0074 23 -2.37474
      vertex 48.45 28.3382 -2.68468
      vertex 48.0074 28.4684 -2.37474
    endloop
  endfacet
  facet normal 0.573611 0 0.819128
    outer loop
      vertex 48.45 28.3382 -2.68468
      vertex 48.0074 23 -2.37474
      vertex 48.45 23 -2.68468
    endloop
  endfacet
  facet normal 0.965906 -0 0.258894
    outer loop
      vertex 46.9471 23 -0.538309
      vertex 47.087 28.7391 -1.06026
      vertex 46.9471 28.7803 -0.538309
    endloop
  endfacet
  facet normal 0.965906 0 0.258894
    outer loop
      vertex 47.087 28.7391 -1.06026
      vertex 46.9471 23 -0.538309
      vertex 47.087 23 -1.06026
    endloop
  endfacet
  facet normal -0.996194 0 0.0871632
    outer loop
      vertex 53.0529 23 -0.538309
      vertex 53.1 26.9706 -1.54778e-15
      vertex 53.0529 26.9844 -0.538309
    endloop
  endfacet
  facet normal -0.996194 1.9354e-17 0.0871632
    outer loop
      vertex 53.1 26.9706 -1.54778e-15
      vertex 53.0529 23 -0.538309
      vertex 53.1 23 -6.66134e-16
    endloop
  endfacet
  facet normal -0.573611 0 0.819128
    outer loop
      vertex 51.55 23 -2.68468
      vertex 51.9926 27.2963 -2.37474
      vertex 51.55 27.4265 -2.68468
    endloop
  endfacet
  facet normal -0.573611 0 0.819128
    outer loop
      vertex 51.9926 27.2963 -2.37474
      vertex 51.55 23 -2.68468
      vertex 51.9926 23 -2.37474
    endloop
  endfacet
  facet normal 0.422647 -0 0.906294
    outer loop
      vertex 48.45 23 -2.68468
      vertex 48.9397 28.1942 -2.91305
      vertex 48.45 28.3382 -2.68468
    endloop
  endfacet
  facet normal 0.422647 0 0.906294
    outer loop
      vertex 48.9397 28.1942 -2.91305
      vertex 48.45 23 -2.68468
      vertex 48.9397 23 -2.91305
    endloop
  endfacet
endsolid OpenSCAD_Model
