solid OpenSCAD_Model
  facet normal 1 -0 0
    outer loop
      vertex 19 10.5 2.7
      vertex 19 14.5 1
      vertex 19 14.5 2.7
    endloop
  endfacet
  facet normal 1 0 0
    outer loop
      vertex 19 14.5 1
      vertex 19 10.5 2.7
      vertex 19 10.5 1
    endloop
  endfacet
  facet normal -0 0 1
    outer loop
      vertex -19 14.5 2.7
      vertex 19 10.5 2.7
      vertex 19 14.5 2.7
    endloop
  endfacet
  facet normal 0 0 1
    outer loop
      vertex 19 10.5 2.7
      vertex -19 14.5 2.7
      vertex -19 10.5 2.7
    endloop
  endfacet
  facet normal 0 0 -1
    outer loop
      vertex -15 10.5 1.5
      vertex 15 14.5 1.5
      vertex 15 10.5 1.5
    endloop
  endfacet
  facet normal -0 0 -1
    outer loop
      vertex 15 14.5 1.5
      vertex -15 10.5 1.5
      vertex -15 14.5 1.5
    endloop
  endfacet
  facet normal 0 1 0
    outer loop
      vertex 19 14.5 2.7
      vertex 15 14.5 1.5
      vertex -19 14.5 2.7
    endloop
  endfacet
  facet normal 0 1 -0
    outer loop
      vertex 19 14.5 1
      vertex 15 14.5 1.5
      vertex 19 14.5 2.7
    endloop
  endfacet
  facet normal 0 1 0
    outer loop
      vertex 15 14.5 1.5
      vertex 19 14.5 1
      vertex 15 14.5 1
    endloop
  endfacet
  facet normal 0 1 -0
    outer loop
      vertex -15 14.5 1.5
      vertex -19 14.5 2.7
      vertex 15 14.5 1.5
    endloop
  endfacet
  facet normal 0 1 0
    outer loop
      vertex -19 14.5 1
      vertex -15 14.5 1.5
      vertex -15 14.5 1
    endloop
  endfacet
  facet normal 0 1 0
    outer loop
      vertex -15 14.5 1.5
      vertex -19 14.5 1
      vertex -19 14.5 2.7
    endloop
  endfacet
  facet normal 0 -1 0
    outer loop
      vertex -19 10.5 2.7
      vertex -15 10.5 1.5
      vertex 19 10.5 2.7
    endloop
  endfacet
  facet normal 0 -1 0
    outer loop
      vertex -19 10.5 1
      vertex -15 10.5 1.5
      vertex -19 10.5 2.7
    endloop
  endfacet
  facet normal 0 -1 -0
    outer loop
      vertex -15 10.5 1.5
      vertex -19 10.5 1
      vertex -15 10.5 1
    endloop
  endfacet
  facet normal 0 -1 0
    outer loop
      vertex 15 10.5 1.5
      vertex 19 10.5 2.7
      vertex -15 10.5 1.5
    endloop
  endfacet
  facet normal 0 -1 0
    outer loop
      vertex 19 10.5 1
      vertex 15 10.5 1.5
      vertex 15 10.5 1
    endloop
  endfacet
  facet normal 0 -1 0
    outer loop
      vertex 15 10.5 1.5
      vertex 19 10.5 1
      vertex 19 10.5 2.7
    endloop
  endfacet
  facet normal 0 0 -1
    outer loop
      vertex 83.6194 52.5866 0
      vertex 83.6194 56.4134 0
      vertex 84 54.5 0
    endloop
  endfacet
  facet normal 0 0 -1
    outer loop
      vertex 82.5355 50.9645 0
      vertex 83.6194 56.4134 0
      vertex 83.6194 52.5866 0
    endloop
  endfacet
  facet normal 0 0 -1
    outer loop
      vertex 82.5355 50.9645 0
      vertex 82.5355 58.0355 0
      vertex 83.6194 56.4134 0
    endloop
  endfacet
  facet normal 0 0 -1
    outer loop
      vertex 82.5355 50.9645 0
      vertex 80.9134 59.1194 0
      vertex 82.5355 58.0355 0
    endloop
  endfacet
  facet normal 0 0 -1
    outer loop
      vertex 82.5355 50.9645 0
      vertex 79 59.5 0
      vertex 80.9134 59.1194 0
    endloop
  endfacet
  facet normal 0 0 -1
    outer loop
      vertex 82.5355 50.9645 0
      vertex 77.0866 59.1194 0
      vertex 79 59.5 0
    endloop
  endfacet
  facet normal 0 0 -1
    outer loop
      vertex 82.5355 50.9645 0
      vertex 75.4645 58.0355 0
      vertex 77.0866 59.1194 0
    endloop
  endfacet
  facet normal 0 0 -1
    outer loop
      vertex 22.5355 8.96447 0
      vertex 75.4645 58.0355 0
      vertex 82.5355 50.9645 0
    endloop
  endfacet
  facet normal 0 0 -1
    outer loop
      vertex 15.4645 16.0355 0
      vertex 22.5355 8.96447 0
      vertex 20.9134 7.8806 0
    endloop
  endfacet
  facet normal 0 0 -1
    outer loop
      vertex 15.4645 16.0355 0
      vertex 20.9134 7.8806 0
      vertex 19 7.5 0
    endloop
  endfacet
  facet normal 0 0 -1
    outer loop
      vertex 15.4645 16.0355 0
      vertex 19 7.5 0
      vertex 17.0866 7.8806 0
    endloop
  endfacet
  facet normal 0 0 -1
    outer loop
      vertex 15.4645 16.0355 0
      vertex 17.0866 7.8806 0
      vertex 15.4645 8.96447 0
    endloop
  endfacet
  facet normal 0 0 -1
    outer loop
      vertex 22.5355 8.96447 0
      vertex 15.4645 16.0355 0
      vertex 75.4645 58.0355 0
    endloop
  endfacet
  facet normal 0 0 -1
    outer loop
      vertex 14.3806 10.5866 0
      vertex 15.4645 16.0355 0
      vertex 15.4645 8.96447 0
    endloop
  endfacet
  facet normal 0 0 -1
    outer loop
      vertex 14.3806 10.5866 0
      vertex 14.3806 14.4134 0
      vertex 15.4645 16.0355 0
    endloop
  endfacet
  facet normal 0 -0 -1
    outer loop
      vertex 14.3806 14.4134 0
      vertex 14.3806 10.5866 0
      vertex 14 12.5 0
    endloop
  endfacet
  facet normal -1 0 0
    outer loop
      vertex 15 10.5 1
      vertex 15 14.5 1.5
      vertex 15 14.5 1
    endloop
  endfacet
  facet normal -1 -0 0
    outer loop
      vertex 15 14.5 1.5
      vertex 15 10.5 1
      vertex 15 10.5 1.5
    endloop
  endfacet
  facet normal 1 -0 0
    outer loop
      vertex 29 17.5 3.9
      vertex 29 21.5 1
      vertex 29 21.5 3.9
    endloop
  endfacet
  facet normal 1 0 0
    outer loop
      vertex 29 21.5 1
      vertex 29 17.5 3.9
      vertex 29 17.5 1
    endloop
  endfacet
  facet normal -0 0 1
    outer loop
      vertex -29 21.5 3.9
      vertex 29 17.5 3.9
      vertex 29 21.5 3.9
    endloop
  endfacet
  facet normal 0 0 1
    outer loop
      vertex 29 17.5 3.9
      vertex -29 21.5 3.9
      vertex -29 17.5 3.9
    endloop
  endfacet
  facet normal 0 0 -1
    outer loop
      vertex -25 17.5 2.7
      vertex 25 21.5 2.7
      vertex 25 17.5 2.7
    endloop
  endfacet
  facet normal -0 0 -1
    outer loop
      vertex 25 21.5 2.7
      vertex -25 17.5 2.7
      vertex -25 21.5 2.7
    endloop
  endfacet
  facet normal 0 1 0
    outer loop
      vertex 29 21.5 3.9
      vertex 25 21.5 2.7
      vertex -29 21.5 3.9
    endloop
  endfacet
  facet normal 0 1 -0
    outer loop
      vertex 29 21.5 1
      vertex 25 21.5 2.7
      vertex 29 21.5 3.9
    endloop
  endfacet
  facet normal 0 1 0
    outer loop
      vertex 25 21.5 2.7
      vertex 29 21.5 1
      vertex 25 21.5 1
    endloop
  endfacet
  facet normal 0 1 -0
    outer loop
      vertex -25 21.5 2.7
      vertex -29 21.5 3.9
      vertex 25 21.5 2.7
    endloop
  endfacet
  facet normal 0 1 0
    outer loop
      vertex -29 21.5 1
      vertex -25 21.5 2.7
      vertex -25 21.5 1
    endloop
  endfacet
  facet normal 0 1 0
    outer loop
      vertex -25 21.5 2.7
      vertex -29 21.5 1
      vertex -29 21.5 3.9
    endloop
  endfacet
  facet normal 0 -1 0
    outer loop
      vertex -29 17.5 3.9
      vertex -25 17.5 2.7
      vertex 29 17.5 3.9
    endloop
  endfacet
  facet normal 0 -1 0
    outer loop
      vertex -29 17.5 1
      vertex -25 17.5 2.7
      vertex -29 17.5 3.9
    endloop
  endfacet
  facet normal 0 -1 -0
    outer loop
      vertex -25 17.5 2.7
      vertex -29 17.5 1
      vertex -25 17.5 1
    endloop
  endfacet
  facet normal 0 -1 0
    outer loop
      vertex 25 17.5 2.7
      vertex 29 17.5 3.9
      vertex -25 17.5 2.7
    endloop
  endfacet
  facet normal 0 -1 0
    outer loop
      vertex 29 17.5 1
      vertex 25 17.5 2.7
      vertex 25 17.5 1
    endloop
  endfacet
  facet normal 0 -1 0
    outer loop
      vertex 25 17.5 2.7
      vertex 29 17.5 1
      vertex 29 17.5 3.9
    endloop
  endfacet
  facet normal -1 0 0
    outer loop
      vertex 25 17.5 1
      vertex 25 21.5 2.7
      vertex 25 21.5 1
    endloop
  endfacet
  facet normal -1 -0 0
    outer loop
      vertex 25 21.5 2.7
      vertex 25 17.5 1
      vertex 25 17.5 2.7
    endloop
  endfacet
  facet normal 1 -0 0
    outer loop
      vertex 39 24.5 5.1
      vertex 39 28.5 1
      vertex 39 28.5 5.1
    endloop
  endfacet
  facet normal 1 0 0
    outer loop
      vertex 39 28.5 1
      vertex 39 24.5 5.1
      vertex 39 24.5 1
    endloop
  endfacet
  facet normal -0 0 1
    outer loop
      vertex -39 28.5 5.1
      vertex 39 24.5 5.1
      vertex 39 28.5 5.1
    endloop
  endfacet
  facet normal 0 0 1
    outer loop
      vertex 39 24.5 5.1
      vertex -39 28.5 5.1
      vertex -39 24.5 5.1
    endloop
  endfacet
  facet normal 0 0 -1
    outer loop
      vertex -35 24.5 3.9
      vertex 35 28.5 3.9
      vertex 35 24.5 3.9
    endloop
  endfacet
  facet normal -0 0 -1
    outer loop
      vertex 35 28.5 3.9
      vertex -35 24.5 3.9
      vertex -35 28.5 3.9
    endloop
  endfacet
  facet normal 0 1 0
    outer loop
      vertex 39 28.5 5.1
      vertex 35 28.5 3.9
      vertex -39 28.5 5.1
    endloop
  endfacet
  facet normal 0 1 -0
    outer loop
      vertex 39 28.5 1
      vertex 35 28.5 3.9
      vertex 39 28.5 5.1
    endloop
  endfacet
  facet normal 0 1 0
    outer loop
      vertex 35 28.5 3.9
      vertex 39 28.5 1
      vertex 35 28.5 1
    endloop
  endfacet
  facet normal 0 1 -0
    outer loop
      vertex -35 28.5 3.9
      vertex -39 28.5 5.1
      vertex 35 28.5 3.9
    endloop
  endfacet
  facet normal 0 1 0
    outer loop
      vertex -39 28.5 1
      vertex -35 28.5 3.9
      vertex -35 28.5 1
    endloop
  endfacet
  facet normal 0 1 0
    outer loop
      vertex -35 28.5 3.9
      vertex -39 28.5 1
      vertex -39 28.5 5.1
    endloop
  endfacet
  facet normal 0 -1 0
    outer loop
      vertex -39 24.5 5.1
      vertex -35 24.5 3.9
      vertex 39 24.5 5.1
    endloop
  endfacet
  facet normal 0 -1 0
    outer loop
      vertex -39 24.5 1
      vertex -35 24.5 3.9
      vertex -39 24.5 5.1
    endloop
  endfacet
  facet normal 0 -1 -0
    outer loop
      vertex -35 24.5 3.9
      vertex -39 24.5 1
      vertex -35 24.5 1
    endloop
  endfacet
  facet normal 0 -1 0
    outer loop
      vertex 35 24.5 3.9
      vertex 39 24.5 5.1
      vertex -35 24.5 3.9
    endloop
  endfacet
  facet normal 0 -1 0
    outer loop
      vertex 39 24.5 1
      vertex 35 24.5 3.9
      vertex 35 24.5 1
    endloop
  endfacet
  facet normal 0 -1 0
    outer loop
      vertex 35 24.5 3.9
      vertex 39 24.5 1
      vertex 39 24.5 5.1
    endloop
  endfacet
  facet normal -1 0 0
    outer loop
      vertex 35 24.5 1
      vertex 35 28.5 3.9
      vertex 35 28.5 1
    endloop
  endfacet
  facet normal -1 -0 0
    outer loop
      vertex 35 28.5 3.9
      vertex 35 24.5 1
      vertex 35 24.5 3.9
    endloop
  endfacet
  facet normal 1 -0 0
    outer loop
      vertex 49 31.5 6.3
      vertex 49 35.5 1
      vertex 49 35.5 6.3
    endloop
  endfacet
  facet normal 1 0 0
    outer loop
      vertex 49 35.5 1
      vertex 49 31.5 6.3
      vertex 49 31.5 1
    endloop
  endfacet
  facet normal -0 0 1
    outer loop
      vertex -49 35.5 6.3
      vertex 49 31.5 6.3
      vertex 49 35.5 6.3
    endloop
  endfacet
  facet normal 0 0 1
    outer loop
      vertex 49 31.5 6.3
      vertex -49 35.5 6.3
      vertex -49 31.5 6.3
    endloop
  endfacet
  facet normal 0 0 -1
    outer loop
      vertex -45 31.5 5.1
      vertex 45 35.5 5.1
      vertex 45 31.5 5.1
    endloop
  endfacet
  facet normal -0 0 -1
    outer loop
      vertex 45 35.5 5.1
      vertex -45 31.5 5.1
      vertex -45 35.5 5.1
    endloop
  endfacet
  facet normal 0 1 0
    outer loop
      vertex 49 35.5 6.3
      vertex 45 35.5 5.1
      vertex -49 35.5 6.3
    endloop
  endfacet
  facet normal 0 1 -0
    outer loop
      vertex 49 35.5 1
      vertex 45 35.5 5.1
      vertex 49 35.5 6.3
    endloop
  endfacet
  facet normal 0 1 0
    outer loop
      vertex 45 35.5 5.1
      vertex 49 35.5 1
      vertex 45 35.5 1
    endloop
  endfacet
  facet normal 0 1 -0
    outer loop
      vertex -45 35.5 5.1
      vertex -49 35.5 6.3
      vertex 45 35.5 5.1
    endloop
  endfacet
  facet normal 0 1 0
    outer loop
      vertex -49 35.5 1
      vertex -45 35.5 5.1
      vertex -45 35.5 1
    endloop
  endfacet
  facet normal 0 1 0
    outer loop
      vertex -45 35.5 5.1
      vertex -49 35.5 1
      vertex -49 35.5 6.3
    endloop
  endfacet
  facet normal 0 -1 0
    outer loop
      vertex -49 31.5 6.3
      vertex -45 31.5 5.1
      vertex 49 31.5 6.3
    endloop
  endfacet
  facet normal 0 -1 0
    outer loop
      vertex -49 31.5 1
      vertex -45 31.5 5.1
      vertex -49 31.5 6.3
    endloop
  endfacet
  facet normal 0 -1 -0
    outer loop
      vertex -45 31.5 5.1
      vertex -49 31.5 1
      vertex -45 31.5 1
    endloop
  endfacet
  facet normal 0 -1 0
    outer loop
      vertex 45 31.5 5.1
      vertex 49 31.5 6.3
      vertex -45 31.5 5.1
    endloop
  endfacet
  facet normal 0 -1 0
    outer loop
      vertex 49 31.5 1
      vertex 45 31.5 5.1
      vertex 45 31.5 1
    endloop
  endfacet
  facet normal 0 -1 0
    outer loop
      vertex 45 31.5 5.1
      vertex 49 31.5 1
      vertex 49 31.5 6.3
    endloop
  endfacet
  facet normal -1 0 0
    outer loop
      vertex 45 31.5 1
      vertex 45 35.5 5.1
      vertex 45 35.5 1
    endloop
  endfacet
  facet normal -1 -0 0
    outer loop
      vertex 45 35.5 5.1
      vertex 45 31.5 1
      vertex 45 31.5 5.1
    endloop
  endfacet
  facet normal 1 -0 0
    outer loop
      vertex 59 38.5 7.5
      vertex 59 42.5 1
      vertex 59 42.5 7.5
    endloop
  endfacet
  facet normal 1 0 0
    outer loop
      vertex 59 42.5 1
      vertex 59 38.5 7.5
      vertex 59 38.5 1
    endloop
  endfacet
  facet normal -0 0 1
    outer loop
      vertex -59 42.5 7.5
      vertex 59 38.5 7.5
      vertex 59 42.5 7.5
    endloop
  endfacet
  facet normal 0 0 1
    outer loop
      vertex 59 38.5 7.5
      vertex -59 42.5 7.5
      vertex -59 38.5 7.5
    endloop
  endfacet
  facet normal 0 0 -1
    outer loop
      vertex -55 38.5 6.3
      vertex 55 42.5 6.3
      vertex 55 38.5 6.3
    endloop
  endfacet
  facet normal -0 0 -1
    outer loop
      vertex 55 42.5 6.3
      vertex -55 38.5 6.3
      vertex -55 42.5 6.3
    endloop
  endfacet
  facet normal 0 1 0
    outer loop
      vertex 59 42.5 7.5
      vertex 55 42.5 6.3
      vertex -59 42.5 7.5
    endloop
  endfacet
  facet normal 0 1 -0
    outer loop
      vertex 59 42.5 1
      vertex 55 42.5 6.3
      vertex 59 42.5 7.5
    endloop
  endfacet
  facet normal 0 1 0
    outer loop
      vertex 55 42.5 6.3
      vertex 59 42.5 1
      vertex 55 42.5 1
    endloop
  endfacet
  facet normal 0 1 -0
    outer loop
      vertex -55 42.5 6.3
      vertex -59 42.5 7.5
      vertex 55 42.5 6.3
    endloop
  endfacet
  facet normal 0 1 0
    outer loop
      vertex -59 42.5 1
      vertex -55 42.5 6.3
      vertex -55 42.5 1
    endloop
  endfacet
  facet normal 0 1 0
    outer loop
      vertex -55 42.5 6.3
      vertex -59 42.5 1
      vertex -59 42.5 7.5
    endloop
  endfacet
  facet normal 0 -1 0
    outer loop
      vertex -59 38.5 7.5
      vertex -55 38.5 6.3
      vertex 59 38.5 7.5
    endloop
  endfacet
  facet normal 0 -1 0
    outer loop
      vertex -59 38.5 1
      vertex -55 38.5 6.3
      vertex -59 38.5 7.5
    endloop
  endfacet
  facet normal 0 -1 -0
    outer loop
      vertex -55 38.5 6.3
      vertex -59 38.5 1
      vertex -55 38.5 1
    endloop
  endfacet
  facet normal 0 -1 0
    outer loop
      vertex 55 38.5 6.3
      vertex 59 38.5 7.5
      vertex -55 38.5 6.3
    endloop
  endfacet
  facet normal 0 -1 0
    outer loop
      vertex 59 38.5 1
      vertex 55 38.5 6.3
      vertex 55 38.5 1
    endloop
  endfacet
  facet normal 0 -1 0
    outer loop
      vertex 55 38.5 6.3
      vertex 59 38.5 1
      vertex 59 38.5 7.5
    endloop
  endfacet
  facet normal -1 0 0
    outer loop
      vertex 55 38.5 1
      vertex 55 42.5 6.3
      vertex 55 42.5 1
    endloop
  endfacet
  facet normal -1 -0 0
    outer loop
      vertex 55 42.5 6.3
      vertex 55 38.5 1
      vertex 55 38.5 6.3
    endloop
  endfacet
  facet normal 1 -0 0
    outer loop
      vertex 69 45.5 8.7
      vertex 69 49.5 1
      vertex 69 49.5 8.7
    endloop
  endfacet
  facet normal 1 0 0
    outer loop
      vertex 69 49.5 1
      vertex 69 45.5 8.7
      vertex 69 45.5 1
    endloop
  endfacet
  facet normal -0 0 1
    outer loop
      vertex -69 49.5 8.7
      vertex 69 45.5 8.7
      vertex 69 49.5 8.7
    endloop
  endfacet
  facet normal 0 0 1
    outer loop
      vertex 69 45.5 8.7
      vertex -69 49.5 8.7
      vertex -69 45.5 8.7
    endloop
  endfacet
  facet normal 0 0 -1
    outer loop
      vertex -65 45.5 7.5
      vertex 65 49.5 7.5
      vertex 65 45.5 7.5
    endloop
  endfacet
  facet normal -0 0 -1
    outer loop
      vertex 65 49.5 7.5
      vertex -65 45.5 7.5
      vertex -65 49.5 7.5
    endloop
  endfacet
  facet normal 0 1 0
    outer loop
      vertex 69 49.5 8.7
      vertex 65 49.5 7.5
      vertex -69 49.5 8.7
    endloop
  endfacet
  facet normal 0 1 -0
    outer loop
      vertex 69 49.5 1
      vertex 65 49.5 7.5
      vertex 69 49.5 8.7
    endloop
  endfacet
  facet normal 0 1 0
    outer loop
      vertex 65 49.5 7.5
      vertex 69 49.5 1
      vertex 65 49.5 1
    endloop
  endfacet
  facet normal 0 1 -0
    outer loop
      vertex -65 49.5 7.5
      vertex -69 49.5 8.7
      vertex 65 49.5 7.5
    endloop
  endfacet
  facet normal 0 1 0
    outer loop
      vertex -69 49.5 1
      vertex -65 49.5 7.5
      vertex -65 49.5 1
    endloop
  endfacet
  facet normal 0 1 0
    outer loop
      vertex -65 49.5 7.5
      vertex -69 49.5 1
      vertex -69 49.5 8.7
    endloop
  endfacet
  facet normal 0 -1 0
    outer loop
      vertex -69 45.5 8.7
      vertex -65 45.5 7.5
      vertex 69 45.5 8.7
    endloop
  endfacet
  facet normal 0 -1 0
    outer loop
      vertex -69 45.5 1
      vertex -65 45.5 7.5
      vertex -69 45.5 8.7
    endloop
  endfacet
  facet normal 0 -1 -0
    outer loop
      vertex -65 45.5 7.5
      vertex -69 45.5 1
      vertex -65 45.5 1
    endloop
  endfacet
  facet normal 0 -1 0
    outer loop
      vertex 65 45.5 7.5
      vertex 69 45.5 8.7
      vertex -65 45.5 7.5
    endloop
  endfacet
  facet normal 0 -1 0
    outer loop
      vertex 69 45.5 1
      vertex 65 45.5 7.5
      vertex 65 45.5 1
    endloop
  endfacet
  facet normal 0 -1 0
    outer loop
      vertex 65 45.5 7.5
      vertex 69 45.5 1
      vertex 69 45.5 8.7
    endloop
  endfacet
  facet normal -1 0 0
    outer loop
      vertex 65 45.5 1
      vertex 65 49.5 7.5
      vertex 65 49.5 1
    endloop
  endfacet
  facet normal -1 -0 0
    outer loop
      vertex 65 49.5 7.5
      vertex 65 45.5 1
      vertex 65 45.5 7.5
    endloop
  endfacet
  facet normal 1 -0 0
    outer loop
      vertex 79 52.5 9.9
      vertex 79 56.5 1
      vertex 79 56.5 9.9
    endloop
  endfacet
  facet normal 1 0 0
    outer loop
      vertex 79 56.5 1
      vertex 79 52.5 9.9
      vertex 79 52.5 1
    endloop
  endfacet
  facet normal -0 0 1
    outer loop
      vertex -79 56.5 9.9
      vertex 79 52.5 9.9
      vertex 79 56.5 9.9
    endloop
  endfacet
  facet normal 0 0 1
    outer loop
      vertex 79 52.5 9.9
      vertex -79 56.5 9.9
      vertex -79 52.5 9.9
    endloop
  endfacet
  facet normal 0 0 -1
    outer loop
      vertex -75 52.5 8.7
      vertex 75 56.5 8.7
      vertex 75 52.5 8.7
    endloop
  endfacet
  facet normal -0 0 -1
    outer loop
      vertex 75 56.5 8.7
      vertex -75 52.5 8.7
      vertex -75 56.5 8.7
    endloop
  endfacet
  facet normal 0 1 0
    outer loop
      vertex 79 56.5 9.9
      vertex 75 56.5 8.7
      vertex -79 56.5 9.9
    endloop
  endfacet
  facet normal 0 1 -0
    outer loop
      vertex 79 56.5 1
      vertex 75 56.5 8.7
      vertex 79 56.5 9.9
    endloop
  endfacet
  facet normal 0 1 0
    outer loop
      vertex 75 56.5 8.7
      vertex 79 56.5 1
      vertex 75 56.5 1
    endloop
  endfacet
  facet normal 0 1 -0
    outer loop
      vertex -75 56.5 8.7
      vertex -79 56.5 9.9
      vertex 75 56.5 8.7
    endloop
  endfacet
  facet normal 0 1 0
    outer loop
      vertex -79 56.5 1
      vertex -75 56.5 8.7
      vertex -75 56.5 1
    endloop
  endfacet
  facet normal 0 1 0
    outer loop
      vertex -75 56.5 8.7
      vertex -79 56.5 1
      vertex -79 56.5 9.9
    endloop
  endfacet
  facet normal 0 -1 0
    outer loop
      vertex -79 52.5 9.9
      vertex -75 52.5 8.7
      vertex 79 52.5 9.9
    endloop
  endfacet
  facet normal 0 -1 0
    outer loop
      vertex -79 52.5 1
      vertex -75 52.5 8.7
      vertex -79 52.5 9.9
    endloop
  endfacet
  facet normal 0 -1 -0
    outer loop
      vertex -75 52.5 8.7
      vertex -79 52.5 1
      vertex -75 52.5 1
    endloop
  endfacet
  facet normal 0 -1 0
    outer loop
      vertex 75 52.5 8.7
      vertex 79 52.5 9.9
      vertex -75 52.5 8.7
    endloop
  endfacet
  facet normal 0 -1 0
    outer loop
      vertex 79 52.5 1
      vertex 75 52.5 8.7
      vertex 75 52.5 1
    endloop
  endfacet
  facet normal 0 -1 0
    outer loop
      vertex 75 52.5 8.7
      vertex 79 52.5 1
      vertex 79 52.5 9.9
    endloop
  endfacet
  facet normal -1 0 0
    outer loop
      vertex 75 52.5 1
      vertex 75 56.5 8.7
      vertex 75 56.5 1
    endloop
  endfacet
  facet normal -1 -0 0
    outer loop
      vertex 75 56.5 8.7
      vertex 75 52.5 1
      vertex 75 52.5 8.7
    endloop
  endfacet
  facet normal -0.555576 -0.831465 0
    outer loop
      vertex 15.4645 8.96447 0
      vertex 17.0866 7.8806 1
      vertex 15.4645 8.96447 1
    endloop
  endfacet
  facet normal -0.555576 -0.831465 -0
    outer loop
      vertex 17.0866 7.8806 1
      vertex 15.4645 8.96447 0
      vertex 17.0866 7.8806 0
    endloop
  endfacet
  facet normal 0.573463 -0.819232 0
    outer loop
      vertex 22.5355 8.96447 0
      vertex 82.5355 50.9645 1
      vertex 22.5355 8.96447 1
    endloop
  endfacet
  facet normal 0.573463 -0.819232 0
    outer loop
      vertex 82.5355 50.9645 1
      vertex 22.5355 8.96447 0
      vertex 82.5355 50.9645 0
    endloop
  endfacet
  facet normal 0.980785 -0.195091 0
    outer loop
      vertex 83.6194 52.5866 1
      vertex 84 54.5 0
      vertex 84 54.5 1
    endloop
  endfacet
  facet normal 0.980785 -0.195091 0
    outer loop
      vertex 84 54.5 0
      vertex 83.6194 52.5866 1
      vertex 83.6194 52.5866 0
    endloop
  endfacet
  facet normal -0.831458 0.555587 0
    outer loop
      vertex 14.3806 14.4134 0
      vertex 15.4645 16.0355 1
      vertex 15.4645 16.0355 0
    endloop
  endfacet
  facet normal -0.831458 0.555587 0
    outer loop
      vertex 15.4645 16.0355 1
      vertex 14.3806 14.4134 0
      vertex 14.3806 14.4134 1
    endloop
  endfacet
  facet normal -0.980785 -0.195091 0
    outer loop
      vertex 14.3806 10.5866 0
      vertex 14 12.5 1
      vertex 14 12.5 0
    endloop
  endfacet
  facet normal -0.980785 -0.195091 0
    outer loop
      vertex 14 12.5 1
      vertex 14.3806 10.5866 0
      vertex 14.3806 10.5866 1
    endloop
  endfacet
  facet normal 0.555587 0.831458 -0
    outer loop
      vertex 82.5355 58.0355 0
      vertex 80.9134 59.1194 1
      vertex 82.5355 58.0355 1
    endloop
  endfacet
  facet normal 0.555587 0.831458 0
    outer loop
      vertex 80.9134 59.1194 1
      vertex 82.5355 58.0355 0
      vertex 80.9134 59.1194 0
    endloop
  endfacet
  facet normal -0.195091 -0.980785 0
    outer loop
      vertex 17.0866 7.8806 0
      vertex 19 7.5 1
      vertex 17.0866 7.8806 1
    endloop
  endfacet
  facet normal -0.195091 -0.980785 -0
    outer loop
      vertex 19 7.5 1
      vertex 17.0866 7.8806 0
      vertex 19 7.5 0
    endloop
  endfacet
  facet normal 0.555576 -0.831465 0
    outer loop
      vertex 20.9134 7.8806 0
      vertex 22.5355 8.96447 1
      vertex 20.9134 7.8806 1
    endloop
  endfacet
  facet normal 0.555576 -0.831465 0
    outer loop
      vertex 22.5355 8.96447 1
      vertex 20.9134 7.8806 0
      vertex 22.5355 8.96447 0
    endloop
  endfacet
  facet normal 0.980785 0.195091 0
    outer loop
      vertex 84 54.5 1
      vertex 83.6194 56.4134 0
      vertex 83.6194 56.4134 1
    endloop
  endfacet
  facet normal 0.980785 0.195091 0
    outer loop
      vertex 83.6194 56.4134 0
      vertex 84 54.5 1
      vertex 84 54.5 0
    endloop
  endfacet
  facet normal -0.831463 -0.55558 0
    outer loop
      vertex 15.4645 8.96447 0
      vertex 14.3806 10.5866 1
      vertex 14.3806 10.5866 0
    endloop
  endfacet
  facet normal -0.831463 -0.55558 0
    outer loop
      vertex 14.3806 10.5866 1
      vertex 15.4645 8.96447 0
      vertex 15.4645 8.96447 1
    endloop
  endfacet
  facet normal 0.195091 0.980785 -0
    outer loop
      vertex 80.9134 59.1194 0
      vertex 79 59.5 1
      vertex 80.9134 59.1194 1
    endloop
  endfacet
  facet normal 0.195091 0.980785 0
    outer loop
      vertex 79 59.5 1
      vertex 80.9134 59.1194 0
      vertex 79 59.5 0
    endloop
  endfacet
  facet normal -0.573462 0.819232 0
    outer loop
      vertex 75.4645 58.0355 0
      vertex 15.4645 16.0355 1
      vertex 75.4645 58.0355 1
    endloop
  endfacet
  facet normal -0.573462 0.819232 0
    outer loop
      vertex 15.4645 16.0355 1
      vertex 75.4645 58.0355 0
      vertex 15.4645 16.0355 0
    endloop
  endfacet
  facet normal -0.555587 0.831458 0
    outer loop
      vertex 77.0866 59.1194 0
      vertex 75.4645 58.0355 1
      vertex 77.0866 59.1194 1
    endloop
  endfacet
  facet normal -0.555587 0.831458 0
    outer loop
      vertex 75.4645 58.0355 1
      vertex 77.0866 59.1194 0
      vertex 75.4645 58.0355 0
    endloop
  endfacet
  facet normal 0.831458 0.555587 0
    outer loop
      vertex 83.6194 56.4134 1
      vertex 82.5355 58.0355 0
      vertex 82.5355 58.0355 1
    endloop
  endfacet
  facet normal 0.831458 0.555587 0
    outer loop
      vertex 82.5355 58.0355 0
      vertex 83.6194 56.4134 1
      vertex 83.6194 56.4134 0
    endloop
  endfacet
  facet normal 0.195091 -0.980785 0
    outer loop
      vertex 19 7.5 0
      vertex 20.9134 7.8806 1
      vertex 19 7.5 1
    endloop
  endfacet
  facet normal 0.195091 -0.980785 0
    outer loop
      vertex 20.9134 7.8806 1
      vertex 19 7.5 0
      vertex 20.9134 7.8806 0
    endloop
  endfacet
  facet normal -0.195091 0.980785 0
    outer loop
      vertex 79 59.5 0
      vertex 77.0866 59.1194 1
      vertex 79 59.5 1
    endloop
  endfacet
  facet normal -0.195091 0.980785 0
    outer loop
      vertex 77.0866 59.1194 1
      vertex 79 59.5 0
      vertex 77.0866 59.1194 0
    endloop
  endfacet
  facet normal 0.831458 -0.555587 0
    outer loop
      vertex 82.5355 50.9645 1
      vertex 83.6194 52.5866 0
      vertex 83.6194 52.5866 1
    endloop
  endfacet
  facet normal 0.831458 -0.555587 0
    outer loop
      vertex 83.6194 52.5866 0
      vertex 82.5355 50.9645 1
      vertex 82.5355 50.9645 0
    endloop
  endfacet
  facet normal -0.980785 0.195091 0
    outer loop
      vertex 14 12.5 0
      vertex 14.3806 14.4134 1
      vertex 14.3806 14.4134 0
    endloop
  endfacet
  facet normal -0.980785 0.195091 0
    outer loop
      vertex 14.3806 14.4134 1
      vertex 14 12.5 0
      vertex 14 12.5 1
    endloop
  endfacet
  facet normal -0 0 1
    outer loop
      vertex 77.0866 59.1194 1
      vertex 79 56.5 1
      vertex 79 59.5 1
    endloop
  endfacet
  facet normal -0 0 1
    outer loop
      vertex 75.4645 58.0355 1
      vertex 79 56.5 1
      vertex 77.0866 59.1194 1
    endloop
  endfacet
  facet normal 0 0 1
    outer loop
      vertex 75.4645 58.0355 1
      vertex 75 56.5 1
      vertex 79 56.5 1
    endloop
  endfacet
  facet normal 0 0 1
    outer loop
      vertex 75 56.5 1
      vertex 69 49.5 1
      vertex 75 52.5 1
    endloop
  endfacet
  facet normal 0 0 1
    outer loop
      vertex 65 49.5 1
      vertex 75 56.5 1
      vertex 75.4645 58.0355 1
    endloop
  endfacet
  facet normal 0 0 1
    outer loop
      vertex 75 56.5 1
      vertex 65 49.5 1
      vertex 69 49.5 1
    endloop
  endfacet
  facet normal 0 0 1
    outer loop
      vertex 65 49.5 1
      vertex 59 42.5 1
      vertex 65 45.5 1
    endloop
  endfacet
  facet normal 0 0 1
    outer loop
      vertex 65 49.5 1
      vertex 55 42.5 1
      vertex 59 42.5 1
    endloop
  endfacet
  facet normal 0 0 1
    outer loop
      vertex 75.4645 58.0355 1
      vertex 55 42.5 1
      vertex 65 49.5 1
    endloop
  endfacet
  facet normal 0 0 1
    outer loop
      vertex 55 42.5 1
      vertex 49 35.5 1
      vertex 55 38.5 1
    endloop
  endfacet
  facet normal 0 0 1
    outer loop
      vertex 55 42.5 1
      vertex 45 35.5 1
      vertex 49 35.5 1
    endloop
  endfacet
  facet normal 0 0 1
    outer loop
      vertex 75.4645 58.0355 1
      vertex 45 35.5 1
      vertex 55 42.5 1
    endloop
  endfacet
  facet normal 0 0 1
    outer loop
      vertex 45 35.5 1
      vertex 39 28.5 1
      vertex 45 31.5 1
    endloop
  endfacet
  facet normal 0 0 1
    outer loop
      vertex 45 35.5 1
      vertex 35 28.5 1
      vertex 39 28.5 1
    endloop
  endfacet
  facet normal 0 0 1
    outer loop
      vertex 15.4645 16.0355 1
      vertex 45 35.5 1
      vertex 75.4645 58.0355 1
    endloop
  endfacet
  facet normal 0 0 1
    outer loop
      vertex 35 28.5 1
      vertex 29 21.5 1
      vertex 35 24.5 1
    endloop
  endfacet
  facet normal 0 0 1
    outer loop
      vertex 35 28.5 1
      vertex 25 21.5 1
      vertex 29 21.5 1
    endloop
  endfacet
  facet normal 0 0 1
    outer loop
      vertex 45 35.5 1
      vertex 15.4645 16.0355 1
      vertex 35 28.5 1
    endloop
  endfacet
  facet normal 0 0 1
    outer loop
      vertex 19 14.5 1
      vertex 25 17.5 1
      vertex 25 21.5 1
    endloop
  endfacet
  facet normal 0 0 1
    outer loop
      vertex 25 17.5 1
      vertex 19 14.5 1
      vertex 22.5355 8.96447 1
    endloop
  endfacet
  facet normal -0 0 1
    outer loop
      vertex 19 10.5 1
      vertex 22.5355 8.96447 1
      vertex 19 14.5 1
    endloop
  endfacet
  facet normal 0 0 1
    outer loop
      vertex 35 28.5 1
      vertex 15.4645 16.0355 1
      vertex 25 21.5 1
    endloop
  endfacet
  facet normal -0 0 1
    outer loop
      vertex 15.4645 16.0355 1
      vertex 19 14.5 1
      vertex 25 21.5 1
    endloop
  endfacet
  facet normal 0 0 1
    outer loop
      vertex 15.4645 16.0355 1
      vertex 15 14.5 1
      vertex 19 14.5 1
    endloop
  endfacet
  facet normal 0 0 1
    outer loop
      vertex 14 12.5 1
      vertex 15 14.5 1
      vertex 14.3806 14.4134 1
    endloop
  endfacet
  facet normal 0 0 1
    outer loop
      vertex 14.3806 14.4134 1
      vertex 15 14.5 1
      vertex 15.4645 16.0355 1
    endloop
  endfacet
  facet normal 0 0 1
    outer loop
      vertex 79 56.5 1
      vertex 84 54.5 1
      vertex 83.6194 56.4134 1
    endloop
  endfacet
  facet normal -0 0 1
    outer loop
      vertex 79 56.5 1
      vertex 83.6194 56.4134 1
      vertex 82.5355 58.0355 1
    endloop
  endfacet
  facet normal 0 0 1
    outer loop
      vertex 79 52.5 1
      vertex 84 54.5 1
      vertex 79 56.5 1
    endloop
  endfacet
  facet normal 0 0 1
    outer loop
      vertex 79 56.5 1
      vertex 82.5355 58.0355 1
      vertex 80.9134 59.1194 1
    endloop
  endfacet
  facet normal 0 0 1
    outer loop
      vertex 79 56.5 1
      vertex 80.9134 59.1194 1
      vertex 79 59.5 1
    endloop
  endfacet
  facet normal 0 0 1
    outer loop
      vertex 84 54.5 1
      vertex 79 52.5 1
      vertex 83.6194 52.5866 1
    endloop
  endfacet
  facet normal 0 0 1
    outer loop
      vertex 83.6194 52.5866 1
      vertex 79 52.5 1
      vertex 82.5355 50.9645 1
    endloop
  endfacet
  facet normal 0 0 1
    outer loop
      vertex 69 45.5 1
      vertex 79 52.5 1
      vertex 75 52.5 1
    endloop
  endfacet
  facet normal 0 0 1
    outer loop
      vertex 69 45.5 1
      vertex 75 52.5 1
      vertex 69 49.5 1
    endloop
  endfacet
  facet normal 0 0 1
    outer loop
      vertex 79 52.5 1
      vertex 69 45.5 1
      vertex 82.5355 50.9645 1
    endloop
  endfacet
  facet normal 0 0 1
    outer loop
      vertex 59 38.5 1
      vertex 65 45.5 1
      vertex 59 42.5 1
    endloop
  endfacet
  facet normal -0 0 1
    outer loop
      vertex 65 45.5 1
      vertex 59 38.5 1
      vertex 69 45.5 1
    endloop
  endfacet
  facet normal 0 0 1
    outer loop
      vertex 59 38.5 1
      vertex 82.5355 50.9645 1
      vertex 69 45.5 1
    endloop
  endfacet
  facet normal 0 0 1
    outer loop
      vertex 49 31.5 1
      vertex 55 38.5 1
      vertex 49 35.5 1
    endloop
  endfacet
  facet normal -0 0 1
    outer loop
      vertex 55 38.5 1
      vertex 49 31.5 1
      vertex 59 38.5 1
    endloop
  endfacet
  facet normal 0 0 1
    outer loop
      vertex 49 31.5 1
      vertex 82.5355 50.9645 1
      vertex 59 38.5 1
    endloop
  endfacet
  facet normal 0 0 1
    outer loop
      vertex 39 24.5 1
      vertex 45 31.5 1
      vertex 39 28.5 1
    endloop
  endfacet
  facet normal -0 0 1
    outer loop
      vertex 45 31.5 1
      vertex 39 24.5 1
      vertex 49 31.5 1
    endloop
  endfacet
  facet normal 0 0 1
    outer loop
      vertex 22.5355 8.96447 1
      vertex 49 31.5 1
      vertex 39 24.5 1
    endloop
  endfacet
  facet normal 0 0 1
    outer loop
      vertex 29 17.5 1
      vertex 35 24.5 1
      vertex 29 21.5 1
    endloop
  endfacet
  facet normal -0 0 1
    outer loop
      vertex 35 24.5 1
      vertex 29 17.5 1
      vertex 39 24.5 1
    endloop
  endfacet
  facet normal 0 0 1
    outer loop
      vertex 22.5355 8.96447 1
      vertex 39 24.5 1
      vertex 29 17.5 1
    endloop
  endfacet
  facet normal -0 0 1
    outer loop
      vertex 49 31.5 1
      vertex 22.5355 8.96447 1
      vertex 82.5355 50.9645 1
    endloop
  endfacet
  facet normal 0 0 1
    outer loop
      vertex 22.5355 8.96447 1
      vertex 29 17.5 1
      vertex 25 17.5 1
    endloop
  endfacet
  facet normal 0 0 1
    outer loop
      vertex 22.5355 8.96447 1
      vertex 19 10.5 1
      vertex 20.9134 7.8806 1
    endloop
  endfacet
  facet normal 0 0 1
    outer loop
      vertex 19 10.5 1
      vertex 19 7.5 1
      vertex 20.9134 7.8806 1
    endloop
  endfacet
  facet normal 0 0 1
    outer loop
      vertex 19 10.5 1
      vertex 17.0866 7.8806 1
      vertex 19 7.5 1
    endloop
  endfacet
  facet normal 0 0 1
    outer loop
      vertex 19 10.5 1
      vertex 15.4645 8.96447 1
      vertex 17.0866 7.8806 1
    endloop
  endfacet
  facet normal -0 0 1
    outer loop
      vertex 15 10.5 1
      vertex 15.4645 8.96447 1
      vertex 19 10.5 1
    endloop
  endfacet
  facet normal 0 0 1
    outer loop
      vertex 15 10.5 1
      vertex 14.3806 10.5866 1
      vertex 15.4645 8.96447 1
    endloop
  endfacet
  facet normal 0 0 1
    outer loop
      vertex 15 14.5 1
      vertex 14 12.5 1
      vertex 15 10.5 1
    endloop
  endfacet
  facet normal 0 0 1
    outer loop
      vertex 15 10.5 1
      vertex 14 12.5 1
      vertex 14.3806 10.5866 1
    endloop
  endfacet
  facet normal -1 0 0
    outer loop
      vertex -19 10.5 1
      vertex -19 14.5 2.7
      vertex -19 14.5 1
    endloop
  endfacet
  facet normal -1 -0 0
    outer loop
      vertex -19 14.5 2.7
      vertex -19 10.5 1
      vertex -19 10.5 2.7
    endloop
  endfacet
  facet normal 0 0 -1
    outer loop
      vertex -14.3806 10.5866 0
      vertex -14.3806 14.4134 0
      vertex -14 12.5 0
    endloop
  endfacet
  facet normal 0 0 -1
    outer loop
      vertex -15.4645 8.96447 0
      vertex -14.3806 14.4134 0
      vertex -14.3806 10.5866 0
    endloop
  endfacet
  facet normal 0 0 -1
    outer loop
      vertex -15.4645 8.96447 0
      vertex -15.4645 16.0355 0
      vertex -14.3806 14.4134 0
    endloop
  endfacet
  facet normal 0 0 -1
    outer loop
      vertex -17.0866 7.8806 0
      vertex -15.4645 16.0355 0
      vertex -15.4645 8.96447 0
    endloop
  endfacet
  facet normal 0 0 -1
    outer loop
      vertex -19 7.5 0
      vertex -15.4645 16.0355 0
      vertex -17.0866 7.8806 0
    endloop
  endfacet
  facet normal 0 0 -1
    outer loop
      vertex -20.9134 7.8806 0
      vertex -15.4645 16.0355 0
      vertex -19 7.5 0
    endloop
  endfacet
  facet normal 0 0 -1
    outer loop
      vertex -22.5355 8.96447 0
      vertex -15.4645 16.0355 0
      vertex -20.9134 7.8806 0
    endloop
  endfacet
  facet normal 0 0 -1
    outer loop
      vertex -22.5355 8.96447 0
      vertex -75.4645 58.0355 0
      vertex -15.4645 16.0355 0
    endloop
  endfacet
  facet normal 0 0 -1
    outer loop
      vertex -82.5355 50.9645 0
      vertex -75.4645 58.0355 0
      vertex -22.5355 8.96447 0
    endloop
  endfacet
  facet normal -0 0 -1
    outer loop
      vertex -75.4645 58.0355 0
      vertex -82.5355 50.9645 0
      vertex -77.0866 59.1194 0
    endloop
  endfacet
  facet normal -0 0 -1
    outer loop
      vertex -77.0866 59.1194 0
      vertex -82.5355 50.9645 0
      vertex -79 59.5 0
    endloop
  endfacet
  facet normal 0 0 -1
    outer loop
      vertex -79 59.5 0
      vertex -82.5355 50.9645 0
      vertex -80.9134 59.1194 0
    endloop
  endfacet
  facet normal 0 0 -1
    outer loop
      vertex -82.5355 50.9645 0
      vertex -82.5355 58.0355 0
      vertex -80.9134 59.1194 0
    endloop
  endfacet
  facet normal 0 0 -1
    outer loop
      vertex -83.6194 52.5866 0
      vertex -82.5355 58.0355 0
      vertex -82.5355 50.9645 0
    endloop
  endfacet
  facet normal 0 0 -1
    outer loop
      vertex -83.6194 52.5866 0
      vertex -83.6194 56.4134 0
      vertex -82.5355 58.0355 0
    endloop
  endfacet
  facet normal 0 -0 -1
    outer loop
      vertex -83.6194 56.4134 0
      vertex -83.6194 52.5866 0
      vertex -84 54.5 0
    endloop
  endfacet
  facet normal 1 -0 0
    outer loop
      vertex -15 10.5 1.5
      vertex -15 14.5 1
      vertex -15 14.5 1.5
    endloop
  endfacet
  facet normal 1 0 0
    outer loop
      vertex -15 14.5 1
      vertex -15 10.5 1.5
      vertex -15 10.5 1
    endloop
  endfacet
  facet normal -1 0 0
    outer loop
      vertex -29 17.5 1
      vertex -29 21.5 3.9
      vertex -29 21.5 1
    endloop
  endfacet
  facet normal -1 -0 0
    outer loop
      vertex -29 21.5 3.9
      vertex -29 17.5 1
      vertex -29 17.5 3.9
    endloop
  endfacet
  facet normal 1 -0 0
    outer loop
      vertex -25 17.5 2.7
      vertex -25 21.5 1
      vertex -25 21.5 2.7
    endloop
  endfacet
  facet normal 1 0 0
    outer loop
      vertex -25 21.5 1
      vertex -25 17.5 2.7
      vertex -25 17.5 1
    endloop
  endfacet
  facet normal -1 0 0
    outer loop
      vertex -39 24.5 1
      vertex -39 28.5 5.1
      vertex -39 28.5 1
    endloop
  endfacet
  facet normal -1 -0 0
    outer loop
      vertex -39 28.5 5.1
      vertex -39 24.5 1
      vertex -39 24.5 5.1
    endloop
  endfacet
  facet normal 1 -0 0
    outer loop
      vertex -35 24.5 3.9
      vertex -35 28.5 1
      vertex -35 28.5 3.9
    endloop
  endfacet
  facet normal 1 0 0
    outer loop
      vertex -35 28.5 1
      vertex -35 24.5 3.9
      vertex -35 24.5 1
    endloop
  endfacet
  facet normal -1 0 0
    outer loop
      vertex -49 31.5 1
      vertex -49 35.5 6.3
      vertex -49 35.5 1
    endloop
  endfacet
  facet normal -1 -0 0
    outer loop
      vertex -49 35.5 6.3
      vertex -49 31.5 1
      vertex -49 31.5 6.3
    endloop
  endfacet
  facet normal 1 -0 0
    outer loop
      vertex -45 31.5 5.1
      vertex -45 35.5 1
      vertex -45 35.5 5.1
    endloop
  endfacet
  facet normal 1 0 0
    outer loop
      vertex -45 35.5 1
      vertex -45 31.5 5.1
      vertex -45 31.5 1
    endloop
  endfacet
  facet normal -1 0 0
    outer loop
      vertex -59 38.5 1
      vertex -59 42.5 7.5
      vertex -59 42.5 1
    endloop
  endfacet
  facet normal -1 -0 0
    outer loop
      vertex -59 42.5 7.5
      vertex -59 38.5 1
      vertex -59 38.5 7.5
    endloop
  endfacet
  facet normal 1 -0 0
    outer loop
      vertex -55 38.5 6.3
      vertex -55 42.5 1
      vertex -55 42.5 6.3
    endloop
  endfacet
  facet normal 1 0 0
    outer loop
      vertex -55 42.5 1
      vertex -55 38.5 6.3
      vertex -55 38.5 1
    endloop
  endfacet
  facet normal -1 0 0
    outer loop
      vertex -69 45.5 1
      vertex -69 49.5 8.7
      vertex -69 49.5 1
    endloop
  endfacet
  facet normal -1 -0 0
    outer loop
      vertex -69 49.5 8.7
      vertex -69 45.5 1
      vertex -69 45.5 8.7
    endloop
  endfacet
  facet normal 1 -0 0
    outer loop
      vertex -65 45.5 7.5
      vertex -65 49.5 1
      vertex -65 49.5 7.5
    endloop
  endfacet
  facet normal 1 0 0
    outer loop
      vertex -65 49.5 1
      vertex -65 45.5 7.5
      vertex -65 45.5 1
    endloop
  endfacet
  facet normal -1 0 0
    outer loop
      vertex -79 52.5 1
      vertex -79 56.5 9.9
      vertex -79 56.5 1
    endloop
  endfacet
  facet normal -1 -0 0
    outer loop
      vertex -79 56.5 9.9
      vertex -79 52.5 1
      vertex -79 52.5 9.9
    endloop
  endfacet
  facet normal 1 -0 0
    outer loop
      vertex -75 52.5 8.7
      vertex -75 56.5 1
      vertex -75 56.5 8.7
    endloop
  endfacet
  facet normal 1 0 0
    outer loop
      vertex -75 56.5 1
      vertex -75 52.5 8.7
      vertex -75 52.5 1
    endloop
  endfacet
  facet normal -0.980785 0.195091 0
    outer loop
      vertex -84 54.5 0
      vertex -83.6194 56.4134 1
      vertex -83.6194 56.4134 0
    endloop
  endfacet
  facet normal -0.980785 0.195091 0
    outer loop
      vertex -83.6194 56.4134 1
      vertex -84 54.5 0
      vertex -84 54.5 1
    endloop
  endfacet
  facet normal -0.555576 -0.831465 0
    outer loop
      vertex -22.5355 8.96447 0
      vertex -20.9134 7.8806 1
      vertex -22.5355 8.96447 1
    endloop
  endfacet
  facet normal -0.555576 -0.831465 -0
    outer loop
      vertex -20.9134 7.8806 1
      vertex -22.5355 8.96447 0
      vertex -20.9134 7.8806 0
    endloop
  endfacet
  facet normal 0.555587 0.831458 -0
    outer loop
      vertex -75.4645 58.0355 0
      vertex -77.0866 59.1194 1
      vertex -75.4645 58.0355 1
    endloop
  endfacet
  facet normal 0.555587 0.831458 0
    outer loop
      vertex -77.0866 59.1194 1
      vertex -75.4645 58.0355 0
      vertex -77.0866 59.1194 0
    endloop
  endfacet
  facet normal 0.980785 -0.195091 0
    outer loop
      vertex -14.3806 10.5866 1
      vertex -14 12.5 0
      vertex -14 12.5 1
    endloop
  endfacet
  facet normal 0.980785 -0.195091 0
    outer loop
      vertex -14 12.5 0
      vertex -14.3806 10.5866 1
      vertex -14.3806 10.5866 0
    endloop
  endfacet
  facet normal 0.555576 -0.831465 0
    outer loop
      vertex -17.0866 7.8806 0
      vertex -15.4645 8.96447 1
      vertex -17.0866 7.8806 1
    endloop
  endfacet
  facet normal 0.555576 -0.831465 0
    outer loop
      vertex -15.4645 8.96447 1
      vertex -17.0866 7.8806 0
      vertex -15.4645 8.96447 0
    endloop
  endfacet
  facet normal 0.831458 0.555587 0
    outer loop
      vertex -14.3806 14.4134 1
      vertex -15.4645 16.0355 0
      vertex -15.4645 16.0355 1
    endloop
  endfacet
  facet normal 0.831458 0.555587 0
    outer loop
      vertex -15.4645 16.0355 0
      vertex -14.3806 14.4134 1
      vertex -14.3806 14.4134 0
    endloop
  endfacet
  facet normal -0.980785 -0.195091 0
    outer loop
      vertex -83.6194 52.5866 0
      vertex -84 54.5 1
      vertex -84 54.5 0
    endloop
  endfacet
  facet normal -0.980785 -0.195091 0
    outer loop
      vertex -84 54.5 1
      vertex -83.6194 52.5866 0
      vertex -83.6194 52.5866 1
    endloop
  endfacet
  facet normal 0.573462 0.819232 -0
    outer loop
      vertex -15.4645 16.0355 0
      vertex -75.4645 58.0355 1
      vertex -15.4645 16.0355 1
    endloop
  endfacet
  facet normal 0.573462 0.819232 0
    outer loop
      vertex -75.4645 58.0355 1
      vertex -15.4645 16.0355 0
      vertex -75.4645 58.0355 0
    endloop
  endfacet
  facet normal 0.831463 -0.55558 0
    outer loop
      vertex -15.4645 8.96447 1
      vertex -14.3806 10.5866 0
      vertex -14.3806 10.5866 1
    endloop
  endfacet
  facet normal 0.831463 -0.55558 0
    outer loop
      vertex -14.3806 10.5866 0
      vertex -15.4645 8.96447 1
      vertex -15.4645 8.96447 0
    endloop
  endfacet
  facet normal 0.980785 0.195091 0
    outer loop
      vertex -14 12.5 1
      vertex -14.3806 14.4134 0
      vertex -14.3806 14.4134 1
    endloop
  endfacet
  facet normal 0.980785 0.195091 0
    outer loop
      vertex -14.3806 14.4134 0
      vertex -14 12.5 1
      vertex -14 12.5 0
    endloop
  endfacet
  facet normal -0.195091 -0.980785 0
    outer loop
      vertex -20.9134 7.8806 0
      vertex -19 7.5 1
      vertex -20.9134 7.8806 1
    endloop
  endfacet
  facet normal -0.195091 -0.980785 -0
    outer loop
      vertex -19 7.5 1
      vertex -20.9134 7.8806 0
      vertex -19 7.5 0
    endloop
  endfacet
  facet normal 0.195091 -0.980785 0
    outer loop
      vertex -19 7.5 0
      vertex -17.0866 7.8806 1
      vertex -19 7.5 1
    endloop
  endfacet
  facet normal 0.195091 -0.980785 0
    outer loop
      vertex -17.0866 7.8806 1
      vertex -19 7.5 0
      vertex -17.0866 7.8806 0
    endloop
  endfacet
  facet normal -0.573463 -0.819232 0
    outer loop
      vertex -82.5355 50.9645 0
      vertex -22.5355 8.96447 1
      vertex -82.5355 50.9645 1
    endloop
  endfacet
  facet normal -0.573463 -0.819232 -0
    outer loop
      vertex -22.5355 8.96447 1
      vertex -82.5355 50.9645 0
      vertex -22.5355 8.96447 0
    endloop
  endfacet
  facet normal -0.555587 0.831458 0
    outer loop
      vertex -80.9134 59.1194 0
      vertex -82.5355 58.0355 1
      vertex -80.9134 59.1194 1
    endloop
  endfacet
  facet normal -0.555587 0.831458 0
    outer loop
      vertex -82.5355 58.0355 1
      vertex -80.9134 59.1194 0
      vertex -82.5355 58.0355 0
    endloop
  endfacet
  facet normal -0.831458 0.555587 0
    outer loop
      vertex -83.6194 56.4134 0
      vertex -82.5355 58.0355 1
      vertex -82.5355 58.0355 0
    endloop
  endfacet
  facet normal -0.831458 0.555587 0
    outer loop
      vertex -82.5355 58.0355 1
      vertex -83.6194 56.4134 0
      vertex -83.6194 56.4134 1
    endloop
  endfacet
  facet normal -0.831458 -0.555587 0
    outer loop
      vertex -82.5355 50.9645 0
      vertex -83.6194 52.5866 1
      vertex -83.6194 52.5866 0
    endloop
  endfacet
  facet normal -0.831458 -0.555587 0
    outer loop
      vertex -83.6194 52.5866 1
      vertex -82.5355 50.9645 0
      vertex -82.5355 50.9645 1
    endloop
  endfacet
  facet normal 0.195091 0.980785 -0
    outer loop
      vertex -77.0866 59.1194 0
      vertex -79 59.5 1
      vertex -77.0866 59.1194 1
    endloop
  endfacet
  facet normal 0.195091 0.980785 0
    outer loop
      vertex -79 59.5 1
      vertex -77.0866 59.1194 0
      vertex -79 59.5 0
    endloop
  endfacet
  facet normal 0 0 1
    outer loop
      vertex -15 14.5 1
      vertex -14 12.5 1
      vertex -14.3806 14.4134 1
    endloop
  endfacet
  facet normal 0 0 1
    outer loop
      vertex -15 10.5 1
      vertex -14 12.5 1
      vertex -15 14.5 1
    endloop
  endfacet
  facet normal 0 0 1
    outer loop
      vertex -15.4645 16.0355 1
      vertex -15 14.5 1
      vertex -14.3806 14.4134 1
    endloop
  endfacet
  facet normal 0 0 1
    outer loop
      vertex -15.4645 16.0355 1
      vertex -19 14.5 1
      vertex -15 14.5 1
    endloop
  endfacet
  facet normal 0 0 1
    outer loop
      vertex -22.5355 8.96447 1
      vertex -19 10.5 1
      vertex -19 14.5 1
    endloop
  endfacet
  facet normal 0 0 1
    outer loop
      vertex -19 10.5 1
      vertex -20.9134 7.8806 1
      vertex -19 7.5 1
    endloop
  endfacet
  facet normal 0 0 1
    outer loop
      vertex -19 10.5 1
      vertex -22.5355 8.96447 1
      vertex -20.9134 7.8806 1
    endloop
  endfacet
  facet normal -0 0 1
    outer loop
      vertex -25 17.5 1
      vertex -19 14.5 1
      vertex -25 21.5 1
    endloop
  endfacet
  facet normal 0 0 1
    outer loop
      vertex -15.4645 16.0355 1
      vertex -25 21.5 1
      vertex -19 14.5 1
    endloop
  endfacet
  facet normal -0 0 1
    outer loop
      vertex -35 24.5 1
      vertex -29 21.5 1
      vertex -35 28.5 1
    endloop
  endfacet
  facet normal 0 0 1
    outer loop
      vertex -25 21.5 1
      vertex -35 28.5 1
      vertex -29 21.5 1
    endloop
  endfacet
  facet normal 0 0 1
    outer loop
      vertex -15.4645 16.0355 1
      vertex -35 28.5 1
      vertex -25 21.5 1
    endloop
  endfacet
  facet normal -0 0 1
    outer loop
      vertex -45 31.5 1
      vertex -39 28.5 1
      vertex -45 35.5 1
    endloop
  endfacet
  facet normal 0 0 1
    outer loop
      vertex -35 28.5 1
      vertex -45 35.5 1
      vertex -39 28.5 1
    endloop
  endfacet
  facet normal 0 0 1
    outer loop
      vertex -15.4645 16.0355 1
      vertex -45 35.5 1
      vertex -35 28.5 1
    endloop
  endfacet
  facet normal -0 0 1
    outer loop
      vertex -55 38.5 1
      vertex -49 35.5 1
      vertex -55 42.5 1
    endloop
  endfacet
  facet normal 0 0 1
    outer loop
      vertex -45 35.5 1
      vertex -55 42.5 1
      vertex -49 35.5 1
    endloop
  endfacet
  facet normal 0 0 1
    outer loop
      vertex -75.4645 58.0355 1
      vertex -45 35.5 1
      vertex -15.4645 16.0355 1
    endloop
  endfacet
  facet normal -0 0 1
    outer loop
      vertex -65 45.5 1
      vertex -59 42.5 1
      vertex -65 49.5 1
    endloop
  endfacet
  facet normal 0 0 1
    outer loop
      vertex -55 42.5 1
      vertex -65 49.5 1
      vertex -59 42.5 1
    endloop
  endfacet
  facet normal 0 0 1
    outer loop
      vertex -45 35.5 1
      vertex -75.4645 58.0355 1
      vertex -55 42.5 1
    endloop
  endfacet
  facet normal -0 0 1
    outer loop
      vertex -75 52.5 1
      vertex -69 49.5 1
      vertex -75 56.5 1
    endloop
  endfacet
  facet normal 0 0 1
    outer loop
      vertex -65 49.5 1
      vertex -75 56.5 1
      vertex -69 49.5 1
    endloop
  endfacet
  facet normal 0 0 1
    outer loop
      vertex -55 42.5 1
      vertex -75.4645 58.0355 1
      vertex -65 49.5 1
    endloop
  endfacet
  facet normal 0 0 1
    outer loop
      vertex -65 49.5 1
      vertex -75.4645 58.0355 1
      vertex -75 56.5 1
    endloop
  endfacet
  facet normal 0 0 1
    outer loop
      vertex -79 56.5 1
      vertex -75.4645 58.0355 1
      vertex -77.0866 59.1194 1
    endloop
  endfacet
  facet normal 0 0 1
    outer loop
      vertex -79 56.5 1
      vertex -77.0866 59.1194 1
      vertex -79 59.5 1
    endloop
  endfacet
  facet normal 0 0 1
    outer loop
      vertex -75.4645 58.0355 1
      vertex -79 56.5 1
      vertex -75 56.5 1
    endloop
  endfacet
  facet normal -0 0 1
    outer loop
      vertex -80.9134 59.1194 1
      vertex -79 56.5 1
      vertex -79 59.5 1
    endloop
  endfacet
  facet normal -0 0 1
    outer loop
      vertex -82.5355 58.0355 1
      vertex -79 56.5 1
      vertex -80.9134 59.1194 1
    endloop
  endfacet
  facet normal 0 0 1
    outer loop
      vertex -14 12.5 1
      vertex -15 10.5 1
      vertex -14.3806 10.5866 1
    endloop
  endfacet
  facet normal -0 0 1
    outer loop
      vertex -15 10.5 1
      vertex -15.4645 8.96447 1
      vertex -14.3806 10.5866 1
    endloop
  endfacet
  facet normal -0 0 1
    outer loop
      vertex -19 10.5 1
      vertex -15.4645 8.96447 1
      vertex -15 10.5 1
    endloop
  endfacet
  facet normal 0 0 1
    outer loop
      vertex -15.4645 8.96447 1
      vertex -19 10.5 1
      vertex -17.0866 7.8806 1
    endloop
  endfacet
  facet normal 0 0 1
    outer loop
      vertex -17.0866 7.8806 1
      vertex -19 10.5 1
      vertex -19 7.5 1
    endloop
  endfacet
  facet normal 0 0 1
    outer loop
      vertex -19 14.5 1
      vertex -25 17.5 1
      vertex -22.5355 8.96447 1
    endloop
  endfacet
  facet normal -0 0 1
    outer loop
      vertex -29 17.5 1
      vertex -22.5355 8.96447 1
      vertex -25 17.5 1
    endloop
  endfacet
  facet normal 0 0 1
    outer loop
      vertex -29 21.5 1
      vertex -35 24.5 1
      vertex -29 17.5 1
    endloop
  endfacet
  facet normal -0 0 1
    outer loop
      vertex -39 24.5 1
      vertex -29 17.5 1
      vertex -35 24.5 1
    endloop
  endfacet
  facet normal 0 0 1
    outer loop
      vertex -29 17.5 1
      vertex -39 24.5 1
      vertex -22.5355 8.96447 1
    endloop
  endfacet
  facet normal 0 0 1
    outer loop
      vertex -39 28.5 1
      vertex -45 31.5 1
      vertex -39 24.5 1
    endloop
  endfacet
  facet normal -0 0 1
    outer loop
      vertex -49 31.5 1
      vertex -39 24.5 1
      vertex -45 31.5 1
    endloop
  endfacet
  facet normal 0 0 1
    outer loop
      vertex -49 31.5 1
      vertex -22.5355 8.96447 1
      vertex -39 24.5 1
    endloop
  endfacet
  facet normal 0 0 1
    outer loop
      vertex -49 35.5 1
      vertex -55 38.5 1
      vertex -49 31.5 1
    endloop
  endfacet
  facet normal -0 0 1
    outer loop
      vertex -59 38.5 1
      vertex -49 31.5 1
      vertex -55 38.5 1
    endloop
  endfacet
  facet normal 0 0 1
    outer loop
      vertex -82.5355 50.9645 1
      vertex -49 31.5 1
      vertex -59 38.5 1
    endloop
  endfacet
  facet normal 0 0 1
    outer loop
      vertex -59 42.5 1
      vertex -65 45.5 1
      vertex -59 38.5 1
    endloop
  endfacet
  facet normal -0 0 1
    outer loop
      vertex -69 45.5 1
      vertex -59 38.5 1
      vertex -65 45.5 1
    endloop
  endfacet
  facet normal 0 0 1
    outer loop
      vertex -82.5355 50.9645 1
      vertex -59 38.5 1
      vertex -69 45.5 1
    endloop
  endfacet
  facet normal 0 0 1
    outer loop
      vertex -69 49.5 1
      vertex -75 52.5 1
      vertex -69 45.5 1
    endloop
  endfacet
  facet normal -0 0 1
    outer loop
      vertex -79 52.5 1
      vertex -69 45.5 1
      vertex -75 52.5 1
    endloop
  endfacet
  facet normal -0 0 1
    outer loop
      vertex -82.5355 50.9645 1
      vertex -69 45.5 1
      vertex -79 52.5 1
    endloop
  endfacet
  facet normal 0 0 1
    outer loop
      vertex -83.6194 56.4134 1
      vertex -79 56.5 1
      vertex -82.5355 58.0355 1
    endloop
  endfacet
  facet normal 0 0 1
    outer loop
      vertex -49 31.5 1
      vertex -82.5355 50.9645 1
      vertex -22.5355 8.96447 1
    endloop
  endfacet
  facet normal 0 0 1
    outer loop
      vertex -84 54.5 1
      vertex -79 56.5 1
      vertex -83.6194 56.4134 1
    endloop
  endfacet
  facet normal 0 0 1
    outer loop
      vertex -79 56.5 1
      vertex -84 54.5 1
      vertex -79 52.5 1
    endloop
  endfacet
  facet normal 0 0 1
    outer loop
      vertex -79 52.5 1
      vertex -83.6194 52.5866 1
      vertex -82.5355 50.9645 1
    endloop
  endfacet
  facet normal 0 0 1
    outer loop
      vertex -79 52.5 1
      vertex -84 54.5 1
      vertex -83.6194 52.5866 1
    endloop
  endfacet
  facet normal -0.195091 0.980785 0
    outer loop
      vertex -79 59.5 0
      vertex -80.9134 59.1194 1
      vertex -79 59.5 1
    endloop
  endfacet
  facet normal -0.195091 0.980785 0
    outer loop
      vertex -80.9134 59.1194 1
      vertex -79 59.5 0
      vertex -80.9134 59.1194 0
    endloop
  endfacet
endsolid OpenSCAD_Model
