solid OpenSCAD_Model
  facet normal 0.96424 0.258369 0.0590473
    outer loop
      vertex 21.1431 7.69545 -79.999
      vertex 16.6795 6.07086 0
      vertex 17.4803 3.08225 0
    endloop
  endfacet
  facet normal 0.965925 0.258821 0
    outer loop
      vertex 22.1582 3.90708 -79.999
      vertex 21.1431 7.69545 -80
      vertex 21.1431 7.69545 -79.999
    endloop
  endfacet
  facet normal 0.965925 0.258821 0
    outer loop
      vertex 21.1431 7.69545 -80
      vertex 22.1582 3.90708 -79.999
      vertex 22.1582 3.90708 -80
    endloop
  endfacet
  facet normal 0.906309 -0.422615 0
    outer loop
      vertex 19.4856 -11.25 -79.999
      vertex 21.1431 -7.69545 -80
      vertex 21.1431 -7.69545 -79.999
    endloop
  endfacet
  facet normal 0.906309 -0.422615 0
    outer loop
      vertex 21.1431 -7.69545 -80
      vertex 19.4856 -11.25 -79.999
      vertex 19.4856 -11.25 -80
    endloop
  endfacet
  facet normal -0.965925 -0.258821 0
    outer loop
      vertex -21.1431 -7.69545 -80
      vertex -22.1582 -3.90708 -79.999
      vertex -22.1582 -3.90708 -80
    endloop
  endfacet
  facet normal -0.965925 -0.258821 0
    outer loop
      vertex -22.1582 -3.90708 -79.999
      vertex -21.1431 -7.69545 -80
      vertex -21.1431 -7.69545 -79.999
    endloop
  endfacet
  facet normal -0.96424 -0.258369 0.0590473
    outer loop
      vertex -17.4803 -3.08225 0
      vertex -21.1431 -7.69545 -79.999
      vertex -16.6795 -6.07086 0
    endloop
  endfacet
  facet normal -0.996195 -0.0871494 0
    outer loop
      vertex -22.1582 -3.90708 -80
      vertex -22.5 0 -79.999
      vertex -22.5 0 -80
    endloop
  endfacet
  facet normal -0.996195 -0.0871494 0
    outer loop
      vertex -22.5 0 -79.999
      vertex -22.1582 -3.90708 -80
      vertex -22.1582 -3.90708 -79.999
    endloop
  endfacet
  facet normal -0.0869973 -0.994457 0.0590473
    outer loop
      vertex -3.08225 -17.4803 0
      vertex -3.90708 -22.1582 -79.999
      vertex 0 -22.5 -79.999
    endloop
  endfacet
  facet normal -0.572583 -0.817718 0.0590463
    outer loop
      vertex -8.875 -15.372 0
      vertex -14.4627 -17.236 -79.999
      vertex -11.25 -19.4856 -79.999
    endloop
  endfacet
  facet normal -0.904728 -0.421878 0.0590463
    outer loop
      vertex -15.372 -8.875 0
      vertex -21.1431 -7.69545 -79.999
      vertex -19.4856 -11.25 -79.999
    endloop
  endfacet
  facet normal 0.904738 0.421857 0.0590462
    outer loop
      vertex 19.4856 11.25 -79.999
      vertex 15.372 8.875 0
      vertex 16.6795 6.07086 0
    endloop
  endfacet
  facet normal -0.817718 0.572583 0.0590463
    outer loop
      vertex -17.236 14.4627 -79.999
      vertex -19.4856 11.25 -79.999
      vertex -15.372 8.875 0
    endloop
  endfacet
  facet normal 0.258369 -0.96424 0.0590473
    outer loop
      vertex 6.07086 -16.6795 0
      vertex 3.08225 -17.4803 0
      vertex 7.69545 -21.1431 -79.999
    endloop
  endfacet
  facet normal -0.422615 -0.906309 0
    outer loop
      vertex -11.25 -19.4856 -80
      vertex -7.69545 -21.1431 -79.999
      vertex -11.25 -19.4856 -79.999
    endloop
  endfacet
  facet normal -0.422615 -0.906309 -0
    outer loop
      vertex -7.69545 -21.1431 -79.999
      vertex -11.25 -19.4856 -80
      vertex -7.69545 -21.1431 -80
    endloop
  endfacet
  facet normal 0.0871494 -0.996195 0
    outer loop
      vertex 0 -22.5 -80
      vertex 3.90708 -22.1582 -79.999
      vertex 0 -22.5 -79.999
    endloop
  endfacet
  facet normal 0.0871494 -0.996195 0
    outer loop
      vertex 3.90708 -22.1582 -79.999
      vertex 0 -22.5 -80
      vertex 3.90708 -22.1582 -80
    endloop
  endfacet
  facet normal -0.819147 -0.573584 0
    outer loop
      vertex -17.236 -14.4627 -80
      vertex -19.4856 -11.25 -79.999
      vertex -19.4856 -11.25 -80
    endloop
  endfacet
  facet normal -0.819147 -0.573584 0
    outer loop
      vertex -19.4856 -11.25 -79.999
      vertex -17.236 -14.4627 -80
      vertex -17.236 -14.4627 -79.999
    endloop
  endfacet
  facet normal -0.573584 -0.819147 0
    outer loop
      vertex -14.4627 -17.236 -80
      vertex -11.25 -19.4856 -79.999
      vertex -14.4627 -17.236 -79.999
    endloop
  endfacet
  facet normal -0.573584 -0.819147 -0
    outer loop
      vertex -11.25 -19.4856 -79.999
      vertex -14.4627 -17.236 -80
      vertex -11.25 -19.4856 -80
    endloop
  endfacet
  facet normal -0.817719 -0.572581 0.0590462
    outer loop
      vertex -15.372 -8.875 0
      vertex -17.236 -14.4627 -79.999
      vertex -13.5973 -11.4095 0
    endloop
  endfacet
  facet normal -0.817718 -0.572583 0.0590463
    outer loop
      vertex -15.372 -8.875 0
      vertex -19.4856 -11.25 -79.999
      vertex -17.236 -14.4627 -79.999
    endloop
  endfacet
  facet normal -0.96424 -0.25837 0.0590473
    outer loop
      vertex -17.4803 -3.08225 0
      vertex -22.1582 -3.90708 -79.999
      vertex -21.1431 -7.69545 -79.999
    endloop
  endfacet
  facet normal 0.819147 0.573584 0
    outer loop
      vertex 19.4856 11.25 -79.999
      vertex 17.236 14.4627 -80
      vertex 17.236 14.4627 -79.999
    endloop
  endfacet
  facet normal 0.819147 0.573584 0
    outer loop
      vertex 17.236 14.4627 -80
      vertex 19.4856 11.25 -79.999
      vertex 19.4856 11.25 -80
    endloop
  endfacet
  facet normal 0.904728 0.421878 0.0590473
    outer loop
      vertex 19.4856 11.25 -79.999
      vertex 16.6795 6.07086 0
      vertex 21.1431 7.69545 -79.999
    endloop
  endfacet
  facet normal -0.904728 0.421878 0.0590463
    outer loop
      vertex -19.4856 11.25 -79.999
      vertex -21.1431 7.69545 -79.999
      vertex -15.372 8.875 0
    endloop
  endfacet
  facet normal -0.96424 0.258369 0.0590473
    outer loop
      vertex -16.6795 6.07086 0
      vertex -21.1431 7.69545 -79.999
      vertex -17.4803 3.08225 0
    endloop
  endfacet
  facet normal 0.994457 0.0869973 0.0590473
    outer loop
      vertex 22.1582 3.90708 -79.999
      vertex 17.4803 3.08225 0
      vertex 22.5 0 -79.999
    endloop
  endfacet
  facet normal 0.996195 0.0871494 0
    outer loop
      vertex 22.5 0 -79.999
      vertex 22.1582 3.90708 -80
      vertex 22.1582 3.90708 -79.999
    endloop
  endfacet
  facet normal 0.996195 0.0871494 0
    outer loop
      vertex 22.1582 3.90708 -80
      vertex 22.5 0 -79.999
      vertex 22.5 0 -80
    endloop
  endfacet
  facet normal -0.0871494 -0.996195 0
    outer loop
      vertex -3.90708 -22.1582 -80
      vertex 0 -22.5 -79.999
      vertex -3.90708 -22.1582 -79.999
    endloop
  endfacet
  facet normal -0.0871494 -0.996195 -0
    outer loop
      vertex 0 -22.5 -79.999
      vertex -3.90708 -22.1582 -80
      vertex 0 -22.5 -80
    endloop
  endfacet
  facet normal -0.25837 -0.96424 0.0590473
    outer loop
      vertex -3.08225 -17.4803 0
      vertex -7.69545 -21.1431 -79.999
      vertex -3.90708 -22.1582 -79.999
    endloop
  endfacet
  facet normal -0.707107 -0.707107 0
    outer loop
      vertex -14.4627 -17.236 -80
      vertex -17.236 -14.4627 -79.999
      vertex -17.236 -14.4627 -80
    endloop
  endfacet
  facet normal -0.707107 -0.707107 0
    outer loop
      vertex -17.236 -14.4627 -79.999
      vertex -14.4627 -17.236 -80
      vertex -14.4627 -17.236 -79.999
    endloop
  endfacet
  facet normal -0.906309 -0.422615 0
    outer loop
      vertex -19.4856 -11.25 -80
      vertex -21.1431 -7.69545 -79.999
      vertex -21.1431 -7.69545 -80
    endloop
  endfacet
  facet normal -0.906309 -0.422615 0
    outer loop
      vertex -21.1431 -7.69545 -79.999
      vertex -19.4856 -11.25 -80
      vertex -19.4856 -11.25 -79.999
    endloop
  endfacet
  facet normal 0.707107 0.707107 0
    outer loop
      vertex 17.236 14.4627 -79.999
      vertex 14.4627 17.236 -80
      vertex 14.4627 17.236 -79.999
    endloop
  endfacet
  facet normal 0.707107 0.707107 0
    outer loop
      vertex 14.4627 17.236 -80
      vertex 17.236 14.4627 -79.999
      vertex 17.236 14.4627 -80
    endloop
  endfacet
  facet normal 0.906309 0.422615 0
    outer loop
      vertex 21.1431 7.69545 -79.999
      vertex 19.4856 11.25 -80
      vertex 19.4856 11.25 -79.999
    endloop
  endfacet
  facet normal 0.906309 0.422615 0
    outer loop
      vertex 19.4856 11.25 -80
      vertex 21.1431 7.69545 -79.999
      vertex 21.1431 7.69545 -80
    endloop
  endfacet
  facet normal 0.0869973 0.994457 0.0590473
    outer loop
      vertex 3.90708 22.1582 -79.999
      vertex 0 22.5 -79.999
      vertex 3.08225 17.4803 0
    endloop
  endfacet
  facet normal 0.25837 0.96424 0.0590473
    outer loop
      vertex 3.90708 22.1582 -79.999
      vertex 3.08225 17.4803 0
      vertex 7.69545 21.1431 -79.999
    endloop
  endfacet
  facet normal 0.0870159 0.994456 0.0590465
    outer loop
      vertex 0 22.5 -79.999
      vertex 0 17.75 0
      vertex 3.08225 17.4803 0
    endloop
  endfacet
  facet normal -0.25837 0.96424 0.0590473
    outer loop
      vertex -3.90708 22.1582 -79.999
      vertex -7.69545 21.1431 -79.999
      vertex -3.08225 17.4803 0
    endloop
  endfacet
  facet normal -0.422615 0.906309 0
    outer loop
      vertex -7.69545 21.1431 -80
      vertex -11.25 19.4856 -79.999
      vertex -7.69545 21.1431 -79.999
    endloop
  endfacet
  facet normal -0.422615 0.906309 0
    outer loop
      vertex -11.25 19.4856 -79.999
      vertex -7.69545 21.1431 -80
      vertex -11.25 19.4856 -80
    endloop
  endfacet
  facet normal -0.994457 -0.0869973 0.0590473
    outer loop
      vertex -17.4803 -3.08225 0
      vertex -22.5 0 -79.999
      vertex -22.1582 -3.90708 -79.999
    endloop
  endfacet
  facet normal -0.817719 0.572581 0.0590462
    outer loop
      vertex -13.5973 11.4095 0
      vertex -17.236 14.4627 -79.999
      vertex -15.372 8.875 0
    endloop
  endfacet
  facet normal -0.96424 0.25837 0.0590473
    outer loop
      vertex -21.1431 7.69545 -79.999
      vertex -22.1582 3.90708 -79.999
      vertex -17.4803 3.08225 0
    endloop
  endfacet
  facet normal -0.904738 0.421856 0.0590474
    outer loop
      vertex -15.372 8.875 0
      vertex -21.1431 7.69545 -79.999
      vertex -16.6795 6.07086 0
    endloop
  endfacet
  facet normal -0.994457 0.0869973 0.0590473
    outer loop
      vertex -22.1582 3.90708 -79.999
      vertex -22.5 0 -79.999
      vertex -17.4803 3.08225 0
    endloop
  endfacet
  facet normal 0 0 1
    outer loop
      vertex 15.5 0 0
      vertex 17.75 0 0
      vertex 17.4803 3.08225 0
    endloop
  endfacet
  facet normal 0 0 1
    outer loop
      vertex 15.2645 2.69155 0
      vertex 17.4803 3.08225 0
      vertex 16.6795 6.07086 0
    endloop
  endfacet
  facet normal 0 0 1
    outer loop
      vertex 17.75 0 0
      vertex 15.5 0 0
      vertex 17.4803 -3.08225 0
    endloop
  endfacet
  facet normal -0 0 1
    outer loop
      vertex 15.2645 -2.69155 0
      vertex 17.4803 -3.08225 0
      vertex 15.5 0 0
    endloop
  endfacet
  facet normal 0 0 1
    outer loop
      vertex 14.5652 5.30131 0
      vertex 16.6795 6.07086 0
      vertex 15.372 8.875 0
    endloop
  endfacet
  facet normal 0 0 1
    outer loop
      vertex 17.4803 3.08225 0
      vertex 15.2645 2.69155 0
      vertex 15.5 0 0
    endloop
  endfacet
  facet normal 0 0 1
    outer loop
      vertex 16.6795 6.07086 0
      vertex 14.5652 5.30131 0
      vertex 15.2645 2.69155 0
    endloop
  endfacet
  facet normal 0 0 1
    outer loop
      vertex 13.4234 7.75 0
      vertex 15.372 8.875 0
      vertex 13.5973 11.4095 0
    endloop
  endfacet
  facet normal 0 0 1
    outer loop
      vertex 15.372 8.875 0
      vertex 13.4234 7.75 0
      vertex 14.5652 5.30131 0
    endloop
  endfacet
  facet normal 0 0 1
    outer loop
      vertex 13.5973 11.4095 0
      vertex 11.8737 9.96321 0
      vertex 13.4234 7.75 0
    endloop
  endfacet
  facet normal 0 0 1
    outer loop
      vertex 11.4095 13.5973 0
      vertex 11.8737 9.96321 0
      vertex 13.5973 11.4095 0
    endloop
  endfacet
  facet normal 0 0 1
    outer loop
      vertex 11.4095 13.5973 0
      vertex 9.96321 11.8737 0
      vertex 11.8737 9.96321 0
    endloop
  endfacet
  facet normal 0 0 1
    outer loop
      vertex 8.875 15.372 0
      vertex 9.96321 11.8737 0
      vertex 11.4095 13.5973 0
    endloop
  endfacet
  facet normal 0 0 1
    outer loop
      vertex 8.875 15.372 0
      vertex 7.75 13.4234 0
      vertex 9.96321 11.8737 0
    endloop
  endfacet
  facet normal 0 0 1
    outer loop
      vertex 6.07086 16.6795 0
      vertex 7.75 13.4234 0
      vertex 8.875 15.372 0
    endloop
  endfacet
  facet normal 0 0 1
    outer loop
      vertex 6.07086 16.6795 0
      vertex 5.30131 14.5652 0
      vertex 7.75 13.4234 0
    endloop
  endfacet
  facet normal 0 0 1
    outer loop
      vertex 3.08225 17.4803 0
      vertex 5.30131 14.5652 0
      vertex 6.07086 16.6795 0
    endloop
  endfacet
  facet normal 0 0 1
    outer loop
      vertex 3.08225 17.4803 0
      vertex 2.69155 15.2645 0
      vertex 5.30131 14.5652 0
    endloop
  endfacet
  facet normal 0 0 1
    outer loop
      vertex 0 17.75 0
      vertex 2.69155 15.2645 0
      vertex 3.08225 17.4803 0
    endloop
  endfacet
  facet normal 0 0 1
    outer loop
      vertex 0 17.75 0
      vertex 0 15.5 0
      vertex 2.69155 15.2645 0
    endloop
  endfacet
  facet normal 0 0 1
    outer loop
      vertex 0 17.75 0
      vertex -2.69155 15.2645 0
      vertex 0 15.5 0
    endloop
  endfacet
  facet normal -0 0 1
    outer loop
      vertex -3.08225 17.4803 0
      vertex -2.69155 15.2645 0
      vertex 0 17.75 0
    endloop
  endfacet
  facet normal 0 0 1
    outer loop
      vertex -3.08225 17.4803 0
      vertex -5.30131 14.5652 0
      vertex -2.69155 15.2645 0
    endloop
  endfacet
  facet normal -0 0 1
    outer loop
      vertex -6.07086 16.6795 0
      vertex -5.30131 14.5652 0
      vertex -3.08225 17.4803 0
    endloop
  endfacet
  facet normal 0 0 1
    outer loop
      vertex -6.07086 16.6795 0
      vertex -7.75 13.4234 0
      vertex -5.30131 14.5652 0
    endloop
  endfacet
  facet normal -0 0 1
    outer loop
      vertex -8.875 15.372 0
      vertex -7.75 13.4234 0
      vertex -6.07086 16.6795 0
    endloop
  endfacet
  facet normal 0 0 1
    outer loop
      vertex -8.875 15.372 0
      vertex -9.96321 11.8737 0
      vertex -7.75 13.4234 0
    endloop
  endfacet
  facet normal -0 0 1
    outer loop
      vertex -11.4095 13.5973 0
      vertex -9.96321 11.8737 0
      vertex -8.875 15.372 0
    endloop
  endfacet
  facet normal 0 0 1
    outer loop
      vertex -11.4095 13.5973 0
      vertex -11.8737 9.96321 0
      vertex -9.96321 11.8737 0
    endloop
  endfacet
  facet normal -0 0 1
    outer loop
      vertex -13.5973 11.4095 0
      vertex -11.8737 9.96321 0
      vertex -11.4095 13.5973 0
    endloop
  endfacet
  facet normal 0 0 1
    outer loop
      vertex -11.8737 9.96321 0
      vertex -13.5973 11.4095 0
      vertex -13.4234 7.75 0
    endloop
  endfacet
  facet normal -0 0 1
    outer loop
      vertex -15.372 8.875 0
      vertex -13.4234 7.75 0
      vertex -13.5973 11.4095 0
    endloop
  endfacet
  facet normal 0 0 1
    outer loop
      vertex -13.4234 7.75 0
      vertex -15.372 8.875 0
      vertex -14.5652 5.30131 0
    endloop
  endfacet
  facet normal -0 0 1
    outer loop
      vertex -16.6795 6.07086 0
      vertex -14.5652 5.30131 0
      vertex -15.372 8.875 0
    endloop
  endfacet
  facet normal 0 0 1
    outer loop
      vertex -14.5652 5.30131 0
      vertex -16.6795 6.07086 0
      vertex -15.2645 2.69155 0
    endloop
  endfacet
  facet normal -0 0 1
    outer loop
      vertex -17.4803 3.08225 0
      vertex -15.2645 2.69155 0
      vertex -16.6795 6.07086 0
    endloop
  endfacet
  facet normal 0 0 1
    outer loop
      vertex 17.4803 -3.08225 0
      vertex 15.2645 -2.69155 0
      vertex 16.6795 -6.07086 0
    endloop
  endfacet
  facet normal -0 0 1
    outer loop
      vertex 14.5652 -5.30131 0
      vertex 16.6795 -6.07086 0
      vertex 15.2645 -2.69155 0
    endloop
  endfacet
  facet normal 0 0 1
    outer loop
      vertex 16.6795 -6.07086 0
      vertex 14.5652 -5.30131 0
      vertex 15.372 -8.875 0
    endloop
  endfacet
  facet normal -0 0 1
    outer loop
      vertex 13.4234 -7.75 0
      vertex 15.372 -8.875 0
      vertex 14.5652 -5.30131 0
    endloop
  endfacet
  facet normal 0 0 1
    outer loop
      vertex 15.372 -8.875 0
      vertex 13.4234 -7.75 0
      vertex 13.5973 -11.4095 0
    endloop
  endfacet
  facet normal -0 0 1
    outer loop
      vertex 11.8737 -9.96321 0
      vertex 13.5973 -11.4095 0
      vertex 13.4234 -7.75 0
    endloop
  endfacet
  facet normal 0 0 1
    outer loop
      vertex 11.8737 -9.96321 0
      vertex 11.4095 -13.5973 0
      vertex 13.5973 -11.4095 0
    endloop
  endfacet
  facet normal -0 0 1
    outer loop
      vertex 9.96321 -11.8737 0
      vertex 11.4095 -13.5973 0
      vertex 11.8737 -9.96321 0
    endloop
  endfacet
  facet normal 0 0 1
    outer loop
      vertex 9.96321 -11.8737 0
      vertex 8.875 -15.372 0
      vertex 11.4095 -13.5973 0
    endloop
  endfacet
  facet normal -0 0 1
    outer loop
      vertex 7.75 -13.4234 0
      vertex 8.875 -15.372 0
      vertex 9.96321 -11.8737 0
    endloop
  endfacet
  facet normal 0 0 1
    outer loop
      vertex 7.75 -13.4234 0
      vertex 6.07086 -16.6795 0
      vertex 8.875 -15.372 0
    endloop
  endfacet
  facet normal -0 0 1
    outer loop
      vertex 5.30131 -14.5652 0
      vertex 6.07086 -16.6795 0
      vertex 7.75 -13.4234 0
    endloop
  endfacet
  facet normal 0 0 1
    outer loop
      vertex 5.30131 -14.5652 0
      vertex 3.08225 -17.4803 0
      vertex 6.07086 -16.6795 0
    endloop
  endfacet
  facet normal -0 0 1
    outer loop
      vertex 2.69155 -15.2645 0
      vertex 3.08225 -17.4803 0
      vertex 5.30131 -14.5652 0
    endloop
  endfacet
  facet normal -0 0 1
    outer loop
      vertex 0 -15.5 0
      vertex 3.08225 -17.4803 0
      vertex 2.69155 -15.2645 0
    endloop
  endfacet
  facet normal 0 0 1
    outer loop
      vertex 0 -15.5 0
      vertex 0 -17.75 0
      vertex 3.08225 -17.4803 0
    endloop
  endfacet
  facet normal 0 0 1
    outer loop
      vertex -2.69155 -15.2645 0
      vertex 0 -17.75 0
      vertex 0 -15.5 0
    endloop
  endfacet
  facet normal 0 0 1
    outer loop
      vertex -2.69155 -15.2645 0
      vertex -3.08225 -17.4803 0
      vertex 0 -17.75 0
    endloop
  endfacet
  facet normal 0 0 1
    outer loop
      vertex -5.30131 -14.5652 0
      vertex -3.08225 -17.4803 0
      vertex -2.69155 -15.2645 0
    endloop
  endfacet
  facet normal 0 0 1
    outer loop
      vertex -5.30131 -14.5652 0
      vertex -6.07086 -16.6795 0
      vertex -3.08225 -17.4803 0
    endloop
  endfacet
  facet normal 0 0 1
    outer loop
      vertex -7.75 -13.4234 0
      vertex -6.07086 -16.6795 0
      vertex -5.30131 -14.5652 0
    endloop
  endfacet
  facet normal 0 0 1
    outer loop
      vertex -7.75 -13.4234 0
      vertex -8.875 -15.372 0
      vertex -6.07086 -16.6795 0
    endloop
  endfacet
  facet normal 0 0 1
    outer loop
      vertex -9.96321 -11.8737 0
      vertex -8.875 -15.372 0
      vertex -7.75 -13.4234 0
    endloop
  endfacet
  facet normal 0 0 1
    outer loop
      vertex -9.96321 -11.8737 0
      vertex -11.4095 -13.5973 0
      vertex -8.875 -15.372 0
    endloop
  endfacet
  facet normal 0 0 1
    outer loop
      vertex -11.8737 -9.96321 0
      vertex -11.4095 -13.5973 0
      vertex -9.96321 -11.8737 0
    endloop
  endfacet
  facet normal 0 0 1
    outer loop
      vertex -13.5973 -11.4095 0
      vertex -11.8737 -9.96321 0
      vertex -13.4234 -7.75 0
    endloop
  endfacet
  facet normal 0 0 1
    outer loop
      vertex -11.8737 -9.96321 0
      vertex -13.5973 -11.4095 0
      vertex -11.4095 -13.5973 0
    endloop
  endfacet
  facet normal 0 0 1
    outer loop
      vertex -15.372 -8.875 0
      vertex -13.4234 -7.75 0
      vertex -14.5652 -5.30131 0
    endloop
  endfacet
  facet normal 0 0 1
    outer loop
      vertex -16.6795 -6.07086 0
      vertex -14.5652 -5.30131 0
      vertex -15.2645 -2.69155 0
    endloop
  endfacet
  facet normal 0 0 1
    outer loop
      vertex -13.4234 -7.75 0
      vertex -15.372 -8.875 0
      vertex -13.5973 -11.4095 0
    endloop
  endfacet
  facet normal 0 0 1
    outer loop
      vertex -17.4803 -3.08225 0
      vertex -15.2645 -2.69155 0
      vertex -15.5 0 0
    endloop
  endfacet
  facet normal 0 0 1
    outer loop
      vertex -15.2645 2.69155 0
      vertex -17.4803 3.08225 0
      vertex -15.5 0 0
    endloop
  endfacet
  facet normal 0 0 1
    outer loop
      vertex -14.5652 -5.30131 0
      vertex -16.6795 -6.07086 0
      vertex -15.372 -8.875 0
    endloop
  endfacet
  facet normal 0 0 1
    outer loop
      vertex -17.75 0 0
      vertex -15.5 0 0
      vertex -17.4803 3.08225 0
    endloop
  endfacet
  facet normal 0 0 1
    outer loop
      vertex -15.2645 -2.69155 0
      vertex -17.4803 -3.08225 0
      vertex -16.6795 -6.07086 0
    endloop
  endfacet
  facet normal 0 0 1
    outer loop
      vertex -15.5 0 0
      vertex -17.75 0 0
      vertex -17.4803 -3.08225 0
    endloop
  endfacet
  facet normal -0.996195 0.0871494 0
    outer loop
      vertex -22.5 0 -80
      vertex -22.1582 3.90708 -79.999
      vertex -22.1582 3.90708 -80
    endloop
  endfacet
  facet normal -0.996195 0.0871494 0
    outer loop
      vertex -22.1582 3.90708 -79.999
      vertex -22.5 0 -80
      vertex -22.5 0 -79.999
    endloop
  endfacet
  facet normal 0 0 -1
    outer loop
      vertex 22.1582 -3.90708 -80
      vertex 22.1582 3.90708 -80
      vertex 22.5 0 -80
    endloop
  endfacet
  facet normal 0 0 -1
    outer loop
      vertex 21.1431 -7.69545 -80
      vertex 22.1582 3.90708 -80
      vertex 22.1582 -3.90708 -80
    endloop
  endfacet
  facet normal 0 0 -1
    outer loop
      vertex 21.1431 -7.69545 -80
      vertex 21.1431 7.69545 -80
      vertex 22.1582 3.90708 -80
    endloop
  endfacet
  facet normal 0 0 -1
    outer loop
      vertex 19.4856 -11.25 -80
      vertex 21.1431 7.69545 -80
      vertex 21.1431 -7.69545 -80
    endloop
  endfacet
  facet normal 0 0 -1
    outer loop
      vertex 19.4856 -11.25 -80
      vertex 19.4856 11.25 -80
      vertex 21.1431 7.69545 -80
    endloop
  endfacet
  facet normal 0 0 -1
    outer loop
      vertex 17.236 -14.4627 -80
      vertex 19.4856 11.25 -80
      vertex 19.4856 -11.25 -80
    endloop
  endfacet
  facet normal 0 0 -1
    outer loop
      vertex 17.236 -14.4627 -80
      vertex 17.236 14.4627 -80
      vertex 19.4856 11.25 -80
    endloop
  endfacet
  facet normal 0 0 -1
    outer loop
      vertex 14.4627 -17.236 -80
      vertex 17.236 14.4627 -80
      vertex 17.236 -14.4627 -80
    endloop
  endfacet
  facet normal 0 0 -1
    outer loop
      vertex 14.4627 -17.236 -80
      vertex 14.4627 17.236 -80
      vertex 17.236 14.4627 -80
    endloop
  endfacet
  facet normal 0 0 -1
    outer loop
      vertex 14.4627 -17.236 -80
      vertex 11.25 19.4856 -80
      vertex 14.4627 17.236 -80
    endloop
  endfacet
  facet normal 0 0 -1
    outer loop
      vertex 11.25 -19.4856 -80
      vertex 11.25 19.4856 -80
      vertex 14.4627 -17.236 -80
    endloop
  endfacet
  facet normal 0 0 -1
    outer loop
      vertex 7.69545 -21.1431 -80
      vertex 11.25 19.4856 -80
      vertex 11.25 -19.4856 -80
    endloop
  endfacet
  facet normal 0 0 -1
    outer loop
      vertex 7.69545 -21.1431 -80
      vertex 7.69545 21.1431 -80
      vertex 11.25 19.4856 -80
    endloop
  endfacet
  facet normal 0 0 -1
    outer loop
      vertex 3.90708 -22.1582 -80
      vertex 7.69545 21.1431 -80
      vertex 7.69545 -21.1431 -80
    endloop
  endfacet
  facet normal 0 0 -1
    outer loop
      vertex 3.90708 -22.1582 -80
      vertex 3.90708 22.1582 -80
      vertex 7.69545 21.1431 -80
    endloop
  endfacet
  facet normal 0 0 -1
    outer loop
      vertex 0 -22.5 -80
      vertex 3.90708 22.1582 -80
      vertex 3.90708 -22.1582 -80
    endloop
  endfacet
  facet normal 0 0 -1
    outer loop
      vertex 0 -22.5 -80
      vertex 0 22.5 -80
      vertex 3.90708 22.1582 -80
    endloop
  endfacet
  facet normal 0 0 -1
    outer loop
      vertex -3.90708 -22.1582 -80
      vertex 0 22.5 -80
      vertex 0 -22.5 -80
    endloop
  endfacet
  facet normal 0 0 -1
    outer loop
      vertex -3.90708 -22.1582 -80
      vertex -3.90708 22.1582 -80
      vertex 0 22.5 -80
    endloop
  endfacet
  facet normal 0 0 -1
    outer loop
      vertex -7.69545 -21.1431 -80
      vertex -3.90708 22.1582 -80
      vertex -3.90708 -22.1582 -80
    endloop
  endfacet
  facet normal 0 0 -1
    outer loop
      vertex -7.69545 -21.1431 -80
      vertex -7.69545 21.1431 -80
      vertex -3.90708 22.1582 -80
    endloop
  endfacet
  facet normal 0 0 -1
    outer loop
      vertex -7.69545 -21.1431 -80
      vertex -11.25 19.4856 -80
      vertex -7.69545 21.1431 -80
    endloop
  endfacet
  facet normal 0 0 -1
    outer loop
      vertex -11.25 -19.4856 -80
      vertex -11.25 19.4856 -80
      vertex -7.69545 -21.1431 -80
    endloop
  endfacet
  facet normal 0 0 -1
    outer loop
      vertex -14.4627 -17.236 -80
      vertex -11.25 19.4856 -80
      vertex -11.25 -19.4856 -80
    endloop
  endfacet
  facet normal 0 0 -1
    outer loop
      vertex -14.4627 -17.236 -80
      vertex -14.4627 17.236 -80
      vertex -11.25 19.4856 -80
    endloop
  endfacet
  facet normal 0 0 -1
    outer loop
      vertex -17.236 -14.4627 -80
      vertex -14.4627 17.236 -80
      vertex -14.4627 -17.236 -80
    endloop
  endfacet
  facet normal 0 0 -1
    outer loop
      vertex -17.236 -14.4627 -80
      vertex -17.236 14.4627 -80
      vertex -14.4627 17.236 -80
    endloop
  endfacet
  facet normal 0 0 -1
    outer loop
      vertex -19.4856 -11.25 -80
      vertex -17.236 14.4627 -80
      vertex -17.236 -14.4627 -80
    endloop
  endfacet
  facet normal 0 0 -1
    outer loop
      vertex -19.4856 -11.25 -80
      vertex -19.4856 11.25 -80
      vertex -17.236 14.4627 -80
    endloop
  endfacet
  facet normal 0 0 -1
    outer loop
      vertex -21.1431 -7.69545 -80
      vertex -19.4856 11.25 -80
      vertex -19.4856 -11.25 -80
    endloop
  endfacet
  facet normal 0 0 -1
    outer loop
      vertex -21.1431 -7.69545 -80
      vertex -21.1431 7.69545 -80
      vertex -19.4856 11.25 -80
    endloop
  endfacet
  facet normal 0 0 -1
    outer loop
      vertex -22.1582 -3.90708 -80
      vertex -21.1431 7.69545 -80
      vertex -21.1431 -7.69545 -80
    endloop
  endfacet
  facet normal 0 0 -1
    outer loop
      vertex -22.1582 -3.90708 -80
      vertex -22.1582 3.90708 -80
      vertex -21.1431 7.69545 -80
    endloop
  endfacet
  facet normal 0 -0 -1
    outer loop
      vertex -22.1582 3.90708 -80
      vertex -22.1582 -3.90708 -80
      vertex -22.5 0 -80
    endloop
  endfacet
  facet normal 0.96424 0.25837 0.0590473
    outer loop
      vertex 21.1431 7.69545 -79.999
      vertex 17.4803 3.08225 0
      vertex 22.1582 3.90708 -79.999
    endloop
  endfacet
  facet normal 0.994456 0.0870159 0.0590465
    outer loop
      vertex 22.5 0 -79.999
      vertex 17.4803 3.08225 0
      vertex 17.75 0 0
    endloop
  endfacet
  facet normal 0.572583 -0.817718 0.0590463
    outer loop
      vertex 14.4627 -17.236 -79.999
      vertex 8.875 -15.372 0
      vertex 11.25 -19.4856 -79.999
    endloop
  endfacet
  facet normal 0.25837 -0.96424 0.0590473
    outer loop
      vertex 7.69545 -21.1431 -79.999
      vertex 3.08225 -17.4803 0
      vertex 3.90708 -22.1582 -79.999
    endloop
  endfacet
  facet normal 0.573584 -0.819147 0
    outer loop
      vertex 11.25 -19.4856 -80
      vertex 14.4627 -17.236 -79.999
      vertex 11.25 -19.4856 -79.999
    endloop
  endfacet
  facet normal 0.573584 -0.819147 0
    outer loop
      vertex 14.4627 -17.236 -79.999
      vertex 11.25 -19.4856 -80
      vertex 14.4627 -17.236 -80
    endloop
  endfacet
  facet normal -0.904738 -0.421856 0.0590474
    outer loop
      vertex -16.6795 -6.07086 0
      vertex -21.1431 -7.69545 -79.999
      vertex -15.372 -8.875 0
    endloop
  endfacet
  facet normal -0.705873 -0.705873 0.0590461
    outer loop
      vertex -17.236 -14.4627 -79.999
      vertex -11.4095 -13.5973 0
      vertex -13.5973 -11.4095 0
    endloop
  endfacet
  facet normal -0.705873 -0.705873 0.0590461
    outer loop
      vertex -11.4095 -13.5973 0
      vertex -17.236 -14.4627 -79.999
      vertex -14.4627 -17.236 -79.999
    endloop
  endfacet
  facet normal 0.0869973 -0.994457 0.0590473
    outer loop
      vertex 3.08225 -17.4803 0
      vertex 0 -22.5 -79.999
      vertex 3.90708 -22.1582 -79.999
    endloop
  endfacet
  facet normal -0.421856 -0.904738 0.0590474
    outer loop
      vertex -6.07086 -16.6795 0
      vertex -8.875 -15.372 0
      vertex -7.69545 -21.1431 -79.999
    endloop
  endfacet
  facet normal -0.421878 -0.904728 0.0590463
    outer loop
      vertex -8.875 -15.372 0
      vertex -11.25 -19.4856 -79.999
      vertex -7.69545 -21.1431 -79.999
    endloop
  endfacet
  facet normal -0.0870159 -0.994456 0.0590465
    outer loop
      vertex 0 -17.75 0
      vertex -3.08225 -17.4803 0
      vertex 0 -22.5 -79.999
    endloop
  endfacet
  facet normal 0.0870159 -0.994456 0.0590465
    outer loop
      vertex 0 -17.75 0
      vertex 0 -22.5 -79.999
      vertex 3.08225 -17.4803 0
    endloop
  endfacet
  facet normal 0.817719 0.572581 0.0590462
    outer loop
      vertex 17.236 14.4627 -79.999
      vertex 13.5973 11.4095 0
      vertex 15.372 8.875 0
    endloop
  endfacet
  facet normal 0.817718 0.572583 0.0590463
    outer loop
      vertex 17.236 14.4627 -79.999
      vertex 15.372 8.875 0
      vertex 19.4856 11.25 -79.999
    endloop
  endfacet
  facet normal 0.572581 0.817719 0.0590462
    outer loop
      vertex 14.4627 17.236 -79.999
      vertex 8.875 15.372 0
      vertex 11.4095 13.5973 0
    endloop
  endfacet
  facet normal 0.421878 0.904728 0.0590463
    outer loop
      vertex 11.25 19.4856 -79.999
      vertex 7.69545 21.1431 -79.999
      vertex 8.875 15.372 0
    endloop
  endfacet
  facet normal 0.0871494 0.996195 -0
    outer loop
      vertex 3.90708 22.1582 -80
      vertex 0 22.5 -79.999
      vertex 3.90708 22.1582 -79.999
    endloop
  endfacet
  facet normal 0.0871494 0.996195 0
    outer loop
      vertex 0 22.5 -79.999
      vertex 3.90708 22.1582 -80
      vertex 0 22.5 -80
    endloop
  endfacet
  facet normal 0.258821 0.965925 -0
    outer loop
      vertex 7.69545 21.1431 -80
      vertex 3.90708 22.1582 -79.999
      vertex 7.69545 21.1431 -79.999
    endloop
  endfacet
  facet normal 0.258821 0.965925 0
    outer loop
      vertex 3.90708 22.1582 -79.999
      vertex 7.69545 21.1431 -80
      vertex 3.90708 22.1582 -80
    endloop
  endfacet
  facet normal 0.422615 0.906309 -0
    outer loop
      vertex 11.25 19.4856 -80
      vertex 7.69545 21.1431 -79.999
      vertex 11.25 19.4856 -79.999
    endloop
  endfacet
  facet normal 0.422615 0.906309 0
    outer loop
      vertex 7.69545 21.1431 -79.999
      vertex 11.25 19.4856 -80
      vertex 7.69545 21.1431 -80
    endloop
  endfacet
  facet normal -0.0870159 0.994456 0.0590465
    outer loop
      vertex 0 22.5 -79.999
      vertex -3.08225 17.4803 0
      vertex 0 17.75 0
    endloop
  endfacet
  facet normal -0.573584 0.819147 0
    outer loop
      vertex -11.25 19.4856 -80
      vertex -14.4627 17.236 -79.999
      vertex -11.25 19.4856 -79.999
    endloop
  endfacet
  facet normal -0.573584 0.819147 0
    outer loop
      vertex -14.4627 17.236 -79.999
      vertex -11.25 19.4856 -80
      vertex -14.4627 17.236 -80
    endloop
  endfacet
  facet normal -0.258369 0.96424 0.0590473
    outer loop
      vertex -3.08225 17.4803 0
      vertex -7.69545 21.1431 -79.999
      vertex -6.07086 16.6795 0
    endloop
  endfacet
  facet normal -0.965925 0.258821 0
    outer loop
      vertex -22.1582 3.90708 -80
      vertex -21.1431 7.69545 -79.999
      vertex -21.1431 7.69545 -80
    endloop
  endfacet
  facet normal -0.965925 0.258821 0
    outer loop
      vertex -21.1431 7.69545 -79.999
      vertex -22.1582 3.90708 -80
      vertex -22.1582 3.90708 -79.999
    endloop
  endfacet
  facet normal -0.906309 0.422615 0
    outer loop
      vertex -21.1431 7.69545 -80
      vertex -19.4856 11.25 -79.999
      vertex -19.4856 11.25 -80
    endloop
  endfacet
  facet normal -0.906309 0.422615 0
    outer loop
      vertex -19.4856 11.25 -79.999
      vertex -21.1431 7.69545 -80
      vertex -21.1431 7.69545 -79.999
    endloop
  endfacet
  facet normal -0.994456 0.0870159 0.0590465
    outer loop
      vertex -17.4803 3.08225 0
      vertex -22.5 0 -79.999
      vertex -17.75 0 0
    endloop
  endfacet
  facet normal -0.994456 -0.0870159 0.0590465
    outer loop
      vertex -17.75 0 0
      vertex -22.5 0 -79.999
      vertex -17.4803 -3.08225 0
    endloop
  endfacet
  facet normal 0.817718 -0.572583 0.0590463
    outer loop
      vertex 19.4856 -11.25 -79.999
      vertex 15.372 -8.875 0
      vertex 17.236 -14.4627 -79.999
    endloop
  endfacet
  facet normal 0.965925 -0.258821 0
    outer loop
      vertex 21.1431 -7.69545 -79.999
      vertex 22.1582 -3.90708 -80
      vertex 22.1582 -3.90708 -79.999
    endloop
  endfacet
  facet normal 0.965925 -0.258821 0
    outer loop
      vertex 22.1582 -3.90708 -80
      vertex 21.1431 -7.69545 -79.999
      vertex 21.1431 -7.69545 -80
    endloop
  endfacet
  facet normal 0.96424 -0.258369 0.0590473
    outer loop
      vertex 17.4803 -3.08225 0
      vertex 16.6795 -6.07086 0
      vertex 21.1431 -7.69545 -79.999
    endloop
  endfacet
  facet normal 0.572581 -0.817719 0.0590462
    outer loop
      vertex 11.4095 -13.5973 0
      vertex 8.875 -15.372 0
      vertex 14.4627 -17.236 -79.999
    endloop
  endfacet
  facet normal 0.421857 -0.904738 0.0590462
    outer loop
      vertex 8.875 -15.372 0
      vertex 6.07086 -16.6795 0
      vertex 11.25 -19.4856 -79.999
    endloop
  endfacet
  facet normal -0.572581 -0.817719 0.0590462
    outer loop
      vertex -11.4095 -13.5973 0
      vertex -14.4627 -17.236 -79.999
      vertex -8.875 -15.372 0
    endloop
  endfacet
  facet normal -0.258821 -0.965925 0
    outer loop
      vertex -7.69545 -21.1431 -80
      vertex -3.90708 -22.1582 -79.999
      vertex -7.69545 -21.1431 -79.999
    endloop
  endfacet
  facet normal -0.258821 -0.965925 -0
    outer loop
      vertex -3.90708 -22.1582 -79.999
      vertex -7.69545 -21.1431 -80
      vertex -3.90708 -22.1582 -80
    endloop
  endfacet
  facet normal -0.258369 -0.96424 0.0590473
    outer loop
      vertex -6.07086 -16.6795 0
      vertex -7.69545 -21.1431 -79.999
      vertex -3.08225 -17.4803 0
    endloop
  endfacet
  facet normal 0.572583 0.817718 0.0590463
    outer loop
      vertex 11.25 19.4856 -79.999
      vertex 8.875 15.372 0
      vertex 14.4627 17.236 -79.999
    endloop
  endfacet
  facet normal 0.573584 0.819147 -0
    outer loop
      vertex 14.4627 17.236 -80
      vertex 11.25 19.4856 -79.999
      vertex 14.4627 17.236 -79.999
    endloop
  endfacet
  facet normal 0.573584 0.819147 0
    outer loop
      vertex 11.25 19.4856 -79.999
      vertex 14.4627 17.236 -80
      vertex 11.25 19.4856 -80
    endloop
  endfacet
  facet normal 0.421856 0.904738 0.0590474
    outer loop
      vertex 7.69545 21.1431 -79.999
      vertex 6.07086 16.6795 0
      vertex 8.875 15.372 0
    endloop
  endfacet
  facet normal 0.258369 0.96424 0.0590473
    outer loop
      vertex 7.69545 21.1431 -79.999
      vertex 3.08225 17.4803 0
      vertex 6.07086 16.6795 0
    endloop
  endfacet
  facet normal 0.705873 0.705873 0.0590461
    outer loop
      vertex 11.4095 13.5973 0
      vertex 17.236 14.4627 -79.999
      vertex 14.4627 17.236 -79.999
    endloop
  endfacet
  facet normal 0.705873 0.705873 0.0590461
    outer loop
      vertex 17.236 14.4627 -79.999
      vertex 11.4095 13.5973 0
      vertex 13.5973 11.4095 0
    endloop
  endfacet
  facet normal -0.819147 0.573584 0
    outer loop
      vertex -19.4856 11.25 -80
      vertex -17.236 14.4627 -79.999
      vertex -17.236 14.4627 -80
    endloop
  endfacet
  facet normal -0.819147 0.573584 0
    outer loop
      vertex -17.236 14.4627 -79.999
      vertex -19.4856 11.25 -80
      vertex -19.4856 11.25 -79.999
    endloop
  endfacet
  facet normal -0.572583 0.817718 0.0590463
    outer loop
      vertex -11.25 19.4856 -79.999
      vertex -14.4627 17.236 -79.999
      vertex -8.875 15.372 0
    endloop
  endfacet
  facet normal -0.258821 0.965925 0
    outer loop
      vertex -3.90708 22.1582 -80
      vertex -7.69545 21.1431 -79.999
      vertex -3.90708 22.1582 -79.999
    endloop
  endfacet
  facet normal -0.258821 0.965925 0
    outer loop
      vertex -7.69545 21.1431 -79.999
      vertex -3.90708 22.1582 -80
      vertex -7.69545 21.1431 -80
    endloop
  endfacet
  facet normal -0.421878 0.904728 0.0590473
    outer loop
      vertex -7.69545 21.1431 -79.999
      vertex -11.25 19.4856 -79.999
      vertex -6.07086 16.6795 0
    endloop
  endfacet
  facet normal -0.421857 0.904738 0.0590462
    outer loop
      vertex -6.07086 16.6795 0
      vertex -11.25 19.4856 -79.999
      vertex -8.875 15.372 0
    endloop
  endfacet
  facet normal -0.0869973 0.994457 0.0590473
    outer loop
      vertex 0 22.5 -79.999
      vertex -3.90708 22.1582 -79.999
      vertex -3.08225 17.4803 0
    endloop
  endfacet
  facet normal -0.0871494 0.996195 0
    outer loop
      vertex 0 22.5 -80
      vertex -3.90708 22.1582 -79.999
      vertex 0 22.5 -79.999
    endloop
  endfacet
  facet normal -0.0871494 0.996195 0
    outer loop
      vertex -3.90708 22.1582 -79.999
      vertex 0 22.5 -80
      vertex -3.90708 22.1582 -80
    endloop
  endfacet
  facet normal 0.96424 -0.25837 0.0590473
    outer loop
      vertex 22.1582 -3.90708 -79.999
      vertex 17.4803 -3.08225 0
      vertex 21.1431 -7.69545 -79.999
    endloop
  endfacet
  facet normal 0.705873 -0.705873 0.0590461
    outer loop
      vertex 11.4095 -13.5973 0
      vertex 17.236 -14.4627 -79.999
      vertex 13.5973 -11.4095 0
    endloop
  endfacet
  facet normal 0.705873 -0.705873 0.0590461
    outer loop
      vertex 17.236 -14.4627 -79.999
      vertex 11.4095 -13.5973 0
      vertex 14.4627 -17.236 -79.999
    endloop
  endfacet
  facet normal 0.817719 -0.572581 0.0590462
    outer loop
      vertex 15.372 -8.875 0
      vertex 13.5973 -11.4095 0
      vertex 17.236 -14.4627 -79.999
    endloop
  endfacet
  facet normal 0.421878 -0.904728 0.0590473
    outer loop
      vertex 11.25 -19.4856 -79.999
      vertex 6.07086 -16.6795 0
      vertex 7.69545 -21.1431 -79.999
    endloop
  endfacet
  facet normal 0.422615 -0.906309 0
    outer loop
      vertex 7.69545 -21.1431 -80
      vertex 11.25 -19.4856 -79.999
      vertex 7.69545 -21.1431 -79.999
    endloop
  endfacet
  facet normal 0.422615 -0.906309 0
    outer loop
      vertex 11.25 -19.4856 -79.999
      vertex 7.69545 -21.1431 -80
      vertex 11.25 -19.4856 -80
    endloop
  endfacet
  facet normal 0.258821 -0.965925 0
    outer loop
      vertex 3.90708 -22.1582 -80
      vertex 7.69545 -21.1431 -79.999
      vertex 3.90708 -22.1582 -79.999
    endloop
  endfacet
  facet normal 0.258821 -0.965925 0
    outer loop
      vertex 7.69545 -21.1431 -79.999
      vertex 3.90708 -22.1582 -80
      vertex 7.69545 -21.1431 -80
    endloop
  endfacet
  facet normal -0.707107 0.707107 0
    outer loop
      vertex -17.236 14.4627 -80
      vertex -14.4627 17.236 -79.999
      vertex -14.4627 17.236 -80
    endloop
  endfacet
  facet normal -0.707107 0.707107 0
    outer loop
      vertex -14.4627 17.236 -79.999
      vertex -17.236 14.4627 -80
      vertex -17.236 14.4627 -79.999
    endloop
  endfacet
  facet normal 0.994457 -0.0869973 0.0590473
    outer loop
      vertex 22.5 0 -79.999
      vertex 17.4803 -3.08225 0
      vertex 22.1582 -3.90708 -79.999
    endloop
  endfacet
  facet normal 0.994456 -0.0870159 0.0590465
    outer loop
      vertex 17.75 0 0
      vertex 17.4803 -3.08225 0
      vertex 22.5 0 -79.999
    endloop
  endfacet
  facet normal 0.996195 -0.0871494 0
    outer loop
      vertex 22.1582 -3.90708 -79.999
      vertex 22.5 0 -80
      vertex 22.5 0 -79.999
    endloop
  endfacet
  facet normal 0.996195 -0.0871494 0
    outer loop
      vertex 22.5 0 -80
      vertex 22.1582 -3.90708 -79.999
      vertex 22.1582 -3.90708 -80
    endloop
  endfacet
  facet normal 0.904728 -0.421878 0.0590473
    outer loop
      vertex 21.1431 -7.69545 -79.999
      vertex 16.6795 -6.07086 0
      vertex 19.4856 -11.25 -79.999
    endloop
  endfacet
  facet normal 0.904738 -0.421857 0.0590462
    outer loop
      vertex 16.6795 -6.07086 0
      vertex 15.372 -8.875 0
      vertex 19.4856 -11.25 -79.999
    endloop
  endfacet
  facet normal 0.819147 -0.573584 0
    outer loop
      vertex 17.236 -14.4627 -79.999
      vertex 19.4856 -11.25 -80
      vertex 19.4856 -11.25 -79.999
    endloop
  endfacet
  facet normal 0.819147 -0.573584 0
    outer loop
      vertex 19.4856 -11.25 -80
      vertex 17.236 -14.4627 -79.999
      vertex 17.236 -14.4627 -80
    endloop
  endfacet
  facet normal 0.707107 -0.707107 0
    outer loop
      vertex 14.4627 -17.236 -79.999
      vertex 17.236 -14.4627 -80
      vertex 17.236 -14.4627 -79.999
    endloop
  endfacet
  facet normal 0.707107 -0.707107 0
    outer loop
      vertex 17.236 -14.4627 -80
      vertex 14.4627 -17.236 -79.999
      vertex 14.4627 -17.236 -80
    endloop
  endfacet
  facet normal -0.705873 0.705873 0.0590461
    outer loop
      vertex -17.236 14.4627 -79.999
      vertex -11.4095 13.5973 0
      vertex -14.4627 17.236 -79.999
    endloop
  endfacet
  facet normal -0.705873 0.705873 0.0590461
    outer loop
      vertex -11.4095 13.5973 0
      vertex -17.236 14.4627 -79.999
      vertex -13.5973 11.4095 0
    endloop
  endfacet
  facet normal -0.572581 0.817719 0.0590462
    outer loop
      vertex -8.875 15.372 0
      vertex -14.4627 17.236 -79.999
      vertex -11.4095 13.5973 0
    endloop
  endfacet
  facet normal -0.965923 -0.25883 0
    outer loop
      vertex 20.1886 3.55979 -78
      vertex 19.2637 7.01141 -77.999
      vertex 19.2637 7.01141 -78
    endloop
  endfacet
  facet normal -0.965923 -0.25883 0
    outer loop
      vertex 19.2637 7.01141 -77.999
      vertex 20.1886 3.55979 -78
      vertex 20.1886 3.55979 -77.999
    endloop
  endfacet
  facet normal -0.819149 -0.573581 0
    outer loop
      vertex 17.7535 10.25 -78
      vertex 15.7039 13.1771 -77.999
      vertex 15.7039 13.1771 -78
    endloop
  endfacet
  facet normal -0.819149 -0.573581 0
    outer loop
      vertex 15.7039 13.1771 -77.999
      vertex 17.7535 10.25 -78
      vertex 17.7535 10.25 -77.999
    endloop
  endfacet
  facet normal -0.994169 -0.0869859 -0.0637305
    outer loop
      vertex 20.1886 3.55979 -77.999
      vertex 15.5 0 0
      vertex 15.2645 2.69155 0
    endloop
  endfacet
  facet normal -0.963959 -0.258304 -0.0637303
    outer loop
      vertex 19.2637 7.01141 -77.999
      vertex 20.1886 3.55979 -77.999
      vertex 15.2645 2.69155 0
    endloop
  endfacet
  facet normal -0.573581 -0.819149 0
    outer loop
      vertex 10.25 17.7535 -78
      vertex 13.1771 15.7039 -77.999
      vertex 10.25 17.7535 -77.999
    endloop
  endfacet
  facet normal -0.573581 -0.819149 -0
    outer loop
      vertex 13.1771 15.7039 -77.999
      vertex 10.25 17.7535 -78
      vertex 13.1771 15.7039 -78
    endloop
  endfacet
  facet normal 0.965923 -0.25883 0
    outer loop
      vertex -20.1886 3.55979 -77.999
      vertex -19.2637 7.01141 -78
      vertex -19.2637 7.01141 -77.999
    endloop
  endfacet
  facet normal 0.965923 -0.25883 0
    outer loop
      vertex -19.2637 7.01141 -78
      vertex -20.1886 3.55979 -77.999
      vertex -20.1886 3.55979 -78
    endloop
  endfacet
  facet normal 0.817484 0.572415 -0.0637293
    outer loop
      vertex -13.4234 -7.75 0
      vertex -15.7039 -13.1771 -77.999
      vertex -17.7535 -10.25 -77.999
    endloop
  endfacet
  facet normal 0.421764 0.904463 -0.0637294
    outer loop
      vertex -7.75 -13.4234 0
      vertex -7.01141 -19.2637 -77.999
      vertex -10.25 -17.7535 -77.999
    endloop
  endfacet
  facet normal 0.994169 0.0869859 -0.0637305
    outer loop
      vertex -15.5 0 0
      vertex -15.2645 -2.69155 0
      vertex -20.1886 -3.55979 -77.999
    endloop
  endfacet
  facet normal 0.904463 -0.421764 -0.0637294
    outer loop
      vertex -17.7535 10.25 -77.999
      vertex -13.4234 7.75 0
      vertex -19.2637 7.01141 -77.999
    endloop
  endfacet
  facet normal 0.707107 0.707107 0
    outer loop
      vertex -13.1771 -15.7039 -77.999
      vertex -15.7039 -13.1771 -78
      vertex -15.7039 -13.1771 -77.999
    endloop
  endfacet
  facet normal 0.707107 0.707107 0
    outer loop
      vertex -15.7039 -13.1771 -78
      vertex -13.1771 -15.7039 -77.999
      vertex -13.1771 -15.7039 -78
    endloop
  endfacet
  facet normal -0.258304 0.963959 -0.0637303
    outer loop
      vertex 7.01141 -19.2637 -77.999
      vertex 3.55979 -20.1886 -77.999
      vertex 2.69155 -15.2645 0
    endloop
  endfacet
  facet normal -0.906306 -0.422623 0
    outer loop
      vertex 19.2637 7.01141 -78
      vertex 17.7535 10.25 -77.999
      vertex 17.7535 10.25 -78
    endloop
  endfacet
  facet normal -0.906306 -0.422623 0
    outer loop
      vertex 17.7535 10.25 -77.999
      vertex 19.2637 7.01141 -78
      vertex 19.2637 7.01141 -77.999
    endloop
  endfacet
  facet normal -0.258299 -0.963961 -0.0637301
    outer loop
      vertex 7.01141 19.2637 -77.999
      vertex 5.30131 14.5652 0
      vertex 2.69155 15.2645 0
    endloop
  endfacet
  facet normal 0.707107 -0.707107 0
    outer loop
      vertex -15.7039 13.1771 -77.999
      vertex -13.1771 15.7039 -78
      vertex -13.1771 15.7039 -77.999
    endloop
  endfacet
  facet normal 0.707107 -0.707107 0
    outer loop
      vertex -13.1771 15.7039 -78
      vertex -15.7039 13.1771 -77.999
      vertex -15.7039 13.1771 -78
    endloop
  endfacet
  facet normal 0.994171 -0.0869671 -0.0637297
    outer loop
      vertex -20.1886 3.55979 -77.999
      vertex -15.5 0 0
      vertex -20.5 0 -77.999
    endloop
  endfacet
  facet normal 0.994169 -0.0869859 -0.0637305
    outer loop
      vertex -15.2645 2.69155 0
      vertex -15.5 0 0
      vertex -20.1886 3.55979 -77.999
    endloop
  endfacet
  facet normal 0.996196 -0.0871443 0
    outer loop
      vertex -20.5 0 -77.999
      vertex -20.1886 3.55979 -78
      vertex -20.1886 3.55979 -77.999
    endloop
  endfacet
  facet normal 0.996196 -0.0871443 0
    outer loop
      vertex -20.1886 3.55979 -78
      vertex -20.5 0 -77.999
      vertex -20.5 0 -78
    endloop
  endfacet
  facet normal 0.572409 0.817488 -0.063729
    outer loop
      vertex -9.96321 -11.8737 0
      vertex -7.75 -13.4234 0
      vertex -13.1771 -15.7039 -77.999
    endloop
  endfacet
  facet normal 0.819149 0.573581 0
    outer loop
      vertex -15.7039 -13.1771 -77.999
      vertex -17.7535 -10.25 -78
      vertex -17.7535 -10.25 -77.999
    endloop
  endfacet
  facet normal 0.819149 0.573581 0
    outer loop
      vertex -17.7535 -10.25 -78
      vertex -15.7039 -13.1771 -77.999
      vertex -15.7039 -13.1771 -78
    endloop
  endfacet
  facet normal 0.965923 0.25883 0
    outer loop
      vertex -19.2637 -7.01141 -77.999
      vertex -20.1886 -3.55979 -78
      vertex -20.1886 -3.55979 -77.999
    endloop
  endfacet
  facet normal 0.965923 0.25883 0
    outer loop
      vertex -20.1886 -3.55979 -78
      vertex -19.2637 -7.01141 -77.999
      vertex -19.2637 -7.01141 -78
    endloop
  endfacet
  facet normal -0.819149 0.573581 0
    outer loop
      vertex 15.7039 -13.1771 -78
      vertex 17.7535 -10.25 -77.999
      vertex 17.7535 -10.25 -78
    endloop
  endfacet
  facet normal -0.819149 0.573581 0
    outer loop
      vertex 17.7535 -10.25 -77.999
      vertex 15.7039 -13.1771 -78
      vertex 15.7039 -13.1771 -77.999
    endloop
  endfacet
  facet normal -0.817484 -0.572415 -0.0637293
    outer loop
      vertex 15.7039 13.1771 -77.999
      vertex 17.7535 10.25 -77.999
      vertex 13.4234 7.75 0
    endloop
  endfacet
  facet normal -0.904463 -0.421764 -0.0637294
    outer loop
      vertex 17.7535 10.25 -77.999
      vertex 19.2637 7.01141 -77.999
      vertex 13.4234 7.75 0
    endloop
  endfacet
  facet normal -0.707107 -0.707107 0
    outer loop
      vertex 15.7039 13.1771 -78
      vertex 13.1771 15.7039 -77.999
      vertex 13.1771 15.7039 -78
    endloop
  endfacet
  facet normal -0.707107 -0.707107 0
    outer loop
      vertex 13.1771 15.7039 -77.999
      vertex 15.7039 13.1771 -78
      vertex 15.7039 13.1771 -77.999
    endloop
  endfacet
  facet normal 0.0869671 -0.994171 -0.0637297
    outer loop
      vertex 0 20.5 -77.999
      vertex 0 15.5 0
      vertex -3.55979 20.1886 -77.999
    endloop
  endfacet
  facet normal 0.572415 -0.817484 -0.0637293
    outer loop
      vertex -10.25 17.7535 -77.999
      vertex -7.75 13.4234 0
      vertex -13.1771 15.7039 -77.999
    endloop
  endfacet
  facet normal 0.0869859 -0.994169 -0.0637305
    outer loop
      vertex 0 15.5 0
      vertex -2.69155 15.2645 0
      vertex -3.55979 20.1886 -77.999
    endloop
  endfacet
  facet normal 0.963959 0.258304 -0.0637303
    outer loop
      vertex -15.2645 -2.69155 0
      vertex -19.2637 -7.01141 -77.999
      vertex -20.1886 -3.55979 -77.999
    endloop
  endfacet
  facet normal 0.994171 0.0869671 -0.0637297
    outer loop
      vertex -15.5 0 0
      vertex -20.1886 -3.55979 -77.999
      vertex -20.5 0 -77.999
    endloop
  endfacet
  facet normal 0 0 1
    outer loop
      vertex 20.1886 3.55979 -78
      vertex 20.1886 -3.55979 -78
      vertex 20.5 0 -78
    endloop
  endfacet
  facet normal 0 0 1
    outer loop
      vertex 19.2637 7.01141 -78
      vertex 20.1886 -3.55979 -78
      vertex 20.1886 3.55979 -78
    endloop
  endfacet
  facet normal 0 0 1
    outer loop
      vertex 19.2637 7.01141 -78
      vertex 19.2637 -7.01141 -78
      vertex 20.1886 -3.55979 -78
    endloop
  endfacet
  facet normal 0 0 1
    outer loop
      vertex 17.7535 10.25 -78
      vertex 19.2637 -7.01141 -78
      vertex 19.2637 7.01141 -78
    endloop
  endfacet
  facet normal 0 0 1
    outer loop
      vertex 17.7535 10.25 -78
      vertex 17.7535 -10.25 -78
      vertex 19.2637 -7.01141 -78
    endloop
  endfacet
  facet normal 0 0 1
    outer loop
      vertex 15.7039 13.1771 -78
      vertex 17.7535 -10.25 -78
      vertex 17.7535 10.25 -78
    endloop
  endfacet
  facet normal 0 0 1
    outer loop
      vertex 15.7039 13.1771 -78
      vertex 15.7039 -13.1771 -78
      vertex 17.7535 -10.25 -78
    endloop
  endfacet
  facet normal 0 0 1
    outer loop
      vertex 13.1771 15.7039 -78
      vertex 15.7039 -13.1771 -78
      vertex 15.7039 13.1771 -78
    endloop
  endfacet
  facet normal 0 0 1
    outer loop
      vertex 13.1771 15.7039 -78
      vertex 13.1771 -15.7039 -78
      vertex 15.7039 -13.1771 -78
    endloop
  endfacet
  facet normal 0 0 1
    outer loop
      vertex 10.25 17.7535 -78
      vertex 13.1771 -15.7039 -78
      vertex 13.1771 15.7039 -78
    endloop
  endfacet
  facet normal 0 0 1
    outer loop
      vertex 10.25 17.7535 -78
      vertex 10.25 -17.7535 -78
      vertex 13.1771 -15.7039 -78
    endloop
  endfacet
  facet normal 0 0 1
    outer loop
      vertex 7.01141 19.2637 -78
      vertex 10.25 -17.7535 -78
      vertex 10.25 17.7535 -78
    endloop
  endfacet
  facet normal 0 0 1
    outer loop
      vertex 7.01141 19.2637 -78
      vertex 7.01141 -19.2637 -78
      vertex 10.25 -17.7535 -78
    endloop
  endfacet
  facet normal 0 0 1
    outer loop
      vertex 3.55979 20.1886 -78
      vertex 7.01141 -19.2637 -78
      vertex 7.01141 19.2637 -78
    endloop
  endfacet
  facet normal 0 0 1
    outer loop
      vertex 3.55979 20.1886 -78
      vertex 3.55979 -20.1886 -78
      vertex 7.01141 -19.2637 -78
    endloop
  endfacet
  facet normal 0 0 1
    outer loop
      vertex 0 20.5 -78
      vertex 3.55979 -20.1886 -78
      vertex 3.55979 20.1886 -78
    endloop
  endfacet
  facet normal 0 0 1
    outer loop
      vertex 0 20.5 -78
      vertex 0 -20.5 -78
      vertex 3.55979 -20.1886 -78
    endloop
  endfacet
  facet normal -0 0 1
    outer loop
      vertex -3.55979 20.1886 -78
      vertex 0 -20.5 -78
      vertex 0 20.5 -78
    endloop
  endfacet
  facet normal 0 0 1
    outer loop
      vertex -3.55979 20.1886 -78
      vertex -3.55979 -20.1886 -78
      vertex 0 -20.5 -78
    endloop
  endfacet
  facet normal -0 0 1
    outer loop
      vertex -7.01141 19.2637 -78
      vertex -3.55979 -20.1886 -78
      vertex -3.55979 20.1886 -78
    endloop
  endfacet
  facet normal 0 0 1
    outer loop
      vertex -7.01141 19.2637 -78
      vertex -7.01141 -19.2637 -78
      vertex -3.55979 -20.1886 -78
    endloop
  endfacet
  facet normal -0 0 1
    outer loop
      vertex -10.25 17.7535 -78
      vertex -7.01141 -19.2637 -78
      vertex -7.01141 19.2637 -78
    endloop
  endfacet
  facet normal 0 0 1
    outer loop
      vertex -10.25 17.7535 -78
      vertex -10.25 -17.7535 -78
      vertex -7.01141 -19.2637 -78
    endloop
  endfacet
  facet normal -0 0 1
    outer loop
      vertex -13.1771 15.7039 -78
      vertex -10.25 -17.7535 -78
      vertex -10.25 17.7535 -78
    endloop
  endfacet
  facet normal 0 0 1
    outer loop
      vertex -13.1771 15.7039 -78
      vertex -13.1771 -15.7039 -78
      vertex -10.25 -17.7535 -78
    endloop
  endfacet
  facet normal -0 0 1
    outer loop
      vertex -15.7039 13.1771 -78
      vertex -13.1771 -15.7039 -78
      vertex -13.1771 15.7039 -78
    endloop
  endfacet
  facet normal 0 0 1
    outer loop
      vertex -15.7039 13.1771 -78
      vertex -15.7039 -13.1771 -78
      vertex -13.1771 -15.7039 -78
    endloop
  endfacet
  facet normal -0 0 1
    outer loop
      vertex -17.7535 10.25 -78
      vertex -15.7039 -13.1771 -78
      vertex -15.7039 13.1771 -78
    endloop
  endfacet
  facet normal 0 0 1
    outer loop
      vertex -17.7535 10.25 -78
      vertex -17.7535 -10.25 -78
      vertex -15.7039 -13.1771 -78
    endloop
  endfacet
  facet normal -0 0 1
    outer loop
      vertex -19.2637 7.01141 -78
      vertex -17.7535 -10.25 -78
      vertex -17.7535 10.25 -78
    endloop
  endfacet
  facet normal 0 0 1
    outer loop
      vertex -19.2637 7.01141 -78
      vertex -19.2637 -7.01141 -78
      vertex -17.7535 -10.25 -78
    endloop
  endfacet
  facet normal -0 0 1
    outer loop
      vertex -20.1886 3.55979 -78
      vertex -19.2637 -7.01141 -78
      vertex -19.2637 7.01141 -78
    endloop
  endfacet
  facet normal 0 0 1
    outer loop
      vertex -20.1886 3.55979 -78
      vertex -20.1886 -3.55979 -78
      vertex -19.2637 -7.01141 -78
    endloop
  endfacet
  facet normal 0 -0 1
    outer loop
      vertex -20.1886 -3.55979 -78
      vertex -20.1886 3.55979 -78
      vertex -20.5 0 -78
    endloop
  endfacet
  facet normal 0.996196 0.0871443 0
    outer loop
      vertex -20.1886 -3.55979 -77.999
      vertex -20.5 0 -78
      vertex -20.5 0 -77.999
    endloop
  endfacet
  facet normal 0.996196 0.0871443 0
    outer loop
      vertex -20.5 0 -78
      vertex -20.1886 -3.55979 -77.999
      vertex -20.1886 -3.55979 -78
    endloop
  endfacet
  facet normal -0.25883 0.965923 0
    outer loop
      vertex 7.01141 -19.2637 -78
      vertex 3.55979 -20.1886 -77.999
      vertex 7.01141 -19.2637 -77.999
    endloop
  endfacet
  facet normal -0.25883 0.965923 0
    outer loop
      vertex 3.55979 -20.1886 -77.999
      vertex 7.01141 -19.2637 -78
      vertex 3.55979 -20.1886 -78
    endloop
  endfacet
  facet normal 0.572415 0.817484 -0.0637293
    outer loop
      vertex -7.75 -13.4234 0
      vertex -10.25 -17.7535 -77.999
      vertex -13.1771 -15.7039 -77.999
    endloop
  endfacet
  facet normal 0.573581 0.819149 -0
    outer loop
      vertex -10.25 -17.7535 -78
      vertex -13.1771 -15.7039 -77.999
      vertex -10.25 -17.7535 -77.999
    endloop
  endfacet
  facet normal 0.573581 0.819149 0
    outer loop
      vertex -13.1771 -15.7039 -77.999
      vertex -10.25 -17.7535 -78
      vertex -13.1771 -15.7039 -78
    endloop
  endfacet
  facet normal 0.705669 0.705669 -0.063729
    outer loop
      vertex -9.96321 -11.8737 0
      vertex -15.7039 -13.1771 -77.999
      vertex -11.8737 -9.96321 0
    endloop
  endfacet
  facet normal 0.705669 0.705669 -0.063729
    outer loop
      vertex -15.7039 -13.1771 -77.999
      vertex -9.96321 -11.8737 0
      vertex -13.1771 -15.7039 -77.999
    endloop
  endfacet
  facet normal 0.906306 0.422623 0
    outer loop
      vertex -17.7535 -10.25 -77.999
      vertex -19.2637 -7.01141 -78
      vertex -19.2637 -7.01141 -77.999
    endloop
  endfacet
  facet normal 0.906306 0.422623 0
    outer loop
      vertex -19.2637 -7.01141 -78
      vertex -17.7535 -10.25 -77.999
      vertex -17.7535 -10.25 -78
    endloop
  endfacet
  facet normal -0.994171 -0.0869671 -0.0637297
    outer loop
      vertex 20.1886 3.55979 -77.999
      vertex 20.5 0 -77.999
      vertex 15.5 0 0
    endloop
  endfacet
  facet normal -0.817488 0.572409 -0.063729
    outer loop
      vertex 13.4234 -7.75 0
      vertex 15.7039 -13.1771 -77.999
      vertex 11.8737 -9.96321 0
    endloop
  endfacet
  facet normal -0.707107 0.707107 0
    outer loop
      vertex 13.1771 -15.7039 -78
      vertex 15.7039 -13.1771 -77.999
      vertex 15.7039 -13.1771 -78
    endloop
  endfacet
  facet normal -0.707107 0.707107 0
    outer loop
      vertex 15.7039 -13.1771 -77.999
      vertex 13.1771 -15.7039 -78
      vertex 13.1771 -15.7039 -77.999
    endloop
  endfacet
  facet normal -0.996196 -0.0871443 0
    outer loop
      vertex 20.5 0 -78
      vertex 20.1886 3.55979 -77.999
      vertex 20.1886 3.55979 -78
    endloop
  endfacet
  facet normal -0.996196 -0.0871443 0
    outer loop
      vertex 20.1886 3.55979 -77.999
      vertex 20.5 0 -78
      vertex 20.5 0 -77.999
    endloop
  endfacet
  facet normal -0.904463 0.421764 -0.0637294
    outer loop
      vertex 19.2637 -7.01141 -77.999
      vertex 17.7535 -10.25 -77.999
      vertex 13.4234 -7.75 0
    endloop
  endfacet
  facet normal -0.817484 0.572415 -0.0637293
    outer loop
      vertex 17.7535 -10.25 -77.999
      vertex 15.7039 -13.1771 -77.999
      vertex 13.4234 -7.75 0
    endloop
  endfacet
  facet normal -0.963961 -0.258299 -0.0637301
    outer loop
      vertex 19.2637 7.01141 -77.999
      vertex 15.2645 2.69155 0
      vertex 14.5652 5.30131 0
    endloop
  endfacet
  facet normal -0.904471 -0.421746 -0.0637301
    outer loop
      vertex 19.2637 7.01141 -77.999
      vertex 14.5652 5.30131 0
      vertex 13.4234 7.75 0
    endloop
  endfacet
  facet normal -0.422623 -0.906306 0
    outer loop
      vertex 7.01141 19.2637 -78
      vertex 10.25 17.7535 -77.999
      vertex 7.01141 19.2637 -77.999
    endloop
  endfacet
  facet normal -0.422623 -0.906306 -0
    outer loop
      vertex 10.25 17.7535 -77.999
      vertex 7.01141 19.2637 -78
      vertex 10.25 17.7535 -78
    endloop
  endfacet
  facet normal 0.0871443 -0.996196 0
    outer loop
      vertex -3.55979 20.1886 -78
      vertex 0 20.5 -77.999
      vertex -3.55979 20.1886 -77.999
    endloop
  endfacet
  facet normal 0.0871443 -0.996196 0
    outer loop
      vertex 0 20.5 -77.999
      vertex -3.55979 20.1886 -78
      vertex 0 20.5 -78
    endloop
  endfacet
  facet normal -0.258304 -0.963959 -0.0637303
    outer loop
      vertex 3.55979 20.1886 -77.999
      vertex 7.01141 19.2637 -77.999
      vertex 2.69155 15.2645 0
    endloop
  endfacet
  facet normal -0.0869859 -0.994169 -0.0637305
    outer loop
      vertex 3.55979 20.1886 -77.999
      vertex 2.69155 15.2645 0
      vertex 0 15.5 0
    endloop
  endfacet
  facet normal -0.0869671 -0.994171 -0.0637297
    outer loop
      vertex 0 20.5 -77.999
      vertex 3.55979 20.1886 -77.999
      vertex 0 15.5 0
    endloop
  endfacet
  facet normal 0.258304 -0.963959 -0.0637303
    outer loop
      vertex -3.55979 20.1886 -77.999
      vertex -2.69155 15.2645 0
      vertex -7.01141 19.2637 -77.999
    endloop
  endfacet
  facet normal 0.817488 -0.572409 -0.063729
    outer loop
      vertex -11.8737 9.96321 0
      vertex -13.4234 7.75 0
      vertex -15.7039 13.1771 -77.999
    endloop
  endfacet
  facet normal 0.904471 -0.421746 -0.0637301
    outer loop
      vertex -13.4234 7.75 0
      vertex -14.5652 5.30131 0
      vertex -19.2637 7.01141 -77.999
    endloop
  endfacet
  facet normal 0.963959 -0.258304 -0.0637303
    outer loop
      vertex -19.2637 7.01141 -77.999
      vertex -15.2645 2.69155 0
      vertex -20.1886 3.55979 -77.999
    endloop
  endfacet
  facet normal 0.817484 -0.572415 -0.0637293
    outer loop
      vertex -15.7039 13.1771 -77.999
      vertex -13.4234 7.75 0
      vertex -17.7535 10.25 -77.999
    endloop
  endfacet
  facet normal -0.0871443 0.996196 0
    outer loop
      vertex 3.55979 -20.1886 -78
      vertex 0 -20.5 -77.999
      vertex 3.55979 -20.1886 -77.999
    endloop
  endfacet
  facet normal -0.0871443 0.996196 0
    outer loop
      vertex 0 -20.5 -77.999
      vertex 3.55979 -20.1886 -78
      vertex 0 -20.5 -78
    endloop
  endfacet
  facet normal 0.0869859 0.994169 -0.0637305
    outer loop
      vertex -2.69155 -15.2645 0
      vertex 0 -15.5 0
      vertex -3.55979 -20.1886 -77.999
    endloop
  endfacet
  facet normal 0.0869671 0.994171 -0.0637297
    outer loop
      vertex 0 -15.5 0
      vertex 0 -20.5 -77.999
      vertex -3.55979 -20.1886 -77.999
    endloop
  endfacet
  facet normal 0.422623 0.906306 -0
    outer loop
      vertex -7.01141 -19.2637 -78
      vertex -10.25 -17.7535 -77.999
      vertex -7.01141 -19.2637 -77.999
    endloop
  endfacet
  facet normal 0.422623 0.906306 0
    outer loop
      vertex -10.25 -17.7535 -77.999
      vertex -7.01141 -19.2637 -78
      vertex -10.25 -17.7535 -78
    endloop
  endfacet
  facet normal 0.904471 0.421746 -0.0637301
    outer loop
      vertex -14.5652 -5.30131 0
      vertex -13.4234 -7.75 0
      vertex -19.2637 -7.01141 -77.999
    endloop
  endfacet
  facet normal 0.904463 0.421764 -0.0637294
    outer loop
      vertex -13.4234 -7.75 0
      vertex -17.7535 -10.25 -77.999
      vertex -19.2637 -7.01141 -77.999
    endloop
  endfacet
  facet normal -0.963959 0.258304 -0.0637303
    outer loop
      vertex 20.1886 -3.55979 -77.999
      vertex 19.2637 -7.01141 -77.999
      vertex 15.2645 -2.69155 0
    endloop
  endfacet
  facet normal -0.705669 0.705669 -0.063729
    outer loop
      vertex 15.7039 -13.1771 -77.999
      vertex 9.96321 -11.8737 0
      vertex 11.8737 -9.96321 0
    endloop
  endfacet
  facet normal -0.705669 0.705669 -0.063729
    outer loop
      vertex 9.96321 -11.8737 0
      vertex 15.7039 -13.1771 -77.999
      vertex 13.1771 -15.7039 -77.999
    endloop
  endfacet
  facet normal -0.421746 0.904471 -0.0637301
    outer loop
      vertex 7.75 -13.4234 0
      vertex 7.01141 -19.2637 -77.999
      vertex 5.30131 -14.5652 0
    endloop
  endfacet
  facet normal -0.258299 0.963961 -0.0637301
    outer loop
      vertex 5.30131 -14.5652 0
      vertex 7.01141 -19.2637 -77.999
      vertex 2.69155 -15.2645 0
    endloop
  endfacet
  facet normal -0.422623 0.906306 0
    outer loop
      vertex 10.25 -17.7535 -78
      vertex 7.01141 -19.2637 -77.999
      vertex 10.25 -17.7535 -77.999
    endloop
  endfacet
  facet normal -0.422623 0.906306 0
    outer loop
      vertex 7.01141 -19.2637 -77.999
      vertex 10.25 -17.7535 -78
      vertex 7.01141 -19.2637 -78
    endloop
  endfacet
  facet normal -0.994171 0.0869671 -0.0637297
    outer loop
      vertex 20.5 0 -77.999
      vertex 20.1886 -3.55979 -77.999
      vertex 15.5 0 0
    endloop
  endfacet
  facet normal -0.994169 0.0869859 -0.0637305
    outer loop
      vertex 15.5 0 0
      vertex 20.1886 -3.55979 -77.999
      vertex 15.2645 -2.69155 0
    endloop
  endfacet
  facet normal -0.906306 0.422623 0
    outer loop
      vertex 17.7535 -10.25 -78
      vertex 19.2637 -7.01141 -77.999
      vertex 19.2637 -7.01141 -78
    endloop
  endfacet
  facet normal -0.906306 0.422623 0
    outer loop
      vertex 19.2637 -7.01141 -77.999
      vertex 17.7535 -10.25 -78
      vertex 17.7535 -10.25 -77.999
    endloop
  endfacet
  facet normal -0.572409 -0.817488 -0.063729
    outer loop
      vertex 13.1771 15.7039 -77.999
      vertex 9.96321 11.8737 0
      vertex 7.75 13.4234 0
    endloop
  endfacet
  facet normal -0.705669 -0.705669 -0.063729
    outer loop
      vertex 13.1771 15.7039 -77.999
      vertex 11.8737 9.96321 0
      vertex 9.96321 11.8737 0
    endloop
  endfacet
  facet normal -0.705669 -0.705669 -0.063729
    outer loop
      vertex 11.8737 9.96321 0
      vertex 13.1771 15.7039 -77.999
      vertex 15.7039 13.1771 -77.999
    endloop
  endfacet
  facet normal -0.572415 -0.817484 -0.0637293
    outer loop
      vertex 10.25 17.7535 -77.999
      vertex 13.1771 15.7039 -77.999
      vertex 7.75 13.4234 0
    endloop
  endfacet
  facet normal -0.421764 -0.904463 -0.0637294
    outer loop
      vertex 10.25 17.7535 -77.999
      vertex 7.75 13.4234 0
      vertex 7.01141 19.2637 -77.999
    endloop
  endfacet
  facet normal -0.817488 -0.572409 -0.063729
    outer loop
      vertex 15.7039 13.1771 -77.999
      vertex 13.4234 7.75 0
      vertex 11.8737 9.96321 0
    endloop
  endfacet
  facet normal -0.0871443 -0.996196 0
    outer loop
      vertex 0 20.5 -78
      vertex 3.55979 20.1886 -77.999
      vertex 0 20.5 -77.999
    endloop
  endfacet
  facet normal -0.0871443 -0.996196 -0
    outer loop
      vertex 3.55979 20.1886 -77.999
      vertex 0 20.5 -78
      vertex 3.55979 20.1886 -78
    endloop
  endfacet
  facet normal -0.25883 -0.965923 0
    outer loop
      vertex 3.55979 20.1886 -78
      vertex 7.01141 19.2637 -77.999
      vertex 3.55979 20.1886 -77.999
    endloop
  endfacet
  facet normal -0.25883 -0.965923 -0
    outer loop
      vertex 7.01141 19.2637 -77.999
      vertex 3.55979 20.1886 -78
      vertex 7.01141 19.2637 -78
    endloop
  endfacet
  facet normal 0.25883 -0.965923 0
    outer loop
      vertex -7.01141 19.2637 -78
      vertex -3.55979 20.1886 -77.999
      vertex -7.01141 19.2637 -77.999
    endloop
  endfacet
  facet normal 0.25883 -0.965923 0
    outer loop
      vertex -3.55979 20.1886 -77.999
      vertex -7.01141 19.2637 -78
      vertex -3.55979 20.1886 -78
    endloop
  endfacet
  facet normal 0.421764 -0.904463 -0.0637294
    outer loop
      vertex -7.01141 19.2637 -77.999
      vertex -7.75 13.4234 0
      vertex -10.25 17.7535 -77.999
    endloop
  endfacet
  facet normal 0.705669 -0.705669 -0.063729
    outer loop
      vertex -9.96321 11.8737 0
      vertex -15.7039 13.1771 -77.999
      vertex -13.1771 15.7039 -77.999
    endloop
  endfacet
  facet normal 0.705669 -0.705669 -0.063729
    outer loop
      vertex -15.7039 13.1771 -77.999
      vertex -9.96321 11.8737 0
      vertex -11.8737 9.96321 0
    endloop
  endfacet
  facet normal 0.572409 -0.817488 -0.063729
    outer loop
      vertex -7.75 13.4234 0
      vertex -9.96321 11.8737 0
      vertex -13.1771 15.7039 -77.999
    endloop
  endfacet
  facet normal 0.963961 -0.258299 -0.0637301
    outer loop
      vertex -14.5652 5.30131 0
      vertex -15.2645 2.69155 0
      vertex -19.2637 7.01141 -77.999
    endloop
  endfacet
  facet normal 0.906306 -0.422623 0
    outer loop
      vertex -19.2637 7.01141 -77.999
      vertex -17.7535 10.25 -78
      vertex -17.7535 10.25 -77.999
    endloop
  endfacet
  facet normal 0.906306 -0.422623 0
    outer loop
      vertex -17.7535 10.25 -78
      vertex -19.2637 7.01141 -77.999
      vertex -19.2637 7.01141 -78
    endloop
  endfacet
  facet normal 0.819149 -0.573581 0
    outer loop
      vertex -17.7535 10.25 -77.999
      vertex -15.7039 13.1771 -78
      vertex -15.7039 13.1771 -77.999
    endloop
  endfacet
  facet normal 0.819149 -0.573581 0
    outer loop
      vertex -15.7039 13.1771 -78
      vertex -17.7535 10.25 -77.999
      vertex -17.7535 10.25 -78
    endloop
  endfacet
  facet normal 0.258304 0.963959 -0.0637303
    outer loop
      vertex -2.69155 -15.2645 0
      vertex -3.55979 -20.1886 -77.999
      vertex -7.01141 -19.2637 -77.999
    endloop
  endfacet
  facet normal 0.25883 0.965923 -0
    outer loop
      vertex -3.55979 -20.1886 -78
      vertex -7.01141 -19.2637 -77.999
      vertex -3.55979 -20.1886 -77.999
    endloop
  endfacet
  facet normal 0.25883 0.965923 0
    outer loop
      vertex -7.01141 -19.2637 -77.999
      vertex -3.55979 -20.1886 -78
      vertex -7.01141 -19.2637 -78
    endloop
  endfacet
  facet normal -0.0869671 0.994171 -0.0637297
    outer loop
      vertex 0 -15.5 0
      vertex 3.55979 -20.1886 -77.999
      vertex 0 -20.5 -77.999
    endloop
  endfacet
  facet normal -0.0869859 0.994169 -0.0637305
    outer loop
      vertex 2.69155 -15.2645 0
      vertex 3.55979 -20.1886 -77.999
      vertex 0 -15.5 0
    endloop
  endfacet
  facet normal 0.817488 0.572409 -0.063729
    outer loop
      vertex -13.4234 -7.75 0
      vertex -11.8737 -9.96321 0
      vertex -15.7039 -13.1771 -77.999
    endloop
  endfacet
  facet normal 0.963961 0.258299 -0.0637301
    outer loop
      vertex -15.2645 -2.69155 0
      vertex -14.5652 -5.30131 0
      vertex -19.2637 -7.01141 -77.999
    endloop
  endfacet
  facet normal -0.904471 0.421746 -0.0637301
    outer loop
      vertex 14.5652 -5.30131 0
      vertex 19.2637 -7.01141 -77.999
      vertex 13.4234 -7.75 0
    endloop
  endfacet
  facet normal -0.421764 0.904463 -0.0637294
    outer loop
      vertex 7.75 -13.4234 0
      vertex 10.25 -17.7535 -77.999
      vertex 7.01141 -19.2637 -77.999
    endloop
  endfacet
  facet normal -0.996196 0.0871443 0
    outer loop
      vertex 20.1886 -3.55979 -78
      vertex 20.5 0 -77.999
      vertex 20.5 0 -78
    endloop
  endfacet
  facet normal -0.996196 0.0871443 0
    outer loop
      vertex 20.5 0 -77.999
      vertex 20.1886 -3.55979 -78
      vertex 20.1886 -3.55979 -77.999
    endloop
  endfacet
  facet normal -0.965923 0.25883 0
    outer loop
      vertex 19.2637 -7.01141 -78
      vertex 20.1886 -3.55979 -77.999
      vertex 20.1886 -3.55979 -78
    endloop
  endfacet
  facet normal -0.965923 0.25883 0
    outer loop
      vertex 20.1886 -3.55979 -77.999
      vertex 19.2637 -7.01141 -78
      vertex 19.2637 -7.01141 -77.999
    endloop
  endfacet
  facet normal -0.421746 -0.904471 -0.0637301
    outer loop
      vertex 7.01141 19.2637 -77.999
      vertex 7.75 13.4234 0
      vertex 5.30131 14.5652 0
    endloop
  endfacet
  facet normal 0.258299 -0.963961 -0.0637301
    outer loop
      vertex -2.69155 15.2645 0
      vertex -5.30131 14.5652 0
      vertex -7.01141 19.2637 -77.999
    endloop
  endfacet
  facet normal 0.421746 -0.904471 -0.0637301
    outer loop
      vertex -7.01141 19.2637 -77.999
      vertex -5.30131 14.5652 0
      vertex -7.75 13.4234 0
    endloop
  endfacet
  facet normal 0.422623 -0.906306 0
    outer loop
      vertex -10.25 17.7535 -78
      vertex -7.01141 19.2637 -77.999
      vertex -10.25 17.7535 -77.999
    endloop
  endfacet
  facet normal 0.422623 -0.906306 0
    outer loop
      vertex -7.01141 19.2637 -77.999
      vertex -10.25 17.7535 -78
      vertex -7.01141 19.2637 -78
    endloop
  endfacet
  facet normal 0.258299 0.963961 -0.0637301
    outer loop
      vertex -5.30131 -14.5652 0
      vertex -2.69155 -15.2645 0
      vertex -7.01141 -19.2637 -77.999
    endloop
  endfacet
  facet normal 0.421746 0.904471 -0.0637301
    outer loop
      vertex -5.30131 -14.5652 0
      vertex -7.01141 -19.2637 -77.999
      vertex -7.75 -13.4234 0
    endloop
  endfacet
  facet normal 0.0871443 0.996196 -0
    outer loop
      vertex 0 -20.5 -78
      vertex -3.55979 -20.1886 -77.999
      vertex 0 -20.5 -77.999
    endloop
  endfacet
  facet normal 0.0871443 0.996196 0
    outer loop
      vertex -3.55979 -20.1886 -77.999
      vertex 0 -20.5 -78
      vertex -3.55979 -20.1886 -78
    endloop
  endfacet
  facet normal -0.963961 0.258299 -0.0637301
    outer loop
      vertex 15.2645 -2.69155 0
      vertex 19.2637 -7.01141 -77.999
      vertex 14.5652 -5.30131 0
    endloop
  endfacet
  facet normal -0.572415 0.817484 -0.0637293
    outer loop
      vertex 13.1771 -15.7039 -77.999
      vertex 10.25 -17.7535 -77.999
      vertex 7.75 -13.4234 0
    endloop
  endfacet
  facet normal -0.572409 0.817488 -0.063729
    outer loop
      vertex 9.96321 -11.8737 0
      vertex 13.1771 -15.7039 -77.999
      vertex 7.75 -13.4234 0
    endloop
  endfacet
  facet normal -0.573581 0.819149 0
    outer loop
      vertex 13.1771 -15.7039 -78
      vertex 10.25 -17.7535 -77.999
      vertex 13.1771 -15.7039 -77.999
    endloop
  endfacet
  facet normal -0.573581 0.819149 0
    outer loop
      vertex 10.25 -17.7535 -77.999
      vertex 13.1771 -15.7039 -78
      vertex 10.25 -17.7535 -78
    endloop
  endfacet
  facet normal 0.573581 -0.819149 0
    outer loop
      vertex -13.1771 15.7039 -78
      vertex -10.25 17.7535 -77.999
      vertex -13.1771 15.7039 -77.999
    endloop
  endfacet
  facet normal 0.573581 -0.819149 0
    outer loop
      vertex -10.25 17.7535 -77.999
      vertex -13.1771 15.7039 -78
      vertex -10.25 17.7535 -78
    endloop
  endfacet
endsolid OpenSCAD_Model
