solid OpenSCAD_Model
  facet normal -0 0 1
    outer loop
      vertex -50.8 18.3 12
      vertex -45.8 3.8147e-07 12
      vertex -45.8 18.3 12
    endloop
  endfacet
  facet normal 0 0 1
    outer loop
      vertex -45.8 3.8147e-07 12
      vertex -50.8 18.3 12
      vertex -50.8 3.8147e-07 12
    endloop
  endfacet
  facet normal -1 0 0
    outer loop
      vertex -50.8 18.3 0
      vertex -50.8 14.95 5.82753
      vertex -50.8 18.3 12
    endloop
  endfacet
  facet normal -1 0 0
    outer loop
      vertex -50.8 18.3 0
      vertex -50.8 14.8779 5.49012
      vertex -50.8 14.95 5.82753
    endloop
  endfacet
  facet normal -1 0 0
    outer loop
      vertex -50.8 18.3 0
      vertex -50.8 14.7368 5.175
      vertex -50.8 14.8779 5.49012
    endloop
  endfacet
  facet normal -1 0 0
    outer loop
      vertex -50.8 18.3 0
      vertex -50.8 14.5329 4.89593
      vertex -50.8 14.7368 5.175
    endloop
  endfacet
  facet normal -1 0 0
    outer loop
      vertex -50.8 18.3 0
      vertex -50.8 14.2752 4.66512
      vertex -50.8 14.5329 4.89593
    endloop
  endfacet
  facet normal -1 0 0
    outer loop
      vertex -50.8 18.3 0
      vertex -50.8 13.9748 4.49265
      vertex -50.8 14.2752 4.66512
    endloop
  endfacet
  facet normal -1 0 0
    outer loop
      vertex -50.8 18.3 0
      vertex -50.8 13.6449 4.38606
      vertex -50.8 13.9748 4.49265
    endloop
  endfacet
  facet normal -1 0 0
    outer loop
      vertex -50.8 18.3 0
      vertex -50.8 13.3 4.35
      vertex -50.8 13.6449 4.38606
    endloop
  endfacet
  facet normal -1 0 0
    outer loop
      vertex -50.8 18.3 0
      vertex -50.8 12.9551 4.38606
      vertex -50.8 13.3 4.35
    endloop
  endfacet
  facet normal -1 0 0
    outer loop
      vertex -50.8 18.3 0
      vertex -50.8 12.6252 4.49265
      vertex -50.8 12.9551 4.38606
    endloop
  endfacet
  facet normal -1 0 0
    outer loop
      vertex -50.8 0 0
      vertex -50.8 12.6252 4.49265
      vertex -50.8 18.3 0
    endloop
  endfacet
  facet normal -1 -0 0
    outer loop
      vertex -50.8 11.65 5.82753
      vertex -50.8 3.8147e-07 5
      vertex -50.8 11.65 6.17247
    endloop
  endfacet
  facet normal -1 -0 0
    outer loop
      vertex -50.8 11.7221 5.49012
      vertex -50.8 3.8147e-07 5
      vertex -50.8 11.65 5.82753
    endloop
  endfacet
  facet normal -1 -0 0
    outer loop
      vertex -50.8 11.8632 5.175
      vertex -50.8 3.8147e-07 5
      vertex -50.8 11.7221 5.49012
    endloop
  endfacet
  facet normal -1 0 0
    outer loop
      vertex -50.8 0 0
      vertex -50.8 11.8632 5.175
      vertex -50.8 12.0671 4.89593
    endloop
  endfacet
  facet normal -1 0 0
    outer loop
      vertex -50.8 0 0
      vertex -50.8 12.0671 4.89593
      vertex -50.8 12.3248 4.66512
    endloop
  endfacet
  facet normal -1 -0 0
    outer loop
      vertex -50.8 12.6252 4.49265
      vertex -50.8 0 0
      vertex -50.8 12.3248 4.66512
    endloop
  endfacet
  facet normal -1 0 0
    outer loop
      vertex -50.8 11.8632 5.175
      vertex -50.8 0 0
      vertex -50.8 3.8147e-07 5
    endloop
  endfacet
  facet normal -1 -0 0
    outer loop
      vertex -50.8 3.8147e-07 5
      vertex -50.8 0 0
      vertex -50.8 0 5
    endloop
  endfacet
  facet normal -1 0 0
    outer loop
      vertex -50.8 14.95 6.17247
      vertex -50.8 18.3 12
      vertex -50.8 14.95 5.82753
    endloop
  endfacet
  facet normal -1 0 0
    outer loop
      vertex -50.8 14.8779 6.50988
      vertex -50.8 18.3 12
      vertex -50.8 14.95 6.17247
    endloop
  endfacet
  facet normal -1 0 0
    outer loop
      vertex -50.8 14.7368 6.825
      vertex -50.8 18.3 12
      vertex -50.8 14.8779 6.50988
    endloop
  endfacet
  facet normal -1 0 0
    outer loop
      vertex -50.8 14.5329 7.10406
      vertex -50.8 18.3 12
      vertex -50.8 14.7368 6.825
    endloop
  endfacet
  facet normal -1 0 0
    outer loop
      vertex -50.8 14.2752 7.33488
      vertex -50.8 18.3 12
      vertex -50.8 14.5329 7.10406
    endloop
  endfacet
  facet normal -1 0 0
    outer loop
      vertex -50.8 13.9748 7.50735
      vertex -50.8 18.3 12
      vertex -50.8 14.2752 7.33488
    endloop
  endfacet
  facet normal -1 0 0
    outer loop
      vertex -50.8 13.6449 7.61394
      vertex -50.8 18.3 12
      vertex -50.8 13.9748 7.50735
    endloop
  endfacet
  facet normal -1 0 0
    outer loop
      vertex -50.8 13.3 7.65
      vertex -50.8 18.3 12
      vertex -50.8 13.6449 7.61394
    endloop
  endfacet
  facet normal -1 0 0
    outer loop
      vertex -50.8 12.9551 7.61394
      vertex -50.8 18.3 12
      vertex -50.8 13.3 7.65
    endloop
  endfacet
  facet normal -1 0 0
    outer loop
      vertex -50.8 12.6252 7.50735
      vertex -50.8 18.3 12
      vertex -50.8 12.9551 7.61394
    endloop
  endfacet
  facet normal -1 0 0
    outer loop
      vertex -50.8 3.8147e-07 12
      vertex -50.8 12.6252 7.50735
      vertex -50.8 12.3248 7.33488
    endloop
  endfacet
  facet normal -1 0 0
    outer loop
      vertex -50.8 3.8147e-07 5
      vertex -50.8 11.7221 6.50988
      vertex -50.8 11.65 6.17247
    endloop
  endfacet
  facet normal -1 0 0
    outer loop
      vertex -50.8 3.8147e-07 12
      vertex -50.8 11.7221 6.50988
      vertex -50.8 3.8147e-07 5
    endloop
  endfacet
  facet normal -1 0 0
    outer loop
      vertex -50.8 11.7221 6.50988
      vertex -50.8 3.8147e-07 12
      vertex -50.8 11.8632 6.825
    endloop
  endfacet
  facet normal -1 0 0
    outer loop
      vertex -50.8 11.8632 6.825
      vertex -50.8 3.8147e-07 12
      vertex -50.8 12.0671 7.10406
    endloop
  endfacet
  facet normal -1 0 0
    outer loop
      vertex -50.8 12.0671 7.10406
      vertex -50.8 3.8147e-07 12
      vertex -50.8 12.3248 7.33488
    endloop
  endfacet
  facet normal -1 0 0
    outer loop
      vertex -50.8 12.6252 7.50735
      vertex -50.8 3.8147e-07 12
      vertex -50.8 18.3 12
    endloop
  endfacet
  facet normal 0 1 -0
    outer loop
      vertex -45.8 18.3 0
      vertex -50.8 18.3 12
      vertex -45.8 18.3 12
    endloop
  endfacet
  facet normal 0 1 0
    outer loop
      vertex -50.8 18.3 12
      vertex -45.8 18.3 0
      vertex -50.8 18.3 0
    endloop
  endfacet
  facet normal 1 -0 0
    outer loop
      vertex -45.8 14.7368 6.825
      vertex -45.8 18.3 5
      vertex -45.8 18.3 12
    endloop
  endfacet
  facet normal 1 0 0
    outer loop
      vertex -45.8 18.3 5
      vertex -45.8 14.8779 6.50988
      vertex -45.8 14.95 6.17247
    endloop
  endfacet
  facet normal 1 0 0
    outer loop
      vertex -45.8 18.3 5
      vertex -45.8 14.7368 6.825
      vertex -45.8 14.8779 6.50988
    endloop
  endfacet
  facet normal 1 0 0
    outer loop
      vertex -45.8 18.3 12
      vertex -45.8 14.5329 7.10406
      vertex -45.8 14.7368 6.825
    endloop
  endfacet
  facet normal 1 0 0
    outer loop
      vertex -45.8 18.3 12
      vertex -45.8 14.2752 7.33488
      vertex -45.8 14.5329 7.10406
    endloop
  endfacet
  facet normal 1 0 0
    outer loop
      vertex -45.8 18.3 12
      vertex -45.8 13.9748 7.50735
      vertex -45.8 14.2752 7.33488
    endloop
  endfacet
  facet normal 1 0 0
    outer loop
      vertex -45.8 18.3 12
      vertex -45.8 13.6449 7.61394
      vertex -45.8 13.9748 7.50735
    endloop
  endfacet
  facet normal 1 0 0
    outer loop
      vertex -45.8 18.3 12
      vertex -45.8 13.3 7.65
      vertex -45.8 13.6449 7.61394
    endloop
  endfacet
  facet normal 1 0 0
    outer loop
      vertex -45.8 18.3 12
      vertex -45.8 12.9551 7.61394
      vertex -45.8 13.3 7.65
    endloop
  endfacet
  facet normal 1 0 0
    outer loop
      vertex -45.8 18.3 12
      vertex -45.8 12.6252 7.50735
      vertex -45.8 12.9551 7.61394
    endloop
  endfacet
  facet normal 1 -0 0
    outer loop
      vertex -45.8 3.8147e-07 12
      vertex -45.8 12.6252 7.50735
      vertex -45.8 18.3 12
    endloop
  endfacet
  facet normal 1 0 0
    outer loop
      vertex -45.8 11.7221 6.50988
      vertex -45.8 3.8147e-07 5
      vertex -45.8 11.65 6.17247
    endloop
  endfacet
  facet normal 1 0 0
    outer loop
      vertex -45.8 3.8147e-07 5
      vertex -45.8 11.7221 6.50988
      vertex -45.8 3.8147e-07 12
    endloop
  endfacet
  facet normal 1 0 0
    outer loop
      vertex -45.8 11.8632 6.825
      vertex -45.8 3.8147e-07 12
      vertex -45.8 11.7221 6.50988
    endloop
  endfacet
  facet normal 1 0 0
    outer loop
      vertex -45.8 12.0671 7.10406
      vertex -45.8 3.8147e-07 12
      vertex -45.8 11.8632 6.825
    endloop
  endfacet
  facet normal 1 0 0
    outer loop
      vertex -45.8 12.3248 7.33488
      vertex -45.8 3.8147e-07 12
      vertex -45.8 12.0671 7.10406
    endloop
  endfacet
  facet normal 1 0 0
    outer loop
      vertex -45.8 12.6252 7.50735
      vertex -45.8 3.8147e-07 12
      vertex -45.8 12.3248 7.33488
    endloop
  endfacet
  facet normal 1 -0 0
    outer loop
      vertex -45.8 14.95 5.82753
      vertex -45.8 18.3 5
      vertex -45.8 14.95 6.17247
    endloop
  endfacet
  facet normal 1 -0 0
    outer loop
      vertex -45.8 14.8779 5.49012
      vertex -45.8 18.3 5
      vertex -45.8 14.95 5.82753
    endloop
  endfacet
  facet normal 1 -0 0
    outer loop
      vertex -45.8 14.7368 5.175
      vertex -45.8 18.3 5
      vertex -45.8 14.8779 5.49012
    endloop
  endfacet
  facet normal 1 0 0
    outer loop
      vertex -45.8 18.3 5
      vertex -45.8 14.7368 5.175
      vertex -45.8 14.609 5
    endloop
  endfacet
  facet normal 1 0 0
    outer loop
      vertex -45.8 11.65 6.17247
      vertex -45.8 3.8147e-07 5
      vertex -45.8 11.65 5.82753
    endloop
  endfacet
  facet normal 1 0 0
    outer loop
      vertex -45.8 11.65 5.82753
      vertex -45.8 3.8147e-07 5
      vertex -45.8 11.7221 5.49012
    endloop
  endfacet
  facet normal 1 0 0
    outer loop
      vertex -45.8 11.7221 5.49012
      vertex -45.8 3.8147e-07 5
      vertex -45.8 11.8632 5.175
    endloop
  endfacet
  facet normal 1 0 0
    outer loop
      vertex -45.8 11.8632 5.175
      vertex -45.8 3.8147e-07 5
      vertex -45.8 11.991 5
    endloop
  endfacet
  facet normal 0 0 0
    outer loop
      vertex -45.8 18.3 12
      vertex -45.8 18.3 5
      vertex -45.8 18.3 0
    endloop
  endfacet
  facet normal 0 0 -1
    outer loop
      vertex 44 14.65 0
      vertex 50.8 18.3 0
      vertex 50.8 0 0
    endloop
  endfacet
  facet normal 0 0 -1
    outer loop
      vertex 44 14.65 0
      vertex 50.8 0 0
      vertex 44 3.65 0
    endloop
  endfacet
  facet normal 0 0 -1
    outer loop
      vertex 50.8 0 0
      vertex 36 3.65 0
      vertex 44 3.65 0
    endloop
  endfacet
  facet normal 0 0 -1
    outer loop
      vertex 32.5718 5.36585 0
      vertex 36 3.65 0
      vertex 32.61 5 0
    endloop
  endfacet
  facet normal 0 0 -1
    outer loop
      vertex 36 3.65 0
      vertex 32.5718 4.63415 0
      vertex 32.61 5 0
    endloop
  endfacet
  facet normal 0 0 -1
    outer loop
      vertex 36 3.65 0
      vertex 32.4587 4.28429 0
      vertex 32.5718 4.63415 0
    endloop
  endfacet
  facet normal 0 0 -1
    outer loop
      vertex 31.0429 3.25 0
      vertex 36 3.65 0
      vertex 50.8 0 0
    endloop
  endfacet
  facet normal 0 0 -1
    outer loop
      vertex 36 3.65 0
      vertex 32.2758 3.96571 0
      vertex 32.4587 4.28429 0
    endloop
  endfacet
  facet normal 0 0 -1
    outer loop
      vertex 36 3.65 0
      vertex 32.031 3.69233 0
      vertex 32.2758 3.96571 0
    endloop
  endfacet
  facet normal -0 0 -1
    outer loop
      vertex 36 3.65 0
      vertex 31.735 3.47611 0
      vertex 32.031 3.69233 0
    endloop
  endfacet
  facet normal 0 0 -1
    outer loop
      vertex 36 3.65 0
      vertex 31.4008 3.32648 0
      vertex 31.735 3.47611 0
    endloop
  endfacet
  facet normal 0 0 -1
    outer loop
      vertex 36 3.65 0
      vertex 31.0429 3.25 0
      vertex 31.4008 3.32648 0
    endloop
  endfacet
  facet normal 0 0 -1
    outer loop
      vertex 50.8 0 0
      vertex 30.6771 3.25 0
      vertex 31.0429 3.25 0
    endloop
  endfacet
  facet normal -0 0 -1
    outer loop
      vertex 29.1482 4.63415 0
      vertex 26 3.65 0
      vertex 29.11 5 0
    endloop
  endfacet
  facet normal -0 0 -1
    outer loop
      vertex 29.2613 4.28429 0
      vertex 26 3.65 0
      vertex 29.1482 4.63415 0
    endloop
  endfacet
  facet normal -0 0 -1
    outer loop
      vertex 29.4442 3.96571 0
      vertex 26 3.65 0
      vertex 29.2613 4.28429 0
    endloop
  endfacet
  facet normal -0 0 -1
    outer loop
      vertex 29.689 3.69233 0
      vertex 26 3.65 0
      vertex 29.4442 3.96571 0
    endloop
  endfacet
  facet normal 0 0 -1
    outer loop
      vertex 29.985 3.47611 0
      vertex 26 3.65 0
      vertex 29.689 3.69233 0
    endloop
  endfacet
  facet normal 0 0 -1
    outer loop
      vertex 30.3192 3.32648 0
      vertex 26 3.65 0
      vertex 29.985 3.47611 0
    endloop
  endfacet
  facet normal 0 0 -1
    outer loop
      vertex 30.6771 3.25 0
      vertex 26 3.65 0
      vertex 30.3192 3.32648 0
    endloop
  endfacet
  facet normal 0 0 -1
    outer loop
      vertex 50.8 0 0
      vertex 26 3.65 0
      vertex 30.6771 3.25 0
    endloop
  endfacet
  facet normal 0 0 -1
    outer loop
      vertex 50.8 0 0
      vertex -26 3.65 0
      vertex 26 3.65 0
    endloop
  endfacet
  facet normal 0 0 -1
    outer loop
      vertex -29.1482 5.36585 0
      vertex -26 3.65 0
      vertex -29.11 5 0
    endloop
  endfacet
  facet normal 0 0 -1
    outer loop
      vertex -26 3.65 0
      vertex -29.1482 4.63415 0
      vertex -29.11 5 0
    endloop
  endfacet
  facet normal 0 0 -1
    outer loop
      vertex -26 3.65 0
      vertex -29.2613 4.28429 0
      vertex -29.1482 4.63415 0
    endloop
  endfacet
  facet normal 0 0 -1
    outer loop
      vertex -26 3.65 0
      vertex -29.4442 3.96571 0
      vertex -29.2613 4.28429 0
    endloop
  endfacet
  facet normal 0 0 -1
    outer loop
      vertex -26 3.65 0
      vertex -29.689 3.69233 0
      vertex -29.4442 3.96571 0
    endloop
  endfacet
  facet normal 0 0 -1
    outer loop
      vertex -50.8 0 0
      vertex -26 3.65 0
      vertex 50.8 0 0
    endloop
  endfacet
  facet normal -0 0 -1
    outer loop
      vertex -26 3.65 0
      vertex -29.985 3.47611 0
      vertex -29.689 3.69233 0
    endloop
  endfacet
  facet normal 0 0 -1
    outer loop
      vertex -26 3.65 0
      vertex -30.3192 3.32648 0
      vertex -29.985 3.47611 0
    endloop
  endfacet
  facet normal 0 0 -1
    outer loop
      vertex -26 3.65 0
      vertex -30.6771 3.25 0
      vertex -30.3192 3.32648 0
    endloop
  endfacet
  facet normal 0 0 -1
    outer loop
      vertex -26 3.65 0
      vertex -50.8 0 0
      vertex -30.6771 3.25 0
    endloop
  endfacet
  facet normal -0 0 -1
    outer loop
      vertex -32.5718 4.63415 0
      vertex -36 3.65 0
      vertex -32.61 5 0
    endloop
  endfacet
  facet normal -0 0 -1
    outer loop
      vertex -32.4587 4.28429 0
      vertex -36 3.65 0
      vertex -32.5718 4.63415 0
    endloop
  endfacet
  facet normal -0 0 -1
    outer loop
      vertex -32.2758 3.96571 0
      vertex -36 3.65 0
      vertex -32.4587 4.28429 0
    endloop
  endfacet
  facet normal -0 0 -1
    outer loop
      vertex -32.031 3.69233 0
      vertex -36 3.65 0
      vertex -32.2758 3.96571 0
    endloop
  endfacet
  facet normal 0 0 -1
    outer loop
      vertex -31.735 3.47611 0
      vertex -36 3.65 0
      vertex -32.031 3.69233 0
    endloop
  endfacet
  facet normal 0 0 -1
    outer loop
      vertex -31.4008 3.32648 0
      vertex -36 3.65 0
      vertex -31.735 3.47611 0
    endloop
  endfacet
  facet normal 0 0 -1
    outer loop
      vertex -31.0429 3.25 0
      vertex -36 3.65 0
      vertex -31.4008 3.32648 0
    endloop
  endfacet
  facet normal 0 0 -1
    outer loop
      vertex -50.8 0 0
      vertex -36 3.65 0
      vertex -31.0429 3.25 0
    endloop
  endfacet
  facet normal -0 0 -1
    outer loop
      vertex -30.6771 3.25 0
      vertex -50.8 0 0
      vertex -31.0429 3.25 0
    endloop
  endfacet
  facet normal 0 0 -1
    outer loop
      vertex -50.8 18.3 0
      vertex -44 14.65 0
      vertex -44 3.65 0
    endloop
  endfacet
  facet normal -0 0 -1
    outer loop
      vertex -36 3.65 0
      vertex -50.8 0 0
      vertex -44 3.65 0
    endloop
  endfacet
  facet normal 0 0 -1
    outer loop
      vertex -50.8 18.3 0
      vertex -44 3.65 0
      vertex -50.8 0 0
    endloop
  endfacet
  facet normal 0 0 -1
    outer loop
      vertex -44 14.65 0
      vertex -50.8 18.3 0
      vertex -45.8 18.3 0
    endloop
  endfacet
  facet normal -0 0 -1
    outer loop
      vertex 50.8 18.3 0
      vertex 44 14.65 0
      vertex 45.8 18.3 0
    endloop
  endfacet
  facet normal 0 0 -1
    outer loop
      vertex 36 14.65 0
      vertex 45.8 18.3 0
      vertex 44 14.65 0
    endloop
  endfacet
  facet normal 0 0 -1
    outer loop
      vertex 32.4587 5.71571 0
      vertex 36 3.65 0
      vertex 32.5718 5.36585 0
    endloop
  endfacet
  facet normal 0 0 -1
    outer loop
      vertex 32.2758 6.03429 0
      vertex 36 3.65 0
      vertex 32.4587 5.71571 0
    endloop
  endfacet
  facet normal 0 0 -1
    outer loop
      vertex 36 3.65 0
      vertex 32.2758 6.03429 0
      vertex 36 14.65 0
    endloop
  endfacet
  facet normal 0 0 -1
    outer loop
      vertex 32.031 6.30767 0
      vertex 36 14.65 0
      vertex 32.2758 6.03429 0
    endloop
  endfacet
  facet normal 0 0 -1
    outer loop
      vertex 31.735 6.52389 0
      vertex 36 14.65 0
      vertex 32.031 6.30767 0
    endloop
  endfacet
  facet normal 0 0 -1
    outer loop
      vertex 31.4008 6.67352 0
      vertex 36 14.65 0
      vertex 31.735 6.52389 0
    endloop
  endfacet
  facet normal 0 0 -1
    outer loop
      vertex 31.0429 6.75 0
      vertex 36 14.65 0
      vertex 31.4008 6.67352 0
    endloop
  endfacet
  facet normal 0 0 -1
    outer loop
      vertex 26 14.65 0
      vertex 31.0429 6.75 0
      vertex 30.6771 6.75 0
    endloop
  endfacet
  facet normal 0 0 -1
    outer loop
      vertex 26 14.65 0
      vertex 30.6771 6.75 0
      vertex 30.3192 6.67352 0
    endloop
  endfacet
  facet normal 0 0 -1
    outer loop
      vertex 26 14.65 0
      vertex 30.3192 6.67352 0
      vertex 29.985 6.52389 0
    endloop
  endfacet
  facet normal 0 0 -1
    outer loop
      vertex 26 14.65 0
      vertex 29.985 6.52389 0
      vertex 29.689 6.30767 0
    endloop
  endfacet
  facet normal 0 0 -1
    outer loop
      vertex 26 14.65 0
      vertex 29.689 6.30767 0
      vertex 29.4442 6.03429 0
    endloop
  endfacet
  facet normal 0 0 -1
    outer loop
      vertex 26 3.65 0
      vertex 29.1482 5.36585 0
      vertex 29.11 5 0
    endloop
  endfacet
  facet normal 0 0 -1
    outer loop
      vertex 26 3.65 0
      vertex 29.2613 5.71571 0
      vertex 29.1482 5.36585 0
    endloop
  endfacet
  facet normal 0 0 -1
    outer loop
      vertex 26 3.65 0
      vertex 29.4442 6.03429 0
      vertex 29.2613 5.71571 0
    endloop
  endfacet
  facet normal 0 0 -1
    outer loop
      vertex 26 14.65 0
      vertex 29.4442 6.03429 0
      vertex 26 3.65 0
    endloop
  endfacet
  facet normal 0 0 -1
    outer loop
      vertex 31.0429 6.75 0
      vertex 26 14.65 0
      vertex 36 14.65 0
    endloop
  endfacet
  facet normal 0 0 -1
    outer loop
      vertex 26 14.65 0
      vertex 45.8 18.3 0
      vertex 36 14.65 0
    endloop
  endfacet
  facet normal 0 0 -1
    outer loop
      vertex -26 14.65 0
      vertex 45.8 18.3 0
      vertex 26 14.65 0
    endloop
  endfacet
  facet normal 0 0 -1
    outer loop
      vertex -29.2613 5.71571 0
      vertex -26 3.65 0
      vertex -29.1482 5.36585 0
    endloop
  endfacet
  facet normal 0 0 -1
    outer loop
      vertex -29.4442 6.03429 0
      vertex -26 3.65 0
      vertex -29.2613 5.71571 0
    endloop
  endfacet
  facet normal 0 0 -1
    outer loop
      vertex -26 3.65 0
      vertex -29.4442 6.03429 0
      vertex -26 14.65 0
    endloop
  endfacet
  facet normal 0 0 -1
    outer loop
      vertex -29.689 6.30767 0
      vertex -26 14.65 0
      vertex -29.4442 6.03429 0
    endloop
  endfacet
  facet normal 0 0 -1
    outer loop
      vertex -29.985 6.52389 0
      vertex -26 14.65 0
      vertex -29.689 6.30767 0
    endloop
  endfacet
  facet normal 0 0 -1
    outer loop
      vertex -30.3192 6.67352 0
      vertex -26 14.65 0
      vertex -29.985 6.52389 0
    endloop
  endfacet
  facet normal 0 0 -1
    outer loop
      vertex -30.6771 6.75 0
      vertex -26 14.65 0
      vertex -30.3192 6.67352 0
    endloop
  endfacet
  facet normal 0 0 -1
    outer loop
      vertex -31.0429 6.75 0
      vertex -26 14.65 0
      vertex -30.6771 6.75 0
    endloop
  endfacet
  facet normal 0 0 -1
    outer loop
      vertex -36 14.65 0
      vertex -31.0429 6.75 0
      vertex -31.4008 6.67352 0
    endloop
  endfacet
  facet normal 0 0 -1
    outer loop
      vertex -36 14.65 0
      vertex -31.4008 6.67352 0
      vertex -31.735 6.52389 0
    endloop
  endfacet
  facet normal 0 0 -1
    outer loop
      vertex -36 14.65 0
      vertex -31.735 6.52389 0
      vertex -32.031 6.30767 0
    endloop
  endfacet
  facet normal 0 0 -1
    outer loop
      vertex -36 14.65 0
      vertex -32.031 6.30767 0
      vertex -32.2758 6.03429 0
    endloop
  endfacet
  facet normal 0 0 -1
    outer loop
      vertex -36 3.65 0
      vertex -32.5718 5.36585 0
      vertex -32.61 5 0
    endloop
  endfacet
  facet normal 0 0 -1
    outer loop
      vertex -36 3.65 0
      vertex -32.4587 5.71571 0
      vertex -32.5718 5.36585 0
    endloop
  endfacet
  facet normal 0 0 -1
    outer loop
      vertex -36 3.65 0
      vertex -32.2758 6.03429 0
      vertex -32.4587 5.71571 0
    endloop
  endfacet
  facet normal 0 0 -1
    outer loop
      vertex -36 14.65 0
      vertex -32.2758 6.03429 0
      vertex -36 3.65 0
    endloop
  endfacet
  facet normal 0 0 -1
    outer loop
      vertex -31.0429 6.75 0
      vertex -36 14.65 0
      vertex -26 14.65 0
    endloop
  endfacet
  facet normal 0 0 -1
    outer loop
      vertex -45.8 18.3 0
      vertex -26 14.65 0
      vertex -36 14.65 0
    endloop
  endfacet
  facet normal 0 0 -1
    outer loop
      vertex -45.8 18.3 0
      vertex -36 14.65 0
      vertex -44 14.65 0
    endloop
  endfacet
  facet normal 0 0 -1
    outer loop
      vertex -26 14.65 0
      vertex -45.8 18.3 0
      vertex 45.8 18.3 0
    endloop
  endfacet
  facet normal 0 -1 0
    outer loop
      vertex -50.8 3.8147e-07 5
      vertex -45.8 3.8147e-07 12
      vertex -50.8 3.8147e-07 12
    endloop
  endfacet
  facet normal 0 -1 -0
    outer loop
      vertex -45.8 3.8147e-07 12
      vertex -50.8 3.8147e-07 5
      vertex -45.8 3.8147e-07 5
    endloop
  endfacet
  facet normal -1 -0 0
    outer loop
      vertex 45.8 11.65 5.82753
      vertex 45.8 3.8147e-07 5
      vertex 45.8 11.65 6.17247
    endloop
  endfacet
  facet normal -1 -0 0
    outer loop
      vertex 45.8 11.7221 5.49012
      vertex 45.8 3.8147e-07 5
      vertex 45.8 11.65 5.82753
    endloop
  endfacet
  facet normal -1 -0 0
    outer loop
      vertex 45.8 11.8632 5.175
      vertex 45.8 3.8147e-07 5
      vertex 45.8 11.7221 5.49012
    endloop
  endfacet
  facet normal -1 0 0
    outer loop
      vertex 45.8 3.8147e-07 5
      vertex 45.8 11.8632 5.175
      vertex 45.8 11.991 5
    endloop
  endfacet
  facet normal -1 0 0
    outer loop
      vertex 45.8 14.95 6.17247
      vertex 45.8 18.3 5
      vertex 45.8 14.95 5.82753
    endloop
  endfacet
  facet normal -1 0 0
    outer loop
      vertex 45.8 18.3 5
      vertex 45.8 14.8779 5.49012
      vertex 45.8 14.95 5.82753
    endloop
  endfacet
  facet normal -1 0 0
    outer loop
      vertex 45.8 18.3 5
      vertex 45.8 14.7368 5.175
      vertex 45.8 14.8779 5.49012
    endloop
  endfacet
  facet normal -1 0 -0
    outer loop
      vertex 45.8 14.7368 5.175
      vertex 45.8 18.3 5
      vertex 45.8 14.609 5
    endloop
  endfacet
  facet normal -1 0 0
    outer loop
      vertex 45.8 14.8779 6.50988
      vertex 45.8 18.3 5
      vertex 45.8 14.95 6.17247
    endloop
  endfacet
  facet normal -1 0 0
    outer loop
      vertex 45.8 14.7368 6.825
      vertex 45.8 18.3 5
      vertex 45.8 14.8779 6.50988
    endloop
  endfacet
  facet normal -1 0 0
    outer loop
      vertex 45.8 18.3 5
      vertex 45.8 14.7368 6.825
      vertex 45.8 18.3 12
    endloop
  endfacet
  facet normal -1 0 0
    outer loop
      vertex 45.8 14.5329 7.10406
      vertex 45.8 18.3 12
      vertex 45.8 14.7368 6.825
    endloop
  endfacet
  facet normal -1 0 0
    outer loop
      vertex 45.8 14.2752 7.33488
      vertex 45.8 18.3 12
      vertex 45.8 14.5329 7.10406
    endloop
  endfacet
  facet normal -1 0 0
    outer loop
      vertex 45.8 13.9748 7.50735
      vertex 45.8 18.3 12
      vertex 45.8 14.2752 7.33488
    endloop
  endfacet
  facet normal -1 0 0
    outer loop
      vertex 45.8 13.6449 7.61394
      vertex 45.8 18.3 12
      vertex 45.8 13.9748 7.50735
    endloop
  endfacet
  facet normal -1 0 0
    outer loop
      vertex 45.8 13.3 7.65
      vertex 45.8 18.3 12
      vertex 45.8 13.6449 7.61394
    endloop
  endfacet
  facet normal -1 0 0
    outer loop
      vertex 45.8 12.9551 7.61394
      vertex 45.8 18.3 12
      vertex 45.8 13.3 7.65
    endloop
  endfacet
  facet normal -1 0 0
    outer loop
      vertex 45.8 12.6252 7.50735
      vertex 45.8 18.3 12
      vertex 45.8 12.9551 7.61394
    endloop
  endfacet
  facet normal -1 0 0
    outer loop
      vertex 45.8 3.8147e-07 12
      vertex 45.8 12.6252 7.50735
      vertex 45.8 12.3248 7.33488
    endloop
  endfacet
  facet normal -1 0 0
    outer loop
      vertex 45.8 3.8147e-07 5
      vertex 45.8 11.7221 6.50988
      vertex 45.8 11.65 6.17247
    endloop
  endfacet
  facet normal -1 0 0
    outer loop
      vertex 45.8 3.8147e-07 12
      vertex 45.8 11.7221 6.50988
      vertex 45.8 3.8147e-07 5
    endloop
  endfacet
  facet normal -1 0 0
    outer loop
      vertex 45.8 11.7221 6.50988
      vertex 45.8 3.8147e-07 12
      vertex 45.8 11.8632 6.825
    endloop
  endfacet
  facet normal -1 0 0
    outer loop
      vertex 45.8 11.8632 6.825
      vertex 45.8 3.8147e-07 12
      vertex 45.8 12.0671 7.10406
    endloop
  endfacet
  facet normal -1 0 0
    outer loop
      vertex 45.8 12.0671 7.10406
      vertex 45.8 3.8147e-07 12
      vertex 45.8 12.3248 7.33488
    endloop
  endfacet
  facet normal -1 0 0
    outer loop
      vertex 45.8 12.6252 7.50735
      vertex 45.8 3.8147e-07 12
      vertex 45.8 18.3 12
    endloop
  endfacet
  facet normal 0 0 0
    outer loop
      vertex 45.8 18.3 12
      vertex 45.8 18.3 0
      vertex 45.8 18.3 5
    endloop
  endfacet
  facet normal -0 0 1
    outer loop
      vertex 45.8 18.3 12
      vertex 50.8 3.8147e-07 12
      vertex 50.8 18.3 12
    endloop
  endfacet
  facet normal 0 0 1
    outer loop
      vertex 50.8 3.8147e-07 12
      vertex 45.8 18.3 12
      vertex 45.8 3.8147e-07 12
    endloop
  endfacet
  facet normal 1 0 0
    outer loop
      vertex 50.8 18.3 12
      vertex 50.8 14.95 6.17247
      vertex 50.8 18.3 0
    endloop
  endfacet
  facet normal 1 0 0
    outer loop
      vertex 50.8 18.3 12
      vertex 50.8 14.8779 6.50988
      vertex 50.8 14.95 6.17247
    endloop
  endfacet
  facet normal 1 0 0
    outer loop
      vertex 50.8 18.3 12
      vertex 50.8 14.7368 6.825
      vertex 50.8 14.8779 6.50988
    endloop
  endfacet
  facet normal 1 0 0
    outer loop
      vertex 50.8 18.3 12
      vertex 50.8 14.5329 7.10406
      vertex 50.8 14.7368 6.825
    endloop
  endfacet
  facet normal 1 0 0
    outer loop
      vertex 50.8 18.3 12
      vertex 50.8 14.2752 7.33488
      vertex 50.8 14.5329 7.10406
    endloop
  endfacet
  facet normal 1 0 0
    outer loop
      vertex 50.8 18.3 12
      vertex 50.8 13.9748 7.50735
      vertex 50.8 14.2752 7.33488
    endloop
  endfacet
  facet normal 1 0 0
    outer loop
      vertex 50.8 18.3 12
      vertex 50.8 13.6449 7.61394
      vertex 50.8 13.9748 7.50735
    endloop
  endfacet
  facet normal 1 0 0
    outer loop
      vertex 50.8 18.3 12
      vertex 50.8 13.3 7.65
      vertex 50.8 13.6449 7.61394
    endloop
  endfacet
  facet normal 1 0 0
    outer loop
      vertex 50.8 18.3 12
      vertex 50.8 12.9551 7.61394
      vertex 50.8 13.3 7.65
    endloop
  endfacet
  facet normal 1 0 0
    outer loop
      vertex 50.8 18.3 12
      vertex 50.8 12.6252 7.50735
      vertex 50.8 12.9551 7.61394
    endloop
  endfacet
  facet normal 1 -0 0
    outer loop
      vertex 50.8 3.8147e-07 12
      vertex 50.8 12.6252 7.50735
      vertex 50.8 18.3 12
    endloop
  endfacet
  facet normal 1 0 0
    outer loop
      vertex 50.8 11.7221 6.50988
      vertex 50.8 3.8147e-07 5
      vertex 50.8 11.65 6.17247
    endloop
  endfacet
  facet normal 1 0 0
    outer loop
      vertex 50.8 3.8147e-07 5
      vertex 50.8 11.7221 6.50988
      vertex 50.8 3.8147e-07 12
    endloop
  endfacet
  facet normal 1 0 0
    outer loop
      vertex 50.8 11.8632 6.825
      vertex 50.8 3.8147e-07 12
      vertex 50.8 11.7221 6.50988
    endloop
  endfacet
  facet normal 1 0 0
    outer loop
      vertex 50.8 12.0671 7.10406
      vertex 50.8 3.8147e-07 12
      vertex 50.8 11.8632 6.825
    endloop
  endfacet
  facet normal 1 0 0
    outer loop
      vertex 50.8 12.3248 7.33488
      vertex 50.8 3.8147e-07 12
      vertex 50.8 12.0671 7.10406
    endloop
  endfacet
  facet normal 1 0 0
    outer loop
      vertex 50.8 12.6252 7.50735
      vertex 50.8 3.8147e-07 12
      vertex 50.8 12.3248 7.33488
    endloop
  endfacet
  facet normal 1 -0 0
    outer loop
      vertex 50.8 14.95 5.82753
      vertex 50.8 18.3 0
      vertex 50.8 14.95 6.17247
    endloop
  endfacet
  facet normal 1 -0 0
    outer loop
      vertex 50.8 14.8779 5.49012
      vertex 50.8 18.3 0
      vertex 50.8 14.95 5.82753
    endloop
  endfacet
  facet normal 1 -0 0
    outer loop
      vertex 50.8 14.7368 5.175
      vertex 50.8 18.3 0
      vertex 50.8 14.8779 5.49012
    endloop
  endfacet
  facet normal 1 -0 0
    outer loop
      vertex 50.8 14.5329 4.89593
      vertex 50.8 18.3 0
      vertex 50.8 14.7368 5.175
    endloop
  endfacet
  facet normal 1 -0 0
    outer loop
      vertex 50.8 14.2752 4.66512
      vertex 50.8 18.3 0
      vertex 50.8 14.5329 4.89593
    endloop
  endfacet
  facet normal 1 -0 0
    outer loop
      vertex 50.8 13.9748 4.49265
      vertex 50.8 18.3 0
      vertex 50.8 14.2752 4.66512
    endloop
  endfacet
  facet normal 1 -0 0
    outer loop
      vertex 50.8 13.6449 4.38606
      vertex 50.8 18.3 0
      vertex 50.8 13.9748 4.49265
    endloop
  endfacet
  facet normal 1 -0 0
    outer loop
      vertex 50.8 13.3 4.35
      vertex 50.8 18.3 0
      vertex 50.8 13.6449 4.38606
    endloop
  endfacet
  facet normal 1 0 0
    outer loop
      vertex 50.8 12.9551 4.38606
      vertex 50.8 18.3 0
      vertex 50.8 13.3 4.35
    endloop
  endfacet
  facet normal 1 0 0
    outer loop
      vertex 50.8 12.6252 4.49265
      vertex 50.8 18.3 0
      vertex 50.8 12.9551 4.38606
    endloop
  endfacet
  facet normal 1 0 0
    outer loop
      vertex 50.8 0 0
      vertex 50.8 12.6252 4.49265
      vertex 50.8 12.3248 4.66512
    endloop
  endfacet
  facet normal 1 0 0
    outer loop
      vertex 50.8 11.65 6.17247
      vertex 50.8 3.8147e-07 5
      vertex 50.8 11.65 5.82753
    endloop
  endfacet
  facet normal 1 0 0
    outer loop
      vertex 50.8 11.65 5.82753
      vertex 50.8 3.8147e-07 5
      vertex 50.8 11.7221 5.49012
    endloop
  endfacet
  facet normal 1 0 0
    outer loop
      vertex 50.8 11.7221 5.49012
      vertex 50.8 3.8147e-07 5
      vertex 50.8 11.8632 5.175
    endloop
  endfacet
  facet normal 1 0 0
    outer loop
      vertex 50.8 0 0
      vertex 50.8 11.8632 5.175
      vertex 50.8 3.8147e-07 5
    endloop
  endfacet
  facet normal 1 0 0
    outer loop
      vertex 50.8 11.8632 5.175
      vertex 50.8 0 0
      vertex 50.8 12.0671 4.89593
    endloop
  endfacet
  facet normal 1 0 0
    outer loop
      vertex 50.8 12.0671 4.89593
      vertex 50.8 0 0
      vertex 50.8 12.3248 4.66512
    endloop
  endfacet
  facet normal 1 0 0
    outer loop
      vertex 50.8 0 0
      vertex 50.8 3.8147e-07 5
      vertex 50.8 0 5
    endloop
  endfacet
  facet normal 1 0 0
    outer loop
      vertex 50.8 12.6252 4.49265
      vertex 50.8 0 0
      vertex 50.8 18.3 0
    endloop
  endfacet
  facet normal 0 1 -0
    outer loop
      vertex 50.8 18.3 0
      vertex 45.8 18.3 12
      vertex 50.8 18.3 12
    endloop
  endfacet
  facet normal 0 1 0
    outer loop
      vertex 45.8 18.3 12
      vertex 50.8 18.3 0
      vertex 45.8 18.3 0
    endloop
  endfacet
  facet normal 0 -1 0
    outer loop
      vertex 45.8 3.8147e-07 5
      vertex 50.8 3.8147e-07 12
      vertex 45.8 3.8147e-07 12
    endloop
  endfacet
  facet normal 0 -1 -0
    outer loop
      vertex 50.8 3.8147e-07 12
      vertex 45.8 3.8147e-07 5
      vertex 50.8 3.8147e-07 5
    endloop
  endfacet
  facet normal 0 0 1
    outer loop
      vertex -44 11.991 5
      vertex -45.8 11.991 5
      vertex -44 3.65 5
    endloop
  endfacet
  facet normal 0 0 1
    outer loop
      vertex 45.8 18.3 5
      vertex 44 14.65 5
      vertex 45.8 14.609 5
    endloop
  endfacet
  facet normal 0 0 1
    outer loop
      vertex 45.8 18.3 5
      vertex 36 14.65 5
      vertex 44 14.65 5
    endloop
  endfacet
  facet normal -0 0 1
    outer loop
      vertex 32.2758 6.03429 5
      vertex 36 3.65 5
      vertex 36 14.65 5
    endloop
  endfacet
  facet normal 0 0 1
    outer loop
      vertex 36 3.65 5
      vertex 32.5718 5.36585 5
      vertex 32.61 5 5
    endloop
  endfacet
  facet normal 0 0 1
    outer loop
      vertex 36 3.65 5
      vertex 32.4587 5.71571 5
      vertex 32.5718 5.36585 5
    endloop
  endfacet
  facet normal 0 0 1
    outer loop
      vertex 36 3.65 5
      vertex 32.2758 6.03429 5
      vertex 32.4587 5.71571 5
    endloop
  endfacet
  facet normal 0 0 1
    outer loop
      vertex 36 14.65 5
      vertex 32.031 6.30767 5
      vertex 32.2758 6.03429 5
    endloop
  endfacet
  facet normal 0 0 1
    outer loop
      vertex 36 14.65 5
      vertex 31.735 6.52389 5
      vertex 32.031 6.30767 5
    endloop
  endfacet
  facet normal 0 0 1
    outer loop
      vertex 36 14.65 5
      vertex 31.4008 6.67352 5
      vertex 31.735 6.52389 5
    endloop
  endfacet
  facet normal 0 0 1
    outer loop
      vertex 36 14.65 5
      vertex 31.0429 6.75 5
      vertex 31.4008 6.67352 5
    endloop
  endfacet
  facet normal -0 0 1
    outer loop
      vertex 26 14.65 5
      vertex 31.0429 6.75 5
      vertex 36 14.65 5
    endloop
  endfacet
  facet normal 0 0 1
    outer loop
      vertex 31.0429 6.75 5
      vertex 26 14.65 5
      vertex 30.6771 6.75 5
    endloop
  endfacet
  facet normal 0 0 1
    outer loop
      vertex 30.6771 6.75 5
      vertex 26 14.65 5
      vertex 30.3192 6.67352 5
    endloop
  endfacet
  facet normal 0 0 1
    outer loop
      vertex 30.3192 6.67352 5
      vertex 26 14.65 5
      vertex 29.985 6.52389 5
    endloop
  endfacet
  facet normal 0 0 1
    outer loop
      vertex 29.985 6.52389 5
      vertex 26 14.65 5
      vertex 29.689 6.30767 5
    endloop
  endfacet
  facet normal 0 0 1
    outer loop
      vertex 29.2613 5.71571 5
      vertex 26 3.65 5
      vertex 29.1482 5.36585 5
    endloop
  endfacet
  facet normal 0 0 1
    outer loop
      vertex 29.4442 6.03429 5
      vertex 26 3.65 5
      vertex 29.2613 5.71571 5
    endloop
  endfacet
  facet normal 0 0 1
    outer loop
      vertex 26 3.65 5
      vertex 29.4442 6.03429 5
      vertex 26 14.65 5
    endloop
  endfacet
  facet normal 0 0 1
    outer loop
      vertex 29.689 6.30767 5
      vertex 26 14.65 5
      vertex 29.4442 6.03429 5
    endloop
  endfacet
  facet normal 0 0 1
    outer loop
      vertex 45.8 18.3 5
      vertex 26 14.65 5
      vertex 36 14.65 5
    endloop
  endfacet
  facet normal 0 0 1
    outer loop
      vertex 45.8 18.3 5
      vertex -26 14.65 5
      vertex 26 14.65 5
    endloop
  endfacet
  facet normal -0 0 1
    outer loop
      vertex -29.4442 6.03429 5
      vertex -26 3.65 5
      vertex -26 14.65 5
    endloop
  endfacet
  facet normal 0 0 1
    outer loop
      vertex -26 3.65 5
      vertex -29.1482 5.36585 5
      vertex -29.11 5 5
    endloop
  endfacet
  facet normal 0 0 1
    outer loop
      vertex -26 3.65 5
      vertex -29.2613 5.71571 5
      vertex -29.1482 5.36585 5
    endloop
  endfacet
  facet normal 0 0 1
    outer loop
      vertex -26 3.65 5
      vertex -29.4442 6.03429 5
      vertex -29.2613 5.71571 5
    endloop
  endfacet
  facet normal 0 0 1
    outer loop
      vertex -26 14.65 5
      vertex -29.689 6.30767 5
      vertex -29.4442 6.03429 5
    endloop
  endfacet
  facet normal 0 0 1
    outer loop
      vertex -26 14.65 5
      vertex -29.985 6.52389 5
      vertex -29.689 6.30767 5
    endloop
  endfacet
  facet normal 0 0 1
    outer loop
      vertex -26 14.65 5
      vertex -30.3192 6.67352 5
      vertex -29.985 6.52389 5
    endloop
  endfacet
  facet normal 0 0 1
    outer loop
      vertex -26 14.65 5
      vertex -30.6771 6.75 5
      vertex -30.3192 6.67352 5
    endloop
  endfacet
  facet normal 0 0 1
    outer loop
      vertex -26 14.65 5
      vertex -31.0429 6.75 5
      vertex -30.6771 6.75 5
    endloop
  endfacet
  facet normal -0 0 1
    outer loop
      vertex -36 14.65 5
      vertex -31.0429 6.75 5
      vertex -26 14.65 5
    endloop
  endfacet
  facet normal 0 0 1
    outer loop
      vertex -31.0429 6.75 5
      vertex -36 14.65 5
      vertex -31.4008 6.67352 5
    endloop
  endfacet
  facet normal 0 0 1
    outer loop
      vertex -31.4008 6.67352 5
      vertex -36 14.65 5
      vertex -31.735 6.52389 5
    endloop
  endfacet
  facet normal 0 0 1
    outer loop
      vertex -31.735 6.52389 5
      vertex -36 14.65 5
      vertex -32.031 6.30767 5
    endloop
  endfacet
  facet normal 0 0 1
    outer loop
      vertex -32.4587 5.71571 5
      vertex -36 3.65 5
      vertex -32.5718 5.36585 5
    endloop
  endfacet
  facet normal 0 0 1
    outer loop
      vertex -32.2758 6.03429 5
      vertex -36 3.65 5
      vertex -32.4587 5.71571 5
    endloop
  endfacet
  facet normal 0 0 1
    outer loop
      vertex -36 3.65 5
      vertex -32.2758 6.03429 5
      vertex -36 14.65 5
    endloop
  endfacet
  facet normal 0 0 1
    outer loop
      vertex -32.031 6.30767 5
      vertex -36 14.65 5
      vertex -32.2758 6.03429 5
    endloop
  endfacet
  facet normal -0 0 1
    outer loop
      vertex -45.8 18.3 5
      vertex -26 14.65 5
      vertex 45.8 18.3 5
    endloop
  endfacet
  facet normal 0 0 1
    outer loop
      vertex -26 14.65 5
      vertex -45.8 18.3 5
      vertex -36 14.65 5
    endloop
  endfacet
  facet normal 0 0 1
    outer loop
      vertex -36 14.65 5
      vertex -45.8 18.3 5
      vertex -44 14.65 5
    endloop
  endfacet
  facet normal 0 0 1
    outer loop
      vertex -45.8 14.609 5
      vertex -44 14.65 5
      vertex -45.8 18.3 5
    endloop
  endfacet
  facet normal 0 0 1
    outer loop
      vertex -44 14.65 5
      vertex -45.8 14.609 5
      vertex -44 14.609 5
    endloop
  endfacet
  facet normal 0 0 1
    outer loop
      vertex 45.8 14.609 5
      vertex 44 14.65 5
      vertex 44 14.609 5
    endloop
  endfacet
  facet normal 0 0 1
    outer loop
      vertex 44 3.65 5
      vertex 45.8 11.991 5
      vertex 44 11.991 5
    endloop
  endfacet
  facet normal -0 0 1
    outer loop
      vertex 45.8 3.8147e-07 5
      vertex 50.8 0 5
      vertex 50.8 3.8147e-07 5
    endloop
  endfacet
  facet normal 0 0 1
    outer loop
      vertex 45.8 11.991 5
      vertex 44 3.65 5
      vertex 45.8 3.8147e-07 5
    endloop
  endfacet
  facet normal -0 0 1
    outer loop
      vertex 36 3.65 5
      vertex 45.8 3.8147e-07 5
      vertex 44 3.65 5
    endloop
  endfacet
  facet normal -0 0 1
    outer loop
      vertex 32.5718 4.63415 5
      vertex 36 3.65 5
      vertex 32.61 5 5
    endloop
  endfacet
  facet normal -0 0 1
    outer loop
      vertex 32.4587 4.28429 5
      vertex 36 3.65 5
      vertex 32.5718 4.63415 5
    endloop
  endfacet
  facet normal -0 0 1
    outer loop
      vertex 32.2758 3.96571 5
      vertex 36 3.65 5
      vertex 32.4587 4.28429 5
    endloop
  endfacet
  facet normal -0 0 1
    outer loop
      vertex 32.031 3.69233 5
      vertex 36 3.65 5
      vertex 32.2758 3.96571 5
    endloop
  endfacet
  facet normal 0 0 1
    outer loop
      vertex 31.735 3.47611 5
      vertex 36 3.65 5
      vertex 32.031 3.69233 5
    endloop
  endfacet
  facet normal 0 0 1
    outer loop
      vertex 31.4008 3.32648 5
      vertex 36 3.65 5
      vertex 31.735 3.47611 5
    endloop
  endfacet
  facet normal 0 0 1
    outer loop
      vertex 36 3.65 5
      vertex 31.4008 3.32648 5
      vertex 45.8 3.8147e-07 5
    endloop
  endfacet
  facet normal -0 0 1
    outer loop
      vertex 31.0429 3.25 5
      vertex 45.8 3.8147e-07 5
      vertex 31.4008 3.32648 5
    endloop
  endfacet
  facet normal -0 0 1
    outer loop
      vertex 30.6771 3.25 5
      vertex 45.8 3.8147e-07 5
      vertex 31.0429 3.25 5
    endloop
  endfacet
  facet normal 0 0 1
    outer loop
      vertex 26 3.65 5
      vertex 30.6771 3.25 5
      vertex 30.3192 3.32648 5
    endloop
  endfacet
  facet normal 0 0 1
    outer loop
      vertex 29.1482 5.36585 5
      vertex 26 3.65 5
      vertex 29.11 5 5
    endloop
  endfacet
  facet normal 0 0 1
    outer loop
      vertex 29.11 5 5
      vertex 26 3.65 5
      vertex 29.1482 4.63415 5
    endloop
  endfacet
  facet normal 0 0 1
    outer loop
      vertex 26 3.65 5
      vertex 29.2613 4.28429 5
      vertex 29.1482 4.63415 5
    endloop
  endfacet
  facet normal 0 0 1
    outer loop
      vertex 26 3.65 5
      vertex 29.4442 3.96571 5
      vertex 29.2613 4.28429 5
    endloop
  endfacet
  facet normal 0 0 1
    outer loop
      vertex 26 3.65 5
      vertex 29.689 3.69233 5
      vertex 29.4442 3.96571 5
    endloop
  endfacet
  facet normal -0 0 1
    outer loop
      vertex 26 3.65 5
      vertex 29.985 3.47611 5
      vertex 29.689 3.69233 5
    endloop
  endfacet
  facet normal 0 0 1
    outer loop
      vertex 26 3.65 5
      vertex 30.3192 3.32648 5
      vertex 29.985 3.47611 5
    endloop
  endfacet
  facet normal 0 0 1
    outer loop
      vertex 30.6771 3.25 5
      vertex 26 3.65 5
      vertex 45.8 3.8147e-07 5
    endloop
  endfacet
  facet normal -0 0 1
    outer loop
      vertex -26 3.65 5
      vertex 45.8 3.8147e-07 5
      vertex 26 3.65 5
    endloop
  endfacet
  facet normal -0 0 1
    outer loop
      vertex -29.1482 4.63415 5
      vertex -26 3.65 5
      vertex -29.11 5 5
    endloop
  endfacet
  facet normal -0 0 1
    outer loop
      vertex -29.2613 4.28429 5
      vertex -26 3.65 5
      vertex -29.1482 4.63415 5
    endloop
  endfacet
  facet normal -0 0 1
    outer loop
      vertex -29.4442 3.96571 5
      vertex -26 3.65 5
      vertex -29.2613 4.28429 5
    endloop
  endfacet
  facet normal -0 0 1
    outer loop
      vertex -29.689 3.69233 5
      vertex -26 3.65 5
      vertex -29.4442 3.96571 5
    endloop
  endfacet
  facet normal 0 0 1
    outer loop
      vertex -29.985 3.47611 5
      vertex -26 3.65 5
      vertex -29.689 3.69233 5
    endloop
  endfacet
  facet normal 0 0 1
    outer loop
      vertex -30.3192 3.32648 5
      vertex -26 3.65 5
      vertex -29.985 3.47611 5
    endloop
  endfacet
  facet normal 0 0 1
    outer loop
      vertex -30.6771 3.25 5
      vertex -26 3.65 5
      vertex -30.3192 3.32648 5
    endloop
  endfacet
  facet normal 0 0 1
    outer loop
      vertex -45.8 3.8147e-07 5
      vertex -26 3.65 5
      vertex -30.6771 3.25 5
    endloop
  endfacet
  facet normal 0 0 1
    outer loop
      vertex -45.8 3.8147e-07 5
      vertex -30.6771 3.25 5
      vertex -31.0429 3.25 5
    endloop
  endfacet
  facet normal 0 0 1
    outer loop
      vertex -32.5718 5.36585 5
      vertex -36 3.65 5
      vertex -32.61 5 5
    endloop
  endfacet
  facet normal 0 0 1
    outer loop
      vertex -32.61 5 5
      vertex -36 3.65 5
      vertex -32.5718 4.63415 5
    endloop
  endfacet
  facet normal 0 0 1
    outer loop
      vertex -32.5718 4.63415 5
      vertex -36 3.65 5
      vertex -32.4587 4.28429 5
    endloop
  endfacet
  facet normal 0 0 1
    outer loop
      vertex -36 3.65 5
      vertex -32.2758 3.96571 5
      vertex -32.4587 4.28429 5
    endloop
  endfacet
  facet normal 0 0 1
    outer loop
      vertex -36 3.65 5
      vertex -32.031 3.69233 5
      vertex -32.2758 3.96571 5
    endloop
  endfacet
  facet normal -0 0 1
    outer loop
      vertex -36 3.65 5
      vertex -31.735 3.47611 5
      vertex -32.031 3.69233 5
    endloop
  endfacet
  facet normal 0 0 1
    outer loop
      vertex -36 3.65 5
      vertex -31.4008 3.32648 5
      vertex -31.735 3.47611 5
    endloop
  endfacet
  facet normal 0 0 1
    outer loop
      vertex -36 3.65 5
      vertex -31.0429 3.25 5
      vertex -31.4008 3.32648 5
    endloop
  endfacet
  facet normal 0 0 1
    outer loop
      vertex -45.8 3.8147e-07 5
      vertex -36 3.65 5
      vertex -44 3.65 5
    endloop
  endfacet
  facet normal 0 0 1
    outer loop
      vertex -36 3.65 5
      vertex -45.8 3.8147e-07 5
      vertex -31.0429 3.25 5
    endloop
  endfacet
  facet normal 0 0 1
    outer loop
      vertex -45.8 3.8147e-07 5
      vertex -44 3.65 5
      vertex -45.8 11.991 5
    endloop
  endfacet
  facet normal 0 0 1
    outer loop
      vertex -26 3.65 5
      vertex -45.8 3.8147e-07 5
      vertex 45.8 3.8147e-07 5
    endloop
  endfacet
  facet normal -0 0 1
    outer loop
      vertex -45.8 3.8147e-07 5
      vertex 50.8 0 5
      vertex 45.8 3.8147e-07 5
    endloop
  endfacet
  facet normal 0 0 1
    outer loop
      vertex -50.8 0 5
      vertex -45.8 3.8147e-07 5
      vertex -50.8 3.8147e-07 5
    endloop
  endfacet
  facet normal 0 0 1
    outer loop
      vertex -45.8 3.8147e-07 5
      vertex -50.8 0 5
      vertex 50.8 0 5
    endloop
  endfacet
  facet normal 0 1 -0
    outer loop
      vertex 45.8 18.3 0
      vertex -45.8 18.3 5
      vertex 45.8 18.3 5
    endloop
  endfacet
  facet normal 0 1 0
    outer loop
      vertex -45.8 18.3 5
      vertex 45.8 18.3 0
      vertex -45.8 18.3 0
    endloop
  endfacet
  facet normal 0 -1 0
    outer loop
      vertex -50.8 0 0
      vertex 50.8 0 5
      vertex -50.8 0 5
    endloop
  endfacet
  facet normal 0 -1 -0
    outer loop
      vertex 50.8 0 5
      vertex -50.8 0 0
      vertex 50.8 0 0
    endloop
  endfacet
  facet normal 1 -0 0
    outer loop
      vertex -26 3.65 5
      vertex -26 14.65 0
      vertex -26 14.65 5
    endloop
  endfacet
  facet normal 1 0 0
    outer loop
      vertex -26 14.65 0
      vertex -26 3.65 5
      vertex -26 3.65 0
    endloop
  endfacet
  facet normal -1 0 0
    outer loop
      vertex 26 3.65 0
      vertex 26 14.65 5
      vertex 26 14.65 0
    endloop
  endfacet
  facet normal -1 -0 0
    outer loop
      vertex 26 14.65 5
      vertex 26 3.65 0
      vertex 26 3.65 5
    endloop
  endfacet
  facet normal 0 -1 0
    outer loop
      vertex -26 14.65 0
      vertex 26 14.65 5
      vertex -26 14.65 5
    endloop
  endfacet
  facet normal 0 -1 -0
    outer loop
      vertex 26 14.65 5
      vertex -26 14.65 0
      vertex 26 14.65 0
    endloop
  endfacet
  facet normal 0 1 -0
    outer loop
      vertex 26 3.65 0
      vertex -26 3.65 5
      vertex 26 3.65 5
    endloop
  endfacet
  facet normal 0 1 0
    outer loop
      vertex -26 3.65 5
      vertex 26 3.65 0
      vertex -26 3.65 0
    endloop
  endfacet
  facet normal 1 -0 0
    outer loop
      vertex 36 3.65 5
      vertex 36 14.65 0
      vertex 36 14.65 5
    endloop
  endfacet
  facet normal 1 0 0
    outer loop
      vertex 36 14.65 0
      vertex 36 3.65 5
      vertex 36 3.65 0
    endloop
  endfacet
  facet normal -1 0 0
    outer loop
      vertex 44 14.5329 4.89593
      vertex 44 14.65 5
      vertex 44 14.65 0
    endloop
  endfacet
  facet normal -1 -0 0
    outer loop
      vertex 44 14.65 5
      vertex 44 14.5329 4.89593
      vertex 44 14.609 5
    endloop
  endfacet
  facet normal -1 0 0
    outer loop
      vertex 44 14.65 0
      vertex 44 14.2752 4.66512
      vertex 44 14.5329 4.89593
    endloop
  endfacet
  facet normal -1 0 0
    outer loop
      vertex 44 14.65 0
      vertex 44 13.9748 4.49265
      vertex 44 14.2752 4.66512
    endloop
  endfacet
  facet normal -1 0 0
    outer loop
      vertex 44 14.65 0
      vertex 44 13.6449 4.38606
      vertex 44 13.9748 4.49265
    endloop
  endfacet
  facet normal -1 0 0
    outer loop
      vertex 44 14.65 0
      vertex 44 13.3 4.35
      vertex 44 13.6449 4.38606
    endloop
  endfacet
  facet normal -1 0 0
    outer loop
      vertex 44 14.65 0
      vertex 44 12.9551 4.38606
      vertex 44 13.3 4.35
    endloop
  endfacet
  facet normal -1 0 0
    outer loop
      vertex 44 14.65 0
      vertex 44 12.6252 4.49265
      vertex 44 12.9551 4.38606
    endloop
  endfacet
  facet normal -1 0 0
    outer loop
      vertex 44 14.65 0
      vertex 44 12.3248 4.66512
      vertex 44 12.6252 4.49265
    endloop
  endfacet
  facet normal -1 0 0
    outer loop
      vertex 44 3.65 0
      vertex 44 12.3248 4.66512
      vertex 44 14.65 0
    endloop
  endfacet
  facet normal -1 -0 0
    outer loop
      vertex 44 12.3248 4.66512
      vertex 44 3.65 0
      vertex 44 12.0671 4.89593
    endloop
  endfacet
  facet normal -1 -0 0
    outer loop
      vertex 44 12.0671 4.89593
      vertex 44 3.65 0
      vertex 44 11.991 5
    endloop
  endfacet
  facet normal -1 -0 0
    outer loop
      vertex 44 11.991 5
      vertex 44 3.65 0
      vertex 44 3.65 5
    endloop
  endfacet
  facet normal 0 1 -0
    outer loop
      vertex 44 3.65 0
      vertex 36 3.65 5
      vertex 44 3.65 5
    endloop
  endfacet
  facet normal 0 1 0
    outer loop
      vertex 36 3.65 5
      vertex 44 3.65 0
      vertex 36 3.65 0
    endloop
  endfacet
  facet normal 0 -1 0
    outer loop
      vertex 36 14.65 0
      vertex 44 14.65 5
      vertex 36 14.65 5
    endloop
  endfacet
  facet normal 0 -1 -0
    outer loop
      vertex 44 14.65 5
      vertex 36 14.65 0
      vertex 44 14.65 0
    endloop
  endfacet
  facet normal -0.994593 -0.10385 0
    outer loop
      vertex 32.61 5 0
      vertex 32.5718 5.36585 5
      vertex 32.5718 5.36585 0
    endloop
  endfacet
  facet normal -0.994593 -0.10385 0
    outer loop
      vertex 32.5718 5.36585 5
      vertex 32.61 5 0
      vertex 32.61 5 5
    endloop
  endfacet
  facet normal 0 -1 0
    outer loop
      vertex 30.6771 6.75 0
      vertex 31.0429 6.75 5
      vertex 30.6771 6.75 5
    endloop
  endfacet
  facet normal 0 -1 -0
    outer loop
      vertex 31.0429 6.75 5
      vertex 30.6771 6.75 0
      vertex 31.0429 6.75 0
    endloop
  endfacet
  facet normal -0.208973 0.977921 0
    outer loop
      vertex 31.4008 3.32648 0
      vertex 31.0429 3.25 5
      vertex 31.4008 3.32648 5
    endloop
  endfacet
  facet normal -0.208973 0.977921 0
    outer loop
      vertex 31.0429 3.25 5
      vertex 31.4008 3.32648 0
      vertex 31.0429 3.25 0
    endloop
  endfacet
  facet normal -0.589861 -0.807505 0
    outer loop
      vertex 31.735 6.52389 0
      vertex 32.031 6.30767 5
      vertex 31.735 6.52389 5
    endloop
  endfacet
  facet normal -0.589861 -0.807505 -0
    outer loop
      vertex 32.031 6.30767 5
      vertex 31.735 6.52389 0
      vertex 32.031 6.30767 0
    endloop
  endfacet
  facet normal 0.744975 -0.667093 0
    outer loop
      vertex 29.4442 6.03429 5
      vertex 29.689 6.30767 0
      vertex 29.689 6.30767 5
    endloop
  endfacet
  facet normal 0.744975 -0.667093 0
    outer loop
      vertex 29.689 6.30767 0
      vertex 29.4442 6.03429 5
      vertex 29.4442 6.03429 0
    endloop
  endfacet
  facet normal 0.408638 -0.912697 0
    outer loop
      vertex 29.985 6.52389 0
      vertex 30.3192 6.67352 5
      vertex 29.985 6.52389 5
    endloop
  endfacet
  facet normal 0.408638 -0.912697 0
    outer loop
      vertex 30.3192 6.67352 5
      vertex 29.985 6.52389 0
      vertex 30.3192 6.67352 0
    endloop
  endfacet
  facet normal -0.86724 -0.497891 0
    outer loop
      vertex 32.4587 5.71571 0
      vertex 32.2758 6.03429 5
      vertex 32.2758 6.03429 0
    endloop
  endfacet
  facet normal -0.86724 -0.497891 0
    outer loop
      vertex 32.2758 6.03429 5
      vertex 32.4587 5.71571 0
      vertex 32.4587 5.71571 5
    endloop
  endfacet
  facet normal -0.951516 -0.307599 0
    outer loop
      vertex 32.5718 5.36585 0
      vertex 32.4587 5.71571 5
      vertex 32.4587 5.71571 0
    endloop
  endfacet
  facet normal -0.951516 -0.307599 0
    outer loop
      vertex 32.4587 5.71571 5
      vertex 32.5718 5.36585 0
      vertex 32.5718 5.36585 5
    endloop
  endfacet
  facet normal -0.744975 -0.667093 0
    outer loop
      vertex 32.2758 6.03429 0
      vertex 32.031 6.30767 5
      vertex 32.031 6.30767 0
    endloop
  endfacet
  facet normal -0.744975 -0.667093 0
    outer loop
      vertex 32.031 6.30767 5
      vertex 32.2758 6.03429 0
      vertex 32.2758 6.03429 5
    endloop
  endfacet
  facet normal -0.208973 -0.977921 0
    outer loop
      vertex 31.0429 6.75 0
      vertex 31.4008 6.67352 5
      vertex 31.0429 6.75 5
    endloop
  endfacet
  facet normal -0.208973 -0.977921 -0
    outer loop
      vertex 31.4008 6.67352 5
      vertex 31.0429 6.75 0
      vertex 31.4008 6.67352 0
    endloop
  endfacet
  facet normal -0.408638 -0.912697 0
    outer loop
      vertex 31.4008 6.67352 0
      vertex 31.735 6.52389 5
      vertex 31.4008 6.67352 5
    endloop
  endfacet
  facet normal -0.408638 -0.912697 -0
    outer loop
      vertex 31.735 6.52389 5
      vertex 31.4008 6.67352 0
      vertex 31.735 6.52389 0
    endloop
  endfacet
  facet normal 0.951516 -0.307599 0
    outer loop
      vertex 29.1482 5.36585 5
      vertex 29.2613 5.71571 0
      vertex 29.2613 5.71571 5
    endloop
  endfacet
  facet normal 0.951516 -0.307599 0
    outer loop
      vertex 29.2613 5.71571 0
      vertex 29.1482 5.36585 5
      vertex 29.1482 5.36585 0
    endloop
  endfacet
  facet normal 0.86724 -0.497891 0
    outer loop
      vertex 29.2613 5.71571 5
      vertex 29.4442 6.03429 0
      vertex 29.4442 6.03429 5
    endloop
  endfacet
  facet normal 0.86724 -0.497891 0
    outer loop
      vertex 29.4442 6.03429 0
      vertex 29.2613 5.71571 5
      vertex 29.2613 5.71571 0
    endloop
  endfacet
  facet normal 0.994593 -0.10385 0
    outer loop
      vertex 29.11 5 5
      vertex 29.1482 5.36585 0
      vertex 29.1482 5.36585 5
    endloop
  endfacet
  facet normal 0.994593 -0.10385 0
    outer loop
      vertex 29.1482 5.36585 0
      vertex 29.11 5 5
      vertex 29.11 5 0
    endloop
  endfacet
  facet normal 0.589861 -0.807505 0
    outer loop
      vertex 29.689 6.30767 0
      vertex 29.985 6.52389 5
      vertex 29.689 6.30767 5
    endloop
  endfacet
  facet normal 0.589861 -0.807505 0
    outer loop
      vertex 29.985 6.52389 5
      vertex 29.689 6.30767 0
      vertex 29.985 6.52389 0
    endloop
  endfacet
  facet normal 0.208973 -0.977921 0
    outer loop
      vertex 30.3192 6.67352 0
      vertex 30.6771 6.75 5
      vertex 30.3192 6.67352 5
    endloop
  endfacet
  facet normal 0.208973 -0.977921 0
    outer loop
      vertex 30.6771 6.75 5
      vertex 30.3192 6.67352 0
      vertex 30.6771 6.75 0
    endloop
  endfacet
  facet normal -0.744975 0.667093 0
    outer loop
      vertex 32.031 3.69233 0
      vertex 32.2758 3.96571 5
      vertex 32.2758 3.96571 0
    endloop
  endfacet
  facet normal -0.744975 0.667093 0
    outer loop
      vertex 32.2758 3.96571 5
      vertex 32.031 3.69233 0
      vertex 32.031 3.69233 5
    endloop
  endfacet
  facet normal 0.994593 0.10385 0
    outer loop
      vertex 29.1482 4.63415 5
      vertex 29.11 5 0
      vertex 29.11 5 5
    endloop
  endfacet
  facet normal 0.994593 0.10385 0
    outer loop
      vertex 29.11 5 0
      vertex 29.1482 4.63415 5
      vertex 29.1482 4.63415 0
    endloop
  endfacet
  facet normal 0.744975 0.667093 0
    outer loop
      vertex 29.689 3.69233 5
      vertex 29.4442 3.96571 0
      vertex 29.4442 3.96571 5
    endloop
  endfacet
  facet normal 0.744975 0.667093 0
    outer loop
      vertex 29.4442 3.96571 0
      vertex 29.689 3.69233 5
      vertex 29.689 3.69233 0
    endloop
  endfacet
  facet normal 0.589861 0.807505 -0
    outer loop
      vertex 29.985 3.47611 0
      vertex 29.689 3.69233 5
      vertex 29.985 3.47611 5
    endloop
  endfacet
  facet normal 0.589861 0.807505 0
    outer loop
      vertex 29.689 3.69233 5
      vertex 29.985 3.47611 0
      vertex 29.689 3.69233 0
    endloop
  endfacet
  facet normal -0.951516 0.307599 0
    outer loop
      vertex 32.4587 4.28429 0
      vertex 32.5718 4.63415 5
      vertex 32.5718 4.63415 0
    endloop
  endfacet
  facet normal -0.951516 0.307599 0
    outer loop
      vertex 32.5718 4.63415 5
      vertex 32.4587 4.28429 0
      vertex 32.4587 4.28429 5
    endloop
  endfacet
  facet normal -0.86724 0.497891 0
    outer loop
      vertex 32.2758 3.96571 0
      vertex 32.4587 4.28429 5
      vertex 32.4587 4.28429 0
    endloop
  endfacet
  facet normal -0.86724 0.497891 0
    outer loop
      vertex 32.4587 4.28429 5
      vertex 32.2758 3.96571 0
      vertex 32.2758 3.96571 5
    endloop
  endfacet
  facet normal -0.994593 0.10385 0
    outer loop
      vertex 32.5718 4.63415 0
      vertex 32.61 5 5
      vertex 32.61 5 0
    endloop
  endfacet
  facet normal -0.994593 0.10385 0
    outer loop
      vertex 32.61 5 5
      vertex 32.5718 4.63415 0
      vertex 32.5718 4.63415 5
    endloop
  endfacet
  facet normal 0 1 -0
    outer loop
      vertex 31.0429 3.25 0
      vertex 30.6771 3.25 5
      vertex 31.0429 3.25 5
    endloop
  endfacet
  facet normal 0 1 0
    outer loop
      vertex 30.6771 3.25 5
      vertex 31.0429 3.25 0
      vertex 30.6771 3.25 0
    endloop
  endfacet
  facet normal 0.86724 0.497891 0
    outer loop
      vertex 29.4442 3.96571 5
      vertex 29.2613 4.28429 0
      vertex 29.2613 4.28429 5
    endloop
  endfacet
  facet normal 0.86724 0.497891 0
    outer loop
      vertex 29.2613 4.28429 0
      vertex 29.4442 3.96571 5
      vertex 29.4442 3.96571 0
    endloop
  endfacet
  facet normal 0.951516 0.307599 0
    outer loop
      vertex 29.2613 4.28429 5
      vertex 29.1482 4.63415 0
      vertex 29.1482 4.63415 5
    endloop
  endfacet
  facet normal 0.951516 0.307599 0
    outer loop
      vertex 29.1482 4.63415 0
      vertex 29.2613 4.28429 5
      vertex 29.2613 4.28429 0
    endloop
  endfacet
  facet normal -0.589861 0.807505 0
    outer loop
      vertex 32.031 3.69233 0
      vertex 31.735 3.47611 5
      vertex 32.031 3.69233 5
    endloop
  endfacet
  facet normal -0.589861 0.807505 0
    outer loop
      vertex 31.735 3.47611 5
      vertex 32.031 3.69233 0
      vertex 31.735 3.47611 0
    endloop
  endfacet
  facet normal -0.408638 0.912697 0
    outer loop
      vertex 31.735 3.47611 0
      vertex 31.4008 3.32648 5
      vertex 31.735 3.47611 5
    endloop
  endfacet
  facet normal -0.408638 0.912697 0
    outer loop
      vertex 31.4008 3.32648 5
      vertex 31.735 3.47611 0
      vertex 31.4008 3.32648 0
    endloop
  endfacet
  facet normal 0.208973 0.977921 -0
    outer loop
      vertex 30.6771 3.25 0
      vertex 30.3192 3.32648 5
      vertex 30.6771 3.25 5
    endloop
  endfacet
  facet normal 0.208973 0.977921 0
    outer loop
      vertex 30.3192 3.32648 5
      vertex 30.6771 3.25 0
      vertex 30.3192 3.32648 0
    endloop
  endfacet
  facet normal 0.408638 0.912697 -0
    outer loop
      vertex 30.3192 3.32648 0
      vertex 29.985 3.47611 5
      vertex 30.3192 3.32648 5
    endloop
  endfacet
  facet normal 0.408638 0.912697 0
    outer loop
      vertex 29.985 3.47611 5
      vertex 30.3192 3.32648 0
      vertex 29.985 3.47611 0
    endloop
  endfacet
  facet normal 0 -0.103985 0.994579
    outer loop
      vertex 44 13.6449 4.38606
      vertex 50.8 13.3 4.35
      vertex 50.8 13.6449 4.38606
    endloop
  endfacet
  facet normal 0 -0.103985 0.994579
    outer loop
      vertex 50.8 13.3 4.35
      vertex 44 13.6449 4.38606
      vertex 44 13.3 4.35
    endloop
  endfacet
  facet normal 0 -0.103985 -0.994579
    outer loop
      vertex 45.8 13.3 7.65
      vertex 50.8 13.6449 7.61394
      vertex 50.8 13.3 7.65
    endloop
  endfacet
  facet normal -0 -0.103985 -0.994579
    outer loop
      vertex 50.8 13.6449 7.61394
      vertex 45.8 13.3 7.65
      vertex 45.8 13.6449 7.61394
    endloop
  endfacet
  facet normal 0 1 -0
    outer loop
      vertex 50.8 11.65 5.82753
      vertex 45.8 11.65 6.17247
      vertex 50.8 11.65 6.17247
    endloop
  endfacet
  facet normal 0 1 0
    outer loop
      vertex 45.8 11.65 6.17247
      vertex 50.8 11.65 5.82753
      vertex 45.8 11.65 5.82753
    endloop
  endfacet
  facet normal 0 -0.66719 -0.744887
    outer loop
      vertex 45.8 14.2752 7.33488
      vertex 50.8 14.5329 7.10406
      vertex 50.8 14.2752 7.33488
    endloop
  endfacet
  facet normal -0 -0.66719 -0.744887
    outer loop
      vertex 50.8 14.5329 7.10406
      vertex 45.8 14.2752 7.33488
      vertex 45.8 14.5329 7.10406
    endloop
  endfacet
  facet normal 0 -0.497907 -0.86723
    outer loop
      vertex 45.8 13.9748 7.50735
      vertex 50.8 14.2752 7.33488
      vertex 50.8 13.9748 7.50735
    endloop
  endfacet
  facet normal -0 -0.497907 -0.86723
    outer loop
      vertex 50.8 14.2752 7.33488
      vertex 45.8 13.9748 7.50735
      vertex 45.8 14.2752 7.33488
    endloop
  endfacet
  facet normal 0 -0.912683 -0.408668
    outer loop
      vertex 45.8 14.8779 6.50988
      vertex 50.8 14.7368 6.825
      vertex 45.8 14.7368 6.825
    endloop
  endfacet
  facet normal 0 -0.912683 -0.408668
    outer loop
      vertex 50.8 14.7368 6.825
      vertex 45.8 14.8779 6.50988
      vertex 50.8 14.8779 6.50988
    endloop
  endfacet
  facet normal -0 0.497907 0.86723
    outer loop
      vertex 44 12.6252 4.49265
      vertex 50.8 12.3248 4.66512
      vertex 50.8 12.6252 4.49265
    endloop
  endfacet
  facet normal 0 0.497907 0.86723
    outer loop
      vertex 50.8 12.3248 4.66512
      vertex 44 12.6252 4.49265
      vertex 44 12.3248 4.66512
    endloop
  endfacet
  facet normal 0 -0.307449 0.951565
    outer loop
      vertex 44 13.9748 4.49265
      vertex 50.8 13.6449 4.38606
      vertex 50.8 13.9748 4.49265
    endloop
  endfacet
  facet normal 0 -0.307449 0.951565
    outer loop
      vertex 50.8 13.6449 4.38606
      vertex 44 13.9748 4.49265
      vertex 44 13.6449 4.38606
    endloop
  endfacet
  facet normal 0 -0.667174 0.744902
    outer loop
      vertex 44 14.5329 4.89593
      vertex 50.8 14.2752 4.66512
      vertex 50.8 14.5329 4.89593
    endloop
  endfacet
  facet normal 0 -0.667174 0.744902
    outer loop
      vertex 50.8 14.2752 4.66512
      vertex 44 14.5329 4.89593
      vertex 44 14.2752 4.66512
    endloop
  endfacet
  facet normal 0 -1 0
    outer loop
      vertex 45.8 14.95 5.82753
      vertex 50.8 14.95 6.17247
      vertex 45.8 14.95 6.17247
    endloop
  endfacet
  facet normal 0 -1 -0
    outer loop
      vertex 50.8 14.95 6.17247
      vertex 45.8 14.95 5.82753
      vertex 50.8 14.95 5.82753
    endloop
  endfacet
  facet normal 0 -0.912683 0.408668
    outer loop
      vertex 45.8 14.7368 5.175
      vertex 50.8 14.8779 5.49012
      vertex 45.8 14.8779 5.49012
    endloop
  endfacet
  facet normal 0 -0.912683 0.408668
    outer loop
      vertex 50.8 14.8779 5.49012
      vertex 45.8 14.7368 5.175
      vertex 50.8 14.7368 5.175
    endloop
  endfacet
  facet normal 0 -0.307449 -0.951565
    outer loop
      vertex 45.8 13.6449 7.61394
      vertex 50.8 13.9748 7.50735
      vertex 50.8 13.6449 7.61394
    endloop
  endfacet
  facet normal -0 -0.307449 -0.951565
    outer loop
      vertex 50.8 13.9748 7.50735
      vertex 45.8 13.6449 7.61394
      vertex 45.8 13.9748 7.50735
    endloop
  endfacet
  facet normal 0 -0.80743 -0.589963
    outer loop
      vertex 45.8 14.7368 6.825
      vertex 50.8 14.5329 7.10406
      vertex 45.8 14.5329 7.10406
    endloop
  endfacet
  facet normal 0 -0.80743 -0.589963
    outer loop
      vertex 50.8 14.5329 7.10406
      vertex 45.8 14.7368 6.825
      vertex 50.8 14.7368 6.825
    endloop
  endfacet
  facet normal 0 -0.977922 -0.208969
    outer loop
      vertex 45.8 14.95 6.17247
      vertex 50.8 14.8779 6.50988
      vertex 45.8 14.8779 6.50988
    endloop
  endfacet
  facet normal 0 -0.977922 -0.208969
    outer loop
      vertex 50.8 14.8779 6.50988
      vertex 45.8 14.95 6.17247
      vertex 50.8 14.95 6.17247
    endloop
  endfacet
  facet normal -0 0.103985 0.994579
    outer loop
      vertex 44 13.3 4.35
      vertex 50.8 12.9551 4.38606
      vertex 50.8 13.3 4.35
    endloop
  endfacet
  facet normal 0 0.103985 0.994579
    outer loop
      vertex 50.8 12.9551 4.38606
      vertex 44 13.3 4.35
      vertex 44 12.9551 4.38606
    endloop
  endfacet
  facet normal 0 0.497907 -0.86723
    outer loop
      vertex 45.8 12.3248 7.33488
      vertex 50.8 12.6252 7.50735
      vertex 50.8 12.3248 7.33488
    endloop
  endfacet
  facet normal 0 0.497907 -0.86723
    outer loop
      vertex 50.8 12.6252 7.50735
      vertex 45.8 12.3248 7.33488
      vertex 45.8 12.6252 7.50735
    endloop
  endfacet
  facet normal 0 -0.497907 0.86723
    outer loop
      vertex 44 14.2752 4.66512
      vertex 50.8 13.9748 4.49265
      vertex 50.8 14.2752 4.66512
    endloop
  endfacet
  facet normal 0 -0.497907 0.86723
    outer loop
      vertex 50.8 13.9748 4.49265
      vertex 44 14.2752 4.66512
      vertex 44 13.9748 4.49265
    endloop
  endfacet
  facet normal 0 -0.807211 0.590264
    outer loop
      vertex 44 14.609 5
      vertex 44 14.5329 4.89593
      vertex 45.8 14.609 5
    endloop
  endfacet
  facet normal 0 -0.807577 0.589762
    outer loop
      vertex 45.8 14.609 5
      vertex 50.8 14.7368 5.175
      vertex 45.8 14.7368 5.175
    endloop
  endfacet
  facet normal 0 -0.807211 0.590264
    outer loop
      vertex 50.8 14.5329 4.89593
      vertex 45.8 14.609 5
      vertex 44 14.5329 4.89593
    endloop
  endfacet
  facet normal -1.00422e-05 -0.80744 0.589949
    outer loop
      vertex 45.8 14.609 5
      vertex 50.8 14.5329 4.89593
      vertex 50.8 14.7368 5.175
    endloop
  endfacet
  facet normal 0 -0.977922 0.208969
    outer loop
      vertex 45.8 14.8779 5.49012
      vertex 50.8 14.95 5.82753
      vertex 45.8 14.95 5.82753
    endloop
  endfacet
  facet normal 0 -0.977922 0.208969
    outer loop
      vertex 50.8 14.95 5.82753
      vertex 45.8 14.8779 5.49012
      vertex 50.8 14.8779 5.49012
    endloop
  endfacet
  facet normal -0 0.307449 0.951565
    outer loop
      vertex 44 12.9551 4.38606
      vertex 50.8 12.6252 4.49265
      vertex 50.8 12.9551 4.38606
    endloop
  endfacet
  facet normal 0 0.307449 0.951565
    outer loop
      vertex 50.8 12.6252 4.49265
      vertex 44 12.9551 4.38606
      vertex 44 12.6252 4.49265
    endloop
  endfacet
  facet normal 0 0.977922 0.208969
    outer loop
      vertex 50.8 11.7221 5.49012
      vertex 45.8 11.65 5.82753
      vertex 50.8 11.65 5.82753
    endloop
  endfacet
  facet normal 0 0.977922 0.208969
    outer loop
      vertex 45.8 11.65 5.82753
      vertex 50.8 11.7221 5.49012
      vertex 45.8 11.7221 5.49012
    endloop
  endfacet
  facet normal 0 0.807577 0.589762
    outer loop
      vertex 50.8 11.8632 5.175
      vertex 45.8 11.991 5
      vertex 45.8 11.8632 5.175
    endloop
  endfacet
  facet normal -1.00422e-05 0.80744 0.589949
    outer loop
      vertex 50.8 12.0671 4.89593
      vertex 45.8 11.991 5
      vertex 50.8 11.8632 5.175
    endloop
  endfacet
  facet normal -0 0.807211 0.590264
    outer loop
      vertex 44 12.0671 4.89593
      vertex 45.8 11.991 5
      vertex 50.8 12.0671 4.89593
    endloop
  endfacet
  facet normal 0 0.807211 0.590264
    outer loop
      vertex 45.8 11.991 5
      vertex 44 12.0671 4.89593
      vertex 44 11.991 5
    endloop
  endfacet
  facet normal 0 0.977922 -0.208969
    outer loop
      vertex 50.8 11.65 6.17247
      vertex 45.8 11.7221 6.50988
      vertex 50.8 11.7221 6.50988
    endloop
  endfacet
  facet normal 0 0.977922 -0.208969
    outer loop
      vertex 45.8 11.7221 6.50988
      vertex 50.8 11.65 6.17247
      vertex 45.8 11.65 6.17247
    endloop
  endfacet
  facet normal 0 0.66719 -0.744887
    outer loop
      vertex 45.8 12.0671 7.10406
      vertex 50.8 12.3248 7.33488
      vertex 50.8 12.0671 7.10406
    endloop
  endfacet
  facet normal 0 0.66719 -0.744887
    outer loop
      vertex 50.8 12.3248 7.33488
      vertex 45.8 12.0671 7.10406
      vertex 45.8 12.3248 7.33488
    endloop
  endfacet
  facet normal 0 0.307449 -0.951565
    outer loop
      vertex 45.8 12.6252 7.50735
      vertex 50.8 12.9551 7.61394
      vertex 50.8 12.6252 7.50735
    endloop
  endfacet
  facet normal 0 0.307449 -0.951565
    outer loop
      vertex 50.8 12.9551 7.61394
      vertex 45.8 12.6252 7.50735
      vertex 45.8 12.9551 7.61394
    endloop
  endfacet
  facet normal 0 0.103985 -0.994579
    outer loop
      vertex 45.8 12.9551 7.61394
      vertex 50.8 13.3 7.65
      vertex 50.8 12.9551 7.61394
    endloop
  endfacet
  facet normal 0 0.103985 -0.994579
    outer loop
      vertex 50.8 13.3 7.65
      vertex 45.8 12.9551 7.61394
      vertex 45.8 13.3 7.65
    endloop
  endfacet
  facet normal 0 0.912683 0.408668
    outer loop
      vertex 50.8 11.8632 5.175
      vertex 45.8 11.7221 5.49012
      vertex 50.8 11.7221 5.49012
    endloop
  endfacet
  facet normal 0 0.912683 0.408668
    outer loop
      vertex 45.8 11.7221 5.49012
      vertex 50.8 11.8632 5.175
      vertex 45.8 11.8632 5.175
    endloop
  endfacet
  facet normal -0 0.667174 0.744902
    outer loop
      vertex 44 12.3248 4.66512
      vertex 50.8 12.0671 4.89593
      vertex 50.8 12.3248 4.66512
    endloop
  endfacet
  facet normal 0 0.667174 0.744902
    outer loop
      vertex 50.8 12.0671 4.89593
      vertex 44 12.3248 4.66512
      vertex 44 12.0671 4.89593
    endloop
  endfacet
  facet normal 0 0.912683 -0.408668
    outer loop
      vertex 50.8 11.7221 6.50988
      vertex 45.8 11.8632 6.825
      vertex 50.8 11.8632 6.825
    endloop
  endfacet
  facet normal 0 0.912683 -0.408668
    outer loop
      vertex 45.8 11.8632 6.825
      vertex 50.8 11.7221 6.50988
      vertex 45.8 11.7221 6.50988
    endloop
  endfacet
  facet normal 0 0.80743 -0.589963
    outer loop
      vertex 50.8 11.8632 6.825
      vertex 45.8 12.0671 7.10406
      vertex 50.8 12.0671 7.10406
    endloop
  endfacet
  facet normal 0 0.80743 -0.589963
    outer loop
      vertex 45.8 12.0671 7.10406
      vertex 50.8 11.8632 6.825
      vertex 45.8 11.8632 6.825
    endloop
  endfacet
  facet normal -1 0 0
    outer loop
      vertex -36 3.65 0
      vertex -36 14.65 5
      vertex -36 14.65 0
    endloop
  endfacet
  facet normal -1 -0 0
    outer loop
      vertex -36 14.65 5
      vertex -36 3.65 0
      vertex -36 3.65 5
    endloop
  endfacet
  facet normal 1 0 0
    outer loop
      vertex -44 14.5329 4.89593
      vertex -44 14.65 5
      vertex -44 14.609 5
    endloop
  endfacet
  facet normal 1 0 0
    outer loop
      vertex -44 14.65 5
      vertex -44 14.5329 4.89593
      vertex -44 14.65 0
    endloop
  endfacet
  facet normal 1 -0 0
    outer loop
      vertex -44 14.2752 4.66512
      vertex -44 14.65 0
      vertex -44 14.5329 4.89593
    endloop
  endfacet
  facet normal 1 -0 0
    outer loop
      vertex -44 13.9748 4.49265
      vertex -44 14.65 0
      vertex -44 14.2752 4.66512
    endloop
  endfacet
  facet normal 1 -0 0
    outer loop
      vertex -44 13.6449 4.38606
      vertex -44 14.65 0
      vertex -44 13.9748 4.49265
    endloop
  endfacet
  facet normal 1 -0 0
    outer loop
      vertex -44 13.3 4.35
      vertex -44 14.65 0
      vertex -44 13.6449 4.38606
    endloop
  endfacet
  facet normal 1 0 0
    outer loop
      vertex -44 12.9551 4.38606
      vertex -44 14.65 0
      vertex -44 13.3 4.35
    endloop
  endfacet
  facet normal 1 0 0
    outer loop
      vertex -44 12.6252 4.49265
      vertex -44 14.65 0
      vertex -44 12.9551 4.38606
    endloop
  endfacet
  facet normal 1 0 0
    outer loop
      vertex -44 12.3248 4.66512
      vertex -44 14.65 0
      vertex -44 12.6252 4.49265
    endloop
  endfacet
  facet normal 1 0 0
    outer loop
      vertex -44 3.65 0
      vertex -44 12.3248 4.66512
      vertex -44 12.0671 4.89593
    endloop
  endfacet
  facet normal 1 0 0
    outer loop
      vertex -44 3.65 0
      vertex -44 12.0671 4.89593
      vertex -44 11.991 5
    endloop
  endfacet
  facet normal 1 0 0
    outer loop
      vertex -44 3.65 0
      vertex -44 11.991 5
      vertex -44 3.65 5
    endloop
  endfacet
  facet normal 1 0 0
    outer loop
      vertex -44 12.3248 4.66512
      vertex -44 3.65 0
      vertex -44 14.65 0
    endloop
  endfacet
  facet normal 0 1 -0
    outer loop
      vertex -36 3.65 0
      vertex -44 3.65 5
      vertex -36 3.65 5
    endloop
  endfacet
  facet normal 0 1 0
    outer loop
      vertex -44 3.65 5
      vertex -36 3.65 0
      vertex -44 3.65 0
    endloop
  endfacet
  facet normal 0 -1 0
    outer loop
      vertex -44 14.65 0
      vertex -36 14.65 5
      vertex -44 14.65 5
    endloop
  endfacet
  facet normal 0 -1 -0
    outer loop
      vertex -36 14.65 5
      vertex -44 14.65 0
      vertex -36 14.65 0
    endloop
  endfacet
  facet normal 0.994593 -0.10385 0
    outer loop
      vertex -32.61 5 5
      vertex -32.5718 5.36585 0
      vertex -32.5718 5.36585 5
    endloop
  endfacet
  facet normal 0.994593 -0.10385 0
    outer loop
      vertex -32.5718 5.36585 0
      vertex -32.61 5 5
      vertex -32.61 5 0
    endloop
  endfacet
  facet normal 0 -1 0
    outer loop
      vertex -31.0429 6.75 0
      vertex -30.6771 6.75 5
      vertex -31.0429 6.75 5
    endloop
  endfacet
  facet normal 0 -1 -0
    outer loop
      vertex -30.6771 6.75 5
      vertex -31.0429 6.75 0
      vertex -30.6771 6.75 0
    endloop
  endfacet
  facet normal 0.208973 0.977921 -0
    outer loop
      vertex -31.0429 3.25 0
      vertex -31.4008 3.32648 5
      vertex -31.0429 3.25 5
    endloop
  endfacet
  facet normal 0.208973 0.977921 0
    outer loop
      vertex -31.4008 3.32648 5
      vertex -31.0429 3.25 0
      vertex -31.4008 3.32648 0
    endloop
  endfacet
  facet normal 0.589861 -0.807505 0
    outer loop
      vertex -32.031 6.30767 0
      vertex -31.735 6.52389 5
      vertex -32.031 6.30767 5
    endloop
  endfacet
  facet normal 0.589861 -0.807505 0
    outer loop
      vertex -31.735 6.52389 5
      vertex -32.031 6.30767 0
      vertex -31.735 6.52389 0
    endloop
  endfacet
  facet normal -0.744975 -0.667093 0
    outer loop
      vertex -29.4442 6.03429 0
      vertex -29.689 6.30767 5
      vertex -29.689 6.30767 0
    endloop
  endfacet
  facet normal -0.744975 -0.667093 0
    outer loop
      vertex -29.689 6.30767 5
      vertex -29.4442 6.03429 0
      vertex -29.4442 6.03429 5
    endloop
  endfacet
  facet normal -0.408638 -0.912697 0
    outer loop
      vertex -30.3192 6.67352 0
      vertex -29.985 6.52389 5
      vertex -30.3192 6.67352 5
    endloop
  endfacet
  facet normal -0.408638 -0.912697 -0
    outer loop
      vertex -29.985 6.52389 5
      vertex -30.3192 6.67352 0
      vertex -29.985 6.52389 0
    endloop
  endfacet
  facet normal 0.86724 -0.497891 0
    outer loop
      vertex -32.4587 5.71571 5
      vertex -32.2758 6.03429 0
      vertex -32.2758 6.03429 5
    endloop
  endfacet
  facet normal 0.86724 -0.497891 0
    outer loop
      vertex -32.2758 6.03429 0
      vertex -32.4587 5.71571 5
      vertex -32.4587 5.71571 0
    endloop
  endfacet
  facet normal 0.951516 -0.307599 0
    outer loop
      vertex -32.5718 5.36585 5
      vertex -32.4587 5.71571 0
      vertex -32.4587 5.71571 5
    endloop
  endfacet
  facet normal 0.951516 -0.307599 0
    outer loop
      vertex -32.4587 5.71571 0
      vertex -32.5718 5.36585 5
      vertex -32.5718 5.36585 0
    endloop
  endfacet
  facet normal 0.744975 -0.667093 0
    outer loop
      vertex -32.2758 6.03429 5
      vertex -32.031 6.30767 0
      vertex -32.031 6.30767 5
    endloop
  endfacet
  facet normal 0.744975 -0.667093 0
    outer loop
      vertex -32.031 6.30767 0
      vertex -32.2758 6.03429 5
      vertex -32.2758 6.03429 0
    endloop
  endfacet
  facet normal 0.208973 -0.977921 0
    outer loop
      vertex -31.4008 6.67352 0
      vertex -31.0429 6.75 5
      vertex -31.4008 6.67352 5
    endloop
  endfacet
  facet normal 0.208973 -0.977921 0
    outer loop
      vertex -31.0429 6.75 5
      vertex -31.4008 6.67352 0
      vertex -31.0429 6.75 0
    endloop
  endfacet
  facet normal 0.408638 -0.912697 0
    outer loop
      vertex -31.735 6.52389 0
      vertex -31.4008 6.67352 5
      vertex -31.735 6.52389 5
    endloop
  endfacet
  facet normal 0.408638 -0.912697 0
    outer loop
      vertex -31.4008 6.67352 5
      vertex -31.735 6.52389 0
      vertex -31.4008 6.67352 0
    endloop
  endfacet
  facet normal -0.951516 -0.307599 0
    outer loop
      vertex -29.1482 5.36585 0
      vertex -29.2613 5.71571 5
      vertex -29.2613 5.71571 0
    endloop
  endfacet
  facet normal -0.951516 -0.307599 0
    outer loop
      vertex -29.2613 5.71571 5
      vertex -29.1482 5.36585 0
      vertex -29.1482 5.36585 5
    endloop
  endfacet
  facet normal -0.86724 -0.497891 0
    outer loop
      vertex -29.2613 5.71571 0
      vertex -29.4442 6.03429 5
      vertex -29.4442 6.03429 0
    endloop
  endfacet
  facet normal -0.86724 -0.497891 0
    outer loop
      vertex -29.4442 6.03429 5
      vertex -29.2613 5.71571 0
      vertex -29.2613 5.71571 5
    endloop
  endfacet
  facet normal -0.994593 -0.10385 0
    outer loop
      vertex -29.11 5 0
      vertex -29.1482 5.36585 5
      vertex -29.1482 5.36585 0
    endloop
  endfacet
  facet normal -0.994593 -0.10385 0
    outer loop
      vertex -29.1482 5.36585 5
      vertex -29.11 5 0
      vertex -29.11 5 5
    endloop
  endfacet
  facet normal -0.589861 -0.807505 0
    outer loop
      vertex -29.985 6.52389 0
      vertex -29.689 6.30767 5
      vertex -29.985 6.52389 5
    endloop
  endfacet
  facet normal -0.589861 -0.807505 -0
    outer loop
      vertex -29.689 6.30767 5
      vertex -29.985 6.52389 0
      vertex -29.689 6.30767 0
    endloop
  endfacet
  facet normal -0.208973 -0.977921 0
    outer loop
      vertex -30.6771 6.75 0
      vertex -30.3192 6.67352 5
      vertex -30.6771 6.75 5
    endloop
  endfacet
  facet normal -0.208973 -0.977921 -0
    outer loop
      vertex -30.3192 6.67352 5
      vertex -30.6771 6.75 0
      vertex -30.3192 6.67352 0
    endloop
  endfacet
  facet normal 0.744975 0.667093 0
    outer loop
      vertex -32.031 3.69233 5
      vertex -32.2758 3.96571 0
      vertex -32.2758 3.96571 5
    endloop
  endfacet
  facet normal 0.744975 0.667093 0
    outer loop
      vertex -32.2758 3.96571 0
      vertex -32.031 3.69233 5
      vertex -32.031 3.69233 0
    endloop
  endfacet
  facet normal -0.994593 0.10385 0
    outer loop
      vertex -29.1482 4.63415 0
      vertex -29.11 5 5
      vertex -29.11 5 0
    endloop
  endfacet
  facet normal -0.994593 0.10385 0
    outer loop
      vertex -29.11 5 5
      vertex -29.1482 4.63415 0
      vertex -29.1482 4.63415 5
    endloop
  endfacet
  facet normal -0.744975 0.667093 0
    outer loop
      vertex -29.689 3.69233 0
      vertex -29.4442 3.96571 5
      vertex -29.4442 3.96571 0
    endloop
  endfacet
  facet normal -0.744975 0.667093 0
    outer loop
      vertex -29.4442 3.96571 5
      vertex -29.689 3.69233 0
      vertex -29.689 3.69233 5
    endloop
  endfacet
  facet normal -0.589861 0.807505 0
    outer loop
      vertex -29.689 3.69233 0
      vertex -29.985 3.47611 5
      vertex -29.689 3.69233 5
    endloop
  endfacet
  facet normal -0.589861 0.807505 0
    outer loop
      vertex -29.985 3.47611 5
      vertex -29.689 3.69233 0
      vertex -29.985 3.47611 0
    endloop
  endfacet
  facet normal 0.951516 0.307599 0
    outer loop
      vertex -32.4587 4.28429 5
      vertex -32.5718 4.63415 0
      vertex -32.5718 4.63415 5
    endloop
  endfacet
  facet normal 0.951516 0.307599 0
    outer loop
      vertex -32.5718 4.63415 0
      vertex -32.4587 4.28429 5
      vertex -32.4587 4.28429 0
    endloop
  endfacet
  facet normal 0.86724 0.497891 0
    outer loop
      vertex -32.2758 3.96571 5
      vertex -32.4587 4.28429 0
      vertex -32.4587 4.28429 5
    endloop
  endfacet
  facet normal 0.86724 0.497891 0
    outer loop
      vertex -32.4587 4.28429 0
      vertex -32.2758 3.96571 5
      vertex -32.2758 3.96571 0
    endloop
  endfacet
  facet normal 0.994593 0.10385 0
    outer loop
      vertex -32.5718 4.63415 5
      vertex -32.61 5 0
      vertex -32.61 5 5
    endloop
  endfacet
  facet normal 0.994593 0.10385 0
    outer loop
      vertex -32.61 5 0
      vertex -32.5718 4.63415 5
      vertex -32.5718 4.63415 0
    endloop
  endfacet
  facet normal 0 1 -0
    outer loop
      vertex -30.6771 3.25 0
      vertex -31.0429 3.25 5
      vertex -30.6771 3.25 5
    endloop
  endfacet
  facet normal 0 1 0
    outer loop
      vertex -31.0429 3.25 5
      vertex -30.6771 3.25 0
      vertex -31.0429 3.25 0
    endloop
  endfacet
  facet normal -0.86724 0.497891 0
    outer loop
      vertex -29.4442 3.96571 0
      vertex -29.2613 4.28429 5
      vertex -29.2613 4.28429 0
    endloop
  endfacet
  facet normal -0.86724 0.497891 0
    outer loop
      vertex -29.2613 4.28429 5
      vertex -29.4442 3.96571 0
      vertex -29.4442 3.96571 5
    endloop
  endfacet
  facet normal -0.951516 0.307599 0
    outer loop
      vertex -29.2613 4.28429 0
      vertex -29.1482 4.63415 5
      vertex -29.1482 4.63415 0
    endloop
  endfacet
  facet normal -0.951516 0.307599 0
    outer loop
      vertex -29.1482 4.63415 5
      vertex -29.2613 4.28429 0
      vertex -29.2613 4.28429 5
    endloop
  endfacet
  facet normal 0.589861 0.807505 -0
    outer loop
      vertex -31.735 3.47611 0
      vertex -32.031 3.69233 5
      vertex -31.735 3.47611 5
    endloop
  endfacet
  facet normal 0.589861 0.807505 0
    outer loop
      vertex -32.031 3.69233 5
      vertex -31.735 3.47611 0
      vertex -32.031 3.69233 0
    endloop
  endfacet
  facet normal 0.408638 0.912697 -0
    outer loop
      vertex -31.4008 3.32648 0
      vertex -31.735 3.47611 5
      vertex -31.4008 3.32648 5
    endloop
  endfacet
  facet normal 0.408638 0.912697 0
    outer loop
      vertex -31.735 3.47611 5
      vertex -31.4008 3.32648 0
      vertex -31.735 3.47611 0
    endloop
  endfacet
  facet normal -0.208973 0.977921 0
    outer loop
      vertex -30.3192 3.32648 0
      vertex -30.6771 3.25 5
      vertex -30.3192 3.32648 5
    endloop
  endfacet
  facet normal -0.208973 0.977921 0
    outer loop
      vertex -30.6771 3.25 5
      vertex -30.3192 3.32648 0
      vertex -30.6771 3.25 0
    endloop
  endfacet
  facet normal -0.408638 0.912697 0
    outer loop
      vertex -29.985 3.47611 0
      vertex -30.3192 3.32648 5
      vertex -29.985 3.47611 5
    endloop
  endfacet
  facet normal -0.408638 0.912697 0
    outer loop
      vertex -30.3192 3.32648 5
      vertex -29.985 3.47611 0
      vertex -30.3192 3.32648 0
    endloop
  endfacet
  facet normal 0 -0.103985 0.994579
    outer loop
      vertex -50.8 13.6449 4.38606
      vertex -44 13.3 4.35
      vertex -44 13.6449 4.38606
    endloop
  endfacet
  facet normal 0 -0.103985 0.994579
    outer loop
      vertex -44 13.3 4.35
      vertex -50.8 13.6449 4.38606
      vertex -50.8 13.3 4.35
    endloop
  endfacet
  facet normal 0 -0.103985 -0.994579
    outer loop
      vertex -50.8 13.3 7.65
      vertex -45.8 13.6449 7.61394
      vertex -45.8 13.3 7.65
    endloop
  endfacet
  facet normal -0 -0.103985 -0.994579
    outer loop
      vertex -45.8 13.6449 7.61394
      vertex -50.8 13.3 7.65
      vertex -50.8 13.6449 7.61394
    endloop
  endfacet
  facet normal 0 1 -0
    outer loop
      vertex -45.8 11.65 5.82753
      vertex -50.8 11.65 6.17247
      vertex -45.8 11.65 6.17247
    endloop
  endfacet
  facet normal 0 1 0
    outer loop
      vertex -50.8 11.65 6.17247
      vertex -45.8 11.65 5.82753
      vertex -50.8 11.65 5.82753
    endloop
  endfacet
  facet normal 0 -0.66719 -0.744887
    outer loop
      vertex -50.8 14.2752 7.33488
      vertex -45.8 14.5329 7.10406
      vertex -45.8 14.2752 7.33488
    endloop
  endfacet
  facet normal -0 -0.66719 -0.744887
    outer loop
      vertex -45.8 14.5329 7.10406
      vertex -50.8 14.2752 7.33488
      vertex -50.8 14.5329 7.10406
    endloop
  endfacet
  facet normal 0 -0.497907 -0.86723
    outer loop
      vertex -50.8 13.9748 7.50735
      vertex -45.8 14.2752 7.33488
      vertex -45.8 13.9748 7.50735
    endloop
  endfacet
  facet normal -0 -0.497907 -0.86723
    outer loop
      vertex -45.8 14.2752 7.33488
      vertex -50.8 13.9748 7.50735
      vertex -50.8 14.2752 7.33488
    endloop
  endfacet
  facet normal 0 -0.912683 -0.408668
    outer loop
      vertex -50.8 14.8779 6.50988
      vertex -45.8 14.7368 6.825
      vertex -50.8 14.7368 6.825
    endloop
  endfacet
  facet normal 0 -0.912683 -0.408668
    outer loop
      vertex -45.8 14.7368 6.825
      vertex -50.8 14.8779 6.50988
      vertex -45.8 14.8779 6.50988
    endloop
  endfacet
  facet normal -0 0.497907 0.86723
    outer loop
      vertex -50.8 12.6252 4.49265
      vertex -44 12.3248 4.66512
      vertex -44 12.6252 4.49265
    endloop
  endfacet
  facet normal 0 0.497907 0.86723
    outer loop
      vertex -44 12.3248 4.66512
      vertex -50.8 12.6252 4.49265
      vertex -50.8 12.3248 4.66512
    endloop
  endfacet
  facet normal 0 -0.307449 0.951565
    outer loop
      vertex -50.8 13.9748 4.49265
      vertex -44 13.6449 4.38606
      vertex -44 13.9748 4.49265
    endloop
  endfacet
  facet normal 0 -0.307449 0.951565
    outer loop
      vertex -44 13.6449 4.38606
      vertex -50.8 13.9748 4.49265
      vertex -50.8 13.6449 4.38606
    endloop
  endfacet
  facet normal 0 -0.667174 0.744902
    outer loop
      vertex -50.8 14.5329 4.89593
      vertex -44 14.2752 4.66512
      vertex -44 14.5329 4.89593
    endloop
  endfacet
  facet normal 0 -0.667174 0.744902
    outer loop
      vertex -44 14.2752 4.66512
      vertex -50.8 14.5329 4.89593
      vertex -50.8 14.2752 4.66512
    endloop
  endfacet
  facet normal 0 -1 0
    outer loop
      vertex -50.8 14.95 5.82753
      vertex -45.8 14.95 6.17247
      vertex -50.8 14.95 6.17247
    endloop
  endfacet
  facet normal 0 -1 -0
    outer loop
      vertex -45.8 14.95 6.17247
      vertex -50.8 14.95 5.82753
      vertex -45.8 14.95 5.82753
    endloop
  endfacet
  facet normal 0 -0.912683 0.408668
    outer loop
      vertex -50.8 14.7368 5.175
      vertex -45.8 14.8779 5.49012
      vertex -50.8 14.8779 5.49012
    endloop
  endfacet
  facet normal 0 -0.912683 0.408668
    outer loop
      vertex -45.8 14.8779 5.49012
      vertex -50.8 14.7368 5.175
      vertex -45.8 14.7368 5.175
    endloop
  endfacet
  facet normal 0 -0.307449 -0.951565
    outer loop
      vertex -50.8 13.6449 7.61394
      vertex -45.8 13.9748 7.50735
      vertex -45.8 13.6449 7.61394
    endloop
  endfacet
  facet normal -0 -0.307449 -0.951565
    outer loop
      vertex -45.8 13.9748 7.50735
      vertex -50.8 13.6449 7.61394
      vertex -50.8 13.9748 7.50735
    endloop
  endfacet
  facet normal 0 -0.80743 -0.589963
    outer loop
      vertex -50.8 14.7368 6.825
      vertex -45.8 14.5329 7.10406
      vertex -50.8 14.5329 7.10406
    endloop
  endfacet
  facet normal 0 -0.80743 -0.589963
    outer loop
      vertex -45.8 14.5329 7.10406
      vertex -50.8 14.7368 6.825
      vertex -45.8 14.7368 6.825
    endloop
  endfacet
  facet normal 0 -0.977922 -0.208969
    outer loop
      vertex -50.8 14.95 6.17247
      vertex -45.8 14.8779 6.50988
      vertex -50.8 14.8779 6.50988
    endloop
  endfacet
  facet normal 0 -0.977922 -0.208969
    outer loop
      vertex -45.8 14.8779 6.50988
      vertex -50.8 14.95 6.17247
      vertex -45.8 14.95 6.17247
    endloop
  endfacet
  facet normal -0 0.103985 0.994579
    outer loop
      vertex -50.8 13.3 4.35
      vertex -44 12.9551 4.38606
      vertex -44 13.3 4.35
    endloop
  endfacet
  facet normal 0 0.103985 0.994579
    outer loop
      vertex -44 12.9551 4.38606
      vertex -50.8 13.3 4.35
      vertex -50.8 12.9551 4.38606
    endloop
  endfacet
  facet normal 0 0.497907 -0.86723
    outer loop
      vertex -50.8 12.3248 7.33488
      vertex -45.8 12.6252 7.50735
      vertex -45.8 12.3248 7.33488
    endloop
  endfacet
  facet normal 0 0.497907 -0.86723
    outer loop
      vertex -45.8 12.6252 7.50735
      vertex -50.8 12.3248 7.33488
      vertex -50.8 12.6252 7.50735
    endloop
  endfacet
  facet normal 0 -0.497907 0.86723
    outer loop
      vertex -50.8 14.2752 4.66512
      vertex -44 13.9748 4.49265
      vertex -44 14.2752 4.66512
    endloop
  endfacet
  facet normal 0 -0.497907 0.86723
    outer loop
      vertex -44 13.9748 4.49265
      vertex -50.8 14.2752 4.66512
      vertex -50.8 13.9748 4.49265
    endloop
  endfacet
  facet normal 0 -0.807577 0.589762
    outer loop
      vertex -50.8 14.7368 5.175
      vertex -45.8 14.609 5
      vertex -45.8 14.7368 5.175
    endloop
  endfacet
  facet normal 1.00422e-05 -0.80744 0.589949
    outer loop
      vertex -50.8 14.5329 4.89593
      vertex -45.8 14.609 5
      vertex -50.8 14.7368 5.175
    endloop
  endfacet
  facet normal 0 -0.807211 0.590264
    outer loop
      vertex -44 14.5329 4.89593
      vertex -45.8 14.609 5
      vertex -50.8 14.5329 4.89593
    endloop
  endfacet
  facet normal 0 -0.807211 0.590264
    outer loop
      vertex -45.8 14.609 5
      vertex -44 14.5329 4.89593
      vertex -44 14.609 5
    endloop
  endfacet
  facet normal 0 -0.977922 0.208969
    outer loop
      vertex -50.8 14.8779 5.49012
      vertex -45.8 14.95 5.82753
      vertex -50.8 14.95 5.82753
    endloop
  endfacet
  facet normal 0 -0.977922 0.208969
    outer loop
      vertex -45.8 14.95 5.82753
      vertex -50.8 14.8779 5.49012
      vertex -45.8 14.8779 5.49012
    endloop
  endfacet
  facet normal -0 0.307449 0.951565
    outer loop
      vertex -50.8 12.9551 4.38606
      vertex -44 12.6252 4.49265
      vertex -44 12.9551 4.38606
    endloop
  endfacet
  facet normal 0 0.307449 0.951565
    outer loop
      vertex -44 12.6252 4.49265
      vertex -50.8 12.9551 4.38606
      vertex -50.8 12.6252 4.49265
    endloop
  endfacet
  facet normal 0 0.977922 0.208969
    outer loop
      vertex -45.8 11.7221 5.49012
      vertex -50.8 11.65 5.82753
      vertex -45.8 11.65 5.82753
    endloop
  endfacet
  facet normal 0 0.977922 0.208969
    outer loop
      vertex -50.8 11.65 5.82753
      vertex -45.8 11.7221 5.49012
      vertex -50.8 11.7221 5.49012
    endloop
  endfacet
  facet normal 0 0.807211 0.590264
    outer loop
      vertex -44 11.991 5
      vertex -44 12.0671 4.89593
      vertex -45.8 11.991 5
    endloop
  endfacet
  facet normal 0 0.807577 0.589762
    outer loop
      vertex -45.8 11.991 5
      vertex -50.8 11.8632 5.175
      vertex -45.8 11.8632 5.175
    endloop
  endfacet
  facet normal -0 0.807211 0.590264
    outer loop
      vertex -50.8 12.0671 4.89593
      vertex -45.8 11.991 5
      vertex -44 12.0671 4.89593
    endloop
  endfacet
  facet normal 1.00422e-05 0.80744 0.589949
    outer loop
      vertex -45.8 11.991 5
      vertex -50.8 12.0671 4.89593
      vertex -50.8 11.8632 5.175
    endloop
  endfacet
  facet normal 0 0.977922 -0.208969
    outer loop
      vertex -45.8 11.65 6.17247
      vertex -50.8 11.7221 6.50988
      vertex -45.8 11.7221 6.50988
    endloop
  endfacet
  facet normal 0 0.977922 -0.208969
    outer loop
      vertex -50.8 11.7221 6.50988
      vertex -45.8 11.65 6.17247
      vertex -50.8 11.65 6.17247
    endloop
  endfacet
  facet normal 0 0.66719 -0.744887
    outer loop
      vertex -50.8 12.0671 7.10406
      vertex -45.8 12.3248 7.33488
      vertex -45.8 12.0671 7.10406
    endloop
  endfacet
  facet normal 0 0.66719 -0.744887
    outer loop
      vertex -45.8 12.3248 7.33488
      vertex -50.8 12.0671 7.10406
      vertex -50.8 12.3248 7.33488
    endloop
  endfacet
  facet normal 0 0.307449 -0.951565
    outer loop
      vertex -50.8 12.6252 7.50735
      vertex -45.8 12.9551 7.61394
      vertex -45.8 12.6252 7.50735
    endloop
  endfacet
  facet normal 0 0.307449 -0.951565
    outer loop
      vertex -45.8 12.9551 7.61394
      vertex -50.8 12.6252 7.50735
      vertex -50.8 12.9551 7.61394
    endloop
  endfacet
  facet normal 0 0.103985 -0.994579
    outer loop
      vertex -50.8 12.9551 7.61394
      vertex -45.8 13.3 7.65
      vertex -45.8 12.9551 7.61394
    endloop
  endfacet
  facet normal 0 0.103985 -0.994579
    outer loop
      vertex -45.8 13.3 7.65
      vertex -50.8 12.9551 7.61394
      vertex -50.8 13.3 7.65
    endloop
  endfacet
  facet normal 0 0.912683 0.408668
    outer loop
      vertex -45.8 11.8632 5.175
      vertex -50.8 11.7221 5.49012
      vertex -45.8 11.7221 5.49012
    endloop
  endfacet
  facet normal 0 0.912683 0.408668
    outer loop
      vertex -50.8 11.7221 5.49012
      vertex -45.8 11.8632 5.175
      vertex -50.8 11.8632 5.175
    endloop
  endfacet
  facet normal -0 0.667174 0.744902
    outer loop
      vertex -50.8 12.3248 4.66512
      vertex -44 12.0671 4.89593
      vertex -44 12.3248 4.66512
    endloop
  endfacet
  facet normal 0 0.667174 0.744902
    outer loop
      vertex -44 12.0671 4.89593
      vertex -50.8 12.3248 4.66512
      vertex -50.8 12.0671 4.89593
    endloop
  endfacet
  facet normal 0 0.912683 -0.408668
    outer loop
      vertex -45.8 11.7221 6.50988
      vertex -50.8 11.8632 6.825
      vertex -45.8 11.8632 6.825
    endloop
  endfacet
  facet normal 0 0.912683 -0.408668
    outer loop
      vertex -50.8 11.8632 6.825
      vertex -45.8 11.7221 6.50988
      vertex -50.8 11.7221 6.50988
    endloop
  endfacet
  facet normal 0 0.80743 -0.589963
    outer loop
      vertex -45.8 11.8632 6.825
      vertex -50.8 12.0671 7.10406
      vertex -45.8 12.0671 7.10406
    endloop
  endfacet
  facet normal 0 0.80743 -0.589963
    outer loop
      vertex -50.8 12.0671 7.10406
      vertex -45.8 11.8632 6.825
      vertex -50.8 11.8632 6.825
    endloop
  endfacet
endsolid OpenSCAD_Model
