solid OpenSCAD_Model
  facet normal 0 0 -1
    outer loop
      vertex 43 -43.5 0
      vertex 46.5 -44.5 0
      vertex 46.3794 -45.1946 0
    endloop
  endfacet
  facet normal 0 0 -1
    outer loop
      vertex 46.5 -44.5 0
      vertex 43 -43.5 0
      vertex 46.5 44.5 0
    endloop
  endfacet
  facet normal 0 0 -1
    outer loop
      vertex 43 -43.5 0
      vertex 46.3794 -45.1946 0
      vertex 46.0321 -45.8054 0
    endloop
  endfacet
  facet normal 0 0 -1
    outer loop
      vertex 43 43.5 0
      vertex 46.5 44.5 0
      vertex 43 -43.5 0
    endloop
  endfacet
  facet normal 0 0 -1
    outer loop
      vertex 43 -43.5 0
      vertex 46.0321 -45.8054 0
      vertex 45.5 -46.2588 0
    endloop
  endfacet
  facet normal -0 0 -1
    outer loop
      vertex 46.5 44.5 0
      vertex 43 43.5 0
      vertex 46.3794 45.1946 0
    endloop
  endfacet
  facet normal 0 0 -1
    outer loop
      vertex 43 -43.5 0
      vertex 45.5 -46.2588 0
      vertex 44.8473 -46.5 0
    endloop
  endfacet
  facet normal -0 0 -1
    outer loop
      vertex 46.3794 45.1946 0
      vertex 43 43.5 0
      vertex 46.0321 45.8054 0
    endloop
  endfacet
  facet normal -0 0 -1
    outer loop
      vertex 46.0321 45.8054 0
      vertex 43 43.5 0
      vertex 45.5 46.2588 0
    endloop
  endfacet
  facet normal 0 0 -1
    outer loop
      vertex -44.1527 -46.5 0
      vertex 43 -43.5 0
      vertex 44.8473 -46.5 0
    endloop
  endfacet
  facet normal 0 0 -1
    outer loop
      vertex -44.8473 -46.5 0
      vertex -43 -43.5 0
      vertex -44.1527 -46.5 0
    endloop
  endfacet
  facet normal -0 0 -1
    outer loop
      vertex 43 -43.5 0
      vertex -44.1527 -46.5 0
      vertex -43 -43.5 0
    endloop
  endfacet
  facet normal -0 0 -1
    outer loop
      vertex 45.5 46.2588 0
      vertex 43 43.5 0
      vertex 44.8473 46.5 0
    endloop
  endfacet
  facet normal 0 0 -1
    outer loop
      vertex -43 43.5 0
      vertex 44.8473 46.5 0
      vertex 43 43.5 0
    endloop
  endfacet
  facet normal 0 0 -1
    outer loop
      vertex -45.5 -46.2588 0
      vertex -43 -43.5 0
      vertex -44.8473 -46.5 0
    endloop
  endfacet
  facet normal 0 0 -1
    outer loop
      vertex -43 43.5 0
      vertex -44.8473 46.5 0
      vertex 44.8473 46.5 0
    endloop
  endfacet
  facet normal -0 0 -1
    outer loop
      vertex -43 -43.5 0
      vertex -46.5 -44.5 0
      vertex -43 43.5 0
    endloop
  endfacet
  facet normal 0 0 -1
    outer loop
      vertex -46.0321 -45.8054 0
      vertex -43 -43.5 0
      vertex -45.5 -46.2588 0
    endloop
  endfacet
  facet normal 0 0 -1
    outer loop
      vertex -46.5 44.5 0
      vertex -43 43.5 0
      vertex -46.5 -44.5 0
    endloop
  endfacet
  facet normal 0 0 -1
    outer loop
      vertex -46.3794 -45.1946 0
      vertex -43 -43.5 0
      vertex -46.0321 -45.8054 0
    endloop
  endfacet
  facet normal 0 -0 -1
    outer loop
      vertex -46.3794 45.1946 0
      vertex -43 43.5 0
      vertex -46.5 44.5 0
    endloop
  endfacet
  facet normal 0 0 -1
    outer loop
      vertex -43 -43.5 0
      vertex -46.3794 -45.1946 0
      vertex -46.5 -44.5 0
    endloop
  endfacet
  facet normal 0 0 -1
    outer loop
      vertex -43 43.5 0
      vertex -45.5 46.2588 0
      vertex -44.8473 46.5 0
    endloop
  endfacet
  facet normal 0 0 -1
    outer loop
      vertex -43 43.5 0
      vertex -46.0321 45.8054 0
      vertex -45.5 46.2588 0
    endloop
  endfacet
  facet normal 0 0 -1
    outer loop
      vertex -43 43.5 0
      vertex -46.3794 45.1946 0
      vertex -46.0321 45.8054 0
    endloop
  endfacet
  facet normal -0.56312 -0.320189 0.761823
    outer loop
      vertex 35.3794 34.1946 18.49
      vertex 36.7981 36.4581 20.49
      vertex 35.0321 34.8054 18.49
    endloop
  endfacet
  facet normal -0.414866 -0.486878 0.768658
    outer loop
      vertex 35.0321 34.8054 18.49
      vertex 36.7981 36.4581 20.49
      vertex 34.5 35.2588 18.49
    endloop
  endfacet
  facet normal -0.648597 -0.761132 0
    outer loop
      vertex 36 37.1382 20.49
      vertex 36.7981 36.4581 20.5
      vertex 36 37.1382 20.5
    endloop
  endfacet
  facet normal -0.648597 -0.761132 -0
    outer loop
      vertex 36.7981 36.4581 20.5
      vertex 36 37.1382 20.49
      vertex 36.7981 36.4581 20.49
    endloop
  endfacet
  facet normal -0.414878 -0.486861 0.768662
    outer loop
      vertex 36.7981 36.4581 20.49
      vertex 36 37.1382 20.49
      vertex 34.5 35.2588 18.49
    endloop
  endfacet
  facet normal -0.672474 -0.116758 0.730853
    outer loop
      vertex 37.5 34.5 20.49
      vertex 37.3191 35.5419 20.49
      vertex 35.3794 34.1946 18.49
    endloop
  endfacet
  facet normal 0.648597 -0.761132 0
    outer loop
      vertex -36.7981 36.4581 20.49
      vertex -36 37.1382 20.5
      vertex -36.7981 36.4581 20.5
    endloop
  endfacet
  facet normal 0.648597 -0.761132 0
    outer loop
      vertex -36 37.1382 20.5
      vertex -36.7981 36.4581 20.49
      vertex -36 37.1382 20.49
    endloop
  endfacet
  facet normal -0.707107 0 0.707107
    outer loop
      vertex 35.5 -33.5 18.49
      vertex 37.5 34.5 20.49
      vertex 35.5 33.5 18.49
    endloop
  endfacet
  facet normal -0.707107 0 0.707107
    outer loop
      vertex 37.5 34.5 20.49
      vertex 35.5 -33.5 18.49
      vertex 37.5 -34.5 20.49
    endloop
  endfacet
  facet normal -0.648597 0.761132 0
    outer loop
      vertex 36.7981 -36.4581 20.49
      vertex 36 -37.1382 20.5
      vertex 36.7981 -36.4581 20.5
    endloop
  endfacet
  facet normal -0.648597 0.761132 0
    outer loop
      vertex 36 -37.1382 20.5
      vertex 36.7981 -36.4581 20.49
      vertex 36 -37.1382 20.49
    endloop
  endfacet
  facet normal -0.56312 0.320189 0.761823
    outer loop
      vertex 36.7981 -36.4581 20.49
      vertex 35.3794 -34.1946 18.49
      vertex 35.0321 -34.8054 18.49
    endloop
  endfacet
  facet normal -0.228422 -0.618123 0.752161
    outer loop
      vertex 34.5 35.2588 18.49
      vertex 35.0209 37.5 20.49
      vertex 33.8473 35.5 18.49
    endloop
  endfacet
  facet normal 0 -1 0
    outer loop
      vertex -35.0209 37.5 20.49
      vertex 35.0209 37.5 20.5
      vertex -35.0209 37.5 20.5
    endloop
  endfacet
  facet normal 0 -1 -0
    outer loop
      vertex 35.0209 37.5 20.5
      vertex -35.0209 37.5 20.49
      vertex 35.0209 37.5 20.49
    endloop
  endfacet
  facet normal 0.414866 0.486878 0.768658
    outer loop
      vertex -34.5 -35.2588 18.49
      vertex -35.0321 -34.8054 18.49
      vertex -36.7981 -36.4581 20.49
    endloop
  endfacet
  facet normal 0.414866 -0.486878 0.768658
    outer loop
      vertex -35.0321 34.8054 18.49
      vertex -34.5 35.2588 18.49
      vertex -36.7981 36.4581 20.49
    endloop
  endfacet
  facet normal -0.5631 -0.320208 0.76183
    outer loop
      vertex 37.3191 35.5419 20.49
      vertex 36.7981 36.4581 20.49
      vertex 35.3794 34.1946 18.49
    endloop
  endfacet
  facet normal -0.672474 0.116758 0.730853
    outer loop
      vertex 37.5 -34.5 20.49
      vertex 35.5 -33.5 18.49
      vertex 35.3794 -34.1946 18.49
    endloop
  endfacet
  facet normal -0.98526 -0.171066 0
    outer loop
      vertex 37.5 34.5 20.49
      vertex 37.3191 35.5419 20.5
      vertex 37.3191 35.5419 20.49
    endloop
  endfacet
  facet normal -0.98526 -0.171066 0
    outer loop
      vertex 37.3191 35.5419 20.5
      vertex 37.5 34.5 20.49
      vertex 37.5 34.5 20.5
    endloop
  endfacet
  facet normal -0.346615 -0.938007 0
    outer loop
      vertex 35.0209 37.5 20.49
      vertex 36 37.1382 20.5
      vertex 35.0209 37.5 20.5
    endloop
  endfacet
  facet normal -0.346615 -0.938007 -0
    outer loop
      vertex 36 37.1382 20.5
      vertex 35.0209 37.5 20.49
      vertex 36 37.1382 20.49
    endloop
  endfacet
  facet normal -0.228412 -0.618126 0.752162
    outer loop
      vertex 36 37.1382 20.49
      vertex 35.0209 37.5 20.49
      vertex 34.5 35.2588 18.49
    endloop
  endfacet
  facet normal -0.414866 0.486878 0.768658
    outer loop
      vertex 36.7981 -36.4581 20.49
      vertex 35.0321 -34.8054 18.49
      vertex 34.5 -35.2588 18.49
    endloop
  endfacet
  facet normal 0.707107 0 0.707107
    outer loop
      vertex -37.5 34.5 20.49
      vertex -35.5 -33.5 18.49
      vertex -35.5 33.5 18.49
    endloop
  endfacet
  facet normal 0.707107 0 0.707107
    outer loop
      vertex -35.5 -33.5 18.49
      vertex -37.5 34.5 20.49
      vertex -37.5 -34.5 20.49
    endloop
  endfacet
  facet normal 0.672474 0.116758 0.730853
    outer loop
      vertex -37.3191 -35.5419 20.49
      vertex -35.3794 -34.1946 18.49
      vertex -37.5 -34.5 20.49
    endloop
  endfacet
  facet normal 0.5631 0.320208 0.76183
    outer loop
      vertex -36.7981 -36.4581 20.49
      vertex -35.3794 -34.1946 18.49
      vertex -37.3191 -35.5419 20.49
    endloop
  endfacet
  facet normal 0.414878 0.486861 0.768662
    outer loop
      vertex -36 -37.1382 20.49
      vertex -34.5 -35.2588 18.49
      vertex -36.7981 -36.4581 20.49
    endloop
  endfacet
  facet normal 1 -0 0
    outer loop
      vertex -37.5 -34.5 20.5
      vertex -37.5 34.5 20.49
      vertex -37.5 34.5 20.5
    endloop
  endfacet
  facet normal 1 0 0
    outer loop
      vertex -37.5 34.5 20.49
      vertex -37.5 -34.5 20.5
      vertex -37.5 -34.5 20.49
    endloop
  endfacet
  facet normal 0.414878 -0.486861 0.768662
    outer loop
      vertex -34.5 35.2588 18.49
      vertex -36 37.1382 20.49
      vertex -36.7981 36.4581 20.49
    endloop
  endfacet
  facet normal -0.869281 -0.494319 0
    outer loop
      vertex 37.3191 35.5419 20.49
      vertex 36.7981 36.4581 20.5
      vertex 36.7981 36.4581 20.49
    endloop
  endfacet
  facet normal -0.869281 -0.494319 0
    outer loop
      vertex 36.7981 36.4581 20.5
      vertex 37.3191 35.5419 20.49
      vertex 37.3191 35.5419 20.5
    endloop
  endfacet
  facet normal -0.228413 0.618128 0.752161
    outer loop
      vertex 35.0209 -37.5 20.49
      vertex 36 -37.1382 20.49
      vertex 33.8473 -35.5 18.49
    endloop
  endfacet
  facet normal -0.346615 0.938007 0
    outer loop
      vertex 36 -37.1382 20.49
      vertex 35.0209 -37.5 20.5
      vertex 36 -37.1382 20.5
    endloop
  endfacet
  facet normal -0.346615 0.938007 0
    outer loop
      vertex 35.0209 -37.5 20.5
      vertex 36 -37.1382 20.49
      vertex 35.0209 -37.5 20.49
    endloop
  endfacet
  facet normal -1 0 0
    outer loop
      vertex 37.5 -34.5 20.49
      vertex 37.5 34.5 20.5
      vertex 37.5 34.5 20.49
    endloop
  endfacet
  facet normal -1 -0 0
    outer loop
      vertex 37.5 34.5 20.5
      vertex 37.5 -34.5 20.49
      vertex 37.5 -34.5 20.5
    endloop
  endfacet
  facet normal -0.228421 0.618121 0.752164
    outer loop
      vertex 36 -37.1382 20.49
      vertex 34.5 -35.2588 18.49
      vertex 33.8473 -35.5 18.49
    endloop
  endfacet
  facet normal -0.414878 0.486861 0.768662
    outer loop
      vertex 36 -37.1382 20.49
      vertex 36.7981 -36.4581 20.49
      vertex 34.5 -35.2588 18.49
    endloop
  endfacet
  facet normal 0.648597 0.761132 -0
    outer loop
      vertex -36 -37.1382 20.49
      vertex -36.7981 -36.4581 20.5
      vertex -36 -37.1382 20.5
    endloop
  endfacet
  facet normal 0.648597 0.761132 0
    outer loop
      vertex -36.7981 -36.4581 20.5
      vertex -36 -37.1382 20.49
      vertex -36.7981 -36.4581 20.49
    endloop
  endfacet
  facet normal 0.98526 0.171066 0
    outer loop
      vertex -37.3191 -35.5419 20.5
      vertex -37.5 -34.5 20.49
      vertex -37.5 -34.5 20.5
    endloop
  endfacet
  facet normal 0.98526 0.171066 0
    outer loop
      vertex -37.5 -34.5 20.49
      vertex -37.3191 -35.5419 20.5
      vertex -37.3191 -35.5419 20.49
    endloop
  endfacet
  facet normal 0.672474 0.116758 0.730853
    outer loop
      vertex -35.3794 -34.1946 18.49
      vertex -35.5 -33.5 18.49
      vertex -37.5 -34.5 20.49
    endloop
  endfacet
  facet normal 0.98526 -0.171066 0
    outer loop
      vertex -37.5 34.5 20.5
      vertex -37.3191 35.5419 20.49
      vertex -37.3191 35.5419 20.5
    endloop
  endfacet
  facet normal 0.98526 -0.171066 0
    outer loop
      vertex -37.3191 35.5419 20.49
      vertex -37.5 34.5 20.5
      vertex -37.5 34.5 20.49
    endloop
  endfacet
  facet normal 0.672474 -0.116758 0.730853
    outer loop
      vertex -35.5 33.5 18.49
      vertex -35.3794 34.1946 18.49
      vertex -37.5 34.5 20.49
    endloop
  endfacet
  facet normal 0.346615 -0.938007 0
    outer loop
      vertex -36 37.1382 20.49
      vertex -35.0209 37.5 20.5
      vertex -36 37.1382 20.5
    endloop
  endfacet
  facet normal 0.346615 -0.938007 0
    outer loop
      vertex -35.0209 37.5 20.5
      vertex -36 37.1382 20.49
      vertex -35.0209 37.5 20.49
    endloop
  endfacet
  facet normal 0 -0.707107 0.707107
    outer loop
      vertex -33.8473 35.5 18.49
      vertex 35.0209 37.5 20.49
      vertex -35.0209 37.5 20.49
    endloop
  endfacet
  facet normal 0 -0.707107 0.707107
    outer loop
      vertex 35.0209 37.5 20.49
      vertex -33.8473 35.5 18.49
      vertex 33.8473 35.5 18.49
    endloop
  endfacet
  facet normal -0.672474 -0.116758 0.730853
    outer loop
      vertex 35.5 33.5 18.49
      vertex 37.5 34.5 20.49
      vertex 35.3794 34.1946 18.49
    endloop
  endfacet
  facet normal 0.228412 0.618126 0.752162
    outer loop
      vertex -35.0209 -37.5 20.49
      vertex -34.5 -35.2588 18.49
      vertex -36 -37.1382 20.49
    endloop
  endfacet
  facet normal 0.346615 0.938007 -0
    outer loop
      vertex -35.0209 -37.5 20.49
      vertex -36 -37.1382 20.5
      vertex -35.0209 -37.5 20.5
    endloop
  endfacet
  facet normal 0.346615 0.938007 0
    outer loop
      vertex -36 -37.1382 20.5
      vertex -35.0209 -37.5 20.49
      vertex -36 -37.1382 20.49
    endloop
  endfacet
  facet normal 0 1 -0
    outer loop
      vertex -33.9791 -37.5 20.49
      vertex -35.0209 -37.5 20.5
      vertex -33.9791 -37.5 20.5
    endloop
  endfacet
  facet normal 0 1 0
    outer loop
      vertex -35.0209 -37.5 20.5
      vertex -33.9791 -37.5 20.49
      vertex -35.0209 -37.5 20.49
    endloop
  endfacet
  facet normal -0.869281 0.494319 0
    outer loop
      vertex 36.7981 -36.4581 20.49
      vertex 37.3191 -35.5419 20.5
      vertex 37.3191 -35.5419 20.49
    endloop
  endfacet
  facet normal -0.869281 0.494319 0
    outer loop
      vertex 37.3191 -35.5419 20.5
      vertex 36.7981 -36.4581 20.49
      vertex 36.7981 -36.4581 20.5
    endloop
  endfacet
  facet normal 0 0.707107 0.707107
    outer loop
      vertex -33.1527 -35.5 18.49
      vertex -33.8473 -35.5 18.49
      vertex -35.0209 -37.5 20.49
    endloop
  endfacet
  facet normal 0 0.707107 0.707107
    outer loop
      vertex 33.8473 -35.5 18.49
      vertex -33.9791 -37.5 20.49
      vertex 35.0209 -37.5 20.49
    endloop
  endfacet
  facet normal 0 0.707107 0.707107
    outer loop
      vertex -33.9791 -37.5 20.49
      vertex 33.8473 -35.5 18.49
      vertex -33.1527 -35.5 18.49
    endloop
  endfacet
  facet normal 0.228422 0.618123 0.752161
    outer loop
      vertex -33.8473 -35.5 18.49
      vertex -34.5 -35.2588 18.49
      vertex -35.0209 -37.5 20.49
    endloop
  endfacet
  facet normal 0.869281 0.494319 0
    outer loop
      vertex -36.7981 -36.4581 20.5
      vertex -37.3191 -35.5419 20.49
      vertex -37.3191 -35.5419 20.5
    endloop
  endfacet
  facet normal 0.869281 0.494319 0
    outer loop
      vertex -37.3191 -35.5419 20.49
      vertex -36.7981 -36.4581 20.5
      vertex -36.7981 -36.4581 20.49
    endloop
  endfacet
  facet normal 0.56312 0.320189 0.761823
    outer loop
      vertex -35.0321 -34.8054 18.49
      vertex -35.3794 -34.1946 18.49
      vertex -36.7981 -36.4581 20.49
    endloop
  endfacet
  facet normal 0.672474 -0.116758 0.730853
    outer loop
      vertex -35.3794 34.1946 18.49
      vertex -37.3191 35.5419 20.49
      vertex -37.5 34.5 20.49
    endloop
  endfacet
  facet normal 0.869281 -0.494319 0
    outer loop
      vertex -37.3191 35.5419 20.5
      vertex -36.7981 36.4581 20.49
      vertex -36.7981 36.4581 20.5
    endloop
  endfacet
  facet normal 0.869281 -0.494319 0
    outer loop
      vertex -36.7981 36.4581 20.49
      vertex -37.3191 35.5419 20.5
      vertex -37.3191 35.5419 20.49
    endloop
  endfacet
  facet normal 0.5631 -0.320208 0.76183
    outer loop
      vertex -35.3794 34.1946 18.49
      vertex -36.7981 36.4581 20.49
      vertex -37.3191 35.5419 20.49
    endloop
  endfacet
  facet normal 0.56312 -0.320189 0.761823
    outer loop
      vertex -35.3794 34.1946 18.49
      vertex -35.0321 34.8054 18.49
      vertex -36.7981 36.4581 20.49
    endloop
  endfacet
  facet normal 0.228422 -0.618123 0.752161
    outer loop
      vertex -34.5 35.2588 18.49
      vertex -33.8473 35.5 18.49
      vertex -35.0209 37.5 20.49
    endloop
  endfacet
  facet normal 0.228412 -0.618126 0.752162
    outer loop
      vertex -34.5 35.2588 18.49
      vertex -35.0209 37.5 20.49
      vertex -36 37.1382 20.49
    endloop
  endfacet
  facet normal -0.98526 0.171066 0
    outer loop
      vertex 37.3191 -35.5419 20.49
      vertex 37.5 -34.5 20.5
      vertex 37.5 -34.5 20.49
    endloop
  endfacet
  facet normal -0.98526 0.171066 0
    outer loop
      vertex 37.5 -34.5 20.5
      vertex 37.3191 -35.5419 20.49
      vertex 37.3191 -35.5419 20.5
    endloop
  endfacet
  facet normal 0 1 -0
    outer loop
      vertex 35.0209 -37.5 20.49
      vertex -33.9791 -37.5 20.5
      vertex 35.0209 -37.5 20.5
    endloop
  endfacet
  facet normal 0 1 0
    outer loop
      vertex -33.9791 -37.5 20.5
      vertex 35.0209 -37.5 20.49
      vertex -33.9791 -37.5 20.49
    endloop
  endfacet
  facet normal 0 0.707107 0.707107
    outer loop
      vertex -33.9791 -37.5 20.49
      vertex -33.1527 -35.5 18.49
      vertex -35.0209 -37.5 20.49
    endloop
  endfacet
  facet normal -0.672474 0.116758 0.730853
    outer loop
      vertex 37.3191 -35.5419 20.49
      vertex 37.5 -34.5 20.49
      vertex 35.3794 -34.1946 18.49
    endloop
  endfacet
  facet normal -0.5631 0.320208 0.76183
    outer loop
      vertex 36.7981 -36.4581 20.49
      vertex 37.3191 -35.5419 20.49
      vertex 35.3794 -34.1946 18.49
    endloop
  endfacet
  facet normal -0.648574 -0.761152 0
    outer loop
      vertex 34.5 35.2588 16.5
      vertex 35.0321 34.8054 18.49
      vertex 34.5 35.2588 18.49
    endloop
  endfacet
  facet normal -0.648574 -0.761152 -0
    outer loop
      vertex 35.0321 34.8054 18.49
      vertex 34.5 35.2588 16.5
      vertex 35.0321 34.8054 16.5
    endloop
  endfacet
  facet normal 0 1 -0
    outer loop
      vertex 33.8473 -35.5 16.5
      vertex -33.1527 -35.5 18.49
      vertex 33.8473 -35.5 18.49
    endloop
  endfacet
  facet normal 0 1 0
    outer loop
      vertex -33.1527 -35.5 18.49
      vertex 33.8473 -35.5 16.5
      vertex -33.1527 -35.5 16.5
    endloop
  endfacet
  facet normal 0.648574 -0.761152 0
    outer loop
      vertex -35.0321 34.8054 16.5
      vertex -34.5 35.2588 18.49
      vertex -35.0321 34.8054 18.49
    endloop
  endfacet
  facet normal 0.648574 -0.761152 0
    outer loop
      vertex -34.5 35.2588 18.49
      vertex -35.0321 34.8054 16.5
      vertex -34.5 35.2588 16.5
    endloop
  endfacet
  facet normal -0.346631 0.938002 0
    outer loop
      vertex 34.5 -35.2588 16.5
      vertex 33.8473 -35.5 18.49
      vertex 34.5 -35.2588 18.49
    endloop
  endfacet
  facet normal -0.346631 0.938002 0
    outer loop
      vertex 33.8473 -35.5 18.49
      vertex 34.5 -35.2588 16.5
      vertex 33.8473 -35.5 16.5
    endloop
  endfacet
  facet normal -0.98526 -0.171066 0
    outer loop
      vertex 35.5 33.5 16.5
      vertex 35.3794 34.1946 18.49
      vertex 35.3794 34.1946 16.5
    endloop
  endfacet
  facet normal -0.98526 -0.171066 0
    outer loop
      vertex 35.3794 34.1946 18.49
      vertex 35.5 33.5 16.5
      vertex 35.5 33.5 18.49
    endloop
  endfacet
  facet normal -0.869301 -0.494283 0
    outer loop
      vertex 35.3794 34.1946 16.5
      vertex 35.0321 34.8054 18.49
      vertex 35.0321 34.8054 16.5
    endloop
  endfacet
  facet normal -0.869301 -0.494283 0
    outer loop
      vertex 35.0321 34.8054 18.49
      vertex 35.3794 34.1946 16.5
      vertex 35.3794 34.1946 18.49
    endloop
  endfacet
  facet normal 0 -1 0
    outer loop
      vertex -33.8473 35.5 16.5
      vertex 33.8473 35.5 18.49
      vertex -33.8473 35.5 18.49
    endloop
  endfacet
  facet normal 0 -1 -0
    outer loop
      vertex 33.8473 35.5 18.49
      vertex -33.8473 35.5 16.5
      vertex 33.8473 35.5 16.5
    endloop
  endfacet
  facet normal 1 -0 0
    outer loop
      vertex -35.5 -33.5 18.49
      vertex -35.5 33.5 16.5
      vertex -35.5 33.5 18.49
    endloop
  endfacet
  facet normal 1 0 0
    outer loop
      vertex -35.5 33.5 16.5
      vertex -35.5 -33.5 18.49
      vertex -35.5 -33.5 16.5
    endloop
  endfacet
  facet normal 0.346631 -0.938002 0
    outer loop
      vertex -34.5 35.2588 16.5
      vertex -33.8473 35.5 18.49
      vertex -34.5 35.2588 18.49
    endloop
  endfacet
  facet normal 0.346631 -0.938002 0
    outer loop
      vertex -33.8473 35.5 18.49
      vertex -34.5 35.2588 16.5
      vertex -33.8473 35.5 16.5
    endloop
  endfacet
  facet normal 0.98526 0.171066 0
    outer loop
      vertex -35.3794 -34.1946 18.49
      vertex -35.5 -33.5 16.5
      vertex -35.5 -33.5 18.49
    endloop
  endfacet
  facet normal 0.98526 0.171066 0
    outer loop
      vertex -35.5 -33.5 16.5
      vertex -35.3794 -34.1946 18.49
      vertex -35.3794 -34.1946 16.5
    endloop
  endfacet
  facet normal -0.648574 0.761152 0
    outer loop
      vertex 35.0321 -34.8054 16.5
      vertex 34.5 -35.2588 18.49
      vertex 35.0321 -34.8054 18.49
    endloop
  endfacet
  facet normal -0.648574 0.761152 0
    outer loop
      vertex 34.5 -35.2588 18.49
      vertex 35.0321 -34.8054 16.5
      vertex 34.5 -35.2588 16.5
    endloop
  endfacet
  facet normal 0 1 -0
    outer loop
      vertex -33.1527 -35.5 16.5
      vertex -33.8473 -35.5 18.49
      vertex -33.1527 -35.5 18.49
    endloop
  endfacet
  facet normal 0 1 0
    outer loop
      vertex -33.8473 -35.5 18.49
      vertex -33.1527 -35.5 16.5
      vertex -33.8473 -35.5 16.5
    endloop
  endfacet
  facet normal 0.648574 0.761152 -0
    outer loop
      vertex -34.5 -35.2588 16.5
      vertex -35.0321 -34.8054 18.49
      vertex -34.5 -35.2588 18.49
    endloop
  endfacet
  facet normal 0.648574 0.761152 0
    outer loop
      vertex -35.0321 -34.8054 18.49
      vertex -34.5 -35.2588 16.5
      vertex -35.0321 -34.8054 16.5
    endloop
  endfacet
  facet normal -1 0 0
    outer loop
      vertex 35.5 -33.5 16.5
      vertex 35.5 33.5 18.49
      vertex 35.5 33.5 16.5
    endloop
  endfacet
  facet normal -1 -0 0
    outer loop
      vertex 35.5 33.5 18.49
      vertex 35.5 -33.5 16.5
      vertex 35.5 -33.5 18.49
    endloop
  endfacet
  facet normal -0.869301 0.494283 0
    outer loop
      vertex 35.0321 -34.8054 16.5
      vertex 35.3794 -34.1946 18.49
      vertex 35.3794 -34.1946 16.5
    endloop
  endfacet
  facet normal -0.869301 0.494283 0
    outer loop
      vertex 35.3794 -34.1946 18.49
      vertex 35.0321 -34.8054 16.5
      vertex 35.0321 -34.8054 18.49
    endloop
  endfacet
  facet normal -0.346631 -0.938002 0
    outer loop
      vertex 33.8473 35.5 16.5
      vertex 34.5 35.2588 18.49
      vertex 33.8473 35.5 18.49
    endloop
  endfacet
  facet normal -0.346631 -0.938002 -0
    outer loop
      vertex 34.5 35.2588 18.49
      vertex 33.8473 35.5 16.5
      vertex 34.5 35.2588 16.5
    endloop
  endfacet
  facet normal 0.98526 -0.171066 0
    outer loop
      vertex -35.5 33.5 18.49
      vertex -35.3794 34.1946 16.5
      vertex -35.3794 34.1946 18.49
    endloop
  endfacet
  facet normal 0.98526 -0.171066 0
    outer loop
      vertex -35.3794 34.1946 16.5
      vertex -35.5 33.5 18.49
      vertex -35.5 33.5 16.5
    endloop
  endfacet
  facet normal 0.869301 -0.494283 0
    outer loop
      vertex -35.3794 34.1946 18.49
      vertex -35.0321 34.8054 16.5
      vertex -35.0321 34.8054 18.49
    endloop
  endfacet
  facet normal 0.869301 -0.494283 0
    outer loop
      vertex -35.0321 34.8054 16.5
      vertex -35.3794 34.1946 18.49
      vertex -35.3794 34.1946 16.5
    endloop
  endfacet
  facet normal 0.869301 0.494283 0
    outer loop
      vertex -35.0321 -34.8054 18.49
      vertex -35.3794 -34.1946 16.5
      vertex -35.3794 -34.1946 18.49
    endloop
  endfacet
  facet normal 0.869301 0.494283 0
    outer loop
      vertex -35.3794 -34.1946 16.5
      vertex -35.0321 -34.8054 18.49
      vertex -35.0321 -34.8054 16.5
    endloop
  endfacet
  facet normal 0.346631 0.938002 -0
    outer loop
      vertex -33.8473 -35.5 16.5
      vertex -34.5 -35.2588 18.49
      vertex -33.8473 -35.5 18.49
    endloop
  endfacet
  facet normal 0.346631 0.938002 0
    outer loop
      vertex -34.5 -35.2588 18.49
      vertex -33.8473 -35.5 16.5
      vertex -34.5 -35.2588 16.5
    endloop
  endfacet
  facet normal -0.98526 0.171066 0
    outer loop
      vertex 35.3794 -34.1946 16.5
      vertex 35.5 -33.5 18.49
      vertex 35.5 -33.5 16.5
    endloop
  endfacet
  facet normal -0.98526 0.171066 0
    outer loop
      vertex 35.5 -33.5 18.49
      vertex 35.3794 -34.1946 16.5
      vertex 35.3794 -34.1946 18.49
    endloop
  endfacet
  facet normal 1 -0 0
    outer loop
      vertex -43 -43.5 16.5
      vertex -43 43.5 0
      vertex -43 43.5 16.5
    endloop
  endfacet
  facet normal 1 0 0
    outer loop
      vertex -43 43.5 0
      vertex -43 -43.5 16.5
      vertex -43 -43.5 0
    endloop
  endfacet
  facet normal 0 0 -1
    outer loop
      vertex 43 -43.5 16.5
      vertex 35.5 -33.5 16.5
      vertex 43 43.5 16.5
    endloop
  endfacet
  facet normal 0 0 -1
    outer loop
      vertex 43 -43.5 16.5
      vertex 35.3794 -34.1946 16.5
      vertex 35.5 -33.5 16.5
    endloop
  endfacet
  facet normal 0 0 -1
    outer loop
      vertex 43 -43.5 16.5
      vertex 35.0321 -34.8054 16.5
      vertex 35.3794 -34.1946 16.5
    endloop
  endfacet
  facet normal 0 0 -1
    outer loop
      vertex 43 -43.5 16.5
      vertex 34.5 -35.2588 16.5
      vertex 35.0321 -34.8054 16.5
    endloop
  endfacet
  facet normal 0 0 -1
    outer loop
      vertex 43 -43.5 16.5
      vertex 33.8473 -35.5 16.5
      vertex 34.5 -35.2588 16.5
    endloop
  endfacet
  facet normal 0 0 -1
    outer loop
      vertex 43 -43.5 16.5
      vertex -33.1527 -35.5 16.5
      vertex 33.8473 -35.5 16.5
    endloop
  endfacet
  facet normal 0 0 -1
    outer loop
      vertex -43 -43.5 16.5
      vertex -33.1527 -35.5 16.5
      vertex 43 -43.5 16.5
    endloop
  endfacet
  facet normal -0 0 -1
    outer loop
      vertex -35.5 -33.5 16.5
      vertex -43 -43.5 16.5
      vertex -35.5 33.5 16.5
    endloop
  endfacet
  facet normal -0 0 -1
    outer loop
      vertex -35.3794 -34.1946 16.5
      vertex -43 -43.5 16.5
      vertex -35.5 -33.5 16.5
    endloop
  endfacet
  facet normal -0 0 -1
    outer loop
      vertex -35.0321 -34.8054 16.5
      vertex -43 -43.5 16.5
      vertex -35.3794 -34.1946 16.5
    endloop
  endfacet
  facet normal -0 0 -1
    outer loop
      vertex -34.5 -35.2588 16.5
      vertex -43 -43.5 16.5
      vertex -35.0321 -34.8054 16.5
    endloop
  endfacet
  facet normal -0 0 -1
    outer loop
      vertex -33.8473 -35.5 16.5
      vertex -43 -43.5 16.5
      vertex -34.5 -35.2588 16.5
    endloop
  endfacet
  facet normal -0 0 -1
    outer loop
      vertex -33.1527 -35.5 16.5
      vertex -43 -43.5 16.5
      vertex -33.8473 -35.5 16.5
    endloop
  endfacet
  facet normal 0 0 -1
    outer loop
      vertex 35.5 33.5 16.5
      vertex 43 43.5 16.5
      vertex 35.5 -33.5 16.5
    endloop
  endfacet
  facet normal 0 0 -1
    outer loop
      vertex 35.3794 34.1946 16.5
      vertex 43 43.5 16.5
      vertex 35.5 33.5 16.5
    endloop
  endfacet
  facet normal 0 0 -1
    outer loop
      vertex 35.0321 34.8054 16.5
      vertex 43 43.5 16.5
      vertex 35.3794 34.1946 16.5
    endloop
  endfacet
  facet normal 0 0 -1
    outer loop
      vertex 34.5 35.2588 16.5
      vertex 43 43.5 16.5
      vertex 35.0321 34.8054 16.5
    endloop
  endfacet
  facet normal 0 0 -1
    outer loop
      vertex 33.8473 35.5 16.5
      vertex 43 43.5 16.5
      vertex 34.5 35.2588 16.5
    endloop
  endfacet
  facet normal 0 0 -1
    outer loop
      vertex -33.8473 35.5 16.5
      vertex 43 43.5 16.5
      vertex 33.8473 35.5 16.5
    endloop
  endfacet
  facet normal 0 0 -1
    outer loop
      vertex -33.8473 35.5 16.5
      vertex -43 43.5 16.5
      vertex 43 43.5 16.5
    endloop
  endfacet
  facet normal 0 0 -1
    outer loop
      vertex -34.5 35.2588 16.5
      vertex -43 43.5 16.5
      vertex -33.8473 35.5 16.5
    endloop
  endfacet
  facet normal 0 0 -1
    outer loop
      vertex -35.0321 34.8054 16.5
      vertex -43 43.5 16.5
      vertex -34.5 35.2588 16.5
    endloop
  endfacet
  facet normal 0 0 -1
    outer loop
      vertex -35.3794 34.1946 16.5
      vertex -43 43.5 16.5
      vertex -35.0321 34.8054 16.5
    endloop
  endfacet
  facet normal 0 0 -1
    outer loop
      vertex -35.5 33.5 16.5
      vertex -43 43.5 16.5
      vertex -35.3794 34.1946 16.5
    endloop
  endfacet
  facet normal 0 0 -1
    outer loop
      vertex -43 43.5 16.5
      vertex -35.5 33.5 16.5
      vertex -43 -43.5 16.5
    endloop
  endfacet
  facet normal -1 0 0
    outer loop
      vertex 43 -43.5 0
      vertex 43 43.5 16.5
      vertex 43 43.5 0
    endloop
  endfacet
  facet normal -1 -0 0
    outer loop
      vertex 43 43.5 16.5
      vertex 43 -43.5 0
      vertex 43 -43.5 16.5
    endloop
  endfacet
  facet normal 0 1 -0
    outer loop
      vertex 43 -43.5 0
      vertex -43 -43.5 16.5
      vertex 43 -43.5 16.5
    endloop
  endfacet
  facet normal 0 1 0
    outer loop
      vertex -43 -43.5 16.5
      vertex 43 -43.5 0
      vertex -43 -43.5 0
    endloop
  endfacet
  facet normal 0 -1 0
    outer loop
      vertex -43 43.5 0
      vertex 43 43.5 16.5
      vertex -43 43.5 16.5
    endloop
  endfacet
  facet normal 0 -1 -0
    outer loop
      vertex 43 43.5 16.5
      vertex -43 43.5 0
      vertex 43 43.5 0
    endloop
  endfacet
  facet normal 0 0 1
    outer loop
      vertex 44.5603 44.8473 20.5
      vertex 44.8473 44.5 20.5
      vertex 44.8264 44.6206 20.5
    endloop
  endfacet
  facet normal 0 0 1
    outer loop
      vertex 44.8473 44.5 20.5
      vertex 37.5 34.5 20.5
      vertex 44.8473 -44.5 20.5
    endloop
  endfacet
  facet normal 0 0 1
    outer loop
      vertex 44.5603 44.8473 20.5
      vertex 44.8264 44.6206 20.5
      vertex 44.766 44.7267 20.5
    endloop
  endfacet
  facet normal -0 0 1
    outer loop
      vertex 37.5 -34.5 20.5
      vertex 44.8473 -44.5 20.5
      vertex 37.5 34.5 20.5
    endloop
  endfacet
  facet normal 0 0 1
    outer loop
      vertex 44.5603 44.8473 20.5
      vertex 44.766 44.7267 20.5
      vertex 44.6736 44.8054 20.5
    endloop
  endfacet
  facet normal -0 0 1
    outer loop
      vertex 37.3191 -35.5419 20.5
      vertex 44.8473 -44.5 20.5
      vertex 37.5 -34.5 20.5
    endloop
  endfacet
  facet normal 0 0 1
    outer loop
      vertex 44.8473 44.5 20.5
      vertex 44.5603 44.8473 20.5
      vertex 36.7981 36.4581 20.5
    endloop
  endfacet
  facet normal -0 0 1
    outer loop
      vertex 36.7981 -36.4581 20.5
      vertex 44.8473 -44.5 20.5
      vertex 37.3191 -35.5419 20.5
    endloop
  endfacet
  facet normal 0 -0 1
    outer loop
      vertex 44.5603 -44.8473 20.5
      vertex 44.8473 -44.5 20.5
      vertex 36.7981 -36.4581 20.5
    endloop
  endfacet
  facet normal 0 0 1
    outer loop
      vertex 44.8473 44.5 20.5
      vertex 37.3191 35.5419 20.5
      vertex 37.5 34.5 20.5
    endloop
  endfacet
  facet normal 0 0 1
    outer loop
      vertex 44.8473 44.5 20.5
      vertex 36.7981 36.4581 20.5
      vertex 37.3191 35.5419 20.5
    endloop
  endfacet
  facet normal 0 0 1
    outer loop
      vertex 44.5603 44.8473 20.5
      vertex 36 37.1382 20.5
      vertex 36.7981 36.4581 20.5
    endloop
  endfacet
  facet normal 0 0 1
    outer loop
      vertex 44.5603 44.8473 20.5
      vertex 35.0209 37.5 20.5
      vertex 36 37.1382 20.5
    endloop
  endfacet
  facet normal 0 0 1
    outer loop
      vertex 44.5603 44.8473 20.5
      vertex -35.0209 37.5 20.5
      vertex 35.0209 37.5 20.5
    endloop
  endfacet
  facet normal 0 0 1
    outer loop
      vertex -37.3191 35.5419 20.5
      vertex -44.8473 44.5 20.5
      vertex -37.5 34.5 20.5
    endloop
  endfacet
  facet normal 0 0 1
    outer loop
      vertex -36.7981 36.4581 20.5
      vertex -44.8473 44.5 20.5
      vertex -37.3191 35.5419 20.5
    endloop
  endfacet
  facet normal -0 0 1
    outer loop
      vertex -44.8473 44.5 20.5
      vertex -36.7981 36.4581 20.5
      vertex -44.5603 44.8473 20.5
    endloop
  endfacet
  facet normal 0 0 1
    outer loop
      vertex -36 37.1382 20.5
      vertex -44.5603 44.8473 20.5
      vertex -36.7981 36.4581 20.5
    endloop
  endfacet
  facet normal 0 0 1
    outer loop
      vertex -35.0209 37.5 20.5
      vertex -44.5603 44.8473 20.5
      vertex -36 37.1382 20.5
    endloop
  endfacet
  facet normal -0 0 1
    outer loop
      vertex -44.5603 44.8473 20.5
      vertex -35.0209 37.5 20.5
      vertex 44.5603 44.8473 20.5
    endloop
  endfacet
  facet normal 0 0 1
    outer loop
      vertex 44.8473 -44.5 20.5
      vertex 44.5603 -44.8473 20.5
      vertex 44.8264 -44.6206 20.5
    endloop
  endfacet
  facet normal 0 0 1
    outer loop
      vertex 44.766 -44.7267 20.5
      vertex 44.5603 -44.8473 20.5
      vertex 44.6736 -44.8054 20.5
    endloop
  endfacet
  facet normal 0 0 1
    outer loop
      vertex 44.8264 -44.6206 20.5
      vertex 44.5603 -44.8473 20.5
      vertex 44.766 -44.7267 20.5
    endloop
  endfacet
  facet normal -0 0 1
    outer loop
      vertex 36 -37.1382 20.5
      vertex 44.5603 -44.8473 20.5
      vertex 36.7981 -36.4581 20.5
    endloop
  endfacet
  facet normal -0 0 1
    outer loop
      vertex 35.0209 -37.5 20.5
      vertex 44.5603 -44.8473 20.5
      vertex 36 -37.1382 20.5
    endloop
  endfacet
  facet normal -0 0 1
    outer loop
      vertex -33.9791 -37.5 20.5
      vertex 44.5603 -44.8473 20.5
      vertex 35.0209 -37.5 20.5
    endloop
  endfacet
  facet normal 0 0 1
    outer loop
      vertex -44.5603 -44.8473 20.5
      vertex -33.9791 -37.5 20.5
      vertex -35.0209 -37.5 20.5
    endloop
  endfacet
  facet normal 0 0 1
    outer loop
      vertex -33.9791 -37.5 20.5
      vertex -44.5603 -44.8473 20.5
      vertex 44.5603 -44.8473 20.5
    endloop
  endfacet
  facet normal 0 0 1
    outer loop
      vertex -36 -37.1382 20.5
      vertex -44.5603 -44.8473 20.5
      vertex -35.0209 -37.5 20.5
    endloop
  endfacet
  facet normal 0 0 1
    outer loop
      vertex -36.7981 -36.4581 20.5
      vertex -44.5603 -44.8473 20.5
      vertex -36 -37.1382 20.5
    endloop
  endfacet
  facet normal 0 0 1
    outer loop
      vertex -44.8473 -44.5 20.5
      vertex -36.7981 -36.4581 20.5
      vertex -37.3191 -35.5419 20.5
    endloop
  endfacet
  facet normal 0 0 1
    outer loop
      vertex -44.8473 -44.5 20.5
      vertex -37.3191 -35.5419 20.5
      vertex -37.5 -34.5 20.5
    endloop
  endfacet
  facet normal 0 0 1
    outer loop
      vertex -37.5 34.5 20.5
      vertex -44.8473 44.5 20.5
      vertex -37.5 -34.5 20.5
    endloop
  endfacet
  facet normal 0 0 1
    outer loop
      vertex -44.8473 44.5 20.5
      vertex -44.5603 44.8473 20.5
      vertex -44.6736 44.8054 20.5
    endloop
  endfacet
  facet normal 0 0 1
    outer loop
      vertex -44.8473 -44.5 20.5
      vertex -37.5 -34.5 20.5
      vertex -44.8473 44.5 20.5
    endloop
  endfacet
  facet normal 0 0 1
    outer loop
      vertex -44.8473 44.5 20.5
      vertex -44.6736 44.8054 20.5
      vertex -44.766 44.7267 20.5
    endloop
  endfacet
  facet normal 0 0 1
    outer loop
      vertex -36.7981 -36.4581 20.5
      vertex -44.8473 -44.5 20.5
      vertex -44.5603 -44.8473 20.5
    endloop
  endfacet
  facet normal 0 0 1
    outer loop
      vertex -44.8473 44.5 20.5
      vertex -44.766 44.7267 20.5
      vertex -44.8264 44.6206 20.5
    endloop
  endfacet
  facet normal 0 0 1
    outer loop
      vertex -44.5603 -44.8473 20.5
      vertex -44.8473 -44.5 20.5
      vertex -44.6736 -44.8054 20.5
    endloop
  endfacet
  facet normal 0 0 1
    outer loop
      vertex -44.6736 -44.8054 20.5
      vertex -44.8473 -44.5 20.5
      vertex -44.766 -44.7267 20.5
    endloop
  endfacet
  facet normal 0 0 1
    outer loop
      vertex -44.766 -44.7267 20.5
      vertex -44.8473 -44.5 20.5
      vertex -44.8264 -44.6206 20.5
    endloop
  endfacet
  facet normal -0.98526 -0.171066 0
    outer loop
      vertex -46.3794 -45.1946 0
      vertex -46.5 -44.5 18.5
      vertex -46.5 -44.5 0
    endloop
  endfacet
  facet normal -0.98526 -0.171066 0
    outer loop
      vertex -46.5 -44.5 18.5
      vertex -46.3794 -45.1946 0
      vertex -46.3794 -45.1946 18.5
    endloop
  endfacet
  facet normal 0.971152 -0.168616 0.168616
    outer loop
      vertex 46.3794 -44.5 19.1946
      vertex 46.3794 -45.1946 18.5
      vertex 46.5 -44.5 18.5
    endloop
  endfacet
  facet normal -0.648574 0.761152 0
    outer loop
      vertex -45.5 46.2588 0
      vertex -46.0321 45.8054 18.5
      vertex -45.5 46.2588 18.5
    endloop
  endfacet
  facet normal -0.648574 0.761152 0
    outer loop
      vertex -46.0321 45.8054 18.5
      vertex -45.5 46.2588 0
      vertex -46.0321 45.8054 0
    endloop
  endfacet
  facet normal -0.869301 -0.494283 0
    outer loop
      vertex -46.0321 -45.8054 0
      vertex -46.3794 -45.1946 18.5
      vertex -46.3794 -45.1946 0
    endloop
  endfacet
  facet normal -0.869301 -0.494283 0
    outer loop
      vertex -46.3794 -45.1946 18.5
      vertex -46.0321 -45.8054 0
      vertex -46.0321 -45.8054 18.5
    endloop
  endfacet
  facet normal -0.422215 -0.495522 0.759073
    outer loop
      vertex -45 -45.3794 20.2588
      vertex -45.6736 -45.5 19.8054
      vertex -45.266 -45.8473 19.8054
    endloop
  endfacet
  facet normal -0.341541 -0.924227 0.170746
    outer loop
      vertex -44.8264 -46.3794 19.1946
      vertex -45.5 -46.2588 18.5
      vertex -44.8473 -46.5 18.5
    endloop
  endfacet
  facet normal -1 0 0
    outer loop
      vertex -46.5 -44.5 0
      vertex -46.5 44.5 18.5
      vertex -46.5 44.5 0
    endloop
  endfacet
  facet normal -1 -0 0
    outer loop
      vertex -46.5 44.5 18.5
      vertex -46.5 -44.5 0
      vertex -46.5 -44.5 18.5
    endloop
  endfacet
  facet normal 0.639133 0.750072 0.170006
    outer loop
      vertex 46.0321 45.8054 18.5
      vertex 45.5 46.2588 18.5
      vertex 45.9397 45.7267 19.1946
    endloop
  endfacet
  facet normal 0.98526 0.171066 0
    outer loop
      vertex 46.5 44.5 18.5
      vertex 46.3794 45.1946 0
      vertex 46.3794 45.1946 18.5
    endloop
  endfacet
  facet normal 0.98526 0.171066 0
    outer loop
      vertex 46.3794 45.1946 0
      vertex 46.5 44.5 18.5
      vertex 46.5 44.5 0
    endloop
  endfacet
  facet normal 0.346631 -0.938002 0
    outer loop
      vertex 44.8473 -46.5 0
      vertex 45.5 -46.2588 18.5
      vertex 44.8473 -46.5 18.5
    endloop
  endfacet
  facet normal 0.346631 -0.938002 0
    outer loop
      vertex 45.5 -46.2588 18.5
      vertex 44.8473 -46.5 0
      vertex 45.5 -46.2588 0
    endloop
  endfacet
  facet normal 0 -0.98526 0.171066
    outer loop
      vertex -44.8264 -46.3794 19.1946
      vertex -44.8473 -46.5 18.5
      vertex -44.1527 -46.5 18.5
    endloop
  endfacet
  facet normal -0.422215 0.495522 0.759073
    outer loop
      vertex -45.266 45.8473 19.8054
      vertex -45.6736 45.5 19.8054
      vertex -45 45.3794 20.2588
    endloop
  endfacet
  facet normal -0.648574 -0.761152 0
    outer loop
      vertex -46.0321 -45.8054 0
      vertex -45.5 -46.2588 18.5
      vertex -46.0321 -45.8054 18.5
    endloop
  endfacet
  facet normal -0.648574 -0.761152 -0
    outer loop
      vertex -45.5 -46.2588 18.5
      vertex -46.0321 -45.8054 0
      vertex -45.5 -46.2588 0
    endloop
  endfacet
  facet normal 0.98526 -0 0.171066
    outer loop
      vertex 46.3794 -44.5 19.1946
      vertex 46.5 44.5 18.5
      vertex 46.3794 44.5 19.1946
    endloop
  endfacet
  facet normal 0.98526 0 0.171066
    outer loop
      vertex 46.5 44.5 18.5
      vertex 46.3794 -44.5 19.1946
      vertex 46.5 -44.5 18.5
    endloop
  endfacet
  facet normal -0.98526 0.171066 0
    outer loop
      vertex -46.5 44.5 0
      vertex -46.3794 45.1946 18.5
      vertex -46.3794 45.1946 0
    endloop
  endfacet
  facet normal -0.98526 0.171066 0
    outer loop
      vertex -46.3794 45.1946 18.5
      vertex -46.5 44.5 0
      vertex -46.5 44.5 18.5
    endloop
  endfacet
  facet normal 1 -0 0
    outer loop
      vertex 46.5 -44.5 18.5
      vertex 46.5 44.5 0
      vertex 46.5 44.5 18.5
    endloop
  endfacet
  facet normal 1 0 0
    outer loop
      vertex 46.5 44.5 0
      vertex 46.5 -44.5 18.5
      vertex 46.5 -44.5 0
    endloop
  endfacet
  facet normal 0 1 -0
    outer loop
      vertex 44.8473 46.5 0
      vertex -44.8473 46.5 18.5
      vertex 44.8473 46.5 18.5
    endloop
  endfacet
  facet normal 0 1 0
    outer loop
      vertex -44.8473 46.5 18.5
      vertex 44.8473 46.5 0
      vertex -44.8473 46.5 0
    endloop
  endfacet
  facet normal 0.648574 0.761152 -0
    outer loop
      vertex 46.0321 45.8054 0
      vertex 45.5 46.2588 18.5
      vertex 46.0321 45.8054 18.5
    endloop
  endfacet
  facet normal 0.648574 0.761152 0
    outer loop
      vertex 45.5 46.2588 18.5
      vertex 46.0321 45.8054 0
      vertex 45.5 46.2588 0
    endloop
  endfacet
  facet normal 0.856772 0.487159 0.169169
    outer loop
      vertex 46.0321 45.8054 18.5
      vertex 45.9397 45.7267 19.1946
      vertex 46.3794 45.1946 18.5
    endloop
  endfacet
  facet normal -0.346631 0.938002 0
    outer loop
      vertex -44.8473 46.5 0
      vertex -45.5 46.2588 18.5
      vertex -44.8473 46.5 18.5
    endloop
  endfacet
  facet normal -0.346631 0.938002 0
    outer loop
      vertex -45.5 46.2588 18.5
      vertex -44.8473 46.5 0
      vertex -45.5 46.2588 0
    endloop
  endfacet
  facet normal -0.869301 0 0.494283
    outer loop
      vertex -46.3794 -44.5 19.1946
      vertex -46.0321 44.5 19.8054
      vertex -46.3794 44.5 19.1946
    endloop
  endfacet
  facet normal -0.869301 0 0.494283
    outer loop
      vertex -46.0321 44.5 19.8054
      vertex -46.3794 -44.5 19.1946
      vertex -46.0321 -44.5 19.8054
    endloop
  endfacet
  facet normal -0.301524 0.815724 0.493636
    outer loop
      vertex -44.8264 46.3794 19.1946
      vertex -45.4397 46.1527 19.1946
      vertex -44.766 46.0321 19.8054
    endloop
  endfacet
  facet normal 0.639127 -0.750065 0.170057
    outer loop
      vertex 46.0321 -45.8054 18.5
      vertex 45.4397 -46.1527 19.1946
      vertex 45.5 -46.2588 18.5
    endloop
  endfacet
  facet normal -0.346631 -0.938002 0
    outer loop
      vertex -45.5 -46.2588 0
      vertex -44.8473 -46.5 18.5
      vertex -45.5 -46.2588 18.5
    endloop
  endfacet
  facet normal -0.346631 -0.938002 -0
    outer loop
      vertex -44.8473 -46.5 18.5
      vertex -45.5 -46.2588 0
      vertex -44.8473 -46.5 0
    endloop
  endfacet
  facet normal -0.346005 -0.0600751 0.936307
    outer loop
      vertex -44.8473 -44.5 20.5
      vertex -45.5 -44.5 20.2588
      vertex -45.4397 -44.8473 20.2588
    endloop
  endfacet
  facet normal -0.3015 -0.815747 0.493614
    outer loop
      vertex -45.266 -45.8473 19.8054
      vertex -45.4397 -46.1527 19.1946
      vertex -44.766 -46.0321 19.8054
    endloop
  endfacet
  facet normal 0.6445 -0.111901 0.756371
    outer loop
      vertex 45.5 -44.5 20.2588
      vertex 45.4397 -44.8473 20.2588
      vertex 46.0321 -44.5 19.8054
    endloop
  endfacet
  facet normal -0.346631 0 0.938002
    outer loop
      vertex -45.5 44.5 20.2588
      vertex -44.8473 -44.5 20.5
      vertex -44.8473 44.5 20.5
    endloop
  endfacet
  facet normal -0.346631 0 0.938002
    outer loop
      vertex -44.8473 -44.5 20.5
      vertex -45.5 44.5 20.2588
      vertex -45.5 -44.5 20.2588
    endloop
  endfacet
  facet normal -0.648574 0 0.761152
    outer loop
      vertex -46.0321 44.5 19.8054
      vertex -45.5 -44.5 20.2588
      vertex -45.5 44.5 20.2588
    endloop
  endfacet
  facet normal -0.648574 0 0.761152
    outer loop
      vertex -45.5 -44.5 20.2588
      vertex -46.0321 44.5 19.8054
      vertex -46.0321 -44.5 19.8054
    endloop
  endfacet
  facet normal 0 0.346631 0.938002
    outer loop
      vertex 44.6736 45.5 20.2588
      vertex -44.5603 44.8473 20.5
      vertex 44.5603 44.8473 20.5
    endloop
  endfacet
  facet normal 0 0.346631 0.938002
    outer loop
      vertex -44.5603 44.8473 20.5
      vertex 44.6736 45.5 20.2588
      vertex -44.6736 45.5 20.2588
    endloop
  endfacet
  facet normal -0.869301 0.494283 0
    outer loop
      vertex -46.3794 45.1946 0
      vertex -46.0321 45.8054 18.5
      vertex -46.0321 45.8054 0
    endloop
  endfacet
  facet normal -0.869301 0.494283 0
    outer loop
      vertex -46.0321 45.8054 18.5
      vertex -46.3794 45.1946 0
      vertex -46.3794 45.1946 18.5
    endloop
  endfacet
  facet normal 0.567524 -0.322786 0.757447
    outer loop
      vertex 45.4397 -44.8473 20.2588
      vertex 45.266 -45.1527 20.2588
      vertex 45.6736 -45.5 19.8054
    endloop
  endfacet
  facet normal 0.971152 0.168616 0.168616
    outer loop
      vertex 46.3794 45.1946 18.5
      vertex 46.3794 44.5 19.1946
      vertex 46.5 44.5 18.5
    endloop
  endfacet
  facet normal 0.869301 0.494283 0
    outer loop
      vertex 46.3794 45.1946 18.5
      vertex 46.0321 45.8054 0
      vertex 46.0321 45.8054 18.5
    endloop
  endfacet
  facet normal 0.869301 0.494283 0
    outer loop
      vertex 46.0321 45.8054 0
      vertex 46.3794 45.1946 18.5
      vertex 46.3794 45.1946 0
    endloop
  endfacet
  facet normal 0.120329 0.325667 0.937796
    outer loop
      vertex 44.6736 45.5 20.2588
      vertex 44.5603 44.8473 20.5
      vertex 45 45.3794 20.2588
    endloop
  endfacet
  facet normal -0.856806 0.487066 0.169263
    outer loop
      vertex -45.9397 45.7267 19.1946
      vertex -46.3794 45.1946 18.5
      vertex -46.266 45.1527 19.1946
    endloop
  endfacet
  facet normal -0.971152 0.168616 0.168616
    outer loop
      vertex -46.3794 45.1946 18.5
      vertex -46.5 44.5 18.5
      vertex -46.3794 44.5 19.1946
    endloop
  endfacet
  facet normal -0.856772 0.487159 0.169169
    outer loop
      vertex -46.0321 45.8054 18.5
      vertex -46.3794 45.1946 18.5
      vertex -45.9397 45.7267 19.1946
    endloop
  endfacet
  facet normal 0.567524 0.322786 0.757447
    outer loop
      vertex 45.6736 45.5 19.8054
      vertex 45.266 45.1527 20.2588
      vertex 45.4397 44.8473 20.2588
    endloop
  endfacet
  facet normal 0 -0.869301 0.494283
    outer loop
      vertex -44.8264 -46.3794 19.1946
      vertex 44.766 -46.0321 19.8054
      vertex -44.766 -46.0321 19.8054
    endloop
  endfacet
  facet normal 0 -0.869301 0.494283
    outer loop
      vertex 44.766 -46.0321 19.8054
      vertex -44.8264 -46.3794 19.1946
      vertex 44.8264 -46.3794 19.1946
    endloop
  endfacet
  facet normal 0 -1 0
    outer loop
      vertex -44.1527 -46.5 0
      vertex 44.8473 -46.5 18.5
      vertex -44.1527 -46.5 18.5
    endloop
  endfacet
  facet normal 0 -1 -0
    outer loop
      vertex 44.8473 -46.5 18.5
      vertex -44.1527 -46.5 0
      vertex 44.8473 -46.5 0
    endloop
  endfacet
  facet normal 0.971116 -0.168722 0.168722
    outer loop
      vertex 46.3794 -44.5 19.1946
      vertex 46.266 -45.1527 19.1946
      vertex 46.3794 -45.1946 18.5
    endloop
  endfacet
  facet normal 0 -0.346631 0.938002
    outer loop
      vertex -44.5603 -44.8473 20.5
      vertex 44.6736 -45.5 20.2588
      vertex 44.5603 -44.8473 20.5
    endloop
  endfacet
  facet normal 0 -0.346631 0.938002
    outer loop
      vertex 44.6736 -45.5 20.2588
      vertex -44.5603 -44.8473 20.5
      vertex -44.6736 -45.5 20.2588
    endloop
  endfacet
  facet normal 0.648574 -0.761152 0
    outer loop
      vertex 45.5 -46.2588 0
      vertex 46.0321 -45.8054 18.5
      vertex 45.5 -46.2588 18.5
    endloop
  endfacet
  facet normal 0.648574 -0.761152 0
    outer loop
      vertex 46.0321 -45.8054 18.5
      vertex 45.5 -46.2588 0
      vertex 46.0321 -45.8054 0
    endloop
  endfacet
  facet normal -0.98526 0 0.171066
    outer loop
      vertex -46.5 -44.5 18.5
      vertex -46.3794 44.5 19.1946
      vertex -46.5 44.5 18.5
    endloop
  endfacet
  facet normal -0.98526 0 0.171066
    outer loop
      vertex -46.3794 44.5 19.1946
      vertex -46.5 -44.5 18.5
      vertex -46.3794 -44.5 19.1946
    endloop
  endfacet
  facet normal -0.225092 -0.609015 0.760549
    outer loop
      vertex -45 -45.3794 20.2588
      vertex -45.266 -45.8473 19.8054
      vertex -44.766 -46.0321 19.8054
    endloop
  endfacet
  facet normal -0.301524 -0.815724 0.493636
    outer loop
      vertex -44.766 -46.0321 19.8054
      vertex -45.4397 -46.1527 19.1946
      vertex -44.8264 -46.3794 19.1946
    endloop
  endfacet
  facet normal -0.226035 0.265382 0.937273
    outer loop
      vertex -44.6736 44.8054 20.5
      vertex -45.266 45.1527 20.2588
      vertex -44.766 44.7267 20.5
    endloop
  endfacet
  facet normal -0.859562 -0.149264 0.488746
    outer loop
      vertex -46.0321 -44.5 19.8054
      vertex -46.3794 -44.5 19.1946
      vertex -45.9397 -45.0321 19.8054
    endloop
  endfacet
  facet normal 0.341536 -0.924215 0.170823
    outer loop
      vertex 45.4397 -46.1527 19.1946
      vertex 44.8473 -46.5 18.5
      vertex 45.5 -46.2588 18.5
    endloop
  endfacet
  facet normal 0.226035 -0.265382 0.937273
    outer loop
      vertex 44.766 -44.7267 20.5
      vertex 44.6736 -44.8054 20.5
      vertex 45.266 -45.1527 20.2588
    endloop
  endfacet
  facet normal 0.304281 0.17322 0.936701
    outer loop
      vertex 45.266 45.1527 20.2588
      vertex 44.766 44.7267 20.5
      vertex 44.8264 44.6206 20.5
    endloop
  endfacet
  facet normal -0.120329 0.325667 0.937796
    outer loop
      vertex -44.6736 45.5 20.2588
      vertex -45 45.3794 20.2588
      vertex -44.5603 44.8473 20.5
    endloop
  endfacet
  facet normal 0.341615 0.924185 0.170826
    outer loop
      vertex 45.5 46.2588 18.5
      vertex 44.8264 46.3794 19.1946
      vertex 45.4397 46.1527 19.1946
    endloop
  endfacet
  facet normal -0.85958 0.149343 0.48869
    outer loop
      vertex -46.266 45.1527 19.1946
      vertex -46.3794 44.5 19.1946
      vertex -45.9397 45.0321 19.8054
    endloop
  endfacet
  facet normal 0 0.648574 0.761152
    outer loop
      vertex 44.766 46.0321 19.8054
      vertex -44.6736 45.5 20.2588
      vertex 44.6736 45.5 20.2588
    endloop
  endfacet
  facet normal 0 0.648574 0.761152
    outer loop
      vertex -44.6736 45.5 20.2588
      vertex 44.766 46.0321 19.8054
      vertex -44.766 46.0321 19.8054
    endloop
  endfacet
  facet normal 0.346005 0.0600751 0.936307
    outer loop
      vertex 45.4397 44.8473 20.2588
      vertex 44.8473 44.5 20.5
      vertex 45.5 44.5 20.2588
    endloop
  endfacet
  facet normal 0.639085 0.7501 0.170058
    outer loop
      vertex 45.5 46.2588 18.5
      vertex 45.4397 46.1527 19.1946
      vertex 45.9397 45.7267 19.1946
    endloop
  endfacet
  facet normal 0.341541 0.924227 0.170746
    outer loop
      vertex 44.8473 46.5 18.5
      vertex 44.8264 46.3794 19.1946
      vertex 45.5 46.2588 18.5
    endloop
  endfacet
  facet normal 0 0.98526 0.171066
    outer loop
      vertex 44.8473 46.5 18.5
      vertex -44.8264 46.3794 19.1946
      vertex 44.8264 46.3794 19.1946
    endloop
  endfacet
  facet normal 0 0.98526 0.171066
    outer loop
      vertex -44.8264 46.3794 19.1946
      vertex 44.8473 46.5 18.5
      vertex -44.8473 46.5 18.5
    endloop
  endfacet
  facet normal 0.567547 0.32277 0.757436
    outer loop
      vertex 45.6736 45.5 19.8054
      vertex 45.4397 44.8473 20.2588
      vertex 45.9397 45.0321 19.8054
    endloop
  endfacet
  facet normal -0.757866 -0.430822 0.48993
    outer loop
      vertex -45.9397 -45.0321 19.8054
      vertex -46.266 -45.1527 19.1946
      vertex -45.9397 -45.7267 19.1946
    endloop
  endfacet
  facet normal 0.869301 -0 0.494283
    outer loop
      vertex 46.0321 -44.5 19.8054
      vertex 46.3794 44.5 19.1946
      vertex 46.0321 44.5 19.8054
    endloop
  endfacet
  facet normal 0.869301 0 0.494283
    outer loop
      vertex 46.3794 44.5 19.1946
      vertex 46.0321 -44.5 19.8054
      vertex 46.3794 -44.5 19.1946
    endloop
  endfacet
  facet normal 0.757866 -0.430822 0.48993
    outer loop
      vertex 45.9397 -45.0321 19.8054
      vertex 45.9397 -45.7267 19.1946
      vertex 46.266 -45.1527 19.1946
    endloop
  endfacet
  facet normal -0.564627 -0.662708 0.49195
    outer loop
      vertex -45.6736 -45.5 19.8054
      vertex -45.9397 -45.7267 19.1946
      vertex -45.4397 -46.1527 19.1946
    endloop
  endfacet
  facet normal -0.856772 -0.487159 0.169169
    outer loop
      vertex -45.9397 -45.7267 19.1946
      vertex -46.3794 -45.1946 18.5
      vertex -46.0321 -45.8054 18.5
    endloop
  endfacet
  facet normal -0.971152 -0.168616 0.168616
    outer loop
      vertex -46.3794 -44.5 19.1946
      vertex -46.5 -44.5 18.5
      vertex -46.3794 -45.1946 18.5
    endloop
  endfacet
  facet normal -0.859562 0.149264 0.488746
    outer loop
      vertex -45.9397 45.0321 19.8054
      vertex -46.3794 44.5 19.1946
      vertex -46.0321 44.5 19.8054
    endloop
  endfacet
  facet normal -0.971116 0.168722 0.168722
    outer loop
      vertex -46.3794 45.1946 18.5
      vertex -46.3794 44.5 19.1946
      vertex -46.266 45.1527 19.1946
    endloop
  endfacet
  facet normal -0.120329 -0.325667 0.937796
    outer loop
      vertex -44.5603 -44.8473 20.5
      vertex -45 -45.3794 20.2588
      vertex -44.6736 -45.5 20.2588
    endloop
  endfacet
  facet normal -0.226094 -0.265289 0.937285
    outer loop
      vertex -44.6736 -44.8054 20.5
      vertex -45.266 -45.1527 20.2588
      vertex -45 -45.3794 20.2588
    endloop
  endfacet
  facet normal -0.6445 0.111901 0.756371
    outer loop
      vertex -45.4397 44.8473 20.2588
      vertex -46.0321 44.5 19.8054
      vertex -45.5 44.5 20.2588
    endloop
  endfacet
  facet normal -0.6445 -0.111901 0.756371
    outer loop
      vertex -45.5 -44.5 20.2588
      vertex -46.0321 -44.5 19.8054
      vertex -45.4397 -44.8473 20.2588
    endloop
  endfacet
  facet normal -0.644506 -0.111919 0.756364
    outer loop
      vertex -45.4397 -44.8473 20.2588
      vertex -46.0321 -44.5 19.8054
      vertex -45.9397 -45.0321 19.8054
    endloop
  endfacet
  facet normal 0.346631 0 0.938002
    outer loop
      vertex 44.8473 44.5 20.5
      vertex 45.5 -44.5 20.2588
      vertex 45.5 44.5 20.2588
    endloop
  endfacet
  facet normal 0.346631 0 0.938002
    outer loop
      vertex 45.5 -44.5 20.2588
      vertex 44.8473 44.5 20.5
      vertex 44.8473 -44.5 20.5
    endloop
  endfacet
  facet normal 0.859562 0.149264 0.488746
    outer loop
      vertex 46.3794 44.5 19.1946
      vertex 45.9397 45.0321 19.8054
      vertex 46.0321 44.5 19.8054
    endloop
  endfacet
  facet normal 0.757866 0.430822 0.48993
    outer loop
      vertex 45.9397 45.7267 19.1946
      vertex 45.9397 45.0321 19.8054
      vertex 46.266 45.1527 19.1946
    endloop
  endfacet
  facet normal -0.226094 0.265289 0.937285
    outer loop
      vertex -45 45.3794 20.2588
      vertex -45.266 45.1527 20.2588
      vertex -44.6736 44.8054 20.5
    endloop
  endfacet
  facet normal -0.644506 0.111919 0.756364
    outer loop
      vertex -45.9397 45.0321 19.8054
      vertex -46.0321 44.5 19.8054
      vertex -45.4397 44.8473 20.2588
    endloop
  endfacet
  facet normal -0.225092 0.609015 0.760549
    outer loop
      vertex -44.766 46.0321 19.8054
      vertex -45.266 45.8473 19.8054
      vertex -45 45.3794 20.2588
    endloop
  endfacet
  facet normal -0.346005 0.0600751 0.936307
    outer loop
      vertex -45.4397 44.8473 20.2588
      vertex -45.5 44.5 20.2588
      vertex -44.8473 44.5 20.5
    endloop
  endfacet
  facet normal -0.567547 0.32277 0.757436
    outer loop
      vertex -45.6736 45.5 19.8054
      vertex -45.9397 45.0321 19.8054
      vertex -45.4397 44.8473 20.2588
    endloop
  endfacet
  facet normal 0.3015 0.815747 0.493614
    outer loop
      vertex 45.4397 46.1527 19.1946
      vertex 44.766 46.0321 19.8054
      vertex 45.266 45.8473 19.8054
    endloop
  endfacet
  facet normal 0.644506 0.111919 0.756364
    outer loop
      vertex 45.9397 45.0321 19.8054
      vertex 45.4397 44.8473 20.2588
      vertex 46.0321 44.5 19.8054
    endloop
  endfacet
  facet normal 0.22502 0.609008 0.760576
    outer loop
      vertex 44.766 46.0321 19.8054
      vertex 44.6736 45.5 20.2588
      vertex 45 45.3794 20.2588
    endloop
  endfacet
  facet normal 0.226035 0.265382 0.937273
    outer loop
      vertex 45.266 45.1527 20.2588
      vertex 44.6736 44.8054 20.5
      vertex 44.766 44.7267 20.5
    endloop
  endfacet
  facet normal 0.301524 -0.815724 0.493636
    outer loop
      vertex 45.4397 -46.1527 19.1946
      vertex 44.766 -46.0321 19.8054
      vertex 44.8264 -46.3794 19.1946
    endloop
  endfacet
  facet normal 0.22502 -0.609008 0.760576
    outer loop
      vertex 45 -45.3794 20.2588
      vertex 44.6736 -45.5 20.2588
      vertex 44.766 -46.0321 19.8054
    endloop
  endfacet
  facet normal 0 -1 0
    outer loop
      vertex -44.8473 -46.5 0
      vertex -44.1527 -46.5 18.5
      vertex -44.8473 -46.5 18.5
    endloop
  endfacet
  facet normal 0 -1 -0
    outer loop
      vertex -44.1527 -46.5 18.5
      vertex -44.8473 -46.5 0
      vertex -44.1527 -46.5 0
    endloop
  endfacet
  facet normal -0.856806 -0.487066 0.169263
    outer loop
      vertex -46.266 -45.1527 19.1946
      vertex -46.3794 -45.1946 18.5
      vertex -45.9397 -45.7267 19.1946
    endloop
  endfacet
  facet normal -0.567547 -0.32277 0.757436
    outer loop
      vertex -45.4397 -44.8473 20.2588
      vertex -45.9397 -45.0321 19.8054
      vertex -45.6736 -45.5 19.8054
    endloop
  endfacet
  facet normal -0.757728 -0.430928 0.49005
    outer loop
      vertex -45.9397 -45.0321 19.8054
      vertex -45.9397 -45.7267 19.1946
      vertex -45.6736 -45.5 19.8054
    endloop
  endfacet
  facet normal -0.22502 -0.609008 0.760576
    outer loop
      vertex -44.6736 -45.5 20.2588
      vertex -45 -45.3794 20.2588
      vertex -44.766 -46.0321 19.8054
    endloop
  endfacet
  facet normal 0 -0.648574 0.761152
    outer loop
      vertex -44.6736 -45.5 20.2588
      vertex 44.766 -46.0321 19.8054
      vertex 44.6736 -45.5 20.2588
    endloop
  endfacet
  facet normal 0 -0.648574 0.761152
    outer loop
      vertex 44.766 -46.0321 19.8054
      vertex -44.6736 -45.5 20.2588
      vertex -44.766 -46.0321 19.8054
    endloop
  endfacet
  facet normal -0.120413 -0.325603 0.937808
    outer loop
      vertex -44.6736 -44.8054 20.5
      vertex -45 -45.3794 20.2588
      vertex -44.5603 -44.8473 20.5
    endloop
  endfacet
  facet normal -0.226035 -0.265382 0.937273
    outer loop
      vertex -44.766 -44.7267 20.5
      vertex -45.266 -45.1527 20.2588
      vertex -44.6736 -44.8054 20.5
    endloop
  endfacet
  facet normal -0.34606 -0.0599722 0.936294
    outer loop
      vertex -44.8473 -44.5 20.5
      vertex -45.4397 -44.8473 20.2588
      vertex -44.8264 -44.6206 20.5
    endloop
  endfacet
  facet normal 0.856772 -0.487159 0.169169
    outer loop
      vertex 46.3794 -45.1946 18.5
      vertex 45.9397 -45.7267 19.1946
      vertex 46.0321 -45.8054 18.5
    endloop
  endfacet
  facet normal 0.639091 -0.750107 0.170005
    outer loop
      vertex 45.9397 -45.7267 19.1946
      vertex 45.4397 -46.1527 19.1946
      vertex 46.0321 -45.8054 18.5
    endloop
  endfacet
  facet normal 0.304388 -0.173124 0.936684
    outer loop
      vertex 45.4397 -44.8473 20.2588
      vertex 44.8264 -44.6206 20.5
      vertex 45.266 -45.1527 20.2588
    endloop
  endfacet
  facet normal 0.98526 -0.171066 0
    outer loop
      vertex 46.3794 -45.1946 18.5
      vertex 46.5 -44.5 0
      vertex 46.5 -44.5 18.5
    endloop
  endfacet
  facet normal 0.98526 -0.171066 0
    outer loop
      vertex 46.5 -44.5 0
      vertex 46.3794 -45.1946 18.5
      vertex 46.3794 -45.1946 0
    endloop
  endfacet
  facet normal 0.346631 0.938002 -0
    outer loop
      vertex 45.5 46.2588 0
      vertex 44.8473 46.5 18.5
      vertex 45.5 46.2588 18.5
    endloop
  endfacet
  facet normal 0.346631 0.938002 0
    outer loop
      vertex 44.8473 46.5 18.5
      vertex 45.5 46.2588 0
      vertex 44.8473 46.5 0
    endloop
  endfacet
  facet normal 0.301524 0.815724 0.493636
    outer loop
      vertex 44.8264 46.3794 19.1946
      vertex 44.766 46.0321 19.8054
      vertex 45.4397 46.1527 19.1946
    endloop
  endfacet
  facet normal 0.564627 0.662708 0.49195
    outer loop
      vertex 45.9397 45.7267 19.1946
      vertex 45.4397 46.1527 19.1946
      vertex 45.6736 45.5 19.8054
    endloop
  endfacet
  facet normal -0.120413 0.325603 0.937808
    outer loop
      vertex -44.5603 44.8473 20.5
      vertex -45 45.3794 20.2588
      vertex -44.6736 44.8054 20.5
    endloop
  endfacet
  facet normal -0.567524 0.322786 0.757447
    outer loop
      vertex -45.266 45.1527 20.2588
      vertex -45.6736 45.5 19.8054
      vertex -45.4397 44.8473 20.2588
    endloop
  endfacet
  facet normal -0.341541 0.924227 0.170746
    outer loop
      vertex -44.8473 46.5 18.5
      vertex -45.5 46.2588 18.5
      vertex -44.8264 46.3794 19.1946
    endloop
  endfacet
  facet normal -0.564659 0.662698 0.491927
    outer loop
      vertex -45.4397 46.1527 19.1946
      vertex -45.6736 45.5 19.8054
      vertex -45.266 45.8473 19.8054
    endloop
  endfacet
  facet normal -0.34606 0.0599722 0.936294
    outer loop
      vertex -44.8264 44.6206 20.5
      vertex -45.4397 44.8473 20.2588
      vertex -44.8473 44.5 20.5
    endloop
  endfacet
  facet normal -0.422248 0.495448 0.759103
    outer loop
      vertex -45 45.3794 20.2588
      vertex -45.6736 45.5 19.8054
      vertex -45.266 45.1527 20.2588
    endloop
  endfacet
  facet normal -0.757866 0.430822 0.48993
    outer loop
      vertex -45.9397 45.7267 19.1946
      vertex -46.266 45.1527 19.1946
      vertex -45.9397 45.0321 19.8054
    endloop
  endfacet
  facet normal -0.757728 0.430928 0.49005
    outer loop
      vertex -45.9397 45.7267 19.1946
      vertex -45.9397 45.0321 19.8054
      vertex -45.6736 45.5 19.8054
    endloop
  endfacet
  facet normal 0.34606 0.0599722 0.936294
    outer loop
      vertex 45.4397 44.8473 20.2588
      vertex 44.8264 44.6206 20.5
      vertex 44.8473 44.5 20.5
    endloop
  endfacet
  facet normal 0.304388 0.173124 0.936684
    outer loop
      vertex 45.266 45.1527 20.2588
      vertex 44.8264 44.6206 20.5
      vertex 45.4397 44.8473 20.2588
    endloop
  endfacet
  facet normal 0.648574 0 0.761152
    outer loop
      vertex 45.5 44.5 20.2588
      vertex 46.0321 -44.5 19.8054
      vertex 46.0321 44.5 19.8054
    endloop
  endfacet
  facet normal 0.648574 0 0.761152
    outer loop
      vertex 46.0321 -44.5 19.8054
      vertex 45.5 44.5 20.2588
      vertex 45.5 -44.5 20.2588
    endloop
  endfacet
  facet normal 0.6445 0.111901 0.756371
    outer loop
      vertex 46.0321 44.5 19.8054
      vertex 45.4397 44.8473 20.2588
      vertex 45.5 44.5 20.2588
    endloop
  endfacet
  facet normal 0.856806 0.487066 0.169263
    outer loop
      vertex 46.3794 45.1946 18.5
      vertex 45.9397 45.7267 19.1946
      vertex 46.266 45.1527 19.1946
    endloop
  endfacet
  facet normal 0.757728 0.430928 0.49005
    outer loop
      vertex 45.9397 45.7267 19.1946
      vertex 45.6736 45.5 19.8054
      vertex 45.9397 45.0321 19.8054
    endloop
  endfacet
  facet normal 0.120413 0.325603 0.937808
    outer loop
      vertex 45 45.3794 20.2588
      vertex 44.5603 44.8473 20.5
      vertex 44.6736 44.8054 20.5
    endloop
  endfacet
  facet normal 0.226094 0.265289 0.937285
    outer loop
      vertex 45 45.3794 20.2588
      vertex 44.6736 44.8054 20.5
      vertex 45.266 45.1527 20.2588
    endloop
  endfacet
  facet normal 0.757728 -0.430928 0.49005
    outer loop
      vertex 45.9397 -45.0321 19.8054
      vertex 45.6736 -45.5 19.8054
      vertex 45.9397 -45.7267 19.1946
    endloop
  endfacet
  facet normal 0.346005 -0.0600751 0.936307
    outer loop
      vertex 45.5 -44.5 20.2588
      vertex 44.8473 -44.5 20.5
      vertex 45.4397 -44.8473 20.2588
    endloop
  endfacet
  facet normal 0 -0.98526 0.171066
    outer loop
      vertex -44.1527 -46.5 18.5
      vertex 44.8264 -46.3794 19.1946
      vertex -44.8264 -46.3794 19.1946
    endloop
  endfacet
  facet normal 0 -0.98526 0.171066
    outer loop
      vertex 44.8264 -46.3794 19.1946
      vertex -44.1527 -46.5 18.5
      vertex 44.8473 -46.5 18.5
    endloop
  endfacet
  facet normal -0.639133 -0.750072 0.170006
    outer loop
      vertex -45.9397 -45.7267 19.1946
      vertex -46.0321 -45.8054 18.5
      vertex -45.5 -46.2588 18.5
    endloop
  endfacet
  facet normal -0.564659 -0.662698 0.491927
    outer loop
      vertex -45.266 -45.8473 19.8054
      vertex -45.6736 -45.5 19.8054
      vertex -45.4397 -46.1527 19.1946
    endloop
  endfacet
  facet normal -0.304388 -0.173124 0.936684
    outer loop
      vertex -44.8264 -44.6206 20.5
      vertex -45.4397 -44.8473 20.2588
      vertex -45.266 -45.1527 20.2588
    endloop
  endfacet
  facet normal -0.567524 -0.322786 0.757447
    outer loop
      vertex -45.4397 -44.8473 20.2588
      vertex -45.6736 -45.5 19.8054
      vertex -45.266 -45.1527 20.2588
    endloop
  endfacet
  facet normal -0.422248 -0.495448 0.759103
    outer loop
      vertex -45.266 -45.1527 20.2588
      vertex -45.6736 -45.5 19.8054
      vertex -45 -45.3794 20.2588
    endloop
  endfacet
  facet normal -0.304281 -0.17322 0.936701
    outer loop
      vertex -44.8264 -44.6206 20.5
      vertex -45.266 -45.1527 20.2588
      vertex -44.766 -44.7267 20.5
    endloop
  endfacet
  facet normal 0.3015 -0.815747 0.493614
    outer loop
      vertex 45.266 -45.8473 19.8054
      vertex 44.766 -46.0321 19.8054
      vertex 45.4397 -46.1527 19.1946
    endloop
  endfacet
  facet normal 0.856806 -0.487066 0.169263
    outer loop
      vertex 46.266 -45.1527 19.1946
      vertex 45.9397 -45.7267 19.1946
      vertex 46.3794 -45.1946 18.5
    endloop
  endfacet
  facet normal 0.34606 -0.0599722 0.936294
    outer loop
      vertex 44.8473 -44.5 20.5
      vertex 44.8264 -44.6206 20.5
      vertex 45.4397 -44.8473 20.2588
    endloop
  endfacet
  facet normal 0.304281 -0.17322 0.936701
    outer loop
      vertex 44.8264 -44.6206 20.5
      vertex 44.766 -44.7267 20.5
      vertex 45.266 -45.1527 20.2588
    endloop
  endfacet
  facet normal 0.567547 -0.32277 0.757436
    outer loop
      vertex 45.9397 -45.0321 19.8054
      vertex 45.4397 -44.8473 20.2588
      vertex 45.6736 -45.5 19.8054
    endloop
  endfacet
  facet normal 0.226094 -0.265289 0.937285
    outer loop
      vertex 45.266 -45.1527 20.2588
      vertex 44.6736 -44.8054 20.5
      vertex 45 -45.3794 20.2588
    endloop
  endfacet
  facet normal 0.869301 -0.494283 0
    outer loop
      vertex 46.0321 -45.8054 18.5
      vertex 46.3794 -45.1946 0
      vertex 46.3794 -45.1946 18.5
    endloop
  endfacet
  facet normal 0.869301 -0.494283 0
    outer loop
      vertex 46.3794 -45.1946 0
      vertex 46.0321 -45.8054 18.5
      vertex 46.0321 -45.8054 0
    endloop
  endfacet
  facet normal -0.3015 0.815747 0.493614
    outer loop
      vertex -44.766 46.0321 19.8054
      vertex -45.4397 46.1527 19.1946
      vertex -45.266 45.8473 19.8054
    endloop
  endfacet
  facet normal -0.639127 0.750065 0.170057
    outer loop
      vertex -45.5 46.2588 18.5
      vertex -46.0321 45.8054 18.5
      vertex -45.4397 46.1527 19.1946
    endloop
  endfacet
  facet normal -0.22502 0.609008 0.760576
    outer loop
      vertex -44.766 46.0321 19.8054
      vertex -45 45.3794 20.2588
      vertex -44.6736 45.5 20.2588
    endloop
  endfacet
  facet normal -0.341615 0.924185 0.170826
    outer loop
      vertex -44.8264 46.3794 19.1946
      vertex -45.5 46.2588 18.5
      vertex -45.4397 46.1527 19.1946
    endloop
  endfacet
  facet normal 0 0.869301 0.494283
    outer loop
      vertex 44.8264 46.3794 19.1946
      vertex -44.766 46.0321 19.8054
      vertex 44.766 46.0321 19.8054
    endloop
  endfacet
  facet normal 0 0.869301 0.494283
    outer loop
      vertex -44.766 46.0321 19.8054
      vertex 44.8264 46.3794 19.1946
      vertex -44.8264 46.3794 19.1946
    endloop
  endfacet
  facet normal -0.304388 0.173124 0.936684
    outer loop
      vertex -45.266 45.1527 20.2588
      vertex -45.4397 44.8473 20.2588
      vertex -44.8264 44.6206 20.5
    endloop
  endfacet
  facet normal -0.304281 0.17322 0.936701
    outer loop
      vertex -44.766 44.7267 20.5
      vertex -45.266 45.1527 20.2588
      vertex -44.8264 44.6206 20.5
    endloop
  endfacet
  facet normal 0.85958 0.149343 0.48869
    outer loop
      vertex 46.266 45.1527 19.1946
      vertex 45.9397 45.0321 19.8054
      vertex 46.3794 44.5 19.1946
    endloop
  endfacet
  facet normal 0.971116 0.168722 0.168722
    outer loop
      vertex 46.3794 45.1946 18.5
      vertex 46.266 45.1527 19.1946
      vertex 46.3794 44.5 19.1946
    endloop
  endfacet
  facet normal 0.225092 0.609015 0.760549
    outer loop
      vertex 45.266 45.8473 19.8054
      vertex 44.766 46.0321 19.8054
      vertex 45 45.3794 20.2588
    endloop
  endfacet
  facet normal 0.422248 0.495448 0.759103
    outer loop
      vertex 45.6736 45.5 19.8054
      vertex 45 45.3794 20.2588
      vertex 45.266 45.1527 20.2588
    endloop
  endfacet
  facet normal 0.34162 -0.924198 0.170743
    outer loop
      vertex 45.4397 -46.1527 19.1946
      vertex 44.8264 -46.3794 19.1946
      vertex 44.8473 -46.5 18.5
    endloop
  endfacet
  facet normal -0.639085 -0.7501 0.170058
    outer loop
      vertex -45.4397 -46.1527 19.1946
      vertex -45.9397 -45.7267 19.1946
      vertex -45.5 -46.2588 18.5
    endloop
  endfacet
  facet normal -0.341615 -0.924185 0.170826
    outer loop
      vertex -45.4397 -46.1527 19.1946
      vertex -45.5 -46.2588 18.5
      vertex -44.8264 -46.3794 19.1946
    endloop
  endfacet
  facet normal -0.85958 -0.149343 0.48869
    outer loop
      vertex -45.9397 -45.0321 19.8054
      vertex -46.3794 -44.5 19.1946
      vertex -46.266 -45.1527 19.1946
    endloop
  endfacet
  facet normal -0.971116 -0.168722 0.168722
    outer loop
      vertex -46.3794 -44.5 19.1946
      vertex -46.3794 -45.1946 18.5
      vertex -46.266 -45.1527 19.1946
    endloop
  endfacet
  facet normal 0.85958 -0.149343 0.48869
    outer loop
      vertex 46.3794 -44.5 19.1946
      vertex 45.9397 -45.0321 19.8054
      vertex 46.266 -45.1527 19.1946
    endloop
  endfacet
  facet normal 0.859562 -0.149264 0.488746
    outer loop
      vertex 46.0321 -44.5 19.8054
      vertex 45.9397 -45.0321 19.8054
      vertex 46.3794 -44.5 19.1946
    endloop
  endfacet
  facet normal 0.120413 -0.325603 0.937808
    outer loop
      vertex 44.6736 -44.8054 20.5
      vertex 44.5603 -44.8473 20.5
      vertex 45 -45.3794 20.2588
    endloop
  endfacet
  facet normal 0.120329 -0.325667 0.937796
    outer loop
      vertex 45 -45.3794 20.2588
      vertex 44.5603 -44.8473 20.5
      vertex 44.6736 -45.5 20.2588
    endloop
  endfacet
  facet normal -0.639091 0.750107 0.170005
    outer loop
      vertex -45.4397 46.1527 19.1946
      vertex -46.0321 45.8054 18.5
      vertex -45.9397 45.7267 19.1946
    endloop
  endfacet
  facet normal -0.564627 0.662708 0.49195
    outer loop
      vertex -45.4397 46.1527 19.1946
      vertex -45.9397 45.7267 19.1946
      vertex -45.6736 45.5 19.8054
    endloop
  endfacet
  facet normal 0.422215 0.495522 0.759073
    outer loop
      vertex 45.266 45.8473 19.8054
      vertex 45 45.3794 20.2588
      vertex 45.6736 45.5 19.8054
    endloop
  endfacet
  facet normal 0.564659 0.662698 0.491927
    outer loop
      vertex 45.4397 46.1527 19.1946
      vertex 45.266 45.8473 19.8054
      vertex 45.6736 45.5 19.8054
    endloop
  endfacet
  facet normal 0.422215 -0.495522 0.759073
    outer loop
      vertex 45.6736 -45.5 19.8054
      vertex 45 -45.3794 20.2588
      vertex 45.266 -45.8473 19.8054
    endloop
  endfacet
  facet normal 0.644506 -0.111919 0.756364
    outer loop
      vertex 46.0321 -44.5 19.8054
      vertex 45.4397 -44.8473 20.2588
      vertex 45.9397 -45.0321 19.8054
    endloop
  endfacet
  facet normal 0.422248 -0.495448 0.759103
    outer loop
      vertex 45.266 -45.1527 20.2588
      vertex 45 -45.3794 20.2588
      vertex 45.6736 -45.5 19.8054
    endloop
  endfacet
  facet normal 0.225092 -0.609015 0.760549
    outer loop
      vertex 45 -45.3794 20.2588
      vertex 44.766 -46.0321 19.8054
      vertex 45.266 -45.8473 19.8054
    endloop
  endfacet
  facet normal 0.564659 -0.662698 0.491927
    outer loop
      vertex 45.6736 -45.5 19.8054
      vertex 45.266 -45.8473 19.8054
      vertex 45.4397 -46.1527 19.1946
    endloop
  endfacet
  facet normal 0.564627 -0.662708 0.49195
    outer loop
      vertex 45.6736 -45.5 19.8054
      vertex 45.4397 -46.1527 19.1946
      vertex 45.9397 -45.7267 19.1946
    endloop
  endfacet
endsolid OpenSCAD_Model
