solid OpenSCAD_Model
  facet normal -1 0 0
    outer loop
      vertex -42.75 -43.25 12.3
      vertex -42.75 43.25 16.5
      vertex -42.75 43.25 12.3
    endloop
  endfacet
  facet normal -1 -0 0
    outer loop
      vertex -42.75 43.25 16.5
      vertex -42.75 -43.25 12.3
      vertex -42.75 -43.25 16.5
    endloop
  endfacet
  facet normal -0 0 1
    outer loop
      vertex -42.75 43.25 16.5
      vertex 42.75 -43.25 16.5
      vertex 42.75 43.25 16.5
    endloop
  endfacet
  facet normal 0 0 1
    outer loop
      vertex 42.75 -43.25 16.5
      vertex -42.75 43.25 16.5
      vertex -42.75 -43.25 16.5
    endloop
  endfacet
  facet normal 1 -0 0
    outer loop
      vertex 42.75 -43.25 16.5
      vertex 42.75 43.25 12.3
      vertex 42.75 43.25 16.5
    endloop
  endfacet
  facet normal 1 0 0
    outer loop
      vertex 42.75 43.25 12.3
      vertex 42.75 -43.25 16.5
      vertex 42.75 -43.25 12.3
    endloop
  endfacet
  facet normal 0 1 -0
    outer loop
      vertex 42.75 43.25 12.3
      vertex -42.75 43.25 16.5
      vertex 42.75 43.25 16.5
    endloop
  endfacet
  facet normal 0 1 0
    outer loop
      vertex -42.75 43.25 16.5
      vertex 42.75 43.25 12.3
      vertex -42.75 43.25 12.3
    endloop
  endfacet
  facet normal 0 0 -1
    outer loop
      vertex 42.75 -43.25 12.3
      vertex 40 -40 12.3
      vertex 42.75 43.25 12.3
    endloop
  endfacet
  facet normal 0 0 -1
    outer loop
      vertex 42.75 -43.25 12.3
      vertex -40 -40 12.3
      vertex 40 -40 12.3
    endloop
  endfacet
  facet normal -0 0 -1
    outer loop
      vertex -40 -40 12.3
      vertex -42.75 -43.25 12.3
      vertex -40 40 12.3
    endloop
  endfacet
  facet normal 0 0 -1
    outer loop
      vertex -42.75 -43.25 12.3
      vertex -40 -40 12.3
      vertex 42.75 -43.25 12.3
    endloop
  endfacet
  facet normal 0 0 -1
    outer loop
      vertex 40 40 12.3
      vertex 42.75 43.25 12.3
      vertex 40 -40 12.3
    endloop
  endfacet
  facet normal 0 0 -1
    outer loop
      vertex -40 40 12.3
      vertex 42.75 43.25 12.3
      vertex 40 40 12.3
    endloop
  endfacet
  facet normal 0 0 -1
    outer loop
      vertex -40 40 12.3
      vertex -42.75 43.25 12.3
      vertex 42.75 43.25 12.3
    endloop
  endfacet
  facet normal 0 0 -1
    outer loop
      vertex -42.75 43.25 12.3
      vertex -40 40 12.3
      vertex -42.75 -43.25 12.3
    endloop
  endfacet
  facet normal 0 -1 0
    outer loop
      vertex -42.75 -43.25 12.3
      vertex 42.75 -43.25 16.5
      vertex -42.75 -43.25 16.5
    endloop
  endfacet
  facet normal 0 -1 -0
    outer loop
      vertex 42.75 -43.25 16.5
      vertex -42.75 -43.25 12.3
      vertex 42.75 -43.25 12.3
    endloop
  endfacet
  facet normal 1 -0 0
    outer loop
      vertex -40 -40 15.3
      vertex -40 40 12.3
      vertex -40 40 15.3
    endloop
  endfacet
  facet normal 1 0 0
    outer loop
      vertex -40 40 12.3
      vertex -40 -40 15.3
      vertex -40 -40 12.3
    endloop
  endfacet
  facet normal 0 0 -1
    outer loop
      vertex 16.0745 23.5105 15.3
      vertex 40 40 15.3
      vertex 40 -40 15.3
    endloop
  endfacet
  facet normal 0 0 -1
    outer loop
      vertex 40 40 15.3
      vertex 16.2048 23.7395 15.3
      vertex 16.25 24 15.3
    endloop
  endfacet
  facet normal 0 0 -1
    outer loop
      vertex 40 40 15.3
      vertex 16.0745 23.5105 15.3
      vertex 16.2048 23.7395 15.3
    endloop
  endfacet
  facet normal 0 0 -1
    outer loop
      vertex 40 -40 15.3
      vertex 15.875 23.3405 15.3
      vertex 16.0745 23.5105 15.3
    endloop
  endfacet
  facet normal 0 0 -1
    outer loop
      vertex 1.17461 7.56588 15.3
      vertex 15.875 23.3405 15.3
      vertex 40 -40 15.3
    endloop
  endfacet
  facet normal 0 0 -1
    outer loop
      vertex 15.875 23.3405 15.3
      vertex 1.17461 7.56588 15.3
      vertex 15.6302 23.25 15.3
    endloop
  endfacet
  facet normal 0 -0 -1
    outer loop
      vertex 1.25 8 15.3
      vertex 15.6302 23.25 15.3
      vertex 1.17461 7.56588 15.3
    endloop
  endfacet
  facet normal -0 0 -1
    outer loop
      vertex 15.6302 23.25 15.3
      vertex 1.25 8 15.3
      vertex 15.3698 23.25 15.3
    endloop
  endfacet
  facet normal 0 0 -1
    outer loop
      vertex 1.17461 8.43412 15.3
      vertex 15.3698 23.25 15.3
      vertex 1.25 8 15.3
    endloop
  endfacet
  facet normal -0 0 -1
    outer loop
      vertex 15.125 23.3405 15.3
      vertex 0.957555 8.81588 15.3
      vertex 14.9255 23.5105 15.3
    endloop
  endfacet
  facet normal -0 0 -1
    outer loop
      vertex 15.3698 23.25 15.3
      vertex 1.17461 8.43412 15.3
      vertex 15.125 23.3405 15.3
    endloop
  endfacet
  facet normal 0 0 -1
    outer loop
      vertex 0.957555 8.81588 15.3
      vertex 15.125 23.3405 15.3
      vertex 1.17461 8.43412 15.3
    endloop
  endfacet
  facet normal 0 0 -1
    outer loop
      vertex 40 -40 15.3
      vertex 0.957555 7.18412 15.3
      vertex 1.17461 7.56588 15.3
    endloop
  endfacet
  facet normal 0 0 -1
    outer loop
      vertex 40 -40 15.3
      vertex 0.624999 6.90077 15.3
      vertex 0.957555 7.18412 15.3
    endloop
  endfacet
  facet normal 0 0 -1
    outer loop
      vertex 40 -40 15.3
      vertex 0.21706 6.75 15.3
      vertex 0.624999 6.90077 15.3
    endloop
  endfacet
  facet normal 0 0 -1
    outer loop
      vertex 40 -40 15.3
      vertex -0.21706 6.75 15.3
      vertex 0.21706 6.75 15.3
    endloop
  endfacet
  facet normal 0 0 -1
    outer loop
      vertex -40 -40 15.3
      vertex -0.21706 6.75 15.3
      vertex 40 -40 15.3
    endloop
  endfacet
  facet normal -0 0 -1
    outer loop
      vertex -0.21706 6.75 15.3
      vertex -40 -40 15.3
      vertex -0.625 6.90077 15.3
    endloop
  endfacet
  facet normal 0 0 -1
    outer loop
      vertex -17.2171 22.75 15.3
      vertex -1.25 8 15.3
      vertex -1.17461 7.56588 15.3
    endloop
  endfacet
  facet normal 0 0 -1
    outer loop
      vertex -40 -40 15.3
      vertex -1.17461 7.56588 15.3
      vertex -0.957555 7.18412 15.3
    endloop
  endfacet
  facet normal -0 0 -1
    outer loop
      vertex -0.625 6.90077 15.3
      vertex -40 -40 15.3
      vertex -0.957555 7.18412 15.3
    endloop
  endfacet
  facet normal 0 0 -1
    outer loop
      vertex -1.25 8 15.3
      vertex -15.8254 23.5659 15.3
      vertex -15.75 24 15.3
    endloop
  endfacet
  facet normal 0 0 -1
    outer loop
      vertex -1.25 8 15.3
      vertex -16.0424 23.1841 15.3
      vertex -15.8254 23.5659 15.3
    endloop
  endfacet
  facet normal 0 0 -1
    outer loop
      vertex -1.25 8 15.3
      vertex -16.375 22.9008 15.3
      vertex -16.0424 23.1841 15.3
    endloop
  endfacet
  facet normal -0 0 -1
    outer loop
      vertex -1.17461 7.56588 15.3
      vertex -40 -40 15.3
      vertex -17.625 22.9008 15.3
    endloop
  endfacet
  facet normal 0 0 -1
    outer loop
      vertex -1.25 8 15.3
      vertex -16.7829 22.75 15.3
      vertex -16.375 22.9008 15.3
    endloop
  endfacet
  facet normal 0 0 -1
    outer loop
      vertex -1.25 8 15.3
      vertex -17.2171 22.75 15.3
      vertex -16.7829 22.75 15.3
    endloop
  endfacet
  facet normal 0 0 -1
    outer loop
      vertex -1.17461 7.56588 15.3
      vertex -17.625 22.9008 15.3
      vertex -17.2171 22.75 15.3
    endloop
  endfacet
  facet normal 0 0 -1
    outer loop
      vertex -17.9576 23.1841 15.3
      vertex -40 40 15.3
      vertex -18.1746 23.5659 15.3
    endloop
  endfacet
  facet normal 0 0 -1
    outer loop
      vertex -40 40 15.3
      vertex -17.9576 23.1841 15.3
      vertex -40 -40 15.3
    endloop
  endfacet
  facet normal -0 0 -1
    outer loop
      vertex -17.625 22.9008 15.3
      vertex -40 -40 15.3
      vertex -17.9576 23.1841 15.3
    endloop
  endfacet
  facet normal 0 0 -1
    outer loop
      vertex 16.2048 24.2605 15.3
      vertex 40 40 15.3
      vertex 16.25 24 15.3
    endloop
  endfacet
  facet normal 0 0 -1
    outer loop
      vertex 16.0745 24.4895 15.3
      vertex 40 40 15.3
      vertex 16.2048 24.2605 15.3
    endloop
  endfacet
  facet normal 0 0 -1
    outer loop
      vertex 15.875 24.6595 15.3
      vertex 40 40 15.3
      vertex 16.0745 24.4895 15.3
    endloop
  endfacet
  facet normal 0 0 -1
    outer loop
      vertex 15.6302 24.75 15.3
      vertex 40 40 15.3
      vertex 15.875 24.6595 15.3
    endloop
  endfacet
  facet normal 0 0 -1
    outer loop
      vertex 15.3698 24.75 15.3
      vertex 40 40 15.3
      vertex 15.6302 24.75 15.3
    endloop
  endfacet
  facet normal 0 0 -1
    outer loop
      vertex -16.375 25.0992 15.3
      vertex 15.3698 24.75 15.3
      vertex 15.125 24.6595 15.3
    endloop
  endfacet
  facet normal 0 0 -1
    outer loop
      vertex 0.625 9.09923 15.3
      vertex 14.9255 23.5105 15.3
      vertex 0.957555 8.81588 15.3
    endloop
  endfacet
  facet normal -0 0 -1
    outer loop
      vertex 14.9255 23.5105 15.3
      vertex 0.625 9.09923 15.3
      vertex 14.7952 23.7395 15.3
    endloop
  endfacet
  facet normal 0 0 -1
    outer loop
      vertex 0.21706 9.25 15.3
      vertex 14.7952 23.7395 15.3
      vertex 0.625 9.09923 15.3
    endloop
  endfacet
  facet normal -0 0 -1
    outer loop
      vertex 14.7952 23.7395 15.3
      vertex 0.21706 9.25 15.3
      vertex 14.75 24 15.3
    endloop
  endfacet
  facet normal 0 0 -1
    outer loop
      vertex -0.21706 9.25 15.3
      vertex 14.75 24 15.3
      vertex 0.21706 9.25 15.3
    endloop
  endfacet
  facet normal 0 0 -1
    outer loop
      vertex -15.75 24 15.3
      vertex 14.75 24 15.3
      vertex -0.21706 9.25 15.3
    endloop
  endfacet
  facet normal 0 0 -1
    outer loop
      vertex 14.75 24 15.3
      vertex -15.75 24 15.3
      vertex 14.7952 24.2605 15.3
    endloop
  endfacet
  facet normal 0 0 -1
    outer loop
      vertex -15.75 24 15.3
      vertex -0.21706 9.25 15.3
      vertex -0.624999 9.09923 15.3
    endloop
  endfacet
  facet normal 0 0 -1
    outer loop
      vertex -15.75 24 15.3
      vertex -0.624999 9.09923 15.3
      vertex -0.957555 8.81588 15.3
    endloop
  endfacet
  facet normal 0 0 -1
    outer loop
      vertex -15.75 24 15.3
      vertex -1.17461 8.43412 15.3
      vertex -1.25 8 15.3
    endloop
  endfacet
  facet normal 0 0 -1
    outer loop
      vertex -15.75 24 15.3
      vertex -0.957555 8.81588 15.3
      vertex -1.17461 8.43412 15.3
    endloop
  endfacet
  facet normal 0 0 -1
    outer loop
      vertex -15.8254 24.4341 15.3
      vertex 14.7952 24.2605 15.3
      vertex -15.75 24 15.3
    endloop
  endfacet
  facet normal 0 0 -1
    outer loop
      vertex 14.7952 24.2605 15.3
      vertex -15.8254 24.4341 15.3
      vertex 14.9255 24.4895 15.3
    endloop
  endfacet
  facet normal 0 0 -1
    outer loop
      vertex -16.0424 24.8159 15.3
      vertex 14.9255 24.4895 15.3
      vertex -15.8254 24.4341 15.3
    endloop
  endfacet
  facet normal 0 0 -1
    outer loop
      vertex 14.9255 24.4895 15.3
      vertex -16.0424 24.8159 15.3
      vertex 15.125 24.6595 15.3
    endloop
  endfacet
  facet normal 0 0 -1
    outer loop
      vertex -16.375 25.0992 15.3
      vertex 15.125 24.6595 15.3
      vertex -16.0424 24.8159 15.3
    endloop
  endfacet
  facet normal 0 0 -1
    outer loop
      vertex 15.3698 24.75 15.3
      vertex -16.375 25.0992 15.3
      vertex -16.7829 25.25 15.3
    endloop
  endfacet
  facet normal 0 0 -1
    outer loop
      vertex 15.3698 24.75 15.3
      vertex -16.7829 25.25 15.3
      vertex 40 40 15.3
    endloop
  endfacet
  facet normal 0 0 -1
    outer loop
      vertex -40 40 15.3
      vertex -16.7829 25.25 15.3
      vertex -17.2171 25.25 15.3
    endloop
  endfacet
  facet normal 0 0 -1
    outer loop
      vertex -18.1746 23.5659 15.3
      vertex -40 40 15.3
      vertex -18.25 24 15.3
    endloop
  endfacet
  facet normal 0 0 -1
    outer loop
      vertex -16.7829 25.25 15.3
      vertex -40 40 15.3
      vertex 40 40 15.3
    endloop
  endfacet
  facet normal 0 0 -1
    outer loop
      vertex -17.625 25.0992 15.3
      vertex -40 40 15.3
      vertex -17.2171 25.25 15.3
    endloop
  endfacet
  facet normal 0 0 -1
    outer loop
      vertex -17.9576 24.8159 15.3
      vertex -40 40 15.3
      vertex -17.625 25.0992 15.3
    endloop
  endfacet
  facet normal 0 0 -1
    outer loop
      vertex -18.1746 24.4341 15.3
      vertex -40 40 15.3
      vertex -17.9576 24.8159 15.3
    endloop
  endfacet
  facet normal 0 0 -1
    outer loop
      vertex -18.25 24 15.3
      vertex -40 40 15.3
      vertex -18.1746 24.4341 15.3
    endloop
  endfacet
  facet normal -1 0 0
    outer loop
      vertex 40 -40 12.3
      vertex 40 40 15.3
      vertex 40 40 12.3
    endloop
  endfacet
  facet normal -1 -0 0
    outer loop
      vertex 40 40 15.3
      vertex 40 -40 12.3
      vertex 40 -40 15.3
    endloop
  endfacet
  facet normal 0 -1 0
    outer loop
      vertex -40 40 12.3
      vertex 40 40 15.3
      vertex -40 40 15.3
    endloop
  endfacet
  facet normal 0 -1 -0
    outer loop
      vertex 40 40 15.3
      vertex -40 40 12.3
      vertex 40 40 12.3
    endloop
  endfacet
  facet normal 0 1 -0
    outer loop
      vertex 40 -40 12.3
      vertex -40 -40 15.3
      vertex 40 -40 15.3
    endloop
  endfacet
  facet normal 0 1 0
    outer loop
      vertex -40 -40 15.3
      vertex 40 -40 12.3
      vertex -40 -40 12.3
    endloop
  endfacet
  facet normal 0.985254 0.171101 0
    outer loop
      vertex 1.25 8 15.3
      vertex 1.17461 8.43412 13.5
      vertex 1.17461 8.43412 15.3
    endloop
  endfacet
  facet normal 0.985254 0.171101 0
    outer loop
      vertex 1.17461 8.43412 13.5
      vertex 1.25 8 15.3
      vertex 1.25 8 13.5
    endloop
  endfacet
  facet normal 0 1 -0
    outer loop
      vertex 0.21706 9.25 13.5
      vertex -0.21706 9.25 15.3
      vertex 0.21706 9.25 15.3
    endloop
  endfacet
  facet normal 0 1 0
    outer loop
      vertex -0.21706 9.25 15.3
      vertex 0.21706 9.25 13.5
      vertex -0.21706 9.25 13.5
    endloop
  endfacet
  facet normal 0.34667 -0.937987 0
    outer loop
      vertex 0.21706 6.75 13.5
      vertex 0.624999 6.90077 15.3
      vertex 0.21706 6.75 15.3
    endloop
  endfacet
  facet normal 0.34667 -0.937987 0
    outer loop
      vertex 0.624999 6.90077 15.3
      vertex 0.21706 6.75 13.5
      vertex 0.624999 6.90077 13.5
    endloop
  endfacet
  facet normal 0.648548 -0.761174 0
    outer loop
      vertex 0.624999 6.90077 13.5
      vertex 0.957555 7.18412 15.3
      vertex 0.624999 6.90077 15.3
    endloop
  endfacet
  facet normal 0.648548 -0.761174 0
    outer loop
      vertex 0.957555 7.18412 15.3
      vertex 0.624999 6.90077 13.5
      vertex 0.957555 7.18412 13.5
    endloop
  endfacet
  facet normal 0.648549 0.761173 -0
    outer loop
      vertex 0.957555 8.81588 13.5
      vertex 0.625 9.09923 15.3
      vertex 0.957555 8.81588 15.3
    endloop
  endfacet
  facet normal 0.648549 0.761173 0
    outer loop
      vertex 0.625 9.09923 15.3
      vertex 0.957555 8.81588 13.5
      vertex 0.625 9.09923 13.5
    endloop
  endfacet
  facet normal 0.869314 0.494261 0
    outer loop
      vertex 1.17461 8.43412 15.3
      vertex 0.957555 8.81588 13.5
      vertex 0.957555 8.81588 15.3
    endloop
  endfacet
  facet normal 0.869314 0.494261 0
    outer loop
      vertex 0.957555 8.81588 13.5
      vertex 1.17461 8.43412 15.3
      vertex 1.17461 8.43412 13.5
    endloop
  endfacet
  facet normal 0.346669 0.937987 -0
    outer loop
      vertex 0.625 9.09923 13.5
      vertex 0.21706 9.25 15.3
      vertex 0.625 9.09923 15.3
    endloop
  endfacet
  facet normal 0.346669 0.937987 0
    outer loop
      vertex 0.21706 9.25 15.3
      vertex 0.625 9.09923 13.5
      vertex 0.21706 9.25 13.5
    endloop
  endfacet
  facet normal -0.869314 0.494261 0
    outer loop
      vertex -1.17461 8.43412 13.5
      vertex -0.957555 8.81588 15.3
      vertex -0.957555 8.81588 13.5
    endloop
  endfacet
  facet normal -0.869314 0.494261 0
    outer loop
      vertex -0.957555 8.81588 15.3
      vertex -1.17461 8.43412 13.5
      vertex -1.17461 8.43412 15.3
    endloop
  endfacet
  facet normal 0 0 -1
    outer loop
      vertex 1.17461 7.56588 13.5
      vertex 1.17461 8.43412 13.5
      vertex 1.25 8 13.5
    endloop
  endfacet
  facet normal 0 0 -1
    outer loop
      vertex 0.957555 7.18412 13.5
      vertex 1.17461 8.43412 13.5
      vertex 1.17461 7.56588 13.5
    endloop
  endfacet
  facet normal 0 0 -1
    outer loop
      vertex 0.957555 7.18412 13.5
      vertex 0.957555 8.81588 13.5
      vertex 1.17461 8.43412 13.5
    endloop
  endfacet
  facet normal 0 0 -1
    outer loop
      vertex 0.957555 7.18412 13.5
      vertex 0.625 9.09923 13.5
      vertex 0.957555 8.81588 13.5
    endloop
  endfacet
  facet normal 0 0 -1
    outer loop
      vertex 0.624999 6.90077 13.5
      vertex 0.625 9.09923 13.5
      vertex 0.957555 7.18412 13.5
    endloop
  endfacet
  facet normal 0 0 -1
    outer loop
      vertex 0.21706 6.75 13.5
      vertex 0.625 9.09923 13.5
      vertex 0.624999 6.90077 13.5
    endloop
  endfacet
  facet normal 0 0 -1
    outer loop
      vertex -0.21706 6.75 13.5
      vertex 0.625 9.09923 13.5
      vertex 0.21706 6.75 13.5
    endloop
  endfacet
  facet normal 0 0 -1
    outer loop
      vertex -0.624999 9.09923 13.5
      vertex 0.625 9.09923 13.5
      vertex -0.21706 6.75 13.5
    endloop
  endfacet
  facet normal 0 0 -1
    outer loop
      vertex 0.625 9.09923 13.5
      vertex -0.624999 9.09923 13.5
      vertex 0.21706 9.25 13.5
    endloop
  endfacet
  facet normal -0 0 -1
    outer loop
      vertex 0.21706 9.25 13.5
      vertex -0.624999 9.09923 13.5
      vertex -0.21706 9.25 13.5
    endloop
  endfacet
  facet normal 0 0 -1
    outer loop
      vertex -0.625 6.90077 13.5
      vertex -0.624999 9.09923 13.5
      vertex -0.21706 6.75 13.5
    endloop
  endfacet
  facet normal 0 0 -1
    outer loop
      vertex -0.957555 7.18412 13.5
      vertex -0.624999 9.09923 13.5
      vertex -0.625 6.90077 13.5
    endloop
  endfacet
  facet normal 0 0 -1
    outer loop
      vertex -0.957555 7.18412 13.5
      vertex -0.957555 8.81588 13.5
      vertex -0.624999 9.09923 13.5
    endloop
  endfacet
  facet normal 0 0 -1
    outer loop
      vertex -1.17461 7.56588 13.5
      vertex -0.957555 8.81588 13.5
      vertex -0.957555 7.18412 13.5
    endloop
  endfacet
  facet normal 0 0 -1
    outer loop
      vertex -1.17461 7.56588 13.5
      vertex -1.17461 8.43412 13.5
      vertex -0.957555 8.81588 13.5
    endloop
  endfacet
  facet normal 0 -0 -1
    outer loop
      vertex -1.17461 8.43412 13.5
      vertex -1.17461 7.56588 13.5
      vertex -1.25 8 13.5
    endloop
  endfacet
  facet normal -0.985254 0.171101 0
    outer loop
      vertex -1.25 8 13.5
      vertex -1.17461 8.43412 15.3
      vertex -1.17461 8.43412 13.5
    endloop
  endfacet
  facet normal -0.985254 0.171101 0
    outer loop
      vertex -1.17461 8.43412 15.3
      vertex -1.25 8 13.5
      vertex -1.25 8 15.3
    endloop
  endfacet
  facet normal -0.648548 0.761174 0
    outer loop
      vertex -0.624999 9.09923 13.5
      vertex -0.957555 8.81588 15.3
      vertex -0.624999 9.09923 15.3
    endloop
  endfacet
  facet normal -0.648548 0.761174 0
    outer loop
      vertex -0.957555 8.81588 15.3
      vertex -0.624999 9.09923 13.5
      vertex -0.957555 8.81588 13.5
    endloop
  endfacet
  facet normal -0.985254 -0.171101 0
    outer loop
      vertex -1.17461 7.56588 13.5
      vertex -1.25 8 15.3
      vertex -1.25 8 13.5
    endloop
  endfacet
  facet normal -0.985254 -0.171101 0
    outer loop
      vertex -1.25 8 15.3
      vertex -1.17461 7.56588 13.5
      vertex -1.17461 7.56588 15.3
    endloop
  endfacet
  facet normal -0.34667 0.937987 0
    outer loop
      vertex -0.21706 9.25 13.5
      vertex -0.624999 9.09923 15.3
      vertex -0.21706 9.25 15.3
    endloop
  endfacet
  facet normal -0.34667 0.937987 0
    outer loop
      vertex -0.624999 9.09923 15.3
      vertex -0.21706 9.25 13.5
      vertex -0.624999 9.09923 13.5
    endloop
  endfacet
  facet normal 0.869314 -0.494261 0
    outer loop
      vertex 0.957555 7.18412 15.3
      vertex 1.17461 7.56588 13.5
      vertex 1.17461 7.56588 15.3
    endloop
  endfacet
  facet normal 0.869314 -0.494261 0
    outer loop
      vertex 1.17461 7.56588 13.5
      vertex 0.957555 7.18412 15.3
      vertex 0.957555 7.18412 13.5
    endloop
  endfacet
  facet normal 0.985254 -0.171101 0
    outer loop
      vertex 1.17461 7.56588 15.3
      vertex 1.25 8 13.5
      vertex 1.25 8 15.3
    endloop
  endfacet
  facet normal 0.985254 -0.171101 0
    outer loop
      vertex 1.25 8 13.5
      vertex 1.17461 7.56588 15.3
      vertex 1.17461 7.56588 13.5
    endloop
  endfacet
  facet normal -0.346669 -0.937987 0
    outer loop
      vertex -0.625 6.90077 13.5
      vertex -0.21706 6.75 15.3
      vertex -0.625 6.90077 15.3
    endloop
  endfacet
  facet normal -0.346669 -0.937987 -0
    outer loop
      vertex -0.21706 6.75 15.3
      vertex -0.625 6.90077 13.5
      vertex -0.21706 6.75 13.5
    endloop
  endfacet
  facet normal -0.648549 -0.761173 0
    outer loop
      vertex -0.957555 7.18412 13.5
      vertex -0.625 6.90077 15.3
      vertex -0.957555 7.18412 15.3
    endloop
  endfacet
  facet normal -0.648549 -0.761173 -0
    outer loop
      vertex -0.625 6.90077 15.3
      vertex -0.957555 7.18412 13.5
      vertex -0.625 6.90077 13.5
    endloop
  endfacet
  facet normal -0.869314 -0.494261 0
    outer loop
      vertex -0.957555 7.18412 13.5
      vertex -1.17461 7.56588 15.3
      vertex -1.17461 7.56588 13.5
    endloop
  endfacet
  facet normal -0.869314 -0.494261 0
    outer loop
      vertex -1.17461 7.56588 15.3
      vertex -0.957555 7.18412 13.5
      vertex -0.957555 7.18412 15.3
    endloop
  endfacet
  facet normal 0 -1 0
    outer loop
      vertex -0.21706 6.75 13.5
      vertex 0.21706 6.75 15.3
      vertex -0.21706 6.75 15.3
    endloop
  endfacet
  facet normal 0 -1 -0
    outer loop
      vertex 0.21706 6.75 15.3
      vertex -0.21706 6.75 13.5
      vertex 0.21706 6.75 13.5
    endloop
  endfacet
  facet normal 0.985278 0.170958 0
    outer loop
      vertex 16.25 24 15.3
      vertex 16.2048 24.2605 13.5
      vertex 16.2048 24.2605 15.3
    endloop
  endfacet
  facet normal 0.985278 0.170958 0
    outer loop
      vertex 16.2048 24.2605 13.5
      vertex 16.25 24 15.3
      vertex 16.25 24 13.5
    endloop
  endfacet
  facet normal 0 1 -0
    outer loop
      vertex 15.6302 24.75 13.5
      vertex 15.3698 24.75 15.3
      vertex 15.6302 24.75 15.3
    endloop
  endfacet
  facet normal 0 1 0
    outer loop
      vertex 15.3698 24.75 15.3
      vertex 15.6302 24.75 13.5
      vertex 15.3698 24.75 13.5
    endloop
  endfacet
  facet normal 0.346753 -0.937957 0
    outer loop
      vertex 15.6302 23.25 13.5
      vertex 15.875 23.3405 15.3
      vertex 15.6302 23.25 15.3
    endloop
  endfacet
  facet normal 0.346753 -0.937957 0
    outer loop
      vertex 15.875 23.3405 15.3
      vertex 15.6302 23.25 13.5
      vertex 15.875 23.3405 13.5
    endloop
  endfacet
  facet normal 0.648589 0.761139 -0
    outer loop
      vertex 16.0745 24.4895 13.5
      vertex 15.875 24.6595 15.3
      vertex 16.0745 24.4895 15.3
    endloop
  endfacet
  facet normal 0.648589 0.761139 0
    outer loop
      vertex 15.875 24.6595 15.3
      vertex 16.0745 24.4895 13.5
      vertex 15.875 24.6595 13.5
    endloop
  endfacet
  facet normal 0.869153 0.494544 0
    outer loop
      vertex 16.2048 24.2605 15.3
      vertex 16.0745 24.4895 13.5
      vertex 16.0745 24.4895 15.3
    endloop
  endfacet
  facet normal 0.869153 0.494544 0
    outer loop
      vertex 16.0745 24.4895 13.5
      vertex 16.2048 24.2605 15.3
      vertex 16.2048 24.2605 13.5
    endloop
  endfacet
  facet normal 0.346753 0.937957 -0
    outer loop
      vertex 15.875 24.6595 13.5
      vertex 15.6302 24.75 15.3
      vertex 15.875 24.6595 15.3
    endloop
  endfacet
  facet normal 0.346753 0.937957 0
    outer loop
      vertex 15.6302 24.75 15.3
      vertex 15.875 24.6595 13.5
      vertex 15.6302 24.75 13.5
    endloop
  endfacet
  facet normal -0.648589 0.761139 0
    outer loop
      vertex 15.125 24.6595 13.5
      vertex 14.9255 24.4895 15.3
      vertex 15.125 24.6595 15.3
    endloop
  endfacet
  facet normal -0.648589 0.761139 0
    outer loop
      vertex 14.9255 24.4895 15.3
      vertex 15.125 24.6595 13.5
      vertex 14.9255 24.4895 13.5
    endloop
  endfacet
  facet normal -0.869153 0.494544 0
    outer loop
      vertex 14.7952 24.2605 13.5
      vertex 14.9255 24.4895 15.3
      vertex 14.9255 24.4895 13.5
    endloop
  endfacet
  facet normal -0.869153 0.494544 0
    outer loop
      vertex 14.9255 24.4895 15.3
      vertex 14.7952 24.2605 13.5
      vertex 14.7952 24.2605 15.3
    endloop
  endfacet
  facet normal -0.346753 0.937957 0
    outer loop
      vertex 15.3698 24.75 13.5
      vertex 15.125 24.6595 15.3
      vertex 15.3698 24.75 15.3
    endloop
  endfacet
  facet normal -0.346753 0.937957 0
    outer loop
      vertex 15.125 24.6595 15.3
      vertex 15.3698 24.75 13.5
      vertex 15.125 24.6595 13.5
    endloop
  endfacet
  facet normal 0.985278 -0.170958 0
    outer loop
      vertex 16.2048 23.7395 15.3
      vertex 16.25 24 13.5
      vertex 16.25 24 15.3
    endloop
  endfacet
  facet normal 0.985278 -0.170958 0
    outer loop
      vertex 16.25 24 13.5
      vertex 16.2048 23.7395 15.3
      vertex 16.2048 23.7395 13.5
    endloop
  endfacet
  facet normal 0 0 -1
    outer loop
      vertex 16.2048 23.7395 13.5
      vertex 16.2048 24.2605 13.5
      vertex 16.25 24 13.5
    endloop
  endfacet
  facet normal 0 0 -1
    outer loop
      vertex 16.0745 23.5105 13.5
      vertex 16.2048 24.2605 13.5
      vertex 16.2048 23.7395 13.5
    endloop
  endfacet
  facet normal 0 0 -1
    outer loop
      vertex 16.0745 23.5105 13.5
      vertex 16.0745 24.4895 13.5
      vertex 16.2048 24.2605 13.5
    endloop
  endfacet
  facet normal 0 0 -1
    outer loop
      vertex 15.875 23.3405 13.5
      vertex 16.0745 24.4895 13.5
      vertex 16.0745 23.5105 13.5
    endloop
  endfacet
  facet normal 0 0 -1
    outer loop
      vertex 15.875 23.3405 13.5
      vertex 15.875 24.6595 13.5
      vertex 16.0745 24.4895 13.5
    endloop
  endfacet
  facet normal 0 0 -1
    outer loop
      vertex 15.6302 23.25 13.5
      vertex 15.875 24.6595 13.5
      vertex 15.875 23.3405 13.5
    endloop
  endfacet
  facet normal 0 0 -1
    outer loop
      vertex 15.3698 23.25 13.5
      vertex 15.875 24.6595 13.5
      vertex 15.6302 23.25 13.5
    endloop
  endfacet
  facet normal 0 0 -1
    outer loop
      vertex 15.125 23.3405 13.5
      vertex 15.875 24.6595 13.5
      vertex 15.3698 23.25 13.5
    endloop
  endfacet
  facet normal -0 0 -1
    outer loop
      vertex 15.875 24.6595 13.5
      vertex 15.125 23.3405 13.5
      vertex 15.6302 24.75 13.5
    endloop
  endfacet
  facet normal -0 0 -1
    outer loop
      vertex 15.6302 24.75 13.5
      vertex 15.125 23.3405 13.5
      vertex 15.3698 24.75 13.5
    endloop
  endfacet
  facet normal 0 0 -1
    outer loop
      vertex 15.125 23.3405 13.5
      vertex 15.125 24.6595 13.5
      vertex 15.3698 24.75 13.5
    endloop
  endfacet
  facet normal 0 0 -1
    outer loop
      vertex 14.9255 23.5105 13.5
      vertex 15.125 24.6595 13.5
      vertex 15.125 23.3405 13.5
    endloop
  endfacet
  facet normal 0 0 -1
    outer loop
      vertex 14.9255 23.5105 13.5
      vertex 14.9255 24.4895 13.5
      vertex 15.125 24.6595 13.5
    endloop
  endfacet
  facet normal 0 0 -1
    outer loop
      vertex 14.7952 23.7395 13.5
      vertex 14.9255 24.4895 13.5
      vertex 14.9255 23.5105 13.5
    endloop
  endfacet
  facet normal 0 0 -1
    outer loop
      vertex 14.7952 23.7395 13.5
      vertex 14.7952 24.2605 13.5
      vertex 14.9255 24.4895 13.5
    endloop
  endfacet
  facet normal 0 -0 -1
    outer loop
      vertex 14.7952 24.2605 13.5
      vertex 14.7952 23.7395 13.5
      vertex 14.75 24 13.5
    endloop
  endfacet
  facet normal -0.985278 0.170958 0
    outer loop
      vertex 14.75 24 13.5
      vertex 14.7952 24.2605 15.3
      vertex 14.7952 24.2605 13.5
    endloop
  endfacet
  facet normal -0.985278 0.170958 0
    outer loop
      vertex 14.7952 24.2605 15.3
      vertex 14.75 24 13.5
      vertex 14.75 24 15.3
    endloop
  endfacet
  facet normal 0.648589 -0.761139 0
    outer loop
      vertex 15.875 23.3405 13.5
      vertex 16.0745 23.5105 15.3
      vertex 15.875 23.3405 15.3
    endloop
  endfacet
  facet normal 0.648589 -0.761139 0
    outer loop
      vertex 16.0745 23.5105 15.3
      vertex 15.875 23.3405 13.5
      vertex 16.0745 23.5105 13.5
    endloop
  endfacet
  facet normal -0.869153 -0.494544 0
    outer loop
      vertex 14.9255 23.5105 13.5
      vertex 14.7952 23.7395 15.3
      vertex 14.7952 23.7395 13.5
    endloop
  endfacet
  facet normal -0.869153 -0.494544 0
    outer loop
      vertex 14.7952 23.7395 15.3
      vertex 14.9255 23.5105 13.5
      vertex 14.9255 23.5105 15.3
    endloop
  endfacet
  facet normal -0.985278 -0.170958 0
    outer loop
      vertex 14.7952 23.7395 13.5
      vertex 14.75 24 15.3
      vertex 14.75 24 13.5
    endloop
  endfacet
  facet normal -0.985278 -0.170958 0
    outer loop
      vertex 14.75 24 15.3
      vertex 14.7952 23.7395 13.5
      vertex 14.7952 23.7395 15.3
    endloop
  endfacet
  facet normal 0.869153 -0.494544 0
    outer loop
      vertex 16.0745 23.5105 15.3
      vertex 16.2048 23.7395 13.5
      vertex 16.2048 23.7395 15.3
    endloop
  endfacet
  facet normal 0.869153 -0.494544 0
    outer loop
      vertex 16.2048 23.7395 13.5
      vertex 16.0745 23.5105 15.3
      vertex 16.0745 23.5105 13.5
    endloop
  endfacet
  facet normal -0.346753 -0.937957 0
    outer loop
      vertex 15.125 23.3405 13.5
      vertex 15.3698 23.25 15.3
      vertex 15.125 23.3405 15.3
    endloop
  endfacet
  facet normal -0.346753 -0.937957 -0
    outer loop
      vertex 15.3698 23.25 15.3
      vertex 15.125 23.3405 13.5
      vertex 15.3698 23.25 13.5
    endloop
  endfacet
  facet normal -0.648589 -0.761139 0
    outer loop
      vertex 14.9255 23.5105 13.5
      vertex 15.125 23.3405 15.3
      vertex 14.9255 23.5105 15.3
    endloop
  endfacet
  facet normal -0.648589 -0.761139 -0
    outer loop
      vertex 15.125 23.3405 15.3
      vertex 14.9255 23.5105 13.5
      vertex 15.125 23.3405 13.5
    endloop
  endfacet
  facet normal 0 -1 0
    outer loop
      vertex 15.3698 23.25 13.5
      vertex 15.6302 23.25 15.3
      vertex 15.3698 23.25 15.3
    endloop
  endfacet
  facet normal 0 -1 -0
    outer loop
      vertex 15.6302 23.25 15.3
      vertex 15.3698 23.25 13.5
      vertex 15.6302 23.25 13.5
    endloop
  endfacet
  facet normal 0.985248 0.17113 0
    outer loop
      vertex -15.75 24 15.3
      vertex -15.8254 24.4341 13.5
      vertex -15.8254 24.4341 15.3
    endloop
  endfacet
  facet normal 0.985248 0.17113 0
    outer loop
      vertex -15.8254 24.4341 13.5
      vertex -15.75 24 15.3
      vertex -15.75 24 13.5
    endloop
  endfacet
  facet normal -0.985248 0.17113 0
    outer loop
      vertex -18.25 24 13.5
      vertex -18.1746 24.4341 15.3
      vertex -18.1746 24.4341 13.5
    endloop
  endfacet
  facet normal -0.985248 0.17113 0
    outer loop
      vertex -18.1746 24.4341 15.3
      vertex -18.25 24 13.5
      vertex -18.25 24 15.3
    endloop
  endfacet
  facet normal 0 1 -0
    outer loop
      vertex -16.7829 25.25 13.5
      vertex -17.2171 25.25 15.3
      vertex -16.7829 25.25 15.3
    endloop
  endfacet
  facet normal 0 1 0
    outer loop
      vertex -17.2171 25.25 15.3
      vertex -16.7829 25.25 13.5
      vertex -17.2171 25.25 13.5
    endloop
  endfacet
  facet normal 0 -1 0
    outer loop
      vertex -17.2171 22.75 13.5
      vertex -16.7829 22.75 15.3
      vertex -17.2171 22.75 15.3
    endloop
  endfacet
  facet normal 0 -1 -0
    outer loop
      vertex -16.7829 22.75 15.3
      vertex -17.2171 22.75 13.5
      vertex -16.7829 22.75 13.5
    endloop
  endfacet
  facet normal 0.648432 0.761273 -0
    outer loop
      vertex -16.0424 24.8159 13.5
      vertex -16.375 25.0992 15.3
      vertex -16.0424 24.8159 15.3
    endloop
  endfacet
  facet normal 0.648432 0.761273 0
    outer loop
      vertex -16.375 25.0992 15.3
      vertex -16.0424 24.8159 13.5
      vertex -16.375 25.0992 13.5
    endloop
  endfacet
  facet normal 0.86939 0.494127 0
    outer loop
      vertex -15.8254 24.4341 15.3
      vertex -16.0424 24.8159 13.5
      vertex -16.0424 24.8159 15.3
    endloop
  endfacet
  facet normal 0.86939 0.494127 0
    outer loop
      vertex -16.0424 24.8159 13.5
      vertex -15.8254 24.4341 15.3
      vertex -15.8254 24.4341 13.5
    endloop
  endfacet
  facet normal 0.34676 0.937954 -0
    outer loop
      vertex -16.375 25.0992 13.5
      vertex -16.7829 25.25 15.3
      vertex -16.375 25.0992 15.3
    endloop
  endfacet
  facet normal 0.34676 0.937954 0
    outer loop
      vertex -16.7829 25.25 15.3
      vertex -16.375 25.0992 13.5
      vertex -16.7829 25.25 13.5
    endloop
  endfacet
  facet normal -0.648432 0.761273 0
    outer loop
      vertex -17.625 25.0992 13.5
      vertex -17.9576 24.8159 15.3
      vertex -17.625 25.0992 15.3
    endloop
  endfacet
  facet normal -0.648432 0.761273 0
    outer loop
      vertex -17.9576 24.8159 15.3
      vertex -17.625 25.0992 13.5
      vertex -17.9576 24.8159 13.5
    endloop
  endfacet
  facet normal -0.86939 0.494127 0
    outer loop
      vertex -18.1746 24.4341 13.5
      vertex -17.9576 24.8159 15.3
      vertex -17.9576 24.8159 13.5
    endloop
  endfacet
  facet normal -0.86939 0.494127 0
    outer loop
      vertex -17.9576 24.8159 15.3
      vertex -18.1746 24.4341 13.5
      vertex -18.1746 24.4341 15.3
    endloop
  endfacet
  facet normal -0.34676 0.937954 0
    outer loop
      vertex -17.2171 25.25 13.5
      vertex -17.625 25.0992 15.3
      vertex -17.2171 25.25 15.3
    endloop
  endfacet
  facet normal -0.34676 0.937954 0
    outer loop
      vertex -17.625 25.0992 15.3
      vertex -17.2171 25.25 13.5
      vertex -17.625 25.0992 13.5
    endloop
  endfacet
  facet normal 0.985248 -0.17113 0
    outer loop
      vertex -15.8254 23.5659 15.3
      vertex -15.75 24 13.5
      vertex -15.75 24 15.3
    endloop
  endfacet
  facet normal 0.985248 -0.17113 0
    outer loop
      vertex -15.75 24 13.5
      vertex -15.8254 23.5659 15.3
      vertex -15.8254 23.5659 13.5
    endloop
  endfacet
  facet normal 0 0 -1
    outer loop
      vertex -15.8254 23.5659 13.5
      vertex -15.8254 24.4341 13.5
      vertex -15.75 24 13.5
    endloop
  endfacet
  facet normal 0 0 -1
    outer loop
      vertex -16.0424 23.1841 13.5
      vertex -15.8254 24.4341 13.5
      vertex -15.8254 23.5659 13.5
    endloop
  endfacet
  facet normal 0 0 -1
    outer loop
      vertex -16.0424 23.1841 13.5
      vertex -16.0424 24.8159 13.5
      vertex -15.8254 24.4341 13.5
    endloop
  endfacet
  facet normal 0 0 -1
    outer loop
      vertex -16.375 22.9008 13.5
      vertex -16.0424 24.8159 13.5
      vertex -16.0424 23.1841 13.5
    endloop
  endfacet
  facet normal 0 0 -1
    outer loop
      vertex -16.375 22.9008 13.5
      vertex -16.375 25.0992 13.5
      vertex -16.0424 24.8159 13.5
    endloop
  endfacet
  facet normal 0 0 -1
    outer loop
      vertex -16.7829 22.75 13.5
      vertex -16.375 25.0992 13.5
      vertex -16.375 22.9008 13.5
    endloop
  endfacet
  facet normal 0 0 -1
    outer loop
      vertex -17.2171 22.75 13.5
      vertex -16.375 25.0992 13.5
      vertex -16.7829 22.75 13.5
    endloop
  endfacet
  facet normal 0 0 -1
    outer loop
      vertex -17.625 22.9008 13.5
      vertex -16.375 25.0992 13.5
      vertex -17.2171 22.75 13.5
    endloop
  endfacet
  facet normal -0 0 -1
    outer loop
      vertex -16.375 25.0992 13.5
      vertex -17.625 22.9008 13.5
      vertex -16.7829 25.25 13.5
    endloop
  endfacet
  facet normal -0 0 -1
    outer loop
      vertex -16.7829 25.25 13.5
      vertex -17.625 22.9008 13.5
      vertex -17.2171 25.25 13.5
    endloop
  endfacet
  facet normal 0 0 -1
    outer loop
      vertex -17.625 22.9008 13.5
      vertex -17.625 25.0992 13.5
      vertex -17.2171 25.25 13.5
    endloop
  endfacet
  facet normal 0 0 -1
    outer loop
      vertex -17.9576 23.1841 13.5
      vertex -17.625 25.0992 13.5
      vertex -17.625 22.9008 13.5
    endloop
  endfacet
  facet normal 0 0 -1
    outer loop
      vertex -17.9576 23.1841 13.5
      vertex -17.9576 24.8159 13.5
      vertex -17.625 25.0992 13.5
    endloop
  endfacet
  facet normal 0 0 -1
    outer loop
      vertex -18.1746 23.5659 13.5
      vertex -17.9576 24.8159 13.5
      vertex -17.9576 23.1841 13.5
    endloop
  endfacet
  facet normal 0 0 -1
    outer loop
      vertex -18.1746 23.5659 13.5
      vertex -18.1746 24.4341 13.5
      vertex -17.9576 24.8159 13.5
    endloop
  endfacet
  facet normal 0 -0 -1
    outer loop
      vertex -18.1746 24.4341 13.5
      vertex -18.1746 23.5659 13.5
      vertex -18.25 24 13.5
    endloop
  endfacet
  facet normal 0.86939 -0.494127 0
    outer loop
      vertex -16.0424 23.1841 15.3
      vertex -15.8254 23.5659 13.5
      vertex -15.8254 23.5659 15.3
    endloop
  endfacet
  facet normal 0.86939 -0.494127 0
    outer loop
      vertex -15.8254 23.5659 13.5
      vertex -16.0424 23.1841 15.3
      vertex -16.0424 23.1841 13.5
    endloop
  endfacet
  facet normal -0.34676 -0.937954 0
    outer loop
      vertex -17.625 22.9008 13.5
      vertex -17.2171 22.75 15.3
      vertex -17.625 22.9008 15.3
    endloop
  endfacet
  facet normal -0.34676 -0.937954 -0
    outer loop
      vertex -17.2171 22.75 15.3
      vertex -17.625 22.9008 13.5
      vertex -17.2171 22.75 13.5
    endloop
  endfacet
  facet normal -0.86939 -0.494127 0
    outer loop
      vertex -17.9576 23.1841 13.5
      vertex -18.1746 23.5659 15.3
      vertex -18.1746 23.5659 13.5
    endloop
  endfacet
  facet normal -0.86939 -0.494127 0
    outer loop
      vertex -18.1746 23.5659 15.3
      vertex -17.9576 23.1841 13.5
      vertex -17.9576 23.1841 15.3
    endloop
  endfacet
  facet normal -0.985248 -0.17113 0
    outer loop
      vertex -18.1746 23.5659 13.5
      vertex -18.25 24 15.3
      vertex -18.25 24 13.5
    endloop
  endfacet
  facet normal -0.985248 -0.17113 0
    outer loop
      vertex -18.25 24 15.3
      vertex -18.1746 23.5659 13.5
      vertex -18.1746 23.5659 15.3
    endloop
  endfacet
  facet normal -0.648432 -0.761273 0
    outer loop
      vertex -17.9576 23.1841 13.5
      vertex -17.625 22.9008 15.3
      vertex -17.9576 23.1841 15.3
    endloop
  endfacet
  facet normal -0.648432 -0.761273 -0
    outer loop
      vertex -17.625 22.9008 15.3
      vertex -17.9576 23.1841 13.5
      vertex -17.625 22.9008 13.5
    endloop
  endfacet
  facet normal 0.648432 -0.761273 0
    outer loop
      vertex -16.375 22.9008 13.5
      vertex -16.0424 23.1841 15.3
      vertex -16.375 22.9008 15.3
    endloop
  endfacet
  facet normal 0.648432 -0.761273 0
    outer loop
      vertex -16.0424 23.1841 15.3
      vertex -16.375 22.9008 13.5
      vertex -16.0424 23.1841 13.5
    endloop
  endfacet
  facet normal 0.34676 -0.937954 0
    outer loop
      vertex -16.7829 22.75 13.5
      vertex -16.375 22.9008 15.3
      vertex -16.7829 22.75 15.3
    endloop
  endfacet
  facet normal 0.34676 -0.937954 0
    outer loop
      vertex -16.375 22.9008 15.3
      vertex -16.7829 22.75 13.5
      vertex -16.375 22.9008 13.5
    endloop
  endfacet
endsolid OpenSCAD_Model
