solid OpenSCAD_Model
  facet normal 1 -0 0
    outer loop
      vertex 39.8 -39.8 0
      vertex 39.8 39.8 -4.5
      vertex 39.8 39.8 0
    endloop
  endfacet
  facet normal 1 0 0
    outer loop
      vertex 39.8 39.8 -4.5
      vertex 39.8 -39.8 0
      vertex 39.8 -39.8 -4.5
    endloop
  endfacet
  facet normal 0 0 -1
    outer loop
      vertex -39.9 -39.9 -6
      vertex 39.9 39.9 -6
      vertex 39.9 -39.9 -6
    endloop
  endfacet
  facet normal -0 0 -1
    outer loop
      vertex 39.9 39.9 -6
      vertex -39.9 -39.9 -6
      vertex -39.9 39.9 -6
    endloop
  endfacet
  facet normal 0 0 1
    outer loop
      vertex 5.37981 9.35649 0
      vertex 39.8 39.8 0
      vertex 5.5 10.5 0
    endloop
  endfacet
  facet normal 0 0 1
    outer loop
      vertex 39.8 39.8 0
      vertex 5.37981 11.6435 0
      vertex 5.5 10.5 0
    endloop
  endfacet
  facet normal 0 0 1
    outer loop
      vertex 39.8 39.8 0
      vertex 5.0245 12.7371 0
      vertex 5.37981 11.6435 0
    endloop
  endfacet
  facet normal 0 0 1
    outer loop
      vertex 39.8 39.8 0
      vertex 4.44959 13.7328 0
      vertex 5.0245 12.7371 0
    endloop
  endfacet
  facet normal 0 0 1
    outer loop
      vertex 39.8 39.8 0
      vertex 3.68022 14.5873 0
      vertex 4.44959 13.7328 0
    endloop
  endfacet
  facet normal 0 0 1
    outer loop
      vertex 39.8 39.8 0
      vertex 2.75 15.2631 0
      vertex 3.68022 14.5873 0
    endloop
  endfacet
  facet normal 0 0 1
    outer loop
      vertex 39.8 39.8 0
      vertex 1.69959 15.7308 0
      vertex 2.75 15.2631 0
    endloop
  endfacet
  facet normal 0 0 1
    outer loop
      vertex 39.8 39.8 0
      vertex 0.574906 15.9699 0
      vertex 1.69959 15.7308 0
    endloop
  endfacet
  facet normal 0 0 1
    outer loop
      vertex 39.8 39.8 0
      vertex -0.574906 15.9699 0
      vertex 0.574906 15.9699 0
    endloop
  endfacet
  facet normal -0 0 1
    outer loop
      vertex -39.8 39.8 0
      vertex -0.574906 15.9699 0
      vertex 39.8 39.8 0
    endloop
  endfacet
  facet normal 0 0 1
    outer loop
      vertex -0.574906 15.9699 0
      vertex -39.8 39.8 0
      vertex -1.69959 15.7308 0
    endloop
  endfacet
  facet normal 0 0 1
    outer loop
      vertex -5.37981 11.6435 0
      vertex -39.8 39.8 0
      vertex -5.5 10.5 0
    endloop
  endfacet
  facet normal 0 0 1
    outer loop
      vertex -5.0245 12.7371 0
      vertex -39.8 39.8 0
      vertex -5.37981 11.6435 0
    endloop
  endfacet
  facet normal 0 0 1
    outer loop
      vertex -4.44959 13.7328 0
      vertex -39.8 39.8 0
      vertex -5.0245 12.7371 0
    endloop
  endfacet
  facet normal 0 0 1
    outer loop
      vertex -3.68022 14.5873 0
      vertex -39.8 39.8 0
      vertex -4.44959 13.7328 0
    endloop
  endfacet
  facet normal 0 0 1
    outer loop
      vertex -2.75 15.2631 0
      vertex -39.8 39.8 0
      vertex -3.68022 14.5873 0
    endloop
  endfacet
  facet normal 0 0 1
    outer loop
      vertex -1.69959 15.7308 0
      vertex -39.8 39.8 0
      vertex -2.75 15.2631 0
    endloop
  endfacet
  facet normal 0 0 1
    outer loop
      vertex 39.8 39.8 0
      vertex 5.37981 9.35649 0
      vertex 39.8 -39.8 0
    endloop
  endfacet
  facet normal -0 0 1
    outer loop
      vertex 5.0245 8.26295 0
      vertex 39.8 -39.8 0
      vertex 5.37981 9.35649 0
    endloop
  endfacet
  facet normal -0 0 1
    outer loop
      vertex 4.44959 7.26718 0
      vertex 39.8 -39.8 0
      vertex 5.0245 8.26295 0
    endloop
  endfacet
  facet normal -0 0 1
    outer loop
      vertex 3.68022 6.4127 0
      vertex 39.8 -39.8 0
      vertex 4.44959 7.26718 0
    endloop
  endfacet
  facet normal -0 0 1
    outer loop
      vertex 2.75 5.73686 0
      vertex 39.8 -39.8 0
      vertex 3.68022 6.4127 0
    endloop
  endfacet
  facet normal -0 0 1
    outer loop
      vertex 1.69959 5.26919 0
      vertex 39.8 -39.8 0
      vertex 2.75 5.73686 0
    endloop
  endfacet
  facet normal -0 0 1
    outer loop
      vertex 0.574906 5.03013 0
      vertex 39.8 -39.8 0
      vertex 1.69959 5.26919 0
    endloop
  endfacet
  facet normal -0 0 1
    outer loop
      vertex -0.574906 5.03013 0
      vertex 39.8 -39.8 0
      vertex 0.574906 5.03013 0
    endloop
  endfacet
  facet normal 0 0 1
    outer loop
      vertex -39.8 -39.8 0
      vertex -0.574906 5.03013 0
      vertex -1.69959 5.26919 0
    endloop
  endfacet
  facet normal 0 0 1
    outer loop
      vertex -39.8 -39.8 0
      vertex -1.69959 5.26919 0
      vertex -2.75 5.73686 0
    endloop
  endfacet
  facet normal 0 0 1
    outer loop
      vertex -39.8 -39.8 0
      vertex -2.75 5.73686 0
      vertex -3.68022 6.4127 0
    endloop
  endfacet
  facet normal 0 0 1
    outer loop
      vertex -39.8 39.8 0
      vertex -5.37981 9.35649 0
      vertex -5.5 10.5 0
    endloop
  endfacet
  facet normal 0 0 1
    outer loop
      vertex -39.8 -39.8 0
      vertex -5.37981 9.35649 0
      vertex -39.8 39.8 0
    endloop
  endfacet
  facet normal 0 0 1
    outer loop
      vertex -5.37981 9.35649 0
      vertex -39.8 -39.8 0
      vertex -5.0245 8.26295 0
    endloop
  endfacet
  facet normal 0 0 1
    outer loop
      vertex -5.0245 8.26295 0
      vertex -39.8 -39.8 0
      vertex -4.44959 7.26718 0
    endloop
  endfacet
  facet normal 0 0 1
    outer loop
      vertex -4.44959 7.26718 0
      vertex -39.8 -39.8 0
      vertex -3.68022 6.4127 0
    endloop
  endfacet
  facet normal 0 0 1
    outer loop
      vertex -0.574906 5.03013 0
      vertex -39.8 -39.8 0
      vertex 39.8 -39.8 0
    endloop
  endfacet
  facet normal -1 0 0
    outer loop
      vertex -39.8 -39.8 -4.5
      vertex -39.8 39.8 0
      vertex -39.8 39.8 -4.5
    endloop
  endfacet
  facet normal -1 -0 0
    outer loop
      vertex -39.8 39.8 0
      vertex -39.8 -39.8 -4.5
      vertex -39.8 -39.8 0
    endloop
  endfacet
  facet normal 0 1 -0
    outer loop
      vertex 39.8 39.8 -4.5
      vertex -39.8 39.8 0
      vertex 39.8 39.8 0
    endloop
  endfacet
  facet normal 0 1 0
    outer loop
      vertex -39.8 39.8 0
      vertex 39.8 39.8 -4.5
      vertex -39.8 39.8 -4.5
    endloop
  endfacet
  facet normal 0 -1 0
    outer loop
      vertex -39.8 -39.8 -4.5
      vertex 39.8 -39.8 0
      vertex -39.8 -39.8 0
    endloop
  endfacet
  facet normal 0 -1 -0
    outer loop
      vertex 39.8 -39.8 0
      vertex -39.8 -39.8 -4.5
      vertex 39.8 -39.8 -4.5
    endloop
  endfacet
  facet normal 1 -0 0
    outer loop
      vertex 39.9 -39.9 -4.5
      vertex 39.9 39.9 -6
      vertex 39.9 39.9 -4.5
    endloop
  endfacet
  facet normal 1 0 0
    outer loop
      vertex 39.9 39.9 -6
      vertex 39.9 -39.9 -4.5
      vertex 39.9 -39.9 -6
    endloop
  endfacet
  facet normal 0 0 1
    outer loop
      vertex 39.9 39.9 -4.5
      vertex 39.8 39.8 -4.5
      vertex 39.9 -39.9 -4.5
    endloop
  endfacet
  facet normal 0 0 1
    outer loop
      vertex 39.9 39.9 -4.5
      vertex -39.8 39.8 -4.5
      vertex 39.8 39.8 -4.5
    endloop
  endfacet
  facet normal 0 0 1
    outer loop
      vertex -39.8 39.8 -4.5
      vertex -39.9 39.9 -4.5
      vertex -39.8 -39.8 -4.5
    endloop
  endfacet
  facet normal -0 0 1
    outer loop
      vertex -39.9 39.9 -4.5
      vertex -39.8 39.8 -4.5
      vertex 39.9 39.9 -4.5
    endloop
  endfacet
  facet normal -0 0 1
    outer loop
      vertex 39.8 -39.8 -4.5
      vertex 39.9 -39.9 -4.5
      vertex 39.8 39.8 -4.5
    endloop
  endfacet
  facet normal -0 0 1
    outer loop
      vertex -39.8 -39.8 -4.5
      vertex 39.9 -39.9 -4.5
      vertex 39.8 -39.8 -4.5
    endloop
  endfacet
  facet normal 0 0 1
    outer loop
      vertex -39.8 -39.8 -4.5
      vertex -39.9 -39.9 -4.5
      vertex 39.9 -39.9 -4.5
    endloop
  endfacet
  facet normal 0 0 1
    outer loop
      vertex -39.9 -39.9 -4.5
      vertex -39.8 -39.8 -4.5
      vertex -39.9 39.9 -4.5
    endloop
  endfacet
  facet normal -1 0 0
    outer loop
      vertex -39.9 -39.9 -6
      vertex -39.9 39.9 -4.5
      vertex -39.9 39.9 -6
    endloop
  endfacet
  facet normal -1 -0 0
    outer loop
      vertex -39.9 39.9 -4.5
      vertex -39.9 -39.9 -6
      vertex -39.9 -39.9 -4.5
    endloop
  endfacet
  facet normal 0 1 -0
    outer loop
      vertex 39.9 39.9 -6
      vertex -39.9 39.9 -4.5
      vertex 39.9 39.9 -4.5
    endloop
  endfacet
  facet normal 0 1 0
    outer loop
      vertex -39.9 39.9 -4.5
      vertex 39.9 39.9 -6
      vertex -39.9 39.9 -6
    endloop
  endfacet
  facet normal 0 -1 0
    outer loop
      vertex -39.9 -39.9 -6
      vertex 39.9 -39.9 -4.5
      vertex -39.9 -39.9 -4.5
    endloop
  endfacet
  facet normal 0 -1 -0
    outer loop
      vertex 39.9 -39.9 -4.5
      vertex -39.9 -39.9 -6
      vertex 39.9 -39.9 -6
    endloop
  endfacet
  facet normal 0 -1 0
    outer loop
      vertex -0.574906 15.9699 -3.5
      vertex 0.574906 15.9699 0
      vertex -0.574906 15.9699 0
    endloop
  endfacet
  facet normal 0 -1 -0
    outer loop
      vertex 0.574906 15.9699 0
      vertex -0.574906 15.9699 -3.5
      vertex 0.574906 15.9699 -3.5
    endloop
  endfacet
  facet normal 0.58776 -0.809035 0
    outer loop
      vertex -3.68022 14.5873 -3.5
      vertex -2.75 15.2631 0
      vertex -3.68022 14.5873 0
    endloop
  endfacet
  facet normal 0.58776 -0.809035 0
    outer loop
      vertex -2.75 15.2631 0
      vertex -3.68022 14.5873 -3.5
      vertex -2.75 15.2631 -3.5
    endloop
  endfacet
  facet normal -0.951062 -0.309 0
    outer loop
      vertex 5.37981 11.6435 -3.5
      vertex 5.0245 12.7371 0
      vertex 5.0245 12.7371 -3.5
    endloop
  endfacet
  facet normal -0.951062 -0.309 0
    outer loop
      vertex 5.0245 12.7371 0
      vertex 5.37981 11.6435 -3.5
      vertex 5.37981 11.6435 0
    endloop
  endfacet
  facet normal -0.994522 -0.104531 0
    outer loop
      vertex 5.5 10.5 -3.5
      vertex 5.37981 11.6435 0
      vertex 5.37981 11.6435 -3.5
    endloop
  endfacet
  facet normal -0.994522 -0.104531 0
    outer loop
      vertex 5.37981 11.6435 0
      vertex 5.5 10.5 -3.5
      vertex 5.5 10.5 0
    endloop
  endfacet
  facet normal -0.207946 -0.97814 0
    outer loop
      vertex 0.574906 15.9699 -3.5
      vertex 1.69959 15.7308 0
      vertex 0.574906 15.9699 0
    endloop
  endfacet
  facet normal -0.207946 -0.97814 -0
    outer loop
      vertex 1.69959 15.7308 0
      vertex 0.574906 15.9699 -3.5
      vertex 1.69959 15.7308 -3.5
    endloop
  endfacet
  facet normal 0.207913 0.978147 -0
    outer loop
      vertex -0.574906 5.03013 -3.5
      vertex -1.69959 5.26919 0
      vertex -0.574906 5.03013 0
    endloop
  endfacet
  facet normal 0.207913 0.978147 0
    outer loop
      vertex -1.69959 5.26919 0
      vertex -0.574906 5.03013 -3.5
      vertex -1.69959 5.26919 -3.5
    endloop
  endfacet
  facet normal 0.406735 0.913546 -0
    outer loop
      vertex -1.69959 5.26919 -3.5
      vertex -2.75 5.73686 0
      vertex -1.69959 5.26919 0
    endloop
  endfacet
  facet normal 0.406735 0.913546 0
    outer loop
      vertex -2.75 5.73686 0
      vertex -1.69959 5.26919 -3.5
      vertex -2.75 5.73686 -3.5
    endloop
  endfacet
  facet normal -0.587783 0.809019 0
    outer loop
      vertex 3.68022 6.4127 -3.5
      vertex 2.75 5.73686 0
      vertex 3.68022 6.4127 0
    endloop
  endfacet
  facet normal -0.587783 0.809019 0
    outer loop
      vertex 2.75 5.73686 0
      vertex 3.68022 6.4127 -3.5
      vertex 2.75 5.73686 -3.5
    endloop
  endfacet
  facet normal 0.743156 -0.669118 0
    outer loop
      vertex -4.44959 13.7328 0
      vertex -3.68022 14.5873 -3.5
      vertex -3.68022 14.5873 0
    endloop
  endfacet
  facet normal 0.743156 -0.669118 0
    outer loop
      vertex -3.68022 14.5873 -3.5
      vertex -4.44959 13.7328 0
      vertex -4.44959 13.7328 -3.5
    endloop
  endfacet
  facet normal -0.406735 0.913546 0
    outer loop
      vertex 2.75 5.73686 -3.5
      vertex 1.69959 5.26919 0
      vertex 2.75 5.73686 0
    endloop
  endfacet
  facet normal -0.406735 0.913546 0
    outer loop
      vertex 1.69959 5.26919 0
      vertex 2.75 5.73686 -3.5
      vertex 1.69959 5.26919 -3.5
    endloop
  endfacet
  facet normal 0.951057 0.309015 0
    outer loop
      vertex -5.0245 8.26295 0
      vertex -5.37981 9.35649 -3.5
      vertex -5.37981 9.35649 0
    endloop
  endfacet
  facet normal 0.951057 0.309015 0
    outer loop
      vertex -5.37981 9.35649 -3.5
      vertex -5.0245 8.26295 0
      vertex -5.0245 8.26295 -3.5
    endloop
  endfacet
  facet normal -0.994522 0.10453 0
    outer loop
      vertex 5.37981 9.35649 -3.5
      vertex 5.5 10.5 0
      vertex 5.5 10.5 -3.5
    endloop
  endfacet
  facet normal -0.994522 0.10453 0
    outer loop
      vertex 5.5 10.5 0
      vertex 5.37981 9.35649 -3.5
      vertex 5.37981 9.35649 0
    endloop
  endfacet
  facet normal -0.866025 0.500001 0
    outer loop
      vertex 4.44959 7.26718 -3.5
      vertex 5.0245 8.26295 0
      vertex 5.0245 8.26295 -3.5
    endloop
  endfacet
  facet normal -0.866025 0.500001 0
    outer loop
      vertex 5.0245 8.26295 0
      vertex 4.44959 7.26718 -3.5
      vertex 4.44959 7.26718 0
    endloop
  endfacet
  facet normal 0.866025 0.500001 0
    outer loop
      vertex -4.44959 7.26718 0
      vertex -5.0245 8.26295 -3.5
      vertex -5.0245 8.26295 0
    endloop
  endfacet
  facet normal 0.866025 0.500001 0
    outer loop
      vertex -5.0245 8.26295 -3.5
      vertex -4.44959 7.26718 0
      vertex -4.44959 7.26718 -3.5
    endloop
  endfacet
  facet normal -0.866009 -0.500028 0
    outer loop
      vertex 5.0245 12.7371 -3.5
      vertex 4.44959 13.7328 0
      vertex 4.44959 13.7328 -3.5
    endloop
  endfacet
  facet normal -0.866009 -0.500028 0
    outer loop
      vertex 4.44959 13.7328 0
      vertex 5.0245 12.7371 -3.5
      vertex 5.0245 12.7371 0
    endloop
  endfacet
  facet normal -0.743148 0.669127 0
    outer loop
      vertex 3.68022 6.4127 -3.5
      vertex 4.44959 7.26718 0
      vertex 4.44959 7.26718 -3.5
    endloop
  endfacet
  facet normal -0.743148 0.669127 0
    outer loop
      vertex 4.44959 7.26718 0
      vertex 3.68022 6.4127 -3.5
      vertex 3.68022 6.4127 0
    endloop
  endfacet
  facet normal -0.58776 -0.809035 0
    outer loop
      vertex 2.75 15.2631 -3.5
      vertex 3.68022 14.5873 0
      vertex 2.75 15.2631 0
    endloop
  endfacet
  facet normal -0.58776 -0.809035 -0
    outer loop
      vertex 3.68022 14.5873 0
      vertex 2.75 15.2631 -3.5
      vertex 3.68022 14.5873 -3.5
    endloop
  endfacet
  facet normal 0.994522 -0.104531 0
    outer loop
      vertex -5.5 10.5 0
      vertex -5.37981 11.6435 -3.5
      vertex -5.37981 11.6435 0
    endloop
  endfacet
  facet normal 0.994522 -0.104531 0
    outer loop
      vertex -5.37981 11.6435 -3.5
      vertex -5.5 10.5 0
      vertex -5.5 10.5 -3.5
    endloop
  endfacet
  facet normal -0.406756 -0.913537 0
    outer loop
      vertex 1.69959 15.7308 -3.5
      vertex 2.75 15.2631 0
      vertex 1.69959 15.7308 0
    endloop
  endfacet
  facet normal -0.406756 -0.913537 -0
    outer loop
      vertex 2.75 15.2631 0
      vertex 1.69959 15.7308 -3.5
      vertex 2.75 15.2631 -3.5
    endloop
  endfacet
  facet normal 0.866009 -0.500028 0
    outer loop
      vertex -5.0245 12.7371 0
      vertex -4.44959 13.7328 -3.5
      vertex -4.44959 13.7328 0
    endloop
  endfacet
  facet normal 0.866009 -0.500028 0
    outer loop
      vertex -4.44959 13.7328 -3.5
      vertex -5.0245 12.7371 0
      vertex -5.0245 12.7371 -3.5
    endloop
  endfacet
  facet normal -0.207913 0.978147 0
    outer loop
      vertex 1.69959 5.26919 -3.5
      vertex 0.574906 5.03013 0
      vertex 1.69959 5.26919 0
    endloop
  endfacet
  facet normal -0.207913 0.978147 0
    outer loop
      vertex 0.574906 5.03013 0
      vertex 1.69959 5.26919 -3.5
      vertex 0.574906 5.03013 -3.5
    endloop
  endfacet
  facet normal -0.743156 -0.669118 0
    outer loop
      vertex 4.44959 13.7328 -3.5
      vertex 3.68022 14.5873 0
      vertex 3.68022 14.5873 -3.5
    endloop
  endfacet
  facet normal -0.743156 -0.669118 0
    outer loop
      vertex 3.68022 14.5873 0
      vertex 4.44959 13.7328 -3.5
      vertex 4.44959 13.7328 0
    endloop
  endfacet
  facet normal 0.951062 -0.309 0
    outer loop
      vertex -5.37981 11.6435 0
      vertex -5.0245 12.7371 -3.5
      vertex -5.0245 12.7371 0
    endloop
  endfacet
  facet normal 0.951062 -0.309 0
    outer loop
      vertex -5.0245 12.7371 -3.5
      vertex -5.37981 11.6435 0
      vertex -5.37981 11.6435 -3.5
    endloop
  endfacet
  facet normal 0 1 -0
    outer loop
      vertex 0.574906 5.03013 -3.5
      vertex -0.574906 5.03013 0
      vertex 0.574906 5.03013 0
    endloop
  endfacet
  facet normal 0 1 0
    outer loop
      vertex -0.574906 5.03013 0
      vertex 0.574906 5.03013 -3.5
      vertex -0.574906 5.03013 -3.5
    endloop
  endfacet
  facet normal 0.406756 -0.913537 0
    outer loop
      vertex -2.75 15.2631 -3.5
      vertex -1.69959 15.7308 0
      vertex -2.75 15.2631 0
    endloop
  endfacet
  facet normal 0.406756 -0.913537 0
    outer loop
      vertex -1.69959 15.7308 0
      vertex -2.75 15.2631 -3.5
      vertex -1.69959 15.7308 -3.5
    endloop
  endfacet
  facet normal 0 0 1
    outer loop
      vertex 5.37981 11.6435 -3.5
      vertex 5.37981 9.35649 -3.5
      vertex 5.5 10.5 -3.5
    endloop
  endfacet
  facet normal 0 0 1
    outer loop
      vertex 5.0245 12.7371 -3.5
      vertex 5.37981 9.35649 -3.5
      vertex 5.37981 11.6435 -3.5
    endloop
  endfacet
  facet normal 0 0 1
    outer loop
      vertex 5.0245 12.7371 -3.5
      vertex 5.0245 8.26295 -3.5
      vertex 5.37981 9.35649 -3.5
    endloop
  endfacet
  facet normal 0 0 1
    outer loop
      vertex 4.44959 13.7328 -3.5
      vertex 5.0245 8.26295 -3.5
      vertex 5.0245 12.7371 -3.5
    endloop
  endfacet
  facet normal 0 0 1
    outer loop
      vertex 4.44959 13.7328 -3.5
      vertex 4.44959 7.26718 -3.5
      vertex 5.0245 8.26295 -3.5
    endloop
  endfacet
  facet normal 0 0 1
    outer loop
      vertex 3.68022 14.5873 -3.5
      vertex 4.44959 7.26718 -3.5
      vertex 4.44959 13.7328 -3.5
    endloop
  endfacet
  facet normal 0 0 1
    outer loop
      vertex 3.68022 14.5873 -3.5
      vertex 3.68022 6.4127 -3.5
      vertex 4.44959 7.26718 -3.5
    endloop
  endfacet
  facet normal 0 0 1
    outer loop
      vertex 2.75 15.2631 -3.5
      vertex 3.68022 6.4127 -3.5
      vertex 3.68022 14.5873 -3.5
    endloop
  endfacet
  facet normal 0 0 1
    outer loop
      vertex 2.75 15.2631 -3.5
      vertex 2.75 5.73686 -3.5
      vertex 3.68022 6.4127 -3.5
    endloop
  endfacet
  facet normal 0 0 1
    outer loop
      vertex 1.69959 15.7308 -3.5
      vertex 2.75 5.73686 -3.5
      vertex 2.75 15.2631 -3.5
    endloop
  endfacet
  facet normal 0 0 1
    outer loop
      vertex 1.69959 15.7308 -3.5
      vertex 1.69959 5.26919 -3.5
      vertex 2.75 5.73686 -3.5
    endloop
  endfacet
  facet normal 0 0 1
    outer loop
      vertex 0.574906 15.9699 -3.5
      vertex 1.69959 5.26919 -3.5
      vertex 1.69959 15.7308 -3.5
    endloop
  endfacet
  facet normal 0 0 1
    outer loop
      vertex 0.574906 15.9699 -3.5
      vertex 0.574906 5.03013 -3.5
      vertex 1.69959 5.26919 -3.5
    endloop
  endfacet
  facet normal -0 0 1
    outer loop
      vertex -0.574906 15.9699 -3.5
      vertex 0.574906 5.03013 -3.5
      vertex 0.574906 15.9699 -3.5
    endloop
  endfacet
  facet normal 0 0 1
    outer loop
      vertex -0.574906 15.9699 -3.5
      vertex -0.574906 5.03013 -3.5
      vertex 0.574906 5.03013 -3.5
    endloop
  endfacet
  facet normal -0 0 1
    outer loop
      vertex -1.69959 15.7308 -3.5
      vertex -0.574906 5.03013 -3.5
      vertex -0.574906 15.9699 -3.5
    endloop
  endfacet
  facet normal 0 0 1
    outer loop
      vertex -1.69959 15.7308 -3.5
      vertex -1.69959 5.26919 -3.5
      vertex -0.574906 5.03013 -3.5
    endloop
  endfacet
  facet normal -0 0 1
    outer loop
      vertex -2.75 15.2631 -3.5
      vertex -1.69959 5.26919 -3.5
      vertex -1.69959 15.7308 -3.5
    endloop
  endfacet
  facet normal 0 0 1
    outer loop
      vertex -2.75 15.2631 -3.5
      vertex -2.75 5.73686 -3.5
      vertex -1.69959 5.26919 -3.5
    endloop
  endfacet
  facet normal -0 0 1
    outer loop
      vertex -3.68022 14.5873 -3.5
      vertex -2.75 5.73686 -3.5
      vertex -2.75 15.2631 -3.5
    endloop
  endfacet
  facet normal 0 0 1
    outer loop
      vertex -3.68022 14.5873 -3.5
      vertex -3.68022 6.4127 -3.5
      vertex -2.75 5.73686 -3.5
    endloop
  endfacet
  facet normal -0 0 1
    outer loop
      vertex -4.44959 13.7328 -3.5
      vertex -3.68022 6.4127 -3.5
      vertex -3.68022 14.5873 -3.5
    endloop
  endfacet
  facet normal 0 0 1
    outer loop
      vertex -4.44959 13.7328 -3.5
      vertex -4.44959 7.26718 -3.5
      vertex -3.68022 6.4127 -3.5
    endloop
  endfacet
  facet normal -0 0 1
    outer loop
      vertex -5.0245 12.7371 -3.5
      vertex -4.44959 7.26718 -3.5
      vertex -4.44959 13.7328 -3.5
    endloop
  endfacet
  facet normal 0 0 1
    outer loop
      vertex -5.0245 12.7371 -3.5
      vertex -5.0245 8.26295 -3.5
      vertex -4.44959 7.26718 -3.5
    endloop
  endfacet
  facet normal -0 0 1
    outer loop
      vertex -5.37981 11.6435 -3.5
      vertex -5.0245 8.26295 -3.5
      vertex -5.0245 12.7371 -3.5
    endloop
  endfacet
  facet normal 0 0 1
    outer loop
      vertex -5.37981 11.6435 -3.5
      vertex -5.37981 9.35649 -3.5
      vertex -5.0245 8.26295 -3.5
    endloop
  endfacet
  facet normal 0 -0 1
    outer loop
      vertex -5.37981 9.35649 -3.5
      vertex -5.37981 11.6435 -3.5
      vertex -5.5 10.5 -3.5
    endloop
  endfacet
  facet normal 0.207946 -0.97814 0
    outer loop
      vertex -1.69959 15.7308 -3.5
      vertex -0.574906 15.9699 0
      vertex -1.69959 15.7308 0
    endloop
  endfacet
  facet normal 0.207946 -0.97814 0
    outer loop
      vertex -0.574906 15.9699 0
      vertex -1.69959 15.7308 -3.5
      vertex -0.574906 15.9699 -3.5
    endloop
  endfacet
  facet normal -0.951057 0.309015 0
    outer loop
      vertex 5.0245 8.26295 -3.5
      vertex 5.37981 9.35649 0
      vertex 5.37981 9.35649 -3.5
    endloop
  endfacet
  facet normal -0.951057 0.309015 0
    outer loop
      vertex 5.37981 9.35649 0
      vertex 5.0245 8.26295 -3.5
      vertex 5.0245 8.26295 0
    endloop
  endfacet
  facet normal 0.587783 0.809019 -0
    outer loop
      vertex -2.75 5.73686 -3.5
      vertex -3.68022 6.4127 0
      vertex -2.75 5.73686 0
    endloop
  endfacet
  facet normal 0.587783 0.809019 0
    outer loop
      vertex -3.68022 6.4127 0
      vertex -2.75 5.73686 -3.5
      vertex -3.68022 6.4127 -3.5
    endloop
  endfacet
  facet normal 0.743148 0.669127 0
    outer loop
      vertex -3.68022 6.4127 0
      vertex -4.44959 7.26718 -3.5
      vertex -4.44959 7.26718 0
    endloop
  endfacet
  facet normal 0.743148 0.669127 0
    outer loop
      vertex -4.44959 7.26718 -3.5
      vertex -3.68022 6.4127 0
      vertex -3.68022 6.4127 -3.5
    endloop
  endfacet
  facet normal 0.994522 0.10453 0
    outer loop
      vertex -5.37981 9.35649 0
      vertex -5.5 10.5 -3.5
      vertex -5.5 10.5 0
    endloop
  endfacet
  facet normal 0.994522 0.10453 0
    outer loop
      vertex -5.5 10.5 -3.5
      vertex -5.37981 9.35649 0
      vertex -5.37981 9.35649 -3.5
    endloop
  endfacet
  facet normal 0 0 1
    outer loop
      vertex 142.174 42.9848 0
      vertex 143 42 0
      vertex 142.94 42.342 0
    endloop
  endfacet
  facet normal 0 0 1
    outer loop
      vertex 143 42 0
      vertex 140 40 0
      vertex 143 -42 0
    endloop
  endfacet
  facet normal 0 0 1
    outer loop
      vertex 142.174 42.9848 0
      vertex 142.94 42.342 0
      vertex 142.766 42.6428 0
    endloop
  endfacet
  facet normal -0 0 1
    outer loop
      vertex 140 -40 0
      vertex 143 -42 0
      vertex 140 40 0
    endloop
  endfacet
  facet normal 0 0 1
    outer loop
      vertex 142.174 42.9848 0
      vertex 142.766 42.6428 0
      vertex 142.5 42.866 0
    endloop
  endfacet
  facet normal 0 -0 1
    outer loop
      vertex 142.174 -42.9848 0
      vertex 143 -42 0
      vertex 140 -40 0
    endloop
  endfacet
  facet normal 0 0 1
    outer loop
      vertex 143 42 0
      vertex 142.174 42.9848 0
      vertex 140 40 0
    endloop
  endfacet
  facet normal 0 0 1
    outer loop
      vertex 143 -42 0
      vertex 142.174 -42.9848 0
      vertex 142.94 -42.342 0
    endloop
  endfacet
  facet normal 0 0 1
    outer loop
      vertex 142.94 -42.342 0
      vertex 142.174 -42.9848 0
      vertex 142.766 -42.6428 0
    endloop
  endfacet
  facet normal 0 0 1
    outer loop
      vertex 142.174 42.9848 0
      vertex 60 40 0
      vertex 140 40 0
    endloop
  endfacet
  facet normal -0 0 1
    outer loop
      vertex 57 42 0
      vertex 60 40 0
      vertex 57.8264 42.9848 0
    endloop
  endfacet
  facet normal -0 0 1
    outer loop
      vertex 57.8264 42.9848 0
      vertex 60 40 0
      vertex 142.174 42.9848 0
    endloop
  endfacet
  facet normal 0 0 1
    outer loop
      vertex 142.766 -42.6428 0
      vertex 142.174 -42.9848 0
      vertex 142.5 -42.866 0
    endloop
  endfacet
  facet normal -0 0 1
    outer loop
      vertex 60 -40 0
      vertex 142.174 -42.9848 0
      vertex 140 -40 0
    endloop
  endfacet
  facet normal 0 0 1
    outer loop
      vertex 60 -40 0
      vertex 57.8264 -42.9848 0
      vertex 142.174 -42.9848 0
    endloop
  endfacet
  facet normal 0 0 1
    outer loop
      vertex 60 40 0
      vertex 57 42 0
      vertex 60 -40 0
    endloop
  endfacet
  facet normal 0 0 1
    outer loop
      vertex 57 42 0
      vertex 57.8264 42.9848 0
      vertex 57.5 42.866 0
    endloop
  endfacet
  facet normal 0 0 1
    outer loop
      vertex 57 -42 0
      vertex 60 -40 0
      vertex 57 42 0
    endloop
  endfacet
  facet normal 0 0 1
    outer loop
      vertex 57 42 0
      vertex 57.5 42.866 0
      vertex 57.234 42.6428 0
    endloop
  endfacet
  facet normal 0 0 1
    outer loop
      vertex 60 -40 0
      vertex 57 -42 0
      vertex 57.8264 -42.9848 0
    endloop
  endfacet
  facet normal 0 0 1
    outer loop
      vertex 57 42 0
      vertex 57.234 42.6428 0
      vertex 57.0603 42.342 0
    endloop
  endfacet
  facet normal 0 0 1
    outer loop
      vertex 57.8264 -42.9848 0
      vertex 57 -42 0
      vertex 57.5 -42.866 0
    endloop
  endfacet
  facet normal 0 0 1
    outer loop
      vertex 57.5 -42.866 0
      vertex 57 -42 0
      vertex 57.234 -42.6428 0
    endloop
  endfacet
  facet normal 0 0 1
    outer loop
      vertex 57.234 -42.6428 0
      vertex 57 -42 0
      vertex 57.0603 -42.342 0
    endloop
  endfacet
  facet normal 0 0.674304 -0.738454
    outer loop
      vertex 135.017 -37.4487 -10.9848
      vertex 66.3527 -35.2696 -8.995
      vertex 133.647 -35.2696 -8.995
    endloop
  endfacet
  facet normal 0 0.674304 -0.738454
    outer loop
      vertex 66.3527 -35.2696 -8.995
      vertex 135.017 -37.4487 -10.9848
      vertex 64.9826 -37.4487 -10.9848
    endloop
  endfacet
  facet normal 0.212136 0.582867 -0.784388
    outer loop
      vertex 64.0061 -37.0933 -10.9848
      vertex 66.3527 -35.2696 -8.995
      vertex 64.9826 -37.4487 -10.9848
    endloop
  endfacet
  facet normal 0.524145 -0.302607 -0.796053
    outer loop
      vertex 62.6865 35.522 -10.9848
      vertex 63.2061 36.422 -10.9848
      vertex 64.8206 33.984 -8.995
    endloop
  endfacet
  facet normal -0.384234 -0.457928 -0.801665
    outer loop
      vertex 134.832 34.5856 -8.995
      vertex 135.997 37.0915 -10.9848
      vertex 136.793 36.4236 -10.9848
    endloop
  endfacet
  facet normal -0.180663 0.602211 -0.777626
    outer loop
      vertex 135.994 -37.0933 -10.9848
      vertex 134.3 -35.0321 -8.995
      vertex 135.996 -37.0927 -10.9848
    endloop
  endfacet
  facet normal -0.21202 0.582943 -0.784363
    outer loop
      vertex 134.3 -35.0321 -8.995
      vertex 135.994 -37.0933 -10.9848
      vertex 133.647 -35.2696 -8.995
    endloop
  endfacet
  facet normal 0.528397 0.297223 -0.795271
    outer loop
      vertex 63.2061 -36.422 -10.9848
      vertex 65.1679 -34.5856 -8.995
      vertex 63.207 -36.4236 -10.9848
    endloop
  endfacet
  facet normal 0.524159 0.302594 -0.796049
    outer loop
      vertex 65.1679 -34.5856 -8.995
      vertex 63.2061 -36.422 -10.9848
      vertex 64.8206 -33.984 -8.995
    endloop
  endfacet
  facet normal -0.524279 -0.302402 -0.796043
    outer loop
      vertex 134.832 34.5856 -8.995
      vertex 136.794 36.422 -10.9848
      vertex 135.179 33.984 -8.995
    endloop
  endfacet
  facet normal -0.510769 -0.31923 -0.798253
    outer loop
      vertex 136.794 36.422 -10.9848
      vertex 134.832 34.5856 -8.995
      vertex 136.793 36.4236 -10.9848
    endloop
  endfacet
  facet normal 0.671745 0 -0.740783
    outer loop
      vertex 62.5057 -34.4969 -10.9848
      vertex 64.7 33.3 -8.995
      vertex 64.7 -33.3 -8.995
    endloop
  endfacet
  facet normal 0.671745 0 -0.740783
    outer loop
      vertex 64.7 33.3 -8.995
      vertex 62.5057 -34.4969 -10.9848
      vertex 62.5057 34.4969 -10.9848
    endloop
  endfacet
  facet normal -0.671795 0 -0.740737
    outer loop
      vertex 135.3 -33.3 -8.995
      vertex 137.494 34.4969 -10.9848
      vertex 137.494 -34.4969 -10.9848
    endloop
  endfacet
  facet normal -0.671795 0 -0.740737
    outer loop
      vertex 137.494 34.4969 -10.9848
      vertex 135.3 -33.3 -8.995
      vertex 135.3 33.3 -8.995
    endloop
  endfacet
  facet normal 0 -0.674304 -0.738454
    outer loop
      vertex 66.3527 35.2696 -8.995
      vertex 135.017 37.4487 -10.9848
      vertex 133.647 35.2696 -8.995
    endloop
  endfacet
  facet normal -0 -0.674304 -0.738454
    outer loop
      vertex 135.017 37.4487 -10.9848
      vertex 66.3527 35.2696 -8.995
      vertex 64.9826 37.4487 -10.9848
    endloop
  endfacet
  facet normal 0.389071 0.453916 -0.801613
    outer loop
      vertex 64.003 -37.0915 -10.9848
      vertex 65.7 -35.0321 -8.995
      vertex 64.0044 -37.0927 -10.9848
    endloop
  endfacet
  facet normal 0.384257 0.457924 -0.801656
    outer loop
      vertex 65.7 -35.0321 -8.995
      vertex 64.003 -37.0915 -10.9848
      vertex 65.1679 -34.5856 -8.995
    endloop
  endfacet
  facet normal -0.212047 -0.58292 -0.784373
    outer loop
      vertex 133.647 35.2696 -8.995
      vertex 135.017 37.4487 -10.9848
      vertex 135.994 37.0933 -10.9848
    endloop
  endfacet
  facet normal -0.523934 -0.302718 -0.79615
    outer loop
      vertex 135.179 33.984 -8.995
      vertex 136.794 36.422 -10.9848
      vertex 137.314 35.522 -10.9848
    endloop
  endfacet
  facet normal 0.212101 -0.582898 -0.784374
    outer loop
      vertex 65.7 35.0321 -8.995
      vertex 64.0061 37.0933 -10.9848
      vertex 66.3527 35.2696 -8.995
    endloop
  endfacet
  facet normal 0.206885 -0.586173 -0.783326
    outer loop
      vertex 64.0061 37.0933 -10.9848
      vertex 65.7 35.0321 -8.995
      vertex 64.0044 37.0927 -10.9848
    endloop
  endfacet
  facet normal -0.633336 -0.112038 -0.765724
    outer loop
      vertex 135.179 33.984 -8.995
      vertex 137.494 34.4969 -10.9848
      vertex 135.3 33.3 -8.995
    endloop
  endfacet
  facet normal -0.633498 -0.111238 -0.765706
    outer loop
      vertex 137.494 34.4969 -10.9848
      vertex 135.179 33.984 -8.995
      vertex 137.314 35.522 -10.9848
    endloop
  endfacet
  facet normal -0.212047 0.58292 -0.784373
    outer loop
      vertex 133.647 -35.2696 -8.995
      vertex 135.994 -37.0933 -10.9848
      vertex 135.017 -37.4487 -10.9848
    endloop
  endfacet
  facet normal 0.212101 0.582898 -0.784374
    outer loop
      vertex 64.0061 -37.0933 -10.9848
      vertex 65.7 -35.0321 -8.995
      vertex 66.3527 -35.2696 -8.995
    endloop
  endfacet
  facet normal 0.206885 0.586173 -0.783326
    outer loop
      vertex 65.7 -35.0321 -8.995
      vertex 64.0061 -37.0933 -10.9848
      vertex 64.0044 -37.0927 -10.9848
    endloop
  endfacet
  facet normal 0.633417 0.111718 -0.765704
    outer loop
      vertex 62.5057 -34.4969 -10.9848
      vertex 64.8206 -33.984 -8.995
      vertex 62.6865 -35.522 -10.9848
    endloop
  endfacet
  facet normal 0.633424 0.111683 -0.765703
    outer loop
      vertex 64.8206 -33.984 -8.995
      vertex 62.5057 -34.4969 -10.9848
      vertex 64.7 -33.3 -8.995
    endloop
  endfacet
  facet normal 0.384239 0.457935 -0.801658
    outer loop
      vertex 63.207 -36.4236 -10.9848
      vertex 65.1679 -34.5856 -8.995
      vertex 64.003 -37.0915 -10.9848
    endloop
  endfacet
  facet normal 0.384239 -0.457935 -0.801658
    outer loop
      vertex 63.207 36.4236 -10.9848
      vertex 64.003 37.0915 -10.9848
      vertex 65.1679 34.5856 -8.995
    endloop
  endfacet
  facet normal 0.212136 -0.582867 -0.784388
    outer loop
      vertex 64.0061 37.0933 -10.9848
      vertex 64.9826 37.4487 -10.9848
      vertex 66.3527 35.2696 -8.995
    endloop
  endfacet
  facet normal -0.180663 -0.602211 -0.777626
    outer loop
      vertex 134.3 35.0321 -8.995
      vertex 135.994 37.0933 -10.9848
      vertex 135.996 37.0927 -10.9848
    endloop
  endfacet
  facet normal -0.21202 -0.582943 -0.784363
    outer loop
      vertex 135.994 37.0933 -10.9848
      vertex 134.3 35.0321 -8.995
      vertex 133.647 35.2696 -8.995
    endloop
  endfacet
  facet normal -0.3843 -0.457889 -0.801655
    outer loop
      vertex 134.3 35.0321 -8.995
      vertex 135.997 37.0915 -10.9848
      vertex 134.832 34.5856 -8.995
    endloop
  endfacet
  facet normal -0.464398 -0.386998 -0.796597
    outer loop
      vertex 135.997 37.0915 -10.9848
      vertex 134.3 35.0321 -8.995
      vertex 135.996 37.0927 -10.9848
    endloop
  endfacet
  facet normal -0.633498 0.111238 -0.765706
    outer loop
      vertex 135.179 -33.984 -8.995
      vertex 137.494 -34.4969 -10.9848
      vertex 137.314 -35.522 -10.9848
    endloop
  endfacet
  facet normal -0.633336 0.112038 -0.765724
    outer loop
      vertex 137.494 -34.4969 -10.9848
      vertex 135.179 -33.984 -8.995
      vertex 135.3 -33.3 -8.995
    endloop
  endfacet
  facet normal -0.523934 0.302718 -0.79615
    outer loop
      vertex 135.179 -33.984 -8.995
      vertex 137.314 -35.522 -10.9848
      vertex 136.794 -36.422 -10.9848
    endloop
  endfacet
  facet normal 0.384257 -0.457924 -0.801656
    outer loop
      vertex 64.003 37.0915 -10.9848
      vertex 65.7 35.0321 -8.995
      vertex 65.1679 34.5856 -8.995
    endloop
  endfacet
  facet normal 0.389071 -0.453916 -0.801613
    outer loop
      vertex 65.7 35.0321 -8.995
      vertex 64.003 37.0915 -10.9848
      vertex 64.0044 37.0927 -10.9848
    endloop
  endfacet
  facet normal 0.633424 -0.111683 -0.765703
    outer loop
      vertex 62.5057 34.4969 -10.9848
      vertex 64.8206 33.984 -8.995
      vertex 64.7 33.3 -8.995
    endloop
  endfacet
  facet normal 0.633417 -0.111718 -0.765704
    outer loop
      vertex 64.8206 33.984 -8.995
      vertex 62.5057 34.4969 -10.9848
      vertex 62.6865 35.522 -10.9848
    endloop
  endfacet
  facet normal 0.524159 -0.302594 -0.796049
    outer loop
      vertex 63.2061 36.422 -10.9848
      vertex 65.1679 34.5856 -8.995
      vertex 64.8206 33.984 -8.995
    endloop
  endfacet
  facet normal 0.528397 -0.297223 -0.795271
    outer loop
      vertex 65.1679 34.5856 -8.995
      vertex 63.2061 36.422 -10.9848
      vertex 63.207 36.4236 -10.9848
    endloop
  endfacet
  facet normal -0.464398 0.386998 -0.796597
    outer loop
      vertex 134.3 -35.0321 -8.995
      vertex 135.997 -37.0915 -10.9848
      vertex 135.996 -37.0927 -10.9848
    endloop
  endfacet
  facet normal -0.3843 0.457889 -0.801655
    outer loop
      vertex 135.997 -37.0915 -10.9848
      vertex 134.3 -35.0321 -8.995
      vertex 134.832 -34.5856 -8.995
    endloop
  endfacet
  facet normal -0.510769 0.31923 -0.798253
    outer loop
      vertex 134.832 -34.5856 -8.995
      vertex 136.794 -36.422 -10.9848
      vertex 136.793 -36.4236 -10.9848
    endloop
  endfacet
  facet normal -0.524279 0.302402 -0.796043
    outer loop
      vertex 136.794 -36.422 -10.9848
      vertex 134.832 -34.5856 -8.995
      vertex 135.179 -33.984 -8.995
    endloop
  endfacet
  facet normal -0.384234 0.457928 -0.801665
    outer loop
      vertex 134.832 -34.5856 -8.995
      vertex 136.793 -36.4236 -10.9848
      vertex 135.997 -37.0915 -10.9848
    endloop
  endfacet
  facet normal 0.524145 0.302607 -0.796053
    outer loop
      vertex 62.6865 -35.522 -10.9848
      vertex 64.8206 -33.984 -8.995
      vertex 63.2061 -36.422 -10.9848
    endloop
  endfacet
  facet normal 0.34194 0.939722 -0
    outer loop
      vertex 66.3527 -35.2696 -8.995
      vertex 65.7 -35.0321 -6
      vertex 66.3527 -35.2696 -6
    endloop
  endfacet
  facet normal 0.34194 0.939722 0
    outer loop
      vertex 65.7 -35.0321 -6
      vertex 66.3527 -35.2696 -8.995
      vertex 65.7 -35.0321 -8.995
    endloop
  endfacet
  facet normal -0.341801 0.939772 0
    outer loop
      vertex 134.3 -35.0321 -8.995
      vertex 133.647 -35.2696 -6
      vertex 134.3 -35.0321 -6
    endloop
  endfacet
  facet normal -0.341801 0.939772 0
    outer loop
      vertex 133.647 -35.2696 -6
      vertex 134.3 -35.0321 -8.995
      vertex 133.647 -35.2696 -8.995
    endloop
  endfacet
  facet normal -0.866234 0.499639 0
    outer loop
      vertex 134.832 -34.5856 -8.995
      vertex 135.179 -33.984 -6
      vertex 135.179 -33.984 -8.995
    endloop
  endfacet
  facet normal -0.866234 0.499639 0
    outer loop
      vertex 135.179 -33.984 -6
      vertex 134.832 -34.5856 -8.995
      vertex 134.832 -34.5856 -6
    endloop
  endfacet
  facet normal 0 -1 0
    outer loop
      vertex 66.3527 35.2696 -8.995
      vertex 133.647 35.2696 -6
      vertex 66.3527 35.2696 -6
    endloop
  endfacet
  facet normal 0 -1 -0
    outer loop
      vertex 133.647 35.2696 -6
      vertex 66.3527 35.2696 -8.995
      vertex 133.647 35.2696 -8.995
    endloop
  endfacet
  facet normal 0 1 -0
    outer loop
      vertex 133.647 -35.2696 -8.995
      vertex 66.3527 -35.2696 -6
      vertex 133.647 -35.2696 -6
    endloop
  endfacet
  facet normal 0 1 0
    outer loop
      vertex 66.3527 -35.2696 -6
      vertex 133.647 -35.2696 -8.995
      vertex 66.3527 -35.2696 -8.995
    endloop
  endfacet
  facet normal 0.98481 0.173637 0
    outer loop
      vertex 64.8206 -33.984 -6
      vertex 64.7 -33.3 -8.995
      vertex 64.7 -33.3 -6
    endloop
  endfacet
  facet normal 0.98481 0.173637 0
    outer loop
      vertex 64.7 -33.3 -8.995
      vertex 64.8206 -33.984 -6
      vertex 64.8206 -33.984 -8.995
    endloop
  endfacet
  facet normal 0.34194 -0.939722 0
    outer loop
      vertex 65.7 35.0321 -8.995
      vertex 66.3527 35.2696 -6
      vertex 65.7 35.0321 -6
    endloop
  endfacet
  facet normal 0.34194 -0.939722 0
    outer loop
      vertex 66.3527 35.2696 -6
      vertex 65.7 35.0321 -8.995
      vertex 66.3527 35.2696 -8.995
    endloop
  endfacet
  facet normal 0.6428 -0.766034 0
    outer loop
      vertex 65.1679 34.5856 -8.995
      vertex 65.7 35.0321 -6
      vertex 65.1679 34.5856 -6
    endloop
  endfacet
  facet normal 0.6428 -0.766034 0
    outer loop
      vertex 65.7 35.0321 -6
      vertex 65.1679 34.5856 -8.995
      vertex 65.7 35.0321 -8.995
    endloop
  endfacet
  facet normal -0.642871 0.765974 0
    outer loop
      vertex 134.832 -34.5856 -8.995
      vertex 134.3 -35.0321 -6
      vertex 134.832 -34.5856 -6
    endloop
  endfacet
  facet normal -0.642871 0.765974 0
    outer loop
      vertex 134.3 -35.0321 -6
      vertex 134.832 -34.5856 -8.995
      vertex 134.3 -35.0321 -8.995
    endloop
  endfacet
  facet normal -0.984711 -0.174196 0
    outer loop
      vertex 135.3 33.3 -8.995
      vertex 135.179 33.984 -6
      vertex 135.179 33.984 -8.995
    endloop
  endfacet
  facet normal -0.984711 -0.174196 0
    outer loop
      vertex 135.179 33.984 -6
      vertex 135.3 33.3 -8.995
      vertex 135.3 33.3 -6
    endloop
  endfacet
  facet normal -0.341801 -0.939772 0
    outer loop
      vertex 133.647 35.2696 -8.995
      vertex 134.3 35.0321 -6
      vertex 133.647 35.2696 -6
    endloop
  endfacet
  facet normal -0.341801 -0.939772 -0
    outer loop
      vertex 134.3 35.0321 -6
      vertex 133.647 35.2696 -8.995
      vertex 134.3 35.0321 -8.995
    endloop
  endfacet
  facet normal 0.6428 0.766034 -0
    outer loop
      vertex 65.7 -35.0321 -8.995
      vertex 65.1679 -34.5856 -6
      vertex 65.7 -35.0321 -6
    endloop
  endfacet
  facet normal 0.6428 0.766034 0
    outer loop
      vertex 65.1679 -34.5856 -6
      vertex 65.7 -35.0321 -8.995
      vertex 65.1679 -34.5856 -8.995
    endloop
  endfacet
  facet normal 0.866047 0.499963 0
    outer loop
      vertex 65.1679 -34.5856 -6
      vertex 64.8206 -33.984 -8.995
      vertex 64.8206 -33.984 -6
    endloop
  endfacet
  facet normal 0.866047 0.499963 0
    outer loop
      vertex 64.8206 -33.984 -8.995
      vertex 65.1679 -34.5856 -6
      vertex 65.1679 -34.5856 -8.995
    endloop
  endfacet
  facet normal -0.866234 -0.499639 0
    outer loop
      vertex 135.179 33.984 -8.995
      vertex 134.832 34.5856 -6
      vertex 134.832 34.5856 -8.995
    endloop
  endfacet
  facet normal -0.866234 -0.499639 0
    outer loop
      vertex 134.832 34.5856 -6
      vertex 135.179 33.984 -8.995
      vertex 135.179 33.984 -6
    endloop
  endfacet
  facet normal 0.98481 -0.173637 0
    outer loop
      vertex 64.7 33.3 -6
      vertex 64.8206 33.984 -8.995
      vertex 64.8206 33.984 -6
    endloop
  endfacet
  facet normal 0.98481 -0.173637 0
    outer loop
      vertex 64.8206 33.984 -8.995
      vertex 64.7 33.3 -6
      vertex 64.7 33.3 -8.995
    endloop
  endfacet
  facet normal 0.866047 -0.499963 0
    outer loop
      vertex 64.8206 33.984 -6
      vertex 65.1679 34.5856 -8.995
      vertex 65.1679 34.5856 -6
    endloop
  endfacet
  facet normal 0.866047 -0.499963 0
    outer loop
      vertex 65.1679 34.5856 -8.995
      vertex 64.8206 33.984 -6
      vertex 64.8206 33.984 -8.995
    endloop
  endfacet
  facet normal -1 0 0
    outer loop
      vertex 135.3 -33.3 -8.995
      vertex 135.3 33.3 -6
      vertex 135.3 33.3 -8.995
    endloop
  endfacet
  facet normal -1 -0 0
    outer loop
      vertex 135.3 33.3 -6
      vertex 135.3 -33.3 -8.995
      vertex 135.3 -33.3 -6
    endloop
  endfacet
  facet normal 1 -0 0
    outer loop
      vertex 64.7 -33.3 -6
      vertex 64.7 33.3 -8.995
      vertex 64.7 33.3 -6
    endloop
  endfacet
  facet normal 1 0 0
    outer loop
      vertex 64.7 33.3 -8.995
      vertex 64.7 -33.3 -6
      vertex 64.7 -33.3 -8.995
    endloop
  endfacet
  facet normal -0.984711 0.174196 0
    outer loop
      vertex 135.179 -33.984 -8.995
      vertex 135.3 -33.3 -6
      vertex 135.3 -33.3 -8.995
    endloop
  endfacet
  facet normal -0.984711 0.174196 0
    outer loop
      vertex 135.3 -33.3 -6
      vertex 135.179 -33.984 -8.995
      vertex 135.179 -33.984 -6
    endloop
  endfacet
  facet normal -0.642871 -0.765974 0
    outer loop
      vertex 134.3 35.0321 -8.995
      vertex 134.832 34.5856 -6
      vertex 134.3 35.0321 -6
    endloop
  endfacet
  facet normal -0.642871 -0.765974 -0
    outer loop
      vertex 134.832 34.5856 -6
      vertex 134.3 35.0321 -8.995
      vertex 134.832 34.5856 -8.995
    endloop
  endfacet
  facet normal -1 0 0
    outer loop
      vertex 140 -40 -6
      vertex 140 40 0
      vertex 140 40 -6
    endloop
  endfacet
  facet normal -1 -0 0
    outer loop
      vertex 140 40 0
      vertex 140 -40 -6
      vertex 140 -40 0
    endloop
  endfacet
  facet normal 0 0 1
    outer loop
      vertex 140 40 -6
      vertex 135.3 33.3 -6
      vertex 140 -40 -6
    endloop
  endfacet
  facet normal 0 0 1
    outer loop
      vertex 140 40 -6
      vertex 135.179 33.984 -6
      vertex 135.3 33.3 -6
    endloop
  endfacet
  facet normal 0 0 1
    outer loop
      vertex 140 40 -6
      vertex 134.832 34.5856 -6
      vertex 135.179 33.984 -6
    endloop
  endfacet
  facet normal 0 0 1
    outer loop
      vertex 140 40 -6
      vertex 134.3 35.0321 -6
      vertex 134.832 34.5856 -6
    endloop
  endfacet
  facet normal 0 0 1
    outer loop
      vertex 140 40 -6
      vertex 133.647 35.2696 -6
      vertex 134.3 35.0321 -6
    endloop
  endfacet
  facet normal 0 0 1
    outer loop
      vertex 140 40 -6
      vertex 66.3527 35.2696 -6
      vertex 133.647 35.2696 -6
    endloop
  endfacet
  facet normal 0 0 1
    outer loop
      vertex 64.7 33.3 -6
      vertex 60 40 -6
      vertex 64.7 -33.3 -6
    endloop
  endfacet
  facet normal 0 0 1
    outer loop
      vertex 64.8206 33.984 -6
      vertex 60 40 -6
      vertex 64.7 33.3 -6
    endloop
  endfacet
  facet normal 0 0 1
    outer loop
      vertex 65.1679 34.5856 -6
      vertex 60 40 -6
      vertex 64.8206 33.984 -6
    endloop
  endfacet
  facet normal 0 0 1
    outer loop
      vertex 65.7 35.0321 -6
      vertex 60 40 -6
      vertex 65.1679 34.5856 -6
    endloop
  endfacet
  facet normal 0 0 1
    outer loop
      vertex 66.3527 35.2696 -6
      vertex 60 40 -6
      vertex 65.7 35.0321 -6
    endloop
  endfacet
  facet normal -0 0 1
    outer loop
      vertex 60 40 -6
      vertex 66.3527 35.2696 -6
      vertex 140 40 -6
    endloop
  endfacet
  facet normal -0 0 1
    outer loop
      vertex 135.3 -33.3 -6
      vertex 140 -40 -6
      vertex 135.3 33.3 -6
    endloop
  endfacet
  facet normal -0 0 1
    outer loop
      vertex 135.179 -33.984 -6
      vertex 140 -40 -6
      vertex 135.3 -33.3 -6
    endloop
  endfacet
  facet normal -0 0 1
    outer loop
      vertex 134.832 -34.5856 -6
      vertex 140 -40 -6
      vertex 135.179 -33.984 -6
    endloop
  endfacet
  facet normal -0 0 1
    outer loop
      vertex 134.3 -35.0321 -6
      vertex 140 -40 -6
      vertex 134.832 -34.5856 -6
    endloop
  endfacet
  facet normal -0 0 1
    outer loop
      vertex 133.647 -35.2696 -6
      vertex 140 -40 -6
      vertex 134.3 -35.0321 -6
    endloop
  endfacet
  facet normal -0 0 1
    outer loop
      vertex 66.3527 -35.2696 -6
      vertex 140 -40 -6
      vertex 133.647 -35.2696 -6
    endloop
  endfacet
  facet normal 0 0 1
    outer loop
      vertex 66.3527 -35.2696 -6
      vertex 60 -40 -6
      vertex 140 -40 -6
    endloop
  endfacet
  facet normal 0 0 1
    outer loop
      vertex 65.7 -35.0321 -6
      vertex 60 -40 -6
      vertex 66.3527 -35.2696 -6
    endloop
  endfacet
  facet normal 0 0 1
    outer loop
      vertex 65.1679 -34.5856 -6
      vertex 60 -40 -6
      vertex 65.7 -35.0321 -6
    endloop
  endfacet
  facet normal 0 0 1
    outer loop
      vertex 64.8206 -33.984 -6
      vertex 60 -40 -6
      vertex 65.1679 -34.5856 -6
    endloop
  endfacet
  facet normal 0 0 1
    outer loop
      vertex 64.7 -33.3 -6
      vertex 60 -40 -6
      vertex 64.8206 -33.984 -6
    endloop
  endfacet
  facet normal 0 0 1
    outer loop
      vertex 60 -40 -6
      vertex 64.7 -33.3 -6
      vertex 60 40 -6
    endloop
  endfacet
  facet normal 1 -0 0
    outer loop
      vertex 60 -40 0
      vertex 60 40 -6
      vertex 60 40 0
    endloop
  endfacet
  facet normal 1 0 0
    outer loop
      vertex 60 40 -6
      vertex 60 -40 0
      vertex 60 -40 -6
    endloop
  endfacet
  facet normal 0 -1 0
    outer loop
      vertex 60 40 -6
      vertex 140 40 0
      vertex 60 40 0
    endloop
  endfacet
  facet normal 0 -1 -0
    outer loop
      vertex 140 40 0
      vertex 60 40 -6
      vertex 140 40 -6
    endloop
  endfacet
  facet normal 0 1 -0
    outer loop
      vertex 140 -40 -6
      vertex 60 -40 0
      vertex 140 -40 0
    endloop
  endfacet
  facet normal 0 1 0
    outer loop
      vertex 60 -40 0
      vertex 140 -40 -6
      vertex 60 -40 -6
    endloop
  endfacet
  facet normal -0.33698 -0.925843 -0.171052
    outer loop
      vertex 57.5 -42.866 -10
      vertex 57.8368 -42.9254 -10.342
      vertex 57.8264 -42.9848 -10
    endloop
  endfacet
  facet normal -0.341482 -0.0603084 -0.937952
    outer loop
      vertex 57.5 -42 -10.866
      vertex 57.8368 -42.0594 -10.9848
      vertex 57.5302 -42.171 -10.866
    endloop
  endfacet
  facet normal -0.221816 -0.609383 -0.761216
    outer loop
      vertex 57.617 -42.6634 -10.6428
      vertex 57.75 -42.433 -10.866
      vertex 57.867 -42.7544 -10.6428
    endloop
  endfacet
  facet normal -0.297347 -0.816887 -0.494247
    outer loop
      vertex 57.5302 -42.8138 -10.342
      vertex 57.617 -42.6634 -10.6428
      vertex 57.867 -42.7544 -10.6428
    endloop
  endfacet
  facet normal 1 -0 0
    outer loop
      vertex 143 -42 0
      vertex 143 42 -10
      vertex 143 42 0
    endloop
  endfacet
  facet normal 1 0 0
    outer loop
      vertex 143 42 -10
      vertex 143 -42 0
      vertex 143 -42 -10
    endloop
  endfacet
  facet normal 0.117913 0.326264 -0.937896
    outer loop
      vertex 142.03 42.171 -10.9848
      vertex 142.25 42.433 -10.866
      vertex 142.087 42.1504 -10.9848
    endloop
  endfacet
  facet normal -0.416841 -0.496796 -0.761208
    outer loop
      vertex 57.4132 -42.4924 -10.6428
      vertex 57.75 -42.433 -10.866
      vertex 57.617 -42.6634 -10.6428
    endloop
  endfacet
  facet normal 0 -1 0
    outer loop
      vertex 57.8264 -42.9848 -10
      vertex 142.174 -42.9848 0
      vertex 57.8264 -42.9848 0
    endloop
  endfacet
  facet normal 0 -1 -0
    outer loop
      vertex 142.174 -42.9848 0
      vertex 57.8264 -42.9848 -10
      vertex 142.174 -42.9848 -10
    endloop
  endfacet
  facet normal -0.297342 0.816892 -0.494243
    outer loop
      vertex 57.5302 42.8138 -10.342
      vertex 57.8368 42.9254 -10.342
      vertex 57.867 42.7544 -10.6428
    endloop
  endfacet
  facet normal -0.642787 0 -0.766045
    outer loop
      vertex 57.234 -42 -10.6428
      vertex 57.5 42 -10.866
      vertex 57.5 -42 -10.866
    endloop
  endfacet
  facet normal -0.642787 0 -0.766045
    outer loop
      vertex 57.5 42 -10.866
      vertex 57.234 -42 -10.6428
      vertex 57.234 42 -10.6428
    endloop
  endfacet
  facet normal 0.11868 0.32567 -0.938005
    outer loop
      vertex 142.03 42.171 -10.9848
      vertex 142.087 42.4924 -10.866
      vertex 142.25 42.433 -10.866
    endloop
  endfacet
  facet normal 0.633391 0.754756 -0.17076
    outer loop
      vertex 142.47 42.8138 -10.342
      vertex 142.5 42.866 -10
      vertex 142.72 42.604 -10.342
    endloop
  endfacet
  facet normal 0.41658 0.496973 -0.761235
    outer loop
      vertex 142.25 42.433 -10.866
      vertex 142.383 42.6634 -10.6428
      vertex 142.587 42.4924 -10.6428
    endloop
  endfacet
  facet normal -0.221797 -0.609381 -0.761223
    outer loop
      vertex 57.75 -42.433 -10.866
      vertex 57.9132 -42.4924 -10.866
      vertex 57.867 -42.7544 -10.6428
    endloop
  endfacet
  facet normal -0.98481 -0.173637 0
    outer loop
      vertex 57.0603 -42.342 -10
      vertex 57 -42 0
      vertex 57 -42 -10
    endloop
  endfacet
  facet normal -0.98481 -0.173637 0
    outer loop
      vertex 57 -42 0
      vertex 57.0603 -42.342 -10
      vertex 57.0603 -42.342 0
    endloop
  endfacet
  facet normal -0.853206 -0.492692 -0.171154
    outer loop
      vertex 57.0603 -42.342 -10
      vertex 57.2802 -42.604 -10.342
      vertex 57.234 -42.6428 -10
    endloop
  endfacet
  facet normal -0.118588 -0.325819 -0.937965
    outer loop
      vertex 57.75 -42.433 -10.866
      vertex 57.9698 -42.171 -10.9848
      vertex 57.9132 -42.4924 -10.866
    endloop
  endfacet
  facet normal -0.561679 -0.32416 -0.761208
    outer loop
      vertex 57.4132 -42.4924 -10.6428
      vertex 57.5302 -42.171 -10.866
      vertex 57.617 -42.3214 -10.866
    endloop
  endfacet
  facet normal -0.970259 -0.171169 -0.171169
    outer loop
      vertex 57.0603 -42.342 -10
      vertex 57.0603 -42 -10.342
      vertex 57.117 -42.3214 -10.342
    endloop
  endfacet
  facet normal 0.342391 -0.939558 0
    outer loop
      vertex 142.174 -42.9848 -10
      vertex 142.5 -42.866 0
      vertex 142.174 -42.9848 0
    endloop
  endfacet
  facet normal 0.342391 -0.939558 0
    outer loop
      vertex 142.5 -42.866 0
      vertex 142.174 -42.9848 -10
      vertex 142.5 -42.866 -10
    endloop
  endfacet
  facet normal -0.638585 0.112779 -0.761242
    outer loop
      vertex 57.2802 42.262 -10.6428
      vertex 57.5302 42.171 -10.866
      vertex 57.5 42 -10.866
    endloop
  endfacet
  facet normal -0.34202 0 -0.939693
    outer loop
      vertex 57.5 -42 -10.866
      vertex 57.8264 42 -10.9848
      vertex 57.8264 -42 -10.9848
    endloop
  endfacet
  facet normal -0.34202 0 -0.939693
    outer loop
      vertex 57.8264 42 -10.9848
      vertex 57.5 -42 -10.866
      vertex 57.5 42 -10.866
    endloop
  endfacet
  facet normal 0.337311 0.925618 -0.171615
    outer loop
      vertex 142.163 42.9254 -10.342
      vertex 142.174 42.9848 -10
      vertex 142.5 42.866 -10
    endloop
  endfacet
  facet normal 0.642787 0.766045 -0
    outer loop
      vertex 142.766 42.6428 -10
      vertex 142.5 42.866 0
      vertex 142.766 42.6428 0
    endloop
  endfacet
  facet normal 0.642787 0.766045 0
    outer loop
      vertex 142.5 42.866 0
      vertex 142.766 42.6428 -10
      vertex 142.5 42.866 -10
    endloop
  endfacet
  facet normal 0.984957 0 -0.172799
    outer loop
      vertex 143 -42 -10
      vertex 142.94 42 -10.342
      vertex 143 42 -10
    endloop
  endfacet
  facet normal 0.984957 0 -0.172799
    outer loop
      vertex 142.94 42 -10.342
      vertex 143 -42 -10
      vertex 142.94 -42 -10.342
    endloop
  endfacet
  facet normal 0.223442 0.264906 -0.938029
    outer loop
      vertex 142.087 42.1504 -10.9848
      vertex 142.383 42.3214 -10.866
      vertex 142.133 42.1116 -10.9848
    endloop
  endfacet
  facet normal -0.416848 -0.496781 -0.761214
    outer loop
      vertex 57.4132 -42.4924 -10.6428
      vertex 57.617 -42.3214 -10.866
      vertex 57.75 -42.433 -10.866
    endloop
  endfacet
  facet normal 0 0.346706 -0.937974
    outer loop
      vertex 57.9698 42.171 -10.9848
      vertex 142.087 42.4924 -10.866
      vertex 142.03 42.171 -10.9848
    endloop
  endfacet
  facet normal 0 0.346706 -0.937974
    outer loop
      vertex 142.087 42.4924 -10.866
      vertex 57.9698 42.171 -10.9848
      vertex 57.9132 42.4924 -10.866
    endloop
  endfacet
  facet normal -0.558856 -0.665939 -0.494171
    outer loop
      vertex 57.2802 -42.604 -10.342
      vertex 57.4132 -42.4924 -10.6428
      vertex 57.5302 -42.8138 -10.342
    endloop
  endfacet
  facet normal -0.638697 -0.112625 -0.761171
    outer loop
      vertex 57.234 -42 -10.6428
      vertex 57.5 -42 -10.866
      vertex 57.2802 -42.262 -10.6428
    endloop
  endfacet
  facet normal -0.118588 0.325819 -0.937965
    outer loop
      vertex 57.75 42.433 -10.866
      vertex 57.9132 42.4924 -10.866
      vertex 57.9698 42.171 -10.9848
    endloop
  endfacet
  facet normal 0.299929 0.173496 -0.938052
    outer loop
      vertex 142.163 42.0594 -10.9848
      vertex 142.383 42.3214 -10.866
      vertex 142.47 42.171 -10.866
    endloop
  endfacet
  facet normal 0.852907 -0.49337 -0.170691
    outer loop
      vertex 142.72 -42.604 -10.342
      vertex 142.94 -42.342 -10
      vertex 142.766 -42.6428 -10
    endloop
  endfacet
  facet normal 0.752926 0.434632 -0.494163
    outer loop
      vertex 142.587 42.4924 -10.6428
      vertex 142.72 42.604 -10.342
      vertex 142.72 42.262 -10.6428
    endloop
  endfacet
  facet normal 0.642787 -0.766045 0
    outer loop
      vertex 142.5 -42.866 -10
      vertex 142.766 -42.6428 0
      vertex 142.5 -42.866 0
    endloop
  endfacet
  facet normal 0.642787 -0.766045 0
    outer loop
      vertex 142.766 -42.6428 0
      vertex 142.5 -42.866 -10
      vertex 142.766 -42.6428 -10
    endloop
  endfacet
  facet normal 0.41658 -0.496973 -0.761235
    outer loop
      vertex 142.25 -42.433 -10.866
      vertex 142.587 -42.4924 -10.6428
      vertex 142.383 -42.6634 -10.6428
    endloop
  endfacet
  facet normal 0 -0.648491 -0.761222
    outer loop
      vertex 142.133 -42.7544 -10.6428
      vertex 57.9132 -42.4924 -10.866
      vertex 142.087 -42.4924 -10.866
    endloop
  endfacet
  facet normal 0 -0.648491 -0.761222
    outer loop
      vertex 57.9132 -42.4924 -10.866
      vertex 142.133 -42.7544 -10.6428
      vertex 57.867 -42.7544 -10.6428
    endloop
  endfacet
  facet normal 0.22208 -0.609411 -0.761117
    outer loop
      vertex 142.087 -42.4924 -10.866
      vertex 142.25 -42.433 -10.866
      vertex 142.133 -42.7544 -10.6428
    endloop
  endfacet
  facet normal -0.222949 -0.26547 -0.937987
    outer loop
      vertex 57.617 -42.3214 -10.866
      vertex 57.867 -42.1116 -10.9848
      vertex 57.9132 -42.1504 -10.9848
    endloop
  endfacet
  facet normal -0.341409 0.0597753 -0.938012
    outer loop
      vertex 57.5 42 -10.866
      vertex 57.8368 42.0594 -10.9848
      vertex 57.8264 42 -10.9848
    endloop
  endfacet
  facet normal 0.222944 0.265695 -0.937924
    outer loop
      vertex 142.087 42.1504 -10.9848
      vertex 142.25 42.433 -10.866
      vertex 142.383 42.3214 -10.866
    endloop
  endfacet
  facet normal 0.300687 0.172808 -0.937936
    outer loop
      vertex 142.133 42.1116 -10.9848
      vertex 142.383 42.3214 -10.866
      vertex 142.163 42.0594 -10.9848
    endloop
  endfacet
  facet normal -0.642787 -0.766045 0
    outer loop
      vertex 57.234 -42.6428 -10
      vertex 57.5 -42.866 0
      vertex 57.234 -42.6428 0
    endloop
  endfacet
  facet normal -0.642787 -0.766045 -0
    outer loop
      vertex 57.5 -42.866 0
      vertex 57.234 -42.6428 -10
      vertex 57.5 -42.866 -10
    endloop
  endfacet
  facet normal -0.558781 -0.665962 -0.494225
    outer loop
      vertex 57.4132 -42.4924 -10.6428
      vertex 57.617 -42.6634 -10.6428
      vertex 57.5302 -42.8138 -10.342
    endloop
  endfacet
  facet normal 0.638732 0.112144 -0.761213
    outer loop
      vertex 142.5 42 -10.866
      vertex 142.72 42.262 -10.6428
      vertex 142.766 42 -10.6428
    endloop
  endfacet
  facet normal -0.221797 0.609381 -0.761223
    outer loop
      vertex 57.75 42.433 -10.866
      vertex 57.867 42.7544 -10.6428
      vertex 57.9132 42.4924 -10.866
    endloop
  endfacet
  facet normal 0 0 -1
    outer loop
      vertex 142.03 -42.171 -10.9848
      vertex 142.174 -42 -10.9848
      vertex 142.163 -42.0594 -10.9848
    endloop
  endfacet
  facet normal 0 0 -1
    outer loop
      vertex 142.174 -42 -10.9848
      vertex 137.494 -34.4969 -10.9848
      vertex 142.174 42 -10.9848
    endloop
  endfacet
  facet normal 0 0 -1
    outer loop
      vertex 142.03 -42.171 -10.9848
      vertex 142.163 -42.0594 -10.9848
      vertex 142.133 -42.1116 -10.9848
    endloop
  endfacet
  facet normal 0 0 -1
    outer loop
      vertex 137.494 34.4969 -10.9848
      vertex 142.174 42 -10.9848
      vertex 137.494 -34.4969 -10.9848
    endloop
  endfacet
  facet normal 0 0 -1
    outer loop
      vertex 142.03 -42.171 -10.9848
      vertex 142.133 -42.1116 -10.9848
      vertex 142.087 -42.1504 -10.9848
    endloop
  endfacet
  facet normal 0 0 -1
    outer loop
      vertex 137.314 35.522 -10.9848
      vertex 142.174 42 -10.9848
      vertex 137.494 34.4969 -10.9848
    endloop
  endfacet
  facet normal -0 0 -1
    outer loop
      vertex 142.174 -42 -10.9848
      vertex 142.03 -42.171 -10.9848
      vertex 136.793 -36.4236 -10.9848
    endloop
  endfacet
  facet normal 0 0 -1
    outer loop
      vertex 136.794 36.422 -10.9848
      vertex 142.174 42 -10.9848
      vertex 137.314 35.522 -10.9848
    endloop
  endfacet
  facet normal 0 0 -1
    outer loop
      vertex 136.793 36.4236 -10.9848
      vertex 142.174 42 -10.9848
      vertex 136.794 36.422 -10.9848
    endloop
  endfacet
  facet normal 0 0 -1
    outer loop
      vertex 142.174 -42 -10.9848
      vertex 137.314 -35.522 -10.9848
      vertex 137.494 -34.4969 -10.9848
    endloop
  endfacet
  facet normal 0 0 -1
    outer loop
      vertex 142.174 -42 -10.9848
      vertex 136.794 -36.422 -10.9848
      vertex 137.314 -35.522 -10.9848
    endloop
  endfacet
  facet normal 0 0 -1
    outer loop
      vertex 142.174 -42 -10.9848
      vertex 136.793 -36.4236 -10.9848
      vertex 136.794 -36.422 -10.9848
    endloop
  endfacet
  facet normal 0 0 -1
    outer loop
      vertex 142.03 -42.171 -10.9848
      vertex 135.997 -37.0915 -10.9848
      vertex 136.793 -36.4236 -10.9848
    endloop
  endfacet
  facet normal 0 0 -1
    outer loop
      vertex 142.03 -42.171 -10.9848
      vertex 135.996 -37.0927 -10.9848
      vertex 135.997 -37.0915 -10.9848
    endloop
  endfacet
  facet normal 0 0 -1
    outer loop
      vertex 142.03 -42.171 -10.9848
      vertex 135.994 -37.0933 -10.9848
      vertex 135.996 -37.0927 -10.9848
    endloop
  endfacet
  facet normal 0 0 -1
    outer loop
      vertex 142.03 -42.171 -10.9848
      vertex 135.017 -37.4487 -10.9848
      vertex 135.994 -37.0933 -10.9848
    endloop
  endfacet
  facet normal 0 0 -1
    outer loop
      vertex 142.03 -42.171 -10.9848
      vertex 64.9826 -37.4487 -10.9848
      vertex 135.017 -37.4487 -10.9848
    endloop
  endfacet
  facet normal 0 0 -1
    outer loop
      vertex 57.9698 -42.171 -10.9848
      vertex 64.0061 -37.0933 -10.9848
      vertex 64.9826 -37.4487 -10.9848
    endloop
  endfacet
  facet normal 0 0 -1
    outer loop
      vertex 57.9698 -42.171 -10.9848
      vertex 64.003 -37.0915 -10.9848
      vertex 64.0044 -37.0927 -10.9848
    endloop
  endfacet
  facet normal 0 0 -1
    outer loop
      vertex 57.8264 -42 -10.9848
      vertex 63.2061 -36.422 -10.9848
      vertex 63.207 -36.4236 -10.9848
    endloop
  endfacet
  facet normal -0 0 -1
    outer loop
      vertex 62.6865 -35.522 -10.9848
      vertex 57.8264 -42 -10.9848
      vertex 62.5057 -34.4969 -10.9848
    endloop
  endfacet
  facet normal -0 0 -1
    outer loop
      vertex 63.2061 -36.422 -10.9848
      vertex 57.8264 -42 -10.9848
      vertex 62.6865 -35.522 -10.9848
    endloop
  endfacet
  facet normal 0 0 -1
    outer loop
      vertex 57.8264 -42 -10.9848
      vertex 63.207 -36.4236 -10.9848
      vertex 57.9698 -42.171 -10.9848
    endloop
  endfacet
  facet normal -0 0 -1
    outer loop
      vertex 64.003 -37.0915 -10.9848
      vertex 57.9698 -42.171 -10.9848
      vertex 63.207 -36.4236 -10.9848
    endloop
  endfacet
  facet normal -0 0 -1
    outer loop
      vertex 64.0061 -37.0933 -10.9848
      vertex 57.9698 -42.171 -10.9848
      vertex 64.0044 -37.0927 -10.9848
    endloop
  endfacet
  facet normal 0 0 -1
    outer loop
      vertex 57.9698 -42.171 -10.9848
      vertex 64.9826 -37.4487 -10.9848
      vertex 142.03 -42.171 -10.9848
    endloop
  endfacet
  facet normal 0 -0 -1
    outer loop
      vertex 142.03 42.171 -10.9848
      vertex 142.174 42 -10.9848
      vertex 136.793 36.4236 -10.9848
    endloop
  endfacet
  facet normal 0 0 -1
    outer loop
      vertex 142.174 42 -10.9848
      vertex 142.03 42.171 -10.9848
      vertex 142.163 42.0594 -10.9848
    endloop
  endfacet
  facet normal 0 0 -1
    outer loop
      vertex 142.133 42.1116 -10.9848
      vertex 142.03 42.171 -10.9848
      vertex 142.087 42.1504 -10.9848
    endloop
  endfacet
  facet normal 0 0 -1
    outer loop
      vertex 142.163 42.0594 -10.9848
      vertex 142.03 42.171 -10.9848
      vertex 142.133 42.1116 -10.9848
    endloop
  endfacet
  facet normal 0 0 -1
    outer loop
      vertex 135.997 37.0915 -10.9848
      vertex 142.03 42.171 -10.9848
      vertex 136.793 36.4236 -10.9848
    endloop
  endfacet
  facet normal 0 0 -1
    outer loop
      vertex 135.996 37.0927 -10.9848
      vertex 142.03 42.171 -10.9848
      vertex 135.997 37.0915 -10.9848
    endloop
  endfacet
  facet normal 0 0 -1
    outer loop
      vertex 135.994 37.0933 -10.9848
      vertex 142.03 42.171 -10.9848
      vertex 135.996 37.0927 -10.9848
    endloop
  endfacet
  facet normal 0 0 -1
    outer loop
      vertex 135.017 37.4487 -10.9848
      vertex 142.03 42.171 -10.9848
      vertex 135.994 37.0933 -10.9848
    endloop
  endfacet
  facet normal 0 0 -1
    outer loop
      vertex 64.9826 37.4487 -10.9848
      vertex 142.03 42.171 -10.9848
      vertex 135.017 37.4487 -10.9848
    endloop
  endfacet
  facet normal 0 0 -1
    outer loop
      vertex 57.9698 42.171 -10.9848
      vertex 64.0061 37.0933 -10.9848
      vertex 64.0044 37.0927 -10.9848
    endloop
  endfacet
  facet normal 0 0 -1
    outer loop
      vertex 57.9698 42.171 -10.9848
      vertex 64.003 37.0915 -10.9848
      vertex 63.207 36.4236 -10.9848
    endloop
  endfacet
  facet normal 0 0 -1
    outer loop
      vertex 57.8264 42 -10.9848
      vertex 63.2061 36.422 -10.9848
      vertex 62.6865 35.522 -10.9848
    endloop
  endfacet
  facet normal 0 0 -1
    outer loop
      vertex 64.9826 37.4487 -10.9848
      vertex 57.9698 42.171 -10.9848
      vertex 142.03 42.171 -10.9848
    endloop
  endfacet
  facet normal 0 0 -1
    outer loop
      vertex 64.0061 37.0933 -10.9848
      vertex 57.9698 42.171 -10.9848
      vertex 64.9826 37.4487 -10.9848
    endloop
  endfacet
  facet normal 0 0 -1
    outer loop
      vertex 64.003 37.0915 -10.9848
      vertex 57.9698 42.171 -10.9848
      vertex 64.0044 37.0927 -10.9848
    endloop
  endfacet
  facet normal 0 0 -1
    outer loop
      vertex 63.2061 36.422 -10.9848
      vertex 57.8264 42 -10.9848
      vertex 63.207 36.4236 -10.9848
    endloop
  endfacet
  facet normal 0 0 -1
    outer loop
      vertex 57.8264 42 -10.9848
      vertex 62.6865 35.522 -10.9848
      vertex 62.5057 34.4969 -10.9848
    endloop
  endfacet
  facet normal -0 0 -1
    outer loop
      vertex 62.5057 -34.4969 -10.9848
      vertex 57.8264 -42 -10.9848
      vertex 62.5057 34.4969 -10.9848
    endloop
  endfacet
  facet normal 0 0 -1
    outer loop
      vertex 57.8264 -42 -10.9848
      vertex 57.9698 -42.171 -10.9848
      vertex 57.9132 -42.1504 -10.9848
    endloop
  endfacet
  facet normal 0 0 -1
    outer loop
      vertex 57.8264 42 -10.9848
      vertex 62.5057 34.4969 -10.9848
      vertex 57.8264 -42 -10.9848
    endloop
  endfacet
  facet normal 0 0 -1
    outer loop
      vertex 57.8264 -42 -10.9848
      vertex 57.9132 -42.1504 -10.9848
      vertex 57.867 -42.1116 -10.9848
    endloop
  endfacet
  facet normal 0 0 -1
    outer loop
      vertex 63.207 36.4236 -10.9848
      vertex 57.8264 42 -10.9848
      vertex 57.9698 42.171 -10.9848
    endloop
  endfacet
  facet normal 0 0 -1
    outer loop
      vertex 57.8264 -42 -10.9848
      vertex 57.867 -42.1116 -10.9848
      vertex 57.8368 -42.0594 -10.9848
    endloop
  endfacet
  facet normal 0 0 -1
    outer loop
      vertex 57.9698 42.171 -10.9848
      vertex 57.8264 42 -10.9848
      vertex 57.9132 42.1504 -10.9848
    endloop
  endfacet
  facet normal 0 0 -1
    outer loop
      vertex 57.9132 42.1504 -10.9848
      vertex 57.8264 42 -10.9848
      vertex 57.867 42.1116 -10.9848
    endloop
  endfacet
  facet normal 0 0 -1
    outer loop
      vertex 57.867 42.1116 -10.9848
      vertex 57.8264 42 -10.9848
      vertex 57.8368 42.0594 -10.9848
    endloop
  endfacet
  facet normal -0.118585 -0.325821 -0.937965
    outer loop
      vertex 57.75 -42.433 -10.866
      vertex 57.9132 -42.1504 -10.9848
      vertex 57.9698 -42.171 -10.9848
    endloop
  endfacet
  facet normal -0.865984 0 -0.500071
    outer loop
      vertex 57.234 -42 -10.6428
      vertex 57.0603 42 -10.342
      vertex 57.234 42 -10.6428
    endloop
  endfacet
  facet normal -0.865984 -0 -0.500071
    outer loop
      vertex 57.0603 42 -10.342
      vertex 57.234 -42 -10.6428
      vertex 57.0603 -42 -10.342
    endloop
  endfacet
  facet normal 0 -0.869344 -0.494208
    outer loop
      vertex 57.867 -42.7544 -10.6428
      vertex 142.163 -42.9254 -10.342
      vertex 57.8368 -42.9254 -10.342
    endloop
  endfacet
  facet normal 0 -0.869344 -0.494208
    outer loop
      vertex 142.163 -42.9254 -10.342
      vertex 57.867 -42.7544 -10.6428
      vertex 142.133 -42.7544 -10.6428
    endloop
  endfacet
  facet normal 0 -0.98525 -0.171122
    outer loop
      vertex 57.8368 -42.9254 -10.342
      vertex 142.174 -42.9848 -10
      vertex 57.8264 -42.9848 -10
    endloop
  endfacet
  facet normal 0 -0.98525 -0.171122
    outer loop
      vertex 142.174 -42.9848 -10
      vertex 57.8368 -42.9254 -10.342
      vertex 142.163 -42.9254 -10.342
    endloop
  endfacet
  facet normal 0.970573 -0.170276 -0.170276
    outer loop
      vertex 142.94 -42.342 -10
      vertex 142.94 -42 -10.342
      vertex 143 -42 -10
    endloop
  endfacet
  facet normal 0.221816 -0.609383 -0.761216
    outer loop
      vertex 142.133 -42.7544 -10.6428
      vertex 142.25 -42.433 -10.866
      vertex 142.383 -42.6634 -10.6428
    endloop
  endfacet
  facet normal 0.970573 0.170276 -0.170276
    outer loop
      vertex 142.94 42 -10.342
      vertex 142.94 42.342 -10
      vertex 143 42 -10
    endloop
  endfacet
  facet normal 0.561621 0.3242 -0.761234
    outer loop
      vertex 142.47 42.171 -10.866
      vertex 142.587 42.4924 -10.6428
      vertex 142.72 42.262 -10.6428
    endloop
  endfacet
  facet normal 0.297024 -0.817081 -0.494121
    outer loop
      vertex 142.133 -42.7544 -10.6428
      vertex 142.47 -42.8138 -10.342
      vertex 142.163 -42.9254 -10.342
    endloop
  endfacet
  facet normal 0.341242 0.059867 -0.938067
    outer loop
      vertex 142.163 42.0594 -10.9848
      vertex 142.47 42.171 -10.866
      vertex 142.5 42 -10.866
    endloop
  endfacet
  facet normal 0.638787 0.112068 -0.761178
    outer loop
      vertex 142.47 42.171 -10.866
      vertex 142.72 42.262 -10.6428
      vertex 142.5 42 -10.866
    endloop
  endfacet
  facet normal -0.34202 -0.939693 0
    outer loop
      vertex 57.5 -42.866 -10
      vertex 57.8264 -42.9848 0
      vertex 57.5 -42.866 0
    endloop
  endfacet
  facet normal -0.34202 -0.939693 -0
    outer loop
      vertex 57.8264 -42.9848 0
      vertex 57.5 -42.866 -10
      vertex 57.8264 -42.9848 -10
    endloop
  endfacet
  facet normal 0 0.98525 -0.171122
    outer loop
      vertex 142.163 42.9254 -10.342
      vertex 57.8264 42.9848 -10
      vertex 142.174 42.9848 -10
    endloop
  endfacet
  facet normal 0 0.98525 -0.171122
    outer loop
      vertex 57.8264 42.9848 -10
      vertex 142.163 42.9254 -10.342
      vertex 57.8368 42.9254 -10.342
    endloop
  endfacet
  facet normal 0.221816 0.609383 -0.761216
    outer loop
      vertex 142.133 42.7544 -10.6428
      vertex 142.383 42.6634 -10.6428
      vertex 142.25 42.433 -10.866
    endloop
  endfacet
  facet normal -0.222866 0.265602 -0.937969
    outer loop
      vertex 57.617 42.3214 -10.866
      vertex 57.75 42.433 -10.866
      vertex 57.9132 42.1504 -10.9848
    endloop
  endfacet
  facet normal -0.34202 0.939693 0
    outer loop
      vertex 57.8264 42.9848 -10
      vertex 57.5 42.866 0
      vertex 57.8264 42.9848 0
    endloop
  endfacet
  facet normal -0.34202 0.939693 0
    outer loop
      vertex 57.5 42.866 0
      vertex 57.8264 42.9848 -10
      vertex 57.5 42.866 -10
    endloop
  endfacet
  facet normal -0.222866 -0.265602 -0.937969
    outer loop
      vertex 57.617 -42.3214 -10.866
      vertex 57.9132 -42.1504 -10.9848
      vertex 57.75 -42.433 -10.866
    endloop
  endfacet
  facet normal -0.341409 -0.0597753 -0.938012
    outer loop
      vertex 57.5 -42 -10.866
      vertex 57.8264 -42 -10.9848
      vertex 57.8368 -42.0594 -10.9848
    endloop
  endfacet
  facet normal -0.638585 -0.112779 -0.761242
    outer loop
      vertex 57.2802 -42.262 -10.6428
      vertex 57.5 -42 -10.866
      vertex 57.5302 -42.171 -10.866
    endloop
  endfacet
  facet normal -0.970291 -0.171078 -0.171078
    outer loop
      vertex 57 -42 -10
      vertex 57.0603 -42 -10.342
      vertex 57.0603 -42.342 -10
    endloop
  endfacet
  facet normal -0.638697 0.112625 -0.761171
    outer loop
      vertex 57.234 42 -10.6428
      vertex 57.2802 42.262 -10.6428
      vertex 57.5 42 -10.866
    endloop
  endfacet
  facet normal -0.970291 0.171078 -0.171078
    outer loop
      vertex 57 42 -10
      vertex 57.0603 42.342 -10
      vertex 57.0603 42 -10.342
    endloop
  endfacet
  facet normal -0.98481 0 -0.173637
    outer loop
      vertex 57.0603 -42 -10.342
      vertex 57 42 -10
      vertex 57.0603 42 -10.342
    endloop
  endfacet
  facet normal -0.98481 -0 -0.173637
    outer loop
      vertex 57 42 -10
      vertex 57.0603 -42 -10.342
      vertex 57 -42 -10
    endloop
  endfacet
  facet normal 0 -0.346706 -0.937974
    outer loop
      vertex 142.087 -42.4924 -10.866
      vertex 57.9698 -42.171 -10.9848
      vertex 142.03 -42.171 -10.9848
    endloop
  endfacet
  facet normal 0 -0.346706 -0.937974
    outer loop
      vertex 57.9698 -42.171 -10.9848
      vertex 142.087 -42.4924 -10.866
      vertex 57.9132 -42.4924 -10.866
    endloop
  endfacet
  facet normal 0.117913 -0.326264 -0.937896
    outer loop
      vertex 142.03 -42.171 -10.9848
      vertex 142.087 -42.1504 -10.9848
      vertex 142.25 -42.433 -10.866
    endloop
  endfacet
  facet normal 0.222944 -0.265695 -0.937924
    outer loop
      vertex 142.087 -42.1504 -10.9848
      vertex 142.383 -42.3214 -10.866
      vertex 142.25 -42.433 -10.866
    endloop
  endfacet
  facet normal 0.86561 0 -0.500719
    outer loop
      vertex 142.94 -42 -10.342
      vertex 142.766 42 -10.6428
      vertex 142.94 42 -10.342
    endloop
  endfacet
  facet normal 0.86561 0 -0.500719
    outer loop
      vertex 142.766 42 -10.6428
      vertex 142.94 -42 -10.342
      vertex 142.766 -42 -10.6428
    endloop
  endfacet
  facet normal 0.342391 0.939558 -0
    outer loop
      vertex 142.5 42.866 -10
      vertex 142.174 42.9848 0
      vertex 142.5 42.866 0
    endloop
  endfacet
  facet normal 0.342391 0.939558 0
    outer loop
      vertex 142.174 42.9848 0
      vertex 142.5 42.866 -10
      vertex 142.174 42.9848 -10
    endloop
  endfacet
  facet normal 0.984957 0.172799 0
    outer loop
      vertex 143 42 0
      vertex 142.94 42.342 -10
      vertex 142.94 42.342 0
    endloop
  endfacet
  facet normal 0.984957 0.172799 0
    outer loop
      vertex 142.94 42.342 -10
      vertex 143 42 0
      vertex 143 42 -10
    endloop
  endfacet
  facet normal 0.853346 0.492199 -0.171871
    outer loop
      vertex 142.72 42.604 -10.342
      vertex 142.94 42.342 -10
      vertex 142.883 42.3214 -10.342
    endloop
  endfacet
  facet normal 0.753192 0.434431 -0.493935
    outer loop
      vertex 142.72 42.262 -10.6428
      vertex 142.72 42.604 -10.342
      vertex 142.883 42.3214 -10.342
    endloop
  endfacet
  facet normal -0.336996 -0.925834 -0.17107
    outer loop
      vertex 57.5 -42.866 -10
      vertex 57.5302 -42.8138 -10.342
      vertex 57.8368 -42.9254 -10.342
    endloop
  endfacet
  facet normal -0.297342 -0.816892 -0.494243
    outer loop
      vertex 57.5302 -42.8138 -10.342
      vertex 57.867 -42.7544 -10.6428
      vertex 57.8368 -42.9254 -10.342
    endloop
  endfacet
  facet normal -0.865984 -0.500071 0
    outer loop
      vertex 57.234 -42.6428 -10
      vertex 57.0603 -42.342 0
      vertex 57.0603 -42.342 -10
    endloop
  endfacet
  facet normal -0.865984 -0.500071 0
    outer loop
      vertex 57.0603 -42.342 0
      vertex 57.234 -42.6428 -10
      vertex 57.234 -42.6428 0
    endloop
  endfacet
  facet normal -0.30034 0.173335 -0.93795
    outer loop
      vertex 57.5302 42.171 -10.866
      vertex 57.617 42.3214 -10.866
      vertex 57.8368 42.0594 -10.9848
    endloop
  endfacet
  facet normal -0.341482 0.0603084 -0.937952
    outer loop
      vertex 57.5 42 -10.866
      vertex 57.5302 42.171 -10.866
      vertex 57.8368 42.0594 -10.9848
    endloop
  endfacet
  facet normal -0.752792 -0.434733 -0.494278
    outer loop
      vertex 57.117 -42.3214 -10.342
      vertex 57.2802 -42.262 -10.6428
      vertex 57.2802 -42.604 -10.342
    endloop
  endfacet
  facet normal -0.856077 -0.151025 -0.494291
    outer loop
      vertex 57.0603 -42 -10.342
      vertex 57.2802 -42.262 -10.6428
      vertex 57.117 -42.3214 -10.342
    endloop
  endfacet
  facet normal -0.853197 -0.492717 -0.171129
    outer loop
      vertex 57.0603 -42.342 -10
      vertex 57.117 -42.3214 -10.342
      vertex 57.2802 -42.604 -10.342
    endloop
  endfacet
  facet normal -0.856061 -0.150954 -0.494341
    outer loop
      vertex 57.0603 -42 -10.342
      vertex 57.234 -42 -10.6428
      vertex 57.2802 -42.262 -10.6428
    endloop
  endfacet
  facet normal -0.865984 0.500071 0
    outer loop
      vertex 57.0603 42.342 -10
      vertex 57.234 42.6428 0
      vertex 57.234 42.6428 -10
    endloop
  endfacet
  facet normal -0.865984 0.500071 0
    outer loop
      vertex 57.234 42.6428 0
      vertex 57.0603 42.342 -10
      vertex 57.0603 42.342 0
    endloop
  endfacet
  facet normal -0.856061 0.150954 -0.494341
    outer loop
      vertex 57.0603 42 -10.342
      vertex 57.2802 42.262 -10.6428
      vertex 57.234 42 -10.6428
    endloop
  endfacet
  facet normal -0.118585 0.325821 -0.937965
    outer loop
      vertex 57.75 42.433 -10.866
      vertex 57.9698 42.171 -10.9848
      vertex 57.9132 42.1504 -10.9848
    endloop
  endfacet
  facet normal -0.633299 0.754739 -0.171176
    outer loop
      vertex 57.234 42.6428 -10
      vertex 57.5 42.866 -10
      vertex 57.2802 42.604 -10.342
    endloop
  endfacet
  facet normal 0.86561 0.500719 0
    outer loop
      vertex 142.94 42.342 0
      vertex 142.766 42.6428 -10
      vertex 142.766 42.6428 0
    endloop
  endfacet
  facet normal 0.86561 0.500719 0
    outer loop
      vertex 142.766 42.6428 -10
      vertex 142.94 42.342 0
      vertex 142.94 42.342 -10
    endloop
  endfacet
  facet normal 0.11868 -0.32567 -0.938005
    outer loop
      vertex 142.03 -42.171 -10.9848
      vertex 142.25 -42.433 -10.866
      vertex 142.087 -42.4924 -10.866
    endloop
  endfacet
  facet normal 0.297318 -0.816807 -0.494397
    outer loop
      vertex 142.133 -42.7544 -10.6428
      vertex 142.383 -42.6634 -10.6428
      vertex 142.47 -42.8138 -10.342
    endloop
  endfacet
  facet normal 0.86561 -0.500719 0
    outer loop
      vertex 142.766 -42.6428 0
      vertex 142.94 -42.342 -10
      vertex 142.94 -42.342 0
    endloop
  endfacet
  facet normal 0.86561 -0.500719 0
    outer loop
      vertex 142.94 -42.342 -10
      vertex 142.766 -42.6428 0
      vertex 142.766 -42.6428 -10
    endloop
  endfacet
  facet normal 0.856147 -0.151837 -0.49392
    outer loop
      vertex 142.72 -42.262 -10.6428
      vertex 142.94 -42 -10.342
      vertex 142.883 -42.3214 -10.342
    endloop
  endfacet
  facet normal 0.969957 -0.172021 -0.172021
    outer loop
      vertex 142.883 -42.3214 -10.342
      vertex 142.94 -42 -10.342
      vertex 142.94 -42.342 -10
    endloop
  endfacet
  facet normal 0.341705 0.0632787 -0.937675
    outer loop
      vertex 142.163 42.0594 -10.9848
      vertex 142.5 42 -10.866
      vertex 142.174 42 -10.9848
    endloop
  endfacet
  facet normal 0.642787 0 -0.766045
    outer loop
      vertex 142.5 -42 -10.866
      vertex 142.766 42 -10.6428
      vertex 142.766 -42 -10.6428
    endloop
  endfacet
  facet normal 0.642787 0 -0.766045
    outer loop
      vertex 142.766 42 -10.6428
      vertex 142.5 -42 -10.866
      vertex 142.5 42 -10.866
    endloop
  endfacet
  facet normal 0.561083 0.324563 -0.761475
    outer loop
      vertex 142.383 42.3214 -10.866
      vertex 142.587 42.4924 -10.6428
      vertex 142.47 42.171 -10.866
    endloop
  endfacet
  facet normal 0.416729 0.496639 -0.761371
    outer loop
      vertex 142.25 42.433 -10.866
      vertex 142.587 42.4924 -10.6428
      vertex 142.383 42.3214 -10.866
    endloop
  endfacet
  facet normal 0.855783 0.150252 -0.495034
    outer loop
      vertex 142.72 42.262 -10.6428
      vertex 142.94 42 -10.342
      vertex 142.766 42 -10.6428
    endloop
  endfacet
  facet normal 0.558856 0.665939 -0.494171
    outer loop
      vertex 142.47 42.8138 -10.342
      vertex 142.72 42.604 -10.342
      vertex 142.587 42.4924 -10.6428
    endloop
  endfacet
  facet normal 0.336621 0.926008 -0.170866
    outer loop
      vertex 142.163 42.9254 -10.342
      vertex 142.5 42.866 -10
      vertex 142.47 42.8138 -10.342
    endloop
  endfacet
  facet normal 0.558345 0.666096 -0.494537
    outer loop
      vertex 142.383 42.6634 -10.6428
      vertex 142.47 42.8138 -10.342
      vertex 142.587 42.4924 -10.6428
    endloop
  endfacet
  facet normal -0.300054 -0.173595 -0.937994
    outer loop
      vertex 57.617 -42.3214 -10.866
      vertex 57.8368 -42.0594 -10.9848
      vertex 57.867 -42.1116 -10.9848
    endloop
  endfacet
  facet normal -0.30034 -0.173335 -0.93795
    outer loop
      vertex 57.5302 -42.171 -10.866
      vertex 57.8368 -42.0594 -10.9848
      vertex 57.617 -42.3214 -10.866
    endloop
  endfacet
  facet normal -0.633299 -0.754739 -0.171176
    outer loop
      vertex 57.234 -42.6428 -10
      vertex 57.2802 -42.604 -10.342
      vertex 57.5 -42.866 -10
    endloop
  endfacet
  facet normal -0.633351 -0.754708 -0.17112
    outer loop
      vertex 57.2802 -42.604 -10.342
      vertex 57.5302 -42.8138 -10.342
      vertex 57.5 -42.866 -10
    endloop
  endfacet
  facet normal -0.752926 -0.434632 -0.494163
    outer loop
      vertex 57.2802 -42.604 -10.342
      vertex 57.2802 -42.262 -10.6428
      vertex 57.4132 -42.4924 -10.6428
    endloop
  endfacet
  facet normal -0.561621 -0.3242 -0.761234
    outer loop
      vertex 57.2802 -42.262 -10.6428
      vertex 57.5302 -42.171 -10.866
      vertex 57.4132 -42.4924 -10.6428
    endloop
  endfacet
  facet normal 0 1 -0
    outer loop
      vertex 142.174 42.9848 -10
      vertex 57.8264 42.9848 0
      vertex 142.174 42.9848 0
    endloop
  endfacet
  facet normal 0 1 0
    outer loop
      vertex 57.8264 42.9848 0
      vertex 142.174 42.9848 -10
      vertex 57.8264 42.9848 -10
    endloop
  endfacet
  facet normal -0.561621 0.3242 -0.761234
    outer loop
      vertex 57.2802 42.262 -10.6428
      vertex 57.4132 42.4924 -10.6428
      vertex 57.5302 42.171 -10.866
    endloop
  endfacet
  facet normal -0.853197 0.492717 -0.171129
    outer loop
      vertex 57.0603 42.342 -10
      vertex 57.2802 42.604 -10.342
      vertex 57.117 42.3214 -10.342
    endloop
  endfacet
  facet normal -0.416848 0.496781 -0.761214
    outer loop
      vertex 57.4132 42.4924 -10.6428
      vertex 57.75 42.433 -10.866
      vertex 57.617 42.3214 -10.866
    endloop
  endfacet
  facet normal -0.561679 0.32416 -0.761208
    outer loop
      vertex 57.4132 42.4924 -10.6428
      vertex 57.617 42.3214 -10.866
      vertex 57.5302 42.171 -10.866
    endloop
  endfacet
  facet normal 0.561621 -0.3242 -0.761234
    outer loop
      vertex 142.47 -42.171 -10.866
      vertex 142.72 -42.262 -10.6428
      vertex 142.587 -42.4924 -10.6428
    endloop
  endfacet
  facet normal 0.223442 -0.264906 -0.938029
    outer loop
      vertex 142.087 -42.1504 -10.9848
      vertex 142.133 -42.1116 -10.9848
      vertex 142.383 -42.3214 -10.866
    endloop
  endfacet
  facet normal 0.633391 -0.754756 -0.17076
    outer loop
      vertex 142.47 -42.8138 -10.342
      vertex 142.72 -42.604 -10.342
      vertex 142.5 -42.866 -10
    endloop
  endfacet
  facet normal 0.558345 -0.666096 -0.494537
    outer loop
      vertex 142.383 -42.6634 -10.6428
      vertex 142.587 -42.4924 -10.6428
      vertex 142.47 -42.8138 -10.342
    endloop
  endfacet
  facet normal 0.984957 -0.172799 0
    outer loop
      vertex 142.94 -42.342 0
      vertex 143 -42 -10
      vertex 143 -42 0
    endloop
  endfacet
  facet normal 0.984957 -0.172799 0
    outer loop
      vertex 143 -42 -10
      vertex 142.94 -42.342 0
      vertex 142.94 -42.342 -10
    endloop
  endfacet
  facet normal 0.855783 -0.150252 -0.495034
    outer loop
      vertex 142.72 -42.262 -10.6428
      vertex 142.766 -42 -10.6428
      vertex 142.94 -42 -10.342
    endloop
  endfacet
  facet normal 0.852907 0.49337 -0.170691
    outer loop
      vertex 142.72 42.604 -10.342
      vertex 142.766 42.6428 -10
      vertex 142.94 42.342 -10
    endloop
  endfacet
  facet normal 0.63334 0.754786 -0.170817
    outer loop
      vertex 142.5 42.866 -10
      vertex 142.766 42.6428 -10
      vertex 142.72 42.604 -10.342
    endloop
  endfacet
  facet normal 0.297318 0.816807 -0.494397
    outer loop
      vertex 142.133 42.7544 -10.6428
      vertex 142.47 42.8138 -10.342
      vertex 142.383 42.6634 -10.6428
    endloop
  endfacet
  facet normal 0.297024 0.817081 -0.494121
    outer loop
      vertex 142.133 42.7544 -10.6428
      vertex 142.163 42.9254 -10.342
      vertex 142.47 42.8138 -10.342
    endloop
  endfacet
  facet normal -1 0 0
    outer loop
      vertex 57 -42 -10
      vertex 57 42 0
      vertex 57 42 -10
    endloop
  endfacet
  facet normal -1 -0 0
    outer loop
      vertex 57 42 0
      vertex 57 -42 -10
      vertex 57 -42 0
    endloop
  endfacet
  facet normal -0.33698 0.925843 -0.171052
    outer loop
      vertex 57.5 42.866 -10
      vertex 57.8264 42.9848 -10
      vertex 57.8368 42.9254 -10.342
    endloop
  endfacet
  facet normal -0.416841 0.496796 -0.761208
    outer loop
      vertex 57.4132 42.4924 -10.6428
      vertex 57.617 42.6634 -10.6428
      vertex 57.75 42.433 -10.866
    endloop
  endfacet
  facet normal -0.300054 0.173595 -0.937994
    outer loop
      vertex 57.617 42.3214 -10.866
      vertex 57.867 42.1116 -10.9848
      vertex 57.8368 42.0594 -10.9848
    endloop
  endfacet
  facet normal -0.222949 0.26547 -0.937987
    outer loop
      vertex 57.617 42.3214 -10.866
      vertex 57.9132 42.1504 -10.9848
      vertex 57.867 42.1116 -10.9848
    endloop
  endfacet
  facet normal 0.638787 -0.112068 -0.761178
    outer loop
      vertex 142.47 -42.171 -10.866
      vertex 142.5 -42 -10.866
      vertex 142.72 -42.262 -10.6428
    endloop
  endfacet
  facet normal 0.638732 -0.112144 -0.761213
    outer loop
      vertex 142.5 -42 -10.866
      vertex 142.766 -42 -10.6428
      vertex 142.72 -42.262 -10.6428
    endloop
  endfacet
  facet normal 0.561083 -0.324563 -0.761475
    outer loop
      vertex 142.383 -42.3214 -10.866
      vertex 142.47 -42.171 -10.866
      vertex 142.587 -42.4924 -10.6428
    endloop
  endfacet
  facet normal 0.752926 -0.434632 -0.494163
    outer loop
      vertex 142.587 -42.4924 -10.6428
      vertex 142.72 -42.262 -10.6428
      vertex 142.72 -42.604 -10.342
    endloop
  endfacet
  facet normal 0.558856 -0.665939 -0.494171
    outer loop
      vertex 142.47 -42.8138 -10.342
      vertex 142.587 -42.4924 -10.6428
      vertex 142.72 -42.604 -10.342
    endloop
  endfacet
  facet normal 0.63334 -0.754786 -0.170817
    outer loop
      vertex 142.5 -42.866 -10
      vertex 142.72 -42.604 -10.342
      vertex 142.766 -42.6428 -10
    endloop
  endfacet
  facet normal 0.336621 -0.926008 -0.170866
    outer loop
      vertex 142.163 -42.9254 -10.342
      vertex 142.47 -42.8138 -10.342
      vertex 142.5 -42.866 -10
    endloop
  endfacet
  facet normal 0.337311 -0.925618 -0.171615
    outer loop
      vertex 142.163 -42.9254 -10.342
      vertex 142.5 -42.866 -10
      vertex 142.174 -42.9848 -10
    endloop
  endfacet
  facet normal 0.341705 -0.0632787 -0.937675
    outer loop
      vertex 142.163 -42.0594 -10.9848
      vertex 142.174 -42 -10.9848
      vertex 142.5 -42 -10.866
    endloop
  endfacet
  facet normal 0.341242 -0.059867 -0.938067
    outer loop
      vertex 142.163 -42.0594 -10.9848
      vertex 142.5 -42 -10.866
      vertex 142.47 -42.171 -10.866
    endloop
  endfacet
  facet normal 0.856147 0.151837 -0.49392
    outer loop
      vertex 142.72 42.262 -10.6428
      vertex 142.883 42.3214 -10.342
      vertex 142.94 42 -10.342
    endloop
  endfacet
  facet normal 0.969957 0.172021 -0.172021
    outer loop
      vertex 142.883 42.3214 -10.342
      vertex 142.94 42.342 -10
      vertex 142.94 42 -10.342
    endloop
  endfacet
  facet normal 0 0.869344 -0.494208
    outer loop
      vertex 142.133 42.7544 -10.6428
      vertex 57.8368 42.9254 -10.342
      vertex 142.163 42.9254 -10.342
    endloop
  endfacet
  facet normal 0 0.869344 -0.494208
    outer loop
      vertex 57.8368 42.9254 -10.342
      vertex 142.133 42.7544 -10.6428
      vertex 57.867 42.7544 -10.6428
    endloop
  endfacet
  facet normal 0.22208 0.609411 -0.761117
    outer loop
      vertex 142.087 42.4924 -10.866
      vertex 142.133 42.7544 -10.6428
      vertex 142.25 42.433 -10.866
    endloop
  endfacet
  facet normal -0.853206 0.492692 -0.171154
    outer loop
      vertex 57.0603 42.342 -10
      vertex 57.234 42.6428 -10
      vertex 57.2802 42.604 -10.342
    endloop
  endfacet
  facet normal -0.98481 0.173637 0
    outer loop
      vertex 57 42 -10
      vertex 57.0603 42.342 0
      vertex 57.0603 42.342 -10
    endloop
  endfacet
  facet normal -0.98481 0.173637 0
    outer loop
      vertex 57.0603 42.342 0
      vertex 57 42 -10
      vertex 57 42 0
    endloop
  endfacet
  facet normal -0.336996 0.925834 -0.17107
    outer loop
      vertex 57.5 42.866 -10
      vertex 57.8368 42.9254 -10.342
      vertex 57.5302 42.8138 -10.342
    endloop
  endfacet
  facet normal -0.856077 0.151025 -0.494291
    outer loop
      vertex 57.0603 42 -10.342
      vertex 57.117 42.3214 -10.342
      vertex 57.2802 42.262 -10.6428
    endloop
  endfacet
  facet normal 0.416729 -0.496639 -0.761371
    outer loop
      vertex 142.25 -42.433 -10.866
      vertex 142.383 -42.3214 -10.866
      vertex 142.587 -42.4924 -10.6428
    endloop
  endfacet
  facet normal 0.299929 -0.173496 -0.938052
    outer loop
      vertex 142.163 -42.0594 -10.9848
      vertex 142.47 -42.171 -10.866
      vertex 142.383 -42.3214 -10.866
    endloop
  endfacet
  facet normal 0.300687 -0.172808 -0.937936
    outer loop
      vertex 142.133 -42.1116 -10.9848
      vertex 142.163 -42.0594 -10.9848
      vertex 142.383 -42.3214 -10.866
    endloop
  endfacet
  facet normal 0.853346 -0.492199 -0.171871
    outer loop
      vertex 142.72 -42.604 -10.342
      vertex 142.883 -42.3214 -10.342
      vertex 142.94 -42.342 -10
    endloop
  endfacet
  facet normal 0.753192 -0.434431 -0.493935
    outer loop
      vertex 142.72 -42.604 -10.342
      vertex 142.72 -42.262 -10.6428
      vertex 142.883 -42.3214 -10.342
    endloop
  endfacet
  facet normal 0.342391 0 -0.939558
    outer loop
      vertex 142.174 -42 -10.9848
      vertex 142.5 42 -10.866
      vertex 142.5 -42 -10.866
    endloop
  endfacet
  facet normal 0.342391 0 -0.939558
    outer loop
      vertex 142.5 42 -10.866
      vertex 142.174 -42 -10.9848
      vertex 142.174 42 -10.9848
    endloop
  endfacet
  facet normal -0.752926 0.434632 -0.494163
    outer loop
      vertex 57.2802 42.262 -10.6428
      vertex 57.2802 42.604 -10.342
      vertex 57.4132 42.4924 -10.6428
    endloop
  endfacet
  facet normal -0.558856 0.665939 -0.494171
    outer loop
      vertex 57.2802 42.604 -10.342
      vertex 57.5302 42.8138 -10.342
      vertex 57.4132 42.4924 -10.6428
    endloop
  endfacet
  facet normal 0 0.648491 -0.761222
    outer loop
      vertex 57.9132 42.4924 -10.866
      vertex 142.133 42.7544 -10.6428
      vertex 142.087 42.4924 -10.866
    endloop
  endfacet
  facet normal 0 0.648491 -0.761222
    outer loop
      vertex 142.133 42.7544 -10.6428
      vertex 57.9132 42.4924 -10.866
      vertex 57.867 42.7544 -10.6428
    endloop
  endfacet
  facet normal -0.558781 0.665962 -0.494225
    outer loop
      vertex 57.4132 42.4924 -10.6428
      vertex 57.5302 42.8138 -10.342
      vertex 57.617 42.6634 -10.6428
    endloop
  endfacet
  facet normal -0.752792 0.434733 -0.494278
    outer loop
      vertex 57.117 42.3214 -10.342
      vertex 57.2802 42.604 -10.342
      vertex 57.2802 42.262 -10.6428
    endloop
  endfacet
  facet normal -0.970259 0.171169 -0.171169
    outer loop
      vertex 57.0603 42 -10.342
      vertex 57.0603 42.342 -10
      vertex 57.117 42.3214 -10.342
    endloop
  endfacet
  facet normal -0.297347 0.816887 -0.494247
    outer loop
      vertex 57.5302 42.8138 -10.342
      vertex 57.867 42.7544 -10.6428
      vertex 57.617 42.6634 -10.6428
    endloop
  endfacet
  facet normal -0.221816 0.609383 -0.761216
    outer loop
      vertex 57.617 42.6634 -10.6428
      vertex 57.867 42.7544 -10.6428
      vertex 57.75 42.433 -10.866
    endloop
  endfacet
  facet normal -0.633351 0.754708 -0.17112
    outer loop
      vertex 57.2802 42.604 -10.342
      vertex 57.5 42.866 -10
      vertex 57.5302 42.8138 -10.342
    endloop
  endfacet
  facet normal -0.642787 0.766045 0
    outer loop
      vertex 57.5 42.866 -10
      vertex 57.234 42.6428 0
      vertex 57.5 42.866 0
    endloop
  endfacet
  facet normal -0.642787 0.766045 0
    outer loop
      vertex 57.234 42.6428 0
      vertex 57.5 42.866 -10
      vertex 57.234 42.6428 -10
    endloop
  endfacet
endsolid OpenSCAD_Model
