solid OpenSCAD_Model
  facet normal -0.994579 -0.103979 0
    outer loop
      vertex 12.5 0 -1.5
      vertex 12.2268 2.61321 1.5
      vertex 12.2268 2.61321 -1.5
    endloop
  endfacet
  facet normal -0.994579 -0.103979 0
    outer loop
      vertex 12.2268 2.61321 1.5
      vertex 12.5 0 -1.5
      vertex 12.5 0 1.5
    endloop
  endfacet
  facet normal 0.994579 -0.103979 0
    outer loop
      vertex -12.5 0 1.5
      vertex -12.2268 2.61321 -1.5
      vertex -12.2268 2.61321 1.5
    endloop
  endfacet
  facet normal 0.994579 -0.103979 0
    outer loop
      vertex -12.2268 2.61321 -1.5
      vertex -12.5 0 1.5
      vertex -12.5 0 -1.5
    endloop
  endfacet
  facet normal 0 -1 0
    outer loop
      vertex -1.30661 12.5 -1.5
      vertex 1.30661 12.5 1.5
      vertex -1.30661 12.5 1.5
    endloop
  endfacet
  facet normal 0 -1 -0
    outer loop
      vertex 1.30661 12.5 1.5
      vertex -1.30661 12.5 -1.5
      vertex 1.30661 12.5 -1.5
    endloop
  endfacet
  facet normal 0 1 -0
    outer loop
      vertex 1.30661 -12.5 -1.5
      vertex -1.30661 -12.5 1.5
      vertex 1.30661 -12.5 1.5
    endloop
  endfacet
  facet normal 0 1 0
    outer loop
      vertex -1.30661 -12.5 1.5
      vertex 1.30661 -12.5 -1.5
      vertex -1.30661 -12.5 -1.5
    endloop
  endfacet
  facet normal -0.589887 -0.807486 0
    outer loop
      vertex 6.25 10.8849 -1.5
      vertex 8.36413 9.34048 1.5
      vertex 6.25 10.8849 1.5
    endloop
  endfacet
  facet normal -0.589887 -0.807486 -0
    outer loop
      vertex 8.36413 9.34048 1.5
      vertex 6.25 10.8849 -1.5
      vertex 8.36413 9.34048 -1.5
    endloop
  endfacet
  facet normal 0.589887 -0.807486 0
    outer loop
      vertex -8.36413 9.34048 -1.5
      vertex -6.25 10.8849 1.5
      vertex -8.36413 9.34048 1.5
    endloop
  endfacet
  facet normal 0.589887 -0.807486 0
    outer loop
      vertex -6.25 10.8849 1.5
      vertex -8.36413 9.34048 -1.5
      vertex -6.25 10.8849 -1.5
    endloop
  endfacet
  facet normal 0.209004 -0.977915 0
    outer loop
      vertex -3.86271 11.9537 -1.5
      vertex -1.30661 12.5 1.5
      vertex -3.86271 11.9537 1.5
    endloop
  endfacet
  facet normal 0.209004 -0.977915 0
    outer loop
      vertex -1.30661 12.5 1.5
      vertex -3.86271 11.9537 -1.5
      vertex -1.30661 12.5 -1.5
    endloop
  endfacet
  facet normal -0.867212 0.497939 0
    outer loop
      vertex 10.1127 -7.38779 -1.5
      vertex 11.4193 -5.11221 1.5
      vertex 11.4193 -5.11221 -1.5
    endloop
  endfacet
  facet normal -0.867212 0.497939 0
    outer loop
      vertex 11.4193 -5.11221 1.5
      vertex 10.1127 -7.38779 -1.5
      vertex 10.1127 -7.38779 1.5
    endloop
  endfacet
  facet normal -0.867212 -0.497939 0
    outer loop
      vertex 11.4193 5.11221 -1.5
      vertex 10.1127 7.38779 1.5
      vertex 10.1127 7.38779 -1.5
    endloop
  endfacet
  facet normal -0.867212 -0.497939 0
    outer loop
      vertex 10.1127 7.38779 1.5
      vertex 11.4193 5.11221 -1.5
      vertex 11.4193 5.11221 1.5
    endloop
  endfacet
  facet normal -0.951556 -0.307476 0
    outer loop
      vertex 12.2268 2.61321 -1.5
      vertex 11.4193 5.11221 1.5
      vertex 11.4193 5.11221 -1.5
    endloop
  endfacet
  facet normal -0.951556 -0.307476 0
    outer loop
      vertex 11.4193 5.11221 1.5
      vertex 12.2268 2.61321 -1.5
      vertex 12.2268 2.61321 1.5
    endloop
  endfacet
  facet normal -0.744971 -0.667097 0
    outer loop
      vertex 10.1127 7.38779 -1.5
      vertex 8.36413 9.34048 1.5
      vertex 8.36413 9.34048 -1.5
    endloop
  endfacet
  facet normal -0.744971 -0.667097 0
    outer loop
      vertex 8.36413 9.34048 1.5
      vertex 10.1127 7.38779 -1.5
      vertex 10.1127 7.38779 1.5
    endloop
  endfacet
  facet normal -0.209004 -0.977915 0
    outer loop
      vertex 1.30661 12.5 -1.5
      vertex 3.86271 11.9537 1.5
      vertex 1.30661 12.5 1.5
    endloop
  endfacet
  facet normal -0.209004 -0.977915 -0
    outer loop
      vertex 3.86271 11.9537 1.5
      vertex 1.30661 12.5 -1.5
      vertex 3.86271 11.9537 -1.5
    endloop
  endfacet
  facet normal -0.408621 -0.912704 0
    outer loop
      vertex 3.86271 11.9537 -1.5
      vertex 6.25 10.8849 1.5
      vertex 3.86271 11.9537 1.5
    endloop
  endfacet
  facet normal -0.408621 -0.912704 -0
    outer loop
      vertex 6.25 10.8849 1.5
      vertex 3.86271 11.9537 -1.5
      vertex 6.25 10.8849 -1.5
    endloop
  endfacet
  facet normal 0.867212 -0.497939 0
    outer loop
      vertex -11.4193 5.11221 1.5
      vertex -10.1127 7.38779 -1.5
      vertex -10.1127 7.38779 1.5
    endloop
  endfacet
  facet normal 0.867212 -0.497939 0
    outer loop
      vertex -10.1127 7.38779 -1.5
      vertex -11.4193 5.11221 1.5
      vertex -11.4193 5.11221 -1.5
    endloop
  endfacet
  facet normal 0.744971 -0.667097 0
    outer loop
      vertex -10.1127 7.38779 1.5
      vertex -8.36413 9.34048 -1.5
      vertex -8.36413 9.34048 1.5
    endloop
  endfacet
  facet normal 0.744971 -0.667097 0
    outer loop
      vertex -8.36413 9.34048 -1.5
      vertex -10.1127 7.38779 1.5
      vertex -10.1127 7.38779 -1.5
    endloop
  endfacet
  facet normal 0.951556 -0.307476 0
    outer loop
      vertex -12.2268 2.61321 1.5
      vertex -11.4193 5.11221 -1.5
      vertex -11.4193 5.11221 1.5
    endloop
  endfacet
  facet normal 0.951556 -0.307476 0
    outer loop
      vertex -11.4193 5.11221 -1.5
      vertex -12.2268 2.61321 1.5
      vertex -12.2268 2.61321 -1.5
    endloop
  endfacet
  facet normal 0 0 -1
    outer loop
      vertex 12.2268 -2.61321 1.5
      vertex 12.2268 2.61321 1.5
      vertex 12.5 0 1.5
    endloop
  endfacet
  facet normal 0 0 -1
    outer loop
      vertex 11.4193 -5.11221 1.5
      vertex 12.2268 2.61321 1.5
      vertex 12.2268 -2.61321 1.5
    endloop
  endfacet
  facet normal 0 0 -1
    outer loop
      vertex 11.4193 -5.11221 1.5
      vertex 11.4193 5.11221 1.5
      vertex 12.2268 2.61321 1.5
    endloop
  endfacet
  facet normal 0 0 -1
    outer loop
      vertex 10.1127 -7.38779 1.5
      vertex 11.4193 5.11221 1.5
      vertex 11.4193 -5.11221 1.5
    endloop
  endfacet
  facet normal 0 0 -1
    outer loop
      vertex 10.1127 -7.38779 1.5
      vertex 10.1127 7.38779 1.5
      vertex 11.4193 5.11221 1.5
    endloop
  endfacet
  facet normal 0 0 -1
    outer loop
      vertex 8.36413 -9.34048 1.5
      vertex 10.1127 7.38779 1.5
      vertex 10.1127 -7.38779 1.5
    endloop
  endfacet
  facet normal 0 0 -1
    outer loop
      vertex 8.36413 -9.34048 1.5
      vertex 8.36413 9.34048 1.5
      vertex 10.1127 7.38779 1.5
    endloop
  endfacet
  facet normal 0 0 -1
    outer loop
      vertex 6.25 -10.8849 1.5
      vertex 8.36413 9.34048 1.5
      vertex 8.36413 -9.34048 1.5
    endloop
  endfacet
  facet normal 0 0 -1
    outer loop
      vertex 6.25 -10.8849 1.5
      vertex 6.25 10.8849 1.5
      vertex 8.36413 9.34048 1.5
    endloop
  endfacet
  facet normal 0 0 -1
    outer loop
      vertex 3.86271 -11.9537 1.5
      vertex 6.25 10.8849 1.5
      vertex 6.25 -10.8849 1.5
    endloop
  endfacet
  facet normal 0 0 -1
    outer loop
      vertex 3.86271 -11.9537 1.5
      vertex 3.86271 11.9537 1.5
      vertex 6.25 10.8849 1.5
    endloop
  endfacet
  facet normal 0 0 -1
    outer loop
      vertex 1.30661 -12.5 1.5
      vertex 3.86271 11.9537 1.5
      vertex 3.86271 -11.9537 1.5
    endloop
  endfacet
  facet normal 0 0 -1
    outer loop
      vertex 1.30661 -12.5 1.5
      vertex 1.30661 12.5 1.5
      vertex 3.86271 11.9537 1.5
    endloop
  endfacet
  facet normal 0 0 -1
    outer loop
      vertex -1.30661 -12.5 1.5
      vertex 1.30661 12.5 1.5
      vertex 1.30661 -12.5 1.5
    endloop
  endfacet
  facet normal 0 0 -1
    outer loop
      vertex -1.30661 -12.5 1.5
      vertex -1.30661 12.5 1.5
      vertex 1.30661 12.5 1.5
    endloop
  endfacet
  facet normal 0 0 -1
    outer loop
      vertex -3.86271 -11.9537 1.5
      vertex -1.30661 12.5 1.5
      vertex -1.30661 -12.5 1.5
    endloop
  endfacet
  facet normal 0 0 -1
    outer loop
      vertex -3.86271 -11.9537 1.5
      vertex -3.86271 11.9537 1.5
      vertex -1.30661 12.5 1.5
    endloop
  endfacet
  facet normal 0 0 -1
    outer loop
      vertex -3.86271 -11.9537 1.5
      vertex -6.25 10.8849 1.5
      vertex -3.86271 11.9537 1.5
    endloop
  endfacet
  facet normal 0 0 -1
    outer loop
      vertex -6.25 -10.8849 1.5
      vertex -6.25 10.8849 1.5
      vertex -3.86271 -11.9537 1.5
    endloop
  endfacet
  facet normal 0 0 -1
    outer loop
      vertex -8.36413 -9.34048 1.5
      vertex -6.25 10.8849 1.5
      vertex -6.25 -10.8849 1.5
    endloop
  endfacet
  facet normal 0 0 -1
    outer loop
      vertex -8.36413 -9.34048 1.5
      vertex -8.36413 9.34048 1.5
      vertex -6.25 10.8849 1.5
    endloop
  endfacet
  facet normal 0 0 -1
    outer loop
      vertex -10.1127 -7.38779 1.5
      vertex -8.36413 9.34048 1.5
      vertex -8.36413 -9.34048 1.5
    endloop
  endfacet
  facet normal 0 0 -1
    outer loop
      vertex -10.1127 -7.38779 1.5
      vertex -10.1127 7.38779 1.5
      vertex -8.36413 9.34048 1.5
    endloop
  endfacet
  facet normal 0 0 -1
    outer loop
      vertex -11.4193 -5.11221 1.5
      vertex -10.1127 7.38779 1.5
      vertex -10.1127 -7.38779 1.5
    endloop
  endfacet
  facet normal 0 0 -1
    outer loop
      vertex -11.4193 -5.11221 1.5
      vertex -11.4193 5.11221 1.5
      vertex -10.1127 7.38779 1.5
    endloop
  endfacet
  facet normal 0 0 -1
    outer loop
      vertex -12.2268 -2.61321 1.5
      vertex -11.4193 5.11221 1.5
      vertex -11.4193 -5.11221 1.5
    endloop
  endfacet
  facet normal 0 0 -1
    outer loop
      vertex -12.2268 -2.61321 1.5
      vertex -12.2268 2.61321 1.5
      vertex -11.4193 5.11221 1.5
    endloop
  endfacet
  facet normal 0 -0 -1
    outer loop
      vertex -12.2268 2.61321 1.5
      vertex -12.2268 -2.61321 1.5
      vertex -12.5 0 1.5
    endloop
  endfacet
  facet normal 0.408621 -0.912704 0
    outer loop
      vertex -6.25 10.8849 -1.5
      vertex -3.86271 11.9537 1.5
      vertex -6.25 10.8849 1.5
    endloop
  endfacet
  facet normal 0.408621 -0.912704 0
    outer loop
      vertex -3.86271 11.9537 1.5
      vertex -6.25 10.8849 -1.5
      vertex -3.86271 11.9537 -1.5
    endloop
  endfacet
  facet normal 0 0 -1
    outer loop
      vertex 12.5 0 -1.5
      vertex 14.5 0 -1.5
      vertex 14.1831 -3.03133 -1.5
    endloop
  endfacet
  facet normal 0 0 -1
    outer loop
      vertex 12.2268 -2.61321 -1.5
      vertex 14.1831 -3.03133 -1.5
      vertex 13.2464 -5.93017 -1.5
    endloop
  endfacet
  facet normal 0 0 -1
    outer loop
      vertex 14.5 0 -1.5
      vertex 12.5 0 -1.5
      vertex 14.1831 3.03133 -1.5
    endloop
  endfacet
  facet normal 0 0 -1
    outer loop
      vertex 12.2268 2.61321 -1.5
      vertex 14.1831 3.03133 -1.5
      vertex 12.5 0 -1.5
    endloop
  endfacet
  facet normal 0 0 -1
    outer loop
      vertex 14.1831 -3.03133 -1.5
      vertex 12.2268 -2.61321 -1.5
      vertex 12.5 0 -1.5
    endloop
  endfacet
  facet normal 0 0 -1
    outer loop
      vertex 11.4193 -5.11221 -1.5
      vertex 13.2464 -5.93017 -1.5
      vertex 11.7307 -8.56983 -1.5
    endloop
  endfacet
  facet normal 0 0 -1
    outer loop
      vertex 13.2464 -5.93017 -1.5
      vertex 11.4193 -5.11221 -1.5
      vertex 12.2268 -2.61321 -1.5
    endloop
  endfacet
  facet normal 0 0 -1
    outer loop
      vertex 11.7307 -8.56983 -1.5
      vertex 10.1127 -7.38779 -1.5
      vertex 11.4193 -5.11221 -1.5
    endloop
  endfacet
  facet normal 0 0 -1
    outer loop
      vertex 8.36413 -9.34048 -1.5
      vertex 11.7307 -8.56983 -1.5
      vertex 9.70239 -10.835 -1.5
    endloop
  endfacet
  facet normal -0 0 -1
    outer loop
      vertex 11.7307 -8.56983 -1.5
      vertex 8.36413 -9.34048 -1.5
      vertex 10.1127 -7.38779 -1.5
    endloop
  endfacet
  facet normal 0 0 -1
    outer loop
      vertex 6.25 -10.8849 -1.5
      vertex 9.70239 -10.835 -1.5
      vertex 7.25 -12.6265 -1.5
    endloop
  endfacet
  facet normal -0 0 -1
    outer loop
      vertex 9.70239 -10.835 -1.5
      vertex 6.25 -10.8849 -1.5
      vertex 8.36413 -9.34048 -1.5
    endloop
  endfacet
  facet normal 0 0 -1
    outer loop
      vertex 4.48075 -13.8663 -1.5
      vertex 6.25 -10.8849 -1.5
      vertex 7.25 -12.6265 -1.5
    endloop
  endfacet
  facet normal 0 0 -1
    outer loop
      vertex 4.48075 -13.8663 -1.5
      vertex 3.86271 -11.9537 -1.5
      vertex 6.25 -10.8849 -1.5
    endloop
  endfacet
  facet normal 0 0 -1
    outer loop
      vertex 1.51566 -14.5 -1.5
      vertex 3.86271 -11.9537 -1.5
      vertex 4.48075 -13.8663 -1.5
    endloop
  endfacet
  facet normal 0 0 -1
    outer loop
      vertex 1.51566 -14.5 -1.5
      vertex 1.30661 -12.5 -1.5
      vertex 3.86271 -11.9537 -1.5
    endloop
  endfacet
  facet normal 0 0 -1
    outer loop
      vertex 1.51566 -14.5 -1.5
      vertex -1.30661 -12.5 -1.5
      vertex 1.30661 -12.5 -1.5
    endloop
  endfacet
  facet normal 0 0 -1
    outer loop
      vertex -1.51566 -14.5 -1.5
      vertex -1.30661 -12.5 -1.5
      vertex 1.51566 -14.5 -1.5
    endloop
  endfacet
  facet normal 0 0 -1
    outer loop
      vertex -1.51566 -14.5 -1.5
      vertex -3.86271 -11.9537 -1.5
      vertex -1.30661 -12.5 -1.5
    endloop
  endfacet
  facet normal 0 0 -1
    outer loop
      vertex -4.48075 -13.8663 -1.5
      vertex -3.86271 -11.9537 -1.5
      vertex -1.51566 -14.5 -1.5
    endloop
  endfacet
  facet normal 0 0 -1
    outer loop
      vertex -4.48075 -13.8663 -1.5
      vertex -6.25 -10.8849 -1.5
      vertex -3.86271 -11.9537 -1.5
    endloop
  endfacet
  facet normal 0 0 -1
    outer loop
      vertex -7.25 -12.6265 -1.5
      vertex -6.25 -10.8849 -1.5
      vertex -4.48075 -13.8663 -1.5
    endloop
  endfacet
  facet normal 0 0 -1
    outer loop
      vertex -9.70239 -10.835 -1.5
      vertex -6.25 -10.8849 -1.5
      vertex -7.25 -12.6265 -1.5
    endloop
  endfacet
  facet normal 0 0 -1
    outer loop
      vertex -6.25 -10.8849 -1.5
      vertex -9.70239 -10.835 -1.5
      vertex -8.36413 -9.34048 -1.5
    endloop
  endfacet
  facet normal 0 0 -1
    outer loop
      vertex -11.7307 -8.56983 -1.5
      vertex -8.36413 -9.34048 -1.5
      vertex -9.70239 -10.835 -1.5
    endloop
  endfacet
  facet normal 0 0 -1
    outer loop
      vertex -8.36413 -9.34048 -1.5
      vertex -11.7307 -8.56983 -1.5
      vertex -10.1127 -7.38779 -1.5
    endloop
  endfacet
  facet normal -0 0 -1
    outer loop
      vertex -10.1127 -7.38779 -1.5
      vertex -11.7307 -8.56983 -1.5
      vertex -11.4193 -5.11221 -1.5
    endloop
  endfacet
  facet normal 0 0 -1
    outer loop
      vertex -13.2464 -5.93017 -1.5
      vertex -11.4193 -5.11221 -1.5
      vertex -11.7307 -8.56983 -1.5
    endloop
  endfacet
  facet normal -0 0 -1
    outer loop
      vertex -11.4193 -5.11221 -1.5
      vertex -13.2464 -5.93017 -1.5
      vertex -12.2268 -2.61321 -1.5
    endloop
  endfacet
  facet normal 0 0 -1
    outer loop
      vertex -14.1831 -3.03133 -1.5
      vertex -12.2268 -2.61321 -1.5
      vertex -13.2464 -5.93017 -1.5
    endloop
  endfacet
  facet normal -0 0 -1
    outer loop
      vertex 14.1831 3.03133 -1.5
      vertex 12.2268 2.61321 -1.5
      vertex 13.2464 5.93017 -1.5
    endloop
  endfacet
  facet normal 0 0 -1
    outer loop
      vertex 11.4193 5.11221 -1.5
      vertex 13.2464 5.93017 -1.5
      vertex 12.2268 2.61321 -1.5
    endloop
  endfacet
  facet normal -0 0 -1
    outer loop
      vertex 13.2464 5.93017 -1.5
      vertex 11.4193 5.11221 -1.5
      vertex 11.7307 8.56983 -1.5
    endloop
  endfacet
  facet normal 0 0 -1
    outer loop
      vertex 10.1127 7.38779 -1.5
      vertex 11.7307 8.56983 -1.5
      vertex 11.4193 5.11221 -1.5
    endloop
  endfacet
  facet normal 0 0 -1
    outer loop
      vertex 8.36413 9.34048 -1.5
      vertex 11.7307 8.56983 -1.5
      vertex 10.1127 7.38779 -1.5
    endloop
  endfacet
  facet normal 0 0 -1
    outer loop
      vertex 11.7307 8.56983 -1.5
      vertex 8.36413 9.34048 -1.5
      vertex 9.70239 10.835 -1.5
    endloop
  endfacet
  facet normal 0 0 -1
    outer loop
      vertex 6.25 10.8849 -1.5
      vertex 9.70239 10.835 -1.5
      vertex 8.36413 9.34048 -1.5
    endloop
  endfacet
  facet normal 0 0 -1
    outer loop
      vertex 9.70239 10.835 -1.5
      vertex 6.25 10.8849 -1.5
      vertex 7.25 12.6265 -1.5
    endloop
  endfacet
  facet normal 0 0 -1
    outer loop
      vertex 6.25 10.8849 -1.5
      vertex 4.48075 13.8663 -1.5
      vertex 7.25 12.6265 -1.5
    endloop
  endfacet
  facet normal 0 0 -1
    outer loop
      vertex 3.86271 11.9537 -1.5
      vertex 4.48075 13.8663 -1.5
      vertex 6.25 10.8849 -1.5
    endloop
  endfacet
  facet normal 0 0 -1
    outer loop
      vertex 3.86271 11.9537 -1.5
      vertex 1.51566 14.5 -1.5
      vertex 4.48075 13.8663 -1.5
    endloop
  endfacet
  facet normal 0 0 -1
    outer loop
      vertex 1.30661 12.5 -1.5
      vertex 1.51566 14.5 -1.5
      vertex 3.86271 11.9537 -1.5
    endloop
  endfacet
  facet normal 0 0 -1
    outer loop
      vertex -1.30661 12.5 -1.5
      vertex 1.51566 14.5 -1.5
      vertex 1.30661 12.5 -1.5
    endloop
  endfacet
  facet normal 0 0 -1
    outer loop
      vertex -1.30661 12.5 -1.5
      vertex -1.51566 14.5 -1.5
      vertex 1.51566 14.5 -1.5
    endloop
  endfacet
  facet normal 0 0 -1
    outer loop
      vertex -3.86271 11.9537 -1.5
      vertex -1.51566 14.5 -1.5
      vertex -1.30661 12.5 -1.5
    endloop
  endfacet
  facet normal 0 0 -1
    outer loop
      vertex -3.86271 11.9537 -1.5
      vertex -4.48075 13.8663 -1.5
      vertex -1.51566 14.5 -1.5
    endloop
  endfacet
  facet normal 0 0 -1
    outer loop
      vertex -6.25 10.8849 -1.5
      vertex -4.48075 13.8663 -1.5
      vertex -3.86271 11.9537 -1.5
    endloop
  endfacet
  facet normal 0 0 -1
    outer loop
      vertex -6.25 10.8849 -1.5
      vertex -7.25 12.6265 -1.5
      vertex -4.48075 13.8663 -1.5
    endloop
  endfacet
  facet normal 0 0 -1
    outer loop
      vertex -9.70239 10.835 -1.5
      vertex -6.25 10.8849 -1.5
      vertex -8.36413 9.34048 -1.5
    endloop
  endfacet
  facet normal -0 0 -1
    outer loop
      vertex -6.25 10.8849 -1.5
      vertex -9.70239 10.835 -1.5
      vertex -7.25 12.6265 -1.5
    endloop
  endfacet
  facet normal 0 0 -1
    outer loop
      vertex -11.7307 8.56983 -1.5
      vertex -8.36413 9.34048 -1.5
      vertex -10.1127 7.38779 -1.5
    endloop
  endfacet
  facet normal 0 0 -1
    outer loop
      vertex -11.7307 8.56983 -1.5
      vertex -10.1127 7.38779 -1.5
      vertex -11.4193 5.11221 -1.5
    endloop
  endfacet
  facet normal -0 0 -1
    outer loop
      vertex -8.36413 9.34048 -1.5
      vertex -11.7307 8.56983 -1.5
      vertex -9.70239 10.835 -1.5
    endloop
  endfacet
  facet normal 0 0 -1
    outer loop
      vertex -13.2464 5.93017 -1.5
      vertex -11.4193 5.11221 -1.5
      vertex -12.2268 2.61321 -1.5
    endloop
  endfacet
  facet normal 0 0 -1
    outer loop
      vertex -14.1831 3.03133 -1.5
      vertex -12.2268 2.61321 -1.5
      vertex -12.5 0 -1.5
    endloop
  endfacet
  facet normal -0 0 -1
    outer loop
      vertex -12.2268 -2.61321 -1.5
      vertex -14.1831 -3.03133 -1.5
      vertex -12.5 0 -1.5
    endloop
  endfacet
  facet normal 0 0 -1
    outer loop
      vertex -11.4193 5.11221 -1.5
      vertex -13.2464 5.93017 -1.5
      vertex -11.7307 8.56983 -1.5
    endloop
  endfacet
  facet normal 0 0 -1
    outer loop
      vertex -14.5 0 -1.5
      vertex -12.5 0 -1.5
      vertex -14.1831 -3.03133 -1.5
    endloop
  endfacet
  facet normal 0 0 -1
    outer loop
      vertex -12.2268 2.61321 -1.5
      vertex -14.1831 3.03133 -1.5
      vertex -13.2464 5.93017 -1.5
    endloop
  endfacet
  facet normal 0 0 -1
    outer loop
      vertex -12.5 0 -1.5
      vertex -14.5 0 -1.5
      vertex -14.1831 3.03133 -1.5
    endloop
  endfacet
  facet normal -0.589887 0.807486 0
    outer loop
      vertex 8.36413 -9.34048 -1.5
      vertex 6.25 -10.8849 1.5
      vertex 8.36413 -9.34048 1.5
    endloop
  endfacet
  facet normal -0.589887 0.807486 0
    outer loop
      vertex 6.25 -10.8849 1.5
      vertex 8.36413 -9.34048 -1.5
      vertex 6.25 -10.8849 -1.5
    endloop
  endfacet
  facet normal -0.744971 0.667097 0
    outer loop
      vertex 8.36413 -9.34048 -1.5
      vertex 10.1127 -7.38779 1.5
      vertex 10.1127 -7.38779 -1.5
    endloop
  endfacet
  facet normal -0.744971 0.667097 0
    outer loop
      vertex 10.1127 -7.38779 1.5
      vertex 8.36413 -9.34048 -1.5
      vertex 8.36413 -9.34048 1.5
    endloop
  endfacet
  facet normal -0.951556 0.307476 0
    outer loop
      vertex 11.4193 -5.11221 -1.5
      vertex 12.2268 -2.61321 1.5
      vertex 12.2268 -2.61321 -1.5
    endloop
  endfacet
  facet normal -0.951556 0.307476 0
    outer loop
      vertex 12.2268 -2.61321 1.5
      vertex 11.4193 -5.11221 -1.5
      vertex 11.4193 -5.11221 1.5
    endloop
  endfacet
  facet normal -0.994579 0.103979 0
    outer loop
      vertex 12.2268 -2.61321 -1.5
      vertex 12.5 0 1.5
      vertex 12.5 0 -1.5
    endloop
  endfacet
  facet normal -0.994579 0.103979 0
    outer loop
      vertex 12.5 0 1.5
      vertex 12.2268 -2.61321 -1.5
      vertex 12.2268 -2.61321 1.5
    endloop
  endfacet
  facet normal 0.867212 0.497939 0
    outer loop
      vertex -10.1127 -7.38779 1.5
      vertex -11.4193 -5.11221 -1.5
      vertex -11.4193 -5.11221 1.5
    endloop
  endfacet
  facet normal 0.867212 0.497939 0
    outer loop
      vertex -11.4193 -5.11221 -1.5
      vertex -10.1127 -7.38779 1.5
      vertex -10.1127 -7.38779 -1.5
    endloop
  endfacet
  facet normal 0.744971 0.667097 0
    outer loop
      vertex -8.36413 -9.34048 1.5
      vertex -10.1127 -7.38779 -1.5
      vertex -10.1127 -7.38779 1.5
    endloop
  endfacet
  facet normal 0.744971 0.667097 0
    outer loop
      vertex -10.1127 -7.38779 -1.5
      vertex -8.36413 -9.34048 1.5
      vertex -8.36413 -9.34048 -1.5
    endloop
  endfacet
  facet normal 0.209004 0.977915 -0
    outer loop
      vertex -1.30661 -12.5 -1.5
      vertex -3.86271 -11.9537 1.5
      vertex -1.30661 -12.5 1.5
    endloop
  endfacet
  facet normal 0.209004 0.977915 0
    outer loop
      vertex -3.86271 -11.9537 1.5
      vertex -1.30661 -12.5 -1.5
      vertex -3.86271 -11.9537 -1.5
    endloop
  endfacet
  facet normal 0.951556 0.307476 0
    outer loop
      vertex -11.4193 -5.11221 1.5
      vertex -12.2268 -2.61321 -1.5
      vertex -12.2268 -2.61321 1.5
    endloop
  endfacet
  facet normal 0.951556 0.307476 0
    outer loop
      vertex -12.2268 -2.61321 -1.5
      vertex -11.4193 -5.11221 1.5
      vertex -11.4193 -5.11221 -1.5
    endloop
  endfacet
  facet normal 0.994579 0.103979 0
    outer loop
      vertex -12.2268 -2.61321 1.5
      vertex -12.5 0 -1.5
      vertex -12.5 0 1.5
    endloop
  endfacet
  facet normal 0.994579 0.103979 0
    outer loop
      vertex -12.5 0 -1.5
      vertex -12.2268 -2.61321 1.5
      vertex -12.2268 -2.61321 -1.5
    endloop
  endfacet
  facet normal -0.408621 0.912704 0
    outer loop
      vertex 6.25 -10.8849 -1.5
      vertex 3.86271 -11.9537 1.5
      vertex 6.25 -10.8849 1.5
    endloop
  endfacet
  facet normal -0.408621 0.912704 0
    outer loop
      vertex 3.86271 -11.9537 1.5
      vertex 6.25 -10.8849 -1.5
      vertex 3.86271 -11.9537 -1.5
    endloop
  endfacet
  facet normal -0.209004 0.977915 0
    outer loop
      vertex 3.86271 -11.9537 -1.5
      vertex 1.30661 -12.5 1.5
      vertex 3.86271 -11.9537 1.5
    endloop
  endfacet
  facet normal -0.209004 0.977915 0
    outer loop
      vertex 1.30661 -12.5 1.5
      vertex 3.86271 -11.9537 -1.5
      vertex 1.30661 -12.5 -1.5
    endloop
  endfacet
  facet normal 0.408621 0.912704 -0
    outer loop
      vertex -3.86271 -11.9537 -1.5
      vertex -6.25 -10.8849 1.5
      vertex -3.86271 -11.9537 1.5
    endloop
  endfacet
  facet normal 0.408621 0.912704 0
    outer loop
      vertex -6.25 -10.8849 1.5
      vertex -3.86271 -11.9537 -1.5
      vertex -6.25 -10.8849 -1.5
    endloop
  endfacet
  facet normal 0.589887 0.807486 -0
    outer loop
      vertex -6.25 -10.8849 -1.5
      vertex -8.36413 -9.34048 1.5
      vertex -6.25 -10.8849 1.5
    endloop
  endfacet
  facet normal 0.589887 0.807486 0
    outer loop
      vertex -8.36413 -9.34048 1.5
      vertex -6.25 -10.8849 -1.5
      vertex -8.36413 -9.34048 -1.5
    endloop
  endfacet
  facet normal -0.994581 -0.103967 0
    outer loop
      vertex 15 0 2.5
      vertex 14.6722 3.13585 5.5
      vertex 14.6722 3.13585 2.5
    endloop
  endfacet
  facet normal -0.994581 -0.103967 0
    outer loop
      vertex 14.6722 3.13585 5.5
      vertex 15 0 2.5
      vertex 15 0 5.5
    endloop
  endfacet
  facet normal 0.994581 -0.103967 0
    outer loop
      vertex -15 0 5.5
      vertex -14.6722 3.13585 2.5
      vertex -14.6722 3.13585 5.5
    endloop
  endfacet
  facet normal 0.994581 -0.103967 0
    outer loop
      vertex -14.6722 3.13585 2.5
      vertex -15 0 5.5
      vertex -15 0 2.5
    endloop
  endfacet
  facet normal 0 -1 0
    outer loop
      vertex -1.56793 15 2.5
      vertex 1.56793 15 5.5
      vertex -1.56793 15 5.5
    endloop
  endfacet
  facet normal 0 -1 -0
    outer loop
      vertex 1.56793 15 5.5
      vertex -1.56793 15 2.5
      vertex 1.56793 15 2.5
    endloop
  endfacet
  facet normal 0 1 -0
    outer loop
      vertex 1.56793 -15 2.5
      vertex -1.56793 -15 5.5
      vertex 1.56793 -15 5.5
    endloop
  endfacet
  facet normal 0 1 0
    outer loop
      vertex -1.56793 -15 5.5
      vertex 1.56793 -15 2.5
      vertex -1.56793 -15 2.5
    endloop
  endfacet
  facet normal -0.589879 -0.807491 0
    outer loop
      vertex 7.5 13.0619 2.5
      vertex 10.037 11.2086 5.5
      vertex 7.5 13.0619 5.5
    endloop
  endfacet
  facet normal -0.589879 -0.807491 -0
    outer loop
      vertex 10.037 11.2086 5.5
      vertex 7.5 13.0619 2.5
      vertex 10.037 11.2086 2.5
    endloop
  endfacet
  facet normal 0.744973 -0.667095 0
    outer loop
      vertex -12.1353 8.86534 5.5
      vertex -10.037 11.2086 2.5
      vertex -10.037 11.2086 5.5
    endloop
  endfacet
  facet normal 0.744973 -0.667095 0
    outer loop
      vertex -10.037 11.2086 2.5
      vertex -12.1353 8.86534 5.5
      vertex -12.1353 8.86534 2.5
    endloop
  endfacet
  facet normal 0 0 1
    outer loop
      vertex 15 0 5.5
      vertex 17 0 5.5
      vertex 16.6285 3.55397 5.5
    endloop
  endfacet
  facet normal 0 0 1
    outer loop
      vertex 14.6722 3.13585 5.5
      vertex 16.6285 3.55397 5.5
      vertex 15.5303 6.95261 5.5
    endloop
  endfacet
  facet normal 0 0 1
    outer loop
      vertex 17 0 5.5
      vertex 15 0 5.5
      vertex 16.6285 -3.55397 5.5
    endloop
  endfacet
  facet normal -0 0 1
    outer loop
      vertex 14.6722 -3.13585 5.5
      vertex 16.6285 -3.55397 5.5
      vertex 15 0 5.5
    endloop
  endfacet
  facet normal 0 0 1
    outer loop
      vertex 16.6285 3.55397 5.5
      vertex 14.6722 3.13585 5.5
      vertex 15 0 5.5
    endloop
  endfacet
  facet normal 0 0 1
    outer loop
      vertex 13.7032 6.13465 5.5
      vertex 15.5303 6.95261 5.5
      vertex 13.7533 10.0474 5.5
    endloop
  endfacet
  facet normal 0 0 1
    outer loop
      vertex 15.5303 6.95261 5.5
      vertex 13.7032 6.13465 5.5
      vertex 14.6722 3.13585 5.5
    endloop
  endfacet
  facet normal 0 0 1
    outer loop
      vertex 13.7533 10.0474 5.5
      vertex 12.1353 8.86534 5.5
      vertex 13.7032 6.13465 5.5
    endloop
  endfacet
  facet normal -0 0 1
    outer loop
      vertex 10.037 11.2086 5.5
      vertex 13.7533 10.0474 5.5
      vertex 11.3752 12.7031 5.5
    endloop
  endfacet
  facet normal 0 0 1
    outer loop
      vertex 13.7533 10.0474 5.5
      vertex 10.037 11.2086 5.5
      vertex 12.1353 8.86534 5.5
    endloop
  endfacet
  facet normal -0 0 1
    outer loop
      vertex 7.5 13.0619 5.5
      vertex 11.3752 12.7031 5.5
      vertex 8.5 14.8035 5.5
    endloop
  endfacet
  facet normal 0 0 1
    outer loop
      vertex 11.3752 12.7031 5.5
      vertex 7.5 13.0619 5.5
      vertex 10.037 11.2086 5.5
    endloop
  endfacet
  facet normal 0 0 1
    outer loop
      vertex 5.25329 16.257 5.5
      vertex 7.5 13.0619 5.5
      vertex 8.5 14.8035 5.5
    endloop
  endfacet
  facet normal 0 0 1
    outer loop
      vertex 5.25329 16.257 5.5
      vertex 4.63525 14.3444 5.5
      vertex 7.5 13.0619 5.5
    endloop
  endfacet
  facet normal 0 0 1
    outer loop
      vertex 1.77698 17 5.5
      vertex 4.63525 14.3444 5.5
      vertex 5.25329 16.257 5.5
    endloop
  endfacet
  facet normal 0 0 1
    outer loop
      vertex 1.77698 17 5.5
      vertex 1.56793 15 5.5
      vertex 4.63525 14.3444 5.5
    endloop
  endfacet
  facet normal 0 0 1
    outer loop
      vertex 1.77698 17 5.5
      vertex -1.56793 15 5.5
      vertex 1.56793 15 5.5
    endloop
  endfacet
  facet normal -0 0 1
    outer loop
      vertex -1.77698 17 5.5
      vertex -1.56793 15 5.5
      vertex 1.77698 17 5.5
    endloop
  endfacet
  facet normal 0 0 1
    outer loop
      vertex -1.77698 17 5.5
      vertex -4.63525 14.3444 5.5
      vertex -1.56793 15 5.5
    endloop
  endfacet
  facet normal -0 0 1
    outer loop
      vertex -5.25329 16.257 5.5
      vertex -4.63525 14.3444 5.5
      vertex -1.77698 17 5.5
    endloop
  endfacet
  facet normal 0 0 1
    outer loop
      vertex -5.25329 16.257 5.5
      vertex -7.5 13.0619 5.5
      vertex -4.63525 14.3444 5.5
    endloop
  endfacet
  facet normal -0 0 1
    outer loop
      vertex -8.5 14.8035 5.5
      vertex -7.5 13.0619 5.5
      vertex -5.25329 16.257 5.5
    endloop
  endfacet
  facet normal 0 0 1
    outer loop
      vertex -11.3752 12.7031 5.5
      vertex -7.5 13.0619 5.5
      vertex -8.5 14.8035 5.5
    endloop
  endfacet
  facet normal 0 0 1
    outer loop
      vertex -7.5 13.0619 5.5
      vertex -11.3752 12.7031 5.5
      vertex -10.037 11.2086 5.5
    endloop
  endfacet
  facet normal 0 0 1
    outer loop
      vertex -13.7533 10.0474 5.5
      vertex -10.037 11.2086 5.5
      vertex -11.3752 12.7031 5.5
    endloop
  endfacet
  facet normal 0 0 1
    outer loop
      vertex -10.037 11.2086 5.5
      vertex -13.7533 10.0474 5.5
      vertex -12.1353 8.86534 5.5
    endloop
  endfacet
  facet normal 0 0 1
    outer loop
      vertex -12.1353 8.86534 5.5
      vertex -13.7533 10.0474 5.5
      vertex -13.7032 6.13465 5.5
    endloop
  endfacet
  facet normal -0 0 1
    outer loop
      vertex -15.5303 6.95261 5.5
      vertex -13.7032 6.13465 5.5
      vertex -13.7533 10.0474 5.5
    endloop
  endfacet
  facet normal -0 0 1
    outer loop
      vertex -16.6285 3.55397 5.5
      vertex -14.6722 3.13585 5.5
      vertex -15.5303 6.95261 5.5
    endloop
  endfacet
  facet normal 0 0 1
    outer loop
      vertex -13.7032 6.13465 5.5
      vertex -15.5303 6.95261 5.5
      vertex -14.6722 3.13585 5.5
    endloop
  endfacet
  facet normal 0 0 1
    outer loop
      vertex 16.6285 -3.55397 5.5
      vertex 14.6722 -3.13585 5.5
      vertex 15.5303 -6.95261 5.5
    endloop
  endfacet
  facet normal -0 0 1
    outer loop
      vertex 13.7032 -6.13465 5.5
      vertex 15.5303 -6.95261 5.5
      vertex 14.6722 -3.13585 5.5
    endloop
  endfacet
  facet normal 0 0 1
    outer loop
      vertex 15.5303 -6.95261 5.5
      vertex 13.7032 -6.13465 5.5
      vertex 13.7533 -10.0474 5.5
    endloop
  endfacet
  facet normal -0 0 1
    outer loop
      vertex 12.1353 -8.86534 5.5
      vertex 13.7533 -10.0474 5.5
      vertex 13.7032 -6.13465 5.5
    endloop
  endfacet
  facet normal 0 0 1
    outer loop
      vertex 10.037 -11.2086 5.5
      vertex 13.7533 -10.0474 5.5
      vertex 12.1353 -8.86534 5.5
    endloop
  endfacet
  facet normal 0 0 1
    outer loop
      vertex 13.7533 -10.0474 5.5
      vertex 10.037 -11.2086 5.5
      vertex 11.3752 -12.7031 5.5
    endloop
  endfacet
  facet normal 0 0 1
    outer loop
      vertex 7.5 -13.0619 5.5
      vertex 11.3752 -12.7031 5.5
      vertex 10.037 -11.2086 5.5
    endloop
  endfacet
  facet normal 0 0 1
    outer loop
      vertex 11.3752 -12.7031 5.5
      vertex 7.5 -13.0619 5.5
      vertex 8.5 -14.8035 5.5
    endloop
  endfacet
  facet normal 0 0 1
    outer loop
      vertex 7.5 -13.0619 5.5
      vertex 5.25329 -16.257 5.5
      vertex 8.5 -14.8035 5.5
    endloop
  endfacet
  facet normal -0 0 1
    outer loop
      vertex 4.63525 -14.3444 5.5
      vertex 5.25329 -16.257 5.5
      vertex 7.5 -13.0619 5.5
    endloop
  endfacet
  facet normal 0 0 1
    outer loop
      vertex 4.63525 -14.3444 5.5
      vertex 1.77698 -17 5.5
      vertex 5.25329 -16.257 5.5
    endloop
  endfacet
  facet normal -0 0 1
    outer loop
      vertex 1.56793 -15 5.5
      vertex 1.77698 -17 5.5
      vertex 4.63525 -14.3444 5.5
    endloop
  endfacet
  facet normal -0 0 1
    outer loop
      vertex -1.56793 -15 5.5
      vertex 1.77698 -17 5.5
      vertex 1.56793 -15 5.5
    endloop
  endfacet
  facet normal 0 0 1
    outer loop
      vertex -1.56793 -15 5.5
      vertex -1.77698 -17 5.5
      vertex 1.77698 -17 5.5
    endloop
  endfacet
  facet normal 0 0 1
    outer loop
      vertex -4.63525 -14.3444 5.5
      vertex -1.77698 -17 5.5
      vertex -1.56793 -15 5.5
    endloop
  endfacet
  facet normal 0 0 1
    outer loop
      vertex -4.63525 -14.3444 5.5
      vertex -5.25329 -16.257 5.5
      vertex -1.77698 -17 5.5
    endloop
  endfacet
  facet normal 0 0 1
    outer loop
      vertex -7.5 -13.0619 5.5
      vertex -5.25329 -16.257 5.5
      vertex -4.63525 -14.3444 5.5
    endloop
  endfacet
  facet normal 0 0 1
    outer loop
      vertex -7.5 -13.0619 5.5
      vertex -8.5 -14.8035 5.5
      vertex -5.25329 -16.257 5.5
    endloop
  endfacet
  facet normal -0 0 1
    outer loop
      vertex -11.3752 -12.7031 5.5
      vertex -7.5 -13.0619 5.5
      vertex -10.037 -11.2086 5.5
    endloop
  endfacet
  facet normal 0 0 1
    outer loop
      vertex -7.5 -13.0619 5.5
      vertex -11.3752 -12.7031 5.5
      vertex -8.5 -14.8035 5.5
    endloop
  endfacet
  facet normal -0 0 1
    outer loop
      vertex -13.7533 -10.0474 5.5
      vertex -10.037 -11.2086 5.5
      vertex -12.1353 -8.86534 5.5
    endloop
  endfacet
  facet normal 0 0 1
    outer loop
      vertex -13.7533 -10.0474 5.5
      vertex -12.1353 -8.86534 5.5
      vertex -13.7032 -6.13465 5.5
    endloop
  endfacet
  facet normal 0 0 1
    outer loop
      vertex -10.037 -11.2086 5.5
      vertex -13.7533 -10.0474 5.5
      vertex -11.3752 -12.7031 5.5
    endloop
  endfacet
  facet normal 0 0 1
    outer loop
      vertex -15.5303 -6.95261 5.5
      vertex -13.7032 -6.13465 5.5
      vertex -14.6722 -3.13585 5.5
    endloop
  endfacet
  facet normal 0 0 1
    outer loop
      vertex -13.7032 -6.13465 5.5
      vertex -15.5303 -6.95261 5.5
      vertex -13.7533 -10.0474 5.5
    endloop
  endfacet
  facet normal 0 0 1
    outer loop
      vertex -16.6285 -3.55397 5.5
      vertex -14.6722 -3.13585 5.5
      vertex -15 0 5.5
    endloop
  endfacet
  facet normal 0 0 1
    outer loop
      vertex -14.6722 3.13585 5.5
      vertex -16.6285 3.55397 5.5
      vertex -15 0 5.5
    endloop
  endfacet
  facet normal 0 0 1
    outer loop
      vertex -17 0 5.5
      vertex -15 0 5.5
      vertex -16.6285 3.55397 5.5
    endloop
  endfacet
  facet normal 0 0 1
    outer loop
      vertex -14.6722 -3.13585 5.5
      vertex -16.6285 -3.55397 5.5
      vertex -15.5303 -6.95261 5.5
    endloop
  endfacet
  facet normal 0 0 1
    outer loop
      vertex -15 0 5.5
      vertex -17 0 5.5
      vertex -16.6285 -3.55397 5.5
    endloop
  endfacet
  facet normal 0.408605 -0.912711 0
    outer loop
      vertex -7.5 13.0619 2.5
      vertex -4.63525 14.3444 5.5
      vertex -7.5 13.0619 5.5
    endloop
  endfacet
  facet normal 0.408605 -0.912711 0
    outer loop
      vertex -4.63525 14.3444 5.5
      vertex -7.5 13.0619 2.5
      vertex -4.63525 14.3444 2.5
    endloop
  endfacet
  facet normal -0.867214 -0.497935 0
    outer loop
      vertex 13.7032 6.13465 2.5
      vertex 12.1353 8.86534 5.5
      vertex 12.1353 8.86534 2.5
    endloop
  endfacet
  facet normal -0.867214 -0.497935 0
    outer loop
      vertex 12.1353 8.86534 5.5
      vertex 13.7032 6.13465 2.5
      vertex 13.7032 6.13465 5.5
    endloop
  endfacet
  facet normal -0.951556 -0.307476 0
    outer loop
      vertex 14.6722 3.13585 2.5
      vertex 13.7032 6.13465 5.5
      vertex 13.7032 6.13465 2.5
    endloop
  endfacet
  facet normal -0.951556 -0.307476 0
    outer loop
      vertex 13.7032 6.13465 5.5
      vertex 14.6722 3.13585 2.5
      vertex 14.6722 3.13585 5.5
    endloop
  endfacet
  facet normal -0.744973 -0.667095 0
    outer loop
      vertex 12.1353 8.86534 2.5
      vertex 10.037 11.2086 5.5
      vertex 10.037 11.2086 2.5
    endloop
  endfacet
  facet normal -0.744973 -0.667095 0
    outer loop
      vertex 10.037 11.2086 5.5
      vertex 12.1353 8.86534 2.5
      vertex 12.1353 8.86534 5.5
    endloop
  endfacet
  facet normal -0.209016 -0.977912 0
    outer loop
      vertex 1.56793 15 2.5
      vertex 4.63525 14.3444 5.5
      vertex 1.56793 15 5.5
    endloop
  endfacet
  facet normal -0.209016 -0.977912 -0
    outer loop
      vertex 4.63525 14.3444 5.5
      vertex 1.56793 15 2.5
      vertex 4.63525 14.3444 2.5
    endloop
  endfacet
  facet normal -0.408605 -0.912711 0
    outer loop
      vertex 4.63525 14.3444 2.5
      vertex 7.5 13.0619 5.5
      vertex 4.63525 14.3444 5.5
    endloop
  endfacet
  facet normal -0.408605 -0.912711 -0
    outer loop
      vertex 7.5 13.0619 5.5
      vertex 4.63525 14.3444 2.5
      vertex 7.5 13.0619 2.5
    endloop
  endfacet
  facet normal 0.867214 -0.497935 0
    outer loop
      vertex -13.7032 6.13465 5.5
      vertex -12.1353 8.86534 2.5
      vertex -12.1353 8.86534 5.5
    endloop
  endfacet
  facet normal 0.867214 -0.497935 0
    outer loop
      vertex -12.1353 8.86534 2.5
      vertex -13.7032 6.13465 5.5
      vertex -13.7032 6.13465 2.5
    endloop
  endfacet
  facet normal 0.951556 -0.307476 0
    outer loop
      vertex -14.6722 3.13585 5.5
      vertex -13.7032 6.13465 2.5
      vertex -13.7032 6.13465 5.5
    endloop
  endfacet
  facet normal 0.951556 -0.307476 0
    outer loop
      vertex -13.7032 6.13465 2.5
      vertex -14.6722 3.13585 5.5
      vertex -14.6722 3.13585 2.5
    endloop
  endfacet
  facet normal 0.589879 -0.807491 0
    outer loop
      vertex -10.037 11.2086 2.5
      vertex -7.5 13.0619 5.5
      vertex -10.037 11.2086 5.5
    endloop
  endfacet
  facet normal 0.589879 -0.807491 0
    outer loop
      vertex -7.5 13.0619 5.5
      vertex -10.037 11.2086 2.5
      vertex -7.5 13.0619 2.5
    endloop
  endfacet
  facet normal 0.209016 -0.977912 0
    outer loop
      vertex -4.63525 14.3444 2.5
      vertex -1.56793 15 5.5
      vertex -4.63525 14.3444 5.5
    endloop
  endfacet
  facet normal 0.209016 -0.977912 0
    outer loop
      vertex -1.56793 15 5.5
      vertex -4.63525 14.3444 2.5
      vertex -1.56793 15 2.5
    endloop
  endfacet
  facet normal -0.994581 0.103967 0
    outer loop
      vertex 14.6722 -3.13585 2.5
      vertex 15 0 5.5
      vertex 15 0 2.5
    endloop
  endfacet
  facet normal -0.994581 0.103967 0
    outer loop
      vertex 15 0 5.5
      vertex 14.6722 -3.13585 2.5
      vertex 14.6722 -3.13585 5.5
    endloop
  endfacet
  facet normal 0.994581 0.103967 0
    outer loop
      vertex -14.6722 -3.13585 5.5
      vertex -15 0 2.5
      vertex -15 0 5.5
    endloop
  endfacet
  facet normal 0.994581 0.103967 0
    outer loop
      vertex -15 0 2.5
      vertex -14.6722 -3.13585 5.5
      vertex -14.6722 -3.13585 2.5
    endloop
  endfacet
  facet normal -0.744973 0.667095 0
    outer loop
      vertex 10.037 -11.2086 2.5
      vertex 12.1353 -8.86534 5.5
      vertex 12.1353 -8.86534 2.5
    endloop
  endfacet
  facet normal -0.744973 0.667095 0
    outer loop
      vertex 12.1353 -8.86534 5.5
      vertex 10.037 -11.2086 2.5
      vertex 10.037 -11.2086 5.5
    endloop
  endfacet
  facet normal -0.951556 0.307476 0
    outer loop
      vertex 13.7032 -6.13465 2.5
      vertex 14.6722 -3.13585 5.5
      vertex 14.6722 -3.13585 2.5
    endloop
  endfacet
  facet normal -0.951556 0.307476 0
    outer loop
      vertex 14.6722 -3.13585 5.5
      vertex 13.7032 -6.13465 2.5
      vertex 13.7032 -6.13465 5.5
    endloop
  endfacet
  facet normal -0.867214 0.497935 0
    outer loop
      vertex 12.1353 -8.86534 2.5
      vertex 13.7032 -6.13465 5.5
      vertex 13.7032 -6.13465 2.5
    endloop
  endfacet
  facet normal -0.867214 0.497935 0
    outer loop
      vertex 13.7032 -6.13465 5.5
      vertex 12.1353 -8.86534 2.5
      vertex 12.1353 -8.86534 5.5
    endloop
  endfacet
  facet normal 0.867214 0.497935 0
    outer loop
      vertex -12.1353 -8.86534 5.5
      vertex -13.7032 -6.13465 2.5
      vertex -13.7032 -6.13465 5.5
    endloop
  endfacet
  facet normal 0.867214 0.497935 0
    outer loop
      vertex -13.7032 -6.13465 2.5
      vertex -12.1353 -8.86534 5.5
      vertex -12.1353 -8.86534 2.5
    endloop
  endfacet
  facet normal 0 0 1
    outer loop
      vertex 14.6722 3.13585 2.5
      vertex 14.6722 -3.13585 2.5
      vertex 15 0 2.5
    endloop
  endfacet
  facet normal 0 0 1
    outer loop
      vertex 13.7032 6.13465 2.5
      vertex 14.6722 -3.13585 2.5
      vertex 14.6722 3.13585 2.5
    endloop
  endfacet
  facet normal 0 0 1
    outer loop
      vertex 13.7032 6.13465 2.5
      vertex 13.7032 -6.13465 2.5
      vertex 14.6722 -3.13585 2.5
    endloop
  endfacet
  facet normal 0 0 1
    outer loop
      vertex 12.1353 8.86534 2.5
      vertex 13.7032 -6.13465 2.5
      vertex 13.7032 6.13465 2.5
    endloop
  endfacet
  facet normal 0 0 1
    outer loop
      vertex 12.1353 8.86534 2.5
      vertex 12.1353 -8.86534 2.5
      vertex 13.7032 -6.13465 2.5
    endloop
  endfacet
  facet normal 0 0 1
    outer loop
      vertex 10.037 11.2086 2.5
      vertex 12.1353 -8.86534 2.5
      vertex 12.1353 8.86534 2.5
    endloop
  endfacet
  facet normal 0 0 1
    outer loop
      vertex 10.037 11.2086 2.5
      vertex 10.037 -11.2086 2.5
      vertex 12.1353 -8.86534 2.5
    endloop
  endfacet
  facet normal 0 0 1
    outer loop
      vertex 7.5 13.0619 2.5
      vertex 10.037 -11.2086 2.5
      vertex 10.037 11.2086 2.5
    endloop
  endfacet
  facet normal 0 0 1
    outer loop
      vertex 7.5 13.0619 2.5
      vertex 7.5 -13.0619 2.5
      vertex 10.037 -11.2086 2.5
    endloop
  endfacet
  facet normal 0 0 1
    outer loop
      vertex 4.63525 14.3444 2.5
      vertex 7.5 -13.0619 2.5
      vertex 7.5 13.0619 2.5
    endloop
  endfacet
  facet normal 0 0 1
    outer loop
      vertex 4.63525 14.3444 2.5
      vertex 4.63525 -14.3444 2.5
      vertex 7.5 -13.0619 2.5
    endloop
  endfacet
  facet normal 0 0 1
    outer loop
      vertex 1.56793 15 2.5
      vertex 4.63525 -14.3444 2.5
      vertex 4.63525 14.3444 2.5
    endloop
  endfacet
  facet normal 0 0 1
    outer loop
      vertex 1.56793 15 2.5
      vertex 1.56793 -15 2.5
      vertex 4.63525 -14.3444 2.5
    endloop
  endfacet
  facet normal -0 0 1
    outer loop
      vertex -1.56793 15 2.5
      vertex 1.56793 -15 2.5
      vertex 1.56793 15 2.5
    endloop
  endfacet
  facet normal 0 0 1
    outer loop
      vertex -1.56793 15 2.5
      vertex -1.56793 -15 2.5
      vertex 1.56793 -15 2.5
    endloop
  endfacet
  facet normal -0 0 1
    outer loop
      vertex -4.63525 14.3444 2.5
      vertex -1.56793 -15 2.5
      vertex -1.56793 15 2.5
    endloop
  endfacet
  facet normal 0 0 1
    outer loop
      vertex -4.63525 14.3444 2.5
      vertex -4.63525 -14.3444 2.5
      vertex -1.56793 -15 2.5
    endloop
  endfacet
  facet normal -0 0 1
    outer loop
      vertex -7.5 13.0619 2.5
      vertex -4.63525 -14.3444 2.5
      vertex -4.63525 14.3444 2.5
    endloop
  endfacet
  facet normal 0 0 1
    outer loop
      vertex -7.5 13.0619 2.5
      vertex -7.5 -13.0619 2.5
      vertex -4.63525 -14.3444 2.5
    endloop
  endfacet
  facet normal -0 0 1
    outer loop
      vertex -10.037 11.2086 2.5
      vertex -7.5 -13.0619 2.5
      vertex -7.5 13.0619 2.5
    endloop
  endfacet
  facet normal 0 0 1
    outer loop
      vertex -10.037 11.2086 2.5
      vertex -10.037 -11.2086 2.5
      vertex -7.5 -13.0619 2.5
    endloop
  endfacet
  facet normal -0 0 1
    outer loop
      vertex -12.1353 8.86534 2.5
      vertex -10.037 -11.2086 2.5
      vertex -10.037 11.2086 2.5
    endloop
  endfacet
  facet normal 0 0 1
    outer loop
      vertex -12.1353 8.86534 2.5
      vertex -12.1353 -8.86534 2.5
      vertex -10.037 -11.2086 2.5
    endloop
  endfacet
  facet normal -0 0 1
    outer loop
      vertex -13.7032 6.13465 2.5
      vertex -12.1353 -8.86534 2.5
      vertex -12.1353 8.86534 2.5
    endloop
  endfacet
  facet normal 0 0 1
    outer loop
      vertex -13.7032 6.13465 2.5
      vertex -13.7032 -6.13465 2.5
      vertex -12.1353 -8.86534 2.5
    endloop
  endfacet
  facet normal -0 0 1
    outer loop
      vertex -14.6722 3.13585 2.5
      vertex -13.7032 -6.13465 2.5
      vertex -13.7032 6.13465 2.5
    endloop
  endfacet
  facet normal 0 0 1
    outer loop
      vertex -14.6722 3.13585 2.5
      vertex -14.6722 -3.13585 2.5
      vertex -13.7032 -6.13465 2.5
    endloop
  endfacet
  facet normal 0 -0 1
    outer loop
      vertex -14.6722 -3.13585 2.5
      vertex -14.6722 3.13585 2.5
      vertex -15 0 2.5
    endloop
  endfacet
  facet normal -0.209016 0.977912 0
    outer loop
      vertex 4.63525 -14.3444 2.5
      vertex 1.56793 -15 5.5
      vertex 4.63525 -14.3444 5.5
    endloop
  endfacet
  facet normal -0.209016 0.977912 0
    outer loop
      vertex 1.56793 -15 5.5
      vertex 4.63525 -14.3444 2.5
      vertex 1.56793 -15 2.5
    endloop
  endfacet
  facet normal -0.589879 0.807491 0
    outer loop
      vertex 10.037 -11.2086 2.5
      vertex 7.5 -13.0619 5.5
      vertex 10.037 -11.2086 5.5
    endloop
  endfacet
  facet normal -0.589879 0.807491 0
    outer loop
      vertex 7.5 -13.0619 5.5
      vertex 10.037 -11.2086 2.5
      vertex 7.5 -13.0619 2.5
    endloop
  endfacet
  facet normal 0.209016 0.977912 -0
    outer loop
      vertex -1.56793 -15 2.5
      vertex -4.63525 -14.3444 5.5
      vertex -1.56793 -15 5.5
    endloop
  endfacet
  facet normal 0.209016 0.977912 0
    outer loop
      vertex -4.63525 -14.3444 5.5
      vertex -1.56793 -15 2.5
      vertex -4.63525 -14.3444 2.5
    endloop
  endfacet
  facet normal 0.408605 0.912711 -0
    outer loop
      vertex -4.63525 -14.3444 2.5
      vertex -7.5 -13.0619 5.5
      vertex -4.63525 -14.3444 5.5
    endloop
  endfacet
  facet normal 0.408605 0.912711 0
    outer loop
      vertex -7.5 -13.0619 5.5
      vertex -4.63525 -14.3444 2.5
      vertex -7.5 -13.0619 2.5
    endloop
  endfacet
  facet normal 0.744973 0.667095 0
    outer loop
      vertex -10.037 -11.2086 5.5
      vertex -12.1353 -8.86534 2.5
      vertex -12.1353 -8.86534 5.5
    endloop
  endfacet
  facet normal 0.744973 0.667095 0
    outer loop
      vertex -12.1353 -8.86534 2.5
      vertex -10.037 -11.2086 5.5
      vertex -10.037 -11.2086 2.5
    endloop
  endfacet
  facet normal 0.951556 0.307476 0
    outer loop
      vertex -13.7032 -6.13465 5.5
      vertex -14.6722 -3.13585 2.5
      vertex -14.6722 -3.13585 5.5
    endloop
  endfacet
  facet normal 0.951556 0.307476 0
    outer loop
      vertex -14.6722 -3.13585 2.5
      vertex -13.7032 -6.13465 5.5
      vertex -13.7032 -6.13465 2.5
    endloop
  endfacet
  facet normal -0.408605 0.912711 0
    outer loop
      vertex 7.5 -13.0619 2.5
      vertex 4.63525 -14.3444 5.5
      vertex 7.5 -13.0619 5.5
    endloop
  endfacet
  facet normal -0.408605 0.912711 0
    outer loop
      vertex 4.63525 -14.3444 5.5
      vertex 7.5 -13.0619 2.5
      vertex 4.63525 -14.3444 2.5
    endloop
  endfacet
  facet normal 0.589879 0.807491 -0
    outer loop
      vertex -7.5 -13.0619 2.5
      vertex -10.037 -11.2086 5.5
      vertex -7.5 -13.0619 5.5
    endloop
  endfacet
  facet normal 0.589879 0.807491 0
    outer loop
      vertex -10.037 -11.2086 5.5
      vertex -7.5 -13.0619 2.5
      vertex -10.037 -11.2086 2.5
    endloop
  endfacet
  facet normal -0.994581 -0.103965 0
    outer loop
      vertex -16.6285 -3.55397 1.5
      vertex -17 0 5.5
      vertex -17 0 1.5
    endloop
  endfacet
  facet normal -0.994581 -0.103965 0
    outer loop
      vertex -17 0 5.5
      vertex -16.6285 -3.55397 1.5
      vertex -16.6285 -3.55397 5.5
    endloop
  endfacet
  facet normal 0.951556 0.307476 0
    outer loop
      vertex 16.6285 3.55397 5.5
      vertex 15.5303 6.95261 1.5
      vertex 15.5303 6.95261 5.5
    endloop
  endfacet
  facet normal 0.951556 0.307476 0
    outer loop
      vertex 15.5303 6.95261 1.5
      vertex 16.6285 3.55397 5.5
      vertex 16.6285 3.55397 1.5
    endloop
  endfacet
  facet normal 0.765752 0.0800448 -0.638135
    outer loop
      vertex 17 0 1.5
      vertex 14.1831 3.03133 -1.5
      vertex 16.6285 3.55397 1.5
    endloop
  endfacet
  facet normal 0.573009 0.513113 -0.639043
    outer loop
      vertex 11.7307 8.56983 -1.5
      vertex 11.3752 12.7031 1.5
      vertex 13.7533 10.0474 1.5
    endloop
  endfacet
  facet normal 0.765752 -0.0800448 -0.638135
    outer loop
      vertex 16.6285 -3.55397 1.5
      vertex 14.1831 -3.03133 -1.5
      vertex 17 0 1.5
    endloop
  endfacet
  facet normal -0.209012 -0.977913 0
    outer loop
      vertex -5.25329 -16.257 1.5
      vertex -1.77698 -17 5.5
      vertex -5.25329 -16.257 5.5
    endloop
  endfacet
  facet normal -0.209012 -0.977913 -0
    outer loop
      vertex -1.77698 -17 5.5
      vertex -5.25329 -16.257 1.5
      vertex -1.77698 -17 1.5
    endloop
  endfacet
  facet normal 0.951556 -0.307476 0
    outer loop
      vertex 15.5303 -6.95261 5.5
      vertex 16.6285 -3.55397 1.5
      vertex 16.6285 -3.55397 5.5
    endloop
  endfacet
  facet normal 0.951556 -0.307476 0
    outer loop
      vertex 16.6285 -3.55397 1.5
      vertex 15.5303 -6.95261 5.5
      vertex 15.5303 -6.95261 1.5
    endloop
  endfacet
  facet normal 0.867209 0.497944 0
    outer loop
      vertex 15.5303 6.95261 5.5
      vertex 13.7533 10.0474 1.5
      vertex 13.7533 10.0474 5.5
    endloop
  endfacet
  facet normal 0.867209 0.497944 0
    outer loop
      vertex 13.7533 10.0474 1.5
      vertex 15.5303 6.95261 5.5
      vertex 15.5303 6.95261 1.5
    endloop
  endfacet
  facet normal -0.765752 -0.0800448 -0.638135
    outer loop
      vertex -16.6285 -3.55397 1.5
      vertex -17 0 1.5
      vertex -14.1831 -3.03133 -1.5
    endloop
  endfacet
  facet normal 0.732488 -0.236688 -0.63831
    outer loop
      vertex 15.5303 -6.95261 1.5
      vertex 14.1831 -3.03133 -1.5
      vertex 16.6285 -3.55397 1.5
    endloop
  endfacet
  facet normal -0.867209 -0.497944 0
    outer loop
      vertex -13.7533 -10.0474 1.5
      vertex -15.5303 -6.95261 5.5
      vertex -15.5303 -6.95261 1.5
    endloop
  endfacet
  facet normal -0.867209 -0.497944 0
    outer loop
      vertex -15.5303 -6.95261 5.5
      vertex -13.7533 -10.0474 1.5
      vertex -13.7533 -10.0474 5.5
    endloop
  endfacet
  facet normal 0.209012 -0.977913 0
    outer loop
      vertex 1.77698 -17 1.5
      vertex 5.25329 -16.257 5.5
      vertex 1.77698 -17 5.5
    endloop
  endfacet
  facet normal 0.209012 -0.977913 0
    outer loop
      vertex 5.25329 -16.257 5.5
      vertex 1.77698 -17 1.5
      vertex 5.25329 -16.257 1.5
    endloop
  endfacet
  facet normal 0.994581 0.103965 0
    outer loop
      vertex 17 0 5.5
      vertex 16.6285 3.55397 1.5
      vertex 16.6285 3.55397 5.5
    endloop
  endfacet
  facet normal 0.994581 0.103965 0
    outer loop
      vertex 16.6285 3.55397 1.5
      vertex 17 0 5.5
      vertex 17 0 1.5
    endloop
  endfacet
  facet normal -0.867209 0.497944 0
    outer loop
      vertex -15.5303 6.95261 1.5
      vertex -13.7533 10.0474 5.5
      vertex -13.7533 10.0474 1.5
    endloop
  endfacet
  facet normal -0.867209 0.497944 0
    outer loop
      vertex -13.7533 10.0474 5.5
      vertex -15.5303 6.95261 1.5
      vertex -15.5303 6.95261 5.5
    endloop
  endfacet
  facet normal 0 1 -0
    outer loop
      vertex 1.77698 17 1.5
      vertex -1.77698 17 5.5
      vertex 1.77698 17 5.5
    endloop
  endfacet
  facet normal 0 1 0
    outer loop
      vertex -1.77698 17 5.5
      vertex 1.77698 17 1.5
      vertex -1.77698 17 1.5
    endloop
  endfacet
  facet normal -0.951556 0.307476 0
    outer loop
      vertex -16.6285 3.55397 1.5
      vertex -15.5303 6.95261 5.5
      vertex -15.5303 6.95261 1.5
    endloop
  endfacet
  facet normal -0.951556 0.307476 0
    outer loop
      vertex -15.5303 6.95261 5.5
      vertex -16.6285 3.55397 1.5
      vertex -16.6285 3.55397 5.5
    endloop
  endfacet
  facet normal -0.732488 -0.236688 -0.63831
    outer loop
      vertex -15.5303 -6.95261 1.5
      vertex -16.6285 -3.55397 1.5
      vertex -14.1831 -3.03133 -1.5
    endloop
  endfacet
  facet normal -0.667327 -0.383173 -0.638634
    outer loop
      vertex -13.7533 -10.0474 1.5
      vertex -15.5303 -6.95261 1.5
      vertex -11.7307 -8.56983 -1.5
    endloop
  endfacet
  facet normal -0 -0.768221 -0.640184
    outer loop
      vertex 1.77698 -17 1.5
      vertex -1.77698 -17 1.5
      vertex 1.51566 -14.5 -1.5
    endloop
  endfacet
  facet normal 0 -1 0
    outer loop
      vertex -1.77698 -17 1.5
      vertex 1.77698 -17 5.5
      vertex -1.77698 -17 5.5
    endloop
  endfacet
  facet normal 0 -1 -0
    outer loop
      vertex 1.77698 -17 5.5
      vertex -1.77698 -17 1.5
      vertex 1.77698 -17 1.5
    endloop
  endfacet
  facet normal 0.994581 -0.103965 0
    outer loop
      vertex 16.6285 -3.55397 5.5
      vertex 17 0 1.5
      vertex 17 0 5.5
    endloop
  endfacet
  facet normal 0.994581 -0.103965 0
    outer loop
      vertex 17 0 1.5
      vertex 16.6285 -3.55397 5.5
      vertex 16.6285 -3.55397 1.5
    endloop
  endfacet
  facet normal 0.74497 0.667098 0
    outer loop
      vertex 13.7533 10.0474 5.5
      vertex 11.3752 12.7031 1.5
      vertex 11.3752 12.7031 5.5
    endloop
  endfacet
  facet normal 0.74497 0.667098 0
    outer loop
      vertex 11.3752 12.7031 1.5
      vertex 13.7533 10.0474 5.5
      vertex 13.7533 10.0474 1.5
    endloop
  endfacet
  facet normal 0.732488 0.236688 -0.63831
    outer loop
      vertex 16.6285 3.55397 1.5
      vertex 14.1831 3.03133 -1.5
      vertex 15.5303 6.95261 1.5
    endloop
  endfacet
  facet normal -0.667327 0.383181 -0.638629
    outer loop
      vertex -13.2464 5.93017 -1.5
      vertex -15.5303 6.95261 1.5
      vertex -11.7307 8.56983 -1.5
    endloop
  endfacet
  facet normal -0.732488 0.236688 -0.63831
    outer loop
      vertex -14.1831 3.03133 -1.5
      vertex -15.5303 6.95261 1.5
      vertex -13.2464 5.93017 -1.5
    endloop
  endfacet
  facet normal -0.453514 0.620816 -0.639463
    outer loop
      vertex -9.70239 10.835 -1.5
      vertex -11.3752 12.7031 1.5
      vertex -7.25 12.6265 -1.5
    endloop
  endfacet
  facet normal -0.589887 0.807486 0
    outer loop
      vertex -8.5 14.8035 1.5
      vertex -11.3752 12.7031 5.5
      vertex -8.5 14.8035 5.5
    endloop
  endfacet
  facet normal -0.589887 0.807486 0
    outer loop
      vertex -11.3752 12.7031 5.5
      vertex -8.5 14.8035 1.5
      vertex -11.3752 12.7031 1.5
    endloop
  endfacet
  facet normal -0.765756 -0.0800533 -0.63813
    outer loop
      vertex -14.1831 -3.03133 -1.5
      vertex -17 0 1.5
      vertex -14.5 0 -1.5
    endloop
  endfacet
  facet normal -0.951556 -0.307476 0
    outer loop
      vertex -15.5303 -6.95261 1.5
      vertex -16.6285 -3.55397 5.5
      vertex -16.6285 -3.55397 1.5
    endloop
  endfacet
  facet normal -0.951556 -0.307476 0
    outer loop
      vertex -16.6285 -3.55397 5.5
      vertex -15.5303 -6.95261 1.5
      vertex -15.5303 -6.95261 5.5
    endloop
  endfacet
  facet normal -0.74497 -0.667098 0
    outer loop
      vertex -11.3752 -12.7031 1.5
      vertex -13.7533 -10.0474 5.5
      vertex -13.7533 -10.0474 1.5
    endloop
  endfacet
  facet normal -0.74497 -0.667098 0
    outer loop
      vertex -13.7533 -10.0474 5.5
      vertex -11.3752 -12.7031 1.5
      vertex -11.3752 -12.7031 5.5
    endloop
  endfacet
  facet normal -0.408606 -0.912711 0
    outer loop
      vertex -8.5 -14.8035 1.5
      vertex -5.25329 -16.257 5.5
      vertex -8.5 -14.8035 5.5
    endloop
  endfacet
  facet normal -0.408606 -0.912711 -0
    outer loop
      vertex -5.25329 -16.257 5.5
      vertex -8.5 -14.8035 1.5
      vertex -5.25329 -16.257 1.5
    endloop
  endfacet
  facet normal -0.589887 -0.807486 0
    outer loop
      vertex -11.3752 -12.7031 1.5
      vertex -8.5 -14.8035 5.5
      vertex -11.3752 -12.7031 5.5
    endloop
  endfacet
  facet normal -0.589887 -0.807486 -0
    outer loop
      vertex -8.5 -14.8035 5.5
      vertex -11.3752 -12.7031 1.5
      vertex -8.5 -14.8035 1.5
    endloop
  endfacet
  facet normal -0.31403 -0.701426 -0.639833
    outer loop
      vertex -5.25329 -16.257 1.5
      vertex -7.25 -12.6265 -1.5
      vertex -4.48075 -13.8663 -1.5
    endloop
  endfacet
  facet normal -0.453514 -0.620816 -0.639463
    outer loop
      vertex -7.25 -12.6265 -1.5
      vertex -11.3752 -12.7031 1.5
      vertex -9.70239 -10.835 -1.5
    endloop
  endfacet
  facet normal -0.573009 -0.513113 -0.639043
    outer loop
      vertex -11.3752 -12.7031 1.5
      vertex -13.7533 -10.0474 1.5
      vertex -11.7307 -8.56983 -1.5
    endloop
  endfacet
  facet normal 0.867209 -0.497944 0
    outer loop
      vertex 13.7533 -10.0474 5.5
      vertex 15.5303 -6.95261 1.5
      vertex 15.5303 -6.95261 5.5
    endloop
  endfacet
  facet normal 0.867209 -0.497944 0
    outer loop
      vertex 15.5303 -6.95261 1.5
      vertex 13.7533 -10.0474 5.5
      vertex 13.7533 -10.0474 1.5
    endloop
  endfacet
  facet normal -0 -0.768221 -0.640184
    outer loop
      vertex 1.51566 -14.5 -1.5
      vertex -1.77698 -17 1.5
      vertex -1.51566 -14.5 -1.5
    endloop
  endfacet
  facet normal -0.160583 -0.751327 -0.640094
    outer loop
      vertex -1.77698 -17 1.5
      vertex -5.25329 -16.257 1.5
      vertex -1.51566 -14.5 -1.5
    endloop
  endfacet
  facet normal 0.74497 -0.667098 0
    outer loop
      vertex 11.3752 -12.7031 5.5
      vertex 13.7533 -10.0474 1.5
      vertex 13.7533 -10.0474 5.5
    endloop
  endfacet
  facet normal 0.74497 -0.667098 0
    outer loop
      vertex 13.7533 -10.0474 1.5
      vertex 11.3752 -12.7031 5.5
      vertex 11.3752 -12.7031 1.5
    endloop
  endfacet
  facet normal 0.667327 -0.383181 -0.638629
    outer loop
      vertex 15.5303 -6.95261 1.5
      vertex 11.7307 -8.56983 -1.5
      vertex 13.2464 -5.93017 -1.5
    endloop
  endfacet
  facet normal 0.667327 0.383181 -0.638629
    outer loop
      vertex 13.2464 5.93017 -1.5
      vertex 11.7307 8.56983 -1.5
      vertex 15.5303 6.95261 1.5
    endloop
  endfacet
  facet normal 0.667327 0.383173 -0.638634
    outer loop
      vertex 15.5303 6.95261 1.5
      vertex 11.7307 8.56983 -1.5
      vertex 13.7533 10.0474 1.5
    endloop
  endfacet
  facet normal -0.209012 0.977913 0
    outer loop
      vertex -1.77698 17 1.5
      vertex -5.25329 16.257 5.5
      vertex -1.77698 17 5.5
    endloop
  endfacet
  facet normal -0.209012 0.977913 0
    outer loop
      vertex -5.25329 16.257 5.5
      vertex -1.77698 17 1.5
      vertex -5.25329 16.257 1.5
    endloop
  endfacet
  facet normal -0.408606 0.912711 0
    outer loop
      vertex -5.25329 16.257 1.5
      vertex -8.5 14.8035 5.5
      vertex -5.25329 16.257 5.5
    endloop
  endfacet
  facet normal -0.408606 0.912711 0
    outer loop
      vertex -8.5 14.8035 5.5
      vertex -5.25329 16.257 1.5
      vertex -8.5 14.8035 1.5
    endloop
  endfacet
  facet normal -0.994581 0.103965 0
    outer loop
      vertex -17 0 1.5
      vertex -16.6285 3.55397 5.5
      vertex -16.6285 3.55397 1.5
    endloop
  endfacet
  facet normal -0.994581 0.103965 0
    outer loop
      vertex -16.6285 3.55397 5.5
      vertex -17 0 1.5
      vertex -17 0 5.5
    endloop
  endfacet
  facet normal -0.74497 0.667098 0
    outer loop
      vertex -13.7533 10.0474 1.5
      vertex -11.3752 12.7031 5.5
      vertex -11.3752 12.7031 1.5
    endloop
  endfacet
  facet normal -0.74497 0.667098 0
    outer loop
      vertex -11.3752 12.7031 5.5
      vertex -13.7533 10.0474 1.5
      vertex -13.7533 10.0474 5.5
    endloop
  endfacet
  facet normal 0.209012 0.977913 -0
    outer loop
      vertex 5.25329 16.257 1.5
      vertex 1.77698 17 5.5
      vertex 5.25329 16.257 5.5
    endloop
  endfacet
  facet normal 0.209012 0.977913 0
    outer loop
      vertex 1.77698 17 5.5
      vertex 5.25329 16.257 1.5
      vertex 1.77698 17 1.5
    endloop
  endfacet
  facet normal -0.573026 0.513107 -0.639033
    outer loop
      vertex -9.70239 10.835 -1.5
      vertex -11.7307 8.56983 -1.5
      vertex -11.3752 12.7031 1.5
    endloop
  endfacet
  facet normal -0.765756 0.0800533 -0.63813
    outer loop
      vertex -14.5 0 -1.5
      vertex -17 0 1.5
      vertex -14.1831 3.03133 -1.5
    endloop
  endfacet
  facet normal -0.453516 -0.62081 -0.639467
    outer loop
      vertex -8.5 -14.8035 1.5
      vertex -11.3752 -12.7031 1.5
      vertex -7.25 -12.6265 -1.5
    endloop
  endfacet
  facet normal -0.314017 -0.701425 -0.639841
    outer loop
      vertex -5.25329 -16.257 1.5
      vertex -8.5 -14.8035 1.5
      vertex -7.25 -12.6265 -1.5
    endloop
  endfacet
  facet normal -0.667327 -0.383181 -0.638629
    outer loop
      vertex -11.7307 -8.56983 -1.5
      vertex -15.5303 -6.95261 1.5
      vertex -13.2464 -5.93017 -1.5
    endloop
  endfacet
  facet normal -0.732488 -0.236688 -0.63831
    outer loop
      vertex -13.2464 -5.93017 -1.5
      vertex -15.5303 -6.95261 1.5
      vertex -14.1831 -3.03133 -1.5
    endloop
  endfacet
  facet normal -0.573026 -0.513107 -0.639033
    outer loop
      vertex -11.3752 -12.7031 1.5
      vertex -11.7307 -8.56983 -1.5
      vertex -9.70239 -10.835 -1.5
    endloop
  endfacet
  facet normal 0.589887 -0.807486 0
    outer loop
      vertex 8.5 -14.8035 1.5
      vertex 11.3752 -12.7031 5.5
      vertex 8.5 -14.8035 5.5
    endloop
  endfacet
  facet normal 0.589887 -0.807486 0
    outer loop
      vertex 11.3752 -12.7031 5.5
      vertex 8.5 -14.8035 1.5
      vertex 11.3752 -12.7031 1.5
    endloop
  endfacet
  facet normal 0.453516 -0.62081 -0.639467
    outer loop
      vertex 8.5 -14.8035 1.5
      vertex 7.25 -12.6265 -1.5
      vertex 11.3752 -12.7031 1.5
    endloop
  endfacet
  facet normal 0.408606 -0.912711 0
    outer loop
      vertex 5.25329 -16.257 1.5
      vertex 8.5 -14.8035 5.5
      vertex 5.25329 -16.257 5.5
    endloop
  endfacet
  facet normal 0.408606 -0.912711 0
    outer loop
      vertex 8.5 -14.8035 5.5
      vertex 5.25329 -16.257 1.5
      vertex 8.5 -14.8035 1.5
    endloop
  endfacet
  facet normal -0.160575 -0.751334 -0.640088
    outer loop
      vertex -1.51566 -14.5 -1.5
      vertex -5.25329 -16.257 1.5
      vertex -4.48075 -13.8663 -1.5
    endloop
  endfacet
  facet normal 0.765756 0.0800533 -0.63813
    outer loop
      vertex 14.5 0 -1.5
      vertex 14.1831 3.03133 -1.5
      vertex 17 0 1.5
    endloop
  endfacet
  facet normal 0.765756 -0.0800533 -0.63813
    outer loop
      vertex 17 0 1.5
      vertex 14.1831 -3.03133 -1.5
      vertex 14.5 0 -1.5
    endloop
  endfacet
  facet normal 0.573026 -0.513107 -0.639033
    outer loop
      vertex 11.3752 -12.7031 1.5
      vertex 9.70239 -10.835 -1.5
      vertex 11.7307 -8.56983 -1.5
    endloop
  endfacet
  facet normal -0.453516 0.62081 -0.639467
    outer loop
      vertex -7.25 12.6265 -1.5
      vertex -11.3752 12.7031 1.5
      vertex -8.5 14.8035 1.5
    endloop
  endfacet
  facet normal -0.732488 0.236688 -0.63831
    outer loop
      vertex -14.1831 3.03133 -1.5
      vertex -16.6285 3.55397 1.5
      vertex -15.5303 6.95261 1.5
    endloop
  endfacet
  facet normal -0.765752 0.0800448 -0.638135
    outer loop
      vertex -14.1831 3.03133 -1.5
      vertex -17 0 1.5
      vertex -16.6285 3.55397 1.5
    endloop
  endfacet
  facet normal 0.31403 0.701426 -0.639833
    outer loop
      vertex 7.25 12.6265 -1.5
      vertex 4.48075 13.8663 -1.5
      vertex 5.25329 16.257 1.5
    endloop
  endfacet
  facet normal 0.573026 0.513107 -0.639033
    outer loop
      vertex 11.7307 8.56983 -1.5
      vertex 9.70239 10.835 -1.5
      vertex 11.3752 12.7031 1.5
    endloop
  endfacet
  facet normal -0.160575 0.751334 -0.640088
    outer loop
      vertex -4.48075 13.8663 -1.5
      vertex -5.25329 16.257 1.5
      vertex -1.51566 14.5 -1.5
    endloop
  endfacet
  facet normal -0.160583 0.751327 -0.640094
    outer loop
      vertex -1.51566 14.5 -1.5
      vertex -5.25329 16.257 1.5
      vertex -1.77698 17 1.5
    endloop
  endfacet
  facet normal -0.667327 0.383173 -0.638634
    outer loop
      vertex -11.7307 8.56983 -1.5
      vertex -15.5303 6.95261 1.5
      vertex -13.7533 10.0474 1.5
    endloop
  endfacet
  facet normal -0.573009 0.513113 -0.639043
    outer loop
      vertex -11.7307 8.56983 -1.5
      vertex -13.7533 10.0474 1.5
      vertex -11.3752 12.7031 1.5
    endloop
  endfacet
  facet normal 0.160583 -0.751327 -0.640094
    outer loop
      vertex 1.77698 -17 1.5
      vertex 1.51566 -14.5 -1.5
      vertex 5.25329 -16.257 1.5
    endloop
  endfacet
  facet normal 0.732488 -0.236688 -0.63831
    outer loop
      vertex 15.5303 -6.95261 1.5
      vertex 13.2464 -5.93017 -1.5
      vertex 14.1831 -3.03133 -1.5
    endloop
  endfacet
  facet normal 0.573009 -0.513113 -0.639043
    outer loop
      vertex 13.7533 -10.0474 1.5
      vertex 11.3752 -12.7031 1.5
      vertex 11.7307 -8.56983 -1.5
    endloop
  endfacet
  facet normal 0.667327 -0.383173 -0.638634
    outer loop
      vertex 13.7533 -10.0474 1.5
      vertex 11.7307 -8.56983 -1.5
      vertex 15.5303 -6.95261 1.5
    endloop
  endfacet
  facet normal 0.314017 -0.701425 -0.639841
    outer loop
      vertex 8.5 -14.8035 1.5
      vertex 5.25329 -16.257 1.5
      vertex 7.25 -12.6265 -1.5
    endloop
  endfacet
  facet normal 0 0.768221 -0.640184
    outer loop
      vertex 1.51566 14.5 -1.5
      vertex -1.51566 14.5 -1.5
      vertex 1.77698 17 1.5
    endloop
  endfacet
  facet normal 0 0.768221 -0.640184
    outer loop
      vertex -1.51566 14.5 -1.5
      vertex -1.77698 17 1.5
      vertex 1.77698 17 1.5
    endloop
  endfacet
  facet normal 0.408606 0.912711 -0
    outer loop
      vertex 8.5 14.8035 1.5
      vertex 5.25329 16.257 5.5
      vertex 8.5 14.8035 5.5
    endloop
  endfacet
  facet normal 0.408606 0.912711 0
    outer loop
      vertex 5.25329 16.257 5.5
      vertex 8.5 14.8035 1.5
      vertex 5.25329 16.257 1.5
    endloop
  endfacet
  facet normal 0.589887 0.807486 -0
    outer loop
      vertex 11.3752 12.7031 1.5
      vertex 8.5 14.8035 5.5
      vertex 11.3752 12.7031 5.5
    endloop
  endfacet
  facet normal 0.589887 0.807486 0
    outer loop
      vertex 8.5 14.8035 5.5
      vertex 11.3752 12.7031 1.5
      vertex 8.5 14.8035 1.5
    endloop
  endfacet
  facet normal 0.732488 0.236688 -0.63831
    outer loop
      vertex 14.1831 3.03133 -1.5
      vertex 13.2464 5.93017 -1.5
      vertex 15.5303 6.95261 1.5
    endloop
  endfacet
  facet normal 0.314017 0.701425 -0.639841
    outer loop
      vertex 7.25 12.6265 -1.5
      vertex 5.25329 16.257 1.5
      vertex 8.5 14.8035 1.5
    endloop
  endfacet
  facet normal 0.453516 0.62081 -0.639467
    outer loop
      vertex 11.3752 12.7031 1.5
      vertex 7.25 12.6265 -1.5
      vertex 8.5 14.8035 1.5
    endloop
  endfacet
  facet normal -0.314027 0.70142 -0.639842
    outer loop
      vertex -7.25 12.6265 -1.5
      vertex -8.5 14.8035 1.5
      vertex -4.48075 13.8663 -1.5
    endloop
  endfacet
  facet normal -0.314019 0.70143 -0.639834
    outer loop
      vertex -4.48075 13.8663 -1.5
      vertex -8.5 14.8035 1.5
      vertex -5.25329 16.257 1.5
    endloop
  endfacet
  facet normal 0.453514 -0.620816 -0.639463
    outer loop
      vertex 11.3752 -12.7031 1.5
      vertex 7.25 -12.6265 -1.5
      vertex 9.70239 -10.835 -1.5
    endloop
  endfacet
  facet normal 0.31403 -0.701426 -0.639833
    outer loop
      vertex 5.25329 -16.257 1.5
      vertex 4.48075 -13.8663 -1.5
      vertex 7.25 -12.6265 -1.5
    endloop
  endfacet
  facet normal 0.160575 -0.751334 -0.640088
    outer loop
      vertex 5.25329 -16.257 1.5
      vertex 1.51566 -14.5 -1.5
      vertex 4.48075 -13.8663 -1.5
    endloop
  endfacet
  facet normal 0.160583 0.751327 -0.640094
    outer loop
      vertex 5.25329 16.257 1.5
      vertex 1.51566 14.5 -1.5
      vertex 1.77698 17 1.5
    endloop
  endfacet
  facet normal 0.160575 0.751334 -0.640088
    outer loop
      vertex 4.48075 13.8663 -1.5
      vertex 1.51566 14.5 -1.5
      vertex 5.25329 16.257 1.5
    endloop
  endfacet
  facet normal 0.453514 0.620816 -0.639463
    outer loop
      vertex 9.70239 10.835 -1.5
      vertex 7.25 12.6265 -1.5
      vertex 11.3752 12.7031 1.5
    endloop
  endfacet
endsolid OpenSCAD_Model
