solid OpenSCAD_Model
  facet normal -1 0 0
    outer loop
      vertex 0 3 0
      vertex 0 0 0
      vertex 0 3 3
    endloop
  endfacet
  facet normal -1 0 0
    outer loop
      vertex 0 42 3
      vertex 0 45 0
      vertex 0 42 0
    endloop
  endfacet
  facet normal -1 0 0
    outer loop
      vertex 0 45 0
      vertex 0 42 3
      vertex 0 45 6
    endloop
  endfacet
  facet normal -1 0 0
    outer loop
      vertex 0 42 3
      vertex 0 27 6
      vertex 0 45 6
    endloop
  endfacet
  facet normal -1 0 0
    outer loop
      vertex 0 27 6
      vertex 0 24 6
      vertex 0 27 11
    endloop
  endfacet
  facet normal -1 0 0
    outer loop
      vertex 0 42 3
      vertex 0 24 6
      vertex 0 27 6
    endloop
  endfacet
  facet normal -1 0 0
    outer loop
      vertex 0 42 3
      vertex 0 21 6
      vertex 0 24 6
    endloop
  endfacet
  facet normal -1 0 0
    outer loop
      vertex 0 21 6
      vertex 0 18 6
      vertex 0 21 11
    endloop
  endfacet
  facet normal -1 0 0
    outer loop
      vertex 0 3 3
      vertex 0 21 6
      vertex 0 42 3
    endloop
  endfacet
  facet normal -1 -0 0
    outer loop
      vertex 0 21 6
      vertex 0 3 3
      vertex 0 18 6
    endloop
  endfacet
  facet normal -1 0 0
    outer loop
      vertex 0 3 3
      vertex 0 0 6
      vertex 0 18 6
    endloop
  endfacet
  facet normal -1 0 0
    outer loop
      vertex 0 0 6
      vertex 0 3 3
      vertex 0 0 0
    endloop
  endfacet
  facet normal -1 -0 0
    outer loop
      vertex 0 27 11
      vertex 0 24 6
      vertex 0 24 11
    endloop
  endfacet
  facet normal -1 -0 0
    outer loop
      vertex 0 21 11
      vertex 0 18 6
      vertex 0 18 11
    endloop
  endfacet
  facet normal -0 0 1
    outer loop
      vertex 0 21 11
      vertex 3 18 11
      vertex 3 21 11
    endloop
  endfacet
  facet normal 0 0 1
    outer loop
      vertex 3 18 11
      vertex 0 21 11
      vertex 0 18 11
    endloop
  endfacet
  facet normal 1 -0 0
    outer loop
      vertex 3 18 11
      vertex 3 21 6
      vertex 3 21 11
    endloop
  endfacet
  facet normal 1 0 0
    outer loop
      vertex 3 21 6
      vertex 3 18 11
      vertex 3 18 6
    endloop
  endfacet
  facet normal 0 1 -0
    outer loop
      vertex 3 21 6
      vertex 0 21 11
      vertex 3 21 11
    endloop
  endfacet
  facet normal 0 1 0
    outer loop
      vertex 0 21 11
      vertex 3 21 6
      vertex 0 21 6
    endloop
  endfacet
  facet normal -0 0 1
    outer loop
      vertex 0 24 6
      vertex 3 21 6
      vertex 3 24 6
    endloop
  endfacet
  facet normal 0 0 1
    outer loop
      vertex 3 21 6
      vertex 0 24 6
      vertex 0 21 6
    endloop
  endfacet
  facet normal 0 0 1
    outer loop
      vertex 7.5 2 6
      vertex 10.5 18 6
      vertex 7.5 18 6
    endloop
  endfacet
  facet normal 0 0 1
    outer loop
      vertex 10.5 18 6
      vertex 7.5 2 6
      vertex 10.5 0 6
    endloop
  endfacet
  facet normal 0 0 1
    outer loop
      vertex 10.5 0 6
      vertex 7.5 2 6
      vertex 7.5 0 6
    endloop
  endfacet
  facet normal 0 0 1
    outer loop
      vertex 7.5 43 6
      vertex 10.5 45 6
      vertex 7.5 45 6
    endloop
  endfacet
  facet normal 0 0 1
    outer loop
      vertex 10.5 45 6
      vertex 7.5 43 6
      vertex 10.5 27 6
    endloop
  endfacet
  facet normal 0 0 1
    outer loop
      vertex 7.5 43 6
      vertex 7.5 27 6
      vertex 10.5 27 6
    endloop
  endfacet
  facet normal 0 0 1
    outer loop
      vertex 3 27 6
      vertex 7.5 27 6
      vertex 7.5 43 6
    endloop
  endfacet
  facet normal 0 0 1
    outer loop
      vertex 7.5 27 6
      vertex 3 27 6
      vertex 7.5 24 6
    endloop
  endfacet
  facet normal 0 0 1
    outer loop
      vertex 3 24 6
      vertex 7.5 24 6
      vertex 3 27 6
    endloop
  endfacet
  facet normal 0 0 1
    outer loop
      vertex 7.5 24 6
      vertex 3 24 6
      vertex 7.5 21 6
    endloop
  endfacet
  facet normal 0 0 1
    outer loop
      vertex 3 27 6
      vertex 7.5 43 6
      vertex 3 43 6
    endloop
  endfacet
  facet normal 0 0 1
    outer loop
      vertex 3 21 6
      vertex 7.5 21 6
      vertex 3 24 6
    endloop
  endfacet
  facet normal 0 0 1
    outer loop
      vertex 7.5 21 6
      vertex 3 21 6
      vertex 7.5 18 6
    endloop
  endfacet
  facet normal 0 0 1
    outer loop
      vertex 3 18 6
      vertex 7.5 18 6
      vertex 3 21 6
    endloop
  endfacet
  facet normal 0 0 1
    outer loop
      vertex 7.5 18 6
      vertex 3 18 6
      vertex 7.5 2 6
    endloop
  endfacet
  facet normal 0 0 1
    outer loop
      vertex 3 18 6
      vertex 3 2 6
      vertex 7.5 2 6
    endloop
  endfacet
  facet normal -0 0 1
    outer loop
      vertex 0 18 6
      vertex 3 2 6
      vertex 3 18 6
    endloop
  endfacet
  facet normal 0 0 1
    outer loop
      vertex 0 0 6
      vertex 3 2 6
      vertex 0 18 6
    endloop
  endfacet
  facet normal 0 0 1
    outer loop
      vertex 3 2 6
      vertex 0 0 6
      vertex 3 0 6
    endloop
  endfacet
  facet normal -0 0 1
    outer loop
      vertex 7.5 24 6
      vertex 10.5 21 6
      vertex 10.5 24 6
    endloop
  endfacet
  facet normal 0 0 1
    outer loop
      vertex 10.5 21 6
      vertex 7.5 24 6
      vertex 7.5 21 6
    endloop
  endfacet
  facet normal -0 0 1
    outer loop
      vertex 0 45 6
      vertex 3 43 6
      vertex 3 45 6
    endloop
  endfacet
  facet normal 0 0 1
    outer loop
      vertex 0 27 6
      vertex 3 43 6
      vertex 0 45 6
    endloop
  endfacet
  facet normal 0 0 1
    outer loop
      vertex 3 43 6
      vertex 0 27 6
      vertex 3 27 6
    endloop
  endfacet
  facet normal 0 -1 0
    outer loop
      vertex 0 18 6
      vertex 3 18 11
      vertex 0 18 11
    endloop
  endfacet
  facet normal 0 -1 -0
    outer loop
      vertex 3 18 11
      vertex 0 18 6
      vertex 3 18 6
    endloop
  endfacet
  facet normal -0 0 1
    outer loop
      vertex 0 27 11
      vertex 3 24 11
      vertex 3 27 11
    endloop
  endfacet
  facet normal 0 0 1
    outer loop
      vertex 3 24 11
      vertex 0 27 11
      vertex 0 24 11
    endloop
  endfacet
  facet normal 1 -0 0
    outer loop
      vertex 3 24 11
      vertex 3 27 6
      vertex 3 27 11
    endloop
  endfacet
  facet normal 1 0 0
    outer loop
      vertex 3 27 6
      vertex 3 24 11
      vertex 3 24 6
    endloop
  endfacet
  facet normal 0 1 -0
    outer loop
      vertex 3 27 6
      vertex 0 27 11
      vertex 3 27 11
    endloop
  endfacet
  facet normal 0 1 0
    outer loop
      vertex 0 27 11
      vertex 3 27 6
      vertex 0 27 6
    endloop
  endfacet
  facet normal 0 -1 0
    outer loop
      vertex 0 24 6
      vertex 3 24 11
      vertex 0 24 11
    endloop
  endfacet
  facet normal 0 -1 -0
    outer loop
      vertex 3 24 11
      vertex 0 24 6
      vertex 3 24 6
    endloop
  endfacet
  facet normal -1 0 0
    outer loop
      vertex 7.5 18 6
      vertex 7.5 21 11
      vertex 7.5 21 6
    endloop
  endfacet
  facet normal -1 -0 0
    outer loop
      vertex 7.5 21 11
      vertex 7.5 18 6
      vertex 7.5 18 11
    endloop
  endfacet
  facet normal -0 0 1
    outer loop
      vertex 7.5 21 11
      vertex 10.5 18 11
      vertex 10.5 21 11
    endloop
  endfacet
  facet normal 0 0 1
    outer loop
      vertex 10.5 18 11
      vertex 7.5 21 11
      vertex 7.5 18 11
    endloop
  endfacet
  facet normal 1 0 0
    outer loop
      vertex 10.5 21 11
      vertex 10.5 18 11
      vertex 10.5 21 6
    endloop
  endfacet
  facet normal 1 0 0
    outer loop
      vertex 10.5 27 11
      vertex 10.5 24 11
      vertex 10.5 27 6
    endloop
  endfacet
  facet normal 1 0 0
    outer loop
      vertex 10.5 45 6
      vertex 10.5 42 3
      vertex 10.5 45 0
    endloop
  endfacet
  facet normal 1 -0 0
    outer loop
      vertex 10.5 27 6
      vertex 10.5 42 3
      vertex 10.5 45 6
    endloop
  endfacet
  facet normal 1 0 0
    outer loop
      vertex 10.5 24 6
      vertex 10.5 27 6
      vertex 10.5 24 11
    endloop
  endfacet
  facet normal 1 -0 0
    outer loop
      vertex 10.5 24 6
      vertex 10.5 42 3
      vertex 10.5 27 6
    endloop
  endfacet
  facet normal 1 -0 0
    outer loop
      vertex 10.5 21 6
      vertex 10.5 42 3
      vertex 10.5 24 6
    endloop
  endfacet
  facet normal 1 0 0
    outer loop
      vertex 10.5 18 6
      vertex 10.5 21 6
      vertex 10.5 18 11
    endloop
  endfacet
  facet normal 1 0 0
    outer loop
      vertex 10.5 3 3
      vertex 10.5 21 6
      vertex 10.5 18 6
    endloop
  endfacet
  facet normal 1 0 0
    outer loop
      vertex 10.5 21 6
      vertex 10.5 3 3
      vertex 10.5 42 3
    endloop
  endfacet
  facet normal 1 -0 0
    outer loop
      vertex 10.5 0 6
      vertex 10.5 3 3
      vertex 10.5 18 6
    endloop
  endfacet
  facet normal 1 0 0
    outer loop
      vertex 10.5 0 0
      vertex 10.5 3 3
      vertex 10.5 0 6
    endloop
  endfacet
  facet normal 1 0 0
    outer loop
      vertex 10.5 3 3
      vertex 10.5 0 0
      vertex 10.5 3 0
    endloop
  endfacet
  facet normal 1 0 0
    outer loop
      vertex 10.5 45 0
      vertex 10.5 42 3
      vertex 10.5 42 0
    endloop
  endfacet
  facet normal 0 1 -0
    outer loop
      vertex 10.5 21 6
      vertex 7.5 21 11
      vertex 10.5 21 11
    endloop
  endfacet
  facet normal 0 1 0
    outer loop
      vertex 7.5 21 11
      vertex 10.5 21 6
      vertex 7.5 21 6
    endloop
  endfacet
  facet normal 0 -1 0
    outer loop
      vertex 7.5 18 6
      vertex 10.5 18 11
      vertex 7.5 18 11
    endloop
  endfacet
  facet normal 0 -1 -0
    outer loop
      vertex 10.5 18 11
      vertex 7.5 18 6
      vertex 10.5 18 6
    endloop
  endfacet
  facet normal -1 0 0
    outer loop
      vertex 7.5 24 6
      vertex 7.5 27 11
      vertex 7.5 27 6
    endloop
  endfacet
  facet normal -1 -0 0
    outer loop
      vertex 7.5 27 11
      vertex 7.5 24 6
      vertex 7.5 24 11
    endloop
  endfacet
  facet normal -0 0 1
    outer loop
      vertex 7.5 27 11
      vertex 10.5 24 11
      vertex 10.5 27 11
    endloop
  endfacet
  facet normal 0 0 1
    outer loop
      vertex 10.5 24 11
      vertex 7.5 27 11
      vertex 7.5 24 11
    endloop
  endfacet
  facet normal 0 1 -0
    outer loop
      vertex 10.5 27 6
      vertex 7.5 27 11
      vertex 10.5 27 11
    endloop
  endfacet
  facet normal 0 1 0
    outer loop
      vertex 7.5 27 11
      vertex 10.5 27 6
      vertex 7.5 27 6
    endloop
  endfacet
  facet normal 0 -1 0
    outer loop
      vertex 7.5 24 6
      vertex 10.5 24 11
      vertex 7.5 24 11
    endloop
  endfacet
  facet normal 0 -1 -0
    outer loop
      vertex 10.5 24 11
      vertex 7.5 24 6
      vertex 10.5 24 6
    endloop
  endfacet
  facet normal 0 1 0
    outer loop
      vertex 10.5 45 6
      vertex 7.5 45 4
      vertex 7.5 45 6
    endloop
  endfacet
  facet normal 0 1 0
    outer loop
      vertex 7.5 45 4
      vertex 10.5 45 0
      vertex 3 45 4
    endloop
  endfacet
  facet normal 0 1 -0
    outer loop
      vertex 10.5 45 0
      vertex 7.5 45 4
      vertex 10.5 45 6
    endloop
  endfacet
  facet normal 0 1 -0
    outer loop
      vertex 3 45 4
      vertex 0 45 6
      vertex 3 45 6
    endloop
  endfacet
  facet normal 0 1 0
    outer loop
      vertex 3 45 4
      vertex 0 45 0
      vertex 0 45 6
    endloop
  endfacet
  facet normal 0 1 0
    outer loop
      vertex 0 45 0
      vertex 3 45 4
      vertex 10.5 45 0
    endloop
  endfacet
  facet normal 0 0 -1
    outer loop
      vertex 0 3 3
      vertex 10.5 42 3
      vertex 10.5 3 3
    endloop
  endfacet
  facet normal -0 0 -1
    outer loop
      vertex 10.5 42 3
      vertex 0 3 3
      vertex 0 42 3
    endloop
  endfacet
  facet normal 0 -1 0
    outer loop
      vertex 0 0 6
      vertex 3 0 4
      vertex 3 0 6
    endloop
  endfacet
  facet normal 0 -1 -0
    outer loop
      vertex 3 0 4
      vertex 0 0 0
      vertex 7.5 0 4
    endloop
  endfacet
  facet normal 0 -1 0
    outer loop
      vertex 0 0 0
      vertex 3 0 4
      vertex 0 0 6
    endloop
  endfacet
  facet normal 0 -1 0
    outer loop
      vertex 7.5 0 4
      vertex 10.5 0 6
      vertex 7.5 0 6
    endloop
  endfacet
  facet normal 0 -1 0
    outer loop
      vertex 7.5 0 4
      vertex 10.5 0 0
      vertex 10.5 0 6
    endloop
  endfacet
  facet normal 0 -1 0
    outer loop
      vertex 10.5 0 0
      vertex 7.5 0 4
      vertex 0 0 0
    endloop
  endfacet
  facet normal 0 1 -0
    outer loop
      vertex 10.5 3 0
      vertex 0 3 3
      vertex 10.5 3 3
    endloop
  endfacet
  facet normal 0 1 0
    outer loop
      vertex 0 3 3
      vertex 10.5 3 0
      vertex 0 3 0
    endloop
  endfacet
  facet normal 0 0 -1
    outer loop
      vertex 0 0 0
      vertex 10.5 3 0
      vertex 10.5 0 0
    endloop
  endfacet
  facet normal -0 0 -1
    outer loop
      vertex 10.5 3 0
      vertex 0 0 0
      vertex 0 3 0
    endloop
  endfacet
  facet normal 0 0 -1
    outer loop
      vertex 0 42 0
      vertex 10.5 45 0
      vertex 10.5 42 0
    endloop
  endfacet
  facet normal -0 0 -1
    outer loop
      vertex 10.5 45 0
      vertex 0 42 0
      vertex 0 45 0
    endloop
  endfacet
  facet normal 0 -1 0
    outer loop
      vertex 0 42 0
      vertex 10.5 42 3
      vertex 0 42 3
    endloop
  endfacet
  facet normal 0 -1 -0
    outer loop
      vertex 10.5 42 3
      vertex 0 42 0
      vertex 10.5 42 0
    endloop
  endfacet
  facet normal 1 0 0
    outer loop
      vertex 3 2 6
      vertex 3 0 6
      vertex 3 0 4
    endloop
  endfacet
  facet normal 0 -0.707107 0.707107
    outer loop
      vertex 3 0 4
      vertex 7.5 2 6
      vertex 3 2 6
    endloop
  endfacet
  facet normal 0 -0.707107 0.707107
    outer loop
      vertex 7.5 2 6
      vertex 3 0 4
      vertex 7.5 0 4
    endloop
  endfacet
  facet normal -1 0 0
    outer loop
      vertex 7.5 0 6
      vertex 7.5 2 6
      vertex 7.5 0 4
    endloop
  endfacet
  facet normal 1 0 -0
    outer loop
      vertex 3 45 4
      vertex 3 45 6
      vertex 3 43 6
    endloop
  endfacet
  facet normal 0 0.707107 0.707107
    outer loop
      vertex 7.5 45 4
      vertex 3 43 6
      vertex 7.5 43 6
    endloop
  endfacet
  facet normal 0 0.707107 0.707107
    outer loop
      vertex 3 43 6
      vertex 7.5 45 4
      vertex 3 45 4
    endloop
  endfacet
  facet normal -1 -0 -0
    outer loop
      vertex 7.5 45 6
      vertex 7.5 45 4
      vertex 7.5 43 6
    endloop
  endfacet
endsolid OpenSCAD_Model
