solid OpenSCAD_Model
  facet normal -1 0 0
    outer loop
      vertex 0 3 0
      vertex 0 0 0
      vertex 0 3 3
    endloop
  endfacet
  facet normal -1 0 0
    outer loop
      vertex 0 42 3
      vertex 0 45 0
      vertex 0 42 0
    endloop
  endfacet
  facet normal -1 0 0
    outer loop
      vertex 0 45 0
      vertex 0 42 3
      vertex 0 45 6
    endloop
  endfacet
  facet normal -1 0 0
    outer loop
      vertex 0 42 3
      vertex 0 27 6
      vertex 0 45 6
    endloop
  endfacet
  facet normal -1 0 0
    outer loop
      vertex 0 27 6
      vertex 0 24 6
      vertex 0 27 11
    endloop
  endfacet
  facet normal -1 0 0
    outer loop
      vertex 0 42 3
      vertex 0 24 6
      vertex 0 27 6
    endloop
  endfacet
  facet normal -1 0 0
    outer loop
      vertex 0 42 3
      vertex 0 21 6
      vertex 0 24 6
    endloop
  endfacet
  facet normal -1 0 0
    outer loop
      vertex 0 21 6
      vertex 0 18 6
      vertex 0 21 11
    endloop
  endfacet
  facet normal -1 0 0
    outer loop
      vertex 0 3 3
      vertex 0 21 6
      vertex 0 42 3
    endloop
  endfacet
  facet normal -1 -0 0
    outer loop
      vertex 0 21 6
      vertex 0 3 3
      vertex 0 18 6
    endloop
  endfacet
  facet normal -1 0 0
    outer loop
      vertex 0 3 3
      vertex 0 0 6
      vertex 0 18 6
    endloop
  endfacet
  facet normal -1 0 0
    outer loop
      vertex 0 0 6
      vertex 0 3 3
      vertex 0 0 0
    endloop
  endfacet
  facet normal -1 -0 0
    outer loop
      vertex 0 27 11
      vertex 0 24 6
      vertex 0 24 11
    endloop
  endfacet
  facet normal -1 -0 0
    outer loop
      vertex 0 21 11
      vertex 0 18 6
      vertex 0 18 11
    endloop
  endfacet
  facet normal -0 0 1
    outer loop
      vertex 0 21 11
      vertex 3 18 11
      vertex 3 21 11
    endloop
  endfacet
  facet normal 0 0 1
    outer loop
      vertex 3 18 11
      vertex 0 21 11
      vertex 0 18 11
    endloop
  endfacet
  facet normal 1 -0 0
    outer loop
      vertex 3 18 11
      vertex 3 21 6
      vertex 3 21 11
    endloop
  endfacet
  facet normal 1 0 0
    outer loop
      vertex 3 21 6
      vertex 3 18 11
      vertex 3 18 6
    endloop
  endfacet
  facet normal 0 1 -0
    outer loop
      vertex 3 21 6
      vertex 0 21 11
      vertex 3 21 11
    endloop
  endfacet
  facet normal 0 1 0
    outer loop
      vertex 0 21 11
      vertex 3 21 6
      vertex 0 21 6
    endloop
  endfacet
  facet normal -0 0 1
    outer loop
      vertex 0 24 6
      vertex 3 21 6
      vertex 3 24 6
    endloop
  endfacet
  facet normal 0 0 1
    outer loop
      vertex 3 21 6
      vertex 0 24 6
      vertex 0 21 6
    endloop
  endfacet
  facet normal 0 0 1
    outer loop
      vertex 7.5 24 6
      vertex 3 24 6
      vertex 7.5 21 6
    endloop
  endfacet
  facet normal 0 0 1
    outer loop
      vertex 3 21 6
      vertex 7.5 21 6
      vertex 3 24 6
    endloop
  endfacet
  facet normal 0 0 1
    outer loop
      vertex 7.5 21 6
      vertex 3 21 6
      vertex 7.5 18 6
    endloop
  endfacet
  facet normal 0 0 1
    outer loop
      vertex 3 18 6
      vertex 7.5 18 6
      vertex 3 21 6
    endloop
  endfacet
  facet normal 0 0 1
    outer loop
      vertex 7.5 18 6
      vertex 3 18 6
      vertex 6 2 6
    endloop
  endfacet
  facet normal 0 0 1
    outer loop
      vertex 3 18 6
      vertex 3 2 6
      vertex 6 2 6
    endloop
  endfacet
  facet normal -0 0 1
    outer loop
      vertex 0 18 6
      vertex 3 2 6
      vertex 3 18 6
    endloop
  endfacet
  facet normal 0 0 1
    outer loop
      vertex 0 0 6
      vertex 3 2 6
      vertex 0 18 6
    endloop
  endfacet
  facet normal 0 0 1
    outer loop
      vertex 3 2 6
      vertex 0 0 6
      vertex 3 0 6
    endloop
  endfacet
  facet normal -0 0 1
    outer loop
      vertex 0 45 6
      vertex 3 43 6
      vertex 3 45 6
    endloop
  endfacet
  facet normal 0 0 1
    outer loop
      vertex 0 27 6
      vertex 3 43 6
      vertex 0 45 6
    endloop
  endfacet
  facet normal 0 0 1
    outer loop
      vertex 3 43 6
      vertex 0 27 6
      vertex 3 27 6
    endloop
  endfacet
  facet normal -0 0 1
    outer loop
      vertex 7.5 24 6
      vertex 10.5 21 6
      vertex 10.5 24 6
    endloop
  endfacet
  facet normal 0 0 1
    outer loop
      vertex 10.5 21 6
      vertex 7.5 24 6
      vertex 7.5 21 6
    endloop
  endfacet
  facet normal 0 0 1
    outer loop
      vertex 6 43 6
      vertex 12 43 6
      vertex 12 45 6
    endloop
  endfacet
  facet normal 0 0 1
    outer loop
      vertex 12 43 6
      vertex 10.5 24 6
      vertex 12 2 6
    endloop
  endfacet
  facet normal 0 0 1
    outer loop
      vertex 12 43 6
      vertex 10.5 27 6
      vertex 10.5 24 6
    endloop
  endfacet
  facet normal 0 0 1
    outer loop
      vertex 12 43 6
      vertex 6 43 6
      vertex 10.5 27 6
    endloop
  endfacet
  facet normal 0 0 1
    outer loop
      vertex 3 27 6
      vertex 6 43 6
      vertex 3 43 6
    endloop
  endfacet
  facet normal 0 0 1
    outer loop
      vertex 6 43 6
      vertex 3 27 6
      vertex 7.5 27 6
    endloop
  endfacet
  facet normal 0 0 1
    outer loop
      vertex 10.5 27 6
      vertex 6 43 6
      vertex 7.5 27 6
    endloop
  endfacet
  facet normal 0 0 1
    outer loop
      vertex 6 43 6
      vertex 12 45 6
      vertex 6 45 6
    endloop
  endfacet
  facet normal 0 0 1
    outer loop
      vertex 15 2 6
      vertex 18 18 6
      vertex 15 18 6
    endloop
  endfacet
  facet normal 0 0 1
    outer loop
      vertex 18 18 6
      vertex 15 2 6
      vertex 18 0 6
    endloop
  endfacet
  facet normal 0 0 1
    outer loop
      vertex 18 0 6
      vertex 15 2 6
      vertex 15 0 6
    endloop
  endfacet
  facet normal 0 0 1
    outer loop
      vertex 15 43 6
      vertex 18 45 6
      vertex 15 45 6
    endloop
  endfacet
  facet normal 0 0 1
    outer loop
      vertex 18 45 6
      vertex 15 43 6
      vertex 18 27 6
    endloop
  endfacet
  facet normal 0 0 1
    outer loop
      vertex 15 43 6
      vertex 15 27 6
      vertex 18 27 6
    endloop
  endfacet
  facet normal -0 0 1
    outer loop
      vertex 12 43 6
      vertex 15 27 6
      vertex 15 43 6
    endloop
  endfacet
  facet normal 0 0 1
    outer loop
      vertex 15 27 6
      vertex 12 43 6
      vertex 15 24 6
    endloop
  endfacet
  facet normal 0 0 1
    outer loop
      vertex 15 24 6
      vertex 12 43 6
      vertex 15 21 6
    endloop
  endfacet
  facet normal 0 0 1
    outer loop
      vertex 12 2 6
      vertex 15 21 6
      vertex 12 43 6
    endloop
  endfacet
  facet normal 0 0 1
    outer loop
      vertex 15 21 6
      vertex 12 2 6
      vertex 15 18 6
    endloop
  endfacet
  facet normal 0 0 1
    outer loop
      vertex 15 18 6
      vertex 12 2 6
      vertex 15 2 6
    endloop
  endfacet
  facet normal -0 0 1
    outer loop
      vertex 15 24 6
      vertex 18 21 6
      vertex 18 24 6
    endloop
  endfacet
  facet normal 0 0 1
    outer loop
      vertex 18 21 6
      vertex 15 24 6
      vertex 15 21 6
    endloop
  endfacet
  facet normal -0 0 1
    outer loop
      vertex 10.5 21 6
      vertex 12 2 6
      vertex 10.5 24 6
    endloop
  endfacet
  facet normal -0 0 1
    outer loop
      vertex 10.5 18 6
      vertex 12 2 6
      vertex 10.5 21 6
    endloop
  endfacet
  facet normal 0 0 1
    outer loop
      vertex 6 2 6
      vertex 12 2 6
      vertex 10.5 18 6
    endloop
  endfacet
  facet normal 0 0 1
    outer loop
      vertex 6 2 6
      vertex 10.5 18 6
      vertex 7.5 18 6
    endloop
  endfacet
  facet normal 0 0 1
    outer loop
      vertex 7.5 27 6
      vertex 3 27 6
      vertex 7.5 24 6
    endloop
  endfacet
  facet normal 0 0 1
    outer loop
      vertex 3 24 6
      vertex 7.5 24 6
      vertex 3 27 6
    endloop
  endfacet
  facet normal 0 0 1
    outer loop
      vertex 12 2 6
      vertex 6 2 6
      vertex 12 0 6
    endloop
  endfacet
  facet normal 0 0 1
    outer loop
      vertex 12 0 6
      vertex 6 2 6
      vertex 6 0 6
    endloop
  endfacet
  facet normal 0 -1 0
    outer loop
      vertex 0 18 6
      vertex 3 18 11
      vertex 0 18 11
    endloop
  endfacet
  facet normal 0 -1 -0
    outer loop
      vertex 3 18 11
      vertex 0 18 6
      vertex 3 18 6
    endloop
  endfacet
  facet normal -0 0 1
    outer loop
      vertex 0 27 11
      vertex 3 24 11
      vertex 3 27 11
    endloop
  endfacet
  facet normal 0 0 1
    outer loop
      vertex 3 24 11
      vertex 0 27 11
      vertex 0 24 11
    endloop
  endfacet
  facet normal 1 -0 0
    outer loop
      vertex 3 24 11
      vertex 3 27 6
      vertex 3 27 11
    endloop
  endfacet
  facet normal 1 0 0
    outer loop
      vertex 3 27 6
      vertex 3 24 11
      vertex 3 24 6
    endloop
  endfacet
  facet normal 0 1 -0
    outer loop
      vertex 3 27 6
      vertex 0 27 11
      vertex 3 27 11
    endloop
  endfacet
  facet normal 0 1 0
    outer loop
      vertex 0 27 11
      vertex 3 27 6
      vertex 0 27 6
    endloop
  endfacet
  facet normal 0 -1 0
    outer loop
      vertex 0 24 6
      vertex 3 24 11
      vertex 0 24 11
    endloop
  endfacet
  facet normal 0 -1 -0
    outer loop
      vertex 3 24 11
      vertex 0 24 6
      vertex 3 24 6
    endloop
  endfacet
  facet normal -1 0 0
    outer loop
      vertex 7.5 18 6
      vertex 7.5 21 11
      vertex 7.5 21 6
    endloop
  endfacet
  facet normal -1 -0 0
    outer loop
      vertex 7.5 21 11
      vertex 7.5 18 6
      vertex 7.5 18 11
    endloop
  endfacet
  facet normal -0 0 1
    outer loop
      vertex 7.5 21 11
      vertex 10.5 18 11
      vertex 10.5 21 11
    endloop
  endfacet
  facet normal 0 0 1
    outer loop
      vertex 10.5 18 11
      vertex 7.5 21 11
      vertex 7.5 18 11
    endloop
  endfacet
  facet normal 1 -0 0
    outer loop
      vertex 10.5 18 11
      vertex 10.5 21 6
      vertex 10.5 21 11
    endloop
  endfacet
  facet normal 1 0 0
    outer loop
      vertex 10.5 21 6
      vertex 10.5 18 11
      vertex 10.5 18 6
    endloop
  endfacet
  facet normal 0 1 -0
    outer loop
      vertex 10.5 21 6
      vertex 7.5 21 11
      vertex 10.5 21 11
    endloop
  endfacet
  facet normal 0 1 0
    outer loop
      vertex 7.5 21 11
      vertex 10.5 21 6
      vertex 7.5 21 6
    endloop
  endfacet
  facet normal 0 -1 0
    outer loop
      vertex 7.5 18 6
      vertex 10.5 18 11
      vertex 7.5 18 11
    endloop
  endfacet
  facet normal 0 -1 -0
    outer loop
      vertex 10.5 18 11
      vertex 7.5 18 6
      vertex 10.5 18 6
    endloop
  endfacet
  facet normal -1 0 0
    outer loop
      vertex 7.5 24 6
      vertex 7.5 27 11
      vertex 7.5 27 6
    endloop
  endfacet
  facet normal -1 -0 0
    outer loop
      vertex 7.5 27 11
      vertex 7.5 24 6
      vertex 7.5 24 11
    endloop
  endfacet
  facet normal -0 0 1
    outer loop
      vertex 7.5 27 11
      vertex 10.5 24 11
      vertex 10.5 27 11
    endloop
  endfacet
  facet normal 0 0 1
    outer loop
      vertex 10.5 24 11
      vertex 7.5 27 11
      vertex 7.5 24 11
    endloop
  endfacet
  facet normal 1 -0 0
    outer loop
      vertex 10.5 24 11
      vertex 10.5 27 6
      vertex 10.5 27 11
    endloop
  endfacet
  facet normal 1 0 0
    outer loop
      vertex 10.5 27 6
      vertex 10.5 24 11
      vertex 10.5 24 6
    endloop
  endfacet
  facet normal 0 1 -0
    outer loop
      vertex 10.5 27 6
      vertex 7.5 27 11
      vertex 10.5 27 11
    endloop
  endfacet
  facet normal 0 1 0
    outer loop
      vertex 7.5 27 11
      vertex 10.5 27 6
      vertex 7.5 27 6
    endloop
  endfacet
  facet normal 0 -1 0
    outer loop
      vertex 7.5 24 6
      vertex 10.5 24 11
      vertex 7.5 24 11
    endloop
  endfacet
  facet normal 0 -1 -0
    outer loop
      vertex 10.5 24 11
      vertex 7.5 24 6
      vertex 10.5 24 6
    endloop
  endfacet
  facet normal -1 0 0
    outer loop
      vertex 15 18 6
      vertex 15 21 11
      vertex 15 21 6
    endloop
  endfacet
  facet normal -1 -0 0
    outer loop
      vertex 15 21 11
      vertex 15 18 6
      vertex 15 18 11
    endloop
  endfacet
  facet normal -0 0 1
    outer loop
      vertex 15 21 11
      vertex 18 18 11
      vertex 18 21 11
    endloop
  endfacet
  facet normal 0 0 1
    outer loop
      vertex 18 18 11
      vertex 15 21 11
      vertex 15 18 11
    endloop
  endfacet
  facet normal 1 0 0
    outer loop
      vertex 18 21 11
      vertex 18 18 11
      vertex 18 21 6
    endloop
  endfacet
  facet normal 1 0 0
    outer loop
      vertex 18 27 11
      vertex 18 24 11
      vertex 18 27 6
    endloop
  endfacet
  facet normal 1 0 0
    outer loop
      vertex 18 45 6
      vertex 18 42 3
      vertex 18 45 0
    endloop
  endfacet
  facet normal 1 -0 0
    outer loop
      vertex 18 27 6
      vertex 18 42 3
      vertex 18 45 6
    endloop
  endfacet
  facet normal 1 0 0
    outer loop
      vertex 18 24 6
      vertex 18 27 6
      vertex 18 24 11
    endloop
  endfacet
  facet normal 1 -0 0
    outer loop
      vertex 18 24 6
      vertex 18 42 3
      vertex 18 27 6
    endloop
  endfacet
  facet normal 1 -0 0
    outer loop
      vertex 18 21 6
      vertex 18 42 3
      vertex 18 24 6
    endloop
  endfacet
  facet normal 1 0 0
    outer loop
      vertex 18 18 6
      vertex 18 21 6
      vertex 18 18 11
    endloop
  endfacet
  facet normal 1 0 0
    outer loop
      vertex 18 3 3
      vertex 18 21 6
      vertex 18 18 6
    endloop
  endfacet
  facet normal 1 0 0
    outer loop
      vertex 18 21 6
      vertex 18 3 3
      vertex 18 42 3
    endloop
  endfacet
  facet normal 1 -0 0
    outer loop
      vertex 18 0 6
      vertex 18 3 3
      vertex 18 18 6
    endloop
  endfacet
  facet normal 1 0 0
    outer loop
      vertex 18 0 0
      vertex 18 3 3
      vertex 18 0 6
    endloop
  endfacet
  facet normal 1 0 0
    outer loop
      vertex 18 3 3
      vertex 18 0 0
      vertex 18 3 0
    endloop
  endfacet
  facet normal 1 0 0
    outer loop
      vertex 18 45 0
      vertex 18 42 3
      vertex 18 42 0
    endloop
  endfacet
  facet normal 0 1 -0
    outer loop
      vertex 18 21 6
      vertex 15 21 11
      vertex 18 21 11
    endloop
  endfacet
  facet normal 0 1 0
    outer loop
      vertex 15 21 11
      vertex 18 21 6
      vertex 15 21 6
    endloop
  endfacet
  facet normal 0 -1 0
    outer loop
      vertex 15 18 6
      vertex 18 18 11
      vertex 15 18 11
    endloop
  endfacet
  facet normal 0 -1 -0
    outer loop
      vertex 18 18 11
      vertex 15 18 6
      vertex 18 18 6
    endloop
  endfacet
  facet normal -1 0 0
    outer loop
      vertex 15 24 6
      vertex 15 27 11
      vertex 15 27 6
    endloop
  endfacet
  facet normal -1 -0 0
    outer loop
      vertex 15 27 11
      vertex 15 24 6
      vertex 15 24 11
    endloop
  endfacet
  facet normal -0 0 1
    outer loop
      vertex 15 27 11
      vertex 18 24 11
      vertex 18 27 11
    endloop
  endfacet
  facet normal 0 0 1
    outer loop
      vertex 18 24 11
      vertex 15 27 11
      vertex 15 24 11
    endloop
  endfacet
  facet normal 0 1 -0
    outer loop
      vertex 18 27 6
      vertex 15 27 11
      vertex 18 27 11
    endloop
  endfacet
  facet normal 0 1 0
    outer loop
      vertex 15 27 11
      vertex 18 27 6
      vertex 15 27 6
    endloop
  endfacet
  facet normal 0 -1 0
    outer loop
      vertex 15 24 6
      vertex 18 24 11
      vertex 15 24 11
    endloop
  endfacet
  facet normal 0 -1 -0
    outer loop
      vertex 18 24 11
      vertex 15 24 6
      vertex 18 24 6
    endloop
  endfacet
  facet normal 0 1 0
    outer loop
      vertex 18 45 6
      vertex 15 45 4
      vertex 15 45 6
    endloop
  endfacet
  facet normal 0 1 0
    outer loop
      vertex 18 45 0
      vertex 12 45 4
      vertex 15 45 4
    endloop
  endfacet
  facet normal 0 1 0
    outer loop
      vertex 12 45 4
      vertex 18 45 0
      vertex 6 45 4
    endloop
  endfacet
  facet normal 0 1 0
    outer loop
      vertex 0 45 0
      vertex 6 45 4
      vertex 18 45 0
    endloop
  endfacet
  facet normal 0 1 -0
    outer loop
      vertex 18 45 0
      vertex 15 45 4
      vertex 18 45 6
    endloop
  endfacet
  facet normal 0 1 -0
    outer loop
      vertex 12 45 4
      vertex 6 45 6
      vertex 12 45 6
    endloop
  endfacet
  facet normal 0 1 0
    outer loop
      vertex 6 45 6
      vertex 12 45 4
      vertex 6 45 4
    endloop
  endfacet
  facet normal 0 1 -0
    outer loop
      vertex 3 45 4
      vertex 0 45 6
      vertex 3 45 6
    endloop
  endfacet
  facet normal 0 1 0
    outer loop
      vertex 3 45 4
      vertex 0 45 0
      vertex 0 45 6
    endloop
  endfacet
  facet normal 0 1 0
    outer loop
      vertex 6 45 4
      vertex 0 45 0
      vertex 3 45 4
    endloop
  endfacet
  facet normal 0 0 -1
    outer loop
      vertex 0 3 3
      vertex 18 42 3
      vertex 18 3 3
    endloop
  endfacet
  facet normal -0 0 -1
    outer loop
      vertex 18 42 3
      vertex 0 3 3
      vertex 0 42 3
    endloop
  endfacet
  facet normal 0 -1 0
    outer loop
      vertex 0 0 6
      vertex 3 0 4
      vertex 3 0 6
    endloop
  endfacet
  facet normal 0 -1 0
    outer loop
      vertex 0 0 0
      vertex 6 0 4
      vertex 3 0 4
    endloop
  endfacet
  facet normal 0 -1 -0
    outer loop
      vertex 6 0 4
      vertex 0 0 0
      vertex 12 0 4
    endloop
  endfacet
  facet normal 0 -1 0
    outer loop
      vertex 18 0 0
      vertex 12 0 4
      vertex 0 0 0
    endloop
  endfacet
  facet normal 0 -1 0
    outer loop
      vertex 0 0 0
      vertex 3 0 4
      vertex 0 0 6
    endloop
  endfacet
  facet normal 0 -1 0
    outer loop
      vertex 6 0 4
      vertex 12 0 6
      vertex 6 0 6
    endloop
  endfacet
  facet normal 0 -1 -0
    outer loop
      vertex 12 0 6
      vertex 6 0 4
      vertex 12 0 4
    endloop
  endfacet
  facet normal 0 -1 0
    outer loop
      vertex 15 0 4
      vertex 18 0 6
      vertex 15 0 6
    endloop
  endfacet
  facet normal 0 -1 0
    outer loop
      vertex 15 0 4
      vertex 18 0 0
      vertex 18 0 6
    endloop
  endfacet
  facet normal 0 -1 0
    outer loop
      vertex 12 0 4
      vertex 18 0 0
      vertex 15 0 4
    endloop
  endfacet
  facet normal 0 1 -0
    outer loop
      vertex 18 3 0
      vertex 0 3 3
      vertex 18 3 3
    endloop
  endfacet
  facet normal 0 1 0
    outer loop
      vertex 0 3 3
      vertex 18 3 0
      vertex 0 3 0
    endloop
  endfacet
  facet normal 0 0 -1
    outer loop
      vertex 0 0 0
      vertex 18 3 0
      vertex 18 0 0
    endloop
  endfacet
  facet normal -0 0 -1
    outer loop
      vertex 18 3 0
      vertex 0 0 0
      vertex 0 3 0
    endloop
  endfacet
  facet normal 0 0 -1
    outer loop
      vertex 0 42 0
      vertex 18 45 0
      vertex 18 42 0
    endloop
  endfacet
  facet normal -0 0 -1
    outer loop
      vertex 18 45 0
      vertex 0 42 0
      vertex 0 45 0
    endloop
  endfacet
  facet normal 0 -1 0
    outer loop
      vertex 0 42 0
      vertex 18 42 3
      vertex 0 42 3
    endloop
  endfacet
  facet normal 0 -1 -0
    outer loop
      vertex 18 42 3
      vertex 0 42 0
      vertex 18 42 0
    endloop
  endfacet
  facet normal 1 0 0
    outer loop
      vertex 3 2 6
      vertex 3 0 6
      vertex 3 0 4
    endloop
  endfacet
  facet normal -1 0 0
    outer loop
      vertex 6 0 6
      vertex 6 2 6
      vertex 6 0 4
    endloop
  endfacet
  facet normal 0 -0.707107 0.707107
    outer loop
      vertex 3 0 4
      vertex 6 2 6
      vertex 3 2 6
    endloop
  endfacet
  facet normal 0 -0.707107 0.707107
    outer loop
      vertex 6 2 6
      vertex 3 0 4
      vertex 6 0 4
    endloop
  endfacet
  facet normal 1 0 0
    outer loop
      vertex 12 2 6
      vertex 12 0 6
      vertex 12 0 4
    endloop
  endfacet
  facet normal -1 0 0
    outer loop
      vertex 15 0 6
      vertex 15 2 6
      vertex 15 0 4
    endloop
  endfacet
  facet normal 0 -0.707107 0.707107
    outer loop
      vertex 12 0 4
      vertex 15 2 6
      vertex 12 2 6
    endloop
  endfacet
  facet normal 0 -0.707107 0.707107
    outer loop
      vertex 15 2 6
      vertex 12 0 4
      vertex 15 0 4
    endloop
  endfacet
  facet normal 1 0 -0
    outer loop
      vertex 3 45 4
      vertex 3 45 6
      vertex 3 43 6
    endloop
  endfacet
  facet normal -1 -0 -0
    outer loop
      vertex 6 45 6
      vertex 6 45 4
      vertex 6 43 6
    endloop
  endfacet
  facet normal 0 0.707107 0.707107
    outer loop
      vertex 6 45 4
      vertex 3 43 6
      vertex 6 43 6
    endloop
  endfacet
  facet normal 0 0.707107 0.707107
    outer loop
      vertex 3 43 6
      vertex 6 45 4
      vertex 3 45 4
    endloop
  endfacet
  facet normal 1 0 -0
    outer loop
      vertex 12 45 4
      vertex 12 45 6
      vertex 12 43 6
    endloop
  endfacet
  facet normal -1 -0 -0
    outer loop
      vertex 15 45 6
      vertex 15 45 4
      vertex 15 43 6
    endloop
  endfacet
  facet normal 0 0.707107 0.707107
    outer loop
      vertex 15 45 4
      vertex 12 43 6
      vertex 15 43 6
    endloop
  endfacet
  facet normal 0 0.707107 0.707107
    outer loop
      vertex 12 43 6
      vertex 15 45 4
      vertex 12 45 4
    endloop
  endfacet
endsolid OpenSCAD_Model
