solid OpenSCAD_Model
  facet normal -1 0 0
    outer loop
      vertex -6.5 13 -3
      vertex -6.5 9 3
      vertex -6.5 13 7
    endloop
  endfacet
  facet normal -1 0 0
    outer loop
      vertex -6.5 13 -3
      vertex -6.5 -9 3
      vertex -6.5 9 3
    endloop
  endfacet
  facet normal -1 0 0
    outer loop
      vertex -6.5 -13 -3
      vertex -6.5 -9 3
      vertex -6.5 13 -3
    endloop
  endfacet
  facet normal -1 0 0
    outer loop
      vertex -6.5 -13 7
      vertex -6.5 -9 3
      vertex -6.5 -13 -3
    endloop
  endfacet
  facet normal -1 0 0
    outer loop
      vertex -6.5 -9 3
      vertex -6.5 -13 7
      vertex -6.5 -9 7
    endloop
  endfacet
  facet normal -1 -0 0
    outer loop
      vertex -6.5 13 7
      vertex -6.5 9 3
      vertex -6.5 9 7
    endloop
  endfacet
  facet normal -0 0 1
    outer loop
      vertex -6.5 13 7
      vertex 26.5 9 7
      vertex 26.5 13 7
    endloop
  endfacet
  facet normal 0 0 1
    outer loop
      vertex 26.5 9 7
      vertex -6.5 13 7
      vertex -6.5 9 7
    endloop
  endfacet
  facet normal 1 -0 0
    outer loop
      vertex 26.5 9 7
      vertex 26.5 13 -3
      vertex 26.5 13 7
    endloop
  endfacet
  facet normal 1 0 0
    outer loop
      vertex 26.5 13 -3
      vertex 26.5 9 7
      vertex 26.5 9 -3
    endloop
  endfacet
  facet normal 0 0 -1
    outer loop
      vertex 26.5 -13 -3
      vertex 6.5 -9 -3
      vertex 26.5 -9 -3
    endloop
  endfacet
  facet normal -0 0 -1
    outer loop
      vertex 6.5 -9 -3
      vertex -6.5 -13 -3
      vertex 6.5 9 -3
    endloop
  endfacet
  facet normal 0 0 -1
    outer loop
      vertex -6.5 -13 -3
      vertex 6.5 -9 -3
      vertex 26.5 -13 -3
    endloop
  endfacet
  facet normal 0 0 -1
    outer loop
      vertex 6.5 9 -3
      vertex 26.5 13 -3
      vertex 26.5 9 -3
    endloop
  endfacet
  facet normal 0 0 -1
    outer loop
      vertex 6.5 9 -3
      vertex -6.5 13 -3
      vertex 26.5 13 -3
    endloop
  endfacet
  facet normal 0 0 -1
    outer loop
      vertex -6.5 13 -3
      vertex 6.5 9 -3
      vertex -6.5 -13 -3
    endloop
  endfacet
  facet normal 0 -1 0
    outer loop
      vertex 6.5 9 3
      vertex -6.5 9 7
      vertex -6.5 9 3
    endloop
  endfacet
  facet normal 0 -1 0
    outer loop
      vertex -6.5 9 7
      vertex 6.5 9 3
      vertex 26.5 9 7
    endloop
  endfacet
  facet normal 0 -1 0
    outer loop
      vertex 26.5 9 -3
      vertex 6.5 9 3
      vertex 6.5 9 -3
    endloop
  endfacet
  facet normal 0 -1 0
    outer loop
      vertex 6.5 9 3
      vertex 26.5 9 -3
      vertex 26.5 9 7
    endloop
  endfacet
  facet normal 0 1 -0
    outer loop
      vertex 26.5 13 -3
      vertex -6.5 13 7
      vertex 26.5 13 7
    endloop
  endfacet
  facet normal 0 1 0
    outer loop
      vertex -6.5 13 7
      vertex 26.5 13 -3
      vertex -6.5 13 -3
    endloop
  endfacet
  facet normal -0.957826 0 -0.287348
    outer loop
      vertex -3.5 -2 3
      vertex -4.7 2 7
      vertex -3.5 2 3
    endloop
  endfacet
  facet normal -0.957826 -0 -0.287348
    outer loop
      vertex -4.7 2 7
      vertex -3.5 -2 3
      vertex -4.7 -2 7
    endloop
  endfacet
  facet normal -0 0 1
    outer loop
      vertex -4.7 2 7
      vertex 5.3 -2 7
      vertex 5.3 2 7
    endloop
  endfacet
  facet normal 0 0 1
    outer loop
      vertex 5.3 -2 7
      vertex -4.7 2 7
      vertex -4.7 -2 7
    endloop
  endfacet
  facet normal 0.957826 -0 0.287348
    outer loop
      vertex 5.3 -2 7
      vertex 6.5 2 3
      vertex 5.3 2 7
    endloop
  endfacet
  facet normal 0.957826 0 0.287348
    outer loop
      vertex 6.5 2 3
      vertex 5.3 -2 7
      vertex 6.5 -2 3
    endloop
  endfacet
  facet normal 0 -1 0
    outer loop
      vertex -3.5 -2 3
      vertex 5.3 -2 7
      vertex -4.7 -2 7
    endloop
  endfacet
  facet normal 0 -1 -0
    outer loop
      vertex 5.3 -2 7
      vertex -3.5 -2 3
      vertex 6.5 -2 3
    endloop
  endfacet
  facet normal 0 1 0
    outer loop
      vertex -3.5 2 3
      vertex 5.3 2 7
      vertex 6.5 2 3
    endloop
  endfacet
  facet normal 0 1 0
    outer loop
      vertex 5.3 2 7
      vertex -3.5 2 3
      vertex -4.7 2 7
    endloop
  endfacet
  facet normal 0 0 1
    outer loop
      vertex 6.5 9 3
      vertex -3.5 2 3
      vertex 6.5 2 3
    endloop
  endfacet
  facet normal 0 0 1
    outer loop
      vertex -3.5 2 3
      vertex -6.5 9 3
      vertex -3.5 -2 3
    endloop
  endfacet
  facet normal -0 0 1
    outer loop
      vertex -6.5 9 3
      vertex -3.5 2 3
      vertex 6.5 9 3
    endloop
  endfacet
  facet normal -0 0 1
    outer loop
      vertex -3.5 -2 3
      vertex 6.5 -9 3
      vertex 6.5 -2 3
    endloop
  endfacet
  facet normal 0 0 1
    outer loop
      vertex -3.5 -2 3
      vertex -6.5 -9 3
      vertex 6.5 -9 3
    endloop
  endfacet
  facet normal 0 0 1
    outer loop
      vertex -6.5 -9 3
      vertex -3.5 -2 3
      vertex -6.5 9 3
    endloop
  endfacet
  facet normal 1 -0 0
    outer loop
      vertex 6.5 2 3
      vertex 6.5 9 -3
      vertex 6.5 9 3
    endloop
  endfacet
  facet normal 1 -0 0
    outer loop
      vertex 6.5 -2 3
      vertex 6.5 9 -3
      vertex 6.5 2 3
    endloop
  endfacet
  facet normal 1 0 0
    outer loop
      vertex 6.5 -9 -3
      vertex 6.5 -2 3
      vertex 6.5 -9 3
    endloop
  endfacet
  facet normal 1 0 0
    outer loop
      vertex 6.5 -2 3
      vertex 6.5 -9 -3
      vertex 6.5 9 -3
    endloop
  endfacet
  facet normal -0 0 1
    outer loop
      vertex -6.5 -9 7
      vertex 26.5 -13 7
      vertex 26.5 -9 7
    endloop
  endfacet
  facet normal 0 0 1
    outer loop
      vertex 26.5 -13 7
      vertex -6.5 -9 7
      vertex -6.5 -13 7
    endloop
  endfacet
  facet normal 1 -0 0
    outer loop
      vertex 26.5 -13 7
      vertex 26.5 -9 -3
      vertex 26.5 -9 7
    endloop
  endfacet
  facet normal 1 0 0
    outer loop
      vertex 26.5 -9 -3
      vertex 26.5 -13 7
      vertex 26.5 -13 -3
    endloop
  endfacet
  facet normal 0 1 0
    outer loop
      vertex 26.5 -9 7
      vertex 6.5 -9 3
      vertex -6.5 -9 7
    endloop
  endfacet
  facet normal 0 1 -0
    outer loop
      vertex 26.5 -9 -3
      vertex 6.5 -9 3
      vertex 26.5 -9 7
    endloop
  endfacet
  facet normal 0 1 0
    outer loop
      vertex 6.5 -9 3
      vertex 26.5 -9 -3
      vertex 6.5 -9 -3
    endloop
  endfacet
  facet normal 0 1 0
    outer loop
      vertex -6.5 -9 7
      vertex 6.5 -9 3
      vertex -6.5 -9 3
    endloop
  endfacet
  facet normal 0 -1 0
    outer loop
      vertex -6.5 -13 -3
      vertex 26.5 -13 7
      vertex -6.5 -13 7
    endloop
  endfacet
  facet normal 0 -1 -0
    outer loop
      vertex 26.5 -13 7
      vertex -6.5 -13 -3
      vertex 26.5 -13 -3
    endloop
  endfacet
endsolid OpenSCAD_Model
